G04 (created by PCBNEW (22-Jun-2014 BZR 4027)-stable) date lun 20 oct 2014 04:40:32 CST*
%MOIN*%
G04 Gerber Fmt 3.4, Leading zero omitted, Abs format*
%FSLAX34Y34*%
G01*
G70*
G90*
G04 APERTURE LIST*
%ADD10C,0.00590551*%
%ADD11C,0.006*%
%ADD12C,0.005*%
%ADD13C,0.015*%
%ADD14C,0.012*%
%ADD15C,0.0026*%
%ADD16C,0.004*%
%ADD17C,0.01*%
%ADD18C,0.002*%
%ADD19C,0.0035*%
%ADD20C,0.008*%
%ADD21C,0.0047*%
%ADD22C,0.01125*%
%ADD23C,0.0108*%
G04 APERTURE END LIST*
G54D10*
G54D11*
X106330Y-53705D02*
X107330Y-53705D01*
X107330Y-53705D02*
X107330Y-55705D01*
X107330Y-55705D02*
X106330Y-55705D01*
X106330Y-55705D02*
X106330Y-53705D01*
X76950Y-66240D02*
X75950Y-66240D01*
X75950Y-65240D02*
X76950Y-65240D01*
X75950Y-66240D02*
X75950Y-65240D01*
X76950Y-65240D02*
X76950Y-66240D01*
X96050Y-59990D02*
X97050Y-59990D01*
X97050Y-60990D02*
X96050Y-60990D01*
X97050Y-59990D02*
X97050Y-60990D01*
X96050Y-60990D02*
X96050Y-59990D01*
X102865Y-61230D02*
X103865Y-61230D01*
X103865Y-62230D02*
X102865Y-62230D01*
X103865Y-61230D02*
X103865Y-62230D01*
X102865Y-62230D02*
X102865Y-61230D01*
G54D10*
X51715Y-70910D02*
X56115Y-70910D01*
X56115Y-70910D02*
X56115Y-61910D01*
X56115Y-61910D02*
X51715Y-61910D01*
X51715Y-61910D02*
X51715Y-70910D01*
G54D12*
X101790Y-64610D02*
X101790Y-64050D01*
X103060Y-64680D02*
X102250Y-64680D01*
X102250Y-63960D02*
X103060Y-63960D01*
X103520Y-64610D02*
X103520Y-64050D01*
X103090Y-64050D02*
X103510Y-64050D01*
X103510Y-64610D02*
X103080Y-64610D01*
X102230Y-64610D02*
X101790Y-64610D01*
X101800Y-64050D02*
X102230Y-64050D01*
X103070Y-64680D02*
X103070Y-63960D01*
X102410Y-64680D02*
X102410Y-63960D01*
X102250Y-63960D02*
X102250Y-64680D01*
X92830Y-62720D02*
X93390Y-62720D01*
X92760Y-63990D02*
X92760Y-63180D01*
X93480Y-63180D02*
X93480Y-63990D01*
X92830Y-64450D02*
X93390Y-64450D01*
X93390Y-64020D02*
X93390Y-64440D01*
X92830Y-64440D02*
X92830Y-64010D01*
X92830Y-63160D02*
X92830Y-62720D01*
X93390Y-62730D02*
X93390Y-63160D01*
X92760Y-64000D02*
X93480Y-64000D01*
X92760Y-63340D02*
X93480Y-63340D01*
X93480Y-63180D02*
X92760Y-63180D01*
G54D13*
X57710Y-53230D02*
G75*
G03X57710Y-53230I-900J0D01*
G74*
G01*
X58738Y-71764D02*
G75*
G03X58738Y-71764I-900J0D01*
G74*
G01*
X113418Y-60956D02*
G75*
G03X113418Y-60956I-900J0D01*
G74*
G01*
G54D10*
X113496Y-58030D02*
G75*
G03X113496Y-58030I-1258J0D01*
G74*
G01*
G54D14*
X113218Y-58530D02*
X111238Y-58530D01*
X111238Y-58530D02*
X111238Y-57530D01*
X111238Y-57530D02*
X113238Y-57530D01*
X113238Y-57530D02*
X113238Y-58530D01*
X113238Y-58280D02*
X112988Y-58530D01*
G54D10*
X100646Y-63835D02*
G75*
G03X100646Y-63835I-1258J0D01*
G74*
G01*
G54D14*
X98408Y-63335D02*
X100388Y-63335D01*
X100388Y-63335D02*
X100388Y-64335D01*
X100388Y-64335D02*
X98388Y-64335D01*
X98388Y-64335D02*
X98388Y-63335D01*
X98388Y-63585D02*
X98638Y-63335D01*
G54D10*
X81133Y-63960D02*
G75*
G03X81133Y-63960I-1258J0D01*
G74*
G01*
G54D14*
X80855Y-64460D02*
X78875Y-64460D01*
X78875Y-64460D02*
X78875Y-63460D01*
X78875Y-63460D02*
X80875Y-63460D01*
X80875Y-63460D02*
X80875Y-64460D01*
X80875Y-64210D02*
X80625Y-64460D01*
G54D10*
X61573Y-69975D02*
G75*
G03X61573Y-69975I-1258J0D01*
G74*
G01*
G54D14*
X59815Y-70955D02*
X59815Y-68975D01*
X59815Y-68975D02*
X60815Y-68975D01*
X60815Y-68975D02*
X60815Y-70975D01*
X60815Y-70975D02*
X59815Y-70975D01*
X60065Y-70975D02*
X59815Y-70725D01*
G54D10*
X92098Y-63830D02*
G75*
G03X92098Y-63830I-1258J0D01*
G74*
G01*
G54D14*
X89860Y-63330D02*
X91840Y-63330D01*
X91840Y-63330D02*
X91840Y-64330D01*
X91840Y-64330D02*
X89840Y-64330D01*
X89840Y-64330D02*
X89840Y-63330D01*
X89840Y-63580D02*
X90090Y-63330D01*
G54D10*
X107958Y-68140D02*
G75*
G03X107958Y-68140I-1258J0D01*
G74*
G01*
G54D14*
X107200Y-67160D02*
X107200Y-69140D01*
X107200Y-69140D02*
X106200Y-69140D01*
X106200Y-69140D02*
X106200Y-67140D01*
X106200Y-67140D02*
X107200Y-67140D01*
X106950Y-67140D02*
X107200Y-67390D01*
G54D10*
X112732Y-55066D02*
G75*
G03X112732Y-55066I-1258J0D01*
G74*
G01*
G54D14*
X111974Y-54086D02*
X111974Y-56066D01*
X111974Y-56066D02*
X110974Y-56066D01*
X110974Y-56066D02*
X110974Y-54066D01*
X110974Y-54066D02*
X111974Y-54066D01*
X111724Y-54066D02*
X111974Y-54316D01*
G54D12*
X58615Y-58110D02*
X59255Y-58110D01*
X59255Y-57210D02*
X58615Y-57210D01*
X59255Y-57030D02*
X58615Y-57030D01*
X58615Y-57030D02*
X58615Y-58290D01*
X58615Y-58290D02*
X59255Y-58290D01*
X59255Y-58290D02*
X59255Y-57030D01*
X113110Y-55470D02*
X113750Y-55470D01*
X113750Y-54570D02*
X113110Y-54570D01*
X113750Y-54390D02*
X113110Y-54390D01*
X113110Y-54390D02*
X113110Y-55650D01*
X113110Y-55650D02*
X113750Y-55650D01*
X113750Y-55650D02*
X113750Y-54390D01*
X79875Y-71015D02*
X79875Y-70375D01*
X78975Y-70375D02*
X78975Y-71015D01*
X78795Y-70375D02*
X78795Y-71015D01*
X78795Y-71015D02*
X80055Y-71015D01*
X80055Y-71015D02*
X80055Y-70375D01*
X80055Y-70375D02*
X78795Y-70375D01*
X77985Y-72063D02*
X77345Y-72063D01*
X77345Y-72963D02*
X77985Y-72963D01*
X77345Y-73143D02*
X77985Y-73143D01*
X77985Y-73143D02*
X77985Y-71883D01*
X77985Y-71883D02*
X77345Y-71883D01*
X77345Y-71883D02*
X77345Y-73143D01*
X68190Y-61820D02*
X67550Y-61820D01*
X67550Y-62720D02*
X68190Y-62720D01*
X67550Y-62900D02*
X68190Y-62900D01*
X68190Y-62900D02*
X68190Y-61640D01*
X68190Y-61640D02*
X67550Y-61640D01*
X67550Y-61640D02*
X67550Y-62900D01*
X88570Y-64350D02*
X89210Y-64350D01*
X89210Y-63450D02*
X88570Y-63450D01*
X89210Y-63270D02*
X88570Y-63270D01*
X88570Y-63270D02*
X88570Y-64530D01*
X88570Y-64530D02*
X89210Y-64530D01*
X89210Y-64530D02*
X89210Y-63270D01*
X104925Y-62365D02*
X105565Y-62365D01*
X105565Y-61465D02*
X104925Y-61465D01*
X105565Y-61285D02*
X104925Y-61285D01*
X104925Y-61285D02*
X104925Y-62545D01*
X104925Y-62545D02*
X105565Y-62545D01*
X105565Y-62545D02*
X105565Y-61285D01*
X96546Y-62294D02*
X96546Y-61654D01*
X95646Y-61654D02*
X95646Y-62294D01*
X95466Y-61654D02*
X95466Y-62294D01*
X95466Y-62294D02*
X96726Y-62294D01*
X96726Y-62294D02*
X96726Y-61654D01*
X96726Y-61654D02*
X95466Y-61654D01*
X98014Y-61866D02*
X98654Y-61866D01*
X98654Y-60966D02*
X98014Y-60966D01*
X98654Y-60786D02*
X98014Y-60786D01*
X98014Y-60786D02*
X98014Y-62046D01*
X98014Y-62046D02*
X98654Y-62046D01*
X98654Y-62046D02*
X98654Y-60786D01*
X83304Y-64448D02*
X83304Y-65088D01*
X84204Y-65088D02*
X84204Y-64448D01*
X84384Y-65088D02*
X84384Y-64448D01*
X84384Y-64448D02*
X83124Y-64448D01*
X83124Y-64448D02*
X83124Y-65088D01*
X83124Y-65088D02*
X84384Y-65088D01*
X82686Y-62820D02*
X83326Y-62820D01*
X83326Y-61920D02*
X82686Y-61920D01*
X83326Y-61740D02*
X82686Y-61740D01*
X82686Y-61740D02*
X82686Y-63000D01*
X82686Y-63000D02*
X83326Y-63000D01*
X83326Y-63000D02*
X83326Y-61740D01*
X63715Y-62903D02*
X63075Y-62903D01*
X63075Y-63803D02*
X63715Y-63803D01*
X63075Y-63983D02*
X63715Y-63983D01*
X63715Y-63983D02*
X63715Y-62723D01*
X63715Y-62723D02*
X63075Y-62723D01*
X63075Y-62723D02*
X63075Y-63983D01*
X64574Y-62698D02*
X65214Y-62698D01*
X65214Y-61798D02*
X64574Y-61798D01*
X65214Y-61618D02*
X64574Y-61618D01*
X64574Y-61618D02*
X64574Y-62878D01*
X64574Y-62878D02*
X65214Y-62878D01*
X65214Y-62878D02*
X65214Y-61618D01*
X104025Y-71015D02*
X104025Y-70375D01*
X103125Y-70375D02*
X103125Y-71015D01*
X102945Y-70375D02*
X102945Y-71015D01*
X102945Y-71015D02*
X104205Y-71015D01*
X104205Y-71015D02*
X104205Y-70375D01*
X104205Y-70375D02*
X102945Y-70375D01*
X97320Y-69770D02*
X96680Y-69770D01*
X96680Y-70670D02*
X97320Y-70670D01*
X96680Y-70850D02*
X97320Y-70850D01*
X97320Y-70850D02*
X97320Y-69590D01*
X97320Y-69590D02*
X96680Y-69590D01*
X96680Y-69590D02*
X96680Y-70850D01*
X96320Y-69770D02*
X95680Y-69770D01*
X95680Y-70670D02*
X96320Y-70670D01*
X95680Y-70850D02*
X96320Y-70850D01*
X96320Y-70850D02*
X96320Y-69590D01*
X96320Y-69590D02*
X95680Y-69590D01*
X95680Y-69590D02*
X95680Y-70850D01*
X110800Y-70270D02*
X110800Y-69630D01*
X109900Y-69630D02*
X109900Y-70270D01*
X109720Y-69630D02*
X109720Y-70270D01*
X109720Y-70270D02*
X110980Y-70270D01*
X110980Y-70270D02*
X110980Y-69630D01*
X110980Y-69630D02*
X109720Y-69630D01*
X109255Y-68400D02*
X109895Y-68400D01*
X109895Y-67500D02*
X109255Y-67500D01*
X109895Y-67320D02*
X109255Y-67320D01*
X109255Y-67320D02*
X109255Y-68580D01*
X109255Y-68580D02*
X109895Y-68580D01*
X109895Y-68580D02*
X109895Y-67320D01*
G54D15*
X99618Y-61429D02*
X99618Y-61351D01*
X99618Y-61351D02*
X99540Y-61351D01*
X99540Y-61429D02*
X99540Y-61351D01*
X99618Y-61429D02*
X99540Y-61429D01*
X99854Y-61213D02*
X99854Y-61076D01*
X99854Y-61076D02*
X99756Y-61076D01*
X99756Y-61213D02*
X99756Y-61076D01*
X99854Y-61213D02*
X99756Y-61213D01*
X99854Y-61076D02*
X99854Y-61036D01*
X99854Y-61036D02*
X99383Y-61036D01*
X99383Y-61076D02*
X99383Y-61036D01*
X99854Y-61076D02*
X99383Y-61076D01*
X99363Y-61076D02*
X99363Y-61036D01*
X99363Y-61036D02*
X99304Y-61036D01*
X99304Y-61076D02*
X99304Y-61036D01*
X99363Y-61076D02*
X99304Y-61076D01*
X99854Y-61744D02*
X99854Y-61704D01*
X99854Y-61704D02*
X99383Y-61704D01*
X99383Y-61744D02*
X99383Y-61704D01*
X99854Y-61744D02*
X99383Y-61744D01*
X99363Y-61744D02*
X99363Y-61704D01*
X99363Y-61704D02*
X99304Y-61704D01*
X99304Y-61744D02*
X99304Y-61704D01*
X99363Y-61744D02*
X99304Y-61744D01*
X99854Y-61213D02*
X99854Y-61154D01*
X99854Y-61154D02*
X99756Y-61154D01*
X99756Y-61213D02*
X99756Y-61154D01*
X99854Y-61213D02*
X99756Y-61213D01*
G54D16*
X99874Y-60780D02*
X99874Y-62000D01*
X99874Y-62000D02*
X99284Y-62000D01*
X99284Y-62000D02*
X99284Y-60780D01*
X99284Y-60780D02*
X99874Y-60780D01*
X99775Y-61605D02*
G75*
G03X99774Y-61173I-196J215D01*
G74*
G01*
X99382Y-61605D02*
G75*
G03X99774Y-61606I196J215D01*
G74*
G01*
X99382Y-61174D02*
G75*
G03X99383Y-61606I196J-215D01*
G74*
G01*
X99775Y-61174D02*
G75*
G03X99383Y-61173I-196J-215D01*
G74*
G01*
G54D15*
X101104Y-61349D02*
X101104Y-61427D01*
X101104Y-61427D02*
X101182Y-61427D01*
X101182Y-61349D02*
X101182Y-61427D01*
X101104Y-61349D02*
X101182Y-61349D01*
X100868Y-61565D02*
X100868Y-61702D01*
X100868Y-61702D02*
X100966Y-61702D01*
X100966Y-61565D02*
X100966Y-61702D01*
X100868Y-61565D02*
X100966Y-61565D01*
X100868Y-61702D02*
X100868Y-61742D01*
X100868Y-61742D02*
X101339Y-61742D01*
X101339Y-61702D02*
X101339Y-61742D01*
X100868Y-61702D02*
X101339Y-61702D01*
X101359Y-61702D02*
X101359Y-61742D01*
X101359Y-61742D02*
X101418Y-61742D01*
X101418Y-61702D02*
X101418Y-61742D01*
X101359Y-61702D02*
X101418Y-61702D01*
X100868Y-61034D02*
X100868Y-61074D01*
X100868Y-61074D02*
X101339Y-61074D01*
X101339Y-61034D02*
X101339Y-61074D01*
X100868Y-61034D02*
X101339Y-61034D01*
X101359Y-61034D02*
X101359Y-61074D01*
X101359Y-61074D02*
X101418Y-61074D01*
X101418Y-61034D02*
X101418Y-61074D01*
X101359Y-61034D02*
X101418Y-61034D01*
X100868Y-61565D02*
X100868Y-61624D01*
X100868Y-61624D02*
X100966Y-61624D01*
X100966Y-61565D02*
X100966Y-61624D01*
X100868Y-61565D02*
X100966Y-61565D01*
G54D16*
X100848Y-61998D02*
X100848Y-60778D01*
X100848Y-60778D02*
X101438Y-60778D01*
X101438Y-60778D02*
X101438Y-61998D01*
X101438Y-61998D02*
X100848Y-61998D01*
X100946Y-61172D02*
G75*
G03X100947Y-61604I196J-215D01*
G74*
G01*
X101339Y-61172D02*
G75*
G03X100947Y-61171I-196J-215D01*
G74*
G01*
X101339Y-61603D02*
G75*
G03X101338Y-61171I-196J215D01*
G74*
G01*
X100946Y-61603D02*
G75*
G03X101338Y-61604I196J215D01*
G74*
G01*
G54D15*
X79955Y-62383D02*
X79955Y-62305D01*
X79955Y-62305D02*
X79877Y-62305D01*
X79877Y-62383D02*
X79877Y-62305D01*
X79955Y-62383D02*
X79877Y-62383D01*
X80191Y-62167D02*
X80191Y-62030D01*
X80191Y-62030D02*
X80093Y-62030D01*
X80093Y-62167D02*
X80093Y-62030D01*
X80191Y-62167D02*
X80093Y-62167D01*
X80191Y-62030D02*
X80191Y-61990D01*
X80191Y-61990D02*
X79720Y-61990D01*
X79720Y-62030D02*
X79720Y-61990D01*
X80191Y-62030D02*
X79720Y-62030D01*
X79700Y-62030D02*
X79700Y-61990D01*
X79700Y-61990D02*
X79641Y-61990D01*
X79641Y-62030D02*
X79641Y-61990D01*
X79700Y-62030D02*
X79641Y-62030D01*
X80191Y-62698D02*
X80191Y-62658D01*
X80191Y-62658D02*
X79720Y-62658D01*
X79720Y-62698D02*
X79720Y-62658D01*
X80191Y-62698D02*
X79720Y-62698D01*
X79700Y-62698D02*
X79700Y-62658D01*
X79700Y-62658D02*
X79641Y-62658D01*
X79641Y-62698D02*
X79641Y-62658D01*
X79700Y-62698D02*
X79641Y-62698D01*
X80191Y-62167D02*
X80191Y-62108D01*
X80191Y-62108D02*
X80093Y-62108D01*
X80093Y-62167D02*
X80093Y-62108D01*
X80191Y-62167D02*
X80093Y-62167D01*
G54D16*
X80211Y-61734D02*
X80211Y-62954D01*
X80211Y-62954D02*
X79621Y-62954D01*
X79621Y-62954D02*
X79621Y-61734D01*
X79621Y-61734D02*
X80211Y-61734D01*
X80112Y-62559D02*
G75*
G03X80111Y-62127I-196J215D01*
G74*
G01*
X79719Y-62559D02*
G75*
G03X80111Y-62560I196J215D01*
G74*
G01*
X79719Y-62128D02*
G75*
G03X79720Y-62560I196J-215D01*
G74*
G01*
X80112Y-62128D02*
G75*
G03X79720Y-62127I-196J-215D01*
G74*
G01*
G54D15*
X81149Y-62320D02*
X81149Y-62398D01*
X81149Y-62398D02*
X81227Y-62398D01*
X81227Y-62320D02*
X81227Y-62398D01*
X81149Y-62320D02*
X81227Y-62320D01*
X80913Y-62536D02*
X80913Y-62673D01*
X80913Y-62673D02*
X81011Y-62673D01*
X81011Y-62536D02*
X81011Y-62673D01*
X80913Y-62536D02*
X81011Y-62536D01*
X80913Y-62673D02*
X80913Y-62713D01*
X80913Y-62713D02*
X81384Y-62713D01*
X81384Y-62673D02*
X81384Y-62713D01*
X80913Y-62673D02*
X81384Y-62673D01*
X81404Y-62673D02*
X81404Y-62713D01*
X81404Y-62713D02*
X81463Y-62713D01*
X81463Y-62673D02*
X81463Y-62713D01*
X81404Y-62673D02*
X81463Y-62673D01*
X80913Y-62005D02*
X80913Y-62045D01*
X80913Y-62045D02*
X81384Y-62045D01*
X81384Y-62005D02*
X81384Y-62045D01*
X80913Y-62005D02*
X81384Y-62005D01*
X81404Y-62005D02*
X81404Y-62045D01*
X81404Y-62045D02*
X81463Y-62045D01*
X81463Y-62005D02*
X81463Y-62045D01*
X81404Y-62005D02*
X81463Y-62005D01*
X80913Y-62536D02*
X80913Y-62595D01*
X80913Y-62595D02*
X81011Y-62595D01*
X81011Y-62536D02*
X81011Y-62595D01*
X80913Y-62536D02*
X81011Y-62536D01*
G54D16*
X80893Y-62969D02*
X80893Y-61749D01*
X80893Y-61749D02*
X81483Y-61749D01*
X81483Y-61749D02*
X81483Y-62969D01*
X81483Y-62969D02*
X80893Y-62969D01*
X80991Y-62143D02*
G75*
G03X80992Y-62575I196J-215D01*
G74*
G01*
X81384Y-62143D02*
G75*
G03X80992Y-62142I-196J-215D01*
G74*
G01*
X81384Y-62574D02*
G75*
G03X81383Y-62142I-196J215D01*
G74*
G01*
X80991Y-62574D02*
G75*
G03X81383Y-62575I196J215D01*
G74*
G01*
G54D15*
X60345Y-62291D02*
X60345Y-62213D01*
X60345Y-62213D02*
X60267Y-62213D01*
X60267Y-62291D02*
X60267Y-62213D01*
X60345Y-62291D02*
X60267Y-62291D01*
X60581Y-62075D02*
X60581Y-61938D01*
X60581Y-61938D02*
X60483Y-61938D01*
X60483Y-62075D02*
X60483Y-61938D01*
X60581Y-62075D02*
X60483Y-62075D01*
X60581Y-61938D02*
X60581Y-61898D01*
X60581Y-61898D02*
X60110Y-61898D01*
X60110Y-61938D02*
X60110Y-61898D01*
X60581Y-61938D02*
X60110Y-61938D01*
X60090Y-61938D02*
X60090Y-61898D01*
X60090Y-61898D02*
X60031Y-61898D01*
X60031Y-61938D02*
X60031Y-61898D01*
X60090Y-61938D02*
X60031Y-61938D01*
X60581Y-62606D02*
X60581Y-62566D01*
X60581Y-62566D02*
X60110Y-62566D01*
X60110Y-62606D02*
X60110Y-62566D01*
X60581Y-62606D02*
X60110Y-62606D01*
X60090Y-62606D02*
X60090Y-62566D01*
X60090Y-62566D02*
X60031Y-62566D01*
X60031Y-62606D02*
X60031Y-62566D01*
X60090Y-62606D02*
X60031Y-62606D01*
X60581Y-62075D02*
X60581Y-62016D01*
X60581Y-62016D02*
X60483Y-62016D01*
X60483Y-62075D02*
X60483Y-62016D01*
X60581Y-62075D02*
X60483Y-62075D01*
G54D16*
X60601Y-61642D02*
X60601Y-62862D01*
X60601Y-62862D02*
X60011Y-62862D01*
X60011Y-62862D02*
X60011Y-61642D01*
X60011Y-61642D02*
X60601Y-61642D01*
X60502Y-62467D02*
G75*
G03X60501Y-62035I-196J215D01*
G74*
G01*
X60109Y-62467D02*
G75*
G03X60501Y-62468I196J215D01*
G74*
G01*
X60109Y-62036D02*
G75*
G03X60110Y-62468I196J-215D01*
G74*
G01*
X60502Y-62036D02*
G75*
G03X60110Y-62035I-196J-215D01*
G74*
G01*
G54D15*
X61785Y-62213D02*
X61785Y-62291D01*
X61785Y-62291D02*
X61863Y-62291D01*
X61863Y-62213D02*
X61863Y-62291D01*
X61785Y-62213D02*
X61863Y-62213D01*
X61549Y-62429D02*
X61549Y-62566D01*
X61549Y-62566D02*
X61647Y-62566D01*
X61647Y-62429D02*
X61647Y-62566D01*
X61549Y-62429D02*
X61647Y-62429D01*
X61549Y-62566D02*
X61549Y-62606D01*
X61549Y-62606D02*
X62020Y-62606D01*
X62020Y-62566D02*
X62020Y-62606D01*
X61549Y-62566D02*
X62020Y-62566D01*
X62040Y-62566D02*
X62040Y-62606D01*
X62040Y-62606D02*
X62099Y-62606D01*
X62099Y-62566D02*
X62099Y-62606D01*
X62040Y-62566D02*
X62099Y-62566D01*
X61549Y-61898D02*
X61549Y-61938D01*
X61549Y-61938D02*
X62020Y-61938D01*
X62020Y-61898D02*
X62020Y-61938D01*
X61549Y-61898D02*
X62020Y-61898D01*
X62040Y-61898D02*
X62040Y-61938D01*
X62040Y-61938D02*
X62099Y-61938D01*
X62099Y-61898D02*
X62099Y-61938D01*
X62040Y-61898D02*
X62099Y-61898D01*
X61549Y-62429D02*
X61549Y-62488D01*
X61549Y-62488D02*
X61647Y-62488D01*
X61647Y-62429D02*
X61647Y-62488D01*
X61549Y-62429D02*
X61647Y-62429D01*
G54D16*
X61529Y-62862D02*
X61529Y-61642D01*
X61529Y-61642D02*
X62119Y-61642D01*
X62119Y-61642D02*
X62119Y-62862D01*
X62119Y-62862D02*
X61529Y-62862D01*
X61627Y-62036D02*
G75*
G03X61628Y-62468I196J-215D01*
G74*
G01*
X62020Y-62036D02*
G75*
G03X61628Y-62035I-196J-215D01*
G74*
G01*
X62020Y-62467D02*
G75*
G03X62019Y-62035I-196J215D01*
G74*
G01*
X61627Y-62467D02*
G75*
G03X62019Y-62468I196J215D01*
G74*
G01*
G54D15*
X60225Y-58811D02*
X60225Y-58733D01*
X60225Y-58733D02*
X60147Y-58733D01*
X60147Y-58811D02*
X60147Y-58733D01*
X60225Y-58811D02*
X60147Y-58811D01*
X60461Y-58595D02*
X60461Y-58458D01*
X60461Y-58458D02*
X60363Y-58458D01*
X60363Y-58595D02*
X60363Y-58458D01*
X60461Y-58595D02*
X60363Y-58595D01*
X60461Y-58458D02*
X60461Y-58418D01*
X60461Y-58418D02*
X59990Y-58418D01*
X59990Y-58458D02*
X59990Y-58418D01*
X60461Y-58458D02*
X59990Y-58458D01*
X59970Y-58458D02*
X59970Y-58418D01*
X59970Y-58418D02*
X59911Y-58418D01*
X59911Y-58458D02*
X59911Y-58418D01*
X59970Y-58458D02*
X59911Y-58458D01*
X60461Y-59126D02*
X60461Y-59086D01*
X60461Y-59086D02*
X59990Y-59086D01*
X59990Y-59126D02*
X59990Y-59086D01*
X60461Y-59126D02*
X59990Y-59126D01*
X59970Y-59126D02*
X59970Y-59086D01*
X59970Y-59086D02*
X59911Y-59086D01*
X59911Y-59126D02*
X59911Y-59086D01*
X59970Y-59126D02*
X59911Y-59126D01*
X60461Y-58595D02*
X60461Y-58536D01*
X60461Y-58536D02*
X60363Y-58536D01*
X60363Y-58595D02*
X60363Y-58536D01*
X60461Y-58595D02*
X60363Y-58595D01*
G54D16*
X60481Y-58162D02*
X60481Y-59382D01*
X60481Y-59382D02*
X59891Y-59382D01*
X59891Y-59382D02*
X59891Y-58162D01*
X59891Y-58162D02*
X60481Y-58162D01*
X60382Y-58987D02*
G75*
G03X60381Y-58555I-196J215D01*
G74*
G01*
X59989Y-58987D02*
G75*
G03X60381Y-58988I196J215D01*
G74*
G01*
X59989Y-58556D02*
G75*
G03X59990Y-58988I196J-215D01*
G74*
G01*
X60382Y-58556D02*
G75*
G03X59990Y-58555I-196J-215D01*
G74*
G01*
G54D15*
X112752Y-53091D02*
X112830Y-53091D01*
X112830Y-53091D02*
X112830Y-53013D01*
X112752Y-53013D02*
X112830Y-53013D01*
X112752Y-53091D02*
X112752Y-53013D01*
X112968Y-53327D02*
X113105Y-53327D01*
X113105Y-53327D02*
X113105Y-53229D01*
X112968Y-53229D02*
X113105Y-53229D01*
X112968Y-53327D02*
X112968Y-53229D01*
X113105Y-53327D02*
X113145Y-53327D01*
X113145Y-53327D02*
X113145Y-52856D01*
X113105Y-52856D02*
X113145Y-52856D01*
X113105Y-53327D02*
X113105Y-52856D01*
X113105Y-52836D02*
X113145Y-52836D01*
X113145Y-52836D02*
X113145Y-52777D01*
X113105Y-52777D02*
X113145Y-52777D01*
X113105Y-52836D02*
X113105Y-52777D01*
X112437Y-53327D02*
X112477Y-53327D01*
X112477Y-53327D02*
X112477Y-52856D01*
X112437Y-52856D02*
X112477Y-52856D01*
X112437Y-53327D02*
X112437Y-52856D01*
X112437Y-52836D02*
X112477Y-52836D01*
X112477Y-52836D02*
X112477Y-52777D01*
X112437Y-52777D02*
X112477Y-52777D01*
X112437Y-52836D02*
X112437Y-52777D01*
X112968Y-53327D02*
X113027Y-53327D01*
X113027Y-53327D02*
X113027Y-53229D01*
X112968Y-53229D02*
X113027Y-53229D01*
X112968Y-53327D02*
X112968Y-53229D01*
G54D16*
X113401Y-53347D02*
X112181Y-53347D01*
X112181Y-53347D02*
X112181Y-52757D01*
X112181Y-52757D02*
X113401Y-52757D01*
X113401Y-52757D02*
X113401Y-53347D01*
X112575Y-53248D02*
G75*
G03X113007Y-53247I215J196D01*
G74*
G01*
X112575Y-52855D02*
G75*
G03X112574Y-53247I215J-196D01*
G74*
G01*
X113006Y-52855D02*
G75*
G03X112574Y-52856I-215J-196D01*
G74*
G01*
X113006Y-53248D02*
G75*
G03X113007Y-52856I-215J196D01*
G74*
G01*
G54D15*
X110826Y-67941D02*
X110826Y-68019D01*
X110826Y-68019D02*
X110904Y-68019D01*
X110904Y-67941D02*
X110904Y-68019D01*
X110826Y-67941D02*
X110904Y-67941D01*
X110590Y-68157D02*
X110590Y-68294D01*
X110590Y-68294D02*
X110688Y-68294D01*
X110688Y-68157D02*
X110688Y-68294D01*
X110590Y-68157D02*
X110688Y-68157D01*
X110590Y-68294D02*
X110590Y-68334D01*
X110590Y-68334D02*
X111061Y-68334D01*
X111061Y-68294D02*
X111061Y-68334D01*
X110590Y-68294D02*
X111061Y-68294D01*
X111081Y-68294D02*
X111081Y-68334D01*
X111081Y-68334D02*
X111140Y-68334D01*
X111140Y-68294D02*
X111140Y-68334D01*
X111081Y-68294D02*
X111140Y-68294D01*
X110590Y-67626D02*
X110590Y-67666D01*
X110590Y-67666D02*
X111061Y-67666D01*
X111061Y-67626D02*
X111061Y-67666D01*
X110590Y-67626D02*
X111061Y-67626D01*
X111081Y-67626D02*
X111081Y-67666D01*
X111081Y-67666D02*
X111140Y-67666D01*
X111140Y-67626D02*
X111140Y-67666D01*
X111081Y-67626D02*
X111140Y-67626D01*
X110590Y-68157D02*
X110590Y-68216D01*
X110590Y-68216D02*
X110688Y-68216D01*
X110688Y-68157D02*
X110688Y-68216D01*
X110590Y-68157D02*
X110688Y-68157D01*
G54D16*
X110570Y-68590D02*
X110570Y-67370D01*
X110570Y-67370D02*
X111160Y-67370D01*
X111160Y-67370D02*
X111160Y-68590D01*
X111160Y-68590D02*
X110570Y-68590D01*
X110668Y-67764D02*
G75*
G03X110669Y-68196I196J-215D01*
G74*
G01*
X111061Y-67764D02*
G75*
G03X110669Y-67763I-196J-215D01*
G74*
G01*
X111061Y-68195D02*
G75*
G03X111060Y-67763I-196J215D01*
G74*
G01*
X110668Y-68195D02*
G75*
G03X111060Y-68196I196J215D01*
G74*
G01*
G54D15*
X110301Y-71119D02*
X110379Y-71119D01*
X110379Y-71119D02*
X110379Y-71041D01*
X110301Y-71041D02*
X110379Y-71041D01*
X110301Y-71119D02*
X110301Y-71041D01*
X110517Y-71355D02*
X110654Y-71355D01*
X110654Y-71355D02*
X110654Y-71257D01*
X110517Y-71257D02*
X110654Y-71257D01*
X110517Y-71355D02*
X110517Y-71257D01*
X110654Y-71355D02*
X110694Y-71355D01*
X110694Y-71355D02*
X110694Y-70884D01*
X110654Y-70884D02*
X110694Y-70884D01*
X110654Y-71355D02*
X110654Y-70884D01*
X110654Y-70864D02*
X110694Y-70864D01*
X110694Y-70864D02*
X110694Y-70805D01*
X110654Y-70805D02*
X110694Y-70805D01*
X110654Y-70864D02*
X110654Y-70805D01*
X109986Y-71355D02*
X110026Y-71355D01*
X110026Y-71355D02*
X110026Y-70884D01*
X109986Y-70884D02*
X110026Y-70884D01*
X109986Y-71355D02*
X109986Y-70884D01*
X109986Y-70864D02*
X110026Y-70864D01*
X110026Y-70864D02*
X110026Y-70805D01*
X109986Y-70805D02*
X110026Y-70805D01*
X109986Y-70864D02*
X109986Y-70805D01*
X110517Y-71355D02*
X110576Y-71355D01*
X110576Y-71355D02*
X110576Y-71257D01*
X110517Y-71257D02*
X110576Y-71257D01*
X110517Y-71355D02*
X110517Y-71257D01*
G54D16*
X110950Y-71375D02*
X109730Y-71375D01*
X109730Y-71375D02*
X109730Y-70785D01*
X109730Y-70785D02*
X110950Y-70785D01*
X110950Y-70785D02*
X110950Y-71375D01*
X110124Y-71276D02*
G75*
G03X110556Y-71275I215J196D01*
G74*
G01*
X110124Y-70883D02*
G75*
G03X110123Y-71275I215J-196D01*
G74*
G01*
X110555Y-70883D02*
G75*
G03X110123Y-70884I-215J-196D01*
G74*
G01*
X110555Y-71276D02*
G75*
G03X110556Y-70884I-215J196D01*
G74*
G01*
G54D15*
X107099Y-70661D02*
X107021Y-70661D01*
X107021Y-70661D02*
X107021Y-70739D01*
X107099Y-70739D02*
X107021Y-70739D01*
X107099Y-70661D02*
X107099Y-70739D01*
X106883Y-70425D02*
X106746Y-70425D01*
X106746Y-70425D02*
X106746Y-70523D01*
X106883Y-70523D02*
X106746Y-70523D01*
X106883Y-70425D02*
X106883Y-70523D01*
X106746Y-70425D02*
X106706Y-70425D01*
X106706Y-70425D02*
X106706Y-70896D01*
X106746Y-70896D02*
X106706Y-70896D01*
X106746Y-70425D02*
X106746Y-70896D01*
X106746Y-70916D02*
X106706Y-70916D01*
X106706Y-70916D02*
X106706Y-70975D01*
X106746Y-70975D02*
X106706Y-70975D01*
X106746Y-70916D02*
X106746Y-70975D01*
X107414Y-70425D02*
X107374Y-70425D01*
X107374Y-70425D02*
X107374Y-70896D01*
X107414Y-70896D02*
X107374Y-70896D01*
X107414Y-70425D02*
X107414Y-70896D01*
X107414Y-70916D02*
X107374Y-70916D01*
X107374Y-70916D02*
X107374Y-70975D01*
X107414Y-70975D02*
X107374Y-70975D01*
X107414Y-70916D02*
X107414Y-70975D01*
X106883Y-70425D02*
X106824Y-70425D01*
X106824Y-70425D02*
X106824Y-70523D01*
X106883Y-70523D02*
X106824Y-70523D01*
X106883Y-70425D02*
X106883Y-70523D01*
G54D16*
X106450Y-70405D02*
X107670Y-70405D01*
X107670Y-70405D02*
X107670Y-70995D01*
X107670Y-70995D02*
X106450Y-70995D01*
X106450Y-70995D02*
X106450Y-70405D01*
X107275Y-70503D02*
G75*
G03X106843Y-70504I-215J-196D01*
G74*
G01*
X107275Y-70896D02*
G75*
G03X107276Y-70504I-215J196D01*
G74*
G01*
X106844Y-70896D02*
G75*
G03X107276Y-70895I215J196D01*
G74*
G01*
X106844Y-70503D02*
G75*
G03X106843Y-70895I215J-196D01*
G74*
G01*
G54D12*
X57980Y-68760D02*
X57340Y-68760D01*
X57340Y-69660D02*
X57980Y-69660D01*
X57340Y-69840D02*
X57980Y-69840D01*
X57980Y-69840D02*
X57980Y-68580D01*
X57980Y-68580D02*
X57340Y-68580D01*
X57340Y-68580D02*
X57340Y-69840D01*
G54D10*
X64310Y-71565D02*
X62410Y-71565D01*
X62410Y-67365D02*
X62410Y-71565D01*
X64310Y-71565D02*
X64310Y-67365D01*
X62410Y-67365D02*
X64310Y-67365D01*
X62960Y-65665D02*
X62860Y-65665D01*
X109410Y-66700D02*
X107510Y-66700D01*
X107510Y-62500D02*
X107510Y-66700D01*
X109410Y-66700D02*
X109410Y-62500D01*
X107510Y-62500D02*
X109410Y-62500D01*
X108060Y-60800D02*
X107960Y-60800D01*
X113540Y-71025D02*
X111640Y-71025D01*
X111640Y-66825D02*
X111640Y-71025D01*
X113540Y-71025D02*
X113540Y-66825D01*
X111640Y-66825D02*
X113540Y-66825D01*
X112190Y-65125D02*
X112090Y-65125D01*
X104550Y-73550D02*
X104550Y-71650D01*
X108750Y-71650D02*
X104550Y-71650D01*
X104550Y-73550D02*
X108750Y-73550D01*
X108750Y-71650D02*
X108750Y-73550D01*
X110450Y-72200D02*
X110450Y-72100D01*
X113552Y-71606D02*
X113552Y-73506D01*
X109352Y-73506D02*
X113552Y-73506D01*
X113552Y-71606D02*
X109352Y-71606D01*
X109352Y-73506D02*
X109352Y-71606D01*
X107652Y-72956D02*
X107652Y-73056D01*
G54D17*
X67116Y-67124D02*
X67116Y-67624D01*
X67116Y-67624D02*
X66116Y-67624D01*
X66116Y-67624D02*
X66116Y-67124D01*
X67616Y-67124D02*
X67616Y-71124D01*
X67616Y-71124D02*
X65616Y-71124D01*
X65616Y-71124D02*
X65616Y-67124D01*
X65616Y-67124D02*
X67616Y-67124D01*
G54D13*
X86522Y-69046D02*
X78522Y-69046D01*
X78522Y-67046D02*
X86522Y-67046D01*
X86522Y-67046D02*
X86522Y-69046D01*
X86522Y-68546D02*
X86022Y-68546D01*
X86022Y-68546D02*
X86022Y-67546D01*
X86022Y-67546D02*
X86522Y-67546D01*
X78522Y-69046D02*
X78522Y-67046D01*
X95740Y-69002D02*
X87740Y-69002D01*
X87740Y-67002D02*
X95740Y-67002D01*
X95740Y-67002D02*
X95740Y-69002D01*
X95740Y-68502D02*
X95240Y-68502D01*
X95240Y-68502D02*
X95240Y-67502D01*
X95240Y-67502D02*
X95740Y-67502D01*
X87740Y-69002D02*
X87740Y-67002D01*
X105180Y-68920D02*
X97180Y-68920D01*
X97180Y-66920D02*
X105180Y-66920D01*
X105180Y-66920D02*
X105180Y-68920D01*
X105180Y-68420D02*
X104680Y-68420D01*
X104680Y-68420D02*
X104680Y-67420D01*
X104680Y-67420D02*
X105180Y-67420D01*
X97180Y-68920D02*
X97180Y-66920D01*
G54D14*
X103614Y-73551D02*
X78514Y-73551D01*
X103614Y-71551D02*
X78514Y-71551D01*
X103612Y-71551D02*
X103612Y-73551D01*
X78514Y-71551D02*
X78514Y-73551D01*
G54D10*
X63641Y-53527D02*
X62304Y-53527D01*
X62304Y-53527D02*
X62297Y-57090D01*
X62297Y-57090D02*
X63627Y-57083D01*
X63627Y-57083D02*
X63634Y-53534D01*
X66000Y-55264D02*
G75*
G03X66000Y-55264I-3036J0D01*
G74*
G01*
X95400Y-63400D02*
X110600Y-63400D01*
X110600Y-63400D02*
X110600Y-48200D01*
X110600Y-48200D02*
X95400Y-48200D01*
X95400Y-63400D02*
X95400Y-48200D01*
X99200Y-56200D02*
X99200Y-56300D01*
G54D14*
X102000Y-55800D02*
X102000Y-53800D01*
X103000Y-55800D02*
X103000Y-53800D01*
X104000Y-55800D02*
X104000Y-53800D01*
X105000Y-53800D02*
X105000Y-47800D01*
X105000Y-47800D02*
X101000Y-47800D01*
X101000Y-47800D02*
X101000Y-53800D01*
X101000Y-53800D02*
X105000Y-53800D01*
X104500Y-50800D02*
X101000Y-50800D01*
X104500Y-50800D02*
X105000Y-50800D01*
G54D10*
X80200Y-63400D02*
X95400Y-63400D01*
X95400Y-63400D02*
X95400Y-48200D01*
X95400Y-48200D02*
X80200Y-48200D01*
X80200Y-63400D02*
X80200Y-48200D01*
X84000Y-56200D02*
X84000Y-56300D01*
G54D14*
X86800Y-55800D02*
X86800Y-53800D01*
X87800Y-55800D02*
X87800Y-53800D01*
X88800Y-55800D02*
X88800Y-53800D01*
X89800Y-53800D02*
X89800Y-47800D01*
X89800Y-47800D02*
X85800Y-47800D01*
X85800Y-47800D02*
X85800Y-53800D01*
X85800Y-53800D02*
X89800Y-53800D01*
X89300Y-50800D02*
X85800Y-50800D01*
X89300Y-50800D02*
X89800Y-50800D01*
G54D10*
X65000Y-63400D02*
X80200Y-63400D01*
X80200Y-63400D02*
X80200Y-48200D01*
X80200Y-48200D02*
X65000Y-48200D01*
X65000Y-63400D02*
X65000Y-48200D01*
X68800Y-56200D02*
X68800Y-56300D01*
G54D14*
X71600Y-55800D02*
X71600Y-53800D01*
X72600Y-55800D02*
X72600Y-53800D01*
X73600Y-55800D02*
X73600Y-53800D01*
X74600Y-53800D02*
X74600Y-47800D01*
X74600Y-47800D02*
X70600Y-47800D01*
X70600Y-47800D02*
X70600Y-53800D01*
X70600Y-53800D02*
X74600Y-53800D01*
X74100Y-50800D02*
X70600Y-50800D01*
X74100Y-50800D02*
X74600Y-50800D01*
G54D10*
X56095Y-59295D02*
X57414Y-59293D01*
X57414Y-59293D02*
X57418Y-56432D01*
X57418Y-56432D02*
X56050Y-56431D01*
X56050Y-56431D02*
X56050Y-59293D01*
G54D12*
X65655Y-66085D02*
X65655Y-64085D01*
X65655Y-64085D02*
X67455Y-64085D01*
X67455Y-64085D02*
X67455Y-66085D01*
X67455Y-66085D02*
X65655Y-66085D01*
X66255Y-66085D02*
X66255Y-65885D01*
X66255Y-65885D02*
X66755Y-65885D01*
X66755Y-65885D02*
X66755Y-66085D01*
G54D13*
X87945Y-64620D02*
G75*
G03X87945Y-64620I-900J0D01*
G74*
G01*
G54D11*
X105951Y-54926D02*
X105651Y-54926D01*
X105651Y-54812D01*
X105665Y-54783D01*
X105680Y-54769D01*
X105708Y-54755D01*
X105751Y-54755D01*
X105780Y-54769D01*
X105794Y-54783D01*
X105808Y-54812D01*
X105808Y-54926D01*
X105651Y-54655D02*
X105651Y-54469D01*
X105765Y-54569D01*
X105765Y-54526D01*
X105780Y-54497D01*
X105794Y-54483D01*
X105822Y-54469D01*
X105894Y-54469D01*
X105922Y-54483D01*
X105937Y-54497D01*
X105951Y-54526D01*
X105951Y-54612D01*
X105937Y-54640D01*
X105922Y-54655D01*
X76254Y-66715D02*
X76254Y-66415D01*
X76368Y-66415D01*
X76397Y-66429D01*
X76411Y-66444D01*
X76426Y-66472D01*
X76426Y-66515D01*
X76411Y-66544D01*
X76397Y-66558D01*
X76368Y-66572D01*
X76254Y-66572D01*
X76711Y-66715D02*
X76540Y-66715D01*
X76626Y-66715D02*
X76626Y-66415D01*
X76597Y-66458D01*
X76568Y-66486D01*
X76540Y-66501D01*
X95880Y-61115D02*
X95880Y-60815D01*
X95994Y-60815D01*
X96023Y-60829D01*
X96037Y-60844D01*
X96052Y-60872D01*
X96052Y-60915D01*
X96037Y-60944D01*
X96023Y-60958D01*
X95994Y-60972D01*
X95880Y-60972D01*
X96309Y-60915D02*
X96309Y-61115D01*
X96237Y-60801D02*
X96166Y-61015D01*
X96352Y-61015D01*
X104295Y-62073D02*
X103995Y-62073D01*
X103995Y-61959D01*
X104009Y-61930D01*
X104024Y-61916D01*
X104052Y-61902D01*
X104095Y-61902D01*
X104124Y-61916D01*
X104138Y-61930D01*
X104152Y-61959D01*
X104152Y-62073D01*
X103995Y-61630D02*
X103995Y-61773D01*
X104138Y-61787D01*
X104124Y-61773D01*
X104109Y-61744D01*
X104109Y-61673D01*
X104124Y-61644D01*
X104138Y-61630D01*
X104166Y-61616D01*
X104238Y-61616D01*
X104266Y-61630D01*
X104281Y-61644D01*
X104295Y-61673D01*
X104295Y-61744D01*
X104281Y-61773D01*
X104266Y-61787D01*
G54D10*
X52375Y-62845D02*
X51981Y-62845D01*
X51981Y-62695D01*
X52000Y-62658D01*
X52019Y-62639D01*
X52056Y-62620D01*
X52112Y-62620D01*
X52150Y-62639D01*
X52169Y-62658D01*
X52187Y-62695D01*
X52187Y-62845D01*
X52019Y-62470D02*
X52000Y-62451D01*
X51981Y-62414D01*
X51981Y-62320D01*
X52000Y-62283D01*
X52019Y-62264D01*
X52056Y-62245D01*
X52094Y-62245D01*
X52150Y-62264D01*
X52375Y-62489D01*
X52375Y-62245D01*
X52310Y-70749D02*
X51916Y-70749D01*
X51916Y-70599D01*
X51935Y-70562D01*
X51954Y-70543D01*
X51991Y-70524D01*
X52047Y-70524D01*
X52085Y-70543D01*
X52104Y-70562D01*
X52122Y-70599D01*
X52122Y-70749D01*
X51916Y-70281D02*
X51916Y-70206D01*
X51935Y-70168D01*
X51972Y-70131D01*
X52047Y-70112D01*
X52179Y-70112D01*
X52254Y-70131D01*
X52291Y-70168D01*
X52310Y-70206D01*
X52310Y-70281D01*
X52291Y-70318D01*
X52254Y-70356D01*
X52179Y-70374D01*
X52047Y-70374D01*
X51972Y-70356D01*
X51935Y-70318D01*
X51916Y-70281D01*
X51916Y-69981D02*
X52310Y-69887D01*
X52029Y-69812D01*
X52310Y-69737D01*
X51916Y-69643D01*
X52104Y-69493D02*
X52104Y-69362D01*
X52310Y-69306D02*
X52310Y-69493D01*
X51916Y-69493D01*
X51916Y-69306D01*
X52310Y-68912D02*
X52122Y-69043D01*
X52310Y-69137D02*
X51916Y-69137D01*
X51916Y-68987D01*
X51935Y-68950D01*
X51954Y-68931D01*
X51991Y-68912D01*
X52047Y-68912D01*
X52085Y-68931D01*
X52104Y-68950D01*
X52122Y-68987D01*
X52122Y-69137D01*
X52347Y-68837D02*
X52347Y-68537D01*
X52104Y-68312D02*
X52104Y-68443D01*
X52310Y-68443D02*
X51916Y-68443D01*
X51916Y-68256D01*
X51916Y-68106D02*
X52235Y-68106D01*
X52272Y-68087D01*
X52291Y-68068D01*
X52310Y-68031D01*
X52310Y-67956D01*
X52291Y-67918D01*
X52272Y-67900D01*
X52235Y-67881D01*
X51916Y-67881D01*
X52291Y-67712D02*
X52310Y-67656D01*
X52310Y-67562D01*
X52291Y-67525D01*
X52272Y-67506D01*
X52235Y-67487D01*
X52197Y-67487D01*
X52160Y-67506D01*
X52141Y-67525D01*
X52122Y-67562D01*
X52104Y-67637D01*
X52085Y-67675D01*
X52066Y-67693D01*
X52029Y-67712D01*
X51991Y-67712D01*
X51954Y-67693D01*
X51935Y-67675D01*
X51916Y-67637D01*
X51916Y-67543D01*
X51935Y-67487D01*
X52104Y-67318D02*
X52104Y-67187D01*
X52310Y-67131D02*
X52310Y-67318D01*
X51916Y-67318D01*
X51916Y-67131D01*
G54D18*
X102608Y-64520D02*
X102551Y-64520D01*
X102580Y-64520D02*
X102580Y-64420D01*
X102570Y-64434D01*
X102560Y-64444D01*
X102551Y-64449D01*
X102651Y-64520D02*
X102651Y-64420D01*
X102708Y-64520D01*
X102708Y-64420D01*
X102746Y-64420D02*
X102808Y-64420D01*
X102775Y-64458D01*
X102789Y-64458D01*
X102799Y-64463D01*
X102803Y-64468D01*
X102808Y-64477D01*
X102808Y-64501D01*
X102803Y-64510D01*
X102799Y-64515D01*
X102789Y-64520D01*
X102760Y-64520D01*
X102751Y-64515D01*
X102746Y-64510D01*
G54D19*
X102295Y-64388D02*
X102198Y-64388D01*
X102247Y-64388D02*
X102247Y-64218D01*
X102230Y-64243D01*
X102214Y-64259D01*
X102198Y-64267D01*
X102368Y-64388D02*
X102368Y-64218D01*
X102465Y-64388D01*
X102465Y-64218D01*
X102619Y-64275D02*
X102619Y-64388D01*
X102579Y-64210D02*
X102538Y-64332D01*
X102643Y-64332D01*
X102740Y-64218D02*
X102757Y-64218D01*
X102773Y-64226D01*
X102781Y-64235D01*
X102789Y-64251D01*
X102797Y-64283D01*
X102797Y-64324D01*
X102789Y-64356D01*
X102781Y-64372D01*
X102773Y-64380D01*
X102757Y-64388D01*
X102740Y-64388D01*
X102724Y-64380D01*
X102716Y-64372D01*
X102708Y-64356D01*
X102700Y-64324D01*
X102700Y-64283D01*
X102708Y-64251D01*
X102716Y-64235D01*
X102724Y-64226D01*
X102740Y-64218D01*
X102902Y-64218D02*
X102919Y-64218D01*
X102935Y-64226D01*
X102943Y-64235D01*
X102951Y-64251D01*
X102959Y-64283D01*
X102959Y-64324D01*
X102951Y-64356D01*
X102943Y-64372D01*
X102935Y-64380D01*
X102919Y-64388D01*
X102902Y-64388D01*
X102886Y-64380D01*
X102878Y-64372D01*
X102870Y-64356D01*
X102862Y-64324D01*
X102862Y-64283D01*
X102870Y-64251D01*
X102878Y-64235D01*
X102886Y-64226D01*
X102902Y-64218D01*
X103016Y-64218D02*
X103121Y-64218D01*
X103064Y-64283D01*
X103089Y-64283D01*
X103105Y-64291D01*
X103113Y-64299D01*
X103121Y-64315D01*
X103121Y-64356D01*
X103113Y-64372D01*
X103105Y-64380D01*
X103089Y-64388D01*
X103040Y-64388D01*
X103024Y-64380D01*
X103016Y-64372D01*
G54D18*
X93000Y-63681D02*
X93000Y-63738D01*
X93000Y-63710D02*
X92900Y-63710D01*
X92914Y-63719D01*
X92924Y-63729D01*
X92929Y-63738D01*
X93000Y-63638D02*
X92900Y-63638D01*
X93000Y-63581D01*
X92900Y-63581D01*
X92910Y-63538D02*
X92905Y-63533D01*
X92900Y-63524D01*
X92900Y-63500D01*
X92905Y-63490D01*
X92910Y-63486D01*
X92919Y-63481D01*
X92929Y-63481D01*
X92943Y-63486D01*
X93000Y-63543D01*
X93000Y-63481D01*
G54D19*
X93188Y-63954D02*
X93188Y-64051D01*
X93188Y-64002D02*
X93018Y-64002D01*
X93043Y-64019D01*
X93059Y-64035D01*
X93067Y-64051D01*
X93188Y-63881D02*
X93018Y-63881D01*
X93188Y-63784D01*
X93018Y-63784D01*
X93075Y-63630D02*
X93188Y-63630D01*
X93010Y-63670D02*
X93132Y-63711D01*
X93132Y-63606D01*
X93018Y-63509D02*
X93018Y-63492D01*
X93026Y-63476D01*
X93035Y-63468D01*
X93051Y-63460D01*
X93083Y-63452D01*
X93124Y-63452D01*
X93156Y-63460D01*
X93172Y-63468D01*
X93180Y-63476D01*
X93188Y-63492D01*
X93188Y-63509D01*
X93180Y-63525D01*
X93172Y-63533D01*
X93156Y-63541D01*
X93124Y-63549D01*
X93083Y-63549D01*
X93051Y-63541D01*
X93035Y-63533D01*
X93026Y-63525D01*
X93018Y-63509D01*
X93018Y-63347D02*
X93018Y-63330D01*
X93026Y-63314D01*
X93035Y-63306D01*
X93051Y-63298D01*
X93083Y-63290D01*
X93124Y-63290D01*
X93156Y-63298D01*
X93172Y-63306D01*
X93180Y-63314D01*
X93188Y-63330D01*
X93188Y-63347D01*
X93180Y-63363D01*
X93172Y-63371D01*
X93156Y-63379D01*
X93124Y-63387D01*
X93083Y-63387D01*
X93051Y-63379D01*
X93035Y-63371D01*
X93026Y-63363D01*
X93018Y-63347D01*
X93018Y-63233D02*
X93018Y-63128D01*
X93083Y-63185D01*
X93083Y-63160D01*
X93091Y-63144D01*
X93099Y-63136D01*
X93115Y-63128D01*
X93156Y-63128D01*
X93172Y-63136D01*
X93180Y-63144D01*
X93188Y-63160D01*
X93188Y-63209D01*
X93180Y-63225D01*
X93172Y-63233D01*
G54D17*
X56548Y-52316D02*
X56548Y-51916D01*
X56701Y-51916D01*
X56739Y-51935D01*
X56758Y-51955D01*
X56777Y-51993D01*
X56777Y-52050D01*
X56758Y-52088D01*
X56739Y-52107D01*
X56701Y-52126D01*
X56548Y-52126D01*
X57005Y-52088D02*
X56967Y-52069D01*
X56948Y-52050D01*
X56929Y-52012D01*
X56929Y-51993D01*
X56948Y-51955D01*
X56967Y-51935D01*
X57005Y-51916D01*
X57082Y-51916D01*
X57120Y-51935D01*
X57139Y-51955D01*
X57158Y-51993D01*
X57158Y-52012D01*
X57139Y-52050D01*
X57120Y-52069D01*
X57082Y-52088D01*
X57005Y-52088D01*
X56967Y-52107D01*
X56948Y-52126D01*
X56929Y-52164D01*
X56929Y-52240D01*
X56948Y-52278D01*
X56967Y-52297D01*
X57005Y-52316D01*
X57082Y-52316D01*
X57120Y-52297D01*
X57139Y-52278D01*
X57158Y-52240D01*
X57158Y-52164D01*
X57139Y-52126D01*
X57120Y-52107D01*
X57082Y-52088D01*
X57594Y-70911D02*
X57594Y-70511D01*
X57747Y-70511D01*
X57785Y-70530D01*
X57804Y-70550D01*
X57823Y-70588D01*
X57823Y-70645D01*
X57804Y-70683D01*
X57785Y-70702D01*
X57747Y-70721D01*
X57594Y-70721D01*
X58013Y-70911D02*
X58090Y-70911D01*
X58128Y-70892D01*
X58147Y-70873D01*
X58185Y-70816D01*
X58204Y-70740D01*
X58204Y-70588D01*
X58185Y-70550D01*
X58166Y-70530D01*
X58128Y-70511D01*
X58051Y-70511D01*
X58013Y-70530D01*
X57994Y-70550D01*
X57975Y-70588D01*
X57975Y-70683D01*
X57994Y-70721D01*
X58013Y-70740D01*
X58051Y-70759D01*
X58128Y-70759D01*
X58166Y-70740D01*
X58185Y-70721D01*
X58204Y-70683D01*
X112059Y-60161D02*
X112059Y-59761D01*
X112211Y-59761D01*
X112249Y-59780D01*
X112268Y-59800D01*
X112287Y-59838D01*
X112287Y-59895D01*
X112268Y-59933D01*
X112249Y-59952D01*
X112211Y-59971D01*
X112059Y-59971D01*
X112668Y-60161D02*
X112440Y-60161D01*
X112554Y-60161D02*
X112554Y-59761D01*
X112516Y-59819D01*
X112478Y-59857D01*
X112440Y-59876D01*
X112916Y-59761D02*
X112954Y-59761D01*
X112992Y-59780D01*
X113011Y-59800D01*
X113030Y-59838D01*
X113049Y-59914D01*
X113049Y-60009D01*
X113030Y-60085D01*
X113011Y-60123D01*
X112992Y-60142D01*
X112954Y-60161D01*
X112916Y-60161D01*
X112878Y-60142D01*
X112859Y-60123D01*
X112840Y-60085D01*
X112821Y-60009D01*
X112821Y-59914D01*
X112840Y-59838D01*
X112859Y-59800D01*
X112878Y-59780D01*
X112916Y-59761D01*
G54D20*
X111980Y-57203D02*
X111961Y-57222D01*
X111904Y-57241D01*
X111866Y-57241D01*
X111809Y-57222D01*
X111771Y-57184D01*
X111752Y-57146D01*
X111733Y-57070D01*
X111733Y-57013D01*
X111752Y-56937D01*
X111771Y-56899D01*
X111809Y-56860D01*
X111866Y-56841D01*
X111904Y-56841D01*
X111961Y-56860D01*
X111980Y-56880D01*
X112361Y-57241D02*
X112133Y-57241D01*
X112247Y-57241D02*
X112247Y-56841D01*
X112209Y-56899D01*
X112171Y-56937D01*
X112133Y-56956D01*
X112495Y-56841D02*
X112761Y-56841D01*
X112590Y-57241D01*
X99321Y-64792D02*
X99302Y-64811D01*
X99245Y-64830D01*
X99207Y-64830D01*
X99149Y-64811D01*
X99111Y-64773D01*
X99092Y-64735D01*
X99073Y-64659D01*
X99073Y-64602D01*
X99092Y-64526D01*
X99111Y-64488D01*
X99149Y-64449D01*
X99207Y-64430D01*
X99245Y-64430D01*
X99302Y-64449D01*
X99321Y-64469D01*
X99454Y-64430D02*
X99721Y-64430D01*
X99549Y-64830D01*
X79808Y-63133D02*
X79789Y-63152D01*
X79732Y-63171D01*
X79694Y-63171D01*
X79636Y-63152D01*
X79598Y-63114D01*
X79579Y-63076D01*
X79560Y-63000D01*
X79560Y-62943D01*
X79579Y-62867D01*
X79598Y-62829D01*
X79636Y-62790D01*
X79694Y-62771D01*
X79732Y-62771D01*
X79789Y-62790D01*
X79808Y-62810D01*
X80170Y-62771D02*
X79979Y-62771D01*
X79960Y-62962D01*
X79979Y-62943D01*
X80017Y-62924D01*
X80113Y-62924D01*
X80151Y-62943D01*
X80170Y-62962D01*
X80189Y-63000D01*
X80189Y-63095D01*
X80170Y-63133D01*
X80151Y-63152D01*
X80113Y-63171D01*
X80017Y-63171D01*
X79979Y-63152D01*
X79960Y-63133D01*
X61388Y-70041D02*
X61407Y-70060D01*
X61426Y-70117D01*
X61426Y-70155D01*
X61407Y-70213D01*
X61369Y-70251D01*
X61331Y-70270D01*
X61255Y-70289D01*
X61198Y-70289D01*
X61122Y-70270D01*
X61084Y-70251D01*
X61045Y-70213D01*
X61026Y-70155D01*
X61026Y-70117D01*
X61045Y-70060D01*
X61065Y-70041D01*
X61026Y-69908D02*
X61026Y-69660D01*
X61179Y-69794D01*
X61179Y-69736D01*
X61198Y-69698D01*
X61217Y-69679D01*
X61255Y-69660D01*
X61350Y-69660D01*
X61388Y-69679D01*
X61407Y-69698D01*
X61426Y-69736D01*
X61426Y-69851D01*
X61407Y-69889D01*
X61388Y-69908D01*
X90773Y-64903D02*
X90754Y-64922D01*
X90697Y-64941D01*
X90659Y-64941D01*
X90601Y-64922D01*
X90563Y-64884D01*
X90544Y-64846D01*
X90525Y-64770D01*
X90525Y-64713D01*
X90544Y-64637D01*
X90563Y-64599D01*
X90601Y-64560D01*
X90659Y-64541D01*
X90697Y-64541D01*
X90754Y-64560D01*
X90773Y-64580D01*
X91116Y-64541D02*
X91040Y-64541D01*
X91001Y-64560D01*
X90982Y-64580D01*
X90944Y-64637D01*
X90925Y-64713D01*
X90925Y-64865D01*
X90944Y-64903D01*
X90963Y-64922D01*
X91001Y-64941D01*
X91078Y-64941D01*
X91116Y-64922D01*
X91135Y-64903D01*
X91154Y-64865D01*
X91154Y-64770D01*
X91135Y-64732D01*
X91116Y-64713D01*
X91078Y-64694D01*
X91001Y-64694D01*
X90963Y-64713D01*
X90944Y-64732D01*
X90925Y-64770D01*
X105873Y-68206D02*
X105892Y-68225D01*
X105911Y-68282D01*
X105911Y-68320D01*
X105892Y-68378D01*
X105854Y-68416D01*
X105816Y-68435D01*
X105740Y-68454D01*
X105683Y-68454D01*
X105607Y-68435D01*
X105569Y-68416D01*
X105530Y-68378D01*
X105511Y-68320D01*
X105511Y-68282D01*
X105530Y-68225D01*
X105550Y-68206D01*
X105645Y-67863D02*
X105911Y-67863D01*
X105492Y-67959D02*
X105778Y-68054D01*
X105778Y-67806D01*
X110647Y-55323D02*
X110666Y-55342D01*
X110685Y-55399D01*
X110685Y-55437D01*
X110666Y-55494D01*
X110628Y-55532D01*
X110590Y-55551D01*
X110514Y-55570D01*
X110457Y-55570D01*
X110381Y-55551D01*
X110343Y-55532D01*
X110304Y-55494D01*
X110285Y-55437D01*
X110285Y-55399D01*
X110304Y-55342D01*
X110324Y-55323D01*
X110685Y-54942D02*
X110685Y-55170D01*
X110685Y-55056D02*
X110285Y-55056D01*
X110343Y-55094D01*
X110381Y-55132D01*
X110400Y-55170D01*
X110285Y-54580D02*
X110285Y-54770D01*
X110476Y-54789D01*
X110457Y-54770D01*
X110438Y-54732D01*
X110438Y-54637D01*
X110457Y-54599D01*
X110476Y-54580D01*
X110514Y-54561D01*
X110609Y-54561D01*
X110647Y-54580D01*
X110666Y-54599D01*
X110685Y-54637D01*
X110685Y-54732D01*
X110666Y-54770D01*
X110647Y-54789D01*
G54D21*
X58812Y-57886D02*
X58746Y-57792D01*
X58699Y-57886D02*
X58699Y-57689D01*
X58774Y-57689D01*
X58793Y-57699D01*
X58802Y-57708D01*
X58812Y-57727D01*
X58812Y-57755D01*
X58802Y-57774D01*
X58793Y-57783D01*
X58774Y-57792D01*
X58699Y-57792D01*
X58887Y-57708D02*
X58896Y-57699D01*
X58915Y-57689D01*
X58962Y-57689D01*
X58981Y-57699D01*
X58990Y-57708D01*
X58999Y-57727D01*
X58999Y-57746D01*
X58990Y-57774D01*
X58878Y-57886D01*
X58999Y-57886D01*
X59112Y-57774D02*
X59093Y-57764D01*
X59084Y-57755D01*
X59075Y-57736D01*
X59075Y-57727D01*
X59084Y-57708D01*
X59093Y-57699D01*
X59112Y-57689D01*
X59150Y-57689D01*
X59168Y-57699D01*
X59178Y-57708D01*
X59187Y-57727D01*
X59187Y-57736D01*
X59178Y-57755D01*
X59168Y-57764D01*
X59150Y-57774D01*
X59112Y-57774D01*
X59093Y-57783D01*
X59084Y-57792D01*
X59075Y-57811D01*
X59075Y-57849D01*
X59084Y-57867D01*
X59093Y-57877D01*
X59112Y-57886D01*
X59150Y-57886D01*
X59168Y-57877D01*
X59178Y-57867D01*
X59187Y-57849D01*
X59187Y-57811D01*
X59178Y-57792D01*
X59168Y-57783D01*
X59150Y-57774D01*
X113318Y-55219D02*
X113252Y-55125D01*
X113205Y-55219D02*
X113205Y-55022D01*
X113280Y-55022D01*
X113299Y-55032D01*
X113308Y-55041D01*
X113318Y-55060D01*
X113318Y-55088D01*
X113308Y-55107D01*
X113299Y-55116D01*
X113280Y-55125D01*
X113205Y-55125D01*
X113393Y-55041D02*
X113402Y-55032D01*
X113421Y-55022D01*
X113468Y-55022D01*
X113487Y-55032D01*
X113496Y-55041D01*
X113505Y-55060D01*
X113505Y-55079D01*
X113496Y-55107D01*
X113384Y-55219D01*
X113505Y-55219D01*
X113571Y-55022D02*
X113702Y-55022D01*
X113618Y-55219D01*
X79479Y-70713D02*
X79385Y-70779D01*
X79479Y-70826D02*
X79282Y-70826D01*
X79282Y-70751D01*
X79292Y-70732D01*
X79301Y-70723D01*
X79320Y-70713D01*
X79348Y-70713D01*
X79367Y-70723D01*
X79376Y-70732D01*
X79385Y-70751D01*
X79385Y-70826D01*
X79282Y-70648D02*
X79282Y-70516D01*
X79479Y-70601D01*
X77539Y-72585D02*
X77473Y-72491D01*
X77426Y-72585D02*
X77426Y-72388D01*
X77501Y-72388D01*
X77520Y-72398D01*
X77529Y-72407D01*
X77539Y-72426D01*
X77539Y-72454D01*
X77529Y-72473D01*
X77520Y-72482D01*
X77501Y-72491D01*
X77426Y-72491D01*
X77726Y-72585D02*
X77614Y-72585D01*
X77670Y-72585D02*
X77670Y-72388D01*
X77651Y-72416D01*
X77633Y-72435D01*
X77614Y-72445D01*
X77802Y-72407D02*
X77811Y-72398D01*
X77830Y-72388D01*
X77877Y-72388D01*
X77895Y-72398D01*
X77905Y-72407D01*
X77914Y-72426D01*
X77914Y-72445D01*
X77905Y-72473D01*
X77792Y-72585D01*
X77914Y-72585D01*
X67813Y-62355D02*
X67747Y-62261D01*
X67700Y-62355D02*
X67700Y-62158D01*
X67775Y-62158D01*
X67794Y-62168D01*
X67803Y-62177D01*
X67813Y-62196D01*
X67813Y-62224D01*
X67803Y-62243D01*
X67794Y-62252D01*
X67775Y-62261D01*
X67700Y-62261D01*
X67982Y-62158D02*
X67944Y-62158D01*
X67925Y-62168D01*
X67916Y-62177D01*
X67897Y-62205D01*
X67888Y-62243D01*
X67888Y-62318D01*
X67897Y-62336D01*
X67906Y-62346D01*
X67925Y-62355D01*
X67963Y-62355D01*
X67982Y-62346D01*
X67991Y-62336D01*
X68000Y-62318D01*
X68000Y-62271D01*
X67991Y-62252D01*
X67982Y-62243D01*
X67963Y-62233D01*
X67925Y-62233D01*
X67906Y-62243D01*
X67897Y-62252D01*
X67888Y-62271D01*
X89479Y-64036D02*
X89385Y-64102D01*
X89479Y-64149D02*
X89282Y-64149D01*
X89282Y-64074D01*
X89292Y-64055D01*
X89301Y-64046D01*
X89320Y-64036D01*
X89348Y-64036D01*
X89367Y-64046D01*
X89376Y-64055D01*
X89385Y-64074D01*
X89385Y-64149D01*
X89479Y-63849D02*
X89479Y-63961D01*
X89479Y-63905D02*
X89282Y-63905D01*
X89310Y-63924D01*
X89329Y-63942D01*
X89339Y-63961D01*
X89348Y-63680D02*
X89479Y-63680D01*
X89273Y-63727D02*
X89414Y-63773D01*
X89414Y-63652D01*
X105834Y-62051D02*
X105740Y-62117D01*
X105834Y-62164D02*
X105637Y-62164D01*
X105637Y-62089D01*
X105647Y-62070D01*
X105656Y-62061D01*
X105675Y-62051D01*
X105703Y-62051D01*
X105722Y-62061D01*
X105731Y-62070D01*
X105740Y-62089D01*
X105740Y-62164D01*
X105656Y-61976D02*
X105647Y-61967D01*
X105637Y-61948D01*
X105637Y-61901D01*
X105647Y-61882D01*
X105656Y-61873D01*
X105675Y-61864D01*
X105694Y-61864D01*
X105722Y-61873D01*
X105834Y-61985D01*
X105834Y-61864D01*
X105637Y-61742D02*
X105637Y-61723D01*
X105647Y-61704D01*
X105656Y-61695D01*
X105675Y-61685D01*
X105712Y-61676D01*
X105759Y-61676D01*
X105797Y-61685D01*
X105815Y-61695D01*
X105825Y-61704D01*
X105834Y-61723D01*
X105834Y-61742D01*
X105825Y-61760D01*
X105815Y-61770D01*
X105797Y-61779D01*
X105759Y-61788D01*
X105712Y-61788D01*
X105675Y-61779D01*
X105656Y-61770D01*
X105647Y-61760D01*
X105637Y-61742D01*
X96329Y-62091D02*
X96235Y-62157D01*
X96329Y-62204D02*
X96132Y-62204D01*
X96132Y-62129D01*
X96142Y-62110D01*
X96151Y-62101D01*
X96170Y-62091D01*
X96198Y-62091D01*
X96217Y-62101D01*
X96226Y-62110D01*
X96235Y-62129D01*
X96235Y-62204D01*
X96329Y-61904D02*
X96329Y-62016D01*
X96329Y-61960D02*
X96132Y-61960D01*
X96160Y-61979D01*
X96179Y-61997D01*
X96189Y-62016D01*
X96217Y-61791D02*
X96207Y-61810D01*
X96198Y-61819D01*
X96179Y-61828D01*
X96170Y-61828D01*
X96151Y-61819D01*
X96142Y-61810D01*
X96132Y-61791D01*
X96132Y-61753D01*
X96142Y-61735D01*
X96151Y-61725D01*
X96170Y-61716D01*
X96179Y-61716D01*
X96198Y-61725D01*
X96207Y-61735D01*
X96217Y-61753D01*
X96217Y-61791D01*
X96226Y-61810D01*
X96235Y-61819D01*
X96254Y-61828D01*
X96292Y-61828D01*
X96310Y-61819D01*
X96320Y-61810D01*
X96329Y-61791D01*
X96329Y-61753D01*
X96320Y-61735D01*
X96310Y-61725D01*
X96292Y-61716D01*
X96254Y-61716D01*
X96235Y-61725D01*
X96226Y-61735D01*
X96217Y-61753D01*
X98215Y-61651D02*
X98149Y-61557D01*
X98102Y-61651D02*
X98102Y-61454D01*
X98177Y-61454D01*
X98196Y-61464D01*
X98205Y-61473D01*
X98215Y-61492D01*
X98215Y-61520D01*
X98205Y-61539D01*
X98196Y-61548D01*
X98177Y-61557D01*
X98102Y-61557D01*
X98402Y-61651D02*
X98290Y-61651D01*
X98346Y-61651D02*
X98346Y-61454D01*
X98327Y-61482D01*
X98309Y-61501D01*
X98290Y-61511D01*
X98468Y-61454D02*
X98599Y-61454D01*
X98515Y-61651D01*
X83625Y-64995D02*
X83559Y-64901D01*
X83512Y-64995D02*
X83512Y-64798D01*
X83587Y-64798D01*
X83606Y-64808D01*
X83615Y-64817D01*
X83625Y-64836D01*
X83625Y-64864D01*
X83615Y-64883D01*
X83606Y-64892D01*
X83587Y-64901D01*
X83512Y-64901D01*
X83812Y-64995D02*
X83700Y-64995D01*
X83756Y-64995D02*
X83756Y-64798D01*
X83737Y-64826D01*
X83719Y-64845D01*
X83700Y-64855D01*
X83991Y-64798D02*
X83897Y-64798D01*
X83888Y-64892D01*
X83897Y-64883D01*
X83916Y-64873D01*
X83963Y-64873D01*
X83981Y-64883D01*
X83991Y-64892D01*
X84000Y-64911D01*
X84000Y-64958D01*
X83991Y-64976D01*
X83981Y-64986D01*
X83963Y-64995D01*
X83916Y-64995D01*
X83897Y-64986D01*
X83888Y-64976D01*
X83226Y-62486D02*
X83132Y-62552D01*
X83226Y-62599D02*
X83029Y-62599D01*
X83029Y-62524D01*
X83039Y-62505D01*
X83048Y-62496D01*
X83067Y-62486D01*
X83095Y-62486D01*
X83114Y-62496D01*
X83123Y-62505D01*
X83132Y-62524D01*
X83132Y-62599D01*
X83226Y-62299D02*
X83226Y-62411D01*
X83226Y-62355D02*
X83029Y-62355D01*
X83057Y-62374D01*
X83076Y-62392D01*
X83086Y-62411D01*
X83029Y-62233D02*
X83029Y-62111D01*
X83104Y-62177D01*
X83104Y-62148D01*
X83114Y-62130D01*
X83123Y-62120D01*
X83142Y-62111D01*
X83189Y-62111D01*
X83207Y-62120D01*
X83217Y-62130D01*
X83226Y-62148D01*
X83226Y-62205D01*
X83217Y-62223D01*
X83207Y-62233D01*
X63299Y-63428D02*
X63233Y-63334D01*
X63186Y-63428D02*
X63186Y-63231D01*
X63261Y-63231D01*
X63280Y-63241D01*
X63289Y-63250D01*
X63299Y-63269D01*
X63299Y-63297D01*
X63289Y-63316D01*
X63280Y-63325D01*
X63261Y-63334D01*
X63186Y-63334D01*
X63364Y-63231D02*
X63486Y-63231D01*
X63421Y-63306D01*
X63449Y-63306D01*
X63468Y-63316D01*
X63477Y-63325D01*
X63486Y-63344D01*
X63486Y-63391D01*
X63477Y-63409D01*
X63468Y-63419D01*
X63449Y-63428D01*
X63392Y-63428D01*
X63374Y-63419D01*
X63364Y-63409D01*
X64858Y-62328D02*
X64792Y-62234D01*
X64745Y-62328D02*
X64745Y-62131D01*
X64820Y-62131D01*
X64839Y-62141D01*
X64848Y-62150D01*
X64858Y-62169D01*
X64858Y-62197D01*
X64848Y-62216D01*
X64839Y-62225D01*
X64820Y-62234D01*
X64745Y-62234D01*
X65045Y-62328D02*
X64933Y-62328D01*
X64989Y-62328D02*
X64989Y-62131D01*
X64970Y-62159D01*
X64951Y-62178D01*
X64933Y-62188D01*
X103771Y-70818D02*
X103677Y-70884D01*
X103771Y-70931D02*
X103574Y-70931D01*
X103574Y-70856D01*
X103584Y-70837D01*
X103593Y-70828D01*
X103612Y-70818D01*
X103640Y-70818D01*
X103659Y-70828D01*
X103668Y-70837D01*
X103677Y-70856D01*
X103677Y-70931D01*
X103593Y-70743D02*
X103584Y-70734D01*
X103574Y-70715D01*
X103574Y-70668D01*
X103584Y-70649D01*
X103593Y-70640D01*
X103612Y-70631D01*
X103631Y-70631D01*
X103659Y-70640D01*
X103771Y-70752D01*
X103771Y-70631D01*
X103574Y-70462D02*
X103574Y-70499D01*
X103584Y-70518D01*
X103593Y-70527D01*
X103621Y-70546D01*
X103659Y-70555D01*
X103734Y-70555D01*
X103752Y-70546D01*
X103762Y-70537D01*
X103771Y-70518D01*
X103771Y-70480D01*
X103762Y-70462D01*
X103752Y-70452D01*
X103734Y-70443D01*
X103687Y-70443D01*
X103668Y-70452D01*
X103659Y-70462D01*
X103649Y-70480D01*
X103649Y-70518D01*
X103659Y-70537D01*
X103668Y-70546D01*
X103687Y-70555D01*
X96876Y-70173D02*
X96810Y-70079D01*
X96763Y-70173D02*
X96763Y-69976D01*
X96838Y-69976D01*
X96857Y-69986D01*
X96866Y-69995D01*
X96876Y-70014D01*
X96876Y-70042D01*
X96866Y-70061D01*
X96857Y-70070D01*
X96838Y-70079D01*
X96763Y-70079D01*
X96951Y-69995D02*
X96960Y-69986D01*
X96979Y-69976D01*
X97026Y-69976D01*
X97045Y-69986D01*
X97054Y-69995D01*
X97063Y-70014D01*
X97063Y-70033D01*
X97054Y-70061D01*
X96942Y-70173D01*
X97063Y-70173D01*
X97129Y-69976D02*
X97251Y-69976D01*
X97185Y-70051D01*
X97214Y-70051D01*
X97232Y-70061D01*
X97242Y-70070D01*
X97251Y-70089D01*
X97251Y-70136D01*
X97242Y-70154D01*
X97232Y-70164D01*
X97214Y-70173D01*
X97157Y-70173D01*
X97139Y-70164D01*
X97129Y-70154D01*
X95861Y-70175D02*
X95795Y-70081D01*
X95748Y-70175D02*
X95748Y-69978D01*
X95823Y-69978D01*
X95842Y-69988D01*
X95851Y-69997D01*
X95861Y-70016D01*
X95861Y-70044D01*
X95851Y-70063D01*
X95842Y-70072D01*
X95823Y-70081D01*
X95748Y-70081D01*
X95936Y-69997D02*
X95945Y-69988D01*
X95964Y-69978D01*
X96011Y-69978D01*
X96030Y-69988D01*
X96039Y-69997D01*
X96048Y-70016D01*
X96048Y-70035D01*
X96039Y-70063D01*
X95927Y-70175D01*
X96048Y-70175D01*
X96124Y-69997D02*
X96133Y-69988D01*
X96152Y-69978D01*
X96199Y-69978D01*
X96217Y-69988D01*
X96227Y-69997D01*
X96236Y-70016D01*
X96236Y-70035D01*
X96227Y-70063D01*
X96114Y-70175D01*
X96236Y-70175D01*
X110562Y-70078D02*
X110468Y-70144D01*
X110562Y-70191D02*
X110365Y-70191D01*
X110365Y-70116D01*
X110375Y-70097D01*
X110384Y-70088D01*
X110403Y-70078D01*
X110431Y-70078D01*
X110450Y-70088D01*
X110459Y-70097D01*
X110468Y-70116D01*
X110468Y-70191D01*
X110384Y-70003D02*
X110375Y-69994D01*
X110365Y-69975D01*
X110365Y-69928D01*
X110375Y-69909D01*
X110384Y-69900D01*
X110403Y-69891D01*
X110422Y-69891D01*
X110450Y-69900D01*
X110562Y-70012D01*
X110562Y-69891D01*
X110365Y-69712D02*
X110365Y-69806D01*
X110459Y-69815D01*
X110450Y-69806D01*
X110440Y-69787D01*
X110440Y-69740D01*
X110450Y-69722D01*
X110459Y-69712D01*
X110478Y-69703D01*
X110525Y-69703D01*
X110543Y-69712D01*
X110553Y-69722D01*
X110562Y-69740D01*
X110562Y-69787D01*
X110553Y-69806D01*
X110543Y-69815D01*
X109468Y-68153D02*
X109402Y-68059D01*
X109355Y-68153D02*
X109355Y-67956D01*
X109430Y-67956D01*
X109449Y-67966D01*
X109458Y-67975D01*
X109468Y-67994D01*
X109468Y-68022D01*
X109458Y-68041D01*
X109449Y-68050D01*
X109430Y-68059D01*
X109355Y-68059D01*
X109543Y-67975D02*
X109552Y-67966D01*
X109571Y-67956D01*
X109618Y-67956D01*
X109637Y-67966D01*
X109646Y-67975D01*
X109655Y-67994D01*
X109655Y-68013D01*
X109646Y-68041D01*
X109534Y-68153D01*
X109655Y-68153D01*
X109824Y-68022D02*
X109824Y-68153D01*
X109777Y-67947D02*
X109731Y-68088D01*
X109852Y-68088D01*
G54D19*
X99389Y-60465D02*
X99389Y-60165D01*
X99461Y-60165D01*
X99503Y-60179D01*
X99532Y-60208D01*
X99546Y-60236D01*
X99561Y-60294D01*
X99561Y-60336D01*
X99546Y-60394D01*
X99532Y-60422D01*
X99503Y-60451D01*
X99461Y-60465D01*
X99389Y-60465D01*
X99661Y-60165D02*
X99861Y-60165D01*
X99732Y-60465D01*
X99738Y-61589D02*
X99738Y-61732D01*
X99438Y-61732D01*
X99581Y-61489D02*
X99581Y-61389D01*
X99738Y-61347D02*
X99738Y-61489D01*
X99438Y-61489D01*
X99438Y-61347D01*
X99738Y-61218D02*
X99438Y-61218D01*
X99438Y-61147D01*
X99452Y-61104D01*
X99481Y-61075D01*
X99509Y-61061D01*
X99567Y-61047D01*
X99609Y-61047D01*
X99667Y-61061D01*
X99695Y-61075D01*
X99724Y-61104D01*
X99738Y-61147D01*
X99738Y-61218D01*
X100900Y-60484D02*
X100900Y-60184D01*
X100972Y-60184D01*
X101014Y-60198D01*
X101043Y-60227D01*
X101057Y-60255D01*
X101072Y-60313D01*
X101072Y-60355D01*
X101057Y-60413D01*
X101043Y-60441D01*
X101014Y-60470D01*
X100972Y-60484D01*
X100900Y-60484D01*
X101329Y-60184D02*
X101272Y-60184D01*
X101243Y-60198D01*
X101229Y-60213D01*
X101200Y-60255D01*
X101186Y-60313D01*
X101186Y-60427D01*
X101200Y-60455D01*
X101214Y-60470D01*
X101243Y-60484D01*
X101300Y-60484D01*
X101329Y-60470D01*
X101343Y-60455D01*
X101357Y-60427D01*
X101357Y-60355D01*
X101343Y-60327D01*
X101329Y-60313D01*
X101300Y-60298D01*
X101243Y-60298D01*
X101214Y-60313D01*
X101200Y-60327D01*
X101186Y-60355D01*
X101292Y-61597D02*
X101292Y-61740D01*
X100992Y-61740D01*
X101135Y-61497D02*
X101135Y-61397D01*
X101292Y-61355D02*
X101292Y-61497D01*
X100992Y-61497D01*
X100992Y-61355D01*
X101292Y-61226D02*
X100992Y-61226D01*
X100992Y-61155D01*
X101006Y-61112D01*
X101035Y-61083D01*
X101063Y-61069D01*
X101121Y-61055D01*
X101163Y-61055D01*
X101221Y-61069D01*
X101249Y-61083D01*
X101278Y-61112D01*
X101292Y-61155D01*
X101292Y-61226D01*
X79721Y-61440D02*
X79721Y-61140D01*
X79793Y-61140D01*
X79835Y-61154D01*
X79864Y-61183D01*
X79878Y-61211D01*
X79893Y-61269D01*
X79893Y-61311D01*
X79878Y-61369D01*
X79864Y-61397D01*
X79835Y-61426D01*
X79793Y-61440D01*
X79721Y-61440D01*
X80035Y-61440D02*
X80093Y-61440D01*
X80121Y-61426D01*
X80135Y-61411D01*
X80164Y-61369D01*
X80178Y-61311D01*
X80178Y-61197D01*
X80164Y-61169D01*
X80150Y-61154D01*
X80121Y-61140D01*
X80064Y-61140D01*
X80035Y-61154D01*
X80021Y-61169D01*
X80007Y-61197D01*
X80007Y-61269D01*
X80021Y-61297D01*
X80035Y-61311D01*
X80064Y-61326D01*
X80121Y-61326D01*
X80150Y-61311D01*
X80164Y-61297D01*
X80178Y-61269D01*
X80073Y-62533D02*
X80073Y-62676D01*
X79773Y-62676D01*
X79916Y-62433D02*
X79916Y-62333D01*
X80073Y-62291D02*
X80073Y-62433D01*
X79773Y-62433D01*
X79773Y-62291D01*
X80073Y-62162D02*
X79773Y-62162D01*
X79773Y-62091D01*
X79787Y-62048D01*
X79816Y-62019D01*
X79844Y-62005D01*
X79902Y-61991D01*
X79944Y-61991D01*
X80002Y-62005D01*
X80030Y-62019D01*
X80059Y-62048D01*
X80073Y-62091D01*
X80073Y-62162D01*
X80954Y-61455D02*
X80954Y-61155D01*
X81026Y-61155D01*
X81068Y-61169D01*
X81097Y-61198D01*
X81111Y-61226D01*
X81126Y-61284D01*
X81126Y-61326D01*
X81111Y-61384D01*
X81097Y-61412D01*
X81068Y-61441D01*
X81026Y-61455D01*
X80954Y-61455D01*
X81297Y-61284D02*
X81268Y-61269D01*
X81254Y-61255D01*
X81240Y-61226D01*
X81240Y-61212D01*
X81254Y-61184D01*
X81268Y-61169D01*
X81297Y-61155D01*
X81354Y-61155D01*
X81383Y-61169D01*
X81397Y-61184D01*
X81411Y-61212D01*
X81411Y-61226D01*
X81397Y-61255D01*
X81383Y-61269D01*
X81354Y-61284D01*
X81297Y-61284D01*
X81268Y-61298D01*
X81254Y-61312D01*
X81240Y-61341D01*
X81240Y-61398D01*
X81254Y-61426D01*
X81268Y-61441D01*
X81297Y-61455D01*
X81354Y-61455D01*
X81383Y-61441D01*
X81397Y-61426D01*
X81411Y-61398D01*
X81411Y-61341D01*
X81397Y-61312D01*
X81383Y-61298D01*
X81354Y-61284D01*
X81331Y-62554D02*
X81331Y-62697D01*
X81031Y-62697D01*
X81174Y-62454D02*
X81174Y-62354D01*
X81331Y-62312D02*
X81331Y-62454D01*
X81031Y-62454D01*
X81031Y-62312D01*
X81331Y-62183D02*
X81031Y-62183D01*
X81031Y-62112D01*
X81045Y-62069D01*
X81074Y-62040D01*
X81102Y-62026D01*
X81160Y-62012D01*
X81202Y-62012D01*
X81260Y-62026D01*
X81288Y-62040D01*
X81317Y-62069D01*
X81331Y-62112D01*
X81331Y-62183D01*
X59946Y-61345D02*
X59946Y-61045D01*
X60018Y-61045D01*
X60061Y-61059D01*
X60089Y-61088D01*
X60103Y-61116D01*
X60118Y-61174D01*
X60118Y-61216D01*
X60103Y-61274D01*
X60089Y-61302D01*
X60061Y-61331D01*
X60018Y-61345D01*
X59946Y-61345D01*
X60403Y-61345D02*
X60232Y-61345D01*
X60318Y-61345D02*
X60318Y-61045D01*
X60289Y-61088D01*
X60261Y-61116D01*
X60232Y-61131D01*
X60689Y-61345D02*
X60518Y-61345D01*
X60603Y-61345D02*
X60603Y-61045D01*
X60575Y-61088D01*
X60546Y-61116D01*
X60518Y-61131D01*
X60107Y-62407D02*
X59964Y-62407D01*
X59964Y-62107D01*
X60207Y-62250D02*
X60307Y-62250D01*
X60350Y-62407D02*
X60207Y-62407D01*
X60207Y-62107D01*
X60350Y-62107D01*
X60478Y-62407D02*
X60478Y-62107D01*
X60550Y-62107D01*
X60592Y-62121D01*
X60621Y-62150D01*
X60635Y-62178D01*
X60650Y-62236D01*
X60650Y-62278D01*
X60635Y-62336D01*
X60621Y-62364D01*
X60592Y-62393D01*
X60550Y-62407D01*
X60478Y-62407D01*
X61472Y-61343D02*
X61472Y-61043D01*
X61544Y-61043D01*
X61587Y-61057D01*
X61615Y-61086D01*
X61629Y-61114D01*
X61644Y-61172D01*
X61644Y-61214D01*
X61629Y-61272D01*
X61615Y-61300D01*
X61587Y-61329D01*
X61544Y-61343D01*
X61472Y-61343D01*
X61929Y-61343D02*
X61758Y-61343D01*
X61844Y-61343D02*
X61844Y-61043D01*
X61815Y-61086D01*
X61787Y-61114D01*
X61758Y-61129D01*
X62115Y-61043D02*
X62144Y-61043D01*
X62172Y-61057D01*
X62187Y-61072D01*
X62201Y-61100D01*
X62215Y-61157D01*
X62215Y-61229D01*
X62201Y-61286D01*
X62187Y-61314D01*
X62172Y-61329D01*
X62144Y-61343D01*
X62115Y-61343D01*
X62087Y-61329D01*
X62072Y-61314D01*
X62058Y-61286D01*
X62044Y-61229D01*
X62044Y-61157D01*
X62058Y-61100D01*
X62072Y-61072D01*
X62087Y-61057D01*
X62115Y-61043D01*
X61631Y-62373D02*
X61488Y-62373D01*
X61488Y-62073D01*
X61731Y-62216D02*
X61831Y-62216D01*
X61874Y-62373D02*
X61731Y-62373D01*
X61731Y-62073D01*
X61874Y-62073D01*
X62002Y-62373D02*
X62002Y-62073D01*
X62074Y-62073D01*
X62116Y-62087D01*
X62145Y-62116D01*
X62159Y-62144D01*
X62174Y-62202D01*
X62174Y-62244D01*
X62159Y-62302D01*
X62145Y-62330D01*
X62116Y-62359D01*
X62074Y-62373D01*
X62002Y-62373D01*
X59958Y-59921D02*
X59958Y-59621D01*
X60030Y-59621D01*
X60072Y-59635D01*
X60101Y-59664D01*
X60115Y-59692D01*
X60130Y-59750D01*
X60130Y-59792D01*
X60115Y-59850D01*
X60101Y-59878D01*
X60072Y-59907D01*
X60030Y-59921D01*
X59958Y-59921D01*
X60415Y-59921D02*
X60244Y-59921D01*
X60330Y-59921D02*
X60330Y-59621D01*
X60301Y-59664D01*
X60272Y-59692D01*
X60244Y-59707D01*
X59984Y-58843D02*
X59841Y-58843D01*
X59841Y-58543D01*
X60084Y-58686D02*
X60184Y-58686D01*
X60227Y-58843D02*
X60084Y-58843D01*
X60084Y-58543D01*
X60227Y-58543D01*
X60355Y-58843D02*
X60355Y-58543D01*
X60427Y-58543D01*
X60469Y-58557D01*
X60498Y-58586D01*
X60512Y-58614D01*
X60527Y-58672D01*
X60527Y-58714D01*
X60512Y-58772D01*
X60498Y-58800D01*
X60469Y-58829D01*
X60427Y-58843D01*
X60355Y-58843D01*
X111887Y-53261D02*
X111587Y-53261D01*
X111587Y-53190D01*
X111601Y-53147D01*
X111630Y-53118D01*
X111658Y-53104D01*
X111716Y-53090D01*
X111758Y-53090D01*
X111816Y-53104D01*
X111844Y-53118D01*
X111873Y-53147D01*
X111887Y-53190D01*
X111887Y-53261D01*
X111587Y-52818D02*
X111587Y-52961D01*
X111730Y-52975D01*
X111716Y-52961D01*
X111701Y-52932D01*
X111701Y-52861D01*
X111716Y-52832D01*
X111730Y-52818D01*
X111758Y-52804D01*
X111830Y-52804D01*
X111858Y-52818D01*
X111873Y-52832D01*
X111887Y-52861D01*
X111887Y-52932D01*
X111873Y-52961D01*
X111858Y-52975D01*
X112948Y-53240D02*
X112948Y-53383D01*
X112648Y-53383D01*
X112791Y-53140D02*
X112791Y-53040D01*
X112948Y-52998D02*
X112948Y-53140D01*
X112648Y-53140D01*
X112648Y-52998D01*
X112948Y-52869D02*
X112648Y-52869D01*
X112648Y-52798D01*
X112662Y-52755D01*
X112691Y-52726D01*
X112719Y-52712D01*
X112777Y-52698D01*
X112819Y-52698D01*
X112877Y-52712D01*
X112905Y-52726D01*
X112934Y-52755D01*
X112948Y-52798D01*
X112948Y-52869D01*
X110652Y-69070D02*
X110652Y-68770D01*
X110724Y-68770D01*
X110766Y-68784D01*
X110795Y-68813D01*
X110809Y-68841D01*
X110824Y-68899D01*
X110824Y-68941D01*
X110809Y-68999D01*
X110795Y-69027D01*
X110766Y-69056D01*
X110724Y-69070D01*
X110652Y-69070D01*
X110938Y-68799D02*
X110952Y-68784D01*
X110981Y-68770D01*
X111052Y-68770D01*
X111081Y-68784D01*
X111095Y-68799D01*
X111109Y-68827D01*
X111109Y-68856D01*
X111095Y-68899D01*
X110924Y-69070D01*
X111109Y-69070D01*
X110675Y-68119D02*
X110532Y-68119D01*
X110532Y-67819D01*
X110775Y-67962D02*
X110875Y-67962D01*
X110918Y-68119D02*
X110775Y-68119D01*
X110775Y-67819D01*
X110918Y-67819D01*
X111046Y-68119D02*
X111046Y-67819D01*
X111118Y-67819D01*
X111160Y-67833D01*
X111189Y-67862D01*
X111203Y-67890D01*
X111218Y-67948D01*
X111218Y-67990D01*
X111203Y-68048D01*
X111189Y-68076D01*
X111160Y-68105D01*
X111118Y-68119D01*
X111046Y-68119D01*
X109302Y-71292D02*
X109002Y-71292D01*
X109002Y-71221D01*
X109016Y-71178D01*
X109045Y-71149D01*
X109073Y-71135D01*
X109131Y-71121D01*
X109173Y-71121D01*
X109231Y-71135D01*
X109259Y-71149D01*
X109288Y-71178D01*
X109302Y-71221D01*
X109302Y-71292D01*
X109002Y-71021D02*
X109002Y-70835D01*
X109116Y-70935D01*
X109116Y-70892D01*
X109131Y-70863D01*
X109145Y-70849D01*
X109173Y-70835D01*
X109245Y-70835D01*
X109273Y-70849D01*
X109288Y-70863D01*
X109302Y-70892D01*
X109302Y-70978D01*
X109288Y-71006D01*
X109273Y-71021D01*
X110485Y-71285D02*
X110485Y-71428D01*
X110185Y-71428D01*
X110328Y-71185D02*
X110328Y-71085D01*
X110485Y-71043D02*
X110485Y-71185D01*
X110185Y-71185D01*
X110185Y-71043D01*
X110485Y-70914D02*
X110185Y-70914D01*
X110185Y-70843D01*
X110199Y-70800D01*
X110228Y-70771D01*
X110256Y-70757D01*
X110314Y-70743D01*
X110356Y-70743D01*
X110414Y-70757D01*
X110442Y-70771D01*
X110471Y-70800D01*
X110485Y-70843D01*
X110485Y-70914D01*
X106201Y-70931D02*
X105901Y-70931D01*
X105901Y-70860D01*
X105915Y-70817D01*
X105944Y-70788D01*
X105972Y-70774D01*
X106030Y-70760D01*
X106072Y-70760D01*
X106130Y-70774D01*
X106158Y-70788D01*
X106187Y-70817D01*
X106201Y-70860D01*
X106201Y-70931D01*
X106001Y-70502D02*
X106201Y-70502D01*
X105887Y-70574D02*
X106101Y-70645D01*
X106101Y-70460D01*
X107152Y-70885D02*
X107152Y-71028D01*
X106852Y-71028D01*
X106995Y-70785D02*
X106995Y-70685D01*
X107152Y-70643D02*
X107152Y-70785D01*
X106852Y-70785D01*
X106852Y-70643D01*
X107152Y-70514D02*
X106852Y-70514D01*
X106852Y-70443D01*
X106866Y-70400D01*
X106895Y-70371D01*
X106923Y-70357D01*
X106981Y-70343D01*
X107023Y-70343D01*
X107081Y-70357D01*
X107109Y-70371D01*
X107138Y-70400D01*
X107152Y-70443D01*
X107152Y-70514D01*
G54D21*
X57621Y-69285D02*
X57611Y-69295D01*
X57583Y-69304D01*
X57564Y-69304D01*
X57536Y-69295D01*
X57517Y-69276D01*
X57508Y-69257D01*
X57499Y-69220D01*
X57499Y-69192D01*
X57508Y-69154D01*
X57517Y-69135D01*
X57536Y-69117D01*
X57564Y-69107D01*
X57583Y-69107D01*
X57611Y-69117D01*
X57621Y-69126D01*
X57733Y-69192D02*
X57714Y-69182D01*
X57705Y-69173D01*
X57696Y-69154D01*
X57696Y-69145D01*
X57705Y-69126D01*
X57714Y-69117D01*
X57733Y-69107D01*
X57771Y-69107D01*
X57790Y-69117D01*
X57799Y-69126D01*
X57808Y-69145D01*
X57808Y-69154D01*
X57799Y-69173D01*
X57790Y-69182D01*
X57771Y-69192D01*
X57733Y-69192D01*
X57714Y-69201D01*
X57705Y-69210D01*
X57696Y-69229D01*
X57696Y-69267D01*
X57705Y-69285D01*
X57714Y-69295D01*
X57733Y-69304D01*
X57771Y-69304D01*
X57790Y-69295D01*
X57799Y-69285D01*
X57808Y-69267D01*
X57808Y-69229D01*
X57799Y-69210D01*
X57790Y-69201D01*
X57771Y-69192D01*
G54D20*
X64201Y-69745D02*
X64201Y-69935D01*
X63801Y-69935D01*
X63992Y-69478D02*
X63992Y-69611D01*
X64201Y-69611D02*
X63801Y-69611D01*
X63801Y-69421D01*
X64201Y-69059D02*
X64201Y-69287D01*
X64201Y-69173D02*
X63801Y-69173D01*
X63859Y-69211D01*
X63897Y-69249D01*
X63916Y-69287D01*
X62927Y-70249D02*
X62927Y-70439D01*
X62527Y-70439D01*
X62718Y-69982D02*
X62718Y-70115D01*
X62927Y-70115D02*
X62527Y-70115D01*
X62527Y-69925D01*
X62527Y-69810D02*
X62527Y-69563D01*
X62680Y-69696D01*
X62680Y-69639D01*
X62699Y-69601D01*
X62718Y-69582D01*
X62756Y-69563D01*
X62851Y-69563D01*
X62889Y-69582D01*
X62908Y-69601D01*
X62927Y-69639D01*
X62927Y-69753D01*
X62908Y-69791D01*
X62889Y-69810D01*
X62527Y-69429D02*
X62527Y-69182D01*
X62680Y-69315D01*
X62680Y-69258D01*
X62699Y-69220D01*
X62718Y-69201D01*
X62756Y-69182D01*
X62851Y-69182D01*
X62889Y-69201D01*
X62908Y-69220D01*
X62927Y-69258D01*
X62927Y-69372D01*
X62908Y-69410D01*
X62889Y-69429D01*
X62889Y-68782D02*
X62908Y-68801D01*
X62927Y-68858D01*
X62927Y-68896D01*
X62908Y-68953D01*
X62870Y-68991D01*
X62832Y-69010D01*
X62756Y-69029D01*
X62699Y-69029D01*
X62623Y-69010D01*
X62585Y-68991D01*
X62546Y-68953D01*
X62527Y-68896D01*
X62527Y-68858D01*
X62546Y-68801D01*
X62566Y-68782D01*
X62527Y-68668D02*
X62927Y-68534D01*
X62527Y-68401D01*
X109294Y-66371D02*
X109294Y-66562D01*
X108894Y-66562D01*
X109294Y-66028D02*
X109294Y-66257D01*
X109294Y-66143D02*
X108894Y-66143D01*
X108952Y-66181D01*
X108990Y-66219D01*
X109009Y-66257D01*
X108019Y-65688D02*
X108019Y-65878D01*
X107619Y-65878D01*
X107619Y-65593D02*
X107619Y-65326D01*
X108019Y-65498D01*
X107791Y-65117D02*
X107772Y-65155D01*
X107753Y-65174D01*
X107715Y-65193D01*
X107696Y-65193D01*
X107658Y-65174D01*
X107638Y-65155D01*
X107619Y-65117D01*
X107619Y-65040D01*
X107638Y-65002D01*
X107658Y-64983D01*
X107696Y-64964D01*
X107715Y-64964D01*
X107753Y-64983D01*
X107772Y-65002D01*
X107791Y-65040D01*
X107791Y-65117D01*
X107810Y-65155D01*
X107829Y-65174D01*
X107867Y-65193D01*
X107943Y-65193D01*
X107981Y-65174D01*
X108000Y-65155D01*
X108019Y-65117D01*
X108019Y-65040D01*
X108000Y-65002D01*
X107981Y-64983D01*
X107943Y-64964D01*
X107867Y-64964D01*
X107829Y-64983D01*
X107810Y-65002D01*
X107791Y-65040D01*
X107619Y-64717D02*
X107619Y-64679D01*
X107638Y-64640D01*
X107658Y-64621D01*
X107696Y-64602D01*
X107772Y-64583D01*
X107867Y-64583D01*
X107943Y-64602D01*
X107981Y-64621D01*
X108000Y-64640D01*
X108019Y-64679D01*
X108019Y-64717D01*
X108000Y-64755D01*
X107981Y-64774D01*
X107943Y-64793D01*
X107867Y-64812D01*
X107772Y-64812D01*
X107696Y-64793D01*
X107658Y-64774D01*
X107638Y-64755D01*
X107619Y-64717D01*
X107619Y-64221D02*
X107619Y-64412D01*
X107810Y-64431D01*
X107791Y-64412D01*
X107772Y-64374D01*
X107772Y-64279D01*
X107791Y-64240D01*
X107810Y-64221D01*
X107848Y-64202D01*
X107943Y-64202D01*
X107981Y-64221D01*
X108000Y-64240D01*
X108019Y-64279D01*
X108019Y-64374D01*
X108000Y-64412D01*
X107981Y-64431D01*
X107981Y-63802D02*
X108000Y-63821D01*
X108019Y-63879D01*
X108019Y-63917D01*
X108000Y-63974D01*
X107962Y-64012D01*
X107924Y-64031D01*
X107848Y-64050D01*
X107791Y-64050D01*
X107715Y-64031D01*
X107677Y-64012D01*
X107638Y-63974D01*
X107619Y-63917D01*
X107619Y-63879D01*
X107638Y-63821D01*
X107658Y-63802D01*
X107619Y-63688D02*
X108019Y-63555D01*
X107619Y-63421D01*
X113419Y-70898D02*
X113019Y-70898D01*
X113210Y-70898D02*
X113210Y-70670D01*
X113419Y-70670D02*
X113019Y-70670D01*
X113419Y-70270D02*
X113419Y-70498D01*
X113419Y-70384D02*
X113019Y-70384D01*
X113077Y-70422D01*
X113115Y-70460D01*
X113134Y-70498D01*
X112158Y-70862D02*
X111758Y-70862D01*
X111949Y-70862D02*
X111949Y-70634D01*
X112158Y-70634D02*
X111758Y-70634D01*
X112044Y-70462D02*
X112044Y-70272D01*
X112158Y-70500D02*
X111758Y-70367D01*
X112158Y-70234D01*
X112158Y-69910D02*
X112158Y-70100D01*
X111758Y-70100D01*
X112158Y-69586D02*
X112158Y-69777D01*
X111758Y-69777D01*
X112197Y-69548D02*
X112197Y-69243D01*
X112139Y-69167D02*
X112158Y-69110D01*
X112158Y-69015D01*
X112139Y-68977D01*
X112120Y-68958D01*
X112082Y-68939D01*
X112044Y-68939D01*
X112006Y-68958D01*
X111987Y-68977D01*
X111968Y-69015D01*
X111949Y-69091D01*
X111930Y-69129D01*
X111911Y-69148D01*
X111873Y-69167D01*
X111835Y-69167D01*
X111797Y-69148D01*
X111777Y-69129D01*
X111758Y-69091D01*
X111758Y-68996D01*
X111777Y-68939D01*
X111949Y-68767D02*
X111949Y-68634D01*
X112158Y-68577D02*
X112158Y-68767D01*
X111758Y-68767D01*
X111758Y-68577D01*
X112158Y-68405D02*
X111758Y-68405D01*
X112158Y-68177D01*
X111758Y-68177D01*
X112139Y-68005D02*
X112158Y-67948D01*
X112158Y-67853D01*
X112139Y-67815D01*
X112120Y-67796D01*
X112082Y-67777D01*
X112044Y-67777D01*
X112006Y-67796D01*
X111987Y-67815D01*
X111968Y-67853D01*
X111949Y-67929D01*
X111930Y-67967D01*
X111911Y-67986D01*
X111873Y-68005D01*
X111835Y-68005D01*
X111797Y-67986D01*
X111777Y-67967D01*
X111758Y-67929D01*
X111758Y-67834D01*
X111777Y-67777D01*
X111758Y-67529D02*
X111758Y-67453D01*
X111777Y-67415D01*
X111816Y-67377D01*
X111892Y-67358D01*
X112025Y-67358D01*
X112101Y-67377D01*
X112139Y-67415D01*
X112158Y-67453D01*
X112158Y-67529D01*
X112139Y-67567D01*
X112101Y-67605D01*
X112025Y-67624D01*
X111892Y-67624D01*
X111816Y-67605D01*
X111777Y-67567D01*
X111758Y-67529D01*
X112158Y-66958D02*
X111968Y-67091D01*
X112158Y-67186D02*
X111758Y-67186D01*
X111758Y-67034D01*
X111777Y-66996D01*
X111797Y-66977D01*
X111835Y-66958D01*
X111892Y-66958D01*
X111930Y-66977D01*
X111949Y-66996D01*
X111968Y-67034D01*
X111968Y-67186D01*
X104647Y-73459D02*
X104647Y-73059D01*
X104647Y-73250D02*
X104875Y-73250D01*
X104875Y-73459D02*
X104875Y-73059D01*
X105028Y-73059D02*
X105275Y-73059D01*
X105142Y-73212D01*
X105199Y-73212D01*
X105237Y-73231D01*
X105256Y-73250D01*
X105275Y-73288D01*
X105275Y-73383D01*
X105256Y-73421D01*
X105237Y-73440D01*
X105199Y-73459D01*
X105085Y-73459D01*
X105047Y-73440D01*
X105028Y-73421D01*
X104695Y-72154D02*
X104695Y-71754D01*
X104695Y-71945D02*
X104923Y-71945D01*
X104923Y-72154D02*
X104923Y-71754D01*
X105095Y-72040D02*
X105285Y-72040D01*
X105057Y-72154D02*
X105190Y-71754D01*
X105323Y-72154D01*
X105647Y-72154D02*
X105457Y-72154D01*
X105457Y-71754D01*
X105971Y-72154D02*
X105780Y-72154D01*
X105780Y-71754D01*
X106009Y-72193D02*
X106314Y-72193D01*
X106390Y-72135D02*
X106447Y-72154D01*
X106542Y-72154D01*
X106580Y-72135D01*
X106599Y-72116D01*
X106618Y-72078D01*
X106618Y-72040D01*
X106599Y-72002D01*
X106580Y-71983D01*
X106542Y-71964D01*
X106466Y-71945D01*
X106428Y-71926D01*
X106409Y-71907D01*
X106390Y-71869D01*
X106390Y-71831D01*
X106409Y-71793D01*
X106428Y-71773D01*
X106466Y-71754D01*
X106561Y-71754D01*
X106618Y-71773D01*
X106790Y-71945D02*
X106923Y-71945D01*
X106980Y-72154D02*
X106790Y-72154D01*
X106790Y-71754D01*
X106980Y-71754D01*
X107152Y-72154D02*
X107152Y-71754D01*
X107380Y-72154D01*
X107380Y-71754D01*
X107552Y-72135D02*
X107609Y-72154D01*
X107704Y-72154D01*
X107742Y-72135D01*
X107761Y-72116D01*
X107780Y-72078D01*
X107780Y-72040D01*
X107761Y-72002D01*
X107742Y-71983D01*
X107704Y-71964D01*
X107628Y-71945D01*
X107590Y-71926D01*
X107571Y-71907D01*
X107552Y-71869D01*
X107552Y-71831D01*
X107571Y-71793D01*
X107590Y-71773D01*
X107628Y-71754D01*
X107723Y-71754D01*
X107780Y-71773D01*
X108028Y-71754D02*
X108104Y-71754D01*
X108142Y-71773D01*
X108180Y-71812D01*
X108199Y-71888D01*
X108199Y-72021D01*
X108180Y-72097D01*
X108142Y-72135D01*
X108104Y-72154D01*
X108028Y-72154D01*
X107990Y-72135D01*
X107952Y-72097D01*
X107933Y-72021D01*
X107933Y-71888D01*
X107952Y-71812D01*
X107990Y-71773D01*
X108028Y-71754D01*
X108599Y-72154D02*
X108466Y-71964D01*
X108371Y-72154D02*
X108371Y-71754D01*
X108523Y-71754D01*
X108561Y-71773D01*
X108580Y-71793D01*
X108599Y-71831D01*
X108599Y-71888D01*
X108580Y-71926D01*
X108561Y-71945D01*
X108523Y-71964D01*
X108371Y-71964D01*
X112818Y-72032D02*
X112818Y-71632D01*
X112818Y-71823D02*
X113046Y-71823D01*
X113046Y-72032D02*
X113046Y-71632D01*
X113218Y-71671D02*
X113237Y-71651D01*
X113275Y-71632D01*
X113370Y-71632D01*
X113408Y-71651D01*
X113427Y-71671D01*
X113446Y-71709D01*
X113446Y-71747D01*
X113427Y-71804D01*
X113199Y-72032D01*
X113446Y-72032D01*
X109511Y-73308D02*
X109511Y-72908D01*
X109511Y-73099D02*
X109739Y-73099D01*
X109739Y-73308D02*
X109739Y-72908D01*
X109911Y-73194D02*
X110101Y-73194D01*
X109873Y-73308D02*
X110006Y-72908D01*
X110139Y-73308D01*
X110463Y-73308D02*
X110273Y-73308D01*
X110273Y-72908D01*
X110787Y-73308D02*
X110596Y-73308D01*
X110596Y-72908D01*
X110825Y-73347D02*
X111130Y-73347D01*
X111206Y-73289D02*
X111263Y-73308D01*
X111358Y-73308D01*
X111396Y-73289D01*
X111415Y-73270D01*
X111434Y-73232D01*
X111434Y-73194D01*
X111415Y-73156D01*
X111396Y-73137D01*
X111358Y-73118D01*
X111282Y-73099D01*
X111244Y-73080D01*
X111225Y-73061D01*
X111206Y-73023D01*
X111206Y-72985D01*
X111225Y-72947D01*
X111244Y-72927D01*
X111282Y-72908D01*
X111377Y-72908D01*
X111434Y-72927D01*
X111606Y-73099D02*
X111739Y-73099D01*
X111796Y-73308D02*
X111606Y-73308D01*
X111606Y-72908D01*
X111796Y-72908D01*
X111968Y-73308D02*
X111968Y-72908D01*
X112196Y-73308D01*
X112196Y-72908D01*
X112368Y-73289D02*
X112425Y-73308D01*
X112520Y-73308D01*
X112558Y-73289D01*
X112577Y-73270D01*
X112596Y-73232D01*
X112596Y-73194D01*
X112577Y-73156D01*
X112558Y-73137D01*
X112520Y-73118D01*
X112444Y-73099D01*
X112406Y-73080D01*
X112387Y-73061D01*
X112368Y-73023D01*
X112368Y-72985D01*
X112387Y-72947D01*
X112406Y-72927D01*
X112444Y-72908D01*
X112539Y-72908D01*
X112596Y-72927D01*
X112844Y-72908D02*
X112920Y-72908D01*
X112958Y-72927D01*
X112996Y-72966D01*
X113015Y-73042D01*
X113015Y-73175D01*
X112996Y-73251D01*
X112958Y-73289D01*
X112920Y-73308D01*
X112844Y-73308D01*
X112806Y-73289D01*
X112768Y-73251D01*
X112749Y-73175D01*
X112749Y-73042D01*
X112768Y-72966D01*
X112806Y-72927D01*
X112844Y-72908D01*
X113415Y-73308D02*
X113282Y-73118D01*
X113187Y-73308D02*
X113187Y-72908D01*
X113339Y-72908D01*
X113377Y-72927D01*
X113396Y-72947D01*
X113415Y-72985D01*
X113415Y-73042D01*
X113396Y-73080D01*
X113377Y-73099D01*
X113339Y-73118D01*
X113187Y-73118D01*
X67248Y-69514D02*
X66748Y-69514D01*
X67105Y-69364D01*
X66748Y-69214D01*
X67248Y-69214D01*
X66796Y-69021D02*
X66772Y-68999D01*
X66748Y-68957D01*
X66748Y-68849D01*
X66772Y-68807D01*
X66796Y-68785D01*
X66843Y-68764D01*
X66891Y-68764D01*
X66962Y-68785D01*
X67248Y-69042D01*
X67248Y-68764D01*
X66268Y-70965D02*
X65768Y-70965D01*
X66125Y-70849D01*
X65768Y-70732D01*
X66268Y-70732D01*
X66220Y-70365D02*
X66244Y-70382D01*
X66268Y-70432D01*
X66268Y-70465D01*
X66244Y-70515D01*
X66196Y-70549D01*
X66149Y-70565D01*
X66054Y-70582D01*
X65982Y-70582D01*
X65887Y-70565D01*
X65839Y-70549D01*
X65792Y-70515D01*
X65768Y-70465D01*
X65768Y-70432D01*
X65792Y-70382D01*
X65816Y-70365D01*
X66268Y-70215D02*
X65768Y-70215D01*
X65768Y-70082D01*
X65792Y-70049D01*
X65816Y-70032D01*
X65863Y-70015D01*
X65935Y-70015D01*
X65982Y-70032D01*
X66006Y-70049D01*
X66030Y-70082D01*
X66030Y-70215D01*
X65768Y-69715D02*
X65768Y-69782D01*
X65792Y-69815D01*
X65816Y-69832D01*
X65887Y-69865D01*
X65982Y-69882D01*
X66173Y-69882D01*
X66220Y-69865D01*
X66244Y-69849D01*
X66268Y-69815D01*
X66268Y-69749D01*
X66244Y-69715D01*
X66220Y-69699D01*
X66173Y-69682D01*
X66054Y-69682D01*
X66006Y-69699D01*
X65982Y-69715D01*
X65958Y-69749D01*
X65958Y-69815D01*
X65982Y-69849D01*
X66006Y-69865D01*
X66054Y-69882D01*
X65768Y-69465D02*
X65768Y-69432D01*
X65792Y-69399D01*
X65816Y-69382D01*
X65863Y-69365D01*
X65958Y-69349D01*
X66077Y-69349D01*
X66173Y-69365D01*
X66220Y-69382D01*
X66244Y-69399D01*
X66268Y-69432D01*
X66268Y-69465D01*
X66244Y-69499D01*
X66220Y-69515D01*
X66173Y-69532D01*
X66077Y-69549D01*
X65958Y-69549D01*
X65863Y-69532D01*
X65816Y-69515D01*
X65792Y-69499D01*
X65768Y-69465D01*
X65816Y-69215D02*
X65792Y-69198D01*
X65768Y-69165D01*
X65768Y-69082D01*
X65792Y-69048D01*
X65816Y-69032D01*
X65863Y-69015D01*
X65911Y-69015D01*
X65982Y-69032D01*
X66268Y-69232D01*
X66268Y-69015D01*
X65816Y-68882D02*
X65792Y-68865D01*
X65768Y-68832D01*
X65768Y-68748D01*
X65792Y-68715D01*
X65816Y-68698D01*
X65863Y-68682D01*
X65911Y-68682D01*
X65982Y-68698D01*
X66268Y-68898D01*
X66268Y-68682D01*
X66077Y-68532D02*
X66077Y-68265D01*
X66268Y-68098D02*
X65768Y-68098D01*
X65744Y-67682D02*
X66387Y-67982D01*
X66268Y-67565D02*
X65768Y-67565D01*
X65768Y-67432D01*
X65792Y-67398D01*
X65816Y-67382D01*
X65863Y-67365D01*
X65935Y-67365D01*
X65982Y-67382D01*
X66006Y-67398D01*
X66030Y-67432D01*
X66030Y-67565D01*
G54D22*
X84082Y-68788D02*
X84082Y-68188D01*
X84554Y-68788D02*
X84404Y-68503D01*
X84297Y-68788D02*
X84297Y-68188D01*
X84468Y-68188D01*
X84511Y-68217D01*
X84532Y-68246D01*
X84554Y-68303D01*
X84554Y-68388D01*
X84532Y-68446D01*
X84511Y-68474D01*
X84468Y-68503D01*
X84297Y-68503D01*
X84982Y-68788D02*
X84725Y-68788D01*
X84854Y-68788D02*
X84854Y-68188D01*
X84811Y-68274D01*
X84768Y-68331D01*
X84725Y-68360D01*
G54D14*
G54D22*
X80768Y-67788D02*
X80768Y-67188D01*
X81239Y-67788D02*
X81089Y-67503D01*
X80982Y-67788D02*
X80982Y-67188D01*
X81154Y-67188D01*
X81197Y-67217D01*
X81218Y-67246D01*
X81239Y-67303D01*
X81239Y-67388D01*
X81218Y-67446D01*
X81197Y-67474D01*
X81154Y-67503D01*
X80982Y-67503D01*
X81325Y-67846D02*
X81668Y-67846D01*
X81754Y-67246D02*
X81775Y-67217D01*
X81818Y-67188D01*
X81925Y-67188D01*
X81968Y-67217D01*
X81989Y-67246D01*
X82011Y-67303D01*
X82011Y-67360D01*
X81989Y-67446D01*
X81732Y-67788D01*
X82011Y-67788D01*
X82439Y-67788D02*
X82182Y-67788D01*
X82311Y-67788D02*
X82311Y-67188D01*
X82268Y-67274D01*
X82225Y-67331D01*
X82182Y-67360D01*
X82868Y-67788D02*
X82611Y-67788D01*
X82739Y-67788D02*
X82739Y-67188D01*
X82697Y-67274D01*
X82654Y-67331D01*
X82611Y-67360D01*
X83147Y-67188D02*
X83189Y-67188D01*
X83232Y-67217D01*
X83254Y-67246D01*
X83275Y-67303D01*
X83297Y-67417D01*
X83297Y-67560D01*
X83275Y-67674D01*
X83254Y-67731D01*
X83232Y-67760D01*
X83189Y-67788D01*
X83147Y-67788D01*
X83104Y-67760D01*
X83082Y-67731D01*
X83061Y-67674D01*
X83039Y-67560D01*
X83039Y-67417D01*
X83061Y-67303D01*
X83082Y-67246D01*
X83104Y-67217D01*
X83147Y-67188D01*
G54D14*
G54D22*
X93300Y-68744D02*
X93300Y-68144D01*
X93772Y-68744D02*
X93622Y-68459D01*
X93515Y-68744D02*
X93515Y-68144D01*
X93686Y-68144D01*
X93729Y-68173D01*
X93750Y-68202D01*
X93772Y-68259D01*
X93772Y-68344D01*
X93750Y-68402D01*
X93729Y-68430D01*
X93686Y-68459D01*
X93515Y-68459D01*
X93943Y-68202D02*
X93965Y-68173D01*
X94007Y-68144D01*
X94115Y-68144D01*
X94157Y-68173D01*
X94179Y-68202D01*
X94200Y-68259D01*
X94200Y-68316D01*
X94179Y-68402D01*
X93922Y-68744D01*
X94200Y-68744D01*
G54D14*
G54D22*
X89986Y-67744D02*
X89986Y-67144D01*
X90457Y-67744D02*
X90307Y-67459D01*
X90200Y-67744D02*
X90200Y-67144D01*
X90372Y-67144D01*
X90415Y-67173D01*
X90436Y-67202D01*
X90457Y-67259D01*
X90457Y-67344D01*
X90436Y-67402D01*
X90415Y-67430D01*
X90372Y-67459D01*
X90200Y-67459D01*
X90543Y-67802D02*
X90886Y-67802D01*
X90972Y-67202D02*
X90993Y-67173D01*
X91036Y-67144D01*
X91143Y-67144D01*
X91186Y-67173D01*
X91207Y-67202D01*
X91229Y-67259D01*
X91229Y-67316D01*
X91207Y-67402D01*
X90950Y-67744D01*
X91229Y-67744D01*
X91657Y-67744D02*
X91400Y-67744D01*
X91529Y-67744D02*
X91529Y-67144D01*
X91486Y-67230D01*
X91443Y-67287D01*
X91400Y-67316D01*
X92086Y-67744D02*
X91829Y-67744D01*
X91957Y-67744D02*
X91957Y-67144D01*
X91915Y-67230D01*
X91872Y-67287D01*
X91829Y-67316D01*
X92365Y-67144D02*
X92407Y-67144D01*
X92450Y-67173D01*
X92472Y-67202D01*
X92493Y-67259D01*
X92515Y-67373D01*
X92515Y-67516D01*
X92493Y-67630D01*
X92472Y-67687D01*
X92450Y-67716D01*
X92407Y-67744D01*
X92365Y-67744D01*
X92322Y-67716D01*
X92300Y-67687D01*
X92279Y-67630D01*
X92257Y-67516D01*
X92257Y-67373D01*
X92279Y-67259D01*
X92300Y-67202D01*
X92322Y-67173D01*
X92365Y-67144D01*
G54D14*
G54D22*
X102740Y-68662D02*
X102740Y-68062D01*
X103212Y-68662D02*
X103062Y-68377D01*
X102955Y-68662D02*
X102955Y-68062D01*
X103126Y-68062D01*
X103169Y-68091D01*
X103190Y-68120D01*
X103212Y-68177D01*
X103212Y-68262D01*
X103190Y-68320D01*
X103169Y-68348D01*
X103126Y-68377D01*
X102955Y-68377D01*
X103362Y-68062D02*
X103640Y-68062D01*
X103490Y-68291D01*
X103555Y-68291D01*
X103597Y-68320D01*
X103619Y-68348D01*
X103640Y-68405D01*
X103640Y-68548D01*
X103619Y-68605D01*
X103597Y-68634D01*
X103555Y-68662D01*
X103426Y-68662D01*
X103383Y-68634D01*
X103362Y-68605D01*
G54D14*
G54D22*
X99426Y-67662D02*
X99426Y-67062D01*
X99897Y-67662D02*
X99747Y-67377D01*
X99640Y-67662D02*
X99640Y-67062D01*
X99812Y-67062D01*
X99855Y-67091D01*
X99876Y-67120D01*
X99897Y-67177D01*
X99897Y-67262D01*
X99876Y-67320D01*
X99855Y-67348D01*
X99812Y-67377D01*
X99640Y-67377D01*
X99983Y-67720D02*
X100326Y-67720D01*
X100412Y-67120D02*
X100433Y-67091D01*
X100476Y-67062D01*
X100583Y-67062D01*
X100626Y-67091D01*
X100647Y-67120D01*
X100669Y-67177D01*
X100669Y-67234D01*
X100647Y-67320D01*
X100390Y-67662D01*
X100669Y-67662D01*
X101097Y-67662D02*
X100840Y-67662D01*
X100969Y-67662D02*
X100969Y-67062D01*
X100926Y-67148D01*
X100883Y-67205D01*
X100840Y-67234D01*
X101526Y-67662D02*
X101269Y-67662D01*
X101397Y-67662D02*
X101397Y-67062D01*
X101355Y-67148D01*
X101312Y-67205D01*
X101269Y-67234D01*
X101805Y-67062D02*
X101847Y-67062D01*
X101890Y-67091D01*
X101912Y-67120D01*
X101933Y-67177D01*
X101955Y-67291D01*
X101955Y-67434D01*
X101933Y-67548D01*
X101912Y-67605D01*
X101890Y-67634D01*
X101847Y-67662D01*
X101805Y-67662D01*
X101762Y-67634D01*
X101740Y-67605D01*
X101719Y-67548D01*
X101697Y-67434D01*
X101697Y-67291D01*
X101719Y-67177D01*
X101740Y-67120D01*
X101762Y-67091D01*
X101805Y-67062D01*
G54D14*
G54D17*
X97877Y-74102D02*
X97934Y-74121D01*
X98029Y-74121D01*
X98067Y-74102D01*
X98086Y-74083D01*
X98105Y-74045D01*
X98105Y-74007D01*
X98086Y-73969D01*
X98067Y-73950D01*
X98029Y-73931D01*
X97953Y-73912D01*
X97915Y-73893D01*
X97896Y-73874D01*
X97877Y-73836D01*
X97877Y-73798D01*
X97896Y-73760D01*
X97915Y-73740D01*
X97953Y-73721D01*
X98048Y-73721D01*
X98105Y-73740D01*
X98220Y-73721D02*
X98448Y-73721D01*
X98334Y-74121D02*
X98334Y-73721D01*
X98582Y-74121D02*
X98582Y-73721D01*
X98715Y-74007D01*
X98848Y-73721D01*
X98848Y-74121D01*
X99001Y-73721D02*
X99248Y-73721D01*
X99115Y-73874D01*
X99172Y-73874D01*
X99210Y-73893D01*
X99229Y-73912D01*
X99248Y-73950D01*
X99248Y-74045D01*
X99229Y-74083D01*
X99210Y-74102D01*
X99172Y-74121D01*
X99058Y-74121D01*
X99020Y-74102D01*
X99001Y-74083D01*
X99401Y-73760D02*
X99420Y-73740D01*
X99458Y-73721D01*
X99553Y-73721D01*
X99591Y-73740D01*
X99610Y-73760D01*
X99629Y-73798D01*
X99629Y-73836D01*
X99610Y-73893D01*
X99382Y-74121D01*
X99629Y-74121D01*
X99705Y-74160D02*
X100010Y-74160D01*
X100334Y-74083D02*
X100315Y-74102D01*
X100258Y-74121D01*
X100220Y-74121D01*
X100163Y-74102D01*
X100125Y-74064D01*
X100105Y-74026D01*
X100086Y-73950D01*
X100086Y-73893D01*
X100105Y-73817D01*
X100125Y-73779D01*
X100163Y-73740D01*
X100220Y-73721D01*
X100258Y-73721D01*
X100315Y-73740D01*
X100334Y-73760D01*
X100582Y-73721D02*
X100658Y-73721D01*
X100696Y-73740D01*
X100734Y-73779D01*
X100753Y-73855D01*
X100753Y-73988D01*
X100734Y-74064D01*
X100696Y-74102D01*
X100658Y-74121D01*
X100582Y-74121D01*
X100544Y-74102D01*
X100505Y-74064D01*
X100486Y-73988D01*
X100486Y-73855D01*
X100505Y-73779D01*
X100544Y-73740D01*
X100582Y-73721D01*
X100925Y-74121D02*
X100925Y-73721D01*
X101153Y-74121D01*
X101153Y-73721D01*
X101344Y-74121D02*
X101344Y-73721D01*
X101572Y-74121D01*
X101572Y-73721D01*
X101972Y-74121D02*
X101744Y-74121D01*
X101858Y-74121D02*
X101858Y-73721D01*
X101820Y-73779D01*
X101782Y-73817D01*
X101744Y-73836D01*
G54D23*
G54D20*
X87418Y-73990D02*
X87399Y-74009D01*
X87342Y-74028D01*
X87303Y-74028D01*
X87246Y-74009D01*
X87208Y-73971D01*
X87189Y-73933D01*
X87170Y-73857D01*
X87170Y-73800D01*
X87189Y-73724D01*
X87208Y-73686D01*
X87246Y-73647D01*
X87303Y-73628D01*
X87342Y-73628D01*
X87399Y-73647D01*
X87418Y-73667D01*
X87665Y-73628D02*
X87742Y-73628D01*
X87780Y-73647D01*
X87818Y-73686D01*
X87837Y-73762D01*
X87837Y-73895D01*
X87818Y-73971D01*
X87780Y-74009D01*
X87742Y-74028D01*
X87665Y-74028D01*
X87627Y-74009D01*
X87589Y-73971D01*
X87570Y-73895D01*
X87570Y-73762D01*
X87589Y-73686D01*
X87627Y-73647D01*
X87665Y-73628D01*
X88008Y-74028D02*
X88008Y-73628D01*
X88237Y-74028D01*
X88237Y-73628D01*
X88427Y-74028D02*
X88427Y-73628D01*
X88656Y-74028D01*
X88656Y-73628D01*
X88751Y-74067D02*
X89056Y-74067D01*
X89132Y-74009D02*
X89189Y-74028D01*
X89284Y-74028D01*
X89322Y-74009D01*
X89342Y-73990D01*
X89361Y-73952D01*
X89361Y-73914D01*
X89342Y-73876D01*
X89322Y-73857D01*
X89284Y-73838D01*
X89208Y-73819D01*
X89170Y-73800D01*
X89151Y-73781D01*
X89132Y-73743D01*
X89132Y-73705D01*
X89151Y-73667D01*
X89170Y-73647D01*
X89208Y-73628D01*
X89303Y-73628D01*
X89361Y-73647D01*
X89475Y-73628D02*
X89703Y-73628D01*
X89589Y-74028D02*
X89589Y-73628D01*
X89837Y-74028D02*
X89837Y-73628D01*
X89970Y-73914D01*
X90103Y-73628D01*
X90103Y-74028D01*
X90256Y-73628D02*
X90503Y-73628D01*
X90370Y-73781D01*
X90427Y-73781D01*
X90465Y-73800D01*
X90484Y-73819D01*
X90503Y-73857D01*
X90503Y-73952D01*
X90484Y-73990D01*
X90465Y-74009D01*
X90427Y-74028D01*
X90313Y-74028D01*
X90275Y-74009D01*
X90256Y-73990D01*
X90656Y-73667D02*
X90675Y-73647D01*
X90713Y-73628D01*
X90808Y-73628D01*
X90846Y-73647D01*
X90865Y-73667D01*
X90884Y-73705D01*
X90884Y-73743D01*
X90865Y-73800D01*
X90637Y-74028D01*
X90884Y-74028D01*
X90961Y-74067D02*
X91265Y-74067D01*
X91342Y-73667D02*
X91361Y-73647D01*
X91399Y-73628D01*
X91494Y-73628D01*
X91532Y-73647D01*
X91551Y-73667D01*
X91570Y-73705D01*
X91570Y-73743D01*
X91551Y-73800D01*
X91322Y-74028D01*
X91570Y-74028D01*
X91932Y-73628D02*
X91742Y-73628D01*
X91722Y-73819D01*
X91742Y-73800D01*
X91780Y-73781D01*
X91875Y-73781D01*
X91913Y-73800D01*
X91932Y-73819D01*
X91951Y-73857D01*
X91951Y-73952D01*
X91932Y-73990D01*
X91913Y-74009D01*
X91875Y-74028D01*
X91780Y-74028D01*
X91742Y-74009D01*
X91722Y-73990D01*
X92084Y-73628D02*
X92351Y-74028D01*
X92351Y-73628D02*
X92084Y-74028D01*
X92484Y-73667D02*
X92503Y-73647D01*
X92542Y-73628D01*
X92637Y-73628D01*
X92675Y-73647D01*
X92694Y-73667D01*
X92713Y-73705D01*
X92713Y-73743D01*
X92694Y-73800D01*
X92465Y-74028D01*
X92713Y-74028D01*
X62677Y-55394D02*
X62658Y-55413D01*
X62601Y-55432D01*
X62563Y-55432D01*
X62506Y-55413D01*
X62468Y-55375D01*
X62449Y-55337D01*
X62430Y-55261D01*
X62430Y-55204D01*
X62449Y-55128D01*
X62468Y-55090D01*
X62506Y-55051D01*
X62563Y-55032D01*
X62601Y-55032D01*
X62658Y-55051D01*
X62677Y-55071D01*
X63058Y-55432D02*
X62830Y-55432D01*
X62944Y-55432D02*
X62944Y-55032D01*
X62906Y-55090D01*
X62868Y-55128D01*
X62830Y-55147D01*
X63192Y-55032D02*
X63439Y-55032D01*
X63306Y-55185D01*
X63363Y-55185D01*
X63401Y-55204D01*
X63420Y-55223D01*
X63439Y-55261D01*
X63439Y-55356D01*
X63420Y-55394D01*
X63401Y-55413D01*
X63363Y-55432D01*
X63249Y-55432D01*
X63211Y-55413D01*
X63192Y-55394D01*
X104795Y-53558D02*
X104814Y-53501D01*
X104814Y-53406D01*
X104795Y-53368D01*
X104776Y-53349D01*
X104738Y-53330D01*
X104700Y-53330D01*
X104662Y-53349D01*
X104643Y-53368D01*
X104624Y-53406D01*
X104605Y-53482D01*
X104586Y-53520D01*
X104567Y-53539D01*
X104529Y-53558D01*
X104491Y-53558D01*
X104453Y-53539D01*
X104433Y-53520D01*
X104414Y-53482D01*
X104414Y-53387D01*
X104433Y-53330D01*
X104453Y-53177D02*
X104433Y-53158D01*
X104414Y-53120D01*
X104414Y-53025D01*
X104433Y-52987D01*
X104453Y-52968D01*
X104491Y-52949D01*
X104529Y-52949D01*
X104586Y-52968D01*
X104814Y-53196D01*
X104814Y-52949D01*
X101573Y-53665D02*
X101173Y-53665D01*
X101573Y-53246D02*
X101383Y-53380D01*
X101573Y-53475D02*
X101173Y-53475D01*
X101173Y-53323D01*
X101192Y-53284D01*
X101212Y-53265D01*
X101250Y-53246D01*
X101307Y-53246D01*
X101345Y-53265D01*
X101364Y-53284D01*
X101383Y-53323D01*
X101383Y-53475D01*
X101364Y-52942D02*
X101364Y-53075D01*
X101573Y-53075D02*
X101173Y-53075D01*
X101173Y-52884D01*
X101573Y-52523D02*
X101573Y-52751D01*
X101573Y-52637D02*
X101173Y-52637D01*
X101231Y-52675D01*
X101269Y-52713D01*
X101288Y-52751D01*
X101173Y-52275D02*
X101173Y-52237D01*
X101192Y-52199D01*
X101212Y-52180D01*
X101250Y-52161D01*
X101326Y-52142D01*
X101421Y-52142D01*
X101497Y-52161D01*
X101535Y-52180D01*
X101554Y-52199D01*
X101573Y-52237D01*
X101573Y-52275D01*
X101554Y-52313D01*
X101535Y-52332D01*
X101497Y-52351D01*
X101421Y-52370D01*
X101326Y-52370D01*
X101250Y-52351D01*
X101212Y-52332D01*
X101192Y-52313D01*
X101173Y-52275D01*
X101573Y-51761D02*
X101573Y-51989D01*
X101573Y-51875D02*
X101173Y-51875D01*
X101231Y-51913D01*
X101269Y-51951D01*
X101288Y-51989D01*
X101173Y-51513D02*
X101173Y-51475D01*
X101192Y-51437D01*
X101212Y-51418D01*
X101250Y-51399D01*
X101326Y-51380D01*
X101421Y-51380D01*
X101497Y-51399D01*
X101535Y-51418D01*
X101554Y-51437D01*
X101573Y-51475D01*
X101573Y-51513D01*
X101554Y-51551D01*
X101535Y-51570D01*
X101497Y-51589D01*
X101421Y-51608D01*
X101326Y-51608D01*
X101250Y-51589D01*
X101212Y-51570D01*
X101192Y-51551D01*
X101173Y-51513D01*
X101573Y-51208D02*
X101173Y-51208D01*
X101573Y-50980D01*
X101173Y-50980D01*
X89568Y-53598D02*
X89587Y-53541D01*
X89587Y-53446D01*
X89568Y-53408D01*
X89549Y-53389D01*
X89511Y-53370D01*
X89473Y-53370D01*
X89435Y-53389D01*
X89416Y-53408D01*
X89397Y-53446D01*
X89378Y-53522D01*
X89359Y-53560D01*
X89340Y-53579D01*
X89302Y-53598D01*
X89264Y-53598D01*
X89226Y-53579D01*
X89206Y-53560D01*
X89187Y-53522D01*
X89187Y-53427D01*
X89206Y-53370D01*
X89187Y-53027D02*
X89187Y-53103D01*
X89206Y-53141D01*
X89226Y-53160D01*
X89283Y-53198D01*
X89359Y-53217D01*
X89511Y-53217D01*
X89549Y-53198D01*
X89568Y-53179D01*
X89587Y-53141D01*
X89587Y-53065D01*
X89568Y-53027D01*
X89549Y-53008D01*
X89511Y-52989D01*
X89416Y-52989D01*
X89378Y-53008D01*
X89359Y-53027D01*
X89340Y-53065D01*
X89340Y-53141D01*
X89359Y-53179D01*
X89378Y-53198D01*
X89416Y-53217D01*
X86386Y-53622D02*
X85986Y-53622D01*
X86386Y-53203D02*
X86196Y-53337D01*
X86386Y-53432D02*
X85986Y-53432D01*
X85986Y-53280D01*
X86005Y-53241D01*
X86025Y-53222D01*
X86063Y-53203D01*
X86120Y-53203D01*
X86158Y-53222D01*
X86177Y-53241D01*
X86196Y-53280D01*
X86196Y-53432D01*
X86177Y-52899D02*
X86177Y-53032D01*
X86386Y-53032D02*
X85986Y-53032D01*
X85986Y-52841D01*
X86386Y-52480D02*
X86386Y-52708D01*
X86386Y-52594D02*
X85986Y-52594D01*
X86044Y-52632D01*
X86082Y-52670D01*
X86101Y-52708D01*
X85986Y-52232D02*
X85986Y-52194D01*
X86005Y-52156D01*
X86025Y-52137D01*
X86063Y-52118D01*
X86139Y-52099D01*
X86234Y-52099D01*
X86310Y-52118D01*
X86348Y-52137D01*
X86367Y-52156D01*
X86386Y-52194D01*
X86386Y-52232D01*
X86367Y-52270D01*
X86348Y-52289D01*
X86310Y-52308D01*
X86234Y-52327D01*
X86139Y-52327D01*
X86063Y-52308D01*
X86025Y-52289D01*
X86005Y-52270D01*
X85986Y-52232D01*
X86386Y-51718D02*
X86386Y-51946D01*
X86386Y-51832D02*
X85986Y-51832D01*
X86044Y-51870D01*
X86082Y-51908D01*
X86101Y-51946D01*
X85986Y-51470D02*
X85986Y-51432D01*
X86005Y-51394D01*
X86025Y-51375D01*
X86063Y-51356D01*
X86139Y-51337D01*
X86234Y-51337D01*
X86310Y-51356D01*
X86348Y-51375D01*
X86367Y-51394D01*
X86386Y-51432D01*
X86386Y-51470D01*
X86367Y-51508D01*
X86348Y-51527D01*
X86310Y-51546D01*
X86234Y-51565D01*
X86139Y-51565D01*
X86063Y-51546D01*
X86025Y-51527D01*
X86005Y-51508D01*
X85986Y-51470D01*
X86386Y-51165D02*
X85986Y-51165D01*
X86386Y-50937D01*
X85986Y-50937D01*
X74387Y-53516D02*
X74406Y-53459D01*
X74406Y-53364D01*
X74387Y-53326D01*
X74368Y-53307D01*
X74330Y-53288D01*
X74292Y-53288D01*
X74254Y-53307D01*
X74235Y-53326D01*
X74216Y-53364D01*
X74197Y-53440D01*
X74178Y-53478D01*
X74159Y-53497D01*
X74121Y-53516D01*
X74083Y-53516D01*
X74045Y-53497D01*
X74025Y-53478D01*
X74006Y-53440D01*
X74006Y-53345D01*
X74025Y-53288D01*
X74140Y-52945D02*
X74406Y-52945D01*
X73987Y-53040D02*
X74273Y-53135D01*
X74273Y-52888D01*
X71181Y-53662D02*
X70781Y-53662D01*
X71181Y-53243D02*
X70991Y-53377D01*
X71181Y-53472D02*
X70781Y-53472D01*
X70781Y-53320D01*
X70800Y-53281D01*
X70820Y-53262D01*
X70858Y-53243D01*
X70915Y-53243D01*
X70953Y-53262D01*
X70972Y-53281D01*
X70991Y-53320D01*
X70991Y-53472D01*
X70972Y-52939D02*
X70972Y-53072D01*
X71181Y-53072D02*
X70781Y-53072D01*
X70781Y-52881D01*
X71181Y-52520D02*
X71181Y-52748D01*
X71181Y-52634D02*
X70781Y-52634D01*
X70839Y-52672D01*
X70877Y-52710D01*
X70896Y-52748D01*
X70781Y-52272D02*
X70781Y-52234D01*
X70800Y-52196D01*
X70820Y-52177D01*
X70858Y-52158D01*
X70934Y-52139D01*
X71029Y-52139D01*
X71105Y-52158D01*
X71143Y-52177D01*
X71162Y-52196D01*
X71181Y-52234D01*
X71181Y-52272D01*
X71162Y-52310D01*
X71143Y-52329D01*
X71105Y-52348D01*
X71029Y-52367D01*
X70934Y-52367D01*
X70858Y-52348D01*
X70820Y-52329D01*
X70800Y-52310D01*
X70781Y-52272D01*
X71181Y-51758D02*
X71181Y-51986D01*
X71181Y-51872D02*
X70781Y-51872D01*
X70839Y-51910D01*
X70877Y-51948D01*
X70896Y-51986D01*
X70781Y-51510D02*
X70781Y-51472D01*
X70800Y-51434D01*
X70820Y-51415D01*
X70858Y-51396D01*
X70934Y-51377D01*
X71029Y-51377D01*
X71105Y-51396D01*
X71143Y-51415D01*
X71162Y-51434D01*
X71181Y-51472D01*
X71181Y-51510D01*
X71162Y-51548D01*
X71143Y-51567D01*
X71105Y-51586D01*
X71029Y-51605D01*
X70934Y-51605D01*
X70858Y-51586D01*
X70820Y-51567D01*
X70800Y-51548D01*
X70781Y-51510D01*
X71181Y-51205D02*
X70781Y-51205D01*
X71181Y-50977D01*
X70781Y-50977D01*
X55694Y-58201D02*
X55713Y-58144D01*
X55732Y-58125D01*
X55770Y-58106D01*
X55827Y-58106D01*
X55865Y-58125D01*
X55884Y-58144D01*
X55903Y-58182D01*
X55903Y-58334D01*
X55503Y-58334D01*
X55503Y-58201D01*
X55522Y-58163D01*
X55542Y-58144D01*
X55580Y-58125D01*
X55618Y-58125D01*
X55656Y-58144D01*
X55675Y-58163D01*
X55694Y-58201D01*
X55694Y-58334D01*
X55503Y-57991D02*
X55503Y-57763D01*
X55903Y-57877D02*
X55503Y-57877D01*
X55903Y-57420D02*
X55903Y-57648D01*
X55903Y-57534D02*
X55503Y-57534D01*
X55561Y-57572D01*
X55599Y-57610D01*
X55618Y-57648D01*
G54D12*
X66237Y-65656D02*
X65787Y-65656D01*
X66237Y-65465D02*
X65787Y-65465D01*
X66237Y-65237D01*
X65787Y-65237D01*
X66108Y-65065D02*
X66108Y-64875D01*
X66237Y-65104D02*
X65787Y-64970D01*
X66237Y-64837D01*
X66237Y-64494D02*
X66237Y-64723D01*
X66237Y-64608D02*
X65787Y-64608D01*
X65851Y-64646D01*
X65894Y-64684D01*
X65915Y-64723D01*
X67216Y-66037D02*
X66816Y-66037D01*
X67216Y-65846D02*
X66816Y-65846D01*
X67216Y-65618D01*
X66816Y-65618D01*
X67102Y-65446D02*
X67102Y-65256D01*
X67216Y-65484D02*
X66816Y-65351D01*
X67216Y-65218D01*
X67216Y-64875D02*
X67216Y-65104D01*
X67216Y-64989D02*
X66816Y-64989D01*
X66874Y-65027D01*
X66912Y-65065D01*
X66931Y-65104D01*
X66950Y-64532D02*
X67216Y-64532D01*
X66797Y-64627D02*
X67083Y-64723D01*
X67083Y-64475D01*
X66988Y-64265D02*
X66969Y-64304D01*
X66950Y-64323D01*
X66912Y-64342D01*
X66893Y-64342D01*
X66855Y-64323D01*
X66835Y-64304D01*
X66816Y-64265D01*
X66816Y-64189D01*
X66835Y-64151D01*
X66855Y-64132D01*
X66893Y-64113D01*
X66912Y-64113D01*
X66950Y-64132D01*
X66969Y-64151D01*
X66988Y-64189D01*
X66988Y-64265D01*
X67007Y-64304D01*
X67026Y-64323D01*
X67064Y-64342D01*
X67140Y-64342D01*
X67178Y-64323D01*
X67197Y-64304D01*
X67216Y-64265D01*
X67216Y-64189D01*
X67197Y-64151D01*
X67178Y-64132D01*
X67140Y-64113D01*
X67064Y-64113D01*
X67026Y-64132D01*
X67007Y-64151D01*
X66988Y-64189D01*
G54D17*
X86749Y-63581D02*
X86749Y-63181D01*
X86902Y-63181D01*
X86940Y-63200D01*
X86959Y-63220D01*
X86978Y-63258D01*
X86978Y-63315D01*
X86959Y-63353D01*
X86940Y-63372D01*
X86902Y-63391D01*
X86749Y-63391D01*
X87111Y-63181D02*
X87378Y-63181D01*
X87206Y-63581D01*
M02*
