G04 (created by PCBNEW (22-Jun-2014 BZR 4027)-stable) date lun 20 oct 2014 04:40:32 CST*
%MOIN*%
G04 Gerber Fmt 3.4, Leading zero omitted, Abs format*
%FSLAX34Y34*%
G01*
G70*
G90*
G04 APERTURE LIST*
%ADD10C,0.00590551*%
%ADD11R,0.06X0.06*%
%ADD12C,0.06*%
%ADD13R,0.3X0.3*%
%ADD14R,0.175X0.175*%
%ADD15R,0.2X0.2*%
%ADD16R,0.125X0.125*%
%ADD17R,0.24X0.24*%
%ADD18R,0.1X0.1*%
%ADD19R,0.22X0.22*%
%ADD20C,0.055*%
%ADD21R,0.071X0.063*%
%ADD22R,0.063X0.071*%
%ADD23R,0.0709X0.0629*%
%ADD24R,0.0629X0.0709*%
%ADD25R,0.07X0.07*%
%ADD26C,0.07*%
%ADD27R,0.055X0.055*%
%ADD28C,0.1*%
%ADD29R,0.08X0.09*%
%ADD30R,0.07X0.09*%
%ADD31R,0.08X0.11*%
%ADD32R,0.065X0.04*%
G04 APERTURE END LIST*
G54D10*
G54D11*
X106830Y-54205D03*
G54D12*
X106830Y-55205D03*
G54D13*
X53402Y-59645D03*
X53402Y-56235D03*
G54D14*
X58450Y-61200D03*
X74450Y-61200D03*
X77430Y-61250D03*
X93430Y-61250D03*
G54D15*
X76450Y-65740D03*
G54D16*
X96550Y-60490D03*
G54D15*
X103365Y-61730D03*
G54D17*
X53915Y-63010D03*
X53915Y-69810D03*
G54D18*
X103300Y-64330D03*
X102010Y-64330D03*
X93110Y-64230D03*
X93110Y-62940D03*
G54D19*
X56810Y-53230D03*
X57838Y-71764D03*
X112518Y-60956D03*
G54D20*
X112738Y-58030D03*
X111738Y-58030D03*
X98888Y-63835D03*
X99888Y-63835D03*
X80375Y-63960D03*
X79375Y-63960D03*
X60315Y-70475D03*
X60315Y-69475D03*
X90340Y-63830D03*
X91340Y-63830D03*
X106700Y-67640D03*
X106700Y-68640D03*
X111474Y-54566D03*
X111474Y-55566D03*
X60785Y-53850D03*
X59785Y-53850D03*
G54D21*
X58935Y-58210D03*
X58935Y-57110D03*
X113430Y-55570D03*
X113430Y-54470D03*
G54D22*
X79975Y-70695D03*
X78875Y-70695D03*
G54D21*
X77665Y-71963D03*
X77665Y-73063D03*
X67870Y-61720D03*
X67870Y-62820D03*
X88890Y-64450D03*
X88890Y-63350D03*
X105245Y-62465D03*
X105245Y-61365D03*
G54D22*
X96646Y-61974D03*
X95546Y-61974D03*
G54D21*
X98334Y-61966D03*
X98334Y-60866D03*
G54D22*
X83204Y-64768D03*
X84304Y-64768D03*
G54D21*
X83006Y-62920D03*
X83006Y-61820D03*
X63395Y-62803D03*
X63395Y-63903D03*
X64894Y-62798D03*
X64894Y-61698D03*
G54D22*
X104125Y-70695D03*
X103025Y-70695D03*
G54D21*
X97000Y-69670D03*
X97000Y-70770D03*
X96000Y-69670D03*
X96000Y-70770D03*
G54D22*
X110900Y-69950D03*
X109800Y-69950D03*
G54D21*
X109575Y-68500D03*
X109575Y-67400D03*
G54D23*
X99579Y-61949D03*
X99579Y-60831D03*
X101143Y-60829D03*
X101143Y-61947D03*
X79916Y-62903D03*
X79916Y-61785D03*
X81188Y-61800D03*
X81188Y-62918D03*
X60306Y-62811D03*
X60306Y-61693D03*
X61824Y-61693D03*
X61824Y-62811D03*
X60186Y-59331D03*
X60186Y-58213D03*
G54D24*
X112232Y-53052D03*
X113350Y-53052D03*
G54D23*
X110865Y-67421D03*
X110865Y-68539D03*
G54D24*
X109781Y-71080D03*
X110899Y-71080D03*
X107619Y-70700D03*
X106501Y-70700D03*
G54D21*
X57660Y-68660D03*
X57660Y-69760D03*
G54D25*
X63360Y-70465D03*
G54D26*
X63360Y-68465D03*
X63360Y-69465D03*
G54D25*
X108460Y-65600D03*
G54D26*
X108460Y-63600D03*
X108460Y-64600D03*
G54D25*
X112590Y-69925D03*
G54D26*
X112590Y-67925D03*
X112590Y-68925D03*
G54D25*
X105650Y-72600D03*
G54D26*
X107650Y-72600D03*
X106650Y-72600D03*
G54D25*
X112452Y-72556D03*
G54D26*
X110452Y-72556D03*
X111452Y-72556D03*
G54D20*
X75024Y-68605D03*
X75024Y-69605D03*
X75024Y-70605D03*
X75024Y-71605D03*
X72024Y-71605D03*
X72024Y-70605D03*
X72024Y-69605D03*
X72024Y-68605D03*
X65116Y-67624D03*
X65116Y-68624D03*
X65116Y-69624D03*
X65116Y-70624D03*
X68116Y-70624D03*
X68116Y-69624D03*
X68116Y-68624D03*
X68116Y-67624D03*
G54D27*
X85522Y-66546D03*
G54D20*
X84522Y-66546D03*
X83522Y-66546D03*
X82522Y-66546D03*
X81522Y-66546D03*
X80522Y-66546D03*
X79522Y-66546D03*
X79522Y-69546D03*
X80522Y-69546D03*
X81522Y-69546D03*
X82522Y-69546D03*
X83522Y-69546D03*
X84522Y-69546D03*
X85522Y-69546D03*
G54D27*
X94740Y-66502D03*
G54D20*
X93740Y-66502D03*
X92740Y-66502D03*
X91740Y-66502D03*
X90740Y-66502D03*
X89740Y-66502D03*
X88740Y-66502D03*
X88740Y-69502D03*
X89740Y-69502D03*
X90740Y-69502D03*
X91740Y-69502D03*
X92740Y-69502D03*
X93740Y-69502D03*
X94740Y-69502D03*
G54D27*
X104180Y-66420D03*
G54D20*
X103180Y-66420D03*
X102180Y-66420D03*
X101180Y-66420D03*
X100180Y-66420D03*
X99180Y-66420D03*
X98180Y-66420D03*
X98180Y-69420D03*
X99180Y-69420D03*
X100180Y-69420D03*
X101180Y-69420D03*
X102180Y-69420D03*
X103180Y-69420D03*
X104180Y-69420D03*
G54D12*
X79014Y-73051D03*
X79025Y-72060D03*
X84014Y-73051D03*
X80014Y-72051D03*
X85014Y-73051D03*
X81014Y-72051D03*
X86014Y-73051D03*
X82014Y-72051D03*
X87014Y-73051D03*
X83014Y-72051D03*
X88014Y-73051D03*
X84014Y-72051D03*
X89014Y-73051D03*
X85014Y-72051D03*
X90014Y-73051D03*
X86014Y-72051D03*
X91014Y-73051D03*
X87014Y-72051D03*
X92014Y-73051D03*
X88014Y-72051D03*
X93014Y-73051D03*
X89014Y-72051D03*
X94014Y-73051D03*
X90014Y-72051D03*
X91014Y-72051D03*
X95014Y-73051D03*
X92014Y-72051D03*
X94014Y-72051D03*
X95014Y-72051D03*
X96014Y-72051D03*
X97014Y-72051D03*
X96014Y-73051D03*
X97014Y-73051D03*
X80014Y-73051D03*
X81014Y-73051D03*
X82014Y-73051D03*
X83014Y-73051D03*
X98014Y-73051D03*
X98014Y-72051D03*
X93014Y-72051D03*
X99014Y-73051D03*
X99014Y-72051D03*
X100014Y-73051D03*
X100014Y-72051D03*
X101014Y-73051D03*
X101014Y-72051D03*
X102014Y-73051D03*
X102014Y-72051D03*
X103014Y-73051D03*
X103014Y-72051D03*
G54D28*
X62964Y-54194D03*
X62964Y-56334D03*
X61420Y-66610D03*
X59280Y-66610D03*
X108500Y-54125D03*
X108500Y-56265D03*
X110260Y-66350D03*
X110260Y-64210D03*
G54D29*
X104000Y-55800D03*
X102000Y-55800D03*
X103000Y-55800D03*
X88800Y-55800D03*
X86800Y-55800D03*
X87800Y-55800D03*
X73600Y-55800D03*
X71600Y-55800D03*
X72600Y-55800D03*
X82000Y-55800D03*
G54D30*
X84000Y-55800D03*
G54D29*
X83000Y-55800D03*
X97400Y-55800D03*
X99400Y-55800D03*
X98400Y-55800D03*
G54D31*
X66850Y-55700D03*
X68850Y-55700D03*
X67850Y-55700D03*
G54D18*
X56737Y-58627D03*
X56739Y-57110D03*
G54D32*
X65305Y-65835D03*
X65305Y-65335D03*
X65305Y-64835D03*
X65305Y-64335D03*
X67805Y-64335D03*
X67805Y-64835D03*
X67805Y-65335D03*
X67805Y-65835D03*
G54D10*
G36*
X85945Y-65720D02*
X85945Y-63520D01*
X88145Y-63520D01*
X88145Y-65720D01*
X85945Y-65720D01*
X85945Y-65720D01*
G37*
M02*
