<?xml version="1.0" standalone="no"?>
 <!DOCTYPE svg PUBLIC "-//W3C//DTD SVG 1.1//EN" 
 "http://www.w3.org/Graphics/SVG/1.1/DTD/svg11.dtd"> 
<svg xmlns="http://www.w3.org/2000/svg" version="1.1" 
    width="41.9989cm" height="29.7002cm" viewBox="0 0 165350 116930 ">
<title>SVG Picture created as Three-phase bridge-B_SilkS.svg date 2013/12/03 16:54:37 </title>
  <desc>Picture generated by PCBNEW </desc>
<g style="fill:#000000; fill-opacity:1;stroke:#000000; stroke-opacity:1;
stroke-linecap:round; stroke-linejoin:round; "
 transform="translate(0 0) scale(1 1)">
</g>
<g style="fill:#000000; fill-opacity:0.0; 
stroke:#000000; stroke-width:39.3701; stroke-opacity:1; 
stroke-linecap:round; stroke-linejoin:round;">
<path d="M4000 4000
L161350 4000
L161350 112930
L4000 112930
L4000 4000
" />
<path d="M4700 4700
L160650 4700
L160650 112230
L4700 112230
L4700 4700
" />
<path d="M26470 4000
L26470 4700
" />
<path d="M15382 4552
L15097 4552
" />
<path d="M15240 4552
L15240 4052
L15192 4123
L15144 4171
L15097 4195
" />
<path d="M26470 112930
L26470 112230
" />
<path d="M15382 112782
L15097 112782
" />
<path d="M15240 112782
L15240 112282
L15192 112353
L15144 112401
L15097 112425
" />
<path d="M48940 4000
L48940 4700
" />
<path d="M37567 4100
L37590 4076
L37638 4052
L37757 4052
L37805 4076
L37829 4100
L37852 4147
L37852 4195
L37829 4266
L37543 4552
L37852 4552
" />
<path d="M48940 112930
L48940 112230
" />
<path d="M37567 112330
L37590 112306
L37638 112282
L37757 112282
L37805 112306
L37829 112330
L37852 112377
L37852 112425
L37829 112496
L37543 112782
L37852 112782
" />
<path d="M71410 4000
L71410 4700
" />
<path d="M60013 4052
L60322 4052
L60156 4242
L60227 4242
L60275 4266
L60299 4290
L60322 4338
L60322 4457
L60299 4504
L60275 4528
L60227 4552
L60084 4552
L60037 4528
L60013 4504
" />
<path d="M71410 112930
L71410 112230
" />
<path d="M60013 112282
L60322 112282
L60156 112472
L60227 112472
L60275 112496
L60299 112520
L60322 112568
L60322 112687
L60299 112734
L60275 112758
L60227 112782
L60084 112782
L60037 112758
L60013 112734
" />
<path d="M93880 4000
L93880 4700
" />
<path d="M82745 4219
L82745 4552
" />
<path d="M82626 4028
L82507 4385
L82816 4385
" />
<path d="M93880 112930
L93880 112230
" />
<path d="M82745 112449
L82745 112782
" />
<path d="M82626 112258
L82507 112615
L82816 112615
" />
<path d="M116350 4000
L116350 4700
" />
<path d="M105239 4052
L105000 4052
L104977 4290
L105000 4266
L105048 4242
L105167 4242
L105215 4266
L105239 4290
L105262 4338
L105262 4457
L105239 4504
L105215 4528
L105167 4552
L105048 4552
L105000 4528
L104977 4504
" />
<path d="M116350 112930
L116350 112230
" />
<path d="M105239 112282
L105000 112282
L104977 112520
L105000 112496
L105048 112472
L105167 112472
L105215 112496
L105239 112520
L105262 112568
L105262 112687
L105239 112734
L105215 112758
L105167 112782
L105048 112782
L105000 112758
L104977 112734
" />
<path d="M138820 4000
L138820 4700
" />
<path d="M127685 4052
L127590 4052
L127542 4076
L127518 4100
L127470 4171
L127447 4266
L127447 4457
L127470 4504
L127494 4528
L127542 4552
L127637 4552
L127685 4528
L127709 4504
L127732 4457
L127732 4338
L127709 4290
L127685 4266
L127637 4242
L127542 4242
L127494 4266
L127470 4290
L127447 4338
" />
<path d="M138820 112930
L138820 112230
" />
<path d="M127685 112282
L127590 112282
L127542 112306
L127518 112330
L127470 112401
L127447 112496
L127447 112687
L127470 112734
L127494 112758
L127542 112782
L127637 112782
L127685 112758
L127709 112734
L127732 112687
L127732 112568
L127709 112520
L127685 112496
L127637 112472
L127542 112472
L127494 112496
L127470 112520
L127447 112568
" />
<path d="M149893 4052
L150226 4052
L150012 4552
" />
<path d="M149893 112282
L150226 112282
L150012 112782
" />
<path d="M4000 25780
L4700 25780
" />
<path d="M4230 14949
L4469 14949
" />
<path d="M4183 15092
L4350 14592
L4516 15092
" />
<path d="M161350 25780
L160650 25780
" />
<path d="M160880 14949
L161119 14949
" />
<path d="M160833 15092
L161000 14592
L161166 15092
" />
<path d="M4000 47560
L4700 47560
" />
<path d="M4385 36610
L4457 36634
L4480 36658
L4504 36705
L4504 36777
L4480 36824
L4457 36848
L4409 36872
L4219 36872
L4219 36372
L4385 36372
L4433 36396
L4457 36420
L4480 36467
L4480 36515
L4457 36562
L4433 36586
L4385 36610
L4219 36610
" />
<path d="M161350 47560
L160650 47560
" />
<path d="M161035 36610
L161107 36634
L161130 36658
L161154 36705
L161154 36777
L161130 36824
L161107 36848
L161059 36872
L160869 36872
L160869 36372
L161035 36372
L161083 36396
L161107 36420
L161130 36467
L161130 36515
L161107 36562
L161083 36586
L161035 36610
L160869 36610
" />
<path d="M4000 69340
L4700 69340
" />
<path d="M4504 58604
L4480 58628
L4409 58652
L4361 58652
L4290 58628
L4242 58580
L4219 58533
L4195 58438
L4195 58366
L4219 58271
L4242 58223
L4290 58176
L4361 58152
L4409 58152
L4480 58176
L4504 58200
" />
<path d="M161350 69340
L160650 69340
" />
<path d="M161154 58604
L161130 58628
L161059 58652
L161011 58652
L160940 58628
L160892 58580
L160869 58533
L160845 58438
L160845 58366
L160869 58271
L160892 58223
L160940 58176
L161011 58152
L161059 58152
L161130 58176
L161154 58200
" />
<path d="M4000 91120
L4700 91120
" />
<path d="M4219 80432
L4219 79932
L4338 79932
L4409 79956
L4457 80003
L4480 80051
L4504 80146
L4504 80218
L4480 80313
L4457 80360
L4409 80408
L4338 80432
L4219 80432
" />
<path d="M161350 91120
L160650 91120
" />
<path d="M160869 80432
L160869 79932
L160988 79932
L161059 79956
L161107 80003
L161130 80051
L161154 80146
L161154 80218
L161130 80313
L161107 80360
L161059 80408
L160988 80432
L160869 80432
" />
<path d="M4242 101950
L4409 101950
" />
<path d="M4480 102212
L4242 102212
L4242 101712
L4480 101712
" />
<path d="M160892 101950
L161059 101950
" />
<path d="M161130 102212
L160892 102212
L160892 101712
L161130 101712
" />
<path d="M127800 110672
L127875 110072
L128017 110072
L128100 110101
L128150 110158
L128171 110215
L128185 110330
L128175 110415
L128132 110530
L128096 110587
L128032 110644
L127942 110672
L127800 110672
" />
<path d="M128657 110672
L128696 110358
L128675 110301
L128621 110272
L128507 110272
L128446 110301
" />
<path d="M128660 110644
L128600 110672
L128457 110672
L128403 110644
L128382 110587
L128389 110530
L128425 110472
L128485 110444
L128628 110444
L128689 110415
" />
<path d="M128907 110272
L129135 110272
" />
<path d="M129017 110072
L128953 110587
L128975 110644
L129028 110672
L129085 110672
" />
<path d="M129517 110644
L129457 110672
L129342 110672
L129289 110644
L129267 110587
L129296 110358
L129332 110301
L129392 110272
L129507 110272
L129560 110301
L129582 110358
L129575 110415
L129282 110472
" />
<path d="M129807 110615
L129832 110644
L129800 110672
L129775 110644
L129807 110615
L129800 110672
" />
<path d="M129846 110301
L129871 110330
L129839 110358
L129814 110330
L129846 110301
L129839 110358
" />
<path d="M130560 110072
L130932 110072
L130703 110301
L130789 110301
L130842 110330
L130867 110358
L130889 110415
L130871 110558
L130835 110615
L130803 110644
L130742 110672
L130571 110672
L130517 110644
L130492 110615
" />
<path d="M131828 110672
L131903 110072
" />
<path d="M131832 110644
L131771 110672
L131657 110672
L131603 110644
L131578 110615
L131557 110558
L131578 110387
L131614 110330
L131646 110301
L131707 110272
L131821 110272
L131875 110301
" />
<path d="M132346 110644
L132285 110672
L132171 110672
L132117 110644
L132096 110587
L132125 110358
L132160 110301
L132221 110272
L132335 110272
L132389 110301
L132410 110358
L132403 110415
L132110 110472
" />
<path d="M132889 110644
L132828 110672
L132714 110672
L132660 110644
L132635 110615
L132614 110558
L132635 110387
L132671 110330
L132703 110301
L132764 110272
L132878 110272
L132932 110301
" />
<path d="M133639 110130
L133671 110101
L133732 110072
L133875 110072
L133928 110101
L133953 110130
L133975 110187
L133967 110244
L133928 110330
L133542 110672
L133914 110672
" />
<path d="M134360 110072
L134417 110072
L134471 110101
L134496 110130
L134517 110187
L134532 110301
L134514 110444
L134471 110558
L134435 110615
L134403 110644
L134342 110672
L134285 110672
L134232 110644
L134207 110615
L134185 110558
L134171 110444
L134189 110301
L134232 110187
L134267 110130
L134300 110101
L134360 110072
" />
<path d="M135057 110672
L134714 110672
" />
<path d="M134885 110672
L134960 110072
L134892 110158
L134828 110215
L134767 110244
" />
<path d="M135332 110072
L135703 110072
L135475 110301
L135560 110301
L135614 110330
L135639 110358
L135660 110415
L135642 110558
L135607 110615
L135575 110644
L135514 110672
L135342 110672
L135289 110644
L135264 110615
" />
<path d="M119392 111872
L119392 111272
" />
<path d="M119735 111872
L119478 111530
" />
<path d="M119735 111272
L119392 111615
" />
<path d="M119992 111872
L119992 111472
" />
<path d="M119992 111272
L119964 111301
L119992 111330
L120021 111301
L119992 111272
L119992 111330
" />
<path d="M120621 111815
L120592 111844
L120507 111872
L120450 111872
L120364 111844
L120307 111787
L120278 111730
L120250 111615
L120250 111530
L120278 111415
L120307 111358
L120364 111301
L120450 111272
L120507 111272
L120592 111301
L120621 111330
" />
<path d="M121135 111872
L121135 111558
L121107 111501
L121050 111472
L120935 111472
L120878 111501
" />
<path d="M121135 111844
L121078 111872
L120935 111872
L120878 111844
L120850 111787
L120850 111730
L120878 111672
L120935 111644
L121078 111644
L121135 111615
" />
<path d="M121678 111872
L121678 111272
" />
<path d="M121678 111844
L121621 111872
L121507 111872
L121450 111844
L121421 111815
L121392 111758
L121392 111587
L121421 111530
L121450 111501
L121507 111472
L121621 111472
L121678 111501
" />
<path d="M122421 111558
L122621 111558
" />
<path d="M122707 111872
L122421 111872
L122421 111272
L122707 111272
" />
<path d="M122964 111815
L122992 111844
L122964 111872
L122935 111844
L122964 111815
L122964 111872
" />
<path d="M123249 111872
L123249 111272
L123392 111272
L123478 111301
L123535 111358
L123564 111415
L123592 111530
L123592 111615
L123564 111730
L123535 111787
L123478 111844
L123392 111872
L123249 111872
" />
<path d="M123849 111815
L123878 111844
L123849 111872
L123821 111844
L123849 111815
L123849 111872
" />
<path d="M124107 111701
L124392 111701
" />
<path d="M124049 111872
L124249 111272
L124449 111872
" />
<path d="M124649 111815
L124678 111844
L124649 111872
L124621 111844
L124649 111815
L124649 111872
" />
<path d="M152942 110672
L152778 110387
" />
<path d="M152600 110672
L152675 110072
L152903 110072
L152957 110101
L152982 110130
L153003 110187
L152992 110272
L152957 110330
L152925 110358
L152864 110387
L152635 110387
" />
<path d="M153432 110644
L153371 110672
L153257 110672
L153203 110644
L153182 110587
L153210 110358
L153246 110301
L153307 110272
L153421 110272
L153475 110301
L153496 110358
L153489 110415
L153196 110472
" />
<path d="M153707 110272
L153800 110672
L153992 110272
" />
<path d="M154178 110615
L154203 110644
L154171 110672
L154146 110644
L154178 110615
L154171 110672
" />
<path d="M154217 110301
L154242 110330
L154210 110358
L154185 110330
L154217 110301
L154210 110358
" />
<path d="M119364 110644
L119450 110672
L119592 110672
L119650 110644
L119678 110615
L119707 110558
L119707 110501
L119678 110444
L119650 110415
L119592 110387
L119478 110358
L119421 110330
L119392 110301
L119364 110244
L119364 110187
L119392 110130
L119421 110101
L119478 110072
L119621 110072
L119707 110101
" />
<path d="M119964 110672
L119964 110272
" />
<path d="M119964 110072
L119935 110101
L119964 110130
L119992 110101
L119964 110072
L119964 110130
" />
<path d="M120192 110272
L120507 110272
L120192 110672
L120507 110672
" />
<path d="M120964 110644
L120907 110672
L120792 110672
L120735 110644
L120707 110587
L120707 110358
L120735 110301
L120792 110272
L120907 110272
L120964 110301
L120992 110358
L120992 110415
L120707 110472
" />
<path d="M121250 110615
L121278 110644
L121250 110672
L121221 110644
L121250 110615
L121250 110672
" />
<path d="M121250 110301
L121278 110330
L121250 110358
L121221 110330
L121250 110301
L121250 110358
" />
<path d="M121964 110501
L122250 110501
" />
<path d="M121907 110672
L122107 110072
L122307 110672
" />
<path d="M122450 110072
L122821 110072
L122621 110301
L122707 110301
L122764 110330
L122792 110358
L122821 110415
L122821 110558
L122792 110615
L122764 110644
L122707 110672
L122535 110672
L122478 110644
L122450 110615
" />
<path d="M152592 111872
L152592 111272
" />
<path d="M153135 111872
L153135 111272
" />
<path d="M153135 111844
L153078 111872
L152964 111872
L152907 111844
L152878 111815
L152850 111758
L152850 111587
L152878 111530
L152907 111501
L152964 111472
L153078 111472
L153135 111501
" />
<path d="M153421 111815
L153450 111844
L153421 111872
L153392 111844
L153421 111815
L153421 111872
" />
<path d="M153421 111501
L153450 111530
L153421 111558
L153392 111530
L153421 111501
L153421 111558
" />
<path d="M154478 111872
L154135 111872
" />
<path d="M154307 111872
L154307 111272
L154249 111358
L154192 111415
L154135 111444
" />
<path d="M155164 111244
L154650 112015
" />
<path d="M155678 111872
L155335 111872
" />
<path d="M155507 111872
L155507 111272
L155449 111358
L155392 111415
L155335 111444
" />
<path d="M119389 108872
L119732 108872
" />
<path d="M119485 109472
L119560 108872
" />
<path d="M119857 109472
L119907 109072
" />
<path d="M119932 108872
L119900 108901
L119925 108930
L119957 108901
L119932 108872
L119925 108930
" />
<path d="M120107 109072
L120335 109072
" />
<path d="M120217 108872
L120153 109387
L120175 109444
L120228 109472
L120285 109472
" />
<path d="M120571 109472
L120517 109444
L120496 109387
L120560 108872
" />
<path d="M121032 109444
L120971 109472
L120857 109472
L120803 109444
L120782 109387
L120810 109158
L120846 109101
L120907 109072
L121021 109072
L121075 109101
L121096 109158
L121089 109215
L120796 109272
" />
<path d="M121321 109415
L121346 109444
L121314 109472
L121289 109444
L121321 109415
L121314 109472
" />
<path d="M121360 109101
L121385 109130
L121353 109158
L121328 109130
L121360 109101
L121353 109158
" />
<path d="M119592 106758
L119392 106758
" />
<path d="M119392 107072
L119392 106472
L119678 106472
" />
<path d="M119907 107072
L119907 106672
" />
<path d="M119907 106472
L119878 106501
L119907 106530
L119935 106501
L119907 106472
L119907 106530
" />
<path d="M120278 107072
L120221 107044
L120192 106987
L120192 106472
" />
<path d="M120735 107044
L120678 107072
L120564 107072
L120507 107044
L120478 106987
L120478 106758
L120507 106701
L120564 106672
L120678 106672
L120735 106701
L120764 106758
L120764 106815
L120478 106872
" />
<path d="M121021 107015
L121050 107044
L121021 107072
L120992 107044
L121021 107015
L121021 107072
" />
<path d="M121021 106701
L121050 106730
L121021 106758
L120992 106730
L121021 106701
L121021 106758
" />
<path d="M121678 106472
L122021 106472
" />
<path d="M121850 107072
L121850 106472
" />
<path d="M122221 107072
L122221 106472
" />
<path d="M122478 107072
L122478 106758
L122450 106701
L122392 106672
L122307 106672
L122250 106701
L122221 106730
" />
<path d="M122764 107072
L122764 106672
" />
<path d="M122764 106787
L122792 106730
L122821 106701
L122878 106672
L122935 106672
" />
<path d="M123364 107044
L123307 107072
L123192 107072
L123135 107044
L123107 106987
L123107 106758
L123135 106701
L123192 106672
L123307 106672
L123364 106701
L123392 106758
L123392 106815
L123107 106872
" />
<path d="M123878 107044
L123821 107072
L123707 107072
L123650 107044
L123621 106987
L123621 106758
L123650 106701
L123707 106672
L123821 106672
L123878 106701
L123907 106758
L123907 106815
L123621 106872
" />
<path d="M124164 106844
L124621 106844
" />
<path d="M124907 106672
L124907 107272
" />
<path d="M124907 106701
L124964 106672
L125078 106672
L125135 106701
L125164 106730
L125192 106787
L125192 106958
L125164 107015
L125135 107044
L125078 107072
L124964 107072
L124907 107044
" />
<path d="M125450 107072
L125450 106472
" />
<path d="M125707 107072
L125707 106758
L125678 106701
L125621 106672
L125535 106672
L125478 106701
L125450 106730
" />
<path d="M126250 107072
L126250 106758
L126221 106701
L126164 106672
L126050 106672
L125992 106701
" />
<path d="M126250 107044
L126192 107072
L126050 107072
L125992 107044
L125964 106987
L125964 106930
L125992 106872
L126050 106844
L126192 106844
L126250 106815
" />
<path d="M126507 107044
L126564 107072
L126678 107072
L126735 107044
L126764 106987
L126764 106958
L126735 106901
L126678 106872
L126592 106872
L126535 106844
L126507 106787
L126507 106758
L126535 106701
L126592 106672
L126678 106672
L126735 106701
" />
<path d="M127250 107044
L127192 107072
L127078 107072
L127021 107044
L126992 106987
L126992 106758
L127021 106701
L127078 106672
L127192 106672
L127250 106701
L127278 106758
L127278 106815
L126992 106872
" />
<path d="M127992 107072
L127992 106472
" />
<path d="M127992 106701
L128050 106672
L128164 106672
L128221 106701
L128250 106730
L128278 106787
L128278 106958
L128250 107015
L128221 107044
L128164 107072
L128050 107072
L127992 107044
" />
<path d="M128535 107072
L128535 106672
" />
<path d="M128535 106787
L128564 106730
L128592 106701
L128650 106672
L128707 106672
" />
<path d="M128907 107072
L128907 106672
" />
<path d="M128907 106472
L128878 106501
L128907 106530
L128935 106501
L128907 106472
L128907 106530
" />
<path d="M129450 107072
L129450 106472
" />
<path d="M129450 107044
L129392 107072
L129278 107072
L129221 107044
L129192 107015
L129164 106958
L129164 106787
L129192 106730
L129221 106701
L129278 106672
L129392 106672
L129450 106701
" />
<path d="M129992 106672
L129992 107158
L129964 107215
L129935 107244
L129878 107272
L129792 107272
L129735 107244
" />
<path d="M129992 107044
L129935 107072
L129821 107072
L129764 107044
L129735 107015
L129707 106958
L129707 106787
L129735 106730
L129764 106701
L129821 106672
L129935 106672
L129992 106701
" />
<path d="M130507 107044
L130450 107072
L130335 107072
L130278 107044
L130250 106987
L130250 106758
L130278 106701
L130335 106672
L130450 106672
L130507 106701
L130535 106758
L130535 106815
L130250 106872
" />
<path d="M130792 107015
L130821 107044
L130792 107072
L130764 107044
L130792 107015
L130792 107072
" />
<path d="M131078 107072
L131078 106472
" />
<path d="M131135 106844
L131307 107072
" />
<path d="M131307 106672
L131078 106901
" />
<path d="M131564 107072
L131564 106672
" />
<path d="M131564 106472
L131535 106501
L131564 106530
L131592 106501
L131564 106472
L131564 106530
" />
<path d="M132107 107044
L132050 107072
L131935 107072
L131878 107044
L131850 107015
L131821 106958
L131821 106787
L131850 106730
L131878 106701
L131935 106672
L132050 106672
L132107 106701
" />
<path d="M132621 107072
L132621 106758
L132592 106701
L132535 106672
L132421 106672
L132364 106701
" />
<path d="M132621 107044
L132564 107072
L132421 107072
L132364 107044
L132335 106987
L132335 106930
L132364 106872
L132421 106844
L132564 106844
L132621 106815
" />
<path d="M133164 107072
L133164 106472
" />
<path d="M133164 107044
L133107 107072
L132992 107072
L132935 107044
L132907 107015
L132878 106958
L132878 106787
L132907 106730
L132935 106701
L132992 106672
L133107 106672
L133164 106701
" />
<path d="M133307 107130
L133764 107130
" />
<path d="M133907 106672
L133907 107272
" />
<path d="M133907 106701
L133964 106672
L134078 106672
L134135 106701
L134164 106730
L134192 106787
L134192 106958
L134164 107015
L134135 107044
L134078 107072
L133964 107072
L133907 107044
" />
<path d="M134707 107044
L134650 107072
L134535 107072
L134478 107044
L134450 107015
L134421 106958
L134421 106787
L134450 106730
L134478 106701
L134535 106672
L134650 106672
L134707 106701
" />
<path d="M134964 107072
L134964 106472
" />
<path d="M134964 106701
L135021 106672
L135135 106672
L135192 106701
L135221 106730
L135250 106787
L135250 106958
L135221 107015
L135192 107044
L135135 107072
L135021 107072
L134964 107044
" />
<path d="M119364 108244
L119450 108272
L119592 108272
L119650 108244
L119678 108215
L119707 108158
L119707 108101
L119678 108044
L119650 108015
L119592 107987
L119478 107958
L119421 107930
L119392 107901
L119364 107844
L119364 107787
L119392 107730
L119421 107701
L119478 107672
L119621 107672
L119707 107701
" />
<path d="M119964 108272
L119964 107672
" />
<path d="M120221 108272
L120221 107958
L120192 107901
L120135 107872
L120050 107872
L119992 107901
L119964 107930
" />
<path d="M120735 108244
L120678 108272
L120564 108272
L120507 108244
L120478 108187
L120478 107958
L120507 107901
L120564 107872
L120678 107872
L120735 107901
L120764 107958
L120764 108015
L120478 108072
" />
<path d="M121250 108244
L121192 108272
L121078 108272
L121021 108244
L120992 108187
L120992 107958
L121021 107901
L121078 107872
L121192 107872
L121250 107901
L121278 107958
L121278 108015
L120992 108072
" />
<path d="M121450 107872
L121678 107872
" />
<path d="M121535 107672
L121535 108187
L121564 108244
L121621 108272
L121678 108272
" />
<path d="M121878 108215
L121907 108244
L121878 108272
L121850 108244
L121878 108215
L121878 108272
" />
<path d="M121878 107901
L121907 107930
L121878 107958
L121850 107930
L121878 107901
L121878 107958
" />
<path d="M118650 106230
L118650 112230
" />
<path d="M118650 106230
L160650 106230
" />
<path d="M118650 106230
L160650 106230
" />
<path d="M118650 108630
L160650 108630
" />
<path d="M151850 109830
L151850 112230
" />
<path d="M118650 111030
L160650 111030
" />
<path d="M118650 109830
L160650 109830
" />
<path d="M125250 109830
L125250 111030
" />
</g>
<g style="fill:#FFFF00; fill-opacity:0.0; 
stroke:#FFFF00; stroke-width:39.3701; stroke-opacity:1; 
stroke-linecap:round; stroke-linejoin:round;">
<path d="M115500 82600
L115100 82600
" />
<path d="M115500 25400
L115500 82600
" />
<path d="M115100 25400
L115500 25400
" />
<path d="M93100 25400
L115100 25400
" />
<path d="M57500 82600
L115100 82600
" />
<path d="M57500 25400
L57500 82600
" />
<path d="M93100 25400
L57500 25400
" />
<path d="M-49500 -42600
L-49500 -42300
" />
</g>
<g style="fill:#A000A0; fill-opacity:0.0; 
stroke:#A000A0; stroke-width:80; stroke-opacity:1; 
stroke-linecap:round; stroke-linejoin:round;">
<path d="M82423 36722
L82590 36460
" />
<path d="M82709 36722
L82709 36172
L82519 36172
L82471 36198
L82447 36225
L82423 36277
L82423 36355
L82447 36408
L82471 36434
L82519 36460
L82709 36460
" />
<path d="M82328 36775
L81947 36775
" />
<path d="M81852 36696
L81780 36722
L81661 36722
L81614 36696
L81590 36670
L81566 36617
L81566 36565
L81590 36513
L81614 36486
L81661 36460
L81757 36434
L81804 36408
L81828 36382
L81852 36329
L81852 36277
L81828 36225
L81804 36198
L81757 36172
L81638 36172
L81566 36198
" />
<path d="M81352 36722
L81352 36172
" />
<path d="M81138 36722
L81138 36434
L81161 36382
L81209 36355
L81280 36355
L81328 36382
L81352 36408
" />
<path d="M80685 36355
L80685 36722
" />
<path d="M80900 36355
L80900 36644
L80876 36696
L80828 36722
L80757 36722
L80709 36696
L80685 36670
" />
<path d="M80447 36355
L80447 36722
" />
<path d="M80447 36408
L80423 36382
L80376 36355
L80304 36355
L80257 36382
L80233 36434
L80233 36722
" />
<path d="M80066 36355
L79876 36355
" />
<path d="M79995 36172
L79995 36644
L79971 36696
L79923 36722
L79876 36722
" />
<path d="M79828 36775
L79447 36775
" />
<path d="M79066 36722
L79352 36722
" />
<path d="M79209 36722
L79209 36172
L79257 36251
L79304 36303
L79352 36329
" />
<path d="M83319 35272
L83271 35272
L83223 35298
L83200 35325
L83176 35377
L83152 35482
L83152 35613
L83176 35717
L83200 35770
L83223 35796
L83271 35822
L83319 35822
L83366 35796
L83390 35770
L83414 35717
L83438 35613
L83438 35482
L83414 35377
L83390 35325
L83366 35298
L83319 35272
" />
<path d="M82938 35770
L82914 35796
L82938 35822
L82961 35796
L82938 35770
L82938 35822
" />
<path d="M82604 35272
L82557 35272
L82509 35298
L82485 35325
L82461 35377
L82438 35482
L82438 35613
L82461 35717
L82485 35770
L82509 35796
L82557 35822
L82604 35822
L82652 35796
L82676 35770
L82700 35717
L82723 35613
L82723 35482
L82700 35377
L82676 35325
L82652 35298
L82604 35272
" />
<path d="M81985 35272
L82223 35272
L82247 35534
L82223 35508
L82176 35482
L82057 35482
L82009 35508
L81985 35534
L81961 35586
L81961 35717
L81985 35770
L82009 35796
L82057 35822
L82176 35822
L82223 35796
L82247 35770
" />
<path d="M82023 49322
L82190 49060
" />
<path d="M82309 49322
L82309 48772
L82119 48772
L82071 48798
L82047 48825
L82023 48877
L82023 48955
L82047 49008
L82071 49034
L82119 49060
L82309 49060
" />
<path d="M81928 49375
L81547 49375
" />
<path d="M81452 49296
L81380 49322
L81261 49322
L81214 49296
L81190 49270
L81166 49217
L81166 49165
L81190 49113
L81214 49086
L81261 49060
L81357 49034
L81404 49008
L81428 48982
L81452 48929
L81452 48877
L81428 48825
L81404 48798
L81357 48772
L81238 48772
L81166 48798
" />
<path d="M80952 49322
L80952 48772
" />
<path d="M80738 49322
L80738 49034
L80761 48982
L80809 48955
L80880 48955
L80928 48982
L80952 49008
" />
<path d="M80285 48955
L80285 49322
" />
<path d="M80500 48955
L80500 49244
L80476 49296
L80428 49322
L80357 49322
L80309 49296
L80285 49270
" />
<path d="M80047 48955
L80047 49322
" />
<path d="M80047 49008
L80023 48982
L79976 48955
L79904 48955
L79857 48982
L79833 49034
L79833 49322
" />
<path d="M79666 48955
L79476 48955
" />
<path d="M79595 48772
L79595 49244
L79571 49296
L79523 49322
L79476 49322
" />
<path d="M79428 49375
L79047 49375
" />
<path d="M78952 48825
L78928 48798
L78880 48772
L78761 48772
L78714 48798
L78690 48825
L78666 48877
L78666 48929
L78690 49008
L78976 49322
L78666 49322
" />
<path d="M82919 47872
L82871 47872
L82823 47898
L82800 47925
L82776 47977
L82752 48082
L82752 48213
L82776 48317
L82800 48370
L82823 48396
L82871 48422
L82919 48422
L82966 48396
L82990 48370
L83014 48317
L83038 48213
L83038 48082
L83014 47977
L82990 47925
L82966 47898
L82919 47872
" />
<path d="M82538 48370
L82514 48396
L82538 48422
L82561 48396
L82538 48370
L82538 48422
" />
<path d="M82204 47872
L82157 47872
L82109 47898
L82085 47925
L82061 47977
L82038 48082
L82038 48213
L82061 48317
L82085 48370
L82109 48396
L82157 48422
L82204 48422
L82252 48396
L82276 48370
L82300 48317
L82323 48213
L82323 48082
L82300 47977
L82276 47925
L82252 47898
L82204 47872
" />
<path d="M81585 47872
L81823 47872
L81847 48134
L81823 48108
L81776 48082
L81657 48082
L81609 48108
L81585 48134
L81561 48186
L81561 48317
L81585 48370
L81609 48396
L81657 48422
L81776 48422
L81823 48396
L81847 48370
" />
<path d="M92904 34692
L92847 34711
L92752 34711
L92714 34692
L92695 34673
L92676 34635
L92676 34597
L92695 34559
L92714 34540
L92752 34521
L92828 34502
L92866 34483
L92885 34464
L92904 34426
L92904 34388
L92885 34350
L92866 34330
L92828 34311
L92733 34311
L92676 34330
" />
<path d="M92295 34711
L92523 34711
" />
<path d="M92409 34711
L92409 34311
L92447 34369
L92485 34407
L92523 34426
" />
<path d="M97342 38311
L97342 37911
" />
<path d="M96923 38311
L97057 38121
" />
<path d="M97152 38311
L97152 37911
L97000 37911
L96961 37930
L96942 37950
L96923 37988
L96923 38045
L96942 38083
L96961 38102
L97000 38121
L97152 38121
" />
<path d="M96619 38102
L96752 38102
" />
<path d="M96752 38311
L96752 37911
L96561 37911
" />
<path d="M96200 38311
L96428 38311
" />
<path d="M96314 38311
L96314 37911
L96352 37969
L96390 38007
L96428 38026
" />
<path d="M95952 37911
L95914 37911
L95876 37930
L95857 37950
L95838 37988
L95819 38064
L95819 38159
L95838 38235
L95857 38273
L95876 38292
L95914 38311
L95952 38311
L95990 38292
L96009 38273
L96028 38235
L96047 38159
L96047 38064
L96028 37988
L96009 37950
L95990 37930
L95952 37911
" />
<path d="M95438 38311
L95666 38311
" />
<path d="M95552 38311
L95552 37911
L95590 37969
L95628 38007
L95666 38026
" />
<path d="M95190 37911
L95152 37911
L95114 37930
L95095 37950
L95076 37988
L95057 38064
L95057 38159
L95076 38235
L95095 38273
L95114 38292
L95152 38311
L95190 38311
L95228 38292
L95247 38273
L95266 38235
L95285 38159
L95285 38064
L95266 37988
L95247 37950
L95228 37930
L95190 37911
" />
<path d="M94885 38311
L94885 37911
L94657 38311
L94657 37911
" />
<path d="M92804 49842
L92747 49861
L92652 49861
L92614 49842
L92595 49823
L92576 49785
L92576 49747
L92595 49709
L92614 49690
L92652 49671
L92728 49652
L92766 49633
L92785 49614
L92804 49576
L92804 49538
L92785 49500
L92766 49480
L92728 49461
L92633 49461
L92576 49480
" />
<path d="M92442 49461
L92195 49461
L92328 49614
L92271 49614
L92233 49633
L92214 49652
L92195 49690
L92195 49785
L92214 49823
L92233 49842
L92271 49861
L92385 49861
L92423 49842
L92442 49823
" />
<path d="M97242 53461
L97242 53061
" />
<path d="M96823 53461
L96957 53271
" />
<path d="M97052 53461
L97052 53061
L96900 53061
L96861 53080
L96842 53100
L96823 53138
L96823 53195
L96842 53233
L96861 53252
L96900 53271
L97052 53271
" />
<path d="M96519 53252
L96652 53252
" />
<path d="M96652 53461
L96652 53061
L96461 53061
" />
<path d="M96100 53461
L96328 53461
" />
<path d="M96214 53461
L96214 53061
L96252 53119
L96290 53157
L96328 53176
" />
<path d="M95852 53061
L95814 53061
L95776 53080
L95757 53100
L95738 53138
L95719 53214
L95719 53309
L95738 53385
L95757 53423
L95776 53442
L95814 53461
L95852 53461
L95890 53442
L95909 53423
L95928 53385
L95947 53309
L95947 53214
L95928 53138
L95909 53100
L95890 53080
L95852 53061
" />
<path d="M95338 53461
L95566 53461
" />
<path d="M95452 53461
L95452 53061
L95490 53119
L95528 53157
L95566 53176
" />
<path d="M95090 53061
L95052 53061
L95014 53080
L94995 53100
L94976 53138
L94957 53214
L94957 53309
L94976 53385
L94995 53423
L95014 53442
L95052 53461
L95090 53461
L95128 53442
L95147 53423
L95166 53385
L95185 53309
L95185 53214
L95166 53138
L95147 53100
L95128 53080
L95090 53061
" />
<path d="M94785 53461
L94785 53061
L94557 53461
L94557 53061
" />
<path d="M92804 65242
L92747 65261
L92652 65261
L92614 65242
L92595 65223
L92576 65185
L92576 65147
L92595 65109
L92614 65090
L92652 65071
L92728 65052
L92766 65033
L92785 65014
L92804 64976
L92804 64938
L92785 64900
L92766 64880
L92728 64861
L92633 64861
L92576 64880
" />
<path d="M92214 64861
L92404 64861
L92423 65052
L92404 65033
L92366 65014
L92271 65014
L92233 65033
L92214 65052
L92195 65090
L92195 65185
L92214 65223
L92233 65242
L92271 65261
L92366 65261
L92404 65242
L92423 65223
" />
<path d="M97242 68861
L97242 68461
" />
<path d="M96823 68861
L96957 68671
" />
<path d="M97052 68861
L97052 68461
L96900 68461
L96861 68480
L96842 68500
L96823 68538
L96823 68595
L96842 68633
L96861 68652
L96900 68671
L97052 68671
" />
<path d="M96519 68652
L96652 68652
" />
<path d="M96652 68861
L96652 68461
L96461 68461
" />
<path d="M96100 68861
L96328 68861
" />
<path d="M96214 68861
L96214 68461
L96252 68519
L96290 68557
L96328 68576
" />
<path d="M95852 68461
L95814 68461
L95776 68480
L95757 68500
L95738 68538
L95719 68614
L95719 68709
L95738 68785
L95757 68823
L95776 68842
L95814 68861
L95852 68861
L95890 68842
L95909 68823
L95928 68785
L95947 68709
L95947 68614
L95928 68538
L95909 68500
L95890 68480
L95852 68461
" />
<path d="M95338 68861
L95566 68861
" />
<path d="M95452 68861
L95452 68461
L95490 68519
L95528 68557
L95566 68576
" />
<path d="M95090 68461
L95052 68461
L95014 68480
L94995 68500
L94976 68538
L94957 68614
L94957 68709
L94976 68785
L94995 68823
L95014 68842
L95052 68861
L95090 68861
L95128 68842
L95147 68823
L95166 68785
L95185 68709
L95185 68614
L95166 68538
L95147 68500
L95128 68480
L95090 68461
" />
<path d="M94785 68861
L94785 68461
L94557 68861
L94557 68461
" />
</g>
<g style="fill:#A000A0; fill-opacity:0.0; 
stroke:#A000A0; stroke-width:120; stroke-opacity:1; 
stroke-linecap:round; stroke-linejoin:round;">
<path d="M89700 36100
L89700 36100
" />
<path d="M89700 36100
L89700 36100
" />
<path d="M74450 36100
L73700 36100
" />
<path d="M73700 36100
L73700 36100
" />
<path d="M74500 37700
L88950 37700
" />
<path d="M88950 34400
L74500 34400
" />
<path d="M74500 34400
L74500 37700
" />
<path d="M88950 34400
L88950 37700
" />
<path d="M89700 36100
L88950 36100
" />
<path d="M89300 48700
L89300 48700
" />
<path d="M89300 48700
L89300 48700
" />
<path d="M74050 48700
L73300 48700
" />
<path d="M73300 48700
L73300 48700
" />
<path d="M74100 50300
L88550 50300
" />
<path d="M88550 47000
L74100 47000
" />
<path d="M74100 47000
L74100 50300
" />
<path d="M88550 47000
L88550 50300
" />
<path d="M89300 48700
L88550 48700
" />
</g>
<g style="fill:#A000A0; fill-opacity:0.0; 
stroke:#A000A0; stroke-width:59.0551; stroke-opacity:1; 
stroke-linecap:round; stroke-linejoin:round;">
<path d="M85200 44750
L85200 29550
" />
<path d="M85200 29550
L100400 29550
" />
<path d="M100400 29550
L100400 44750
" />
<path d="M85200 44750
L100400 44750
" />
<path d="M92400 40950
L92300 40950
" />
</g>
<g style="fill:#A000A0; fill-opacity:0.0; 
stroke:#A000A0; stroke-width:120; stroke-opacity:1; 
stroke-linecap:round; stroke-linejoin:round;">
<path d="M92800 38150
L94800 38150
" />
<path d="M92800 37150
L94800 37150
" />
<path d="M92800 36150
L94800 36150
" />
<path d="M94800 35150
L100800 35150
" />
<path d="M100800 35150
L100800 39150
" />
<path d="M100800 39150
L94800 39150
" />
<path d="M94800 39150
L94800 35150
" />
<path d="M97800 35650
L97800 39150
" />
<path d="M97800 35650
L97800 35150
" />
</g>
<g style="fill:#A000A0; fill-opacity:0.0; 
stroke:#A000A0; stroke-width:59.0551; stroke-opacity:1; 
stroke-linecap:round; stroke-linejoin:round;">
<path d="M85100 59900
L85100 44700
" />
<path d="M85100 44700
L100300 44700
" />
<path d="M100300 44700
L100300 59900
" />
<path d="M85100 59900
L100300 59900
" />
<path d="M92300 56100
L92200 56100
" />
</g>
<g style="fill:#A000A0; fill-opacity:0.0; 
stroke:#A000A0; stroke-width:120; stroke-opacity:1; 
stroke-linecap:round; stroke-linejoin:round;">
<path d="M92700 53300
L94700 53300
" />
<path d="M92700 52300
L94700 52300
" />
<path d="M92700 51300
L94700 51300
" />
<path d="M94700 50300
L100700 50300
" />
<path d="M100700 50300
L100700 54300
" />
<path d="M100700 54300
L94700 54300
" />
<path d="M94700 54300
L94700 50300
" />
<path d="M97700 50800
L97700 54300
" />
<path d="M97700 50800
L97700 50300
" />
</g>
<g style="fill:#A000A0; fill-opacity:0.0; 
stroke:#A000A0; stroke-width:59.0551; stroke-opacity:1; 
stroke-linecap:round; stroke-linejoin:round;">
<path d="M85100 75300
L85100 60100
" />
<path d="M85100 60100
L100300 60100
" />
<path d="M100300 60100
L100300 75300
" />
<path d="M85100 75300
L100300 75300
" />
<path d="M92300 71500
L92200 71500
" />
</g>
<g style="fill:#A000A0; fill-opacity:0.0; 
stroke:#A000A0; stroke-width:120; stroke-opacity:1; 
stroke-linecap:round; stroke-linejoin:round;">
<path d="M92700 68700
L94700 68700
" />
<path d="M92700 67700
L94700 67700
" />
<path d="M92700 66700
L94700 66700
" />
<path d="M94700 65700
L100700 65700
" />
<path d="M100700 65700
L100700 69700
" />
<path d="M100700 69700
L94700 69700
" />
<path d="M94700 69700
L94700 65700
" />
<path d="M97700 66200
L97700 69700
" />
<path d="M97700 66200
L97700 65700
" />
</g>
<g style="fill:#808000; fill-opacity:0.0; 
stroke:#808000; stroke-width:39.3701; stroke-opacity:1; 
stroke-linecap:round; stroke-linejoin:round;">
</g>
<g style="fill:#808000; fill-opacity:1.0; 
stroke:#808000; stroke-width:39.3701; stroke-opacity:1; 
stroke-linecap:round; stroke-linejoin:round;">
<circle cx="89700" cy="36100" r="330.315" /> 
<circle cx="73700" cy="36100" r="330.315" /> 
<circle cx="89300" cy="48700" r="330.315" /> 
<circle cx="73300" cy="48700" r="330.315" /> 
<polyline style="fill-rule:evenodd;"
points="92469,36480
92469,35819
93130,35819
93130,36480
92469,36480
" /> 
<circle cx="92800" cy="38150" r="330.315" /> 
<circle cx="92800" cy="37150" r="330.315" /> 
<polyline style="fill-rule:evenodd;"
points="97569,38880
97569,35419
101030,35419
101030,38880
97569,38880
" /> 
<polyline style="fill-rule:evenodd;"
points="97469,43630
97469,40169
100930,40169
100930,43630
97469,43630
" /> 
<polyline style="fill-rule:evenodd;"
points="92369,51630
92369,50969
93030,50969
93030,51630
92369,51630
" /> 
<circle cx="92700" cy="53300" r="330.315" /> 
<circle cx="92700" cy="52300" r="330.315" /> 
<polyline style="fill-rule:evenodd;"
points="97469,54030
97469,50569
100930,50569
100930,54030
97469,54030
" /> 
<polyline style="fill-rule:evenodd;"
points="97469,58830
97469,55369
100930,55369
100930,58830
97469,58830
" /> 
<polyline style="fill-rule:evenodd;"
points="92369,67030
92369,66369
93030,66369
93030,67030
92369,67030
" /> 
<circle cx="92700" cy="68700" r="330.315" /> 
<circle cx="92700" cy="67700" r="330.315" /> 
<polyline style="fill-rule:evenodd;"
points="97469,69430
97469,65969
100930,65969
100930,69430
97469,69430
" /> 
<polyline style="fill-rule:evenodd;"
points="97469,74030
97469,70569
100930,70569
100930,74030
97469,74030
" /> 
</g> 
</svg>
