<?xml version="1.0" standalone="no"?>
 <!DOCTYPE svg PUBLIC "-//W3C//DTD SVG 1.1//EN" 
 "http://www.w3.org/Graphics/SVG/1.1/DTD/svg11.dtd"> 
<svg xmlns="http://www.w3.org/2000/svg" version="1.1" 
    width="41.9989cm" height="29.7002cm" viewBox="0 0 165350 116930 ">
<title>SVG Picture created as Three-phase bridge-B_SilkS.svg date 2013/12/02 14:54:51 </title>
  <desc>Picture generated by PCBNEW </desc>
<g style="fill:#000000; fill-opacity:1;stroke:#000000; stroke-opacity:1;
stroke-linecap:round; stroke-linejoin:round; "
 transform="translate(0 0) scale(1 1)">
</g>
<g style="fill:#000000; fill-opacity:0.0; 
stroke:#000000; stroke-width:39.3701; stroke-opacity:1; 
stroke-linecap:round; stroke-linejoin:round;">
<path d="M4000 4000
L161350 4000
L161350 112930
L4000 112930
L4000 4000
" />
<path d="M4700 4700
L160650 4700
L160650 112230
L4700 112230
L4700 4700
" />
<path d="M26470 4000
L26470 4700
" />
<path d="M15382 4552
L15097 4552
" />
<path d="M15240 4552
L15240 4052
L15192 4123
L15144 4171
L15097 4195
" />
<path d="M26470 112930
L26470 112230
" />
<path d="M15382 112782
L15097 112782
" />
<path d="M15240 112782
L15240 112282
L15192 112353
L15144 112401
L15097 112425
" />
<path d="M48940 4000
L48940 4700
" />
<path d="M37567 4100
L37590 4076
L37638 4052
L37757 4052
L37805 4076
L37829 4100
L37852 4147
L37852 4195
L37829 4266
L37543 4552
L37852 4552
" />
<path d="M48940 112930
L48940 112230
" />
<path d="M37567 112330
L37590 112306
L37638 112282
L37757 112282
L37805 112306
L37829 112330
L37852 112377
L37852 112425
L37829 112496
L37543 112782
L37852 112782
" />
<path d="M71410 4000
L71410 4700
" />
<path d="M60013 4052
L60322 4052
L60156 4242
L60227 4242
L60275 4266
L60299 4290
L60322 4338
L60322 4457
L60299 4504
L60275 4528
L60227 4552
L60084 4552
L60037 4528
L60013 4504
" />
<path d="M71410 112930
L71410 112230
" />
<path d="M60013 112282
L60322 112282
L60156 112472
L60227 112472
L60275 112496
L60299 112520
L60322 112568
L60322 112687
L60299 112734
L60275 112758
L60227 112782
L60084 112782
L60037 112758
L60013 112734
" />
<path d="M93880 4000
L93880 4700
" />
<path d="M82745 4219
L82745 4552
" />
<path d="M82626 4028
L82507 4385
L82816 4385
" />
<path d="M93880 112930
L93880 112230
" />
<path d="M82745 112449
L82745 112782
" />
<path d="M82626 112258
L82507 112615
L82816 112615
" />
<path d="M116350 4000
L116350 4700
" />
<path d="M105239 4052
L105000 4052
L104977 4290
L105000 4266
L105048 4242
L105167 4242
L105215 4266
L105239 4290
L105262 4338
L105262 4457
L105239 4504
L105215 4528
L105167 4552
L105048 4552
L105000 4528
L104977 4504
" />
<path d="M116350 112930
L116350 112230
" />
<path d="M105239 112282
L105000 112282
L104977 112520
L105000 112496
L105048 112472
L105167 112472
L105215 112496
L105239 112520
L105262 112568
L105262 112687
L105239 112734
L105215 112758
L105167 112782
L105048 112782
L105000 112758
L104977 112734
" />
<path d="M138820 4000
L138820 4700
" />
<path d="M127685 4052
L127590 4052
L127542 4076
L127518 4100
L127470 4171
L127447 4266
L127447 4457
L127470 4504
L127494 4528
L127542 4552
L127637 4552
L127685 4528
L127709 4504
L127732 4457
L127732 4338
L127709 4290
L127685 4266
L127637 4242
L127542 4242
L127494 4266
L127470 4290
L127447 4338
" />
<path d="M138820 112930
L138820 112230
" />
<path d="M127685 112282
L127590 112282
L127542 112306
L127518 112330
L127470 112401
L127447 112496
L127447 112687
L127470 112734
L127494 112758
L127542 112782
L127637 112782
L127685 112758
L127709 112734
L127732 112687
L127732 112568
L127709 112520
L127685 112496
L127637 112472
L127542 112472
L127494 112496
L127470 112520
L127447 112568
" />
<path d="M149893 4052
L150226 4052
L150012 4552
" />
<path d="M149893 112282
L150226 112282
L150012 112782
" />
<path d="M4000 25780
L4700 25780
" />
<path d="M4230 14949
L4469 14949
" />
<path d="M4183 15092
L4350 14592
L4516 15092
" />
<path d="M161350 25780
L160650 25780
" />
<path d="M160880 14949
L161119 14949
" />
<path d="M160833 15092
L161000 14592
L161166 15092
" />
<path d="M4000 47560
L4700 47560
" />
<path d="M4385 36610
L4457 36634
L4480 36658
L4504 36705
L4504 36777
L4480 36824
L4457 36848
L4409 36872
L4219 36872
L4219 36372
L4385 36372
L4433 36396
L4457 36420
L4480 36467
L4480 36515
L4457 36562
L4433 36586
L4385 36610
L4219 36610
" />
<path d="M161350 47560
L160650 47560
" />
<path d="M161035 36610
L161107 36634
L161130 36658
L161154 36705
L161154 36777
L161130 36824
L161107 36848
L161059 36872
L160869 36872
L160869 36372
L161035 36372
L161083 36396
L161107 36420
L161130 36467
L161130 36515
L161107 36562
L161083 36586
L161035 36610
L160869 36610
" />
<path d="M4000 69340
L4700 69340
" />
<path d="M4504 58604
L4480 58628
L4409 58652
L4361 58652
L4290 58628
L4242 58580
L4219 58533
L4195 58438
L4195 58366
L4219 58271
L4242 58223
L4290 58176
L4361 58152
L4409 58152
L4480 58176
L4504 58200
" />
<path d="M161350 69340
L160650 69340
" />
<path d="M161154 58604
L161130 58628
L161059 58652
L161011 58652
L160940 58628
L160892 58580
L160869 58533
L160845 58438
L160845 58366
L160869 58271
L160892 58223
L160940 58176
L161011 58152
L161059 58152
L161130 58176
L161154 58200
" />
<path d="M4000 91120
L4700 91120
" />
<path d="M4219 80432
L4219 79932
L4338 79932
L4409 79956
L4457 80003
L4480 80051
L4504 80146
L4504 80218
L4480 80313
L4457 80360
L4409 80408
L4338 80432
L4219 80432
" />
<path d="M161350 91120
L160650 91120
" />
<path d="M160869 80432
L160869 79932
L160988 79932
L161059 79956
L161107 80003
L161130 80051
L161154 80146
L161154 80218
L161130 80313
L161107 80360
L161059 80408
L160988 80432
L160869 80432
" />
<path d="M4242 101950
L4409 101950
" />
<path d="M4480 102212
L4242 102212
L4242 101712
L4480 101712
" />
<path d="M160892 101950
L161059 101950
" />
<path d="M161130 102212
L160892 102212
L160892 101712
L161130 101712
" />
<path d="M127800 110672
L127875 110072
L128017 110072
L128100 110101
L128150 110158
L128171 110215
L128185 110330
L128175 110415
L128132 110530
L128096 110587
L128032 110644
L127942 110672
L127800 110672
" />
<path d="M128657 110672
L128696 110358
L128675 110301
L128621 110272
L128507 110272
L128446 110301
" />
<path d="M128660 110644
L128600 110672
L128457 110672
L128403 110644
L128382 110587
L128389 110530
L128425 110472
L128485 110444
L128628 110444
L128689 110415
" />
<path d="M128907 110272
L129135 110272
" />
<path d="M129017 110072
L128953 110587
L128975 110644
L129028 110672
L129085 110672
" />
<path d="M129517 110644
L129457 110672
L129342 110672
L129289 110644
L129267 110587
L129296 110358
L129332 110301
L129392 110272
L129507 110272
L129560 110301
L129582 110358
L129575 110415
L129282 110472
" />
<path d="M129807 110615
L129832 110644
L129800 110672
L129775 110644
L129807 110615
L129800 110672
" />
<path d="M129846 110301
L129871 110330
L129839 110358
L129814 110330
L129846 110301
L129839 110358
" />
<path d="M130582 110130
L130614 110101
L130675 110072
L130817 110072
L130871 110101
L130896 110130
L130917 110187
L130910 110244
L130871 110330
L130485 110672
L130857 110672
" />
<path d="M131828 110672
L131903 110072
" />
<path d="M131832 110644
L131771 110672
L131657 110672
L131603 110644
L131578 110615
L131557 110558
L131578 110387
L131614 110330
L131646 110301
L131707 110272
L131821 110272
L131875 110301
" />
<path d="M132346 110644
L132285 110672
L132171 110672
L132117 110644
L132096 110587
L132125 110358
L132160 110301
L132221 110272
L132335 110272
L132389 110301
L132410 110358
L132403 110415
L132110 110472
" />
<path d="M132889 110644
L132828 110672
L132714 110672
L132660 110644
L132635 110615
L132614 110558
L132635 110387
L132671 110330
L132703 110301
L132764 110272
L132878 110272
L132932 110301
" />
<path d="M133639 110130
L133671 110101
L133732 110072
L133875 110072
L133928 110101
L133953 110130
L133975 110187
L133967 110244
L133928 110330
L133542 110672
L133914 110672
" />
<path d="M134360 110072
L134417 110072
L134471 110101
L134496 110130
L134517 110187
L134532 110301
L134514 110444
L134471 110558
L134435 110615
L134403 110644
L134342 110672
L134285 110672
L134232 110644
L134207 110615
L134185 110558
L134171 110444
L134189 110301
L134232 110187
L134267 110130
L134300 110101
L134360 110072
" />
<path d="M135057 110672
L134714 110672
" />
<path d="M134885 110672
L134960 110072
L134892 110158
L134828 110215
L134767 110244
" />
<path d="M135332 110072
L135703 110072
L135475 110301
L135560 110301
L135614 110330
L135639 110358
L135660 110415
L135642 110558
L135607 110615
L135575 110644
L135514 110672
L135342 110672
L135289 110644
L135264 110615
" />
<path d="M119392 111872
L119392 111272
" />
<path d="M119735 111872
L119478 111530
" />
<path d="M119735 111272
L119392 111615
" />
<path d="M119992 111872
L119992 111472
" />
<path d="M119992 111272
L119964 111301
L119992 111330
L120021 111301
L119992 111272
L119992 111330
" />
<path d="M120621 111815
L120592 111844
L120507 111872
L120450 111872
L120364 111844
L120307 111787
L120278 111730
L120250 111615
L120250 111530
L120278 111415
L120307 111358
L120364 111301
L120450 111272
L120507 111272
L120592 111301
L120621 111330
" />
<path d="M121135 111872
L121135 111558
L121107 111501
L121050 111472
L120935 111472
L120878 111501
" />
<path d="M121135 111844
L121078 111872
L120935 111872
L120878 111844
L120850 111787
L120850 111730
L120878 111672
L120935 111644
L121078 111644
L121135 111615
" />
<path d="M121678 111872
L121678 111272
" />
<path d="M121678 111844
L121621 111872
L121507 111872
L121450 111844
L121421 111815
L121392 111758
L121392 111587
L121421 111530
L121450 111501
L121507 111472
L121621 111472
L121678 111501
" />
<path d="M122421 111558
L122621 111558
" />
<path d="M122707 111872
L122421 111872
L122421 111272
L122707 111272
" />
<path d="M122964 111815
L122992 111844
L122964 111872
L122935 111844
L122964 111815
L122964 111872
" />
<path d="M123249 111872
L123249 111272
L123392 111272
L123478 111301
L123535 111358
L123564 111415
L123592 111530
L123592 111615
L123564 111730
L123535 111787
L123478 111844
L123392 111872
L123249 111872
" />
<path d="M123849 111815
L123878 111844
L123849 111872
L123821 111844
L123849 111815
L123849 111872
" />
<path d="M124107 111701
L124392 111701
" />
<path d="M124049 111872
L124249 111272
L124449 111872
" />
<path d="M124649 111815
L124678 111844
L124649 111872
L124621 111844
L124649 111815
L124649 111872
" />
<path d="M152942 110672
L152778 110387
" />
<path d="M152600 110672
L152675 110072
L152903 110072
L152957 110101
L152982 110130
L153003 110187
L152992 110272
L152957 110330
L152925 110358
L152864 110387
L152635 110387
" />
<path d="M153432 110644
L153371 110672
L153257 110672
L153203 110644
L153182 110587
L153210 110358
L153246 110301
L153307 110272
L153421 110272
L153475 110301
L153496 110358
L153489 110415
L153196 110472
" />
<path d="M153707 110272
L153800 110672
L153992 110272
" />
<path d="M154178 110615
L154203 110644
L154171 110672
L154146 110644
L154178 110615
L154171 110672
" />
<path d="M154217 110301
L154242 110330
L154210 110358
L154185 110330
L154217 110301
L154210 110358
" />
<path d="M119364 110644
L119450 110672
L119592 110672
L119650 110644
L119678 110615
L119707 110558
L119707 110501
L119678 110444
L119650 110415
L119592 110387
L119478 110358
L119421 110330
L119392 110301
L119364 110244
L119364 110187
L119392 110130
L119421 110101
L119478 110072
L119621 110072
L119707 110101
" />
<path d="M119964 110672
L119964 110272
" />
<path d="M119964 110072
L119935 110101
L119964 110130
L119992 110101
L119964 110072
L119964 110130
" />
<path d="M120192 110272
L120507 110272
L120192 110672
L120507 110672
" />
<path d="M120964 110644
L120907 110672
L120792 110672
L120735 110644
L120707 110587
L120707 110358
L120735 110301
L120792 110272
L120907 110272
L120964 110301
L120992 110358
L120992 110415
L120707 110472
" />
<path d="M121250 110615
L121278 110644
L121250 110672
L121221 110644
L121250 110615
L121250 110672
" />
<path d="M121250 110301
L121278 110330
L121250 110358
L121221 110330
L121250 110301
L121250 110358
" />
<path d="M121964 110501
L122250 110501
" />
<path d="M121907 110672
L122107 110072
L122307 110672
" />
<path d="M122450 110072
L122821 110072
L122621 110301
L122707 110301
L122764 110330
L122792 110358
L122821 110415
L122821 110558
L122792 110615
L122764 110644
L122707 110672
L122535 110672
L122478 110644
L122450 110615
" />
<path d="M152592 111872
L152592 111272
" />
<path d="M153135 111872
L153135 111272
" />
<path d="M153135 111844
L153078 111872
L152964 111872
L152907 111844
L152878 111815
L152850 111758
L152850 111587
L152878 111530
L152907 111501
L152964 111472
L153078 111472
L153135 111501
" />
<path d="M153421 111815
L153450 111844
L153421 111872
L153392 111844
L153421 111815
L153421 111872
" />
<path d="M153421 111501
L153450 111530
L153421 111558
L153392 111530
L153421 111501
L153421 111558
" />
<path d="M154478 111872
L154135 111872
" />
<path d="M154307 111872
L154307 111272
L154249 111358
L154192 111415
L154135 111444
" />
<path d="M155164 111244
L154650 112015
" />
<path d="M155678 111872
L155335 111872
" />
<path d="M155507 111872
L155507 111272
L155449 111358
L155392 111415
L155335 111444
" />
<path d="M119389 108872
L119732 108872
" />
<path d="M119485 109472
L119560 108872
" />
<path d="M119857 109472
L119907 109072
" />
<path d="M119932 108872
L119900 108901
L119925 108930
L119957 108901
L119932 108872
L119925 108930
" />
<path d="M120107 109072
L120335 109072
" />
<path d="M120217 108872
L120153 109387
L120175 109444
L120228 109472
L120285 109472
" />
<path d="M120571 109472
L120517 109444
L120496 109387
L120560 108872
" />
<path d="M121032 109444
L120971 109472
L120857 109472
L120803 109444
L120782 109387
L120810 109158
L120846 109101
L120907 109072
L121021 109072
L121075 109101
L121096 109158
L121089 109215
L120796 109272
" />
<path d="M121321 109415
L121346 109444
L121314 109472
L121289 109444
L121321 109415
L121314 109472
" />
<path d="M121360 109101
L121385 109130
L121353 109158
L121328 109130
L121360 109101
L121353 109158
" />
<path d="M119592 106758
L119392 106758
" />
<path d="M119392 107072
L119392 106472
L119678 106472
" />
<path d="M119907 107072
L119907 106672
" />
<path d="M119907 106472
L119878 106501
L119907 106530
L119935 106501
L119907 106472
L119907 106530
" />
<path d="M120278 107072
L120221 107044
L120192 106987
L120192 106472
" />
<path d="M120735 107044
L120678 107072
L120564 107072
L120507 107044
L120478 106987
L120478 106758
L120507 106701
L120564 106672
L120678 106672
L120735 106701
L120764 106758
L120764 106815
L120478 106872
" />
<path d="M121021 107015
L121050 107044
L121021 107072
L120992 107044
L121021 107015
L121021 107072
" />
<path d="M121021 106701
L121050 106730
L121021 106758
L120992 106730
L121021 106701
L121021 106758
" />
<path d="M121678 106472
L122021 106472
" />
<path d="M121850 107072
L121850 106472
" />
<path d="M122221 107072
L122221 106472
" />
<path d="M122478 107072
L122478 106758
L122450 106701
L122392 106672
L122307 106672
L122250 106701
L122221 106730
" />
<path d="M122764 107072
L122764 106672
" />
<path d="M122764 106787
L122792 106730
L122821 106701
L122878 106672
L122935 106672
" />
<path d="M123364 107044
L123307 107072
L123192 107072
L123135 107044
L123107 106987
L123107 106758
L123135 106701
L123192 106672
L123307 106672
L123364 106701
L123392 106758
L123392 106815
L123107 106872
" />
<path d="M123878 107044
L123821 107072
L123707 107072
L123650 107044
L123621 106987
L123621 106758
L123650 106701
L123707 106672
L123821 106672
L123878 106701
L123907 106758
L123907 106815
L123621 106872
" />
<path d="M124164 106844
L124621 106844
" />
<path d="M124907 106672
L124907 107272
" />
<path d="M124907 106701
L124964 106672
L125078 106672
L125135 106701
L125164 106730
L125192 106787
L125192 106958
L125164 107015
L125135 107044
L125078 107072
L124964 107072
L124907 107044
" />
<path d="M125450 107072
L125450 106472
" />
<path d="M125707 107072
L125707 106758
L125678 106701
L125621 106672
L125535 106672
L125478 106701
L125450 106730
" />
<path d="M126250 107072
L126250 106758
L126221 106701
L126164 106672
L126050 106672
L125992 106701
" />
<path d="M126250 107044
L126192 107072
L126050 107072
L125992 107044
L125964 106987
L125964 106930
L125992 106872
L126050 106844
L126192 106844
L126250 106815
" />
<path d="M126507 107044
L126564 107072
L126678 107072
L126735 107044
L126764 106987
L126764 106958
L126735 106901
L126678 106872
L126592 106872
L126535 106844
L126507 106787
L126507 106758
L126535 106701
L126592 106672
L126678 106672
L126735 106701
" />
<path d="M127250 107044
L127192 107072
L127078 107072
L127021 107044
L126992 106987
L126992 106758
L127021 106701
L127078 106672
L127192 106672
L127250 106701
L127278 106758
L127278 106815
L126992 106872
" />
<path d="M127992 107072
L127992 106472
" />
<path d="M127992 106701
L128050 106672
L128164 106672
L128221 106701
L128250 106730
L128278 106787
L128278 106958
L128250 107015
L128221 107044
L128164 107072
L128050 107072
L127992 107044
" />
<path d="M128535 107072
L128535 106672
" />
<path d="M128535 106787
L128564 106730
L128592 106701
L128650 106672
L128707 106672
" />
<path d="M128907 107072
L128907 106672
" />
<path d="M128907 106472
L128878 106501
L128907 106530
L128935 106501
L128907 106472
L128907 106530
" />
<path d="M129450 107072
L129450 106472
" />
<path d="M129450 107044
L129392 107072
L129278 107072
L129221 107044
L129192 107015
L129164 106958
L129164 106787
L129192 106730
L129221 106701
L129278 106672
L129392 106672
L129450 106701
" />
<path d="M129992 106672
L129992 107158
L129964 107215
L129935 107244
L129878 107272
L129792 107272
L129735 107244
" />
<path d="M129992 107044
L129935 107072
L129821 107072
L129764 107044
L129735 107015
L129707 106958
L129707 106787
L129735 106730
L129764 106701
L129821 106672
L129935 106672
L129992 106701
" />
<path d="M130507 107044
L130450 107072
L130335 107072
L130278 107044
L130250 106987
L130250 106758
L130278 106701
L130335 106672
L130450 106672
L130507 106701
L130535 106758
L130535 106815
L130250 106872
" />
<path d="M130792 107015
L130821 107044
L130792 107072
L130764 107044
L130792 107015
L130792 107072
" />
<path d="M131078 107072
L131078 106472
" />
<path d="M131135 106844
L131307 107072
" />
<path d="M131307 106672
L131078 106901
" />
<path d="M131564 107072
L131564 106672
" />
<path d="M131564 106472
L131535 106501
L131564 106530
L131592 106501
L131564 106472
L131564 106530
" />
<path d="M132107 107044
L132050 107072
L131935 107072
L131878 107044
L131850 107015
L131821 106958
L131821 106787
L131850 106730
L131878 106701
L131935 106672
L132050 106672
L132107 106701
" />
<path d="M132621 107072
L132621 106758
L132592 106701
L132535 106672
L132421 106672
L132364 106701
" />
<path d="M132621 107044
L132564 107072
L132421 107072
L132364 107044
L132335 106987
L132335 106930
L132364 106872
L132421 106844
L132564 106844
L132621 106815
" />
<path d="M133164 107072
L133164 106472
" />
<path d="M133164 107044
L133107 107072
L132992 107072
L132935 107044
L132907 107015
L132878 106958
L132878 106787
L132907 106730
L132935 106701
L132992 106672
L133107 106672
L133164 106701
" />
<path d="M133307 107130
L133764 107130
" />
<path d="M133907 106672
L133907 107272
" />
<path d="M133907 106701
L133964 106672
L134078 106672
L134135 106701
L134164 106730
L134192 106787
L134192 106958
L134164 107015
L134135 107044
L134078 107072
L133964 107072
L133907 107044
" />
<path d="M134707 107044
L134650 107072
L134535 107072
L134478 107044
L134450 107015
L134421 106958
L134421 106787
L134450 106730
L134478 106701
L134535 106672
L134650 106672
L134707 106701
" />
<path d="M134964 107072
L134964 106472
" />
<path d="M134964 106701
L135021 106672
L135135 106672
L135192 106701
L135221 106730
L135250 106787
L135250 106958
L135221 107015
L135192 107044
L135135 107072
L135021 107072
L134964 107044
" />
<path d="M119364 108244
L119450 108272
L119592 108272
L119650 108244
L119678 108215
L119707 108158
L119707 108101
L119678 108044
L119650 108015
L119592 107987
L119478 107958
L119421 107930
L119392 107901
L119364 107844
L119364 107787
L119392 107730
L119421 107701
L119478 107672
L119621 107672
L119707 107701
" />
<path d="M119964 108272
L119964 107672
" />
<path d="M120221 108272
L120221 107958
L120192 107901
L120135 107872
L120050 107872
L119992 107901
L119964 107930
" />
<path d="M120735 108244
L120678 108272
L120564 108272
L120507 108244
L120478 108187
L120478 107958
L120507 107901
L120564 107872
L120678 107872
L120735 107901
L120764 107958
L120764 108015
L120478 108072
" />
<path d="M121250 108244
L121192 108272
L121078 108272
L121021 108244
L120992 108187
L120992 107958
L121021 107901
L121078 107872
L121192 107872
L121250 107901
L121278 107958
L121278 108015
L120992 108072
" />
<path d="M121450 107872
L121678 107872
" />
<path d="M121535 107672
L121535 108187
L121564 108244
L121621 108272
L121678 108272
" />
<path d="M121878 108215
L121907 108244
L121878 108272
L121850 108244
L121878 108215
L121878 108272
" />
<path d="M121878 107901
L121907 107930
L121878 107958
L121850 107930
L121878 107901
L121878 107958
" />
<path d="M118650 106230
L118650 112230
" />
<path d="M118650 106230
L160650 106230
" />
<path d="M118650 106230
L160650 106230
" />
<path d="M118650 108630
L160650 108630
" />
<path d="M151850 109830
L151850 112230
" />
<path d="M118650 111030
L160650 111030
" />
<path d="M118650 109830
L160650 109830
" />
<path d="M125250 109830
L125250 111030
" />
</g>
<g style="fill:#FFFF00; fill-opacity:0.0; 
stroke:#FFFF00; stroke-width:39.3701; stroke-opacity:1; 
stroke-linecap:round; stroke-linejoin:round;">
<path d="M112800 22700
L89500 22700
" />
<path d="M112800 84400
L112800 22700
" />
<path d="M52100 84400
L112800 84400
" />
<path d="M52100 22700
L52100 84400
" />
<path d="M89600 22700
L52100 22700
" />
<path d="M-49500 -42600
L-49500 -42300
" />
</g>
<g style="fill:#A000A0; fill-opacity:0.0; 
stroke:#A000A0; stroke-width:80; stroke-opacity:1; 
stroke-linecap:round; stroke-linejoin:round;">
<path d="M79423 35822
L79590 35560
" />
<path d="M79709 35822
L79709 35272
L79519 35272
L79471 35298
L79447 35325
L79423 35377
L79423 35455
L79447 35508
L79471 35534
L79519 35560
L79709 35560
" />
<path d="M79328 35875
L78947 35875
" />
<path d="M78852 35796
L78780 35822
L78661 35822
L78614 35796
L78590 35770
L78566 35717
L78566 35665
L78590 35613
L78614 35586
L78661 35560
L78757 35534
L78804 35508
L78828 35482
L78852 35429
L78852 35377
L78828 35325
L78804 35298
L78757 35272
L78638 35272
L78566 35298
" />
<path d="M78352 35822
L78352 35272
" />
<path d="M78138 35822
L78138 35534
L78161 35482
L78209 35455
L78280 35455
L78328 35482
L78352 35508
" />
<path d="M77685 35455
L77685 35822
" />
<path d="M77900 35455
L77900 35744
L77876 35796
L77828 35822
L77757 35822
L77709 35796
L77685 35770
" />
<path d="M77447 35455
L77447 35822
" />
<path d="M77447 35508
L77423 35482
L77376 35455
L77304 35455
L77257 35482
L77233 35534
L77233 35822
" />
<path d="M77066 35455
L76876 35455
" />
<path d="M76995 35272
L76995 35744
L76971 35796
L76923 35822
L76876 35822
" />
<path d="M76828 35875
L76447 35875
" />
<path d="M76066 35822
L76352 35822
" />
<path d="M76209 35822
L76209 35272
L76257 35351
L76304 35403
L76352 35429
" />
<path d="M80319 34372
L80271 34372
L80223 34398
L80200 34425
L80176 34477
L80152 34582
L80152 34713
L80176 34817
L80200 34870
L80223 34896
L80271 34922
L80319 34922
L80366 34896
L80390 34870
L80414 34817
L80438 34713
L80438 34582
L80414 34477
L80390 34425
L80366 34398
L80319 34372
" />
<path d="M79938 34870
L79914 34896
L79938 34922
L79961 34896
L79938 34870
L79938 34922
" />
<path d="M79604 34372
L79557 34372
L79509 34398
L79485 34425
L79461 34477
L79438 34582
L79438 34713
L79461 34817
L79485 34870
L79509 34896
L79557 34922
L79604 34922
L79652 34896
L79676 34870
L79700 34817
L79723 34713
L79723 34582
L79700 34477
L79676 34425
L79652 34398
L79604 34372
" />
<path d="M78985 34372
L79223 34372
L79247 34634
L79223 34608
L79176 34582
L79057 34582
L79009 34608
L78985 34634
L78961 34686
L78961 34817
L78985 34870
L79009 34896
L79057 34922
L79176 34922
L79223 34896
L79247 34870
" />
<path d="M79023 48422
L79190 48160
" />
<path d="M79309 48422
L79309 47872
L79119 47872
L79071 47898
L79047 47925
L79023 47977
L79023 48055
L79047 48108
L79071 48134
L79119 48160
L79309 48160
" />
<path d="M78928 48475
L78547 48475
" />
<path d="M78452 48396
L78380 48422
L78261 48422
L78214 48396
L78190 48370
L78166 48317
L78166 48265
L78190 48213
L78214 48186
L78261 48160
L78357 48134
L78404 48108
L78428 48082
L78452 48029
L78452 47977
L78428 47925
L78404 47898
L78357 47872
L78238 47872
L78166 47898
" />
<path d="M77952 48422
L77952 47872
" />
<path d="M77738 48422
L77738 48134
L77761 48082
L77809 48055
L77880 48055
L77928 48082
L77952 48108
" />
<path d="M77285 48055
L77285 48422
" />
<path d="M77500 48055
L77500 48344
L77476 48396
L77428 48422
L77357 48422
L77309 48396
L77285 48370
" />
<path d="M77047 48055
L77047 48422
" />
<path d="M77047 48108
L77023 48082
L76976 48055
L76904 48055
L76857 48082
L76833 48134
L76833 48422
" />
<path d="M76666 48055
L76476 48055
" />
<path d="M76595 47872
L76595 48344
L76571 48396
L76523 48422
L76476 48422
" />
<path d="M76428 48475
L76047 48475
" />
<path d="M75952 47925
L75928 47898
L75880 47872
L75761 47872
L75714 47898
L75690 47925
L75666 47977
L75666 48029
L75690 48108
L75976 48422
L75666 48422
" />
<path d="M79919 46972
L79871 46972
L79823 46998
L79800 47025
L79776 47077
L79752 47182
L79752 47313
L79776 47417
L79800 47470
L79823 47496
L79871 47522
L79919 47522
L79966 47496
L79990 47470
L80014 47417
L80038 47313
L80038 47182
L80014 47077
L79990 47025
L79966 46998
L79919 46972
" />
<path d="M79538 47470
L79514 47496
L79538 47522
L79561 47496
L79538 47470
L79538 47522
" />
<path d="M79204 46972
L79157 46972
L79109 46998
L79085 47025
L79061 47077
L79038 47182
L79038 47313
L79061 47417
L79085 47470
L79109 47496
L79157 47522
L79204 47522
L79252 47496
L79276 47470
L79300 47417
L79323 47313
L79323 47182
L79300 47077
L79276 47025
L79252 46998
L79204 46972
" />
<path d="M78585 46972
L78823 46972
L78847 47234
L78823 47208
L78776 47182
L78657 47182
L78609 47208
L78585 47234
L78561 47286
L78561 47417
L78585 47470
L78609 47496
L78657 47522
L78776 47522
L78823 47496
L78847 47470
" />
<path d="M89904 33792
L89847 33811
L89752 33811
L89714 33792
L89695 33773
L89676 33735
L89676 33697
L89695 33659
L89714 33640
L89752 33621
L89828 33602
L89866 33583
L89885 33564
L89904 33526
L89904 33488
L89885 33450
L89866 33430
L89828 33411
L89733 33411
L89676 33430
" />
<path d="M89295 33811
L89523 33811
" />
<path d="M89409 33811
L89409 33411
L89447 33469
L89485 33507
L89523 33526
" />
<path d="M94342 37411
L94342 37011
" />
<path d="M93923 37411
L94057 37221
" />
<path d="M94152 37411
L94152 37011
L94000 37011
L93961 37030
L93942 37050
L93923 37088
L93923 37145
L93942 37183
L93961 37202
L94000 37221
L94152 37221
" />
<path d="M93619 37202
L93752 37202
" />
<path d="M93752 37411
L93752 37011
L93561 37011
" />
<path d="M93200 37411
L93428 37411
" />
<path d="M93314 37411
L93314 37011
L93352 37069
L93390 37107
L93428 37126
" />
<path d="M92952 37011
L92914 37011
L92876 37030
L92857 37050
L92838 37088
L92819 37164
L92819 37259
L92838 37335
L92857 37373
L92876 37392
L92914 37411
L92952 37411
L92990 37392
L93009 37373
L93028 37335
L93047 37259
L93047 37164
L93028 37088
L93009 37050
L92990 37030
L92952 37011
" />
<path d="M92438 37411
L92666 37411
" />
<path d="M92552 37411
L92552 37011
L92590 37069
L92628 37107
L92666 37126
" />
<path d="M92190 37011
L92152 37011
L92114 37030
L92095 37050
L92076 37088
L92057 37164
L92057 37259
L92076 37335
L92095 37373
L92114 37392
L92152 37411
L92190 37411
L92228 37392
L92247 37373
L92266 37335
L92285 37259
L92285 37164
L92266 37088
L92247 37050
L92228 37030
L92190 37011
" />
<path d="M91885 37411
L91885 37011
L91657 37411
L91657 37011
" />
<path d="M89804 48942
L89747 48961
L89652 48961
L89614 48942
L89595 48923
L89576 48885
L89576 48847
L89595 48809
L89614 48790
L89652 48771
L89728 48752
L89766 48733
L89785 48714
L89804 48676
L89804 48638
L89785 48600
L89766 48580
L89728 48561
L89633 48561
L89576 48580
" />
<path d="M89442 48561
L89195 48561
L89328 48714
L89271 48714
L89233 48733
L89214 48752
L89195 48790
L89195 48885
L89214 48923
L89233 48942
L89271 48961
L89385 48961
L89423 48942
L89442 48923
" />
<path d="M94242 52561
L94242 52161
" />
<path d="M93823 52561
L93957 52371
" />
<path d="M94052 52561
L94052 52161
L93900 52161
L93861 52180
L93842 52200
L93823 52238
L93823 52295
L93842 52333
L93861 52352
L93900 52371
L94052 52371
" />
<path d="M93519 52352
L93652 52352
" />
<path d="M93652 52561
L93652 52161
L93461 52161
" />
<path d="M93100 52561
L93328 52561
" />
<path d="M93214 52561
L93214 52161
L93252 52219
L93290 52257
L93328 52276
" />
<path d="M92852 52161
L92814 52161
L92776 52180
L92757 52200
L92738 52238
L92719 52314
L92719 52409
L92738 52485
L92757 52523
L92776 52542
L92814 52561
L92852 52561
L92890 52542
L92909 52523
L92928 52485
L92947 52409
L92947 52314
L92928 52238
L92909 52200
L92890 52180
L92852 52161
" />
<path d="M92338 52561
L92566 52561
" />
<path d="M92452 52561
L92452 52161
L92490 52219
L92528 52257
L92566 52276
" />
<path d="M92090 52161
L92052 52161
L92014 52180
L91995 52200
L91976 52238
L91957 52314
L91957 52409
L91976 52485
L91995 52523
L92014 52542
L92052 52561
L92090 52561
L92128 52542
L92147 52523
L92166 52485
L92185 52409
L92185 52314
L92166 52238
L92147 52200
L92128 52180
L92090 52161
" />
<path d="M91785 52561
L91785 52161
L91557 52561
L91557 52161
" />
<path d="M89804 64342
L89747 64361
L89652 64361
L89614 64342
L89595 64323
L89576 64285
L89576 64247
L89595 64209
L89614 64190
L89652 64171
L89728 64152
L89766 64133
L89785 64114
L89804 64076
L89804 64038
L89785 64000
L89766 63980
L89728 63961
L89633 63961
L89576 63980
" />
<path d="M89214 63961
L89404 63961
L89423 64152
L89404 64133
L89366 64114
L89271 64114
L89233 64133
L89214 64152
L89195 64190
L89195 64285
L89214 64323
L89233 64342
L89271 64361
L89366 64361
L89404 64342
L89423 64323
" />
<path d="M94242 67961
L94242 67561
" />
<path d="M93823 67961
L93957 67771
" />
<path d="M94052 67961
L94052 67561
L93900 67561
L93861 67580
L93842 67600
L93823 67638
L93823 67695
L93842 67733
L93861 67752
L93900 67771
L94052 67771
" />
<path d="M93519 67752
L93652 67752
" />
<path d="M93652 67961
L93652 67561
L93461 67561
" />
<path d="M93100 67961
L93328 67961
" />
<path d="M93214 67961
L93214 67561
L93252 67619
L93290 67657
L93328 67676
" />
<path d="M92852 67561
L92814 67561
L92776 67580
L92757 67600
L92738 67638
L92719 67714
L92719 67809
L92738 67885
L92757 67923
L92776 67942
L92814 67961
L92852 67961
L92890 67942
L92909 67923
L92928 67885
L92947 67809
L92947 67714
L92928 67638
L92909 67600
L92890 67580
L92852 67561
" />
<path d="M92338 67961
L92566 67961
" />
<path d="M92452 67961
L92452 67561
L92490 67619
L92528 67657
L92566 67676
" />
<path d="M92090 67561
L92052 67561
L92014 67580
L91995 67600
L91976 67638
L91957 67714
L91957 67809
L91976 67885
L91995 67923
L92014 67942
L92052 67961
L92090 67961
L92128 67942
L92147 67923
L92166 67885
L92185 67809
L92185 67714
L92166 67638
L92147 67600
L92128 67580
L92090 67561
" />
<path d="M91785 67961
L91785 67561
L91557 67961
L91557 67561
" />
</g>
<g style="fill:#A000A0; fill-opacity:0.0; 
stroke:#A000A0; stroke-width:120; stroke-opacity:1; 
stroke-linecap:round; stroke-linejoin:round;">
<path d="M86700 35200
L86700 35200
" />
<path d="M86700 35200
L86700 35200
" />
<path d="M71450 35200
L70700 35200
" />
<path d="M70700 35200
L70700 35200
" />
<path d="M71500 36800
L85950 36800
" />
<path d="M85950 33500
L71500 33500
" />
<path d="M71500 33500
L71500 36800
" />
<path d="M85950 33500
L85950 36800
" />
<path d="M86700 35200
L85950 35200
" />
<path d="M86300 47800
L86300 47800
" />
<path d="M86300 47800
L86300 47800
" />
<path d="M71050 47800
L70300 47800
" />
<path d="M70300 47800
L70300 47800
" />
<path d="M71100 49400
L85550 49400
" />
<path d="M85550 46100
L71100 46100
" />
<path d="M71100 46100
L71100 49400
" />
<path d="M85550 46100
L85550 49400
" />
<path d="M86300 47800
L85550 47800
" />
</g>
<g style="fill:#A000A0; fill-opacity:0.0; 
stroke:#A000A0; stroke-width:59.0551; stroke-opacity:1; 
stroke-linecap:round; stroke-linejoin:round;">
<path d="M82200 43850
L82200 28650
" />
<path d="M82200 28650
L97400 28650
" />
<path d="M97400 28650
L97400 43850
" />
<path d="M82200 43850
L97400 43850
" />
<path d="M89400 40050
L89300 40050
" />
</g>
<g style="fill:#A000A0; fill-opacity:0.0; 
stroke:#A000A0; stroke-width:120; stroke-opacity:1; 
stroke-linecap:round; stroke-linejoin:round;">
<path d="M89800 37250
L91800 37250
" />
<path d="M89800 36250
L91800 36250
" />
<path d="M89800 35250
L91800 35250
" />
<path d="M91800 34250
L97800 34250
" />
<path d="M97800 34250
L97800 38250
" />
<path d="M97800 38250
L91800 38250
" />
<path d="M91800 38250
L91800 34250
" />
<path d="M94800 34750
L94800 38250
" />
<path d="M94800 34750
L94800 34250
" />
</g>
<g style="fill:#A000A0; fill-opacity:0.0; 
stroke:#A000A0; stroke-width:59.0551; stroke-opacity:1; 
stroke-linecap:round; stroke-linejoin:round;">
<path d="M82100 59000
L82100 43800
" />
<path d="M82100 43800
L97300 43800
" />
<path d="M97300 43800
L97300 59000
" />
<path d="M82100 59000
L97300 59000
" />
<path d="M89300 55200
L89200 55200
" />
</g>
<g style="fill:#A000A0; fill-opacity:0.0; 
stroke:#A000A0; stroke-width:120; stroke-opacity:1; 
stroke-linecap:round; stroke-linejoin:round;">
<path d="M89700 52400
L91700 52400
" />
<path d="M89700 51400
L91700 51400
" />
<path d="M89700 50400
L91700 50400
" />
<path d="M91700 49400
L97700 49400
" />
<path d="M97700 49400
L97700 53400
" />
<path d="M97700 53400
L91700 53400
" />
<path d="M91700 53400
L91700 49400
" />
<path d="M94700 49900
L94700 53400
" />
<path d="M94700 49900
L94700 49400
" />
</g>
<g style="fill:#A000A0; fill-opacity:0.0; 
stroke:#A000A0; stroke-width:59.0551; stroke-opacity:1; 
stroke-linecap:round; stroke-linejoin:round;">
<path d="M82100 74400
L82100 59200
" />
<path d="M82100 59200
L97300 59200
" />
<path d="M97300 59200
L97300 74400
" />
<path d="M82100 74400
L97300 74400
" />
<path d="M89300 70600
L89200 70600
" />
</g>
<g style="fill:#A000A0; fill-opacity:0.0; 
stroke:#A000A0; stroke-width:120; stroke-opacity:1; 
stroke-linecap:round; stroke-linejoin:round;">
<path d="M89700 67800
L91700 67800
" />
<path d="M89700 66800
L91700 66800
" />
<path d="M89700 65800
L91700 65800
" />
<path d="M91700 64800
L97700 64800
" />
<path d="M97700 64800
L97700 68800
" />
<path d="M97700 68800
L91700 68800
" />
<path d="M91700 68800
L91700 64800
" />
<path d="M94700 65300
L94700 68800
" />
<path d="M94700 65300
L94700 64800
" />
</g>
<g style="fill:#808000; fill-opacity:0.0; 
stroke:#808000; stroke-width:39.3701; stroke-opacity:1; 
stroke-linecap:round; stroke-linejoin:round;">
</g>
<g style="fill:#808000; fill-opacity:1.0; 
stroke:#808000; stroke-width:39.3701; stroke-opacity:1; 
stroke-linecap:round; stroke-linejoin:round;">
<circle cx="86700" cy="35200" r="330.315" /> 
<circle cx="70700" cy="35200" r="330.315" /> 
<circle cx="86300" cy="47800" r="330.315" /> 
<circle cx="70300" cy="47800" r="330.315" /> 
<polyline style="fill-rule:evenodd;"
points="89469,35580
89469,34919
90130,34919
90130,35580
89469,35580
" /> 
<circle cx="89800" cy="37250" r="330.315" /> 
<circle cx="89800" cy="36250" r="330.315" /> 
<polyline style="fill-rule:evenodd;"
points="94569,37980
94569,34519
98030,34519
98030,37980
94569,37980
" /> 
<polyline style="fill-rule:evenodd;"
points="94469,42730
94469,39269
97930,39269
97930,42730
94469,42730
" /> 
<polyline style="fill-rule:evenodd;"
points="89369,50730
89369,50069
90030,50069
90030,50730
89369,50730
" /> 
<circle cx="89700" cy="52400" r="330.315" /> 
<circle cx="89700" cy="51400" r="330.315" /> 
<polyline style="fill-rule:evenodd;"
points="94469,53130
94469,49669
97930,49669
97930,53130
94469,53130
" /> 
<polyline style="fill-rule:evenodd;"
points="94469,57930
94469,54469
97930,54469
97930,57930
94469,57930
" /> 
<polyline style="fill-rule:evenodd;"
points="89369,66130
89369,65469
90030,65469
90030,66130
89369,66130
" /> 
<circle cx="89700" cy="67800" r="330.315" /> 
<circle cx="89700" cy="66800" r="330.315" /> 
<polyline style="fill-rule:evenodd;"
points="94469,68530
94469,65069
97930,65069
97930,68530
94469,68530
" /> 
<polyline style="fill-rule:evenodd;"
points="94469,73130
94469,69669
97930,69669
97930,73130
94469,73130
" /> 
</g> 
</svg>
