<?xml version="1.0" encoding="UTF-8" standalone="no"?>
<!-- Created with Inkscape (http://www.inkscape.org/) -->

<svg
   xmlns:dc="http://purl.org/dc/elements/1.1/"
   xmlns:cc="http://creativecommons.org/ns#"
   xmlns:rdf="http://www.w3.org/1999/02/22-rdf-syntax-ns#"
   xmlns:svg="http://www.w3.org/2000/svg"
   xmlns="http://www.w3.org/2000/svg"
   xmlns:sodipodi="http://sodipodi.sourceforge.net/DTD/sodipodi-0.dtd"
   xmlns:inkscape="http://www.inkscape.org/namespaces/inkscape"
   width="744.09448819"
   height="1052.3622047"
   id="svg3149"
   version="1.1"
   inkscape:version="0.48.4 r9939"
   sodipodi:docname="drawing.pdf">
  <defs
     id="defs3151" />
  <sodipodi:namedview
     id="base"
     pagecolor="#ffffff"
     bordercolor="#666666"
     borderopacity="1.0"
     inkscape:pageopacity="0.0"
     inkscape:pageshadow="2"
     inkscape:zoom="5.6"
     inkscape:cx="97.133268"
     inkscape:cy="765.3776"
     inkscape:document-units="px"
     inkscape:current-layer="layer1"
     showgrid="true"
     inkscape:window-width="1920"
     inkscape:window-height="1026"
     inkscape:window-x="1366"
     inkscape:window-y="32"
     inkscape:window-maximized="1">
    <inkscape:grid
       type="xygrid"
       id="grid3193" />
  </sodipodi:namedview>
  <metadata
     id="metadata3154">
    <rdf:RDF>
      <cc:Work
         rdf:about="">
        <dc:format>image/svg+xml</dc:format>
        <dc:type
           rdf:resource="http://purl.org/dc/dcmitype/StillImage" />
        <dc:title></dc:title>
      </cc:Work>
    </rdf:RDF>
  </metadata>
  <g
     inkscape:label="Layer 1"
     inkscape:groupmode="layer"
     id="layer1">
    <path
       id="path3157-4-4-8"
       transform="matrix(0.03187929,0,0,0.0334511,64.672362,290.23609)"
       style="fill:none;stroke:#000000;stroke-width:2.75602395;stroke-miterlimit:4;stroke-opacity:1;stroke-dasharray:none"
       d="m 468.57144,223.79076 c 0,85.20965 -71.63444,154.28572 -160,154.28572 -88.36556,0 -160,-69.07607 -160,-154.28572 0,-85.20965 71.63444,-154.285725 160,-154.285725 88.36556,0 160,69.076075 160,154.285725 z m -828.04975,0 c 0,85.20965 -71.63444,154.28572 -160,154.28572 -88.36556,0 -160,-69.07607 -160,-154.28572 0,-85.20965 71.63444,-154.285725 160,-154.285725 88.36556,0 160,69.076075 160,154.285725 z M 468.57144,-1047.3088 c 0,85.2096 -71.63444,154.28567 -160,154.28567 -88.36556,0 -160,-69.07607 -160,-154.28567 0,-85.2097 71.63444,-154.2858 160,-154.2858 88.36556,0 160,69.0761 160,154.2858 z m -1461.46708,-1092.4181 21964.74464,0 0,3357.8656 -21964.74464,0 z m 633.41733,1092.4181 c 0,85.2096 -71.63444,154.28567 -160,154.28567 -88.36556,0 -160,-69.07607 -160,-154.28567 0,-85.2097 71.63444,-154.2858 160,-154.2858 88.36556,0 160,69.0761 160,154.2858 z" />
  </g>
</svg>
