<?xml version="1.0" encoding="UTF-8" standalone="no"?>
<!-- Created with Inkscape (http://www.inkscape.org/) -->

<svg
   xmlns:dc="http://purl.org/dc/elements/1.1/"
   xmlns:cc="http://creativecommons.org/ns#"
   xmlns:rdf="http://www.w3.org/1999/02/22-rdf-syntax-ns#"
   xmlns:svg="http://www.w3.org/2000/svg"
   xmlns="http://www.w3.org/2000/svg"
   xmlns:sodipodi="http://sodipodi.sourceforge.net/DTD/sodipodi-0.dtd"
   xmlns:inkscape="http://www.inkscape.org/namespaces/inkscape"
   width="744.09448819"
   height="1052.3622047"
   id="svg2"
   version="1.1"
   inkscape:version="0.48.4 r9939"
   sodipodi:docname="holes_final_100mm.svg">
  <defs
     id="defs4" />
  <sodipodi:namedview
     id="base"
     pagecolor="#ffffff"
     bordercolor="#666666"
     borderopacity="1.0"
     inkscape:pageopacity="0.0"
     inkscape:pageshadow="2"
     inkscape:zoom="1.4"
     inkscape:cx="374.60511"
     inkscape:cy="918.72947"
     inkscape:document-units="px"
     inkscape:current-layer="layer1"
     showgrid="true"
     inkscape:window-width="1366"
     inkscape:window-height="714"
     inkscape:window-x="0"
     inkscape:window-y="32"
     inkscape:window-maximized="1">
    <inkscape:grid
       type="xygrid"
       id="grid2985" />
  </sodipodi:namedview>
  <metadata
     id="metadata7">
    <rdf:RDF>
      <cc:Work
         rdf:about="">
        <dc:format>image/svg+xml</dc:format>
        <dc:type
           rdf:resource="http://purl.org/dc/dcmitype/StillImage" />
        <dc:title></dc:title>
      </cc:Work>
    </rdf:RDF>
  </metadata>
  <g
     inkscape:label="Layer 1"
     inkscape:groupmode="layer"
     id="layer1">
    <path
       id="path2987-0-5"
       style="fill:none;stroke:#000000;stroke-width:0.09;stroke-miterlimit:4;stroke-opacity:1"
       d="m 45.239666,14.988423 c 0,2.93985 -2.379589,5.323071 -5.314961,5.323071 -2.935373,0 -5.314962,-2.383221 -5.314962,-5.323071 0,-2.939851 2.379589,-5.3230714 5.314962,-5.3230714 2.935372,0 5.314961,2.3832204 5.314961,5.3230714 z m -26.574803,0 c 0,2.93985 -2.379589,5.323071 -5.314962,5.323071 -2.935373,0 -5.3149601,-2.383221 -5.3149601,-5.323071 0,-2.939851 2.3795871,-5.3230714 5.3149601,-5.3230714 2.935373,0 5.314962,2.3832204 5.314962,5.3230714 z m 26.574804,39.862204 c 0,2.939851 -2.379589,5.323071 -5.314961,5.323071 -2.935373,0 -5.314962,-2.38322 -5.314962,-5.323071 0,-2.939851 2.379589,-5.323071 5.314962,-5.323071 2.935372,0 5.314961,2.38322 5.314961,5.323071 z m -26.574803,0 c 0,2.939851 -2.379589,5.323071 -5.314962,5.323071 -2.935373,0 -5.3149602,-2.38322 -5.3149602,-5.323071 0,-2.939851 2.3795872,-5.323071 5.3149602,-5.323071 2.935373,0 5.314962,2.38322 5.314962,5.323071 z"
       inkscape:connector-curvature="0" />
    <rect
       style="fill:none;stroke:#000000;stroke-width:0.06365822;stroke-miterlimit:4;stroke-opacity:1;stroke-dasharray:none"
       id="rect3809"
       width="354.26212"
       height="79.434311"
       x="0.31002897"
       y="-4.7468724" />
  </g>
</svg>
