M48
INCH,TZ
T1C0.025
T2C0.032
T3C0.040
T4C0.041
T5C0.047
T6C0.113
T7C0.120
T8C0.140
%
G90
G05
T1
X21200Y-34200
X22400Y-35150
X22450Y-31300
X22850Y-33850
X23300Y-32800
X23300Y-35900
X23800Y-36750
X23850Y-35100
X25100Y-32050
X25150Y-34150
X25900Y-33300
X26350Y-36750
X27425Y-33850
X29250Y-36750
X31500Y-36750
X32400Y-32060
X33550Y-33450
X34300Y-36700
X34450Y-28450
X35350Y-26450
X35750Y-29050
X36000Y-31150
X36900Y-28700
X38350Y-32850
X38350Y-34100
X39750Y-18800
X39750Y-21600
X39750Y-23750
X39900Y-30050
X40300Y-18400
X40600Y-20400
X40800Y-30400
X41800Y-29000
X41900Y-24000
X42025Y-19675
X42200Y-30400
X42850Y-19850
X43450Y-24550
X43700Y-22300
X43700Y-23600
X43900Y-25300
X44100Y-31200
X44100Y-32000
X44100Y-32650
X44250Y-18350
X45450Y-31550
X45800Y-24150
X45800Y-29000
X46000Y-19700
X46050Y-26975
X46050Y-29900
X46100Y-24750
X46100Y-25950
X46200Y-30750
X46450Y-28950
X46500Y-30200
X46550Y-18250
X46650Y-23950
X47000Y-19700
X47000Y-30650
X47400Y-23950
X47500Y-28900
T2
X25000Y-23400
X25000Y-25400
T3
X14700Y-15200
X14700Y-16200
X14700Y-17200
X14700Y-18200
X14700Y-19200
X14700Y-20200
X14700Y-21200
X14700Y-22200
X14700Y-23200
X14700Y-24200
X14700Y-25200
X14700Y-26200
X14700Y-27200
X14700Y-28200
X14700Y-29200
X14700Y-30200
X14700Y-31200
X14700Y-32200
X14700Y-33200
X14700Y-34200
X14700Y-35200
X14700Y-36200
X14700Y-37200
X14700Y-38200
X14700Y-39200
X15700Y-15200
X15700Y-16200
X15700Y-17200
X15700Y-18200
X15700Y-19200
X15700Y-20200
X15700Y-21200
X15700Y-22200
X15700Y-23200
X15700Y-24200
X15700Y-25200
X15700Y-26200
X15700Y-27200
X15700Y-28200
X15700Y-29200
X15700Y-30200
X15700Y-31200
X15700Y-32200
X15700Y-33200
X15700Y-34200
X15700Y-35200
X15700Y-36200
X15700Y-37200
X15700Y-38200
X15700Y-39200
X20200Y-15200
X20200Y-16200
X20200Y-17200
X20200Y-18200
X20200Y-19200
X20200Y-20200
X20200Y-21200
X20200Y-22200
X20200Y-23200
X20200Y-24200
X20200Y-25200
X20200Y-26200
X20200Y-27200
X20200Y-28200
X20200Y-29200
X20200Y-30200
X20200Y-31200
X20200Y-32200
X20200Y-33200
X20200Y-34200
X20200Y-35200
X20200Y-36200
X20200Y-37200
X20200Y-38200
X20200Y-39200
X21200Y-15200
X21200Y-16200
X21200Y-17200
X21200Y-18200
X21200Y-19200
X21200Y-20200
X21200Y-21200
X21200Y-22200
X21200Y-23200
X21200Y-24200
X21200Y-25200
X21200Y-26200
X21200Y-27200
X21200Y-28200
X21200Y-29200
X21200Y-30200
X21200Y-31200
X21200Y-32200
X21200Y-33200
X21200Y-34200
X21200Y-35200
X21200Y-36200
X21200Y-37200
X21200Y-38200
X21200Y-39200
X25450Y-30700
X26450Y-30700
X27450Y-30700
X33300Y-17450
X34300Y-17450
X35300Y-17450
X40600Y-25300
X40600Y-26300
X40800Y-33400
X40800Y-34400
X41600Y-25300
X41600Y-26300
X41800Y-33400
X41800Y-34400
X42600Y-25300
X42600Y-26300
X42800Y-33400
X42800Y-34400
T4
X33100Y-20850
X33100Y-21850
X33100Y-22850
T5
X39460Y-14200
X40838Y-14200
X42216Y-14200
X43594Y-14200
X44972Y-14200
X46350Y-14200
T6
X17820Y-12782
X24596Y-39160
X36300Y-12936
X46382Y-39200
T7
X24589Y-15750
X25869Y-17640
T8
X27050Y-15750
T0
M30
