<?xml version="1.0" standalone="no"?>
 <!DOCTYPE svg PUBLIC "-//W3C//DTD SVG 1.1//EN" 
 "http://www.w3.org/Graphics/SVG/1.1/DTD/svg11.dtd"> 
<svg xmlns="http://www.w3.org/2000/svg" version="1.1" 
    width="15.08cm" height="15.0393cm" viewBox="0 0 59370 59210 ">
<title>SVG Picture created as AD2S1210_AD8662-F_Paste.svg date 2014/07/05 01:46:28 </title>
  <desc>Picture generated by PCBNEW </desc>
<g style="fill:#000000; fill-opacity:1;stroke:#000000; stroke-opacity:1;
stroke-linecap:round; stroke-linejoin:round; "
 transform="translate(0 0) scale(1 1)">
</g>
<g style="fill:#000000; fill-opacity:0.0; 
stroke:#000000; stroke-width:39.3701; stroke-opacity:1; 
stroke-linecap:round; stroke-linejoin:round;">
<path d="M4000 4000
L55370 4000
L55370 55210
L4000 55210
L4000 4000
" />
<path d="M4700 4700
L54670 4700
L54670 54510
L4700 54510
L4700 4700
" />
<path d="M29680 4000
L29680 4700
" />
<path d="M16982 4552
L16697 4552
" />
<path d="M16840 4552
L16840 4052
L16792 4123
L16744 4171
L16697 4195
" />
<path d="M29680 55210
L29680 54510
" />
<path d="M16982 55062
L16697 55062
" />
<path d="M16840 55062
L16840 54562
L16792 54633
L16744 54681
L16697 54705
" />
<path d="M42377 4100
L42400 4076
L42448 4052
L42567 4052
L42615 4076
L42639 4100
L42662 4147
L42662 4195
L42639 4266
L42353 4552
L42662 4552
" />
<path d="M42377 54610
L42400 54586
L42448 54562
L42567 54562
L42615 54586
L42639 54610
L42662 54657
L42662 54705
L42639 54776
L42353 55062
L42662 55062
" />
<path d="M4000 29600
L4700 29600
" />
<path d="M4230 16859
L4469 16859
" />
<path d="M4183 17002
L4350 16502
L4516 17002
" />
<path d="M55370 29600
L54670 29600
" />
<path d="M54900 16859
L55139 16859
" />
<path d="M54853 17002
L55020 16502
L55186 17002
" />
<path d="M4385 42340
L4457 42364
L4480 42388
L4504 42435
L4504 42507
L4480 42554
L4457 42578
L4409 42602
L4219 42602
L4219 42102
L4385 42102
L4433 42126
L4457 42150
L4480 42197
L4480 42245
L4457 42292
L4433 42316
L4385 42340
L4219 42340
" />
<path d="M55055 42340
L55127 42364
L55150 42388
L55174 42435
L55174 42507
L55150 42554
L55127 42578
L55079 42602
L54889 42602
L54889 42102
L55055 42102
L55103 42126
L55127 42150
L55150 42197
L55150 42245
L55127 42292
L55103 42316
L55055 42340
L54889 42340
" />
<path d="M21820 52952
L21895 52352
L22037 52352
L22120 52381
L22170 52438
L22191 52495
L22205 52610
L22195 52695
L22152 52810
L22116 52867
L22052 52924
L21962 52952
L21820 52952
" />
<path d="M22677 52952
L22716 52638
L22695 52581
L22641 52552
L22527 52552
L22466 52581
" />
<path d="M22680 52924
L22620 52952
L22477 52952
L22423 52924
L22402 52867
L22409 52810
L22445 52752
L22505 52724
L22648 52724
L22709 52695
" />
<path d="M22927 52552
L23155 52552
" />
<path d="M23037 52352
L22973 52867
L22995 52924
L23048 52952
L23105 52952
" />
<path d="M23537 52924
L23477 52952
L23362 52952
L23309 52924
L23287 52867
L23316 52638
L23352 52581
L23412 52552
L23527 52552
L23580 52581
L23602 52638
L23595 52695
L23302 52752
" />
<path d="M23827 52895
L23852 52924
L23820 52952
L23795 52924
L23827 52895
L23820 52952
" />
<path d="M23866 52581
L23891 52610
L23859 52638
L23834 52610
L23866 52581
L23859 52638
" />
<path d="M24923 52352
L24637 52352
L24573 52638
L24605 52610
L24666 52581
L24809 52581
L24862 52610
L24887 52638
L24909 52695
L24891 52838
L24855 52895
L24823 52924
L24762 52952
L24620 52952
L24566 52924
L24541 52895
" />
<path d="M25641 52552
L25577 53067
L25541 53124
L25480 53152
L25452 53152
" />
<path d="M25666 52352
L25634 52381
L25659 52410
L25691 52381
L25666 52352
L25659 52410
" />
<path d="M26184 52552
L26134 52952
" />
<path d="M25927 52552
L25887 52867
L25909 52924
L25962 52952
L26048 52952
L26109 52924
L26141 52895
" />
<path d="M26505 52952
L26452 52924
L26430 52867
L26495 52352
" />
<path d="M27230 52410
L27262 52381
L27323 52352
L27466 52352
L27520 52381
L27545 52410
L27566 52467
L27559 52524
L27520 52610
L27134 52952
L27505 52952
" />
<path d="M27952 52352
L28009 52352
L28062 52381
L28087 52410
L28109 52467
L28123 52581
L28105 52724
L28062 52838
L28027 52895
L27995 52924
L27934 52952
L27877 52952
L27823 52924
L27798 52895
L27777 52838
L27762 52724
L27780 52581
L27823 52467
L27859 52410
L27891 52381
L27952 52352
" />
<path d="M28648 52952
L28305 52952
" />
<path d="M28477 52952
L28552 52352
L28484 52438
L28420 52495
L28359 52524
" />
<path d="M29212 52552
L29162 52952
" />
<path d="M29098 52324
L28902 52752
L29273 52752
" />
<path d="M13412 54152
L13412 53552
" />
<path d="M13755 54152
L13498 53810
" />
<path d="M13755 53552
L13412 53895
" />
<path d="M14012 54152
L14012 53752
" />
<path d="M14012 53552
L13984 53581
L14012 53610
L14041 53581
L14012 53552
L14012 53610
" />
<path d="M14641 54095
L14612 54124
L14527 54152
L14470 54152
L14384 54124
L14327 54067
L14298 54010
L14270 53895
L14270 53810
L14298 53695
L14327 53638
L14384 53581
L14470 53552
L14527 53552
L14612 53581
L14641 53610
" />
<path d="M15155 54152
L15155 53838
L15127 53781
L15070 53752
L14955 53752
L14898 53781
" />
<path d="M15155 54124
L15098 54152
L14955 54152
L14898 54124
L14870 54067
L14870 54010
L14898 53952
L14955 53924
L15098 53924
L15155 53895
" />
<path d="M15698 54152
L15698 53552
" />
<path d="M15698 54124
L15641 54152
L15527 54152
L15470 54124
L15441 54095
L15412 54038
L15412 53867
L15441 53810
L15470 53781
L15527 53752
L15641 53752
L15698 53781
" />
<path d="M16441 53838
L16641 53838
" />
<path d="M16727 54152
L16441 54152
L16441 53552
L16727 53552
" />
<path d="M16984 54095
L17012 54124
L16984 54152
L16955 54124
L16984 54095
L16984 54152
" />
<path d="M17269 54152
L17269 53552
L17412 53552
L17498 53581
L17555 53638
L17584 53695
L17612 53810
L17612 53895
L17584 54010
L17555 54067
L17498 54124
L17412 54152
L17269 54152
" />
<path d="M17869 54095
L17898 54124
L17869 54152
L17841 54124
L17869 54095
L17869 54152
" />
<path d="M18127 53981
L18412 53981
" />
<path d="M18069 54152
L18269 53552
L18469 54152
" />
<path d="M18669 54095
L18698 54124
L18669 54152
L18641 54124
L18669 54095
L18669 54152
" />
<path d="M46962 52952
L46798 52667
" />
<path d="M46620 52952
L46695 52352
L46923 52352
L46977 52381
L47002 52410
L47023 52467
L47012 52552
L46977 52610
L46945 52638
L46884 52667
L46655 52667
" />
<path d="M47452 52924
L47391 52952
L47277 52952
L47223 52924
L47202 52867
L47230 52638
L47266 52581
L47327 52552
L47441 52552
L47495 52581
L47516 52638
L47509 52695
L47216 52752
" />
<path d="M47727 52552
L47820 52952
L48012 52552
" />
<path d="M48198 52895
L48223 52924
L48191 52952
L48166 52924
L48198 52895
L48191 52952
" />
<path d="M48237 52581
L48262 52610
L48230 52638
L48205 52610
L48237 52581
L48230 52638
" />
<path d="M13384 52924
L13470 52952
L13612 52952
L13670 52924
L13698 52895
L13727 52838
L13727 52781
L13698 52724
L13670 52695
L13612 52667
L13498 52638
L13441 52610
L13412 52581
L13384 52524
L13384 52467
L13412 52410
L13441 52381
L13498 52352
L13641 52352
L13727 52381
" />
<path d="M13984 52952
L13984 52552
" />
<path d="M13984 52352
L13955 52381
L13984 52410
L14012 52381
L13984 52352
L13984 52410
" />
<path d="M14212 52552
L14527 52552
L14212 52952
L14527 52952
" />
<path d="M14984 52924
L14927 52952
L14812 52952
L14755 52924
L14727 52867
L14727 52638
L14755 52581
L14812 52552
L14927 52552
L14984 52581
L15012 52638
L15012 52695
L14727 52752
" />
<path d="M15270 52895
L15298 52924
L15270 52952
L15241 52924
L15270 52895
L15270 52952
" />
<path d="M15270 52581
L15298 52610
L15270 52638
L15241 52610
L15270 52581
L15270 52638
" />
<path d="M16012 52352
L16012 52838
L16041 52895
L16070 52924
L16127 52952
L16241 52952
L16298 52924
L16327 52895
L16355 52838
L16355 52352
" />
<path d="M16612 52924
L16670 52952
L16784 52952
L16841 52924
L16870 52867
L16870 52838
L16841 52781
L16784 52752
L16698 52752
L16641 52724
L16612 52667
L16612 52638
L16641 52581
L16698 52552
L16784 52552
L16841 52581
" />
<path d="M17355 52924
L17298 52952
L17184 52952
L17127 52924
L17098 52867
L17098 52638
L17127 52581
L17184 52552
L17298 52552
L17355 52581
L17384 52638
L17384 52695
L17098 52752
" />
<path d="M17641 52952
L17641 52552
" />
<path d="M17641 52667
L17670 52610
L17698 52581
L17755 52552
L17812 52552
" />
<path d="M46612 54152
L46612 53552
" />
<path d="M47155 54152
L47155 53552
" />
<path d="M47155 54124
L47098 54152
L46984 54152
L46927 54124
L46898 54095
L46870 54038
L46870 53867
L46898 53810
L46927 53781
L46984 53752
L47098 53752
L47155 53781
" />
<path d="M47441 54095
L47470 54124
L47441 54152
L47412 54124
L47441 54095
L47441 54152
" />
<path d="M47441 53781
L47470 53810
L47441 53838
L47412 53810
L47441 53781
L47441 53838
" />
<path d="M48498 54152
L48155 54152
" />
<path d="M48327 54152
L48327 53552
L48269 53638
L48212 53695
L48155 53724
" />
<path d="M49184 53524
L48670 54295
" />
<path d="M49698 54152
L49355 54152
" />
<path d="M49527 54152
L49527 53552
L49469 53638
L49412 53695
L49355 53724
" />
<path d="M13409 51152
L13752 51152
" />
<path d="M13505 51752
L13580 51152
" />
<path d="M13877 51752
L13927 51352
" />
<path d="M13952 51152
L13920 51181
L13945 51210
L13977 51181
L13952 51152
L13945 51210
" />
<path d="M14127 51352
L14355 51352
" />
<path d="M14237 51152
L14173 51667
L14195 51724
L14248 51752
L14305 51752
" />
<path d="M14591 51752
L14537 51724
L14516 51667
L14580 51152
" />
<path d="M15052 51724
L14991 51752
L14877 51752
L14823 51724
L14802 51667
L14830 51438
L14866 51381
L14927 51352
L15041 51352
L15095 51381
L15116 51438
L15109 51495
L14816 51552
" />
<path d="M15341 51695
L15366 51724
L15334 51752
L15309 51724
L15341 51695
L15334 51752
" />
<path d="M15380 51381
L15405 51410
L15373 51438
L15348 51410
L15380 51381
L15373 51438
" />
<path d="M16070 51581
L16355 51581
" />
<path d="M15991 51752
L16266 51152
L16391 51752
" />
<path d="M16591 51752
L16666 51152
L16809 51152
L16891 51181
L16941 51238
L16962 51295
L16977 51410
L16966 51495
L16923 51610
L16887 51667
L16823 51724
L16734 51752
L16591 51752
" />
<path d="M17230 51210
L17262 51181
L17323 51152
L17466 51152
L17520 51181
L17545 51210
L17566 51267
L17559 51324
L17520 51410
L17134 51752
L17505 51752
" />
<path d="M17737 51724
L17820 51752
L17962 51752
L18023 51724
L18055 51695
L18091 51638
L18098 51581
L18077 51524
L18052 51495
L17998 51467
L17887 51438
L17834 51410
L17809 51381
L17787 51324
L17795 51267
L17830 51210
L17862 51181
L17923 51152
L18066 51152
L18148 51181
" />
<path d="M18648 51752
L18305 51752
" />
<path d="M18477 51752
L18552 51152
L18484 51238
L18420 51295
L18359 51324
" />
<path d="M18945 51210
L18977 51181
L19037 51152
L19180 51152
L19234 51181
L19259 51210
L19280 51267
L19273 51324
L19234 51410
L18848 51752
L19220 51752
" />
<path d="M19791 51752
L19448 51752
" />
<path d="M19620 51752
L19695 51152
L19627 51238
L19562 51295
L19502 51324
" />
<path d="M20237 51152
L20295 51152
L20348 51181
L20373 51210
L20395 51267
L20409 51381
L20391 51524
L20348 51638
L20312 51695
L20280 51724
L20220 51752
L20162 51752
L20109 51724
L20084 51695
L20062 51638
L20048 51524
L20066 51381
L20109 51267
L20145 51210
L20177 51181
L20237 51152
" />
<path d="M13612 49038
L13412 49038
" />
<path d="M13412 49352
L13412 48752
L13698 48752
" />
<path d="M13927 49352
L13927 48952
" />
<path d="M13927 48752
L13898 48781
L13927 48810
L13955 48781
L13927 48752
L13927 48810
" />
<path d="M14298 49352
L14241 49324
L14212 49267
L14212 48752
" />
<path d="M14755 49324
L14698 49352
L14584 49352
L14527 49324
L14498 49267
L14498 49038
L14527 48981
L14584 48952
L14698 48952
L14755 48981
L14784 49038
L14784 49095
L14498 49152
" />
<path d="M15041 49295
L15070 49324
L15041 49352
L15012 49324
L15041 49295
L15041 49352
" />
<path d="M15041 48981
L15070 49010
L15041 49038
L15012 49010
L15041 48981
L15041 49038
" />
<path d="M15755 49181
L16041 49181
" />
<path d="M15698 49352
L15898 48752
L16098 49352
" />
<path d="M16298 49352
L16298 48752
L16441 48752
L16527 48781
L16584 48838
L16612 48895
L16641 49010
L16641 49095
L16612 49210
L16584 49267
L16527 49324
L16441 49352
L16298 49352
" />
<path d="M16870 48810
L16898 48781
L16955 48752
L17098 48752
L17155 48781
L17184 48810
L17212 48867
L17212 48924
L17184 49010
L16841 49352
L17212 49352
" />
<path d="M17441 49324
L17527 49352
L17670 49352
L17727 49324
L17755 49295
L17784 49238
L17784 49181
L17755 49124
L17727 49095
L17670 49067
L17555 49038
L17498 49010
L17470 48981
L17441 48924
L17441 48867
L17470 48810
L17498 48781
L17555 48752
L17698 48752
L17784 48781
" />
<path d="M18355 49352
L18012 49352
" />
<path d="M18184 49352
L18184 48752
L18127 48838
L18070 48895
L18012 48924
" />
<path d="M18584 48810
L18612 48781
L18670 48752
L18812 48752
L18870 48781
L18898 48810
L18927 48867
L18927 48924
L18898 49010
L18555 49352
L18927 49352
" />
<path d="M19498 49352
L19155 49352
" />
<path d="M19327 49352
L19327 48752
L19270 48838
L19212 48895
L19155 48924
" />
<path d="M19870 48752
L19927 48752
L19984 48781
L20012 48810
L20041 48867
L20070 48981
L20070 49124
L20041 49238
L20012 49295
L19984 49324
L19927 49352
L19870 49352
L19812 49324
L19784 49295
L19755 49238
L19727 49124
L19727 48981
L19755 48867
L19784 48810
L19812 48781
L19870 48752
" />
<path d="M20184 49410
L20641 49410
" />
<path d="M20755 49181
L21041 49181
" />
<path d="M20698 49352
L20898 48752
L21098 49352
" />
<path d="M21298 49352
L21298 48752
L21441 48752
L21527 48781
L21584 48838
L21612 48895
L21641 49010
L21641 49095
L21612 49210
L21584 49267
L21527 49324
L21441 49352
L21298 49352
" />
<path d="M21984 49010
L21927 48981
L21898 48952
L21870 48895
L21870 48867
L21898 48810
L21927 48781
L21984 48752
L22098 48752
L22155 48781
L22184 48810
L22212 48867
L22212 48895
L22184 48952
L22155 48981
L22098 49010
L21984 49010
L21927 49038
L21898 49067
L21870 49124
L21870 49238
L21898 49295
L21927 49324
L21984 49352
L22098 49352
L22155 49324
L22184 49295
L22212 49238
L22212 49124
L22184 49067
L22155 49038
L22098 49010
" />
<path d="M22727 48752
L22612 48752
L22555 48781
L22527 48810
L22470 48895
L22441 49010
L22441 49238
L22470 49295
L22498 49324
L22555 49352
L22670 49352
L22727 49324
L22755 49295
L22784 49238
L22784 49095
L22755 49038
L22727 49010
L22670 48981
L22555 48981
L22498 49010
L22470 49038
L22441 49095
" />
<path d="M23298 48752
L23184 48752
L23127 48781
L23098 48810
L23041 48895
L23012 49010
L23012 49238
L23041 49295
L23070 49324
L23127 49352
L23241 49352
L23298 49324
L23327 49295
L23355 49238
L23355 49095
L23327 49038
L23298 49010
L23241 48981
L23127 48981
L23070 49010
L23041 49038
L23012 49095
" />
<path d="M23584 48810
L23612 48781
L23670 48752
L23812 48752
L23870 48781
L23898 48810
L23927 48867
L23927 48924
L23898 49010
L23555 49352
L23927 49352
" />
<path d="M24184 49295
L24212 49324
L24184 49352
L24155 49324
L24184 49295
L24184 49352
" />
<path d="M24470 49352
L24470 48752
" />
<path d="M24527 49124
L24698 49352
" />
<path d="M24698 48952
L24470 49181
" />
<path d="M24955 49352
L24955 48952
" />
<path d="M24955 48752
L24927 48781
L24955 48810
L24984 48781
L24955 48752
L24955 48810
" />
<path d="M25498 49324
L25441 49352
L25327 49352
L25270 49324
L25241 49295
L25212 49238
L25212 49067
L25241 49010
L25270 48981
L25327 48952
L25441 48952
L25498 48981
" />
<path d="M26012 49352
L26012 49038
L25984 48981
L25927 48952
L25812 48952
L25755 48981
" />
<path d="M26012 49324
L25955 49352
L25812 49352
L25755 49324
L25727 49267
L25727 49210
L25755 49152
L25812 49124
L25955 49124
L26012 49095
" />
<path d="M26555 49352
L26555 48752
" />
<path d="M26555 49324
L26498 49352
L26384 49352
L26327 49324
L26298 49295
L26270 49238
L26270 49067
L26298 49010
L26327 48981
L26384 48952
L26498 48952
L26555 48981
" />
<path d="M26698 49410
L27155 49410
" />
<path d="M27298 48952
L27298 49552
" />
<path d="M27298 48981
L27355 48952
L27470 48952
L27527 48981
L27555 49010
L27584 49067
L27584 49238
L27555 49295
L27527 49324
L27470 49352
L27355 49352
L27298 49324
" />
<path d="M28098 49324
L28041 49352
L27927 49352
L27870 49324
L27841 49295
L27812 49238
L27812 49067
L27841 49010
L27870 48981
L27927 48952
L28041 48952
L28098 48981
" />
<path d="M28355 49352
L28355 48752
" />
<path d="M28355 48981
L28412 48952
L28527 48952
L28584 48981
L28612 49010
L28641 49067
L28641 49238
L28612 49295
L28584 49324
L28527 49352
L28412 49352
L28355 49324
" />
<path d="M13384 50524
L13470 50552
L13612 50552
L13670 50524
L13698 50495
L13727 50438
L13727 50381
L13698 50324
L13670 50295
L13612 50267
L13498 50238
L13441 50210
L13412 50181
L13384 50124
L13384 50067
L13412 50010
L13441 49981
L13498 49952
L13641 49952
L13727 49981
" />
<path d="M13984 50552
L13984 49952
" />
<path d="M14241 50552
L14241 50238
L14212 50181
L14155 50152
L14070 50152
L14012 50181
L13984 50210
" />
<path d="M14755 50524
L14698 50552
L14584 50552
L14527 50524
L14498 50467
L14498 50238
L14527 50181
L14584 50152
L14698 50152
L14755 50181
L14784 50238
L14784 50295
L14498 50352
" />
<path d="M15270 50524
L15212 50552
L15098 50552
L15041 50524
L15012 50467
L15012 50238
L15041 50181
L15098 50152
L15212 50152
L15270 50181
L15298 50238
L15298 50295
L15012 50352
" />
<path d="M15470 50152
L15698 50152
" />
<path d="M15555 49952
L15555 50467
L15584 50524
L15641 50552
L15698 50552
" />
<path d="M15898 50495
L15927 50524
L15898 50552
L15870 50524
L15898 50495
L15898 50552
" />
<path d="M15898 50181
L15927 50210
L15898 50238
L15870 50210
L15898 50181
L15898 50238
" />
<path d="M13420 48152
L13495 47552
L13723 47552
L13777 47581
L13802 47610
L13823 47667
L13812 47752
L13777 47810
L13745 47838
L13684 47867
L13455 47867
" />
<path d="M14027 48095
L14052 48124
L14020 48152
L13995 48124
L14027 48095
L14020 48152
" />
<path d="M14762 48152
L14837 47552
" />
<path d="M15105 48152
L14891 47810
" />
<path d="M15180 47552
L14795 47895
" />
<path d="M15448 48152
L15395 48124
L15370 48095
L15348 48038
L15370 47867
L15405 47810
L15437 47781
L15498 47752
L15584 47752
L15637 47781
L15662 47810
L15684 47867
L15662 48038
L15627 48095
L15595 48124
L15534 48152
L15448 48152
" />
<path d="M16137 48124
L16077 48152
L15962 48152
L15909 48124
L15887 48067
L15916 47838
L15952 47781
L16012 47752
L16127 47752
L16180 47781
L16202 47838
L16195 47895
L15902 47952
" />
<path d="M16470 47752
L16420 48152
" />
<path d="M16462 47810
L16495 47781
L16555 47752
L16641 47752
L16695 47781
L16716 47838
L16677 48152
" />
<path d="M16962 48152
L17012 47752
" />
<path d="M17037 47552
L17005 47581
L17030 47610
L17062 47581
L17037 47552
L17030 47610
" />
<path d="M17555 47752
L17495 48238
L17459 48295
L17427 48324
L17366 48352
L17280 48352
L17227 48324
" />
<path d="M17509 48124
L17448 48152
L17334 48152
L17280 48124
L17255 48095
L17234 48038
L17255 47867
L17291 47810
L17323 47781
L17384 47752
L17498 47752
L17552 47781
" />
<path d="M12670 47310
L12670 54510
" />
<path d="M12670 48510
L54670 48510
" />
<path d="M12670 47310
L54670 47310
" />
<path d="M12670 50910
L54670 50910
" />
<path d="M45870 52110
L45870 54510
" />
<path d="M12670 53310
L54670 53310
" />
<path d="M12670 52110
L54670 52110
" />
<path d="M19270 52110
L19270 53310
" />
</g>
<g style="fill:#A00000; fill-opacity:0.0; 
stroke:#A00000; stroke-width:39.3701; stroke-opacity:1; 
stroke-linecap:round; stroke-linejoin:round;">
</g>
<g style="fill:#A00000; fill-opacity:1.0; 
stroke:#A00000; stroke-width:39.3701; stroke-opacity:1; 
stroke-linecap:round; stroke-linejoin:round;">
<polyline style="fill-rule:evenodd;"
points="46055,33780
45544,33780
45544,33469
46055,33469
46055,33780
" /> 
<polyline style="fill-rule:evenodd;"
points="46055,33030
45544,33030
45544,32719
46055,32719
46055,33030
" /> 
<polyline style="fill-rule:evenodd;"
points="46744,31219
47255,31219
47255,31530
46744,31530
46744,31219
" /> 
<polyline style="fill-rule:evenodd;"
points="46744,31969
47255,31969
47255,32280
46744,32280
46744,31969
" /> 
<polyline style="fill-rule:evenodd;"
points="41155,32130
40644,32130
40644,31819
41155,31819
41155,32130
" /> 
<polyline style="fill-rule:evenodd;"
points="41155,31380
40644,31380
40644,31069
41155,31069
41155,31380
" /> 
<polyline style="fill-rule:evenodd;"
points="46594,27469
47105,27469
47105,27780
46594,27780
46594,27469
" /> 
<polyline style="fill-rule:evenodd;"
points="46594,28219
47105,28219
47105,28530
46594,28530
46594,28219
" /> 
<polyline style="fill-rule:evenodd;"
points="45794,27469
46305,27469
46305,27780
45794,27780
45794,27469
" /> 
<polyline style="fill-rule:evenodd;"
points="45794,28219
46305,28219
46305,28530
45794,28530
45794,28219
" /> 
<polyline style="fill-rule:evenodd;"
points="46180,20194
46180,20705
45869,20705
45869,20194
46180,20194
" /> 
<polyline style="fill-rule:evenodd;"
points="45430,20194
45430,20705
45119,20705
45119,20194
45430,20194
" /> 
<polyline style="fill-rule:evenodd;"
points="45119,21705
45119,21194
45430,21194
45430,21705
45119,21705
" /> 
<polyline style="fill-rule:evenodd;"
points="45869,21705
45869,21194
46180,21194
46180,21705
45869,21705
" /> 
<polyline style="fill-rule:evenodd;"
points="45644,22419
46155,22419
46155,22730
45644,22730
45644,22419
" /> 
<polyline style="fill-rule:evenodd;"
points="45644,23169
46155,23169
46155,23480
45644,23480
45644,23169
" /> 
<polyline style="fill-rule:evenodd;"
points="47155,23480
46644,23480
46644,23169
47155,23169
47155,23480
" /> 
<polyline style="fill-rule:evenodd;"
points="47155,22730
46644,22730
46644,22419
47155,22419
47155,22730
" /> 
<polyline style="fill-rule:evenodd;"
points="46619,21705
46619,21194
46930,21194
46930,21705
46619,21705
" /> 
<polyline style="fill-rule:evenodd;"
points="47369,21705
47369,21194
47680,21194
47680,21705
47369,21705
" /> 
<polyline style="fill-rule:evenodd;"
points="46619,20705
46619,20194
46930,20194
46930,20705
46619,20705
" /> 
<polyline style="fill-rule:evenodd;"
points="47369,20705
47369,20194
47680,20194
47680,20705
47369,20705
" /> 
<polyline style="fill-rule:evenodd;"
points="46180,17194
46180,17705
45869,17705
45869,17194
46180,17194
" /> 
<polyline style="fill-rule:evenodd;"
points="45430,17194
45430,17705
45119,17705
45119,17194
45430,17194
" /> 
<polyline style="fill-rule:evenodd;"
points="47680,17194
47680,17705
47369,17705
47369,17194
47680,17194
" /> 
<polyline style="fill-rule:evenodd;"
points="46930,17194
46930,17705
46619,17705
46619,17194
46930,17194
" /> 
<polyline style="fill-rule:evenodd;"
points="42180,20194
42180,20705
41869,20705
41869,20194
42180,20194
" /> 
<polyline style="fill-rule:evenodd;"
points="41430,20194
41430,20705
41119,20705
41119,20194
41430,20194
" /> 
<polyline style="fill-rule:evenodd;"
points="41119,21705
41119,21194
41430,21194
41430,21705
41119,21705
" /> 
<polyline style="fill-rule:evenodd;"
points="41869,21705
41869,21194
42180,21194
42180,21705
41869,21705
" /> 
<polyline style="fill-rule:evenodd;"
points="43155,23480
42644,23480
42644,23169
43155,23169
43155,23480
" /> 
<polyline style="fill-rule:evenodd;"
points="43155,22730
42644,22730
42644,22419
43155,22419
43155,22730
" /> 
<polyline style="fill-rule:evenodd;"
points="42619,21705
42619,21194
42930,21194
42930,21705
42619,21705
" /> 
<polyline style="fill-rule:evenodd;"
points="43369,21705
43369,21194
43680,21194
43680,21705
43369,21705
" /> 
<polyline style="fill-rule:evenodd;"
points="42619,20705
42619,20194
42930,20194
42930,20705
42619,20705
" /> 
<polyline style="fill-rule:evenodd;"
points="43369,20705
43369,20194
43680,20194
43680,20705
43369,20705
" /> 
<polyline style="fill-rule:evenodd;"
points="42180,17194
42180,17705
41869,17705
41869,17194
42180,17194
" /> 
<polyline style="fill-rule:evenodd;"
points="41430,17194
41430,17705
41119,17705
41119,17194
41430,17194
" /> 
<polyline style="fill-rule:evenodd;"
points="43680,17194
43680,17705
43369,17705
43369,17194
43680,17194
" /> 
<polyline style="fill-rule:evenodd;"
points="42930,17194
42930,17705
42619,17705
42619,17194
42930,17194
" /> 
<polyline style="fill-rule:evenodd;"
points="45944,31219
46455,31219
46455,31530
45944,31530
45944,31219
" /> 
<polyline style="fill-rule:evenodd;"
points="45944,31969
46455,31969
46455,32280
45944,32280
45944,31969
" /> 
<polyline style="fill-rule:evenodd;"
points="36044,32519
36555,32519
36555,32830
36044,32830
36044,32519
" /> 
<polyline style="fill-rule:evenodd;"
points="36044,33269
36555,33269
36555,33580
36044,33580
36044,33269
" /> 
<polyline style="fill-rule:evenodd;"
points="34519,31405
34519,30894
34830,30894
34830,31405
34519,31405
" /> 
<polyline style="fill-rule:evenodd;"
points="35269,31405
35269,30894
35580,30894
35580,31405
35269,31405
" /> 
<polyline style="fill-rule:evenodd;"
points="30580,26294
30580,26805
30269,26805
30269,26294
30580,26294
" /> 
<polyline style="fill-rule:evenodd;"
points="29830,26294
29830,26805
29519,26805
29519,26294
29830,26294
" /> 
<polyline style="fill-rule:evenodd;"
points="27219,26805
27219,26294
27530,26294
27530,26805
27219,26805
" /> 
<polyline style="fill-rule:evenodd;"
points="27969,26805
27969,26294
28280,26294
28280,26805
27969,26805
" /> 
<polyline style="fill-rule:evenodd;"
points="29444,32669
29955,32669
29955,32980
29444,32980
29444,32669
" /> 
<polyline style="fill-rule:evenodd;"
points="29444,33419
29955,33419
29955,33730
29444,33730
29444,33419
" /> 
<polyline style="fill-rule:evenodd;"
points="33480,29244
33480,29755
33169,29755
33169,29244
33480,29244
" /> 
<polyline style="fill-rule:evenodd;"
points="32730,29244
32730,29755
32419,29755
32419,29244
32730,29244
" /> 
<polyline style="fill-rule:evenodd;"
points="33830,35619
33830,36130
33519,36130
33519,35619
33830,35619
" /> 
<polyline style="fill-rule:evenodd;"
points="33080,35619
33080,36130
32769,36130
32769,35619
33080,35619
" /> 
<polyline style="fill-rule:evenodd;"
points="33830,36469
33830,36980
33519,36980
33519,36469
33830,36469
" /> 
<polyline style="fill-rule:evenodd;"
points="33080,36469
33080,36980
32769,36980
32769,36469
33080,36469
" /> 
<polyline style="fill-rule:evenodd;"
points="28944,23569
29455,23569
29455,23880
28944,23880
28944,23569
" /> 
<polyline style="fill-rule:evenodd;"
points="28944,24319
29455,24319
29455,24630
28944,24630
28944,24319
" /> 
<polyline style="fill-rule:evenodd;"
points="34894,24919
35405,24919
35405,25230
34894,25230
34894,24919
" /> 
<polyline style="fill-rule:evenodd;"
points="34894,25669
35405,25669
35405,25980
34894,25980
34894,25669
" /> 
<polyline style="fill-rule:evenodd;"
points="35744,24919
36255,24919
36255,25230
35744,25230
35744,24919
" /> 
<polyline style="fill-rule:evenodd;"
points="35744,25669
36255,25669
36255,25980
35744,25980
35744,25669
" /> 
<polyline style="fill-rule:evenodd;"
points="45105,33780
44594,33780
44594,33469
45105,33469
45105,33780
" /> 
<polyline style="fill-rule:evenodd;"
points="45105,33030
44594,33030
44594,32719
45105,32719
45105,33030
" /> 
<polyline style="fill-rule:evenodd;"
points="42955,32130
42444,32130
42444,31819
42955,31819
42955,32130
" /> 
<polyline style="fill-rule:evenodd;"
points="42955,31380
42444,31380
42444,31069
42955,31069
42955,31380
" /> 
<polyline style="fill-rule:evenodd;"
points="44410,30880
44410,30419
44521,30419
44521,30880
44410,30880
" /> 
<polyline style="fill-rule:evenodd;"
points="44666,30880
44666,30419
44777,30419
44777,30880
44666,30880
" /> 
<polyline style="fill-rule:evenodd;"
points="44922,30880
44922,30419
45033,30419
45033,30880
44922,30880
" /> 
<polyline style="fill-rule:evenodd;"
points="45178,30880
45178,30419
45289,30419
45289,30880
45178,30880
" /> 
<polyline style="fill-rule:evenodd;"
points="45178,29180
45178,28719
45289,28719
45289,29180
45178,29180
" /> 
<polyline style="fill-rule:evenodd;"
points="44922,29180
44922,28719
45033,28719
45033,29180
44922,29180
" /> 
<polyline style="fill-rule:evenodd;"
points="44666,29180
44666,28719
44777,28719
44777,29180
44666,29180
" /> 
<polyline style="fill-rule:evenodd;"
points="44410,29180
44410,28719
44521,28719
44521,29180
44410,29180
" /> 
<polyline style="fill-rule:evenodd;"
points="31636,27774
31636,28325
29510,28325
29510,27774
31636,27774
" /> 
<polyline style="fill-rule:evenodd;"
points="28289,27774
28289,28325
26163,28325
26163,27774
28289,27774
" /> 
<polyline style="fill-rule:evenodd;"
points="44527,19068
44172,19068
44172,18831
44527,18831
44527,19068
" /> 
<polyline style="fill-rule:evenodd;"
points="45527,18693
45172,18693
45172,18456
45527,18456
45527,18693
" /> 
<polyline style="fill-rule:evenodd;"
points="45527,19443
45172,19443
45172,19206
45527,19206
45527,19443
" /> 
<polyline style="fill-rule:evenodd;"
points="46727,19068
46372,19068
46372,18831
46727,18831
46727,19068
" /> 
<polyline style="fill-rule:evenodd;"
points="47727,18693
47372,18693
47372,18456
47727,18456
47727,18693
" /> 
<polyline style="fill-rule:evenodd;"
points="47727,19443
47372,19443
47372,19206
47727,19206
47727,19443
" /> 
<polyline style="fill-rule:evenodd;"
points="40527,19068
40172,19068
40172,18831
40527,18831
40527,19068
" /> 
<polyline style="fill-rule:evenodd;"
points="41527,18693
41172,18693
41172,18456
41527,18456
41527,18693
" /> 
<polyline style="fill-rule:evenodd;"
points="41527,19443
41172,19443
41172,19206
41527,19206
41527,19443
" /> 
<polyline style="fill-rule:evenodd;"
points="42727,19068
42372,19068
42372,18831
42727,18831
42727,19068
" /> 
<polyline style="fill-rule:evenodd;"
points="43727,18693
43372,18693
43372,18456
43727,18456
43727,18693
" /> 
<polyline style="fill-rule:evenodd;"
points="43727,19443
43372,19443
43372,19206
43727,19206
43727,19443
" /> 
<polyline style="fill-rule:evenodd;"
points="44194,27705
44194,27194
44505,27194
44505,27705
44194,27705
" /> 
<polyline style="fill-rule:evenodd;"
points="44944,27705
44944,27194
45255,27194
45255,27705
44944,27705
" /> 
<polyline style="fill-rule:evenodd;"
points="41594,22419
42105,22419
42105,22730
41594,22730
41594,22419
" /> 
<polyline style="fill-rule:evenodd;"
points="41594,23169
42105,23169
42105,23480
41594,23480
41594,23169
" /> 
<polyline style="fill-rule:evenodd;"
points="34119,30280
34119,29519
34680,29519
34680,30280
34119,30280
" /> 
<polyline style="fill-rule:evenodd;"
points="35419,30280
35419,29519
35980,29519
35980,30280
35419,30280
" /> 
<polyline style="fill-rule:evenodd;"
points="34030,28069
34030,28830
33469,28830
33469,28069
34030,28069
" /> 
<polyline style="fill-rule:evenodd;"
points="32730,28069
32730,28830
32169,28830
32169,28069
32730,28069
" /> 
<polyline style="fill-rule:evenodd;"
points="27619,23319
28380,23319
28380,23880
27619,23880
27619,23319
" /> 
<polyline style="fill-rule:evenodd;"
points="27619,24619
28380,24619
28380,25180
27619,25180
27619,24619
" /> 
<polyline style="fill-rule:evenodd;"
points="36919,32519
37680,32519
37680,33080
36919,33080
36919,32519
" /> 
<polyline style="fill-rule:evenodd;"
points="36919,33819
37680,33819
37680,34380
36919,34380
36919,33819
" /> 
<polyline style="fill-rule:evenodd;"
points="28119,32269
28880,32269
28880,32830
28119,32830
28119,32269
" /> 
<polyline style="fill-rule:evenodd;"
points="28119,33569
28880,33569
28880,34130
28119,34130
28119,33569
" /> 
<polyline style="fill-rule:evenodd;"
points="43769,26780
43769,26019
44330,26019
44330,26780
43769,26780
" /> 
<polyline style="fill-rule:evenodd;"
points="45069,26780
45069,26019
45630,26019
45630,26780
45069,26780
" /> 
<polyline style="fill-rule:evenodd;"
points="41305,24280
40794,24280
40794,23969
41305,23969
41305,24280
" /> 
<polyline style="fill-rule:evenodd;"
points="41305,23530
40794,23530
40794,23219
41305,23219
41305,23530
" /> 
<polyline style="fill-rule:evenodd;"
points="44794,23219
45305,23219
45305,23530
44794,23530
44794,23219
" /> 
<polyline style="fill-rule:evenodd;"
points="44794,23969
45305,23969
45305,24280
44794,24280
44794,23969
" /> 
<polyline style="fill-rule:evenodd;"
points="32362,31060
32440,31060
32440,31493
32362,31493
32362,31060
" /> 
<polyline style="fill-rule:evenodd;"
points="32559,31060
32637,31060
32637,31493
32559,31493
32559,31060
" /> 
<polyline style="fill-rule:evenodd;"
points="32165,31060
32244,31060
32244,31493
32165,31493
32165,31060
" /> 
<polyline style="fill-rule:evenodd;"
points="32755,31060
32834,31060
32834,31493
32755,31493
32755,31060
" /> 
<polyline style="fill-rule:evenodd;"
points="32952,31060
33031,31060
33031,31493
32952,31493
32952,31060
" /> 
<polyline style="fill-rule:evenodd;"
points="33149,31060
33228,31060
33228,31493
33149,31493
33149,31060
" /> 
<polyline style="fill-rule:evenodd;"
points="33346,31060
33425,31060
33425,31493
33346,31493
33346,31060
" /> 
<polyline style="fill-rule:evenodd;"
points="33543,31060
33622,31060
33622,31493
33543,31493
33543,31060
" /> 
<polyline style="fill-rule:evenodd;"
points="31968,31060
32047,31060
32047,31493
31968,31493
31968,31060
" /> 
<polyline style="fill-rule:evenodd;"
points="31771,31060
31850,31060
31850,31493
31771,31493
31771,31060
" /> 
<polyline style="fill-rule:evenodd;"
points="31574,31060
31653,31060
31653,31493
31574,31493
31574,31060
" /> 
<polyline style="fill-rule:evenodd;"
points="31377,31060
31456,31060
31456,31493
31377,31493
31377,31060
" /> 
<polyline style="fill-rule:evenodd;"
points="32362,34406
32440,34406
32440,34839
32362,34839
32362,34406
" /> 
<polyline style="fill-rule:evenodd;"
points="32559,34406
32637,34406
32637,34839
32559,34839
32559,34406
" /> 
<polyline style="fill-rule:evenodd;"
points="32165,34406
32244,34406
32244,34839
32165,34839
32165,34406
" /> 
<polyline style="fill-rule:evenodd;"
points="31968,34406
32047,34406
32047,34839
31968,34839
31968,34406
" /> 
<polyline style="fill-rule:evenodd;"
points="31771,34406
31850,34406
31850,34839
31771,34839
31771,34406
" /> 
<polyline style="fill-rule:evenodd;"
points="31574,34406
31653,34406
31653,34839
31574,34839
31574,34406
" /> 
<polyline style="fill-rule:evenodd;"
points="31377,34406
31456,34406
31456,34839
31377,34839
31377,34406
" /> 
<polyline style="fill-rule:evenodd;"
points="32755,34406
32834,34406
32834,34839
32755,34839
32755,34406
" /> 
<polyline style="fill-rule:evenodd;"
points="32952,34406
33031,34406
33031,34839
32952,34839
32952,34406
" /> 
<polyline style="fill-rule:evenodd;"
points="33149,34406
33228,34406
33228,34839
33149,34839
33149,34406
" /> 
<polyline style="fill-rule:evenodd;"
points="33346,34406
33425,34406
33425,34839
33346,34839
33346,34406
" /> 
<polyline style="fill-rule:evenodd;"
points="33543,34406
33622,34406
33622,34839
33543,34839
33543,34406
" /> 
<polyline style="fill-rule:evenodd;"
points="33956,33087
33956,33009
34389,33009
34389,33087
33956,33087
" /> 
<polyline style="fill-rule:evenodd;"
points="33956,33284
33956,33205
34389,33205
34389,33284
33956,33284
" /> 
<polyline style="fill-rule:evenodd;"
points="33956,33481
33956,33402
34389,33402
34389,33481
33956,33481
" /> 
<polyline style="fill-rule:evenodd;"
points="33956,33678
33956,33599
34389,33599
34389,33678
33956,33678
" /> 
<polyline style="fill-rule:evenodd;"
points="33956,33875
33956,33796
34389,33796
34389,33875
33956,33875
" /> 
<polyline style="fill-rule:evenodd;"
points="33956,34072
33956,33993
34389,33993
34389,34072
33956,34072
" /> 
<polyline style="fill-rule:evenodd;"
points="33956,32890
33956,32812
34389,32812
34389,32890
33956,32890
" /> 
<polyline style="fill-rule:evenodd;"
points="33956,32694
33956,32615
34389,32615
34389,32694
33956,32694
" /> 
<polyline style="fill-rule:evenodd;"
points="33956,32497
33956,32418
34389,32418
34389,32497
33956,32497
" /> 
<polyline style="fill-rule:evenodd;"
points="33956,32300
33956,32221
34389,32221
34389,32300
33956,32300
" /> 
<polyline style="fill-rule:evenodd;"
points="33956,32103
33956,32024
34389,32024
34389,32103
33956,32103
" /> 
<polyline style="fill-rule:evenodd;"
points="33956,31906
33956,31827
34389,31827
34389,31906
33956,31906
" /> 
<polyline style="fill-rule:evenodd;"
points="30610,33087
30610,33009
31043,33009
31043,33087
30610,33087
" /> 
<polyline style="fill-rule:evenodd;"
points="30610,33284
30610,33205
31043,33205
31043,33284
30610,33284
" /> 
<polyline style="fill-rule:evenodd;"
points="30610,33481
30610,33402
31043,33402
31043,33481
30610,33481
" /> 
<polyline style="fill-rule:evenodd;"
points="30610,33678
30610,33599
31043,33599
31043,33678
30610,33678
" /> 
<polyline style="fill-rule:evenodd;"
points="30610,33875
30610,33796
31043,33796
31043,33875
30610,33875
" /> 
<polyline style="fill-rule:evenodd;"
points="30610,34072
30610,33993
31043,33993
31043,34072
30610,34072
" /> 
<polyline style="fill-rule:evenodd;"
points="30610,32890
30610,32812
31043,32812
31043,32890
30610,32890
" /> 
<polyline style="fill-rule:evenodd;"
points="30610,32694
30610,32615
31043,32615
31043,32694
30610,32694
" /> 
<polyline style="fill-rule:evenodd;"
points="30610,32497
30610,32418
31043,32418
31043,32497
30610,32497
" /> 
<polyline style="fill-rule:evenodd;"
points="30610,32300
30610,32221
31043,32221
31043,32300
30610,32300
" /> 
<polyline style="fill-rule:evenodd;"
points="30610,32103
30610,32024
31043,32024
31043,32103
30610,32103
" /> 
<polyline style="fill-rule:evenodd;"
points="30610,31906
30610,31827
31043,31827
31043,31906
30610,31906
" /> 
<polyline style="fill-rule:evenodd;"
points="33619,24619
34380,24619
34380,25180
33619,25180
33619,24619
" /> 
<polyline style="fill-rule:evenodd;"
points="33619,25919
34380,25919
34380,26480
33619,26480
33619,25919
" /> 
<polyline style="fill-rule:evenodd;"
points="42569,30655
42569,30144
42880,30144
42880,30655
42569,30655
" /> 
<polyline style="fill-rule:evenodd;"
points="43319,30655
43319,30144
43630,30144
43630,30655
43319,30655
" /> 
<polyline style="fill-rule:evenodd;"
points="42569,29455
42569,28944
42880,28944
42880,29455
42569,29455
" /> 
<polyline style="fill-rule:evenodd;"
points="43319,29455
43319,28944
43630,28944
43630,29455
43319,29455
" /> 
<polyline style="fill-rule:evenodd;"
points="42055,32130
41544,32130
41544,31819
42055,31819
42055,32130
" /> 
<polyline style="fill-rule:evenodd;"
points="42055,31380
41544,31380
41544,31069
42055,31069
42055,31380
" /> 
<polyline style="fill-rule:evenodd;"
points="40444,27469
40955,27469
40955,27780
40444,27780
40444,27469
" /> 
<polyline style="fill-rule:evenodd;"
points="40444,28219
40955,28219
40955,28530
40444,28530
40444,28219
" /> 
<polyline style="fill-rule:evenodd;"
points="41444,27469
41955,27469
41955,27780
41444,27780
41444,27469
" /> 
<polyline style="fill-rule:evenodd;"
points="41444,28219
41955,28219
41955,28530
41444,28530
41444,28219
" /> 
<polyline style="fill-rule:evenodd;"
points="42444,27469
42955,27469
42955,27780
42444,27780
42444,27469
" /> 
<polyline style="fill-rule:evenodd;"
points="42444,28219
42955,28219
42955,28530
42444,28530
42444,28219
" /> 
<polyline style="fill-rule:evenodd;"
points="23269,21680
23269,20319
23930,20319
23930,21680
23269,21680
" /> 
<polyline style="fill-rule:evenodd;"
points="24769,21680
24769,20319
25430,20319
25430,21680
24769,21680
" /> 
<polyline style="fill-rule:evenodd;"
points="27830,20919
27830,21680
27269,21680
27269,20919
27830,20919
" /> 
<polyline style="fill-rule:evenodd;"
points="26530,20919
26530,21680
25969,21680
25969,20919
26530,20919
" /> 
</g> 
</svg>
