M48
INCH,TZ
T1C0.005
T2C0.030
T3C0.032
T4C0.035
T5C0.040
T6C0.045
T7C0.075
T8C0.113
%
G90
G05
T1
X76450Y-65740
X96550Y-60490
X103365Y-61730
T2
X66374Y-61732
X68341Y-66423
X69533Y-61821
X69737Y-66012
X70278Y-64068
X71124Y-60860
X72420Y-63750
X76500Y-68550
X77000Y-62910
X77072Y-69561
X79254Y-61641
X94738Y-59801
X99405Y-59835
X104097Y-72555
X113302Y-66395
T3
X59785Y-53850
X60315Y-69475
X60315Y-70475
X60785Y-53850
X65116Y-67624
X65116Y-68624
X65116Y-69624
X65116Y-70624
X68116Y-67624
X68116Y-68624
X68116Y-69624
X68116Y-70624
X72024Y-68605
X72024Y-69605
X72024Y-70605
X72024Y-71605
X75024Y-68605
X75024Y-69605
X75024Y-70605
X75024Y-71605
X79375Y-63960
X79522Y-66546
X79522Y-69546
X80375Y-63960
X80522Y-66546
X80522Y-69546
X81522Y-66546
X81522Y-69546
X82522Y-66546
X82522Y-69546
X83522Y-66546
X83522Y-69546
X84522Y-66546
X84522Y-69546
X85522Y-66546
X85522Y-69546
X88740Y-66502
X88740Y-69502
X89740Y-66502
X89740Y-69502
X90340Y-63830
X90740Y-66502
X90740Y-69502
X91340Y-63830
X91740Y-66502
X91740Y-69502
X92740Y-66502
X92740Y-69502
X93740Y-66502
X93740Y-69502
X94740Y-66502
X94740Y-69502
X98180Y-66420
X98180Y-69420
X98888Y-63835
X99180Y-66420
X99180Y-69420
X99888Y-63835
X100180Y-66420
X100180Y-69420
X101180Y-66420
X101180Y-69420
X102180Y-66420
X102180Y-69420
X103180Y-66420
X103180Y-69420
X104180Y-66420
X104180Y-69420
X106700Y-67640
X106700Y-68640
X111474Y-54566
X111474Y-55566
X111738Y-58030
X112738Y-58030
T4
X70960Y-60130
T5
X59280Y-66610
X61420Y-66610
X62964Y-54194
X62964Y-56334
X66850Y-55700
X67850Y-55700
X68850Y-55700
X71600Y-55800
X72600Y-55800
X73600Y-55800
X79015Y-73051
X79025Y-72060
X80015Y-72051
X80015Y-73051
X81015Y-72051
X81015Y-73051
X82000Y-55800
X82015Y-72051
X82015Y-73051
X83000Y-55800
X83015Y-72051
X83015Y-73051
X84000Y-55800
X84015Y-72051
X84015Y-73051
X85015Y-72051
X85015Y-73051
X86015Y-72051
X86015Y-73051
X86800Y-55800
X87015Y-72051
X87015Y-73051
X87800Y-55800
X88015Y-72051
X88015Y-73051
X88800Y-55800
X89015Y-72051
X89015Y-73051
X90015Y-72051
X90015Y-73051
X91015Y-72051
X91015Y-73051
X92015Y-72051
X92015Y-73051
X93015Y-72051
X93015Y-73051
X94015Y-72051
X94015Y-73051
X95015Y-72051
X95015Y-73051
X96015Y-72051
X96015Y-73051
X97015Y-72051
X97015Y-73051
X97400Y-55800
X98015Y-72051
X98015Y-73051
X98400Y-55800
X99015Y-72051
X99015Y-73051
X99400Y-55800
X100015Y-72051
X100015Y-73051
X101015Y-72051
X101015Y-73051
X102000Y-55800
X102015Y-72051
X102015Y-73051
X103000Y-55800
X103015Y-72051
X103015Y-73051
X104000Y-55800
X106830Y-54205
X106830Y-55205
X108500Y-54125
X108500Y-56265
X110260Y-64210
X110260Y-66350
T6
X58450Y-61200
X63360Y-68465
X63360Y-69465
X63360Y-70465
X74450Y-61200
X77430Y-61250
X93430Y-61250
X105650Y-72600
X106650Y-72600
X107650Y-72600
X108460Y-63600
X108460Y-64600
X108460Y-65600
X110452Y-72556
X111452Y-72556
X112452Y-72556
X112590Y-67925
X112590Y-68925
X112590Y-69925
T7
X53402Y-56235
X53402Y-59645
X56737Y-58627
X56739Y-57110
T8
X56810Y-53230
X57838Y-71764
X87045Y-64620
X112518Y-60956
T0
M30
