G04 (created by PCBNEW (22-Jun-2014 BZR 4027)-stable) date vie 24 oct 2014 06:28:31 CST*
%MOIN*%
G04 Gerber Fmt 3.4, Leading zero omitted, Abs format*
%FSLAX34Y34*%
G01*
G70*
G90*
G04 APERTURE LIST*
%ADD10C,0.00590551*%
%ADD11C,0.011811*%
%ADD12C,0.006*%
%ADD13C,0.005*%
%ADD14C,0.015*%
%ADD15C,0.012*%
%ADD16C,0.0026*%
%ADD17C,0.004*%
%ADD18C,0.01*%
%ADD19C,0.002*%
%ADD20C,0.0035*%
%ADD21C,0.008*%
%ADD22C,0.0047*%
%ADD23C,0.01125*%
%ADD24C,0.0108*%
G04 APERTURE END LIST*
G54D10*
G54D11*
X92921Y-52150D02*
X93202Y-52150D01*
X92865Y-52319D02*
X93061Y-51728D01*
X93258Y-52319D01*
X93793Y-52319D02*
X93596Y-52037D01*
X93455Y-52319D02*
X93455Y-51728D01*
X93680Y-51728D01*
X93736Y-51756D01*
X93764Y-51784D01*
X93793Y-51840D01*
X93793Y-51925D01*
X93764Y-51981D01*
X93736Y-52009D01*
X93680Y-52037D01*
X93455Y-52037D01*
X94383Y-52262D02*
X94355Y-52290D01*
X94271Y-52319D01*
X94214Y-52319D01*
X94130Y-52290D01*
X94074Y-52234D01*
X94046Y-52178D01*
X94017Y-52065D01*
X94017Y-51981D01*
X94046Y-51869D01*
X94074Y-51812D01*
X94130Y-51756D01*
X94214Y-51728D01*
X94271Y-51728D01*
X94355Y-51756D01*
X94383Y-51784D01*
X94749Y-51728D02*
X94861Y-51728D01*
X94917Y-51756D01*
X94974Y-51812D01*
X95002Y-51925D01*
X95002Y-52122D01*
X94974Y-52234D01*
X94917Y-52290D01*
X94861Y-52319D01*
X94749Y-52319D01*
X94692Y-52290D01*
X94636Y-52234D01*
X94608Y-52122D01*
X94608Y-51925D01*
X94636Y-51812D01*
X94692Y-51756D01*
X94749Y-51728D01*
X95227Y-52290D02*
X95311Y-52319D01*
X95452Y-52319D01*
X95508Y-52290D01*
X95536Y-52262D01*
X95564Y-52206D01*
X95564Y-52150D01*
X95536Y-52094D01*
X95508Y-52065D01*
X95452Y-52037D01*
X95339Y-52009D01*
X95283Y-51981D01*
X95255Y-51953D01*
X95227Y-51897D01*
X95227Y-51840D01*
X95255Y-51784D01*
X95283Y-51756D01*
X95339Y-51728D01*
X95480Y-51728D01*
X95564Y-51756D01*
X95817Y-52094D02*
X96267Y-52094D01*
X96830Y-52319D02*
X96548Y-52319D01*
X96548Y-51728D01*
X97280Y-52319D02*
X97280Y-52009D01*
X97251Y-51953D01*
X97195Y-51925D01*
X97083Y-51925D01*
X97026Y-51953D01*
X97280Y-52290D02*
X97223Y-52319D01*
X97083Y-52319D01*
X97026Y-52290D01*
X96998Y-52234D01*
X96998Y-52178D01*
X97026Y-52122D01*
X97083Y-52094D01*
X97223Y-52094D01*
X97280Y-52065D01*
X97758Y-52009D02*
X97842Y-52037D01*
X97870Y-52065D01*
X97898Y-52122D01*
X97898Y-52206D01*
X97870Y-52262D01*
X97842Y-52290D01*
X97786Y-52319D01*
X97561Y-52319D01*
X97561Y-51728D01*
X97758Y-51728D01*
X97814Y-51756D01*
X97842Y-51784D01*
X97870Y-51840D01*
X97870Y-51897D01*
X97842Y-51953D01*
X97814Y-51981D01*
X97758Y-52009D01*
X97561Y-52009D01*
X87198Y-52673D02*
X87311Y-52673D01*
X87367Y-52701D01*
X87423Y-52757D01*
X87451Y-52870D01*
X87451Y-53067D01*
X87423Y-53179D01*
X87367Y-53235D01*
X87311Y-53263D01*
X87198Y-53263D01*
X87142Y-53235D01*
X87086Y-53179D01*
X87057Y-53067D01*
X87057Y-52870D01*
X87086Y-52757D01*
X87142Y-52701D01*
X87198Y-52673D01*
X87704Y-52870D02*
X87704Y-53460D01*
X87704Y-52898D02*
X87760Y-52870D01*
X87873Y-52870D01*
X87929Y-52898D01*
X87957Y-52926D01*
X87985Y-52982D01*
X87985Y-53151D01*
X87957Y-53207D01*
X87929Y-53235D01*
X87873Y-53263D01*
X87760Y-53263D01*
X87704Y-53235D01*
X88463Y-53235D02*
X88407Y-53263D01*
X88295Y-53263D01*
X88239Y-53235D01*
X88210Y-53179D01*
X88210Y-52954D01*
X88239Y-52898D01*
X88295Y-52870D01*
X88407Y-52870D01*
X88463Y-52898D01*
X88492Y-52954D01*
X88492Y-53010D01*
X88210Y-53067D01*
X88745Y-52870D02*
X88745Y-53263D01*
X88745Y-52926D02*
X88773Y-52898D01*
X88829Y-52870D01*
X88913Y-52870D01*
X88970Y-52898D01*
X88998Y-52954D01*
X88998Y-53263D01*
X89279Y-53038D02*
X89729Y-53038D01*
X90348Y-53207D02*
X90320Y-53235D01*
X90235Y-53263D01*
X90179Y-53263D01*
X90095Y-53235D01*
X90038Y-53179D01*
X90010Y-53123D01*
X89982Y-53010D01*
X89982Y-52926D01*
X90010Y-52813D01*
X90038Y-52757D01*
X90095Y-52701D01*
X90179Y-52673D01*
X90235Y-52673D01*
X90320Y-52701D01*
X90348Y-52729D01*
X90713Y-52673D02*
X90826Y-52673D01*
X90882Y-52701D01*
X90938Y-52757D01*
X90966Y-52870D01*
X90966Y-53067D01*
X90938Y-53179D01*
X90882Y-53235D01*
X90826Y-53263D01*
X90713Y-53263D01*
X90657Y-53235D01*
X90601Y-53179D01*
X90573Y-53067D01*
X90573Y-52870D01*
X90601Y-52757D01*
X90657Y-52701D01*
X90713Y-52673D01*
X91557Y-53263D02*
X91360Y-52982D01*
X91219Y-53263D02*
X91219Y-52673D01*
X91444Y-52673D01*
X91501Y-52701D01*
X91529Y-52729D01*
X91557Y-52785D01*
X91557Y-52870D01*
X91529Y-52926D01*
X91501Y-52954D01*
X91444Y-52982D01*
X91219Y-52982D01*
X91922Y-52673D02*
X92035Y-52673D01*
X92091Y-52701D01*
X92147Y-52757D01*
X92176Y-52870D01*
X92176Y-53067D01*
X92147Y-53179D01*
X92091Y-53235D01*
X92035Y-53263D01*
X91922Y-53263D01*
X91866Y-53235D01*
X91810Y-53179D01*
X91782Y-53067D01*
X91782Y-52870D01*
X91810Y-52757D01*
X91866Y-52701D01*
X91922Y-52673D01*
X92766Y-53207D02*
X92738Y-53235D01*
X92654Y-53263D01*
X92597Y-53263D01*
X92513Y-53235D01*
X92457Y-53179D01*
X92429Y-53123D01*
X92401Y-53010D01*
X92401Y-52926D01*
X92429Y-52813D01*
X92457Y-52757D01*
X92513Y-52701D01*
X92597Y-52673D01*
X92654Y-52673D01*
X92738Y-52701D01*
X92766Y-52729D01*
X93132Y-52673D02*
X93244Y-52673D01*
X93300Y-52701D01*
X93357Y-52757D01*
X93385Y-52870D01*
X93385Y-53067D01*
X93357Y-53179D01*
X93300Y-53235D01*
X93244Y-53263D01*
X93132Y-53263D01*
X93075Y-53235D01*
X93019Y-53179D01*
X92991Y-53067D01*
X92991Y-52870D01*
X93019Y-52757D01*
X93075Y-52701D01*
X93132Y-52673D01*
X94088Y-53263D02*
X94088Y-52673D01*
X94228Y-52673D01*
X94313Y-52701D01*
X94369Y-52757D01*
X94397Y-52813D01*
X94425Y-52926D01*
X94425Y-53010D01*
X94397Y-53123D01*
X94369Y-53179D01*
X94313Y-53235D01*
X94228Y-53263D01*
X94088Y-53263D01*
X94678Y-53263D02*
X94678Y-52870D01*
X94678Y-52982D02*
X94706Y-52926D01*
X94735Y-52898D01*
X94791Y-52870D01*
X94847Y-52870D01*
X95044Y-53263D02*
X95044Y-52870D01*
X95044Y-52673D02*
X95016Y-52701D01*
X95044Y-52729D01*
X95072Y-52701D01*
X95044Y-52673D01*
X95044Y-52729D01*
X95269Y-52870D02*
X95410Y-53263D01*
X95550Y-52870D01*
X96000Y-53235D02*
X95944Y-53263D01*
X95831Y-53263D01*
X95775Y-53235D01*
X95747Y-53179D01*
X95747Y-52954D01*
X95775Y-52898D01*
X95831Y-52870D01*
X95944Y-52870D01*
X96000Y-52898D01*
X96028Y-52954D01*
X96028Y-53010D01*
X95747Y-53067D01*
X96281Y-53263D02*
X96281Y-52870D01*
X96281Y-52982D02*
X96309Y-52926D01*
X96338Y-52898D01*
X96394Y-52870D01*
X96450Y-52870D01*
X96647Y-53038D02*
X97097Y-53038D01*
X97378Y-53263D02*
X97378Y-52673D01*
X97378Y-52898D02*
X97434Y-52870D01*
X97547Y-52870D01*
X97603Y-52898D01*
X97631Y-52926D01*
X97659Y-52982D01*
X97659Y-53151D01*
X97631Y-53207D01*
X97603Y-53235D01*
X97547Y-53263D01*
X97434Y-53263D01*
X97378Y-53235D01*
X97997Y-53263D02*
X97940Y-53235D01*
X97912Y-53207D01*
X97884Y-53151D01*
X97884Y-52982D01*
X97912Y-52926D01*
X97940Y-52898D01*
X97997Y-52870D01*
X98081Y-52870D01*
X98137Y-52898D01*
X98165Y-52926D01*
X98194Y-52982D01*
X98194Y-53151D01*
X98165Y-53207D01*
X98137Y-53235D01*
X98081Y-53263D01*
X97997Y-53263D01*
X98700Y-53263D02*
X98700Y-52954D01*
X98672Y-52898D01*
X98615Y-52870D01*
X98503Y-52870D01*
X98447Y-52898D01*
X98700Y-53235D02*
X98643Y-53263D01*
X98503Y-53263D01*
X98447Y-53235D01*
X98418Y-53179D01*
X98418Y-53123D01*
X98447Y-53067D01*
X98503Y-53038D01*
X98643Y-53038D01*
X98700Y-53010D01*
X98981Y-53263D02*
X98981Y-52870D01*
X98981Y-52982D02*
X99009Y-52926D01*
X99037Y-52898D01*
X99093Y-52870D01*
X99150Y-52870D01*
X99600Y-53263D02*
X99600Y-52673D01*
X99600Y-53235D02*
X99543Y-53263D01*
X99431Y-53263D01*
X99375Y-53235D01*
X99347Y-53207D01*
X99318Y-53151D01*
X99318Y-52982D01*
X99347Y-52926D01*
X99375Y-52898D01*
X99431Y-52870D01*
X99543Y-52870D01*
X99600Y-52898D01*
X100668Y-53263D02*
X100471Y-52982D01*
X100331Y-53263D02*
X100331Y-52673D01*
X100556Y-52673D01*
X100612Y-52701D01*
X100640Y-52729D01*
X100668Y-52785D01*
X100668Y-52870D01*
X100640Y-52926D01*
X100612Y-52954D01*
X100556Y-52982D01*
X100331Y-52982D01*
X101146Y-53235D02*
X101090Y-53263D01*
X100978Y-53263D01*
X100921Y-53235D01*
X100893Y-53179D01*
X100893Y-52954D01*
X100921Y-52898D01*
X100978Y-52870D01*
X101090Y-52870D01*
X101146Y-52898D01*
X101174Y-52954D01*
X101174Y-53010D01*
X100893Y-53067D01*
X101371Y-52870D02*
X101512Y-53263D01*
X101652Y-52870D01*
X101877Y-53038D02*
X102327Y-53038D01*
X102721Y-52673D02*
X102777Y-52673D01*
X102834Y-52701D01*
X102862Y-52729D01*
X102890Y-52785D01*
X102918Y-52898D01*
X102918Y-53038D01*
X102890Y-53151D01*
X102862Y-53207D01*
X102834Y-53235D01*
X102777Y-53263D01*
X102721Y-53263D01*
X102665Y-53235D01*
X102637Y-53207D01*
X102609Y-53151D01*
X102580Y-53038D01*
X102580Y-52898D01*
X102609Y-52785D01*
X102637Y-52729D01*
X102665Y-52701D01*
X102721Y-52673D01*
X103171Y-53207D02*
X103199Y-53235D01*
X103171Y-53263D01*
X103143Y-53235D01*
X103171Y-53207D01*
X103171Y-53263D01*
X103762Y-53263D02*
X103424Y-53263D01*
X103593Y-53263D02*
X103593Y-52673D01*
X103537Y-52757D01*
X103480Y-52813D01*
X103424Y-52842D01*
X92541Y-53674D02*
X92569Y-53646D01*
X92625Y-53618D01*
X92766Y-53618D01*
X92822Y-53646D01*
X92850Y-53674D01*
X92879Y-53730D01*
X92879Y-53786D01*
X92850Y-53871D01*
X92513Y-54208D01*
X92879Y-54208D01*
X93244Y-53618D02*
X93300Y-53618D01*
X93357Y-53646D01*
X93385Y-53674D01*
X93413Y-53730D01*
X93441Y-53843D01*
X93441Y-53983D01*
X93413Y-54096D01*
X93385Y-54152D01*
X93357Y-54180D01*
X93300Y-54208D01*
X93244Y-54208D01*
X93188Y-54180D01*
X93160Y-54152D01*
X93132Y-54096D01*
X93104Y-53983D01*
X93104Y-53843D01*
X93132Y-53730D01*
X93160Y-53674D01*
X93188Y-53646D01*
X93244Y-53618D01*
X94003Y-54208D02*
X93666Y-54208D01*
X93835Y-54208D02*
X93835Y-53618D01*
X93778Y-53702D01*
X93722Y-53758D01*
X93666Y-53786D01*
X94510Y-53815D02*
X94510Y-54208D01*
X94369Y-53590D02*
X94228Y-54011D01*
X94594Y-54011D01*
X94819Y-53983D02*
X95269Y-53983D01*
X95859Y-54208D02*
X95522Y-54208D01*
X95691Y-54208D02*
X95691Y-53618D01*
X95634Y-53702D01*
X95578Y-53758D01*
X95522Y-53786D01*
X96225Y-53618D02*
X96281Y-53618D01*
X96338Y-53646D01*
X96366Y-53674D01*
X96394Y-53730D01*
X96422Y-53843D01*
X96422Y-53983D01*
X96394Y-54096D01*
X96366Y-54152D01*
X96338Y-54180D01*
X96281Y-54208D01*
X96225Y-54208D01*
X96169Y-54180D01*
X96141Y-54152D01*
X96113Y-54096D01*
X96084Y-53983D01*
X96084Y-53843D01*
X96113Y-53730D01*
X96141Y-53674D01*
X96169Y-53646D01*
X96225Y-53618D01*
X96675Y-53983D02*
X97125Y-53983D01*
X97378Y-53674D02*
X97406Y-53646D01*
X97462Y-53618D01*
X97603Y-53618D01*
X97659Y-53646D01*
X97687Y-53674D01*
X97715Y-53730D01*
X97715Y-53786D01*
X97687Y-53871D01*
X97350Y-54208D01*
X97715Y-54208D01*
X98081Y-53618D02*
X98137Y-53618D01*
X98194Y-53646D01*
X98222Y-53674D01*
X98250Y-53730D01*
X98278Y-53843D01*
X98278Y-53983D01*
X98250Y-54096D01*
X98222Y-54152D01*
X98194Y-54180D01*
X98137Y-54208D01*
X98081Y-54208D01*
X98025Y-54180D01*
X97997Y-54152D01*
X97969Y-54096D01*
X97940Y-53983D01*
X97940Y-53843D01*
X97969Y-53730D01*
X97997Y-53674D01*
X98025Y-53646D01*
X98081Y-53618D01*
G54D12*
X106330Y-53705D02*
X107330Y-53705D01*
X107330Y-53705D02*
X107330Y-55705D01*
X107330Y-55705D02*
X106330Y-55705D01*
X106330Y-55705D02*
X106330Y-53705D01*
X76950Y-66240D02*
X75950Y-66240D01*
X75950Y-65240D02*
X76950Y-65240D01*
X75950Y-66240D02*
X75950Y-65240D01*
X76950Y-65240D02*
X76950Y-66240D01*
X96050Y-59990D02*
X97050Y-59990D01*
X97050Y-60990D02*
X96050Y-60990D01*
X97050Y-59990D02*
X97050Y-60990D01*
X96050Y-60990D02*
X96050Y-59990D01*
X102865Y-61230D02*
X103865Y-61230D01*
X103865Y-62230D02*
X102865Y-62230D01*
X103865Y-61230D02*
X103865Y-62230D01*
X102865Y-62230D02*
X102865Y-61230D01*
G54D10*
X51715Y-70910D02*
X56115Y-70910D01*
X56115Y-70910D02*
X56115Y-61910D01*
X56115Y-61910D02*
X51715Y-61910D01*
X51715Y-61910D02*
X51715Y-70910D01*
G54D13*
X101790Y-64610D02*
X101790Y-64050D01*
X103060Y-64680D02*
X102250Y-64680D01*
X102250Y-63960D02*
X103060Y-63960D01*
X103520Y-64610D02*
X103520Y-64050D01*
X103090Y-64050D02*
X103510Y-64050D01*
X103510Y-64610D02*
X103080Y-64610D01*
X102230Y-64610D02*
X101790Y-64610D01*
X101800Y-64050D02*
X102230Y-64050D01*
X103070Y-64680D02*
X103070Y-63960D01*
X102410Y-64680D02*
X102410Y-63960D01*
X102250Y-63960D02*
X102250Y-64680D01*
X92830Y-62720D02*
X93390Y-62720D01*
X92760Y-63990D02*
X92760Y-63180D01*
X93480Y-63180D02*
X93480Y-63990D01*
X92830Y-64450D02*
X93390Y-64450D01*
X93390Y-64020D02*
X93390Y-64440D01*
X92830Y-64440D02*
X92830Y-64010D01*
X92830Y-63160D02*
X92830Y-62720D01*
X93390Y-62730D02*
X93390Y-63160D01*
X92760Y-64000D02*
X93480Y-64000D01*
X92760Y-63340D02*
X93480Y-63340D01*
X93480Y-63180D02*
X92760Y-63180D01*
G54D14*
X57710Y-53230D02*
G75*
G03X57710Y-53230I-900J0D01*
G74*
G01*
X58738Y-71764D02*
G75*
G03X58738Y-71764I-900J0D01*
G74*
G01*
X113418Y-60956D02*
G75*
G03X113418Y-60956I-900J0D01*
G74*
G01*
G54D10*
X113496Y-58030D02*
G75*
G03X113496Y-58030I-1258J0D01*
G74*
G01*
G54D15*
X113218Y-58530D02*
X111238Y-58530D01*
X111238Y-58530D02*
X111238Y-57530D01*
X111238Y-57530D02*
X113238Y-57530D01*
X113238Y-57530D02*
X113238Y-58530D01*
X113238Y-58280D02*
X112988Y-58530D01*
G54D10*
X100646Y-63835D02*
G75*
G03X100646Y-63835I-1258J0D01*
G74*
G01*
G54D15*
X98408Y-63335D02*
X100388Y-63335D01*
X100388Y-63335D02*
X100388Y-64335D01*
X100388Y-64335D02*
X98388Y-64335D01*
X98388Y-64335D02*
X98388Y-63335D01*
X98388Y-63585D02*
X98638Y-63335D01*
G54D10*
X81133Y-63960D02*
G75*
G03X81133Y-63960I-1258J0D01*
G74*
G01*
G54D15*
X80855Y-64460D02*
X78875Y-64460D01*
X78875Y-64460D02*
X78875Y-63460D01*
X78875Y-63460D02*
X80875Y-63460D01*
X80875Y-63460D02*
X80875Y-64460D01*
X80875Y-64210D02*
X80625Y-64460D01*
G54D10*
X61573Y-69975D02*
G75*
G03X61573Y-69975I-1258J0D01*
G74*
G01*
G54D15*
X59815Y-70955D02*
X59815Y-68975D01*
X59815Y-68975D02*
X60815Y-68975D01*
X60815Y-68975D02*
X60815Y-70975D01*
X60815Y-70975D02*
X59815Y-70975D01*
X60065Y-70975D02*
X59815Y-70725D01*
G54D10*
X92098Y-63830D02*
G75*
G03X92098Y-63830I-1258J0D01*
G74*
G01*
G54D15*
X89860Y-63330D02*
X91840Y-63330D01*
X91840Y-63330D02*
X91840Y-64330D01*
X91840Y-64330D02*
X89840Y-64330D01*
X89840Y-64330D02*
X89840Y-63330D01*
X89840Y-63580D02*
X90090Y-63330D01*
G54D10*
X107958Y-68140D02*
G75*
G03X107958Y-68140I-1258J0D01*
G74*
G01*
G54D15*
X107200Y-67160D02*
X107200Y-69140D01*
X107200Y-69140D02*
X106200Y-69140D01*
X106200Y-69140D02*
X106200Y-67140D01*
X106200Y-67140D02*
X107200Y-67140D01*
X106950Y-67140D02*
X107200Y-67390D01*
G54D10*
X112732Y-55066D02*
G75*
G03X112732Y-55066I-1258J0D01*
G74*
G01*
G54D15*
X111974Y-54086D02*
X111974Y-56066D01*
X111974Y-56066D02*
X110974Y-56066D01*
X110974Y-56066D02*
X110974Y-54066D01*
X110974Y-54066D02*
X111974Y-54066D01*
X111724Y-54066D02*
X111974Y-54316D01*
G54D13*
X58615Y-58110D02*
X59255Y-58110D01*
X59255Y-57210D02*
X58615Y-57210D01*
X59255Y-57030D02*
X58615Y-57030D01*
X58615Y-57030D02*
X58615Y-58290D01*
X58615Y-58290D02*
X59255Y-58290D01*
X59255Y-58290D02*
X59255Y-57030D01*
X113110Y-55470D02*
X113750Y-55470D01*
X113750Y-54570D02*
X113110Y-54570D01*
X113750Y-54390D02*
X113110Y-54390D01*
X113110Y-54390D02*
X113110Y-55650D01*
X113110Y-55650D02*
X113750Y-55650D01*
X113750Y-55650D02*
X113750Y-54390D01*
X79875Y-71015D02*
X79875Y-70375D01*
X78975Y-70375D02*
X78975Y-71015D01*
X78795Y-70375D02*
X78795Y-71015D01*
X78795Y-71015D02*
X80055Y-71015D01*
X80055Y-71015D02*
X80055Y-70375D01*
X80055Y-70375D02*
X78795Y-70375D01*
X77985Y-72063D02*
X77345Y-72063D01*
X77345Y-72963D02*
X77985Y-72963D01*
X77345Y-73143D02*
X77985Y-73143D01*
X77985Y-73143D02*
X77985Y-71883D01*
X77985Y-71883D02*
X77345Y-71883D01*
X77345Y-71883D02*
X77345Y-73143D01*
X68190Y-61820D02*
X67550Y-61820D01*
X67550Y-62720D02*
X68190Y-62720D01*
X67550Y-62900D02*
X68190Y-62900D01*
X68190Y-62900D02*
X68190Y-61640D01*
X68190Y-61640D02*
X67550Y-61640D01*
X67550Y-61640D02*
X67550Y-62900D01*
X88570Y-64350D02*
X89210Y-64350D01*
X89210Y-63450D02*
X88570Y-63450D01*
X89210Y-63270D02*
X88570Y-63270D01*
X88570Y-63270D02*
X88570Y-64530D01*
X88570Y-64530D02*
X89210Y-64530D01*
X89210Y-64530D02*
X89210Y-63270D01*
X104925Y-62365D02*
X105565Y-62365D01*
X105565Y-61465D02*
X104925Y-61465D01*
X105565Y-61285D02*
X104925Y-61285D01*
X104925Y-61285D02*
X104925Y-62545D01*
X104925Y-62545D02*
X105565Y-62545D01*
X105565Y-62545D02*
X105565Y-61285D01*
X96546Y-62294D02*
X96546Y-61654D01*
X95646Y-61654D02*
X95646Y-62294D01*
X95466Y-61654D02*
X95466Y-62294D01*
X95466Y-62294D02*
X96726Y-62294D01*
X96726Y-62294D02*
X96726Y-61654D01*
X96726Y-61654D02*
X95466Y-61654D01*
X98014Y-61866D02*
X98654Y-61866D01*
X98654Y-60966D02*
X98014Y-60966D01*
X98654Y-60786D02*
X98014Y-60786D01*
X98014Y-60786D02*
X98014Y-62046D01*
X98014Y-62046D02*
X98654Y-62046D01*
X98654Y-62046D02*
X98654Y-60786D01*
X83304Y-64448D02*
X83304Y-65088D01*
X84204Y-65088D02*
X84204Y-64448D01*
X84384Y-65088D02*
X84384Y-64448D01*
X84384Y-64448D02*
X83124Y-64448D01*
X83124Y-64448D02*
X83124Y-65088D01*
X83124Y-65088D02*
X84384Y-65088D01*
X82686Y-62820D02*
X83326Y-62820D01*
X83326Y-61920D02*
X82686Y-61920D01*
X83326Y-61740D02*
X82686Y-61740D01*
X82686Y-61740D02*
X82686Y-63000D01*
X82686Y-63000D02*
X83326Y-63000D01*
X83326Y-63000D02*
X83326Y-61740D01*
X63715Y-62903D02*
X63075Y-62903D01*
X63075Y-63803D02*
X63715Y-63803D01*
X63075Y-63983D02*
X63715Y-63983D01*
X63715Y-63983D02*
X63715Y-62723D01*
X63715Y-62723D02*
X63075Y-62723D01*
X63075Y-62723D02*
X63075Y-63983D01*
X64574Y-62698D02*
X65214Y-62698D01*
X65214Y-61798D02*
X64574Y-61798D01*
X65214Y-61618D02*
X64574Y-61618D01*
X64574Y-61618D02*
X64574Y-62878D01*
X64574Y-62878D02*
X65214Y-62878D01*
X65214Y-62878D02*
X65214Y-61618D01*
X104025Y-71015D02*
X104025Y-70375D01*
X103125Y-70375D02*
X103125Y-71015D01*
X102945Y-70375D02*
X102945Y-71015D01*
X102945Y-71015D02*
X104205Y-71015D01*
X104205Y-71015D02*
X104205Y-70375D01*
X104205Y-70375D02*
X102945Y-70375D01*
X97320Y-69770D02*
X96680Y-69770D01*
X96680Y-70670D02*
X97320Y-70670D01*
X96680Y-70850D02*
X97320Y-70850D01*
X97320Y-70850D02*
X97320Y-69590D01*
X97320Y-69590D02*
X96680Y-69590D01*
X96680Y-69590D02*
X96680Y-70850D01*
X96320Y-69770D02*
X95680Y-69770D01*
X95680Y-70670D02*
X96320Y-70670D01*
X95680Y-70850D02*
X96320Y-70850D01*
X96320Y-70850D02*
X96320Y-69590D01*
X96320Y-69590D02*
X95680Y-69590D01*
X95680Y-69590D02*
X95680Y-70850D01*
X110800Y-70270D02*
X110800Y-69630D01*
X109900Y-69630D02*
X109900Y-70270D01*
X109720Y-69630D02*
X109720Y-70270D01*
X109720Y-70270D02*
X110980Y-70270D01*
X110980Y-70270D02*
X110980Y-69630D01*
X110980Y-69630D02*
X109720Y-69630D01*
X109255Y-68400D02*
X109895Y-68400D01*
X109895Y-67500D02*
X109255Y-67500D01*
X109895Y-67320D02*
X109255Y-67320D01*
X109255Y-67320D02*
X109255Y-68580D01*
X109255Y-68580D02*
X109895Y-68580D01*
X109895Y-68580D02*
X109895Y-67320D01*
G54D16*
X99618Y-61429D02*
X99618Y-61351D01*
X99618Y-61351D02*
X99540Y-61351D01*
X99540Y-61429D02*
X99540Y-61351D01*
X99618Y-61429D02*
X99540Y-61429D01*
X99854Y-61213D02*
X99854Y-61076D01*
X99854Y-61076D02*
X99756Y-61076D01*
X99756Y-61213D02*
X99756Y-61076D01*
X99854Y-61213D02*
X99756Y-61213D01*
X99854Y-61076D02*
X99854Y-61036D01*
X99854Y-61036D02*
X99383Y-61036D01*
X99383Y-61076D02*
X99383Y-61036D01*
X99854Y-61076D02*
X99383Y-61076D01*
X99363Y-61076D02*
X99363Y-61036D01*
X99363Y-61036D02*
X99304Y-61036D01*
X99304Y-61076D02*
X99304Y-61036D01*
X99363Y-61076D02*
X99304Y-61076D01*
X99854Y-61744D02*
X99854Y-61704D01*
X99854Y-61704D02*
X99383Y-61704D01*
X99383Y-61744D02*
X99383Y-61704D01*
X99854Y-61744D02*
X99383Y-61744D01*
X99363Y-61744D02*
X99363Y-61704D01*
X99363Y-61704D02*
X99304Y-61704D01*
X99304Y-61744D02*
X99304Y-61704D01*
X99363Y-61744D02*
X99304Y-61744D01*
X99854Y-61213D02*
X99854Y-61154D01*
X99854Y-61154D02*
X99756Y-61154D01*
X99756Y-61213D02*
X99756Y-61154D01*
X99854Y-61213D02*
X99756Y-61213D01*
G54D17*
X99874Y-60780D02*
X99874Y-62000D01*
X99874Y-62000D02*
X99284Y-62000D01*
X99284Y-62000D02*
X99284Y-60780D01*
X99284Y-60780D02*
X99874Y-60780D01*
X99775Y-61605D02*
G75*
G03X99774Y-61173I-196J215D01*
G74*
G01*
X99382Y-61605D02*
G75*
G03X99774Y-61606I196J215D01*
G74*
G01*
X99382Y-61174D02*
G75*
G03X99383Y-61606I196J-215D01*
G74*
G01*
X99775Y-61174D02*
G75*
G03X99383Y-61173I-196J-215D01*
G74*
G01*
G54D16*
X101104Y-61349D02*
X101104Y-61427D01*
X101104Y-61427D02*
X101182Y-61427D01*
X101182Y-61349D02*
X101182Y-61427D01*
X101104Y-61349D02*
X101182Y-61349D01*
X100868Y-61565D02*
X100868Y-61702D01*
X100868Y-61702D02*
X100966Y-61702D01*
X100966Y-61565D02*
X100966Y-61702D01*
X100868Y-61565D02*
X100966Y-61565D01*
X100868Y-61702D02*
X100868Y-61742D01*
X100868Y-61742D02*
X101339Y-61742D01*
X101339Y-61702D02*
X101339Y-61742D01*
X100868Y-61702D02*
X101339Y-61702D01*
X101359Y-61702D02*
X101359Y-61742D01*
X101359Y-61742D02*
X101418Y-61742D01*
X101418Y-61702D02*
X101418Y-61742D01*
X101359Y-61702D02*
X101418Y-61702D01*
X100868Y-61034D02*
X100868Y-61074D01*
X100868Y-61074D02*
X101339Y-61074D01*
X101339Y-61034D02*
X101339Y-61074D01*
X100868Y-61034D02*
X101339Y-61034D01*
X101359Y-61034D02*
X101359Y-61074D01*
X101359Y-61074D02*
X101418Y-61074D01*
X101418Y-61034D02*
X101418Y-61074D01*
X101359Y-61034D02*
X101418Y-61034D01*
X100868Y-61565D02*
X100868Y-61624D01*
X100868Y-61624D02*
X100966Y-61624D01*
X100966Y-61565D02*
X100966Y-61624D01*
X100868Y-61565D02*
X100966Y-61565D01*
G54D17*
X100848Y-61998D02*
X100848Y-60778D01*
X100848Y-60778D02*
X101438Y-60778D01*
X101438Y-60778D02*
X101438Y-61998D01*
X101438Y-61998D02*
X100848Y-61998D01*
X100946Y-61172D02*
G75*
G03X100947Y-61604I196J-215D01*
G74*
G01*
X101339Y-61172D02*
G75*
G03X100947Y-61171I-196J-215D01*
G74*
G01*
X101339Y-61603D02*
G75*
G03X101338Y-61171I-196J215D01*
G74*
G01*
X100946Y-61603D02*
G75*
G03X101338Y-61604I196J215D01*
G74*
G01*
G54D16*
X79955Y-62383D02*
X79955Y-62305D01*
X79955Y-62305D02*
X79877Y-62305D01*
X79877Y-62383D02*
X79877Y-62305D01*
X79955Y-62383D02*
X79877Y-62383D01*
X80191Y-62167D02*
X80191Y-62030D01*
X80191Y-62030D02*
X80093Y-62030D01*
X80093Y-62167D02*
X80093Y-62030D01*
X80191Y-62167D02*
X80093Y-62167D01*
X80191Y-62030D02*
X80191Y-61990D01*
X80191Y-61990D02*
X79720Y-61990D01*
X79720Y-62030D02*
X79720Y-61990D01*
X80191Y-62030D02*
X79720Y-62030D01*
X79700Y-62030D02*
X79700Y-61990D01*
X79700Y-61990D02*
X79641Y-61990D01*
X79641Y-62030D02*
X79641Y-61990D01*
X79700Y-62030D02*
X79641Y-62030D01*
X80191Y-62698D02*
X80191Y-62658D01*
X80191Y-62658D02*
X79720Y-62658D01*
X79720Y-62698D02*
X79720Y-62658D01*
X80191Y-62698D02*
X79720Y-62698D01*
X79700Y-62698D02*
X79700Y-62658D01*
X79700Y-62658D02*
X79641Y-62658D01*
X79641Y-62698D02*
X79641Y-62658D01*
X79700Y-62698D02*
X79641Y-62698D01*
X80191Y-62167D02*
X80191Y-62108D01*
X80191Y-62108D02*
X80093Y-62108D01*
X80093Y-62167D02*
X80093Y-62108D01*
X80191Y-62167D02*
X80093Y-62167D01*
G54D17*
X80211Y-61734D02*
X80211Y-62954D01*
X80211Y-62954D02*
X79621Y-62954D01*
X79621Y-62954D02*
X79621Y-61734D01*
X79621Y-61734D02*
X80211Y-61734D01*
X80112Y-62559D02*
G75*
G03X80111Y-62127I-196J215D01*
G74*
G01*
X79719Y-62559D02*
G75*
G03X80111Y-62560I196J215D01*
G74*
G01*
X79719Y-62128D02*
G75*
G03X79720Y-62560I196J-215D01*
G74*
G01*
X80112Y-62128D02*
G75*
G03X79720Y-62127I-196J-215D01*
G74*
G01*
G54D16*
X81149Y-62320D02*
X81149Y-62398D01*
X81149Y-62398D02*
X81227Y-62398D01*
X81227Y-62320D02*
X81227Y-62398D01*
X81149Y-62320D02*
X81227Y-62320D01*
X80913Y-62536D02*
X80913Y-62673D01*
X80913Y-62673D02*
X81011Y-62673D01*
X81011Y-62536D02*
X81011Y-62673D01*
X80913Y-62536D02*
X81011Y-62536D01*
X80913Y-62673D02*
X80913Y-62713D01*
X80913Y-62713D02*
X81384Y-62713D01*
X81384Y-62673D02*
X81384Y-62713D01*
X80913Y-62673D02*
X81384Y-62673D01*
X81404Y-62673D02*
X81404Y-62713D01*
X81404Y-62713D02*
X81463Y-62713D01*
X81463Y-62673D02*
X81463Y-62713D01*
X81404Y-62673D02*
X81463Y-62673D01*
X80913Y-62005D02*
X80913Y-62045D01*
X80913Y-62045D02*
X81384Y-62045D01*
X81384Y-62005D02*
X81384Y-62045D01*
X80913Y-62005D02*
X81384Y-62005D01*
X81404Y-62005D02*
X81404Y-62045D01*
X81404Y-62045D02*
X81463Y-62045D01*
X81463Y-62005D02*
X81463Y-62045D01*
X81404Y-62005D02*
X81463Y-62005D01*
X80913Y-62536D02*
X80913Y-62595D01*
X80913Y-62595D02*
X81011Y-62595D01*
X81011Y-62536D02*
X81011Y-62595D01*
X80913Y-62536D02*
X81011Y-62536D01*
G54D17*
X80893Y-62969D02*
X80893Y-61749D01*
X80893Y-61749D02*
X81483Y-61749D01*
X81483Y-61749D02*
X81483Y-62969D01*
X81483Y-62969D02*
X80893Y-62969D01*
X80991Y-62143D02*
G75*
G03X80992Y-62575I196J-215D01*
G74*
G01*
X81384Y-62143D02*
G75*
G03X80992Y-62142I-196J-215D01*
G74*
G01*
X81384Y-62574D02*
G75*
G03X81383Y-62142I-196J215D01*
G74*
G01*
X80991Y-62574D02*
G75*
G03X81383Y-62575I196J215D01*
G74*
G01*
G54D16*
X60345Y-62291D02*
X60345Y-62213D01*
X60345Y-62213D02*
X60267Y-62213D01*
X60267Y-62291D02*
X60267Y-62213D01*
X60345Y-62291D02*
X60267Y-62291D01*
X60581Y-62075D02*
X60581Y-61938D01*
X60581Y-61938D02*
X60483Y-61938D01*
X60483Y-62075D02*
X60483Y-61938D01*
X60581Y-62075D02*
X60483Y-62075D01*
X60581Y-61938D02*
X60581Y-61898D01*
X60581Y-61898D02*
X60110Y-61898D01*
X60110Y-61938D02*
X60110Y-61898D01*
X60581Y-61938D02*
X60110Y-61938D01*
X60090Y-61938D02*
X60090Y-61898D01*
X60090Y-61898D02*
X60031Y-61898D01*
X60031Y-61938D02*
X60031Y-61898D01*
X60090Y-61938D02*
X60031Y-61938D01*
X60581Y-62606D02*
X60581Y-62566D01*
X60581Y-62566D02*
X60110Y-62566D01*
X60110Y-62606D02*
X60110Y-62566D01*
X60581Y-62606D02*
X60110Y-62606D01*
X60090Y-62606D02*
X60090Y-62566D01*
X60090Y-62566D02*
X60031Y-62566D01*
X60031Y-62606D02*
X60031Y-62566D01*
X60090Y-62606D02*
X60031Y-62606D01*
X60581Y-62075D02*
X60581Y-62016D01*
X60581Y-62016D02*
X60483Y-62016D01*
X60483Y-62075D02*
X60483Y-62016D01*
X60581Y-62075D02*
X60483Y-62075D01*
G54D17*
X60601Y-61642D02*
X60601Y-62862D01*
X60601Y-62862D02*
X60011Y-62862D01*
X60011Y-62862D02*
X60011Y-61642D01*
X60011Y-61642D02*
X60601Y-61642D01*
X60502Y-62467D02*
G75*
G03X60501Y-62035I-196J215D01*
G74*
G01*
X60109Y-62467D02*
G75*
G03X60501Y-62468I196J215D01*
G74*
G01*
X60109Y-62036D02*
G75*
G03X60110Y-62468I196J-215D01*
G74*
G01*
X60502Y-62036D02*
G75*
G03X60110Y-62035I-196J-215D01*
G74*
G01*
G54D16*
X61785Y-62213D02*
X61785Y-62291D01*
X61785Y-62291D02*
X61863Y-62291D01*
X61863Y-62213D02*
X61863Y-62291D01*
X61785Y-62213D02*
X61863Y-62213D01*
X61549Y-62429D02*
X61549Y-62566D01*
X61549Y-62566D02*
X61647Y-62566D01*
X61647Y-62429D02*
X61647Y-62566D01*
X61549Y-62429D02*
X61647Y-62429D01*
X61549Y-62566D02*
X61549Y-62606D01*
X61549Y-62606D02*
X62020Y-62606D01*
X62020Y-62566D02*
X62020Y-62606D01*
X61549Y-62566D02*
X62020Y-62566D01*
X62040Y-62566D02*
X62040Y-62606D01*
X62040Y-62606D02*
X62099Y-62606D01*
X62099Y-62566D02*
X62099Y-62606D01*
X62040Y-62566D02*
X62099Y-62566D01*
X61549Y-61898D02*
X61549Y-61938D01*
X61549Y-61938D02*
X62020Y-61938D01*
X62020Y-61898D02*
X62020Y-61938D01*
X61549Y-61898D02*
X62020Y-61898D01*
X62040Y-61898D02*
X62040Y-61938D01*
X62040Y-61938D02*
X62099Y-61938D01*
X62099Y-61898D02*
X62099Y-61938D01*
X62040Y-61898D02*
X62099Y-61898D01*
X61549Y-62429D02*
X61549Y-62488D01*
X61549Y-62488D02*
X61647Y-62488D01*
X61647Y-62429D02*
X61647Y-62488D01*
X61549Y-62429D02*
X61647Y-62429D01*
G54D17*
X61529Y-62862D02*
X61529Y-61642D01*
X61529Y-61642D02*
X62119Y-61642D01*
X62119Y-61642D02*
X62119Y-62862D01*
X62119Y-62862D02*
X61529Y-62862D01*
X61627Y-62036D02*
G75*
G03X61628Y-62468I196J-215D01*
G74*
G01*
X62020Y-62036D02*
G75*
G03X61628Y-62035I-196J-215D01*
G74*
G01*
X62020Y-62467D02*
G75*
G03X62019Y-62035I-196J215D01*
G74*
G01*
X61627Y-62467D02*
G75*
G03X62019Y-62468I196J215D01*
G74*
G01*
G54D16*
X60225Y-58811D02*
X60225Y-58733D01*
X60225Y-58733D02*
X60147Y-58733D01*
X60147Y-58811D02*
X60147Y-58733D01*
X60225Y-58811D02*
X60147Y-58811D01*
X60461Y-58595D02*
X60461Y-58458D01*
X60461Y-58458D02*
X60363Y-58458D01*
X60363Y-58595D02*
X60363Y-58458D01*
X60461Y-58595D02*
X60363Y-58595D01*
X60461Y-58458D02*
X60461Y-58418D01*
X60461Y-58418D02*
X59990Y-58418D01*
X59990Y-58458D02*
X59990Y-58418D01*
X60461Y-58458D02*
X59990Y-58458D01*
X59970Y-58458D02*
X59970Y-58418D01*
X59970Y-58418D02*
X59911Y-58418D01*
X59911Y-58458D02*
X59911Y-58418D01*
X59970Y-58458D02*
X59911Y-58458D01*
X60461Y-59126D02*
X60461Y-59086D01*
X60461Y-59086D02*
X59990Y-59086D01*
X59990Y-59126D02*
X59990Y-59086D01*
X60461Y-59126D02*
X59990Y-59126D01*
X59970Y-59126D02*
X59970Y-59086D01*
X59970Y-59086D02*
X59911Y-59086D01*
X59911Y-59126D02*
X59911Y-59086D01*
X59970Y-59126D02*
X59911Y-59126D01*
X60461Y-58595D02*
X60461Y-58536D01*
X60461Y-58536D02*
X60363Y-58536D01*
X60363Y-58595D02*
X60363Y-58536D01*
X60461Y-58595D02*
X60363Y-58595D01*
G54D17*
X60481Y-58162D02*
X60481Y-59382D01*
X60481Y-59382D02*
X59891Y-59382D01*
X59891Y-59382D02*
X59891Y-58162D01*
X59891Y-58162D02*
X60481Y-58162D01*
X60382Y-58987D02*
G75*
G03X60381Y-58555I-196J215D01*
G74*
G01*
X59989Y-58987D02*
G75*
G03X60381Y-58988I196J215D01*
G74*
G01*
X59989Y-58556D02*
G75*
G03X59990Y-58988I196J-215D01*
G74*
G01*
X60382Y-58556D02*
G75*
G03X59990Y-58555I-196J-215D01*
G74*
G01*
G54D16*
X112752Y-53091D02*
X112830Y-53091D01*
X112830Y-53091D02*
X112830Y-53013D01*
X112752Y-53013D02*
X112830Y-53013D01*
X112752Y-53091D02*
X112752Y-53013D01*
X112968Y-53327D02*
X113105Y-53327D01*
X113105Y-53327D02*
X113105Y-53229D01*
X112968Y-53229D02*
X113105Y-53229D01*
X112968Y-53327D02*
X112968Y-53229D01*
X113105Y-53327D02*
X113145Y-53327D01*
X113145Y-53327D02*
X113145Y-52856D01*
X113105Y-52856D02*
X113145Y-52856D01*
X113105Y-53327D02*
X113105Y-52856D01*
X113105Y-52836D02*
X113145Y-52836D01*
X113145Y-52836D02*
X113145Y-52777D01*
X113105Y-52777D02*
X113145Y-52777D01*
X113105Y-52836D02*
X113105Y-52777D01*
X112437Y-53327D02*
X112477Y-53327D01*
X112477Y-53327D02*
X112477Y-52856D01*
X112437Y-52856D02*
X112477Y-52856D01*
X112437Y-53327D02*
X112437Y-52856D01*
X112437Y-52836D02*
X112477Y-52836D01*
X112477Y-52836D02*
X112477Y-52777D01*
X112437Y-52777D02*
X112477Y-52777D01*
X112437Y-52836D02*
X112437Y-52777D01*
X112968Y-53327D02*
X113027Y-53327D01*
X113027Y-53327D02*
X113027Y-53229D01*
X112968Y-53229D02*
X113027Y-53229D01*
X112968Y-53327D02*
X112968Y-53229D01*
G54D17*
X113401Y-53347D02*
X112181Y-53347D01*
X112181Y-53347D02*
X112181Y-52757D01*
X112181Y-52757D02*
X113401Y-52757D01*
X113401Y-52757D02*
X113401Y-53347D01*
X112575Y-53248D02*
G75*
G03X113007Y-53247I215J196D01*
G74*
G01*
X112575Y-52855D02*
G75*
G03X112574Y-53247I215J-196D01*
G74*
G01*
X113006Y-52855D02*
G75*
G03X112574Y-52856I-215J-196D01*
G74*
G01*
X113006Y-53248D02*
G75*
G03X113007Y-52856I-215J196D01*
G74*
G01*
G54D16*
X110826Y-67941D02*
X110826Y-68019D01*
X110826Y-68019D02*
X110904Y-68019D01*
X110904Y-67941D02*
X110904Y-68019D01*
X110826Y-67941D02*
X110904Y-67941D01*
X110590Y-68157D02*
X110590Y-68294D01*
X110590Y-68294D02*
X110688Y-68294D01*
X110688Y-68157D02*
X110688Y-68294D01*
X110590Y-68157D02*
X110688Y-68157D01*
X110590Y-68294D02*
X110590Y-68334D01*
X110590Y-68334D02*
X111061Y-68334D01*
X111061Y-68294D02*
X111061Y-68334D01*
X110590Y-68294D02*
X111061Y-68294D01*
X111081Y-68294D02*
X111081Y-68334D01*
X111081Y-68334D02*
X111140Y-68334D01*
X111140Y-68294D02*
X111140Y-68334D01*
X111081Y-68294D02*
X111140Y-68294D01*
X110590Y-67626D02*
X110590Y-67666D01*
X110590Y-67666D02*
X111061Y-67666D01*
X111061Y-67626D02*
X111061Y-67666D01*
X110590Y-67626D02*
X111061Y-67626D01*
X111081Y-67626D02*
X111081Y-67666D01*
X111081Y-67666D02*
X111140Y-67666D01*
X111140Y-67626D02*
X111140Y-67666D01*
X111081Y-67626D02*
X111140Y-67626D01*
X110590Y-68157D02*
X110590Y-68216D01*
X110590Y-68216D02*
X110688Y-68216D01*
X110688Y-68157D02*
X110688Y-68216D01*
X110590Y-68157D02*
X110688Y-68157D01*
G54D17*
X110570Y-68590D02*
X110570Y-67370D01*
X110570Y-67370D02*
X111160Y-67370D01*
X111160Y-67370D02*
X111160Y-68590D01*
X111160Y-68590D02*
X110570Y-68590D01*
X110668Y-67764D02*
G75*
G03X110669Y-68196I196J-215D01*
G74*
G01*
X111061Y-67764D02*
G75*
G03X110669Y-67763I-196J-215D01*
G74*
G01*
X111061Y-68195D02*
G75*
G03X111060Y-67763I-196J215D01*
G74*
G01*
X110668Y-68195D02*
G75*
G03X111060Y-68196I196J215D01*
G74*
G01*
G54D16*
X110301Y-71119D02*
X110379Y-71119D01*
X110379Y-71119D02*
X110379Y-71041D01*
X110301Y-71041D02*
X110379Y-71041D01*
X110301Y-71119D02*
X110301Y-71041D01*
X110517Y-71355D02*
X110654Y-71355D01*
X110654Y-71355D02*
X110654Y-71257D01*
X110517Y-71257D02*
X110654Y-71257D01*
X110517Y-71355D02*
X110517Y-71257D01*
X110654Y-71355D02*
X110694Y-71355D01*
X110694Y-71355D02*
X110694Y-70884D01*
X110654Y-70884D02*
X110694Y-70884D01*
X110654Y-71355D02*
X110654Y-70884D01*
X110654Y-70864D02*
X110694Y-70864D01*
X110694Y-70864D02*
X110694Y-70805D01*
X110654Y-70805D02*
X110694Y-70805D01*
X110654Y-70864D02*
X110654Y-70805D01*
X109986Y-71355D02*
X110026Y-71355D01*
X110026Y-71355D02*
X110026Y-70884D01*
X109986Y-70884D02*
X110026Y-70884D01*
X109986Y-71355D02*
X109986Y-70884D01*
X109986Y-70864D02*
X110026Y-70864D01*
X110026Y-70864D02*
X110026Y-70805D01*
X109986Y-70805D02*
X110026Y-70805D01*
X109986Y-70864D02*
X109986Y-70805D01*
X110517Y-71355D02*
X110576Y-71355D01*
X110576Y-71355D02*
X110576Y-71257D01*
X110517Y-71257D02*
X110576Y-71257D01*
X110517Y-71355D02*
X110517Y-71257D01*
G54D17*
X110950Y-71375D02*
X109730Y-71375D01*
X109730Y-71375D02*
X109730Y-70785D01*
X109730Y-70785D02*
X110950Y-70785D01*
X110950Y-70785D02*
X110950Y-71375D01*
X110124Y-71276D02*
G75*
G03X110556Y-71275I215J196D01*
G74*
G01*
X110124Y-70883D02*
G75*
G03X110123Y-71275I215J-196D01*
G74*
G01*
X110555Y-70883D02*
G75*
G03X110123Y-70884I-215J-196D01*
G74*
G01*
X110555Y-71276D02*
G75*
G03X110556Y-70884I-215J196D01*
G74*
G01*
G54D16*
X107099Y-70661D02*
X107021Y-70661D01*
X107021Y-70661D02*
X107021Y-70739D01*
X107099Y-70739D02*
X107021Y-70739D01*
X107099Y-70661D02*
X107099Y-70739D01*
X106883Y-70425D02*
X106746Y-70425D01*
X106746Y-70425D02*
X106746Y-70523D01*
X106883Y-70523D02*
X106746Y-70523D01*
X106883Y-70425D02*
X106883Y-70523D01*
X106746Y-70425D02*
X106706Y-70425D01*
X106706Y-70425D02*
X106706Y-70896D01*
X106746Y-70896D02*
X106706Y-70896D01*
X106746Y-70425D02*
X106746Y-70896D01*
X106746Y-70916D02*
X106706Y-70916D01*
X106706Y-70916D02*
X106706Y-70975D01*
X106746Y-70975D02*
X106706Y-70975D01*
X106746Y-70916D02*
X106746Y-70975D01*
X107414Y-70425D02*
X107374Y-70425D01*
X107374Y-70425D02*
X107374Y-70896D01*
X107414Y-70896D02*
X107374Y-70896D01*
X107414Y-70425D02*
X107414Y-70896D01*
X107414Y-70916D02*
X107374Y-70916D01*
X107374Y-70916D02*
X107374Y-70975D01*
X107414Y-70975D02*
X107374Y-70975D01*
X107414Y-70916D02*
X107414Y-70975D01*
X106883Y-70425D02*
X106824Y-70425D01*
X106824Y-70425D02*
X106824Y-70523D01*
X106883Y-70523D02*
X106824Y-70523D01*
X106883Y-70425D02*
X106883Y-70523D01*
G54D17*
X106450Y-70405D02*
X107670Y-70405D01*
X107670Y-70405D02*
X107670Y-70995D01*
X107670Y-70995D02*
X106450Y-70995D01*
X106450Y-70995D02*
X106450Y-70405D01*
X107275Y-70503D02*
G75*
G03X106843Y-70504I-215J-196D01*
G74*
G01*
X107275Y-70896D02*
G75*
G03X107276Y-70504I-215J196D01*
G74*
G01*
X106844Y-70896D02*
G75*
G03X107276Y-70895I215J196D01*
G74*
G01*
X106844Y-70503D02*
G75*
G03X106843Y-70895I215J-196D01*
G74*
G01*
G54D13*
X57980Y-68760D02*
X57340Y-68760D01*
X57340Y-69660D02*
X57980Y-69660D01*
X57340Y-69840D02*
X57980Y-69840D01*
X57980Y-69840D02*
X57980Y-68580D01*
X57980Y-68580D02*
X57340Y-68580D01*
X57340Y-68580D02*
X57340Y-69840D01*
G54D18*
X67116Y-67124D02*
X67116Y-67624D01*
X67116Y-67624D02*
X66116Y-67624D01*
X66116Y-67624D02*
X66116Y-67124D01*
X67616Y-67124D02*
X67616Y-71124D01*
X67616Y-71124D02*
X65616Y-71124D01*
X65616Y-71124D02*
X65616Y-67124D01*
X65616Y-67124D02*
X67616Y-67124D01*
G54D14*
X86522Y-69046D02*
X78522Y-69046D01*
X78522Y-67046D02*
X86522Y-67046D01*
X86522Y-67046D02*
X86522Y-69046D01*
X86522Y-68546D02*
X86022Y-68546D01*
X86022Y-68546D02*
X86022Y-67546D01*
X86022Y-67546D02*
X86522Y-67546D01*
X78522Y-69046D02*
X78522Y-67046D01*
X95740Y-69002D02*
X87740Y-69002D01*
X87740Y-67002D02*
X95740Y-67002D01*
X95740Y-67002D02*
X95740Y-69002D01*
X95740Y-68502D02*
X95240Y-68502D01*
X95240Y-68502D02*
X95240Y-67502D01*
X95240Y-67502D02*
X95740Y-67502D01*
X87740Y-69002D02*
X87740Y-67002D01*
X105180Y-68920D02*
X97180Y-68920D01*
X97180Y-66920D02*
X105180Y-66920D01*
X105180Y-66920D02*
X105180Y-68920D01*
X105180Y-68420D02*
X104680Y-68420D01*
X104680Y-68420D02*
X104680Y-67420D01*
X104680Y-67420D02*
X105180Y-67420D01*
X97180Y-68920D02*
X97180Y-66920D01*
G54D15*
X103614Y-73551D02*
X78514Y-73551D01*
X103614Y-71551D02*
X78514Y-71551D01*
X103612Y-71551D02*
X103612Y-73551D01*
X78514Y-71551D02*
X78514Y-73551D01*
G54D10*
X63641Y-53527D02*
X62304Y-53527D01*
X62304Y-53527D02*
X62297Y-57090D01*
X62297Y-57090D02*
X63627Y-57083D01*
X63627Y-57083D02*
X63634Y-53534D01*
X66000Y-55264D02*
G75*
G03X66000Y-55264I-3036J0D01*
G74*
G01*
X56095Y-59295D02*
X57414Y-59293D01*
X57414Y-59293D02*
X57418Y-56432D01*
X57418Y-56432D02*
X56050Y-56431D01*
X56050Y-56431D02*
X56050Y-59293D01*
G54D13*
X65655Y-66085D02*
X65655Y-64085D01*
X65655Y-64085D02*
X67455Y-64085D01*
X67455Y-64085D02*
X67455Y-66085D01*
X67455Y-66085D02*
X65655Y-66085D01*
X66255Y-66085D02*
X66255Y-65885D01*
X66255Y-65885D02*
X66755Y-65885D01*
X66755Y-65885D02*
X66755Y-66085D01*
G54D14*
X87945Y-64620D02*
G75*
G03X87945Y-64620I-900J0D01*
G74*
G01*
X70600Y-55050D02*
X70600Y-54800D01*
X70600Y-54800D02*
X74600Y-54800D01*
X74600Y-54800D02*
X74600Y-55050D01*
X70600Y-56550D02*
X70600Y-55050D01*
X70600Y-55050D02*
X74600Y-55050D01*
X74600Y-55050D02*
X74600Y-56550D01*
X74600Y-56550D02*
X70600Y-56550D01*
X101000Y-55050D02*
X101000Y-54800D01*
X101000Y-54800D02*
X105000Y-54800D01*
X105000Y-54800D02*
X105000Y-55050D01*
X101000Y-56550D02*
X101000Y-55050D01*
X101000Y-55050D02*
X105000Y-55050D01*
X105000Y-55050D02*
X105000Y-56550D01*
X105000Y-56550D02*
X101000Y-56550D01*
X85800Y-55050D02*
X85800Y-54800D01*
X85800Y-54800D02*
X89800Y-54800D01*
X89800Y-54800D02*
X89800Y-55050D01*
X85800Y-56550D02*
X85800Y-55050D01*
X85800Y-55050D02*
X89800Y-55050D01*
X89800Y-55050D02*
X89800Y-56550D01*
X89800Y-56550D02*
X85800Y-56550D01*
G54D10*
X109410Y-66700D02*
X107510Y-66700D01*
X107510Y-62500D02*
X107510Y-66700D01*
X109410Y-66700D02*
X109410Y-62500D01*
X107510Y-62500D02*
X109410Y-62500D01*
X113540Y-71025D02*
X111640Y-71025D01*
X111640Y-66825D02*
X111640Y-71025D01*
X113540Y-71025D02*
X113540Y-66825D01*
X111640Y-66825D02*
X113540Y-66825D01*
X104550Y-73550D02*
X104550Y-71650D01*
X108750Y-71650D02*
X104550Y-71650D01*
X104550Y-73550D02*
X108750Y-73550D01*
X108750Y-71650D02*
X108750Y-73550D01*
X113552Y-71606D02*
X113552Y-73506D01*
X109352Y-73506D02*
X113552Y-73506D01*
X113552Y-71606D02*
X109352Y-71606D01*
X109352Y-73506D02*
X109352Y-71606D01*
X64310Y-71565D02*
X62410Y-71565D01*
X62410Y-67365D02*
X62410Y-71565D01*
X64310Y-71565D02*
X64310Y-67365D01*
X62410Y-67365D02*
X64310Y-67365D01*
G54D12*
X105951Y-54926D02*
X105651Y-54926D01*
X105651Y-54812D01*
X105665Y-54783D01*
X105680Y-54769D01*
X105708Y-54755D01*
X105751Y-54755D01*
X105780Y-54769D01*
X105794Y-54783D01*
X105808Y-54812D01*
X105808Y-54926D01*
X105651Y-54655D02*
X105651Y-54469D01*
X105765Y-54569D01*
X105765Y-54526D01*
X105780Y-54497D01*
X105794Y-54483D01*
X105822Y-54469D01*
X105894Y-54469D01*
X105922Y-54483D01*
X105937Y-54497D01*
X105951Y-54526D01*
X105951Y-54612D01*
X105937Y-54640D01*
X105922Y-54655D01*
X76254Y-66715D02*
X76254Y-66415D01*
X76368Y-66415D01*
X76397Y-66429D01*
X76411Y-66444D01*
X76426Y-66472D01*
X76426Y-66515D01*
X76411Y-66544D01*
X76397Y-66558D01*
X76368Y-66572D01*
X76254Y-66572D01*
X76711Y-66715D02*
X76540Y-66715D01*
X76626Y-66715D02*
X76626Y-66415D01*
X76597Y-66458D01*
X76568Y-66486D01*
X76540Y-66501D01*
X95880Y-61115D02*
X95880Y-60815D01*
X95994Y-60815D01*
X96023Y-60829D01*
X96037Y-60844D01*
X96052Y-60872D01*
X96052Y-60915D01*
X96037Y-60944D01*
X96023Y-60958D01*
X95994Y-60972D01*
X95880Y-60972D01*
X96309Y-60915D02*
X96309Y-61115D01*
X96237Y-60801D02*
X96166Y-61015D01*
X96352Y-61015D01*
X104295Y-62073D02*
X103995Y-62073D01*
X103995Y-61959D01*
X104009Y-61930D01*
X104024Y-61916D01*
X104052Y-61902D01*
X104095Y-61902D01*
X104124Y-61916D01*
X104138Y-61930D01*
X104152Y-61959D01*
X104152Y-62073D01*
X103995Y-61630D02*
X103995Y-61773D01*
X104138Y-61787D01*
X104124Y-61773D01*
X104109Y-61744D01*
X104109Y-61673D01*
X104124Y-61644D01*
X104138Y-61630D01*
X104166Y-61616D01*
X104238Y-61616D01*
X104266Y-61630D01*
X104281Y-61644D01*
X104295Y-61673D01*
X104295Y-61744D01*
X104281Y-61773D01*
X104266Y-61787D01*
G54D10*
X52375Y-62845D02*
X51981Y-62845D01*
X51981Y-62695D01*
X52000Y-62658D01*
X52019Y-62639D01*
X52056Y-62620D01*
X52112Y-62620D01*
X52150Y-62639D01*
X52169Y-62658D01*
X52187Y-62695D01*
X52187Y-62845D01*
X52019Y-62470D02*
X52000Y-62451D01*
X51981Y-62414D01*
X51981Y-62320D01*
X52000Y-62283D01*
X52019Y-62264D01*
X52056Y-62245D01*
X52094Y-62245D01*
X52150Y-62264D01*
X52375Y-62489D01*
X52375Y-62245D01*
X52310Y-70749D02*
X51916Y-70749D01*
X51916Y-70599D01*
X51935Y-70562D01*
X51954Y-70543D01*
X51991Y-70524D01*
X52047Y-70524D01*
X52085Y-70543D01*
X52104Y-70562D01*
X52122Y-70599D01*
X52122Y-70749D01*
X51916Y-70281D02*
X51916Y-70206D01*
X51935Y-70168D01*
X51972Y-70131D01*
X52047Y-70112D01*
X52179Y-70112D01*
X52254Y-70131D01*
X52291Y-70168D01*
X52310Y-70206D01*
X52310Y-70281D01*
X52291Y-70318D01*
X52254Y-70356D01*
X52179Y-70374D01*
X52047Y-70374D01*
X51972Y-70356D01*
X51935Y-70318D01*
X51916Y-70281D01*
X51916Y-69981D02*
X52310Y-69887D01*
X52029Y-69812D01*
X52310Y-69737D01*
X51916Y-69643D01*
X52104Y-69493D02*
X52104Y-69362D01*
X52310Y-69306D02*
X52310Y-69493D01*
X51916Y-69493D01*
X51916Y-69306D01*
X52310Y-68912D02*
X52122Y-69043D01*
X52310Y-69137D02*
X51916Y-69137D01*
X51916Y-68987D01*
X51935Y-68950D01*
X51954Y-68931D01*
X51991Y-68912D01*
X52047Y-68912D01*
X52085Y-68931D01*
X52104Y-68950D01*
X52122Y-68987D01*
X52122Y-69137D01*
X52347Y-68837D02*
X52347Y-68537D01*
X52104Y-68312D02*
X52104Y-68443D01*
X52310Y-68443D02*
X51916Y-68443D01*
X51916Y-68256D01*
X51916Y-68106D02*
X52235Y-68106D01*
X52272Y-68087D01*
X52291Y-68068D01*
X52310Y-68031D01*
X52310Y-67956D01*
X52291Y-67918D01*
X52272Y-67900D01*
X52235Y-67881D01*
X51916Y-67881D01*
X52291Y-67712D02*
X52310Y-67656D01*
X52310Y-67562D01*
X52291Y-67525D01*
X52272Y-67506D01*
X52235Y-67487D01*
X52197Y-67487D01*
X52160Y-67506D01*
X52141Y-67525D01*
X52122Y-67562D01*
X52104Y-67637D01*
X52085Y-67675D01*
X52066Y-67693D01*
X52029Y-67712D01*
X51991Y-67712D01*
X51954Y-67693D01*
X51935Y-67675D01*
X51916Y-67637D01*
X51916Y-67543D01*
X51935Y-67487D01*
X52104Y-67318D02*
X52104Y-67187D01*
X52310Y-67131D02*
X52310Y-67318D01*
X51916Y-67318D01*
X51916Y-67131D01*
G54D19*
X102608Y-64520D02*
X102551Y-64520D01*
X102580Y-64520D02*
X102580Y-64420D01*
X102570Y-64434D01*
X102560Y-64444D01*
X102551Y-64449D01*
X102651Y-64520D02*
X102651Y-64420D01*
X102708Y-64520D01*
X102708Y-64420D01*
X102746Y-64420D02*
X102808Y-64420D01*
X102775Y-64458D01*
X102789Y-64458D01*
X102799Y-64463D01*
X102803Y-64468D01*
X102808Y-64477D01*
X102808Y-64501D01*
X102803Y-64510D01*
X102799Y-64515D01*
X102789Y-64520D01*
X102760Y-64520D01*
X102751Y-64515D01*
X102746Y-64510D01*
G54D20*
X102295Y-64388D02*
X102198Y-64388D01*
X102247Y-64388D02*
X102247Y-64218D01*
X102230Y-64243D01*
X102214Y-64259D01*
X102198Y-64267D01*
X102368Y-64388D02*
X102368Y-64218D01*
X102465Y-64388D01*
X102465Y-64218D01*
X102619Y-64275D02*
X102619Y-64388D01*
X102579Y-64210D02*
X102538Y-64332D01*
X102643Y-64332D01*
X102740Y-64218D02*
X102757Y-64218D01*
X102773Y-64226D01*
X102781Y-64235D01*
X102789Y-64251D01*
X102797Y-64283D01*
X102797Y-64324D01*
X102789Y-64356D01*
X102781Y-64372D01*
X102773Y-64380D01*
X102757Y-64388D01*
X102740Y-64388D01*
X102724Y-64380D01*
X102716Y-64372D01*
X102708Y-64356D01*
X102700Y-64324D01*
X102700Y-64283D01*
X102708Y-64251D01*
X102716Y-64235D01*
X102724Y-64226D01*
X102740Y-64218D01*
X102902Y-64218D02*
X102919Y-64218D01*
X102935Y-64226D01*
X102943Y-64235D01*
X102951Y-64251D01*
X102959Y-64283D01*
X102959Y-64324D01*
X102951Y-64356D01*
X102943Y-64372D01*
X102935Y-64380D01*
X102919Y-64388D01*
X102902Y-64388D01*
X102886Y-64380D01*
X102878Y-64372D01*
X102870Y-64356D01*
X102862Y-64324D01*
X102862Y-64283D01*
X102870Y-64251D01*
X102878Y-64235D01*
X102886Y-64226D01*
X102902Y-64218D01*
X103016Y-64218D02*
X103121Y-64218D01*
X103064Y-64283D01*
X103089Y-64283D01*
X103105Y-64291D01*
X103113Y-64299D01*
X103121Y-64315D01*
X103121Y-64356D01*
X103113Y-64372D01*
X103105Y-64380D01*
X103089Y-64388D01*
X103040Y-64388D01*
X103024Y-64380D01*
X103016Y-64372D01*
G54D19*
X93000Y-63681D02*
X93000Y-63738D01*
X93000Y-63710D02*
X92900Y-63710D01*
X92914Y-63719D01*
X92924Y-63729D01*
X92929Y-63738D01*
X93000Y-63638D02*
X92900Y-63638D01*
X93000Y-63581D01*
X92900Y-63581D01*
X92910Y-63538D02*
X92905Y-63533D01*
X92900Y-63524D01*
X92900Y-63500D01*
X92905Y-63490D01*
X92910Y-63486D01*
X92919Y-63481D01*
X92929Y-63481D01*
X92943Y-63486D01*
X93000Y-63543D01*
X93000Y-63481D01*
G54D20*
X93188Y-63954D02*
X93188Y-64051D01*
X93188Y-64002D02*
X93018Y-64002D01*
X93043Y-64019D01*
X93059Y-64035D01*
X93067Y-64051D01*
X93188Y-63881D02*
X93018Y-63881D01*
X93188Y-63784D01*
X93018Y-63784D01*
X93075Y-63630D02*
X93188Y-63630D01*
X93010Y-63670D02*
X93132Y-63711D01*
X93132Y-63606D01*
X93018Y-63509D02*
X93018Y-63492D01*
X93026Y-63476D01*
X93035Y-63468D01*
X93051Y-63460D01*
X93083Y-63452D01*
X93124Y-63452D01*
X93156Y-63460D01*
X93172Y-63468D01*
X93180Y-63476D01*
X93188Y-63492D01*
X93188Y-63509D01*
X93180Y-63525D01*
X93172Y-63533D01*
X93156Y-63541D01*
X93124Y-63549D01*
X93083Y-63549D01*
X93051Y-63541D01*
X93035Y-63533D01*
X93026Y-63525D01*
X93018Y-63509D01*
X93018Y-63347D02*
X93018Y-63330D01*
X93026Y-63314D01*
X93035Y-63306D01*
X93051Y-63298D01*
X93083Y-63290D01*
X93124Y-63290D01*
X93156Y-63298D01*
X93172Y-63306D01*
X93180Y-63314D01*
X93188Y-63330D01*
X93188Y-63347D01*
X93180Y-63363D01*
X93172Y-63371D01*
X93156Y-63379D01*
X93124Y-63387D01*
X93083Y-63387D01*
X93051Y-63379D01*
X93035Y-63371D01*
X93026Y-63363D01*
X93018Y-63347D01*
X93018Y-63233D02*
X93018Y-63128D01*
X93083Y-63185D01*
X93083Y-63160D01*
X93091Y-63144D01*
X93099Y-63136D01*
X93115Y-63128D01*
X93156Y-63128D01*
X93172Y-63136D01*
X93180Y-63144D01*
X93188Y-63160D01*
X93188Y-63209D01*
X93180Y-63225D01*
X93172Y-63233D01*
G54D18*
X56548Y-52316D02*
X56548Y-51916D01*
X56701Y-51916D01*
X56739Y-51935D01*
X56758Y-51955D01*
X56777Y-51993D01*
X56777Y-52050D01*
X56758Y-52088D01*
X56739Y-52107D01*
X56701Y-52126D01*
X56548Y-52126D01*
X57005Y-52088D02*
X56967Y-52069D01*
X56948Y-52050D01*
X56929Y-52012D01*
X56929Y-51993D01*
X56948Y-51955D01*
X56967Y-51935D01*
X57005Y-51916D01*
X57082Y-51916D01*
X57120Y-51935D01*
X57139Y-51955D01*
X57158Y-51993D01*
X57158Y-52012D01*
X57139Y-52050D01*
X57120Y-52069D01*
X57082Y-52088D01*
X57005Y-52088D01*
X56967Y-52107D01*
X56948Y-52126D01*
X56929Y-52164D01*
X56929Y-52240D01*
X56948Y-52278D01*
X56967Y-52297D01*
X57005Y-52316D01*
X57082Y-52316D01*
X57120Y-52297D01*
X57139Y-52278D01*
X57158Y-52240D01*
X57158Y-52164D01*
X57139Y-52126D01*
X57120Y-52107D01*
X57082Y-52088D01*
X57594Y-70911D02*
X57594Y-70511D01*
X57747Y-70511D01*
X57785Y-70530D01*
X57804Y-70550D01*
X57823Y-70588D01*
X57823Y-70645D01*
X57804Y-70683D01*
X57785Y-70702D01*
X57747Y-70721D01*
X57594Y-70721D01*
X58013Y-70911D02*
X58090Y-70911D01*
X58128Y-70892D01*
X58147Y-70873D01*
X58185Y-70816D01*
X58204Y-70740D01*
X58204Y-70588D01*
X58185Y-70550D01*
X58166Y-70530D01*
X58128Y-70511D01*
X58051Y-70511D01*
X58013Y-70530D01*
X57994Y-70550D01*
X57975Y-70588D01*
X57975Y-70683D01*
X57994Y-70721D01*
X58013Y-70740D01*
X58051Y-70759D01*
X58128Y-70759D01*
X58166Y-70740D01*
X58185Y-70721D01*
X58204Y-70683D01*
X112059Y-60161D02*
X112059Y-59761D01*
X112211Y-59761D01*
X112249Y-59780D01*
X112268Y-59800D01*
X112287Y-59838D01*
X112287Y-59895D01*
X112268Y-59933D01*
X112249Y-59952D01*
X112211Y-59971D01*
X112059Y-59971D01*
X112668Y-60161D02*
X112440Y-60161D01*
X112554Y-60161D02*
X112554Y-59761D01*
X112516Y-59819D01*
X112478Y-59857D01*
X112440Y-59876D01*
X112916Y-59761D02*
X112954Y-59761D01*
X112992Y-59780D01*
X113011Y-59800D01*
X113030Y-59838D01*
X113049Y-59914D01*
X113049Y-60009D01*
X113030Y-60085D01*
X113011Y-60123D01*
X112992Y-60142D01*
X112954Y-60161D01*
X112916Y-60161D01*
X112878Y-60142D01*
X112859Y-60123D01*
X112840Y-60085D01*
X112821Y-60009D01*
X112821Y-59914D01*
X112840Y-59838D01*
X112859Y-59800D01*
X112878Y-59780D01*
X112916Y-59761D01*
G54D21*
X111980Y-57203D02*
X111961Y-57222D01*
X111904Y-57241D01*
X111866Y-57241D01*
X111809Y-57222D01*
X111771Y-57184D01*
X111752Y-57146D01*
X111733Y-57070D01*
X111733Y-57013D01*
X111752Y-56937D01*
X111771Y-56899D01*
X111809Y-56860D01*
X111866Y-56841D01*
X111904Y-56841D01*
X111961Y-56860D01*
X111980Y-56880D01*
X112361Y-57241D02*
X112133Y-57241D01*
X112247Y-57241D02*
X112247Y-56841D01*
X112209Y-56899D01*
X112171Y-56937D01*
X112133Y-56956D01*
X112495Y-56841D02*
X112761Y-56841D01*
X112590Y-57241D01*
X99321Y-64792D02*
X99302Y-64811D01*
X99245Y-64830D01*
X99207Y-64830D01*
X99149Y-64811D01*
X99111Y-64773D01*
X99092Y-64735D01*
X99073Y-64659D01*
X99073Y-64602D01*
X99092Y-64526D01*
X99111Y-64488D01*
X99149Y-64449D01*
X99207Y-64430D01*
X99245Y-64430D01*
X99302Y-64449D01*
X99321Y-64469D01*
X99454Y-64430D02*
X99721Y-64430D01*
X99549Y-64830D01*
X79808Y-63133D02*
X79789Y-63152D01*
X79732Y-63171D01*
X79694Y-63171D01*
X79636Y-63152D01*
X79598Y-63114D01*
X79579Y-63076D01*
X79560Y-63000D01*
X79560Y-62943D01*
X79579Y-62867D01*
X79598Y-62829D01*
X79636Y-62790D01*
X79694Y-62771D01*
X79732Y-62771D01*
X79789Y-62790D01*
X79808Y-62810D01*
X80170Y-62771D02*
X79979Y-62771D01*
X79960Y-62962D01*
X79979Y-62943D01*
X80017Y-62924D01*
X80113Y-62924D01*
X80151Y-62943D01*
X80170Y-62962D01*
X80189Y-63000D01*
X80189Y-63095D01*
X80170Y-63133D01*
X80151Y-63152D01*
X80113Y-63171D01*
X80017Y-63171D01*
X79979Y-63152D01*
X79960Y-63133D01*
X61388Y-70041D02*
X61407Y-70060D01*
X61426Y-70117D01*
X61426Y-70155D01*
X61407Y-70213D01*
X61369Y-70251D01*
X61331Y-70270D01*
X61255Y-70289D01*
X61198Y-70289D01*
X61122Y-70270D01*
X61084Y-70251D01*
X61045Y-70213D01*
X61026Y-70155D01*
X61026Y-70117D01*
X61045Y-70060D01*
X61065Y-70041D01*
X61026Y-69908D02*
X61026Y-69660D01*
X61179Y-69794D01*
X61179Y-69736D01*
X61198Y-69698D01*
X61217Y-69679D01*
X61255Y-69660D01*
X61350Y-69660D01*
X61388Y-69679D01*
X61407Y-69698D01*
X61426Y-69736D01*
X61426Y-69851D01*
X61407Y-69889D01*
X61388Y-69908D01*
X90773Y-64903D02*
X90754Y-64922D01*
X90697Y-64941D01*
X90659Y-64941D01*
X90601Y-64922D01*
X90563Y-64884D01*
X90544Y-64846D01*
X90525Y-64770D01*
X90525Y-64713D01*
X90544Y-64637D01*
X90563Y-64599D01*
X90601Y-64560D01*
X90659Y-64541D01*
X90697Y-64541D01*
X90754Y-64560D01*
X90773Y-64580D01*
X91116Y-64541D02*
X91040Y-64541D01*
X91001Y-64560D01*
X90982Y-64580D01*
X90944Y-64637D01*
X90925Y-64713D01*
X90925Y-64865D01*
X90944Y-64903D01*
X90963Y-64922D01*
X91001Y-64941D01*
X91078Y-64941D01*
X91116Y-64922D01*
X91135Y-64903D01*
X91154Y-64865D01*
X91154Y-64770D01*
X91135Y-64732D01*
X91116Y-64713D01*
X91078Y-64694D01*
X91001Y-64694D01*
X90963Y-64713D01*
X90944Y-64732D01*
X90925Y-64770D01*
X105873Y-68206D02*
X105892Y-68225D01*
X105911Y-68282D01*
X105911Y-68320D01*
X105892Y-68378D01*
X105854Y-68416D01*
X105816Y-68435D01*
X105740Y-68454D01*
X105683Y-68454D01*
X105607Y-68435D01*
X105569Y-68416D01*
X105530Y-68378D01*
X105511Y-68320D01*
X105511Y-68282D01*
X105530Y-68225D01*
X105550Y-68206D01*
X105645Y-67863D02*
X105911Y-67863D01*
X105492Y-67959D02*
X105778Y-68054D01*
X105778Y-67806D01*
X110647Y-55323D02*
X110666Y-55342D01*
X110685Y-55399D01*
X110685Y-55437D01*
X110666Y-55494D01*
X110628Y-55532D01*
X110590Y-55551D01*
X110514Y-55570D01*
X110457Y-55570D01*
X110381Y-55551D01*
X110343Y-55532D01*
X110304Y-55494D01*
X110285Y-55437D01*
X110285Y-55399D01*
X110304Y-55342D01*
X110324Y-55323D01*
X110685Y-54942D02*
X110685Y-55170D01*
X110685Y-55056D02*
X110285Y-55056D01*
X110343Y-55094D01*
X110381Y-55132D01*
X110400Y-55170D01*
X110285Y-54580D02*
X110285Y-54770D01*
X110476Y-54789D01*
X110457Y-54770D01*
X110438Y-54732D01*
X110438Y-54637D01*
X110457Y-54599D01*
X110476Y-54580D01*
X110514Y-54561D01*
X110609Y-54561D01*
X110647Y-54580D01*
X110666Y-54599D01*
X110685Y-54637D01*
X110685Y-54732D01*
X110666Y-54770D01*
X110647Y-54789D01*
G54D22*
X58812Y-57886D02*
X58746Y-57792D01*
X58699Y-57886D02*
X58699Y-57689D01*
X58774Y-57689D01*
X58793Y-57699D01*
X58802Y-57708D01*
X58812Y-57727D01*
X58812Y-57755D01*
X58802Y-57774D01*
X58793Y-57783D01*
X58774Y-57792D01*
X58699Y-57792D01*
X58887Y-57708D02*
X58896Y-57699D01*
X58915Y-57689D01*
X58962Y-57689D01*
X58981Y-57699D01*
X58990Y-57708D01*
X58999Y-57727D01*
X58999Y-57746D01*
X58990Y-57774D01*
X58878Y-57886D01*
X58999Y-57886D01*
X59112Y-57774D02*
X59093Y-57764D01*
X59084Y-57755D01*
X59075Y-57736D01*
X59075Y-57727D01*
X59084Y-57708D01*
X59093Y-57699D01*
X59112Y-57689D01*
X59150Y-57689D01*
X59168Y-57699D01*
X59178Y-57708D01*
X59187Y-57727D01*
X59187Y-57736D01*
X59178Y-57755D01*
X59168Y-57764D01*
X59150Y-57774D01*
X59112Y-57774D01*
X59093Y-57783D01*
X59084Y-57792D01*
X59075Y-57811D01*
X59075Y-57849D01*
X59084Y-57867D01*
X59093Y-57877D01*
X59112Y-57886D01*
X59150Y-57886D01*
X59168Y-57877D01*
X59178Y-57867D01*
X59187Y-57849D01*
X59187Y-57811D01*
X59178Y-57792D01*
X59168Y-57783D01*
X59150Y-57774D01*
X113318Y-55219D02*
X113252Y-55125D01*
X113205Y-55219D02*
X113205Y-55022D01*
X113280Y-55022D01*
X113299Y-55032D01*
X113308Y-55041D01*
X113318Y-55060D01*
X113318Y-55088D01*
X113308Y-55107D01*
X113299Y-55116D01*
X113280Y-55125D01*
X113205Y-55125D01*
X113393Y-55041D02*
X113402Y-55032D01*
X113421Y-55022D01*
X113468Y-55022D01*
X113487Y-55032D01*
X113496Y-55041D01*
X113505Y-55060D01*
X113505Y-55079D01*
X113496Y-55107D01*
X113384Y-55219D01*
X113505Y-55219D01*
X113571Y-55022D02*
X113702Y-55022D01*
X113618Y-55219D01*
X79479Y-70713D02*
X79385Y-70779D01*
X79479Y-70826D02*
X79282Y-70826D01*
X79282Y-70751D01*
X79292Y-70732D01*
X79301Y-70723D01*
X79320Y-70713D01*
X79348Y-70713D01*
X79367Y-70723D01*
X79376Y-70732D01*
X79385Y-70751D01*
X79385Y-70826D01*
X79282Y-70648D02*
X79282Y-70516D01*
X79479Y-70601D01*
X77539Y-72585D02*
X77473Y-72491D01*
X77426Y-72585D02*
X77426Y-72388D01*
X77501Y-72388D01*
X77520Y-72398D01*
X77529Y-72407D01*
X77539Y-72426D01*
X77539Y-72454D01*
X77529Y-72473D01*
X77520Y-72482D01*
X77501Y-72491D01*
X77426Y-72491D01*
X77726Y-72585D02*
X77614Y-72585D01*
X77670Y-72585D02*
X77670Y-72388D01*
X77651Y-72416D01*
X77633Y-72435D01*
X77614Y-72445D01*
X77802Y-72407D02*
X77811Y-72398D01*
X77830Y-72388D01*
X77877Y-72388D01*
X77895Y-72398D01*
X77905Y-72407D01*
X77914Y-72426D01*
X77914Y-72445D01*
X77905Y-72473D01*
X77792Y-72585D01*
X77914Y-72585D01*
X67813Y-62355D02*
X67747Y-62261D01*
X67700Y-62355D02*
X67700Y-62158D01*
X67775Y-62158D01*
X67794Y-62168D01*
X67803Y-62177D01*
X67813Y-62196D01*
X67813Y-62224D01*
X67803Y-62243D01*
X67794Y-62252D01*
X67775Y-62261D01*
X67700Y-62261D01*
X67982Y-62158D02*
X67944Y-62158D01*
X67925Y-62168D01*
X67916Y-62177D01*
X67897Y-62205D01*
X67888Y-62243D01*
X67888Y-62318D01*
X67897Y-62336D01*
X67906Y-62346D01*
X67925Y-62355D01*
X67963Y-62355D01*
X67982Y-62346D01*
X67991Y-62336D01*
X68000Y-62318D01*
X68000Y-62271D01*
X67991Y-62252D01*
X67982Y-62243D01*
X67963Y-62233D01*
X67925Y-62233D01*
X67906Y-62243D01*
X67897Y-62252D01*
X67888Y-62271D01*
X89479Y-64036D02*
X89385Y-64102D01*
X89479Y-64149D02*
X89282Y-64149D01*
X89282Y-64074D01*
X89292Y-64055D01*
X89301Y-64046D01*
X89320Y-64036D01*
X89348Y-64036D01*
X89367Y-64046D01*
X89376Y-64055D01*
X89385Y-64074D01*
X89385Y-64149D01*
X89479Y-63849D02*
X89479Y-63961D01*
X89479Y-63905D02*
X89282Y-63905D01*
X89310Y-63924D01*
X89329Y-63942D01*
X89339Y-63961D01*
X89348Y-63680D02*
X89479Y-63680D01*
X89273Y-63727D02*
X89414Y-63773D01*
X89414Y-63652D01*
X105834Y-62051D02*
X105740Y-62117D01*
X105834Y-62164D02*
X105637Y-62164D01*
X105637Y-62089D01*
X105647Y-62070D01*
X105656Y-62061D01*
X105675Y-62051D01*
X105703Y-62051D01*
X105722Y-62061D01*
X105731Y-62070D01*
X105740Y-62089D01*
X105740Y-62164D01*
X105656Y-61976D02*
X105647Y-61967D01*
X105637Y-61948D01*
X105637Y-61901D01*
X105647Y-61882D01*
X105656Y-61873D01*
X105675Y-61864D01*
X105694Y-61864D01*
X105722Y-61873D01*
X105834Y-61985D01*
X105834Y-61864D01*
X105637Y-61742D02*
X105637Y-61723D01*
X105647Y-61704D01*
X105656Y-61695D01*
X105675Y-61685D01*
X105712Y-61676D01*
X105759Y-61676D01*
X105797Y-61685D01*
X105815Y-61695D01*
X105825Y-61704D01*
X105834Y-61723D01*
X105834Y-61742D01*
X105825Y-61760D01*
X105815Y-61770D01*
X105797Y-61779D01*
X105759Y-61788D01*
X105712Y-61788D01*
X105675Y-61779D01*
X105656Y-61770D01*
X105647Y-61760D01*
X105637Y-61742D01*
X96329Y-62091D02*
X96235Y-62157D01*
X96329Y-62204D02*
X96132Y-62204D01*
X96132Y-62129D01*
X96142Y-62110D01*
X96151Y-62101D01*
X96170Y-62091D01*
X96198Y-62091D01*
X96217Y-62101D01*
X96226Y-62110D01*
X96235Y-62129D01*
X96235Y-62204D01*
X96329Y-61904D02*
X96329Y-62016D01*
X96329Y-61960D02*
X96132Y-61960D01*
X96160Y-61979D01*
X96179Y-61997D01*
X96189Y-62016D01*
X96217Y-61791D02*
X96207Y-61810D01*
X96198Y-61819D01*
X96179Y-61828D01*
X96170Y-61828D01*
X96151Y-61819D01*
X96142Y-61810D01*
X96132Y-61791D01*
X96132Y-61753D01*
X96142Y-61735D01*
X96151Y-61725D01*
X96170Y-61716D01*
X96179Y-61716D01*
X96198Y-61725D01*
X96207Y-61735D01*
X96217Y-61753D01*
X96217Y-61791D01*
X96226Y-61810D01*
X96235Y-61819D01*
X96254Y-61828D01*
X96292Y-61828D01*
X96310Y-61819D01*
X96320Y-61810D01*
X96329Y-61791D01*
X96329Y-61753D01*
X96320Y-61735D01*
X96310Y-61725D01*
X96292Y-61716D01*
X96254Y-61716D01*
X96235Y-61725D01*
X96226Y-61735D01*
X96217Y-61753D01*
X98215Y-61651D02*
X98149Y-61557D01*
X98102Y-61651D02*
X98102Y-61454D01*
X98177Y-61454D01*
X98196Y-61464D01*
X98205Y-61473D01*
X98215Y-61492D01*
X98215Y-61520D01*
X98205Y-61539D01*
X98196Y-61548D01*
X98177Y-61557D01*
X98102Y-61557D01*
X98402Y-61651D02*
X98290Y-61651D01*
X98346Y-61651D02*
X98346Y-61454D01*
X98327Y-61482D01*
X98309Y-61501D01*
X98290Y-61511D01*
X98468Y-61454D02*
X98599Y-61454D01*
X98515Y-61651D01*
X83625Y-64995D02*
X83559Y-64901D01*
X83512Y-64995D02*
X83512Y-64798D01*
X83587Y-64798D01*
X83606Y-64808D01*
X83615Y-64817D01*
X83625Y-64836D01*
X83625Y-64864D01*
X83615Y-64883D01*
X83606Y-64892D01*
X83587Y-64901D01*
X83512Y-64901D01*
X83812Y-64995D02*
X83700Y-64995D01*
X83756Y-64995D02*
X83756Y-64798D01*
X83737Y-64826D01*
X83719Y-64845D01*
X83700Y-64855D01*
X83991Y-64798D02*
X83897Y-64798D01*
X83888Y-64892D01*
X83897Y-64883D01*
X83916Y-64873D01*
X83963Y-64873D01*
X83981Y-64883D01*
X83991Y-64892D01*
X84000Y-64911D01*
X84000Y-64958D01*
X83991Y-64976D01*
X83981Y-64986D01*
X83963Y-64995D01*
X83916Y-64995D01*
X83897Y-64986D01*
X83888Y-64976D01*
X83226Y-62486D02*
X83132Y-62552D01*
X83226Y-62599D02*
X83029Y-62599D01*
X83029Y-62524D01*
X83039Y-62505D01*
X83048Y-62496D01*
X83067Y-62486D01*
X83095Y-62486D01*
X83114Y-62496D01*
X83123Y-62505D01*
X83132Y-62524D01*
X83132Y-62599D01*
X83226Y-62299D02*
X83226Y-62411D01*
X83226Y-62355D02*
X83029Y-62355D01*
X83057Y-62374D01*
X83076Y-62392D01*
X83086Y-62411D01*
X83029Y-62233D02*
X83029Y-62111D01*
X83104Y-62177D01*
X83104Y-62148D01*
X83114Y-62130D01*
X83123Y-62120D01*
X83142Y-62111D01*
X83189Y-62111D01*
X83207Y-62120D01*
X83217Y-62130D01*
X83226Y-62148D01*
X83226Y-62205D01*
X83217Y-62223D01*
X83207Y-62233D01*
X63299Y-63428D02*
X63233Y-63334D01*
X63186Y-63428D02*
X63186Y-63231D01*
X63261Y-63231D01*
X63280Y-63241D01*
X63289Y-63250D01*
X63299Y-63269D01*
X63299Y-63297D01*
X63289Y-63316D01*
X63280Y-63325D01*
X63261Y-63334D01*
X63186Y-63334D01*
X63364Y-63231D02*
X63486Y-63231D01*
X63421Y-63306D01*
X63449Y-63306D01*
X63468Y-63316D01*
X63477Y-63325D01*
X63486Y-63344D01*
X63486Y-63391D01*
X63477Y-63409D01*
X63468Y-63419D01*
X63449Y-63428D01*
X63392Y-63428D01*
X63374Y-63419D01*
X63364Y-63409D01*
X64858Y-62328D02*
X64792Y-62234D01*
X64745Y-62328D02*
X64745Y-62131D01*
X64820Y-62131D01*
X64839Y-62141D01*
X64848Y-62150D01*
X64858Y-62169D01*
X64858Y-62197D01*
X64848Y-62216D01*
X64839Y-62225D01*
X64820Y-62234D01*
X64745Y-62234D01*
X65045Y-62328D02*
X64933Y-62328D01*
X64989Y-62328D02*
X64989Y-62131D01*
X64970Y-62159D01*
X64951Y-62178D01*
X64933Y-62188D01*
X103771Y-70818D02*
X103677Y-70884D01*
X103771Y-70931D02*
X103574Y-70931D01*
X103574Y-70856D01*
X103584Y-70837D01*
X103593Y-70828D01*
X103612Y-70818D01*
X103640Y-70818D01*
X103659Y-70828D01*
X103668Y-70837D01*
X103677Y-70856D01*
X103677Y-70931D01*
X103593Y-70743D02*
X103584Y-70734D01*
X103574Y-70715D01*
X103574Y-70668D01*
X103584Y-70649D01*
X103593Y-70640D01*
X103612Y-70631D01*
X103631Y-70631D01*
X103659Y-70640D01*
X103771Y-70752D01*
X103771Y-70631D01*
X103574Y-70462D02*
X103574Y-70499D01*
X103584Y-70518D01*
X103593Y-70527D01*
X103621Y-70546D01*
X103659Y-70555D01*
X103734Y-70555D01*
X103752Y-70546D01*
X103762Y-70537D01*
X103771Y-70518D01*
X103771Y-70480D01*
X103762Y-70462D01*
X103752Y-70452D01*
X103734Y-70443D01*
X103687Y-70443D01*
X103668Y-70452D01*
X103659Y-70462D01*
X103649Y-70480D01*
X103649Y-70518D01*
X103659Y-70537D01*
X103668Y-70546D01*
X103687Y-70555D01*
X96876Y-70173D02*
X96810Y-70079D01*
X96763Y-70173D02*
X96763Y-69976D01*
X96838Y-69976D01*
X96857Y-69986D01*
X96866Y-69995D01*
X96876Y-70014D01*
X96876Y-70042D01*
X96866Y-70061D01*
X96857Y-70070D01*
X96838Y-70079D01*
X96763Y-70079D01*
X96951Y-69995D02*
X96960Y-69986D01*
X96979Y-69976D01*
X97026Y-69976D01*
X97045Y-69986D01*
X97054Y-69995D01*
X97063Y-70014D01*
X97063Y-70033D01*
X97054Y-70061D01*
X96942Y-70173D01*
X97063Y-70173D01*
X97129Y-69976D02*
X97251Y-69976D01*
X97185Y-70051D01*
X97214Y-70051D01*
X97232Y-70061D01*
X97242Y-70070D01*
X97251Y-70089D01*
X97251Y-70136D01*
X97242Y-70154D01*
X97232Y-70164D01*
X97214Y-70173D01*
X97157Y-70173D01*
X97139Y-70164D01*
X97129Y-70154D01*
X95861Y-70175D02*
X95795Y-70081D01*
X95748Y-70175D02*
X95748Y-69978D01*
X95823Y-69978D01*
X95842Y-69988D01*
X95851Y-69997D01*
X95861Y-70016D01*
X95861Y-70044D01*
X95851Y-70063D01*
X95842Y-70072D01*
X95823Y-70081D01*
X95748Y-70081D01*
X95936Y-69997D02*
X95945Y-69988D01*
X95964Y-69978D01*
X96011Y-69978D01*
X96030Y-69988D01*
X96039Y-69997D01*
X96048Y-70016D01*
X96048Y-70035D01*
X96039Y-70063D01*
X95927Y-70175D01*
X96048Y-70175D01*
X96124Y-69997D02*
X96133Y-69988D01*
X96152Y-69978D01*
X96199Y-69978D01*
X96217Y-69988D01*
X96227Y-69997D01*
X96236Y-70016D01*
X96236Y-70035D01*
X96227Y-70063D01*
X96114Y-70175D01*
X96236Y-70175D01*
X110562Y-70078D02*
X110468Y-70144D01*
X110562Y-70191D02*
X110365Y-70191D01*
X110365Y-70116D01*
X110375Y-70097D01*
X110384Y-70088D01*
X110403Y-70078D01*
X110431Y-70078D01*
X110450Y-70088D01*
X110459Y-70097D01*
X110468Y-70116D01*
X110468Y-70191D01*
X110384Y-70003D02*
X110375Y-69994D01*
X110365Y-69975D01*
X110365Y-69928D01*
X110375Y-69909D01*
X110384Y-69900D01*
X110403Y-69891D01*
X110422Y-69891D01*
X110450Y-69900D01*
X110562Y-70012D01*
X110562Y-69891D01*
X110365Y-69712D02*
X110365Y-69806D01*
X110459Y-69815D01*
X110450Y-69806D01*
X110440Y-69787D01*
X110440Y-69740D01*
X110450Y-69722D01*
X110459Y-69712D01*
X110478Y-69703D01*
X110525Y-69703D01*
X110543Y-69712D01*
X110553Y-69722D01*
X110562Y-69740D01*
X110562Y-69787D01*
X110553Y-69806D01*
X110543Y-69815D01*
X109468Y-68153D02*
X109402Y-68059D01*
X109355Y-68153D02*
X109355Y-67956D01*
X109430Y-67956D01*
X109449Y-67966D01*
X109458Y-67975D01*
X109468Y-67994D01*
X109468Y-68022D01*
X109458Y-68041D01*
X109449Y-68050D01*
X109430Y-68059D01*
X109355Y-68059D01*
X109543Y-67975D02*
X109552Y-67966D01*
X109571Y-67956D01*
X109618Y-67956D01*
X109637Y-67966D01*
X109646Y-67975D01*
X109655Y-67994D01*
X109655Y-68013D01*
X109646Y-68041D01*
X109534Y-68153D01*
X109655Y-68153D01*
X109824Y-68022D02*
X109824Y-68153D01*
X109777Y-67947D02*
X109731Y-68088D01*
X109852Y-68088D01*
G54D20*
X99389Y-60465D02*
X99389Y-60165D01*
X99461Y-60165D01*
X99503Y-60179D01*
X99532Y-60208D01*
X99546Y-60236D01*
X99561Y-60294D01*
X99561Y-60336D01*
X99546Y-60394D01*
X99532Y-60422D01*
X99503Y-60451D01*
X99461Y-60465D01*
X99389Y-60465D01*
X99661Y-60165D02*
X99861Y-60165D01*
X99732Y-60465D01*
X99738Y-61589D02*
X99738Y-61732D01*
X99438Y-61732D01*
X99581Y-61489D02*
X99581Y-61389D01*
X99738Y-61347D02*
X99738Y-61489D01*
X99438Y-61489D01*
X99438Y-61347D01*
X99738Y-61218D02*
X99438Y-61218D01*
X99438Y-61147D01*
X99452Y-61104D01*
X99481Y-61075D01*
X99509Y-61061D01*
X99567Y-61047D01*
X99609Y-61047D01*
X99667Y-61061D01*
X99695Y-61075D01*
X99724Y-61104D01*
X99738Y-61147D01*
X99738Y-61218D01*
X100900Y-60484D02*
X100900Y-60184D01*
X100972Y-60184D01*
X101014Y-60198D01*
X101043Y-60227D01*
X101057Y-60255D01*
X101072Y-60313D01*
X101072Y-60355D01*
X101057Y-60413D01*
X101043Y-60441D01*
X101014Y-60470D01*
X100972Y-60484D01*
X100900Y-60484D01*
X101329Y-60184D02*
X101272Y-60184D01*
X101243Y-60198D01*
X101229Y-60213D01*
X101200Y-60255D01*
X101186Y-60313D01*
X101186Y-60427D01*
X101200Y-60455D01*
X101214Y-60470D01*
X101243Y-60484D01*
X101300Y-60484D01*
X101329Y-60470D01*
X101343Y-60455D01*
X101357Y-60427D01*
X101357Y-60355D01*
X101343Y-60327D01*
X101329Y-60313D01*
X101300Y-60298D01*
X101243Y-60298D01*
X101214Y-60313D01*
X101200Y-60327D01*
X101186Y-60355D01*
X101292Y-61597D02*
X101292Y-61740D01*
X100992Y-61740D01*
X101135Y-61497D02*
X101135Y-61397D01*
X101292Y-61355D02*
X101292Y-61497D01*
X100992Y-61497D01*
X100992Y-61355D01*
X101292Y-61226D02*
X100992Y-61226D01*
X100992Y-61155D01*
X101006Y-61112D01*
X101035Y-61083D01*
X101063Y-61069D01*
X101121Y-61055D01*
X101163Y-61055D01*
X101221Y-61069D01*
X101249Y-61083D01*
X101278Y-61112D01*
X101292Y-61155D01*
X101292Y-61226D01*
X79721Y-61440D02*
X79721Y-61140D01*
X79793Y-61140D01*
X79835Y-61154D01*
X79864Y-61183D01*
X79878Y-61211D01*
X79893Y-61269D01*
X79893Y-61311D01*
X79878Y-61369D01*
X79864Y-61397D01*
X79835Y-61426D01*
X79793Y-61440D01*
X79721Y-61440D01*
X80035Y-61440D02*
X80093Y-61440D01*
X80121Y-61426D01*
X80135Y-61411D01*
X80164Y-61369D01*
X80178Y-61311D01*
X80178Y-61197D01*
X80164Y-61169D01*
X80150Y-61154D01*
X80121Y-61140D01*
X80064Y-61140D01*
X80035Y-61154D01*
X80021Y-61169D01*
X80007Y-61197D01*
X80007Y-61269D01*
X80021Y-61297D01*
X80035Y-61311D01*
X80064Y-61326D01*
X80121Y-61326D01*
X80150Y-61311D01*
X80164Y-61297D01*
X80178Y-61269D01*
X80073Y-62533D02*
X80073Y-62676D01*
X79773Y-62676D01*
X79916Y-62433D02*
X79916Y-62333D01*
X80073Y-62291D02*
X80073Y-62433D01*
X79773Y-62433D01*
X79773Y-62291D01*
X80073Y-62162D02*
X79773Y-62162D01*
X79773Y-62091D01*
X79787Y-62048D01*
X79816Y-62019D01*
X79844Y-62005D01*
X79902Y-61991D01*
X79944Y-61991D01*
X80002Y-62005D01*
X80030Y-62019D01*
X80059Y-62048D01*
X80073Y-62091D01*
X80073Y-62162D01*
X80954Y-61455D02*
X80954Y-61155D01*
X81026Y-61155D01*
X81068Y-61169D01*
X81097Y-61198D01*
X81111Y-61226D01*
X81126Y-61284D01*
X81126Y-61326D01*
X81111Y-61384D01*
X81097Y-61412D01*
X81068Y-61441D01*
X81026Y-61455D01*
X80954Y-61455D01*
X81297Y-61284D02*
X81268Y-61269D01*
X81254Y-61255D01*
X81240Y-61226D01*
X81240Y-61212D01*
X81254Y-61184D01*
X81268Y-61169D01*
X81297Y-61155D01*
X81354Y-61155D01*
X81383Y-61169D01*
X81397Y-61184D01*
X81411Y-61212D01*
X81411Y-61226D01*
X81397Y-61255D01*
X81383Y-61269D01*
X81354Y-61284D01*
X81297Y-61284D01*
X81268Y-61298D01*
X81254Y-61312D01*
X81240Y-61341D01*
X81240Y-61398D01*
X81254Y-61426D01*
X81268Y-61441D01*
X81297Y-61455D01*
X81354Y-61455D01*
X81383Y-61441D01*
X81397Y-61426D01*
X81411Y-61398D01*
X81411Y-61341D01*
X81397Y-61312D01*
X81383Y-61298D01*
X81354Y-61284D01*
X81331Y-62554D02*
X81331Y-62697D01*
X81031Y-62697D01*
X81174Y-62454D02*
X81174Y-62354D01*
X81331Y-62312D02*
X81331Y-62454D01*
X81031Y-62454D01*
X81031Y-62312D01*
X81331Y-62183D02*
X81031Y-62183D01*
X81031Y-62112D01*
X81045Y-62069D01*
X81074Y-62040D01*
X81102Y-62026D01*
X81160Y-62012D01*
X81202Y-62012D01*
X81260Y-62026D01*
X81288Y-62040D01*
X81317Y-62069D01*
X81331Y-62112D01*
X81331Y-62183D01*
X59946Y-61345D02*
X59946Y-61045D01*
X60018Y-61045D01*
X60061Y-61059D01*
X60089Y-61088D01*
X60103Y-61116D01*
X60118Y-61174D01*
X60118Y-61216D01*
X60103Y-61274D01*
X60089Y-61302D01*
X60061Y-61331D01*
X60018Y-61345D01*
X59946Y-61345D01*
X60403Y-61345D02*
X60232Y-61345D01*
X60318Y-61345D02*
X60318Y-61045D01*
X60289Y-61088D01*
X60261Y-61116D01*
X60232Y-61131D01*
X60689Y-61345D02*
X60518Y-61345D01*
X60603Y-61345D02*
X60603Y-61045D01*
X60575Y-61088D01*
X60546Y-61116D01*
X60518Y-61131D01*
X60107Y-62407D02*
X59964Y-62407D01*
X59964Y-62107D01*
X60207Y-62250D02*
X60307Y-62250D01*
X60350Y-62407D02*
X60207Y-62407D01*
X60207Y-62107D01*
X60350Y-62107D01*
X60478Y-62407D02*
X60478Y-62107D01*
X60550Y-62107D01*
X60592Y-62121D01*
X60621Y-62150D01*
X60635Y-62178D01*
X60650Y-62236D01*
X60650Y-62278D01*
X60635Y-62336D01*
X60621Y-62364D01*
X60592Y-62393D01*
X60550Y-62407D01*
X60478Y-62407D01*
X61472Y-61343D02*
X61472Y-61043D01*
X61544Y-61043D01*
X61587Y-61057D01*
X61615Y-61086D01*
X61629Y-61114D01*
X61644Y-61172D01*
X61644Y-61214D01*
X61629Y-61272D01*
X61615Y-61300D01*
X61587Y-61329D01*
X61544Y-61343D01*
X61472Y-61343D01*
X61929Y-61343D02*
X61758Y-61343D01*
X61844Y-61343D02*
X61844Y-61043D01*
X61815Y-61086D01*
X61787Y-61114D01*
X61758Y-61129D01*
X62115Y-61043D02*
X62144Y-61043D01*
X62172Y-61057D01*
X62187Y-61072D01*
X62201Y-61100D01*
X62215Y-61157D01*
X62215Y-61229D01*
X62201Y-61286D01*
X62187Y-61314D01*
X62172Y-61329D01*
X62144Y-61343D01*
X62115Y-61343D01*
X62087Y-61329D01*
X62072Y-61314D01*
X62058Y-61286D01*
X62044Y-61229D01*
X62044Y-61157D01*
X62058Y-61100D01*
X62072Y-61072D01*
X62087Y-61057D01*
X62115Y-61043D01*
X61631Y-62373D02*
X61488Y-62373D01*
X61488Y-62073D01*
X61731Y-62216D02*
X61831Y-62216D01*
X61874Y-62373D02*
X61731Y-62373D01*
X61731Y-62073D01*
X61874Y-62073D01*
X62002Y-62373D02*
X62002Y-62073D01*
X62074Y-62073D01*
X62116Y-62087D01*
X62145Y-62116D01*
X62159Y-62144D01*
X62174Y-62202D01*
X62174Y-62244D01*
X62159Y-62302D01*
X62145Y-62330D01*
X62116Y-62359D01*
X62074Y-62373D01*
X62002Y-62373D01*
X59958Y-59921D02*
X59958Y-59621D01*
X60030Y-59621D01*
X60072Y-59635D01*
X60101Y-59664D01*
X60115Y-59692D01*
X60130Y-59750D01*
X60130Y-59792D01*
X60115Y-59850D01*
X60101Y-59878D01*
X60072Y-59907D01*
X60030Y-59921D01*
X59958Y-59921D01*
X60415Y-59921D02*
X60244Y-59921D01*
X60330Y-59921D02*
X60330Y-59621D01*
X60301Y-59664D01*
X60272Y-59692D01*
X60244Y-59707D01*
X59984Y-58843D02*
X59841Y-58843D01*
X59841Y-58543D01*
X60084Y-58686D02*
X60184Y-58686D01*
X60227Y-58843D02*
X60084Y-58843D01*
X60084Y-58543D01*
X60227Y-58543D01*
X60355Y-58843D02*
X60355Y-58543D01*
X60427Y-58543D01*
X60469Y-58557D01*
X60498Y-58586D01*
X60512Y-58614D01*
X60527Y-58672D01*
X60527Y-58714D01*
X60512Y-58772D01*
X60498Y-58800D01*
X60469Y-58829D01*
X60427Y-58843D01*
X60355Y-58843D01*
X111887Y-53261D02*
X111587Y-53261D01*
X111587Y-53190D01*
X111601Y-53147D01*
X111630Y-53118D01*
X111658Y-53104D01*
X111716Y-53090D01*
X111758Y-53090D01*
X111816Y-53104D01*
X111844Y-53118D01*
X111873Y-53147D01*
X111887Y-53190D01*
X111887Y-53261D01*
X111587Y-52818D02*
X111587Y-52961D01*
X111730Y-52975D01*
X111716Y-52961D01*
X111701Y-52932D01*
X111701Y-52861D01*
X111716Y-52832D01*
X111730Y-52818D01*
X111758Y-52804D01*
X111830Y-52804D01*
X111858Y-52818D01*
X111873Y-52832D01*
X111887Y-52861D01*
X111887Y-52932D01*
X111873Y-52961D01*
X111858Y-52975D01*
X112948Y-53240D02*
X112948Y-53383D01*
X112648Y-53383D01*
X112791Y-53140D02*
X112791Y-53040D01*
X112948Y-52998D02*
X112948Y-53140D01*
X112648Y-53140D01*
X112648Y-52998D01*
X112948Y-52869D02*
X112648Y-52869D01*
X112648Y-52798D01*
X112662Y-52755D01*
X112691Y-52726D01*
X112719Y-52712D01*
X112777Y-52698D01*
X112819Y-52698D01*
X112877Y-52712D01*
X112905Y-52726D01*
X112934Y-52755D01*
X112948Y-52798D01*
X112948Y-52869D01*
X110652Y-69070D02*
X110652Y-68770D01*
X110724Y-68770D01*
X110766Y-68784D01*
X110795Y-68813D01*
X110809Y-68841D01*
X110824Y-68899D01*
X110824Y-68941D01*
X110809Y-68999D01*
X110795Y-69027D01*
X110766Y-69056D01*
X110724Y-69070D01*
X110652Y-69070D01*
X110938Y-68799D02*
X110952Y-68784D01*
X110981Y-68770D01*
X111052Y-68770D01*
X111081Y-68784D01*
X111095Y-68799D01*
X111109Y-68827D01*
X111109Y-68856D01*
X111095Y-68899D01*
X110924Y-69070D01*
X111109Y-69070D01*
X110675Y-68119D02*
X110532Y-68119D01*
X110532Y-67819D01*
X110775Y-67962D02*
X110875Y-67962D01*
X110918Y-68119D02*
X110775Y-68119D01*
X110775Y-67819D01*
X110918Y-67819D01*
X111046Y-68119D02*
X111046Y-67819D01*
X111118Y-67819D01*
X111160Y-67833D01*
X111189Y-67862D01*
X111203Y-67890D01*
X111218Y-67948D01*
X111218Y-67990D01*
X111203Y-68048D01*
X111189Y-68076D01*
X111160Y-68105D01*
X111118Y-68119D01*
X111046Y-68119D01*
X109302Y-71292D02*
X109002Y-71292D01*
X109002Y-71221D01*
X109016Y-71178D01*
X109045Y-71149D01*
X109073Y-71135D01*
X109131Y-71121D01*
X109173Y-71121D01*
X109231Y-71135D01*
X109259Y-71149D01*
X109288Y-71178D01*
X109302Y-71221D01*
X109302Y-71292D01*
X109002Y-71021D02*
X109002Y-70835D01*
X109116Y-70935D01*
X109116Y-70892D01*
X109131Y-70863D01*
X109145Y-70849D01*
X109173Y-70835D01*
X109245Y-70835D01*
X109273Y-70849D01*
X109288Y-70863D01*
X109302Y-70892D01*
X109302Y-70978D01*
X109288Y-71006D01*
X109273Y-71021D01*
X110485Y-71285D02*
X110485Y-71428D01*
X110185Y-71428D01*
X110328Y-71185D02*
X110328Y-71085D01*
X110485Y-71043D02*
X110485Y-71185D01*
X110185Y-71185D01*
X110185Y-71043D01*
X110485Y-70914D02*
X110185Y-70914D01*
X110185Y-70843D01*
X110199Y-70800D01*
X110228Y-70771D01*
X110256Y-70757D01*
X110314Y-70743D01*
X110356Y-70743D01*
X110414Y-70757D01*
X110442Y-70771D01*
X110471Y-70800D01*
X110485Y-70843D01*
X110485Y-70914D01*
X106201Y-70931D02*
X105901Y-70931D01*
X105901Y-70860D01*
X105915Y-70817D01*
X105944Y-70788D01*
X105972Y-70774D01*
X106030Y-70760D01*
X106072Y-70760D01*
X106130Y-70774D01*
X106158Y-70788D01*
X106187Y-70817D01*
X106201Y-70860D01*
X106201Y-70931D01*
X106001Y-70502D02*
X106201Y-70502D01*
X105887Y-70574D02*
X106101Y-70645D01*
X106101Y-70460D01*
X107152Y-70885D02*
X107152Y-71028D01*
X106852Y-71028D01*
X106995Y-70785D02*
X106995Y-70685D01*
X107152Y-70643D02*
X107152Y-70785D01*
X106852Y-70785D01*
X106852Y-70643D01*
X107152Y-70514D02*
X106852Y-70514D01*
X106852Y-70443D01*
X106866Y-70400D01*
X106895Y-70371D01*
X106923Y-70357D01*
X106981Y-70343D01*
X107023Y-70343D01*
X107081Y-70357D01*
X107109Y-70371D01*
X107138Y-70400D01*
X107152Y-70443D01*
X107152Y-70514D01*
G54D22*
X57621Y-69285D02*
X57611Y-69295D01*
X57583Y-69304D01*
X57564Y-69304D01*
X57536Y-69295D01*
X57517Y-69276D01*
X57508Y-69257D01*
X57499Y-69220D01*
X57499Y-69192D01*
X57508Y-69154D01*
X57517Y-69135D01*
X57536Y-69117D01*
X57564Y-69107D01*
X57583Y-69107D01*
X57611Y-69117D01*
X57621Y-69126D01*
X57733Y-69192D02*
X57714Y-69182D01*
X57705Y-69173D01*
X57696Y-69154D01*
X57696Y-69145D01*
X57705Y-69126D01*
X57714Y-69117D01*
X57733Y-69107D01*
X57771Y-69107D01*
X57790Y-69117D01*
X57799Y-69126D01*
X57808Y-69145D01*
X57808Y-69154D01*
X57799Y-69173D01*
X57790Y-69182D01*
X57771Y-69192D01*
X57733Y-69192D01*
X57714Y-69201D01*
X57705Y-69210D01*
X57696Y-69229D01*
X57696Y-69267D01*
X57705Y-69285D01*
X57714Y-69295D01*
X57733Y-69304D01*
X57771Y-69304D01*
X57790Y-69295D01*
X57799Y-69285D01*
X57808Y-69267D01*
X57808Y-69229D01*
X57799Y-69210D01*
X57790Y-69201D01*
X57771Y-69192D01*
G54D21*
X67311Y-69489D02*
X66811Y-69489D01*
X67168Y-69339D01*
X66811Y-69189D01*
X67311Y-69189D01*
X66859Y-68996D02*
X66835Y-68974D01*
X66811Y-68932D01*
X66811Y-68824D01*
X66835Y-68782D01*
X66859Y-68760D01*
X66906Y-68739D01*
X66954Y-68739D01*
X67025Y-68760D01*
X67311Y-69017D01*
X67311Y-68739D01*
X66310Y-70909D02*
X65810Y-70909D01*
X66167Y-70793D01*
X65810Y-70676D01*
X66310Y-70676D01*
X66262Y-70309D02*
X66286Y-70326D01*
X66310Y-70376D01*
X66310Y-70409D01*
X66286Y-70459D01*
X66238Y-70493D01*
X66191Y-70509D01*
X66096Y-70526D01*
X66024Y-70526D01*
X65929Y-70509D01*
X65881Y-70493D01*
X65834Y-70459D01*
X65810Y-70409D01*
X65810Y-70376D01*
X65834Y-70326D01*
X65858Y-70309D01*
X66310Y-70159D02*
X65810Y-70159D01*
X65810Y-70026D01*
X65834Y-69993D01*
X65858Y-69976D01*
X65905Y-69959D01*
X65977Y-69959D01*
X66024Y-69976D01*
X66048Y-69993D01*
X66072Y-70026D01*
X66072Y-70159D01*
X65810Y-69659D02*
X65810Y-69726D01*
X65834Y-69759D01*
X65858Y-69776D01*
X65929Y-69809D01*
X66024Y-69826D01*
X66215Y-69826D01*
X66262Y-69809D01*
X66286Y-69793D01*
X66310Y-69759D01*
X66310Y-69693D01*
X66286Y-69659D01*
X66262Y-69643D01*
X66215Y-69626D01*
X66096Y-69626D01*
X66048Y-69643D01*
X66024Y-69659D01*
X66000Y-69693D01*
X66000Y-69759D01*
X66024Y-69793D01*
X66048Y-69809D01*
X66096Y-69826D01*
X65810Y-69409D02*
X65810Y-69376D01*
X65834Y-69343D01*
X65858Y-69326D01*
X65905Y-69309D01*
X66000Y-69293D01*
X66119Y-69293D01*
X66215Y-69309D01*
X66262Y-69326D01*
X66286Y-69343D01*
X66310Y-69376D01*
X66310Y-69409D01*
X66286Y-69443D01*
X66262Y-69459D01*
X66215Y-69476D01*
X66119Y-69493D01*
X66000Y-69493D01*
X65905Y-69476D01*
X65858Y-69459D01*
X65834Y-69443D01*
X65810Y-69409D01*
X65858Y-69159D02*
X65834Y-69142D01*
X65810Y-69109D01*
X65810Y-69026D01*
X65834Y-68992D01*
X65858Y-68976D01*
X65905Y-68959D01*
X65953Y-68959D01*
X66024Y-68976D01*
X66310Y-69176D01*
X66310Y-68959D01*
X65858Y-68826D02*
X65834Y-68809D01*
X65810Y-68776D01*
X65810Y-68692D01*
X65834Y-68659D01*
X65858Y-68642D01*
X65905Y-68626D01*
X65953Y-68626D01*
X66024Y-68642D01*
X66310Y-68842D01*
X66310Y-68626D01*
X66119Y-68476D02*
X66119Y-68209D01*
X66310Y-68042D02*
X65810Y-68042D01*
X65786Y-67626D02*
X66429Y-67926D01*
X66310Y-67509D02*
X65810Y-67509D01*
X65810Y-67376D01*
X65834Y-67342D01*
X65858Y-67326D01*
X65905Y-67309D01*
X65977Y-67309D01*
X66024Y-67326D01*
X66048Y-67342D01*
X66072Y-67376D01*
X66072Y-67509D01*
G54D23*
X82078Y-68774D02*
X82078Y-68174D01*
X82550Y-68774D02*
X82400Y-68489D01*
X82293Y-68774D02*
X82293Y-68174D01*
X82464Y-68174D01*
X82507Y-68203D01*
X82528Y-68232D01*
X82550Y-68289D01*
X82550Y-68374D01*
X82528Y-68432D01*
X82507Y-68460D01*
X82464Y-68489D01*
X82293Y-68489D01*
X82978Y-68774D02*
X82721Y-68774D01*
X82850Y-68774D02*
X82850Y-68174D01*
X82807Y-68260D01*
X82764Y-68317D01*
X82721Y-68346D01*
G54D15*
G54D23*
X81270Y-67796D02*
X81270Y-67196D01*
X81741Y-67796D02*
X81591Y-67511D01*
X81484Y-67796D02*
X81484Y-67196D01*
X81656Y-67196D01*
X81699Y-67225D01*
X81720Y-67254D01*
X81741Y-67311D01*
X81741Y-67396D01*
X81720Y-67454D01*
X81699Y-67482D01*
X81656Y-67511D01*
X81484Y-67511D01*
X81827Y-67854D02*
X82170Y-67854D01*
X82256Y-67254D02*
X82277Y-67225D01*
X82320Y-67196D01*
X82427Y-67196D01*
X82470Y-67225D01*
X82491Y-67254D01*
X82513Y-67311D01*
X82513Y-67368D01*
X82491Y-67454D01*
X82234Y-67796D01*
X82513Y-67796D01*
X82941Y-67796D02*
X82684Y-67796D01*
X82813Y-67796D02*
X82813Y-67196D01*
X82770Y-67282D01*
X82727Y-67339D01*
X82684Y-67368D01*
X83370Y-67796D02*
X83113Y-67796D01*
X83241Y-67796D02*
X83241Y-67196D01*
X83199Y-67282D01*
X83156Y-67339D01*
X83113Y-67368D01*
X83649Y-67196D02*
X83691Y-67196D01*
X83734Y-67225D01*
X83756Y-67254D01*
X83777Y-67311D01*
X83799Y-67425D01*
X83799Y-67568D01*
X83777Y-67682D01*
X83756Y-67739D01*
X83734Y-67768D01*
X83691Y-67796D01*
X83649Y-67796D01*
X83606Y-67768D01*
X83584Y-67739D01*
X83563Y-67682D01*
X83541Y-67568D01*
X83541Y-67425D01*
X83563Y-67311D01*
X83584Y-67254D01*
X83606Y-67225D01*
X83649Y-67196D01*
G54D15*
G54D23*
X91280Y-68762D02*
X91280Y-68162D01*
X91752Y-68762D02*
X91602Y-68477D01*
X91495Y-68762D02*
X91495Y-68162D01*
X91666Y-68162D01*
X91709Y-68191D01*
X91730Y-68220D01*
X91752Y-68277D01*
X91752Y-68362D01*
X91730Y-68420D01*
X91709Y-68448D01*
X91666Y-68477D01*
X91495Y-68477D01*
X91923Y-68220D02*
X91945Y-68191D01*
X91987Y-68162D01*
X92095Y-68162D01*
X92137Y-68191D01*
X92159Y-68220D01*
X92180Y-68277D01*
X92180Y-68334D01*
X92159Y-68420D01*
X91902Y-68762D01*
X92180Y-68762D01*
G54D15*
G54D23*
X90486Y-67742D02*
X90486Y-67142D01*
X90957Y-67742D02*
X90807Y-67457D01*
X90700Y-67742D02*
X90700Y-67142D01*
X90872Y-67142D01*
X90915Y-67171D01*
X90936Y-67200D01*
X90957Y-67257D01*
X90957Y-67342D01*
X90936Y-67400D01*
X90915Y-67428D01*
X90872Y-67457D01*
X90700Y-67457D01*
X91043Y-67800D02*
X91386Y-67800D01*
X91472Y-67200D02*
X91493Y-67171D01*
X91536Y-67142D01*
X91643Y-67142D01*
X91686Y-67171D01*
X91707Y-67200D01*
X91729Y-67257D01*
X91729Y-67314D01*
X91707Y-67400D01*
X91450Y-67742D01*
X91729Y-67742D01*
X92157Y-67742D02*
X91900Y-67742D01*
X92029Y-67742D02*
X92029Y-67142D01*
X91986Y-67228D01*
X91943Y-67285D01*
X91900Y-67314D01*
X92586Y-67742D02*
X92329Y-67742D01*
X92457Y-67742D02*
X92457Y-67142D01*
X92415Y-67228D01*
X92372Y-67285D01*
X92329Y-67314D01*
X92865Y-67142D02*
X92907Y-67142D01*
X92950Y-67171D01*
X92972Y-67200D01*
X92993Y-67257D01*
X93015Y-67371D01*
X93015Y-67514D01*
X92993Y-67628D01*
X92972Y-67685D01*
X92950Y-67714D01*
X92907Y-67742D01*
X92865Y-67742D01*
X92822Y-67714D01*
X92800Y-67685D01*
X92779Y-67628D01*
X92757Y-67514D01*
X92757Y-67371D01*
X92779Y-67257D01*
X92800Y-67200D01*
X92822Y-67171D01*
X92865Y-67142D01*
G54D15*
G54D23*
X100730Y-68692D02*
X100730Y-68092D01*
X101202Y-68692D02*
X101052Y-68407D01*
X100945Y-68692D02*
X100945Y-68092D01*
X101116Y-68092D01*
X101159Y-68121D01*
X101180Y-68150D01*
X101202Y-68207D01*
X101202Y-68292D01*
X101180Y-68350D01*
X101159Y-68378D01*
X101116Y-68407D01*
X100945Y-68407D01*
X101352Y-68092D02*
X101630Y-68092D01*
X101480Y-68321D01*
X101545Y-68321D01*
X101587Y-68350D01*
X101609Y-68378D01*
X101630Y-68435D01*
X101630Y-68578D01*
X101609Y-68635D01*
X101587Y-68664D01*
X101545Y-68692D01*
X101416Y-68692D01*
X101373Y-68664D01*
X101352Y-68635D01*
G54D15*
G54D23*
X99916Y-67692D02*
X99916Y-67092D01*
X100387Y-67692D02*
X100237Y-67407D01*
X100130Y-67692D02*
X100130Y-67092D01*
X100302Y-67092D01*
X100345Y-67121D01*
X100366Y-67150D01*
X100387Y-67207D01*
X100387Y-67292D01*
X100366Y-67350D01*
X100345Y-67378D01*
X100302Y-67407D01*
X100130Y-67407D01*
X100473Y-67750D02*
X100816Y-67750D01*
X100902Y-67150D02*
X100923Y-67121D01*
X100966Y-67092D01*
X101073Y-67092D01*
X101116Y-67121D01*
X101137Y-67150D01*
X101159Y-67207D01*
X101159Y-67264D01*
X101137Y-67350D01*
X100880Y-67692D01*
X101159Y-67692D01*
X101587Y-67692D02*
X101330Y-67692D01*
X101459Y-67692D02*
X101459Y-67092D01*
X101416Y-67178D01*
X101373Y-67235D01*
X101330Y-67264D01*
X102016Y-67692D02*
X101759Y-67692D01*
X101887Y-67692D02*
X101887Y-67092D01*
X101845Y-67178D01*
X101802Y-67235D01*
X101759Y-67264D01*
X102295Y-67092D02*
X102337Y-67092D01*
X102380Y-67121D01*
X102402Y-67150D01*
X102423Y-67207D01*
X102445Y-67321D01*
X102445Y-67464D01*
X102423Y-67578D01*
X102402Y-67635D01*
X102380Y-67664D01*
X102337Y-67692D01*
X102295Y-67692D01*
X102252Y-67664D01*
X102230Y-67635D01*
X102209Y-67578D01*
X102187Y-67464D01*
X102187Y-67321D01*
X102209Y-67207D01*
X102230Y-67150D01*
X102252Y-67121D01*
X102295Y-67092D01*
G54D15*
G54D18*
X88078Y-72220D02*
X88135Y-72239D01*
X88230Y-72239D01*
X88268Y-72220D01*
X88287Y-72201D01*
X88306Y-72163D01*
X88306Y-72125D01*
X88287Y-72087D01*
X88268Y-72068D01*
X88230Y-72049D01*
X88154Y-72030D01*
X88116Y-72011D01*
X88097Y-71992D01*
X88078Y-71954D01*
X88078Y-71916D01*
X88097Y-71878D01*
X88116Y-71858D01*
X88154Y-71839D01*
X88249Y-71839D01*
X88306Y-71858D01*
X88421Y-71839D02*
X88649Y-71839D01*
X88535Y-72239D02*
X88535Y-71839D01*
X88783Y-72239D02*
X88783Y-71839D01*
X88916Y-72125D01*
X89049Y-71839D01*
X89049Y-72239D01*
X89202Y-71839D02*
X89449Y-71839D01*
X89316Y-71992D01*
X89373Y-71992D01*
X89411Y-72011D01*
X89430Y-72030D01*
X89449Y-72068D01*
X89449Y-72163D01*
X89430Y-72201D01*
X89411Y-72220D01*
X89373Y-72239D01*
X89259Y-72239D01*
X89221Y-72220D01*
X89202Y-72201D01*
X89602Y-71878D02*
X89621Y-71858D01*
X89659Y-71839D01*
X89754Y-71839D01*
X89792Y-71858D01*
X89811Y-71878D01*
X89830Y-71916D01*
X89830Y-71954D01*
X89811Y-72011D01*
X89583Y-72239D01*
X89830Y-72239D01*
X89906Y-72278D02*
X90211Y-72278D01*
X90535Y-72201D02*
X90516Y-72220D01*
X90459Y-72239D01*
X90421Y-72239D01*
X90364Y-72220D01*
X90326Y-72182D01*
X90306Y-72144D01*
X90287Y-72068D01*
X90287Y-72011D01*
X90306Y-71935D01*
X90326Y-71897D01*
X90364Y-71858D01*
X90421Y-71839D01*
X90459Y-71839D01*
X90516Y-71858D01*
X90535Y-71878D01*
X90783Y-71839D02*
X90859Y-71839D01*
X90897Y-71858D01*
X90935Y-71897D01*
X90954Y-71973D01*
X90954Y-72106D01*
X90935Y-72182D01*
X90897Y-72220D01*
X90859Y-72239D01*
X90783Y-72239D01*
X90745Y-72220D01*
X90706Y-72182D01*
X90687Y-72106D01*
X90687Y-71973D01*
X90706Y-71897D01*
X90745Y-71858D01*
X90783Y-71839D01*
X91126Y-72239D02*
X91126Y-71839D01*
X91354Y-72239D01*
X91354Y-71839D01*
X91545Y-72239D02*
X91545Y-71839D01*
X91773Y-72239D01*
X91773Y-71839D01*
X92173Y-72239D02*
X91945Y-72239D01*
X92059Y-72239D02*
X92059Y-71839D01*
X92021Y-71897D01*
X91983Y-71935D01*
X91945Y-71954D01*
G54D24*
G54D21*
X87602Y-73281D02*
X87583Y-73300D01*
X87526Y-73319D01*
X87487Y-73319D01*
X87430Y-73300D01*
X87392Y-73262D01*
X87373Y-73224D01*
X87354Y-73148D01*
X87354Y-73091D01*
X87373Y-73015D01*
X87392Y-72977D01*
X87430Y-72938D01*
X87487Y-72919D01*
X87526Y-72919D01*
X87583Y-72938D01*
X87602Y-72958D01*
X87849Y-72919D02*
X87926Y-72919D01*
X87964Y-72938D01*
X88002Y-72977D01*
X88021Y-73053D01*
X88021Y-73186D01*
X88002Y-73262D01*
X87964Y-73300D01*
X87926Y-73319D01*
X87849Y-73319D01*
X87811Y-73300D01*
X87773Y-73262D01*
X87754Y-73186D01*
X87754Y-73053D01*
X87773Y-72977D01*
X87811Y-72938D01*
X87849Y-72919D01*
X88192Y-73319D02*
X88192Y-72919D01*
X88421Y-73319D01*
X88421Y-72919D01*
X88611Y-73319D02*
X88611Y-72919D01*
X88840Y-73319D01*
X88840Y-72919D01*
X88935Y-73358D02*
X89240Y-73358D01*
X89316Y-73300D02*
X89373Y-73319D01*
X89468Y-73319D01*
X89506Y-73300D01*
X89526Y-73281D01*
X89545Y-73243D01*
X89545Y-73205D01*
X89526Y-73167D01*
X89506Y-73148D01*
X89468Y-73129D01*
X89392Y-73110D01*
X89354Y-73091D01*
X89335Y-73072D01*
X89316Y-73034D01*
X89316Y-72996D01*
X89335Y-72958D01*
X89354Y-72938D01*
X89392Y-72919D01*
X89487Y-72919D01*
X89545Y-72938D01*
X89659Y-72919D02*
X89887Y-72919D01*
X89773Y-73319D02*
X89773Y-72919D01*
X90021Y-73319D02*
X90021Y-72919D01*
X90154Y-73205D01*
X90287Y-72919D01*
X90287Y-73319D01*
X90440Y-72919D02*
X90687Y-72919D01*
X90554Y-73072D01*
X90611Y-73072D01*
X90649Y-73091D01*
X90668Y-73110D01*
X90687Y-73148D01*
X90687Y-73243D01*
X90668Y-73281D01*
X90649Y-73300D01*
X90611Y-73319D01*
X90497Y-73319D01*
X90459Y-73300D01*
X90440Y-73281D01*
X90840Y-72958D02*
X90859Y-72938D01*
X90897Y-72919D01*
X90992Y-72919D01*
X91030Y-72938D01*
X91049Y-72958D01*
X91068Y-72996D01*
X91068Y-73034D01*
X91049Y-73091D01*
X90821Y-73319D01*
X91068Y-73319D01*
X91145Y-73358D02*
X91449Y-73358D01*
X91526Y-72958D02*
X91545Y-72938D01*
X91583Y-72919D01*
X91678Y-72919D01*
X91716Y-72938D01*
X91735Y-72958D01*
X91754Y-72996D01*
X91754Y-73034D01*
X91735Y-73091D01*
X91506Y-73319D01*
X91754Y-73319D01*
X92116Y-72919D02*
X91926Y-72919D01*
X91906Y-73110D01*
X91926Y-73091D01*
X91964Y-73072D01*
X92059Y-73072D01*
X92097Y-73091D01*
X92116Y-73110D01*
X92135Y-73148D01*
X92135Y-73243D01*
X92116Y-73281D01*
X92097Y-73300D01*
X92059Y-73319D01*
X91964Y-73319D01*
X91926Y-73300D01*
X91906Y-73281D01*
X92268Y-72919D02*
X92535Y-73319D01*
X92535Y-72919D02*
X92268Y-73319D01*
X92668Y-72958D02*
X92687Y-72938D01*
X92726Y-72919D01*
X92821Y-72919D01*
X92859Y-72938D01*
X92878Y-72958D01*
X92897Y-72996D01*
X92897Y-73034D01*
X92878Y-73091D01*
X92649Y-73319D01*
X92897Y-73319D01*
X62677Y-55394D02*
X62658Y-55413D01*
X62601Y-55432D01*
X62563Y-55432D01*
X62506Y-55413D01*
X62468Y-55375D01*
X62449Y-55337D01*
X62430Y-55261D01*
X62430Y-55204D01*
X62449Y-55128D01*
X62468Y-55090D01*
X62506Y-55051D01*
X62563Y-55032D01*
X62601Y-55032D01*
X62658Y-55051D01*
X62677Y-55071D01*
X63058Y-55432D02*
X62830Y-55432D01*
X62944Y-55432D02*
X62944Y-55032D01*
X62906Y-55090D01*
X62868Y-55128D01*
X62830Y-55147D01*
X63192Y-55032D02*
X63439Y-55032D01*
X63306Y-55185D01*
X63363Y-55185D01*
X63401Y-55204D01*
X63420Y-55223D01*
X63439Y-55261D01*
X63439Y-55356D01*
X63420Y-55394D01*
X63401Y-55413D01*
X63363Y-55432D01*
X63249Y-55432D01*
X63211Y-55413D01*
X63192Y-55394D01*
X56355Y-58198D02*
X56374Y-58141D01*
X56393Y-58122D01*
X56431Y-58103D01*
X56488Y-58103D01*
X56526Y-58122D01*
X56545Y-58141D01*
X56564Y-58179D01*
X56564Y-58331D01*
X56164Y-58331D01*
X56164Y-58198D01*
X56183Y-58160D01*
X56203Y-58141D01*
X56241Y-58122D01*
X56279Y-58122D01*
X56317Y-58141D01*
X56336Y-58160D01*
X56355Y-58198D01*
X56355Y-58331D01*
X56164Y-57988D02*
X56164Y-57760D01*
X56564Y-57874D02*
X56164Y-57874D01*
X56564Y-57417D02*
X56564Y-57645D01*
X56564Y-57531D02*
X56164Y-57531D01*
X56222Y-57569D01*
X56260Y-57607D01*
X56279Y-57645D01*
G54D13*
X66237Y-65656D02*
X65787Y-65656D01*
X66237Y-65465D02*
X65787Y-65465D01*
X66237Y-65237D01*
X65787Y-65237D01*
X66108Y-65065D02*
X66108Y-64875D01*
X66237Y-65104D02*
X65787Y-64970D01*
X66237Y-64837D01*
X66237Y-64494D02*
X66237Y-64723D01*
X66237Y-64608D02*
X65787Y-64608D01*
X65851Y-64646D01*
X65894Y-64684D01*
X65915Y-64723D01*
X67216Y-66037D02*
X66816Y-66037D01*
X67216Y-65846D02*
X66816Y-65846D01*
X67216Y-65618D01*
X66816Y-65618D01*
X67102Y-65446D02*
X67102Y-65256D01*
X67216Y-65484D02*
X66816Y-65351D01*
X67216Y-65218D01*
X67216Y-64875D02*
X67216Y-65104D01*
X67216Y-64989D02*
X66816Y-64989D01*
X66874Y-65027D01*
X66912Y-65065D01*
X66931Y-65104D01*
X66950Y-64532D02*
X67216Y-64532D01*
X66797Y-64627D02*
X67083Y-64723D01*
X67083Y-64475D01*
X66988Y-64265D02*
X66969Y-64304D01*
X66950Y-64323D01*
X66912Y-64342D01*
X66893Y-64342D01*
X66855Y-64323D01*
X66835Y-64304D01*
X66816Y-64265D01*
X66816Y-64189D01*
X66835Y-64151D01*
X66855Y-64132D01*
X66893Y-64113D01*
X66912Y-64113D01*
X66950Y-64132D01*
X66969Y-64151D01*
X66988Y-64189D01*
X66988Y-64265D01*
X67007Y-64304D01*
X67026Y-64323D01*
X67064Y-64342D01*
X67140Y-64342D01*
X67178Y-64323D01*
X67197Y-64304D01*
X67216Y-64265D01*
X67216Y-64189D01*
X67197Y-64151D01*
X67178Y-64132D01*
X67140Y-64113D01*
X67064Y-64113D01*
X67026Y-64132D01*
X67007Y-64151D01*
X66988Y-64189D01*
G54D18*
X86749Y-63581D02*
X86749Y-63181D01*
X86902Y-63181D01*
X86940Y-63200D01*
X86959Y-63220D01*
X86978Y-63258D01*
X86978Y-63315D01*
X86959Y-63353D01*
X86940Y-63372D01*
X86902Y-63391D01*
X86749Y-63391D01*
X87111Y-63181D02*
X87378Y-63181D01*
X87206Y-63581D01*
G54D21*
X72299Y-56417D02*
X72356Y-56445D01*
X72451Y-56445D01*
X72489Y-56417D01*
X72508Y-56388D01*
X72527Y-56331D01*
X72527Y-56274D01*
X72508Y-56217D01*
X72489Y-56188D01*
X72451Y-56160D01*
X72375Y-56131D01*
X72337Y-56103D01*
X72318Y-56074D01*
X72299Y-56017D01*
X72299Y-55960D01*
X72318Y-55903D01*
X72337Y-55874D01*
X72375Y-55845D01*
X72470Y-55845D01*
X72527Y-55874D01*
X72870Y-56045D02*
X72870Y-56445D01*
X72775Y-55817D02*
X72680Y-56245D01*
X72927Y-56245D01*
X71254Y-55521D02*
X71254Y-54921D01*
X71673Y-55521D02*
X71539Y-55236D01*
X71444Y-55521D02*
X71444Y-54921D01*
X71597Y-54921D01*
X71635Y-54950D01*
X71654Y-54979D01*
X71673Y-55036D01*
X71673Y-55121D01*
X71654Y-55179D01*
X71635Y-55207D01*
X71597Y-55236D01*
X71444Y-55236D01*
X71977Y-55207D02*
X71844Y-55207D01*
X71844Y-55521D02*
X71844Y-54921D01*
X72035Y-54921D01*
X72397Y-55521D02*
X72168Y-55521D01*
X72282Y-55521D02*
X72282Y-54921D01*
X72244Y-55007D01*
X72206Y-55064D01*
X72168Y-55093D01*
X72644Y-54921D02*
X72682Y-54921D01*
X72720Y-54950D01*
X72739Y-54979D01*
X72758Y-55036D01*
X72777Y-55150D01*
X72777Y-55293D01*
X72758Y-55407D01*
X72739Y-55464D01*
X72720Y-55493D01*
X72682Y-55521D01*
X72644Y-55521D01*
X72606Y-55493D01*
X72587Y-55464D01*
X72568Y-55407D01*
X72549Y-55293D01*
X72549Y-55150D01*
X72568Y-55036D01*
X72587Y-54979D01*
X72606Y-54950D01*
X72644Y-54921D01*
X73158Y-55521D02*
X72930Y-55521D01*
X73044Y-55521D02*
X73044Y-54921D01*
X73006Y-55007D01*
X72968Y-55064D01*
X72930Y-55093D01*
X73406Y-54921D02*
X73444Y-54921D01*
X73482Y-54950D01*
X73501Y-54979D01*
X73520Y-55036D01*
X73539Y-55150D01*
X73539Y-55293D01*
X73520Y-55407D01*
X73501Y-55464D01*
X73482Y-55493D01*
X73444Y-55521D01*
X73406Y-55521D01*
X73368Y-55493D01*
X73349Y-55464D01*
X73330Y-55407D01*
X73311Y-55293D01*
X73311Y-55150D01*
X73330Y-55036D01*
X73349Y-54979D01*
X73368Y-54950D01*
X73406Y-54921D01*
X73711Y-55521D02*
X73711Y-54921D01*
X73939Y-55521D01*
X73939Y-54921D01*
X102686Y-56438D02*
X102743Y-56466D01*
X102838Y-56466D01*
X102876Y-56438D01*
X102895Y-56409D01*
X102914Y-56352D01*
X102914Y-56295D01*
X102895Y-56238D01*
X102876Y-56209D01*
X102838Y-56181D01*
X102762Y-56152D01*
X102724Y-56124D01*
X102705Y-56095D01*
X102686Y-56038D01*
X102686Y-55981D01*
X102705Y-55924D01*
X102724Y-55895D01*
X102762Y-55866D01*
X102857Y-55866D01*
X102914Y-55895D01*
X103067Y-55924D02*
X103086Y-55895D01*
X103124Y-55866D01*
X103219Y-55866D01*
X103257Y-55895D01*
X103276Y-55924D01*
X103295Y-55981D01*
X103295Y-56038D01*
X103276Y-56124D01*
X103048Y-56466D01*
X103295Y-56466D01*
X101649Y-55691D02*
X101649Y-55091D01*
X102068Y-55691D02*
X101934Y-55406D01*
X101839Y-55691D02*
X101839Y-55091D01*
X101992Y-55091D01*
X102030Y-55120D01*
X102049Y-55149D01*
X102068Y-55206D01*
X102068Y-55291D01*
X102049Y-55349D01*
X102030Y-55377D01*
X101992Y-55406D01*
X101839Y-55406D01*
X102372Y-55377D02*
X102239Y-55377D01*
X102239Y-55691D02*
X102239Y-55091D01*
X102430Y-55091D01*
X102792Y-55691D02*
X102563Y-55691D01*
X102677Y-55691D02*
X102677Y-55091D01*
X102639Y-55177D01*
X102601Y-55234D01*
X102563Y-55263D01*
X103039Y-55091D02*
X103077Y-55091D01*
X103115Y-55120D01*
X103134Y-55149D01*
X103153Y-55206D01*
X103172Y-55320D01*
X103172Y-55463D01*
X103153Y-55577D01*
X103134Y-55634D01*
X103115Y-55663D01*
X103077Y-55691D01*
X103039Y-55691D01*
X103001Y-55663D01*
X102982Y-55634D01*
X102963Y-55577D01*
X102944Y-55463D01*
X102944Y-55320D01*
X102963Y-55206D01*
X102982Y-55149D01*
X103001Y-55120D01*
X103039Y-55091D01*
X103553Y-55691D02*
X103325Y-55691D01*
X103439Y-55691D02*
X103439Y-55091D01*
X103401Y-55177D01*
X103363Y-55234D01*
X103325Y-55263D01*
X103801Y-55091D02*
X103839Y-55091D01*
X103877Y-55120D01*
X103896Y-55149D01*
X103915Y-55206D01*
X103934Y-55320D01*
X103934Y-55463D01*
X103915Y-55577D01*
X103896Y-55634D01*
X103877Y-55663D01*
X103839Y-55691D01*
X103801Y-55691D01*
X103763Y-55663D01*
X103744Y-55634D01*
X103725Y-55577D01*
X103706Y-55463D01*
X103706Y-55320D01*
X103725Y-55206D01*
X103744Y-55149D01*
X103763Y-55120D01*
X103801Y-55091D01*
X104106Y-55691D02*
X104106Y-55091D01*
X104334Y-55691D01*
X104334Y-55091D01*
X87485Y-56404D02*
X87542Y-56432D01*
X87637Y-56432D01*
X87675Y-56404D01*
X87694Y-56375D01*
X87713Y-56318D01*
X87713Y-56261D01*
X87694Y-56204D01*
X87675Y-56175D01*
X87637Y-56147D01*
X87561Y-56118D01*
X87523Y-56090D01*
X87504Y-56061D01*
X87485Y-56004D01*
X87485Y-55947D01*
X87504Y-55890D01*
X87523Y-55861D01*
X87561Y-55832D01*
X87656Y-55832D01*
X87713Y-55861D01*
X88056Y-55832D02*
X87980Y-55832D01*
X87942Y-55861D01*
X87923Y-55890D01*
X87885Y-55975D01*
X87866Y-56090D01*
X87866Y-56318D01*
X87885Y-56375D01*
X87904Y-56404D01*
X87942Y-56432D01*
X88018Y-56432D01*
X88056Y-56404D01*
X88075Y-56375D01*
X88094Y-56318D01*
X88094Y-56175D01*
X88075Y-56118D01*
X88056Y-56090D01*
X88018Y-56061D01*
X87942Y-56061D01*
X87904Y-56090D01*
X87885Y-56118D01*
X87866Y-56175D01*
X86465Y-55507D02*
X86465Y-54907D01*
X86884Y-55507D02*
X86750Y-55222D01*
X86655Y-55507D02*
X86655Y-54907D01*
X86808Y-54907D01*
X86846Y-54936D01*
X86865Y-54965D01*
X86884Y-55022D01*
X86884Y-55107D01*
X86865Y-55165D01*
X86846Y-55193D01*
X86808Y-55222D01*
X86655Y-55222D01*
X87188Y-55193D02*
X87055Y-55193D01*
X87055Y-55507D02*
X87055Y-54907D01*
X87246Y-54907D01*
X87608Y-55507D02*
X87379Y-55507D01*
X87493Y-55507D02*
X87493Y-54907D01*
X87455Y-54993D01*
X87417Y-55050D01*
X87379Y-55079D01*
X87855Y-54907D02*
X87893Y-54907D01*
X87931Y-54936D01*
X87950Y-54965D01*
X87969Y-55022D01*
X87988Y-55136D01*
X87988Y-55279D01*
X87969Y-55393D01*
X87950Y-55450D01*
X87931Y-55479D01*
X87893Y-55507D01*
X87855Y-55507D01*
X87817Y-55479D01*
X87798Y-55450D01*
X87779Y-55393D01*
X87760Y-55279D01*
X87760Y-55136D01*
X87779Y-55022D01*
X87798Y-54965D01*
X87817Y-54936D01*
X87855Y-54907D01*
X88369Y-55507D02*
X88141Y-55507D01*
X88255Y-55507D02*
X88255Y-54907D01*
X88217Y-54993D01*
X88179Y-55050D01*
X88141Y-55079D01*
X88617Y-54907D02*
X88655Y-54907D01*
X88693Y-54936D01*
X88712Y-54965D01*
X88731Y-55022D01*
X88750Y-55136D01*
X88750Y-55279D01*
X88731Y-55393D01*
X88712Y-55450D01*
X88693Y-55479D01*
X88655Y-55507D01*
X88617Y-55507D01*
X88579Y-55479D01*
X88560Y-55450D01*
X88541Y-55393D01*
X88522Y-55279D01*
X88522Y-55136D01*
X88541Y-55022D01*
X88560Y-54965D01*
X88579Y-54936D01*
X88617Y-54907D01*
X88922Y-55507D02*
X88922Y-54907D01*
X89150Y-55507D01*
X89150Y-54907D01*
X109294Y-66371D02*
X109294Y-66562D01*
X108894Y-66562D01*
X109294Y-66028D02*
X109294Y-66257D01*
X109294Y-66143D02*
X108894Y-66143D01*
X108952Y-66181D01*
X108990Y-66219D01*
X109009Y-66257D01*
X108019Y-65688D02*
X108019Y-65878D01*
X107619Y-65878D01*
X107619Y-65593D02*
X107619Y-65326D01*
X108019Y-65498D01*
X107791Y-65117D02*
X107772Y-65155D01*
X107753Y-65174D01*
X107715Y-65193D01*
X107696Y-65193D01*
X107658Y-65174D01*
X107638Y-65155D01*
X107619Y-65117D01*
X107619Y-65040D01*
X107638Y-65002D01*
X107658Y-64983D01*
X107696Y-64964D01*
X107715Y-64964D01*
X107753Y-64983D01*
X107772Y-65002D01*
X107791Y-65040D01*
X107791Y-65117D01*
X107810Y-65155D01*
X107829Y-65174D01*
X107867Y-65193D01*
X107943Y-65193D01*
X107981Y-65174D01*
X108000Y-65155D01*
X108019Y-65117D01*
X108019Y-65040D01*
X108000Y-65002D01*
X107981Y-64983D01*
X107943Y-64964D01*
X107867Y-64964D01*
X107829Y-64983D01*
X107810Y-65002D01*
X107791Y-65040D01*
X107619Y-64717D02*
X107619Y-64679D01*
X107638Y-64640D01*
X107658Y-64621D01*
X107696Y-64602D01*
X107772Y-64583D01*
X107867Y-64583D01*
X107943Y-64602D01*
X107981Y-64621D01*
X108000Y-64640D01*
X108019Y-64679D01*
X108019Y-64717D01*
X108000Y-64755D01*
X107981Y-64774D01*
X107943Y-64793D01*
X107867Y-64812D01*
X107772Y-64812D01*
X107696Y-64793D01*
X107658Y-64774D01*
X107638Y-64755D01*
X107619Y-64717D01*
X107619Y-64221D02*
X107619Y-64412D01*
X107810Y-64431D01*
X107791Y-64412D01*
X107772Y-64374D01*
X107772Y-64279D01*
X107791Y-64240D01*
X107810Y-64221D01*
X107848Y-64202D01*
X107943Y-64202D01*
X107981Y-64221D01*
X108000Y-64240D01*
X108019Y-64279D01*
X108019Y-64374D01*
X108000Y-64412D01*
X107981Y-64431D01*
X107981Y-63802D02*
X108000Y-63821D01*
X108019Y-63879D01*
X108019Y-63917D01*
X108000Y-63974D01*
X107962Y-64012D01*
X107924Y-64031D01*
X107848Y-64050D01*
X107791Y-64050D01*
X107715Y-64031D01*
X107677Y-64012D01*
X107638Y-63974D01*
X107619Y-63917D01*
X107619Y-63879D01*
X107638Y-63821D01*
X107658Y-63802D01*
X107619Y-63688D02*
X108019Y-63555D01*
X107619Y-63421D01*
X113314Y-69231D02*
X112914Y-69231D01*
X113105Y-69231D02*
X113105Y-69003D01*
X113314Y-69003D02*
X112914Y-69003D01*
X113314Y-68603D02*
X113314Y-68831D01*
X113314Y-68717D02*
X112914Y-68717D01*
X112972Y-68755D01*
X113010Y-68793D01*
X113029Y-68831D01*
X112243Y-70873D02*
X111843Y-70873D01*
X112034Y-70873D02*
X112034Y-70645D01*
X112243Y-70645D02*
X111843Y-70645D01*
X112129Y-70473D02*
X112129Y-70283D01*
X112243Y-70511D02*
X111843Y-70378D01*
X112243Y-70245D01*
X112243Y-69921D02*
X112243Y-70111D01*
X111843Y-70111D01*
X112243Y-69597D02*
X112243Y-69788D01*
X111843Y-69788D01*
X112282Y-69559D02*
X112282Y-69254D01*
X112224Y-69178D02*
X112243Y-69121D01*
X112243Y-69026D01*
X112224Y-68988D01*
X112205Y-68969D01*
X112167Y-68950D01*
X112129Y-68950D01*
X112091Y-68969D01*
X112072Y-68988D01*
X112053Y-69026D01*
X112034Y-69102D01*
X112015Y-69140D01*
X111996Y-69159D01*
X111958Y-69178D01*
X111920Y-69178D01*
X111882Y-69159D01*
X111862Y-69140D01*
X111843Y-69102D01*
X111843Y-69007D01*
X111862Y-68950D01*
X112034Y-68778D02*
X112034Y-68645D01*
X112243Y-68588D02*
X112243Y-68778D01*
X111843Y-68778D01*
X111843Y-68588D01*
X112243Y-68416D02*
X111843Y-68416D01*
X112243Y-68188D01*
X111843Y-68188D01*
X112224Y-68016D02*
X112243Y-67959D01*
X112243Y-67864D01*
X112224Y-67826D01*
X112205Y-67807D01*
X112167Y-67788D01*
X112129Y-67788D01*
X112091Y-67807D01*
X112072Y-67826D01*
X112053Y-67864D01*
X112034Y-67940D01*
X112015Y-67978D01*
X111996Y-67997D01*
X111958Y-68016D01*
X111920Y-68016D01*
X111882Y-67997D01*
X111862Y-67978D01*
X111843Y-67940D01*
X111843Y-67845D01*
X111862Y-67788D01*
X111843Y-67540D02*
X111843Y-67464D01*
X111862Y-67426D01*
X111901Y-67388D01*
X111977Y-67369D01*
X112110Y-67369D01*
X112186Y-67388D01*
X112224Y-67426D01*
X112243Y-67464D01*
X112243Y-67540D01*
X112224Y-67578D01*
X112186Y-67616D01*
X112110Y-67635D01*
X111977Y-67635D01*
X111901Y-67616D01*
X111862Y-67578D01*
X111843Y-67540D01*
X112243Y-66969D02*
X112053Y-67102D01*
X112243Y-67197D02*
X111843Y-67197D01*
X111843Y-67045D01*
X111862Y-67007D01*
X111882Y-66988D01*
X111920Y-66969D01*
X111977Y-66969D01*
X112015Y-66988D01*
X112034Y-67007D01*
X112053Y-67045D01*
X112053Y-67197D01*
X106345Y-73352D02*
X106345Y-72952D01*
X106345Y-73143D02*
X106573Y-73143D01*
X106573Y-73352D02*
X106573Y-72952D01*
X106726Y-72952D02*
X106973Y-72952D01*
X106840Y-73105D01*
X106897Y-73105D01*
X106935Y-73124D01*
X106954Y-73143D01*
X106973Y-73181D01*
X106973Y-73276D01*
X106954Y-73314D01*
X106935Y-73333D01*
X106897Y-73352D01*
X106783Y-73352D01*
X106745Y-73333D01*
X106726Y-73314D01*
X104695Y-72154D02*
X104695Y-71754D01*
X104695Y-71945D02*
X104923Y-71945D01*
X104923Y-72154D02*
X104923Y-71754D01*
X105095Y-72040D02*
X105285Y-72040D01*
X105057Y-72154D02*
X105190Y-71754D01*
X105323Y-72154D01*
X105647Y-72154D02*
X105457Y-72154D01*
X105457Y-71754D01*
X105971Y-72154D02*
X105780Y-72154D01*
X105780Y-71754D01*
X106009Y-72193D02*
X106314Y-72193D01*
X106390Y-72135D02*
X106447Y-72154D01*
X106542Y-72154D01*
X106580Y-72135D01*
X106599Y-72116D01*
X106618Y-72078D01*
X106618Y-72040D01*
X106599Y-72002D01*
X106580Y-71983D01*
X106542Y-71964D01*
X106466Y-71945D01*
X106428Y-71926D01*
X106409Y-71907D01*
X106390Y-71869D01*
X106390Y-71831D01*
X106409Y-71793D01*
X106428Y-71773D01*
X106466Y-71754D01*
X106561Y-71754D01*
X106618Y-71773D01*
X106790Y-71945D02*
X106923Y-71945D01*
X106980Y-72154D02*
X106790Y-72154D01*
X106790Y-71754D01*
X106980Y-71754D01*
X107152Y-72154D02*
X107152Y-71754D01*
X107380Y-72154D01*
X107380Y-71754D01*
X107552Y-72135D02*
X107609Y-72154D01*
X107704Y-72154D01*
X107742Y-72135D01*
X107761Y-72116D01*
X107780Y-72078D01*
X107780Y-72040D01*
X107761Y-72002D01*
X107742Y-71983D01*
X107704Y-71964D01*
X107628Y-71945D01*
X107590Y-71926D01*
X107571Y-71907D01*
X107552Y-71869D01*
X107552Y-71831D01*
X107571Y-71793D01*
X107590Y-71773D01*
X107628Y-71754D01*
X107723Y-71754D01*
X107780Y-71773D01*
X108028Y-71754D02*
X108104Y-71754D01*
X108142Y-71773D01*
X108180Y-71812D01*
X108199Y-71888D01*
X108199Y-72021D01*
X108180Y-72097D01*
X108142Y-72135D01*
X108104Y-72154D01*
X108028Y-72154D01*
X107990Y-72135D01*
X107952Y-72097D01*
X107933Y-72021D01*
X107933Y-71888D01*
X107952Y-71812D01*
X107990Y-71773D01*
X108028Y-71754D01*
X108599Y-72154D02*
X108466Y-71964D01*
X108371Y-72154D02*
X108371Y-71754D01*
X108523Y-71754D01*
X108561Y-71773D01*
X108580Y-71793D01*
X108599Y-71831D01*
X108599Y-71888D01*
X108580Y-71926D01*
X108561Y-71945D01*
X108523Y-71964D01*
X108371Y-71964D01*
X111147Y-72166D02*
X111147Y-71766D01*
X111147Y-71957D02*
X111375Y-71957D01*
X111375Y-72166D02*
X111375Y-71766D01*
X111547Y-71805D02*
X111566Y-71785D01*
X111604Y-71766D01*
X111699Y-71766D01*
X111737Y-71785D01*
X111756Y-71805D01*
X111775Y-71843D01*
X111775Y-71881D01*
X111756Y-71938D01*
X111528Y-72166D01*
X111775Y-72166D01*
X109511Y-73308D02*
X109511Y-72908D01*
X109511Y-73099D02*
X109739Y-73099D01*
X109739Y-73308D02*
X109739Y-72908D01*
X109911Y-73194D02*
X110101Y-73194D01*
X109873Y-73308D02*
X110006Y-72908D01*
X110139Y-73308D01*
X110463Y-73308D02*
X110273Y-73308D01*
X110273Y-72908D01*
X110787Y-73308D02*
X110596Y-73308D01*
X110596Y-72908D01*
X110825Y-73347D02*
X111130Y-73347D01*
X111206Y-73289D02*
X111263Y-73308D01*
X111358Y-73308D01*
X111396Y-73289D01*
X111415Y-73270D01*
X111434Y-73232D01*
X111434Y-73194D01*
X111415Y-73156D01*
X111396Y-73137D01*
X111358Y-73118D01*
X111282Y-73099D01*
X111244Y-73080D01*
X111225Y-73061D01*
X111206Y-73023D01*
X111206Y-72985D01*
X111225Y-72947D01*
X111244Y-72927D01*
X111282Y-72908D01*
X111377Y-72908D01*
X111434Y-72927D01*
X111606Y-73099D02*
X111739Y-73099D01*
X111796Y-73308D02*
X111606Y-73308D01*
X111606Y-72908D01*
X111796Y-72908D01*
X111968Y-73308D02*
X111968Y-72908D01*
X112196Y-73308D01*
X112196Y-72908D01*
X112368Y-73289D02*
X112425Y-73308D01*
X112520Y-73308D01*
X112558Y-73289D01*
X112577Y-73270D01*
X112596Y-73232D01*
X112596Y-73194D01*
X112577Y-73156D01*
X112558Y-73137D01*
X112520Y-73118D01*
X112444Y-73099D01*
X112406Y-73080D01*
X112387Y-73061D01*
X112368Y-73023D01*
X112368Y-72985D01*
X112387Y-72947D01*
X112406Y-72927D01*
X112444Y-72908D01*
X112539Y-72908D01*
X112596Y-72927D01*
X112844Y-72908D02*
X112920Y-72908D01*
X112958Y-72927D01*
X112996Y-72966D01*
X113015Y-73042D01*
X113015Y-73175D01*
X112996Y-73251D01*
X112958Y-73289D01*
X112920Y-73308D01*
X112844Y-73308D01*
X112806Y-73289D01*
X112768Y-73251D01*
X112749Y-73175D01*
X112749Y-73042D01*
X112768Y-72966D01*
X112806Y-72927D01*
X112844Y-72908D01*
X113415Y-73308D02*
X113282Y-73118D01*
X113187Y-73308D02*
X113187Y-72908D01*
X113339Y-72908D01*
X113377Y-72927D01*
X113396Y-72947D01*
X113415Y-72985D01*
X113415Y-73042D01*
X113396Y-73080D01*
X113377Y-73099D01*
X113339Y-73118D01*
X113187Y-73118D01*
X64178Y-69703D02*
X64178Y-69893D01*
X63778Y-69893D01*
X63969Y-69436D02*
X63969Y-69569D01*
X64178Y-69569D02*
X63778Y-69569D01*
X63778Y-69379D01*
X64178Y-69017D02*
X64178Y-69245D01*
X64178Y-69131D02*
X63778Y-69131D01*
X63836Y-69169D01*
X63874Y-69207D01*
X63893Y-69245D01*
X62990Y-70271D02*
X62990Y-70461D01*
X62590Y-70461D01*
X62781Y-70004D02*
X62781Y-70137D01*
X62990Y-70137D02*
X62590Y-70137D01*
X62590Y-69947D01*
X62590Y-69832D02*
X62590Y-69585D01*
X62743Y-69718D01*
X62743Y-69661D01*
X62762Y-69623D01*
X62781Y-69604D01*
X62819Y-69585D01*
X62914Y-69585D01*
X62952Y-69604D01*
X62971Y-69623D01*
X62990Y-69661D01*
X62990Y-69775D01*
X62971Y-69813D01*
X62952Y-69832D01*
X62590Y-69451D02*
X62590Y-69204D01*
X62743Y-69337D01*
X62743Y-69280D01*
X62762Y-69242D01*
X62781Y-69223D01*
X62819Y-69204D01*
X62914Y-69204D01*
X62952Y-69223D01*
X62971Y-69242D01*
X62990Y-69280D01*
X62990Y-69394D01*
X62971Y-69432D01*
X62952Y-69451D01*
X62952Y-68804D02*
X62971Y-68823D01*
X62990Y-68880D01*
X62990Y-68918D01*
X62971Y-68975D01*
X62933Y-69013D01*
X62895Y-69032D01*
X62819Y-69051D01*
X62762Y-69051D01*
X62686Y-69032D01*
X62648Y-69013D01*
X62609Y-68975D01*
X62590Y-68918D01*
X62590Y-68880D01*
X62609Y-68823D01*
X62629Y-68804D01*
X62590Y-68690D02*
X62990Y-68556D01*
X62590Y-68423D01*
M02*
