G04 (created by PCBNEW (22-Jun-2014 BZR 4027)-stable) date vie 24 oct 2014 06:28:31 CST*
%MOIN*%
G04 Gerber Fmt 3.4, Leading zero omitted, Abs format*
%FSLAX34Y34*%
G01*
G70*
G90*
G04 APERTURE LIST*
%ADD10C,0.00590551*%
%ADD11R,0.06X0.06*%
%ADD12C,0.06*%
%ADD13R,0.3X0.3*%
%ADD14R,0.175X0.175*%
%ADD15R,0.2X0.2*%
%ADD16R,0.125X0.125*%
%ADD17R,0.24X0.24*%
%ADD18R,0.1X0.1*%
%ADD19R,0.22X0.22*%
%ADD20C,0.055*%
%ADD21R,0.071X0.063*%
%ADD22R,0.063X0.071*%
%ADD23R,0.0709X0.0629*%
%ADD24R,0.0629X0.0709*%
%ADD25R,0.055X0.055*%
%ADD26C,0.1*%
%ADD27R,0.065X0.04*%
%ADD28C,0.07*%
%ADD29R,0.07X0.07*%
%ADD30C,0.05*%
%ADD31C,0.012*%
%ADD32C,0.08*%
%ADD33C,0.2*%
%ADD34C,0.1*%
%ADD35C,0.3*%
%ADD36C,0.09*%
%ADD37C,0.035*%
%ADD38C,0.075*%
G04 APERTURE END LIST*
G54D10*
G54D11*
X106830Y-54205D03*
G54D12*
X106830Y-55205D03*
G54D13*
X53402Y-59645D03*
X53402Y-56235D03*
G54D14*
X58450Y-61200D03*
X74450Y-61200D03*
X77430Y-61250D03*
X93430Y-61250D03*
G54D15*
X76450Y-65740D03*
G54D16*
X96550Y-60490D03*
G54D15*
X103365Y-61730D03*
G54D17*
X53915Y-63010D03*
X53915Y-69810D03*
G54D18*
X103300Y-64330D03*
X102010Y-64330D03*
X93110Y-64230D03*
X93110Y-62940D03*
G54D19*
X56810Y-53230D03*
X57838Y-71764D03*
X112518Y-60956D03*
G54D20*
X112738Y-58030D03*
X111738Y-58030D03*
X98888Y-63835D03*
X99888Y-63835D03*
X80375Y-63960D03*
X79375Y-63960D03*
X60315Y-70475D03*
X60315Y-69475D03*
X90340Y-63830D03*
X91340Y-63830D03*
X106700Y-67640D03*
X106700Y-68640D03*
X111474Y-54566D03*
X111474Y-55566D03*
X60785Y-53850D03*
X59785Y-53850D03*
G54D21*
X58935Y-58210D03*
X58935Y-57110D03*
X113430Y-55570D03*
X113430Y-54470D03*
G54D22*
X79975Y-70695D03*
X78875Y-70695D03*
G54D21*
X77665Y-71963D03*
X77665Y-73063D03*
X67870Y-61720D03*
X67870Y-62820D03*
X88890Y-64450D03*
X88890Y-63350D03*
X105245Y-62465D03*
X105245Y-61365D03*
G54D22*
X96646Y-61974D03*
X95546Y-61974D03*
G54D21*
X98334Y-61966D03*
X98334Y-60866D03*
G54D22*
X83204Y-64768D03*
X84304Y-64768D03*
G54D21*
X83006Y-62920D03*
X83006Y-61820D03*
X63395Y-62803D03*
X63395Y-63903D03*
X64894Y-62798D03*
X64894Y-61698D03*
G54D22*
X104125Y-70695D03*
X103025Y-70695D03*
G54D21*
X97000Y-69670D03*
X97000Y-70770D03*
X96000Y-69670D03*
X96000Y-70770D03*
G54D22*
X110900Y-69950D03*
X109800Y-69950D03*
G54D21*
X109575Y-68500D03*
X109575Y-67400D03*
G54D23*
X99579Y-61949D03*
X99579Y-60831D03*
X101143Y-60829D03*
X101143Y-61947D03*
X79916Y-62903D03*
X79916Y-61785D03*
X81188Y-61800D03*
X81188Y-62918D03*
X60306Y-62811D03*
X60306Y-61693D03*
X61824Y-61693D03*
X61824Y-62811D03*
X60186Y-59331D03*
X60186Y-58213D03*
G54D24*
X112232Y-53052D03*
X113350Y-53052D03*
G54D23*
X110865Y-67421D03*
X110865Y-68539D03*
G54D24*
X109781Y-71080D03*
X110899Y-71080D03*
X107619Y-70700D03*
X106501Y-70700D03*
G54D21*
X57660Y-68660D03*
X57660Y-69760D03*
G54D20*
X75024Y-68605D03*
X75024Y-69605D03*
X75024Y-70605D03*
X75024Y-71605D03*
X72024Y-71605D03*
X72024Y-70605D03*
X72024Y-69605D03*
X72024Y-68605D03*
X65116Y-67624D03*
X65116Y-68624D03*
X65116Y-69624D03*
X65116Y-70624D03*
X68116Y-70624D03*
X68116Y-69624D03*
X68116Y-68624D03*
X68116Y-67624D03*
G54D25*
X85522Y-66546D03*
G54D20*
X84522Y-66546D03*
X83522Y-66546D03*
X82522Y-66546D03*
X81522Y-66546D03*
X80522Y-66546D03*
X79522Y-66546D03*
X79522Y-69546D03*
X80522Y-69546D03*
X81522Y-69546D03*
X82522Y-69546D03*
X83522Y-69546D03*
X84522Y-69546D03*
X85522Y-69546D03*
G54D25*
X94740Y-66502D03*
G54D20*
X93740Y-66502D03*
X92740Y-66502D03*
X91740Y-66502D03*
X90740Y-66502D03*
X89740Y-66502D03*
X88740Y-66502D03*
X88740Y-69502D03*
X89740Y-69502D03*
X90740Y-69502D03*
X91740Y-69502D03*
X92740Y-69502D03*
X93740Y-69502D03*
X94740Y-69502D03*
G54D25*
X104180Y-66420D03*
G54D20*
X103180Y-66420D03*
X102180Y-66420D03*
X101180Y-66420D03*
X100180Y-66420D03*
X99180Y-66420D03*
X98180Y-66420D03*
X98180Y-69420D03*
X99180Y-69420D03*
X100180Y-69420D03*
X101180Y-69420D03*
X102180Y-69420D03*
X103180Y-69420D03*
X104180Y-69420D03*
G54D12*
X79014Y-73051D03*
X79025Y-72060D03*
X84014Y-73051D03*
X80014Y-72051D03*
X85014Y-73051D03*
X81014Y-72051D03*
X86014Y-73051D03*
X82014Y-72051D03*
X87014Y-73051D03*
X83014Y-72051D03*
X88014Y-73051D03*
X84014Y-72051D03*
X89014Y-73051D03*
X85014Y-72051D03*
X90014Y-73051D03*
X86014Y-72051D03*
X91014Y-73051D03*
X87014Y-72051D03*
X92014Y-73051D03*
X88014Y-72051D03*
X93014Y-73051D03*
X89014Y-72051D03*
X94014Y-73051D03*
X90014Y-72051D03*
X91014Y-72051D03*
X95014Y-73051D03*
X92014Y-72051D03*
X94014Y-72051D03*
X95014Y-72051D03*
X96014Y-72051D03*
X97014Y-72051D03*
X96014Y-73051D03*
X97014Y-73051D03*
X80014Y-73051D03*
X81014Y-73051D03*
X82014Y-73051D03*
X83014Y-73051D03*
X98014Y-73051D03*
X98014Y-72051D03*
X93014Y-72051D03*
X99014Y-73051D03*
X99014Y-72051D03*
X100014Y-73051D03*
X100014Y-72051D03*
X101014Y-73051D03*
X101014Y-72051D03*
X102014Y-73051D03*
X102014Y-72051D03*
X103014Y-73051D03*
X103014Y-72051D03*
G54D26*
X62964Y-54194D03*
X62964Y-56334D03*
X61420Y-66610D03*
X59280Y-66610D03*
X108500Y-54125D03*
X108500Y-56265D03*
X110260Y-66350D03*
X110260Y-64210D03*
G54D18*
X56737Y-58627D03*
X56739Y-57110D03*
G54D27*
X65305Y-65835D03*
X65305Y-65335D03*
X65305Y-64835D03*
X65305Y-64335D03*
X67805Y-64335D03*
X67805Y-64835D03*
X67805Y-65335D03*
X67805Y-65835D03*
G54D10*
G36*
X85945Y-65720D02*
X85945Y-63520D01*
X88145Y-63520D01*
X88145Y-65720D01*
X85945Y-65720D01*
X85945Y-65720D01*
G37*
G54D28*
X71600Y-55800D03*
X72600Y-55800D03*
G54D29*
X73600Y-55800D03*
G54D28*
X68850Y-55700D03*
X67850Y-55700D03*
G54D29*
X66850Y-55700D03*
G54D28*
X99400Y-55800D03*
X98400Y-55800D03*
G54D29*
X97400Y-55800D03*
G54D28*
X84000Y-55800D03*
X83000Y-55800D03*
G54D29*
X82000Y-55800D03*
G54D28*
X102000Y-55800D03*
X103000Y-55800D03*
G54D29*
X104000Y-55800D03*
G54D28*
X86800Y-55800D03*
X87800Y-55800D03*
G54D29*
X88800Y-55800D03*
X108460Y-65600D03*
G54D28*
X108460Y-63600D03*
X108460Y-64600D03*
G54D29*
X112590Y-69925D03*
G54D28*
X112590Y-67925D03*
X112590Y-68925D03*
G54D29*
X105650Y-72600D03*
G54D28*
X107650Y-72600D03*
X106650Y-72600D03*
G54D29*
X112452Y-72556D03*
G54D28*
X110452Y-72556D03*
X111452Y-72556D03*
G54D29*
X63360Y-70465D03*
G54D28*
X63360Y-68465D03*
X63360Y-69465D03*
G54D30*
X66374Y-61732D03*
X113302Y-66395D03*
X70278Y-64068D03*
X104097Y-72555D03*
X76500Y-68550D03*
X72420Y-63750D03*
X77000Y-62910D03*
X69533Y-61821D03*
X77072Y-69561D03*
X79254Y-61641D03*
X68341Y-66423D03*
X69737Y-66012D03*
X99405Y-59835D03*
X94738Y-59801D03*
X71124Y-60860D03*
X70960Y-60130D03*
G54D31*
X63360Y-66164D02*
X63360Y-65937D01*
X63360Y-68465D02*
X63360Y-68090D01*
X63360Y-66164D02*
X63360Y-68090D01*
X63917Y-65380D02*
X65304Y-65380D01*
X63360Y-65937D02*
X63917Y-65380D01*
X72024Y-67904D02*
X72024Y-68605D01*
X71744Y-67624D02*
X72024Y-67904D01*
X68116Y-67624D02*
X71744Y-67624D01*
X112232Y-53052D02*
X111753Y-53052D01*
X111753Y-53052D02*
X111674Y-53130D01*
G54D32*
X66340Y-61698D02*
X66374Y-61732D01*
X64894Y-61698D02*
X66340Y-61698D01*
G54D33*
X110019Y-53130D02*
X111674Y-53130D01*
X111674Y-53130D02*
X111705Y-53100D01*
G54D32*
X83000Y-55800D02*
X83000Y-61814D01*
X83000Y-61814D02*
X83006Y-61820D01*
X67870Y-61720D02*
X66386Y-61720D01*
X66386Y-61720D02*
X66374Y-61732D01*
X67880Y-55970D02*
X67880Y-61633D01*
X67874Y-61639D02*
X67870Y-61720D01*
X67880Y-61633D02*
X67874Y-61639D01*
X67850Y-55700D02*
X67850Y-54950D01*
X67850Y-54950D02*
X69669Y-53130D01*
X98400Y-55800D02*
X98400Y-60800D01*
X98400Y-60800D02*
X98334Y-60866D01*
G54D34*
X111354Y-54396D02*
X111335Y-54396D01*
X111335Y-54396D02*
X110019Y-53130D01*
G54D32*
X98400Y-55800D02*
X98400Y-54150D01*
X98400Y-54150D02*
X99418Y-53132D01*
X83000Y-55800D02*
X83000Y-54370D01*
X83000Y-54370D02*
X81762Y-53132D01*
G54D35*
X61789Y-53130D02*
X69669Y-53130D01*
X69669Y-53130D02*
X81762Y-53132D01*
X81762Y-53132D02*
X99418Y-53132D01*
X99418Y-53132D02*
X110019Y-53130D01*
G54D32*
X61789Y-53130D02*
X61787Y-53128D01*
G54D31*
X110090Y-65230D02*
X111400Y-65230D01*
X108460Y-63600D02*
X110090Y-65230D01*
X111400Y-65230D02*
X113302Y-66395D01*
X67803Y-64329D02*
X70017Y-64329D01*
X70017Y-64329D02*
X70278Y-64068D01*
X84304Y-66328D02*
X84522Y-66546D01*
X84304Y-64768D02*
X84304Y-66328D01*
X62643Y-65287D02*
X62643Y-64655D01*
X62643Y-65287D02*
X62643Y-68748D01*
X63360Y-69465D02*
X62643Y-68748D01*
X62643Y-64655D02*
X63395Y-63903D01*
X63395Y-63903D02*
X67373Y-63903D01*
X67373Y-63903D02*
X67803Y-64329D01*
X57660Y-68660D02*
X59500Y-68660D01*
X59280Y-66610D02*
X59280Y-68440D01*
X59280Y-68440D02*
X59500Y-68660D01*
X59500Y-68660D02*
X60315Y-69475D01*
X111339Y-69219D02*
X111884Y-69219D01*
X111884Y-69219D02*
X112590Y-69925D01*
X109800Y-69950D02*
X108010Y-69950D01*
X108010Y-69950D02*
X106700Y-68640D01*
X103025Y-70695D02*
X103025Y-69575D01*
X103025Y-69575D02*
X103180Y-69420D01*
X103014Y-72051D02*
X103014Y-70705D01*
X103014Y-70705D02*
X103025Y-70695D01*
X77665Y-73063D02*
X79002Y-73063D01*
X79002Y-73063D02*
X79014Y-73051D01*
X79025Y-72060D02*
X79025Y-73040D01*
X79025Y-73040D02*
X79014Y-73051D01*
X103014Y-73051D02*
X103014Y-72051D01*
X95546Y-61974D02*
X95546Y-63536D01*
X95546Y-63536D02*
X93740Y-65342D01*
X93740Y-65342D02*
X93740Y-66502D01*
X110531Y-69219D02*
X109800Y-69950D01*
X111339Y-69219D02*
X110531Y-69219D01*
X112452Y-72556D02*
X112452Y-70063D01*
X112452Y-70063D02*
X112590Y-69925D01*
G54D36*
X58935Y-57110D02*
X56739Y-57110D01*
G54D32*
X113430Y-55570D02*
X111478Y-55570D01*
X111478Y-55570D02*
X111474Y-55566D01*
G54D31*
X109575Y-67400D02*
X107940Y-67400D01*
X107940Y-67400D02*
X106700Y-68640D01*
X109575Y-65315D02*
X109575Y-67400D01*
X108860Y-64600D02*
X109575Y-65315D01*
X108460Y-64600D02*
X108860Y-64600D01*
X110865Y-68539D02*
X109614Y-68539D01*
X109614Y-68539D02*
X109575Y-68500D01*
X106501Y-70700D02*
X104130Y-70700D01*
X104130Y-70700D02*
X104125Y-70695D01*
X110900Y-69950D02*
X110900Y-71079D01*
X110900Y-71079D02*
X110899Y-71080D01*
X88890Y-64450D02*
X88890Y-66352D01*
X88890Y-66352D02*
X88740Y-66502D01*
X90340Y-63830D02*
X90340Y-63100D01*
X90500Y-62940D02*
X93110Y-62940D01*
X90340Y-63100D02*
X90500Y-62940D01*
X90340Y-63830D02*
X90340Y-64038D01*
X89740Y-64638D02*
X89740Y-66502D01*
X90340Y-64038D02*
X89740Y-64638D01*
X65116Y-69624D02*
X65116Y-69629D01*
X68535Y-73053D02*
X68535Y-73040D01*
X68527Y-73045D02*
X68535Y-73053D01*
X68527Y-73040D02*
X68527Y-73045D01*
X65116Y-69629D02*
X68527Y-73040D01*
X76406Y-73040D02*
X76588Y-73040D01*
X68535Y-73040D02*
X76406Y-73040D01*
X76588Y-73040D02*
X77665Y-71963D01*
X77665Y-71963D02*
X77665Y-71905D01*
X77665Y-71905D02*
X78875Y-70695D01*
X99518Y-71570D02*
X99518Y-70082D01*
X99518Y-70082D02*
X100180Y-69420D01*
X94517Y-72554D02*
X94014Y-72051D01*
X99257Y-72554D02*
X94517Y-72554D01*
X99518Y-72293D02*
X99257Y-72554D01*
X99518Y-71570D02*
X99518Y-72293D01*
X113310Y-68645D02*
X112590Y-67925D01*
X112086Y-67421D02*
X112590Y-67925D01*
X110865Y-67421D02*
X112086Y-67421D01*
X113310Y-72870D02*
X113310Y-68645D01*
X112883Y-73297D02*
X113310Y-72870D01*
X104839Y-73297D02*
X112883Y-73297D01*
X104097Y-72555D02*
X104839Y-73297D01*
X101516Y-71854D02*
X101516Y-70084D01*
X101516Y-70084D02*
X102180Y-69420D01*
X101371Y-73535D02*
X101371Y-73533D01*
X101290Y-73535D02*
X93512Y-73535D01*
X101371Y-73535D02*
X101290Y-73535D01*
X93014Y-73051D02*
X93512Y-73535D01*
X101516Y-73388D02*
X101516Y-71854D01*
X101371Y-73533D02*
X101516Y-73388D01*
G54D34*
X93430Y-61250D02*
X94612Y-61250D01*
X95372Y-60490D02*
X96550Y-60490D01*
X94612Y-61250D02*
X95372Y-60490D01*
G54D31*
X102010Y-64330D02*
X102010Y-64840D01*
X101730Y-65120D02*
X98888Y-65120D01*
X102010Y-64840D02*
X101730Y-65120D01*
X98888Y-63835D02*
X98888Y-65120D01*
X98888Y-65120D02*
X98888Y-66128D01*
X98888Y-66128D02*
X99180Y-66420D01*
X96014Y-72051D02*
X96014Y-70784D01*
X96014Y-70784D02*
X96000Y-70770D01*
X109781Y-71080D02*
X109781Y-71885D01*
X109781Y-71885D02*
X110452Y-72556D01*
G54D36*
X58935Y-58210D02*
X60281Y-58210D01*
X60281Y-58210D02*
X60291Y-58200D01*
G54D32*
X64920Y-62805D02*
X63397Y-62805D01*
X63397Y-62805D02*
X63395Y-62803D01*
X60306Y-62811D02*
X61824Y-62811D01*
G54D31*
X75024Y-68605D02*
X76445Y-68605D01*
X76445Y-68605D02*
X76500Y-68550D01*
G54D36*
X113427Y-53081D02*
X113427Y-54467D01*
X113427Y-54467D02*
X113430Y-54470D01*
G54D31*
X65304Y-64860D02*
X66267Y-64860D01*
X67155Y-66915D02*
X67125Y-66885D01*
X67155Y-66915D02*
X68005Y-66915D01*
X66836Y-66596D02*
X67125Y-66885D01*
X66836Y-65429D02*
X66836Y-66596D01*
X66420Y-65013D02*
X66836Y-65429D01*
X66267Y-64860D02*
X66420Y-65013D01*
X75024Y-70605D02*
X74745Y-70605D01*
X73560Y-67780D02*
X73560Y-67140D01*
X73560Y-67140D02*
X73335Y-66915D01*
X73560Y-69420D02*
X73560Y-67780D01*
X74745Y-70605D02*
X73560Y-69420D01*
X73155Y-66915D02*
X73335Y-66915D01*
X68005Y-66915D02*
X73155Y-66915D01*
X73335Y-66915D02*
X73337Y-66915D01*
X67980Y-66915D02*
X68005Y-66915D01*
G54D32*
X98334Y-61966D02*
X96654Y-61966D01*
X96654Y-61966D02*
X96646Y-61974D01*
X99579Y-61949D02*
X98351Y-61949D01*
X98351Y-61949D02*
X98334Y-61966D01*
X101143Y-61947D02*
X99581Y-61947D01*
X99581Y-61947D02*
X99579Y-61949D01*
G54D31*
X81188Y-62918D02*
X83004Y-62918D01*
X83004Y-62918D02*
X83006Y-62920D01*
X83006Y-64570D02*
X83204Y-64768D01*
X83006Y-62920D02*
X83006Y-64570D01*
X81188Y-62918D02*
X79931Y-62918D01*
X79931Y-62918D02*
X79916Y-62903D01*
G54D32*
X80522Y-66546D02*
X80522Y-64107D01*
X80522Y-64107D02*
X80375Y-63960D01*
G54D31*
X105245Y-62465D02*
X105245Y-65355D01*
X105245Y-65355D02*
X104180Y-66420D01*
X97014Y-70784D02*
X97000Y-70770D01*
X97014Y-72051D02*
X97014Y-70784D01*
X107650Y-72600D02*
X107650Y-70731D01*
X107650Y-70731D02*
X107619Y-70700D01*
G54D37*
X70850Y-65335D02*
X71055Y-65130D01*
X67805Y-65335D02*
X70850Y-65335D01*
X71055Y-65130D02*
X72420Y-63750D01*
G54D32*
X76040Y-62790D02*
X74450Y-61200D01*
X76880Y-62790D02*
X76040Y-62790D01*
X77000Y-62910D02*
X76880Y-62790D01*
X103000Y-55800D02*
X103000Y-57465D01*
X103000Y-57465D02*
X103365Y-57830D01*
G54D33*
X103365Y-61730D02*
X103365Y-57830D01*
X103357Y-57838D02*
X103356Y-57838D01*
X103365Y-57830D02*
X103357Y-57838D01*
G54D32*
X99888Y-63835D02*
X100285Y-63835D01*
X102005Y-63090D02*
X103365Y-61730D01*
X101030Y-63090D02*
X102005Y-63090D01*
X100285Y-63835D02*
X101030Y-63090D01*
X101143Y-60829D02*
X102464Y-60829D01*
X102464Y-60829D02*
X103365Y-61730D01*
X99579Y-60831D02*
X101141Y-60831D01*
X101141Y-60831D02*
X101143Y-60829D01*
X69533Y-61822D02*
X69533Y-61821D01*
X68788Y-62826D02*
X69533Y-61822D01*
X67867Y-62826D02*
X68788Y-62826D01*
G54D31*
X75846Y-70679D02*
X76964Y-69561D01*
X76964Y-69561D02*
X77072Y-69561D01*
X68116Y-69624D02*
X71289Y-69624D01*
X75408Y-71115D02*
X75753Y-70770D01*
X75753Y-70770D02*
X75844Y-70679D01*
X73325Y-71115D02*
X75408Y-71115D01*
X72311Y-70101D02*
X73325Y-71115D01*
X71766Y-70101D02*
X72311Y-70101D01*
X71289Y-69624D02*
X71766Y-70101D01*
X75844Y-70679D02*
X75846Y-70679D01*
X68116Y-68624D02*
X68116Y-69624D01*
G54D37*
X67802Y-64850D02*
X70310Y-64850D01*
X70532Y-64628D02*
X72600Y-62560D01*
X70325Y-64835D02*
X70532Y-64628D01*
X70310Y-64850D02*
X70325Y-64835D01*
G54D32*
X78831Y-64080D02*
X79255Y-64080D01*
X79255Y-64080D02*
X79375Y-63960D01*
G54D34*
X77320Y-64080D02*
X78831Y-64080D01*
X72600Y-62670D02*
X74010Y-64080D01*
X74010Y-64080D02*
X77320Y-64080D01*
X72600Y-62560D02*
X72600Y-62670D01*
G54D33*
X58580Y-61200D02*
X61758Y-61200D01*
X61758Y-61200D02*
X63360Y-59598D01*
X63360Y-59598D02*
X65670Y-57288D01*
G54D34*
X72600Y-57059D02*
X72600Y-62560D01*
G54D38*
X72600Y-55800D02*
X72600Y-57059D01*
X72600Y-57059D02*
X72590Y-57069D01*
G54D32*
X65670Y-57288D02*
X65670Y-57284D01*
X66850Y-56104D02*
X66850Y-55700D01*
X65670Y-57284D02*
X66850Y-56104D01*
G54D33*
X65670Y-57288D02*
X65604Y-57354D01*
G54D31*
X79254Y-61641D02*
X79254Y-61250D01*
X79254Y-61250D02*
X79254Y-61641D01*
X79254Y-61641D02*
X79254Y-61250D01*
G54D33*
X77430Y-61250D02*
X79254Y-61250D01*
X79254Y-61250D02*
X81024Y-61250D01*
X81459Y-60815D02*
X81459Y-55769D01*
X81024Y-61250D02*
X81459Y-60815D01*
G54D36*
X79931Y-61800D02*
X81188Y-61800D01*
G54D31*
X91340Y-63830D02*
X91340Y-64081D01*
X90740Y-64681D02*
X90740Y-66502D01*
X91340Y-64081D02*
X90740Y-64681D01*
X79931Y-61800D02*
X79916Y-61785D01*
G54D33*
X55726Y-63030D02*
X55726Y-62077D01*
G54D35*
X53915Y-63010D02*
X55706Y-63010D01*
X55706Y-63010D02*
X55726Y-63030D01*
G54D33*
X56198Y-58861D02*
X56200Y-58860D01*
X56198Y-61605D02*
X56198Y-58861D01*
X55726Y-62077D02*
X56198Y-61605D01*
G54D31*
X68341Y-66423D02*
X68341Y-66422D01*
X68631Y-66132D02*
X68631Y-65892D01*
X68341Y-66422D02*
X68631Y-66132D01*
X69737Y-66012D02*
X69676Y-66012D01*
X68631Y-65892D02*
X69556Y-65892D01*
X69676Y-66012D02*
X69556Y-65892D01*
X67800Y-65892D02*
X68631Y-65892D01*
X102000Y-55800D02*
X102000Y-55330D01*
X105245Y-55805D02*
X105245Y-61365D01*
X104440Y-55000D02*
X105245Y-55805D01*
X102330Y-55000D02*
X104440Y-55000D01*
X102000Y-55330D02*
X102330Y-55000D01*
X99405Y-59835D02*
X99400Y-59830D01*
X99400Y-59830D02*
X99400Y-55800D01*
X86800Y-55800D02*
X86800Y-56533D01*
X94617Y-56565D02*
X94754Y-56702D01*
X86832Y-56565D02*
X94617Y-56565D01*
X86800Y-56533D02*
X86832Y-56565D01*
X94738Y-59801D02*
X94738Y-59562D01*
X94760Y-59510D02*
X94754Y-59510D01*
X94754Y-59516D02*
X94760Y-59510D01*
X94754Y-59546D02*
X94754Y-59516D01*
X94738Y-59562D02*
X94754Y-59546D01*
X94754Y-59510D02*
X94754Y-56702D01*
X88890Y-63350D02*
X88890Y-57190D01*
X88890Y-57190D02*
X88550Y-56850D01*
X84000Y-55800D02*
X84000Y-56300D01*
X84550Y-56850D02*
X88550Y-56850D01*
X84000Y-56300D02*
X84550Y-56850D01*
X93014Y-72051D02*
X93014Y-72050D01*
X90740Y-69776D02*
X90740Y-69502D01*
X93014Y-72050D02*
X90740Y-69776D01*
X70160Y-60399D02*
X70160Y-57010D01*
X70160Y-60570D02*
X70160Y-60399D01*
X68850Y-55700D02*
X70160Y-57010D01*
X70439Y-60849D02*
X70160Y-60570D01*
X71113Y-60849D02*
X70439Y-60849D01*
X71124Y-60860D02*
X71113Y-60849D01*
X70960Y-57060D02*
X70960Y-56440D01*
X70960Y-56440D02*
X71600Y-55800D01*
X70960Y-57060D02*
X70960Y-60130D01*
X108460Y-65600D02*
X107110Y-65600D01*
X60186Y-59331D02*
X58035Y-59331D01*
X61420Y-66481D02*
X61420Y-66610D01*
X57384Y-62445D02*
X61420Y-66481D01*
X57384Y-59982D02*
X57384Y-62445D01*
X58035Y-59331D02*
X57384Y-59982D01*
X61420Y-69356D02*
X61420Y-70373D01*
X61420Y-70373D02*
X61522Y-70475D01*
X102180Y-66420D02*
X102180Y-66452D01*
X102180Y-66452D02*
X102949Y-67221D01*
X93471Y-67221D02*
X102949Y-67221D01*
X102949Y-67221D02*
X105931Y-67221D01*
X105931Y-67221D02*
X106426Y-66726D01*
X91845Y-67221D02*
X93471Y-67221D01*
X84180Y-67221D02*
X91845Y-67221D01*
X92740Y-66502D02*
X92752Y-66502D01*
X92752Y-66502D02*
X93471Y-67221D01*
X83522Y-66546D02*
X83522Y-66548D01*
X84180Y-67218D02*
X84180Y-67221D01*
X84183Y-67221D02*
X84180Y-67218D01*
X84195Y-67221D02*
X84183Y-67221D01*
X83522Y-66548D02*
X84195Y-67221D01*
X63360Y-70465D02*
X63360Y-70457D01*
X63360Y-70457D02*
X64697Y-69120D01*
X62975Y-70475D02*
X63350Y-70475D01*
X61522Y-70475D02*
X62975Y-70475D01*
X63350Y-70475D02*
X63360Y-70465D01*
X83840Y-67221D02*
X80871Y-67221D01*
X65955Y-69120D02*
X64697Y-69120D01*
X69625Y-72790D02*
X65955Y-69120D01*
X75302Y-72790D02*
X69625Y-72790D01*
X80871Y-67221D02*
X75302Y-72790D01*
X60315Y-70475D02*
X61522Y-70475D01*
X57660Y-69760D02*
X53965Y-69760D01*
X53965Y-69760D02*
X53915Y-69810D01*
X60315Y-70475D02*
X59885Y-70475D01*
X59170Y-69760D02*
X57660Y-69760D01*
X59885Y-70475D02*
X59170Y-69760D01*
X61420Y-66610D02*
X61420Y-69356D01*
X107110Y-65600D02*
X106426Y-66284D01*
G54D32*
X106426Y-63900D02*
X106426Y-66284D01*
X106426Y-66284D02*
X106426Y-66726D01*
X106426Y-66726D02*
X106426Y-67235D01*
X106426Y-67235D02*
X106426Y-67366D01*
X106426Y-67366D02*
X106700Y-67640D01*
X106830Y-55205D02*
X106830Y-59865D01*
X106414Y-63888D02*
X106426Y-63900D01*
X106426Y-63900D02*
X106436Y-63910D01*
X106414Y-60281D02*
X106414Y-63888D01*
X106830Y-59865D02*
X106414Y-60281D01*
G54D31*
X83862Y-67221D02*
X84180Y-67221D01*
X83840Y-67221D02*
X83862Y-67221D01*
X83841Y-67218D02*
X83840Y-67221D01*
X102180Y-66420D02*
X102210Y-66420D01*
X103300Y-65330D02*
X103300Y-64330D01*
X102210Y-66420D02*
X103300Y-65330D01*
X92740Y-66502D02*
X92740Y-64600D01*
X92740Y-64600D02*
X93110Y-64230D01*
X79975Y-70695D02*
X79975Y-70093D01*
X79975Y-70093D02*
X80522Y-69546D01*
X97000Y-68854D02*
X96936Y-68790D01*
X97000Y-69670D02*
X97000Y-68854D01*
X96936Y-68790D02*
X98550Y-68790D01*
X96000Y-68895D02*
X95895Y-68790D01*
X96000Y-69670D02*
X96000Y-68895D01*
X95895Y-68790D02*
X96440Y-68790D01*
X89740Y-69502D02*
X89740Y-69497D01*
X89740Y-69497D02*
X90447Y-68790D01*
X80522Y-69546D02*
X80534Y-69546D01*
X81290Y-68790D02*
X90447Y-68790D01*
X80534Y-69546D02*
X81290Y-68790D01*
X98550Y-68790D02*
X99180Y-69420D01*
X96440Y-68790D02*
X96936Y-68790D01*
X90447Y-68790D02*
X95895Y-68790D01*
X80014Y-72051D02*
X80014Y-70734D01*
X80014Y-70734D02*
X79975Y-70695D01*
X80014Y-72051D02*
X80014Y-73051D01*
M02*
