G04 (created by PCBNEW (22-Jun-2014 BZR 4027)-stable) date vie 24 oct 2014 06:28:31 CST*
%MOIN*%
G04 Gerber Fmt 3.4, Leading zero omitted, Abs format*
%FSLAX34Y34*%
G01*
G70*
G90*
G04 APERTURE LIST*
%ADD10C,0.00590551*%
%ADD11R,0.06X0.06*%
%ADD12C,0.06*%
%ADD13R,0.3X0.3*%
%ADD14R,0.24X0.24*%
%ADD15R,0.175X0.175*%
%ADD16R,0.2X0.2*%
%ADD17R,0.125X0.125*%
%ADD18R,0.1X0.1*%
%ADD19R,0.22X0.22*%
%ADD20C,0.055*%
%ADD21R,0.071X0.063*%
%ADD22R,0.063X0.071*%
%ADD23R,0.055X0.055*%
%ADD24C,0.1*%
%ADD25R,0.065X0.04*%
%ADD26C,0.07*%
%ADD27R,0.07X0.07*%
%ADD28C,0.05*%
%ADD29C,0.012*%
%ADD30C,0.08*%
%ADD31C,0.3*%
%ADD32C,0.125*%
%ADD33C,0.09*%
%ADD34C,0.2*%
%ADD35C,0.035*%
G04 APERTURE END LIST*
G54D10*
G54D11*
X106830Y-54205D03*
G54D12*
X106830Y-55205D03*
G54D13*
X53402Y-59645D03*
X53402Y-56235D03*
G54D14*
X53870Y-63280D03*
X53870Y-70080D03*
G54D15*
X58450Y-61200D03*
X74450Y-61200D03*
X77430Y-61250D03*
X93430Y-61250D03*
G54D16*
X76450Y-65740D03*
G54D17*
X96550Y-60490D03*
G54D16*
X103365Y-61730D03*
G54D18*
X83530Y-65215D03*
X83530Y-63925D03*
G54D19*
X56810Y-53230D03*
X57838Y-71764D03*
X112518Y-60956D03*
G54D20*
X112738Y-58030D03*
X111738Y-58030D03*
X98888Y-63835D03*
X99888Y-63835D03*
X80375Y-63960D03*
X79375Y-63960D03*
X60315Y-70475D03*
X60315Y-69475D03*
X90340Y-63830D03*
X91340Y-63830D03*
X106700Y-67640D03*
X106700Y-68640D03*
X111474Y-54566D03*
X111474Y-55566D03*
X60785Y-53850D03*
X59785Y-53850D03*
G54D21*
X78099Y-64964D03*
X78099Y-63864D03*
X84986Y-64328D03*
X84986Y-63228D03*
X69500Y-58930D03*
X69500Y-60030D03*
X94740Y-64480D03*
X94740Y-63380D03*
G54D22*
X73560Y-67130D03*
X74660Y-67130D03*
G54D21*
X69720Y-71590D03*
X69720Y-70490D03*
X69720Y-68000D03*
X69720Y-69100D03*
X70920Y-68000D03*
X70920Y-69100D03*
X113080Y-64350D03*
X113080Y-65450D03*
X96690Y-64504D03*
X96690Y-63404D03*
X110235Y-60010D03*
X110235Y-58910D03*
X108490Y-58910D03*
X108490Y-60010D03*
X111675Y-64750D03*
X111675Y-65850D03*
G54D22*
X67166Y-72336D03*
X66066Y-72336D03*
G54D20*
X75024Y-68605D03*
X75024Y-69605D03*
X75024Y-70605D03*
X75024Y-71605D03*
X72024Y-71605D03*
X72024Y-70605D03*
X72024Y-69605D03*
X72024Y-68605D03*
X65116Y-67624D03*
X65116Y-68624D03*
X65116Y-69624D03*
X65116Y-70624D03*
X68116Y-70624D03*
X68116Y-69624D03*
X68116Y-68624D03*
X68116Y-67624D03*
G54D23*
X85522Y-66546D03*
G54D20*
X84522Y-66546D03*
X83522Y-66546D03*
X82522Y-66546D03*
X81522Y-66546D03*
X80522Y-66546D03*
X79522Y-66546D03*
X79522Y-69546D03*
X80522Y-69546D03*
X81522Y-69546D03*
X82522Y-69546D03*
X83522Y-69546D03*
X84522Y-69546D03*
X85522Y-69546D03*
G54D23*
X94740Y-66502D03*
G54D20*
X93740Y-66502D03*
X92740Y-66502D03*
X91740Y-66502D03*
X90740Y-66502D03*
X89740Y-66502D03*
X88740Y-66502D03*
X88740Y-69502D03*
X89740Y-69502D03*
X90740Y-69502D03*
X91740Y-69502D03*
X92740Y-69502D03*
X93740Y-69502D03*
X94740Y-69502D03*
G54D23*
X104180Y-66420D03*
G54D20*
X103180Y-66420D03*
X102180Y-66420D03*
X101180Y-66420D03*
X100180Y-66420D03*
X99180Y-66420D03*
X98180Y-66420D03*
X98180Y-69420D03*
X99180Y-69420D03*
X100180Y-69420D03*
X101180Y-69420D03*
X102180Y-69420D03*
X103180Y-69420D03*
X104180Y-69420D03*
G54D12*
X79014Y-73051D03*
X79025Y-72060D03*
X84014Y-73051D03*
X80014Y-72051D03*
X85014Y-73051D03*
X81014Y-72051D03*
X86014Y-73051D03*
X82014Y-72051D03*
X87014Y-73051D03*
X83014Y-72051D03*
X88014Y-73051D03*
X84014Y-72051D03*
X89014Y-73051D03*
X85014Y-72051D03*
X90014Y-73051D03*
X86014Y-72051D03*
X91014Y-73051D03*
X87014Y-72051D03*
X92014Y-73051D03*
X88014Y-72051D03*
X93014Y-73051D03*
X89014Y-72051D03*
X94014Y-73051D03*
X90014Y-72051D03*
X91014Y-72051D03*
X95014Y-73051D03*
X92014Y-72051D03*
X94014Y-72051D03*
X95014Y-72051D03*
X96014Y-72051D03*
X97014Y-72051D03*
X96014Y-73051D03*
X97014Y-73051D03*
X80014Y-73051D03*
X81014Y-73051D03*
X82014Y-73051D03*
X83014Y-73051D03*
X98014Y-73051D03*
X98014Y-72051D03*
X93014Y-72051D03*
X99014Y-73051D03*
X99014Y-72051D03*
X100014Y-73051D03*
X100014Y-72051D03*
X101014Y-73051D03*
X101014Y-72051D03*
X102014Y-73051D03*
X102014Y-72051D03*
X103014Y-73051D03*
X103014Y-72051D03*
G54D24*
X62964Y-54194D03*
X62964Y-56334D03*
X61420Y-66610D03*
X59280Y-66610D03*
X108500Y-54125D03*
X108500Y-56265D03*
X110260Y-66350D03*
X110260Y-64210D03*
G54D18*
X56737Y-58627D03*
X56739Y-57110D03*
G54D25*
X73910Y-65830D03*
X73910Y-65330D03*
X73910Y-64830D03*
X73910Y-64330D03*
X71410Y-64330D03*
X71410Y-64830D03*
X71410Y-65330D03*
X71410Y-65830D03*
G54D10*
G36*
X85945Y-65720D02*
X85945Y-63520D01*
X88145Y-63520D01*
X88145Y-65720D01*
X85945Y-65720D01*
X85945Y-65720D01*
G37*
G54D26*
X71600Y-55800D03*
X72600Y-55800D03*
G54D27*
X73600Y-55800D03*
G54D26*
X68850Y-55700D03*
X67850Y-55700D03*
G54D27*
X66850Y-55700D03*
G54D26*
X99400Y-55800D03*
X98400Y-55800D03*
G54D27*
X97400Y-55800D03*
G54D26*
X84000Y-55800D03*
X83000Y-55800D03*
G54D27*
X82000Y-55800D03*
G54D26*
X102000Y-55800D03*
X103000Y-55800D03*
G54D27*
X104000Y-55800D03*
G54D26*
X86800Y-55800D03*
X87800Y-55800D03*
G54D27*
X88800Y-55800D03*
X108460Y-65600D03*
G54D26*
X108460Y-63600D03*
X108460Y-64600D03*
G54D27*
X112590Y-69925D03*
G54D26*
X112590Y-67925D03*
X112590Y-68925D03*
G54D27*
X105650Y-72600D03*
G54D26*
X107650Y-72600D03*
X106650Y-72600D03*
G54D27*
X112452Y-72556D03*
G54D26*
X110452Y-72556D03*
X111452Y-72556D03*
G54D27*
X63360Y-70465D03*
G54D26*
X63360Y-68465D03*
X63360Y-69465D03*
G54D28*
X66374Y-61732D03*
X113302Y-66395D03*
X70278Y-64068D03*
X104097Y-72555D03*
X76500Y-68550D03*
X72420Y-63750D03*
X77000Y-62910D03*
X69533Y-61821D03*
X77072Y-69561D03*
X79254Y-61641D03*
X68341Y-66423D03*
X69737Y-66012D03*
X99405Y-59835D03*
X94738Y-59801D03*
X71124Y-60860D03*
X70960Y-60130D03*
G54D29*
X68116Y-67624D02*
X68116Y-67654D01*
X68116Y-67654D02*
X67166Y-68604D01*
X71980Y-67615D02*
X71980Y-68561D01*
X71980Y-68561D02*
X72024Y-68605D01*
X71980Y-67615D02*
X71980Y-66914D01*
X71980Y-66914D02*
X73564Y-65330D01*
X73908Y-65352D02*
X73564Y-65330D01*
X67166Y-68604D02*
X67166Y-72336D01*
G54D30*
X66407Y-61765D02*
X66407Y-61787D01*
X66374Y-61732D02*
X66407Y-61765D01*
G54D31*
X64228Y-64216D02*
X64228Y-63966D01*
X64228Y-63966D02*
X66407Y-61787D01*
X64138Y-64216D02*
X64228Y-64216D01*
X64123Y-64231D02*
X64138Y-64216D01*
X58060Y-64230D02*
X62458Y-64230D01*
X62458Y-64230D02*
X64123Y-64231D01*
X53870Y-68420D02*
X58060Y-64230D01*
X53880Y-69790D02*
X53870Y-68420D01*
X66407Y-61787D02*
X66484Y-61710D01*
G54D29*
X113302Y-68215D02*
X113302Y-66395D01*
X112592Y-68925D02*
X113302Y-68215D01*
X112592Y-68925D02*
X112590Y-68925D01*
X108460Y-60040D02*
X108490Y-60010D01*
X108450Y-60050D02*
X108490Y-60010D01*
X111452Y-72556D02*
X111452Y-72935D01*
X107310Y-73260D02*
X106650Y-72600D01*
X111127Y-73260D02*
X107310Y-73260D01*
X111452Y-72935D02*
X111127Y-73260D01*
X112590Y-68925D02*
X112564Y-68925D01*
X112564Y-68925D02*
X111452Y-70037D01*
X111452Y-70037D02*
X111452Y-72556D01*
X108460Y-63600D02*
X108460Y-60040D01*
G54D30*
X88800Y-55800D02*
X88800Y-56551D01*
X88800Y-56551D02*
X90119Y-57870D01*
X104000Y-55800D02*
X104000Y-56630D01*
X104000Y-56630D02*
X105231Y-57861D01*
G54D29*
X103190Y-66420D02*
X105010Y-64600D01*
X103190Y-66420D02*
X103180Y-66420D01*
X109870Y-64600D02*
X110260Y-64210D01*
X110260Y-64210D02*
X110260Y-63520D01*
X110260Y-63520D02*
X109450Y-62710D01*
X109450Y-62710D02*
X109450Y-57775D01*
X109450Y-57215D02*
X108500Y-56265D01*
X71410Y-64330D02*
X70540Y-64330D01*
X70540Y-64330D02*
X70278Y-64068D01*
G54D30*
X111474Y-55566D02*
X111474Y-56036D01*
X111474Y-56036D02*
X109649Y-57861D01*
G54D32*
X108500Y-56265D02*
X108500Y-56712D01*
X108500Y-56712D02*
X109649Y-57861D01*
G54D31*
X102389Y-57861D02*
X105231Y-57861D01*
X105231Y-57861D02*
X109649Y-57861D01*
X109649Y-57861D02*
X110700Y-57870D01*
X110700Y-57870D02*
X110721Y-57849D01*
G54D29*
X111675Y-64750D02*
X110800Y-64750D01*
X110800Y-64750D02*
X110260Y-64210D01*
X103180Y-66420D02*
X103180Y-66425D01*
X102286Y-67319D02*
X93870Y-67319D01*
X93870Y-67319D02*
X93740Y-67189D01*
X93740Y-67189D02*
X93740Y-66502D01*
X103180Y-66425D02*
X102286Y-67319D01*
X66066Y-72336D02*
X66066Y-71574D01*
X66066Y-71574D02*
X65116Y-70624D01*
X65116Y-70624D02*
X65116Y-70621D01*
X63960Y-69465D02*
X63360Y-69465D01*
X65116Y-70621D02*
X63960Y-69465D01*
X60315Y-69475D02*
X63350Y-69475D01*
X63350Y-69475D02*
X63360Y-69465D01*
X66066Y-72336D02*
X66066Y-72351D01*
X66066Y-72351D02*
X66893Y-73178D01*
X103180Y-69420D02*
X103151Y-69420D01*
X93960Y-70016D02*
X93839Y-70016D01*
X102555Y-70016D02*
X93960Y-70016D01*
X93839Y-70016D02*
X93740Y-69917D01*
X93740Y-69917D02*
X93740Y-69502D01*
X103151Y-69420D02*
X102555Y-70016D01*
X103014Y-73051D02*
X103014Y-73064D01*
X103014Y-73064D02*
X102531Y-73548D01*
X84522Y-69546D02*
X84554Y-69546D01*
X84554Y-69546D02*
X85030Y-70022D01*
X105650Y-72600D02*
X105650Y-72610D01*
X105650Y-72610D02*
X106561Y-73521D01*
X106130Y-73521D02*
X102780Y-73521D01*
X102780Y-73521D02*
X102753Y-73548D01*
X79511Y-73548D02*
X79014Y-73051D01*
X102531Y-73548D02*
X79511Y-73548D01*
X102753Y-73548D02*
X102531Y-73548D01*
X78887Y-73178D02*
X79014Y-73051D01*
X66893Y-73178D02*
X78887Y-73178D01*
X75024Y-71605D02*
X75024Y-71814D01*
X75270Y-72060D02*
X79025Y-72060D01*
X75024Y-71814D02*
X75270Y-72060D01*
X93740Y-68967D02*
X93740Y-69502D01*
X93520Y-68747D02*
X93740Y-68967D01*
X92512Y-68747D02*
X93520Y-68747D01*
X92250Y-69009D02*
X92512Y-68747D01*
X92250Y-69940D02*
X92250Y-69009D01*
X92167Y-70022D02*
X92250Y-69940D01*
X85030Y-70022D02*
X92167Y-70022D01*
X70534Y-64330D02*
X70266Y-64062D01*
X70278Y-64068D02*
X70272Y-64062D01*
X70272Y-64062D02*
X70266Y-64062D01*
X111487Y-73521D02*
X112452Y-72556D01*
X106561Y-73521D02*
X111487Y-73521D01*
X106130Y-73521D02*
X106561Y-73521D01*
X93740Y-66502D02*
X93740Y-67141D01*
X84522Y-67246D02*
X84522Y-66546D01*
X84626Y-67350D02*
X84522Y-67246D01*
X93531Y-67350D02*
X84626Y-67350D01*
X93740Y-67141D02*
X93531Y-67350D01*
G54D30*
X102389Y-57861D02*
X102380Y-57870D01*
G54D31*
X73590Y-57870D02*
X87090Y-57870D01*
X87090Y-57870D02*
X90119Y-57870D01*
X90119Y-57870D02*
X102380Y-57870D01*
G54D33*
X59785Y-53850D02*
X59785Y-54815D01*
X59785Y-54815D02*
X58266Y-56334D01*
G54D31*
X73590Y-57870D02*
X70448Y-57870D01*
X70448Y-57870D02*
X65700Y-57870D01*
X53501Y-56334D02*
X53402Y-56235D01*
X64164Y-56334D02*
X58266Y-56334D01*
X58266Y-56334D02*
X53501Y-56334D01*
X65700Y-57870D02*
X64164Y-56334D01*
G54D30*
X73600Y-55800D02*
X73590Y-57870D01*
X73590Y-57870D02*
X73595Y-57875D01*
G54D29*
X108460Y-64600D02*
X105010Y-64600D01*
X108460Y-64600D02*
X109870Y-64600D01*
X98180Y-66420D02*
X96830Y-66420D01*
X96710Y-64524D02*
X96690Y-64504D01*
X96710Y-66300D02*
X96710Y-64524D01*
X96830Y-66420D02*
X96710Y-66300D01*
X94740Y-66502D02*
X94740Y-64480D01*
X112590Y-67925D02*
X112590Y-67590D01*
X112800Y-65730D02*
X113080Y-65450D01*
X112800Y-67380D02*
X112800Y-65730D01*
X112590Y-67590D02*
X112800Y-67380D01*
X95014Y-72051D02*
X95014Y-72054D01*
X95014Y-72054D02*
X95514Y-72554D01*
X104096Y-72554D02*
X104097Y-72555D01*
X95514Y-72554D02*
X104096Y-72554D01*
X84546Y-70263D02*
X84239Y-70263D01*
X84239Y-70263D02*
X83522Y-69546D01*
X91510Y-72555D02*
X91014Y-73051D01*
X92204Y-72555D02*
X91510Y-72555D01*
X92512Y-72247D02*
X92204Y-72555D01*
X92512Y-70627D02*
X92512Y-72247D01*
X92148Y-70263D02*
X92512Y-70627D01*
X84546Y-70263D02*
X92148Y-70263D01*
X92014Y-73051D02*
X92047Y-73051D01*
X92542Y-72556D02*
X93206Y-72556D01*
X92047Y-73051D02*
X92542Y-72556D01*
X93515Y-70277D02*
X92740Y-69502D01*
X93206Y-72556D02*
X93515Y-72247D01*
X93515Y-72247D02*
X93515Y-70277D01*
X71410Y-65330D02*
X70280Y-65330D01*
X70280Y-65330D02*
X69820Y-64870D01*
X79387Y-59577D02*
X80305Y-60495D01*
X70686Y-59577D02*
X79387Y-59577D01*
X70378Y-59885D02*
X70686Y-59577D01*
X70378Y-61996D02*
X70378Y-59885D01*
X69820Y-62554D02*
X70378Y-61996D01*
X69820Y-64870D02*
X69820Y-62554D01*
X70280Y-65330D02*
X69820Y-64870D01*
X87516Y-60495D02*
X87516Y-60940D01*
X87516Y-60940D02*
X87516Y-60495D01*
G54D34*
X93430Y-61250D02*
X93269Y-61250D01*
X92514Y-60495D02*
X87516Y-60495D01*
X93269Y-61250D02*
X92514Y-60495D01*
X87516Y-60495D02*
X80305Y-60495D01*
X80305Y-60495D02*
X80055Y-60495D01*
G54D29*
X107930Y-71150D02*
X109046Y-71150D01*
X107930Y-71150D02*
X96915Y-71150D01*
X96915Y-71150D02*
X96014Y-72051D01*
X109046Y-71150D02*
X110452Y-72556D01*
X74660Y-67130D02*
X74660Y-68241D01*
X74660Y-68241D02*
X75024Y-68605D01*
X83216Y-71253D02*
X84014Y-72051D01*
X76923Y-71253D02*
X83216Y-71253D01*
X76515Y-70845D02*
X76923Y-71253D01*
X76515Y-68565D02*
X76515Y-70845D01*
X76500Y-68550D02*
X76515Y-68565D01*
X73560Y-68855D02*
X73560Y-69041D01*
X73560Y-69041D02*
X73501Y-69100D01*
X73290Y-69100D02*
X73501Y-69100D01*
X73501Y-69100D02*
X73530Y-69100D01*
X73530Y-69100D02*
X73540Y-69110D01*
X74035Y-69605D02*
X75024Y-69605D01*
X74035Y-69605D02*
X73540Y-69110D01*
X72551Y-69100D02*
X73290Y-69100D01*
X73560Y-67130D02*
X73560Y-68855D01*
X70920Y-69100D02*
X72551Y-69100D01*
X84986Y-64328D02*
X84986Y-66010D01*
X84986Y-66010D02*
X85522Y-66546D01*
X75180Y-66688D02*
X75180Y-65580D01*
X75180Y-65580D02*
X74595Y-64995D01*
X75560Y-68153D02*
X75560Y-67892D01*
X75180Y-67512D02*
X75180Y-66688D01*
X75560Y-67892D02*
X75180Y-67512D01*
X75128Y-70110D02*
X75276Y-70110D01*
X74595Y-64995D02*
X74430Y-64830D01*
X74430Y-64830D02*
X73910Y-64830D01*
X75560Y-69826D02*
X75560Y-68153D01*
X75276Y-70110D02*
X75560Y-69826D01*
X72024Y-71605D02*
X72675Y-71605D01*
X74170Y-70110D02*
X75128Y-70110D01*
X72675Y-71605D02*
X74170Y-70110D01*
X72024Y-71605D02*
X72024Y-71511D01*
X69720Y-71590D02*
X69726Y-71590D01*
X72501Y-70082D02*
X72024Y-69605D01*
X72501Y-70825D02*
X72501Y-70082D01*
X72216Y-71110D02*
X72501Y-70825D01*
X70206Y-71110D02*
X72216Y-71110D01*
X69726Y-71590D02*
X70206Y-71110D01*
X71955Y-72552D02*
X70682Y-72552D01*
X71955Y-72552D02*
X84515Y-72552D01*
X84515Y-72552D02*
X85014Y-73051D01*
X70682Y-72552D02*
X69720Y-71590D01*
X69720Y-69100D02*
X69720Y-70490D01*
X69720Y-70490D02*
X71909Y-70490D01*
X71909Y-70490D02*
X72024Y-70605D01*
X78099Y-64964D02*
X78099Y-65123D01*
X78099Y-65123D02*
X79522Y-66546D01*
G54D30*
X80375Y-63960D02*
X83495Y-63960D01*
X83495Y-63960D02*
X83530Y-63925D01*
G54D29*
X104107Y-71393D02*
X106443Y-71393D01*
X106443Y-71393D02*
X107650Y-72600D01*
X97672Y-71393D02*
X97014Y-72051D01*
X104107Y-71393D02*
X97672Y-71393D01*
G54D35*
X72420Y-63750D02*
X74450Y-61735D01*
X74450Y-61735D02*
X74450Y-61200D01*
G54D30*
X76450Y-65740D02*
X76450Y-63460D01*
X76450Y-63460D02*
X77000Y-62910D01*
X103000Y-55800D02*
X103000Y-53258D01*
X103000Y-53258D02*
X102872Y-53130D01*
G54D31*
X97400Y-53030D02*
X97825Y-53030D01*
X102872Y-53130D02*
X102960Y-53042D01*
X97925Y-53130D02*
X102872Y-53130D01*
X97825Y-53030D02*
X97925Y-53130D01*
G54D30*
X97400Y-55800D02*
X97400Y-53030D01*
X97400Y-53030D02*
X97395Y-53025D01*
G54D29*
X100180Y-66420D02*
X100180Y-64127D01*
X100180Y-64127D02*
X99888Y-63835D01*
X68116Y-70624D02*
X68116Y-70614D01*
X68116Y-70614D02*
X68880Y-69850D01*
X68880Y-62174D02*
X69503Y-61551D01*
X68880Y-69850D02*
X68880Y-62174D01*
G54D30*
X69500Y-61548D02*
X69500Y-60030D01*
X69503Y-61551D02*
X69500Y-61548D01*
G54D29*
X82020Y-70830D02*
X78350Y-70830D01*
X78350Y-70830D02*
X77760Y-70240D01*
X85014Y-72051D02*
X85007Y-72051D01*
X85007Y-72051D02*
X83786Y-70830D01*
X77072Y-69561D02*
X77751Y-70240D01*
X77751Y-70240D02*
X77760Y-70240D01*
X82020Y-70830D02*
X83786Y-70830D01*
G54D30*
X79375Y-63960D02*
X79375Y-64794D01*
X79375Y-64794D02*
X80116Y-65535D01*
X80116Y-65535D02*
X81300Y-65535D01*
X81300Y-65535D02*
X81522Y-65757D01*
X81522Y-65757D02*
X81522Y-66546D01*
X72600Y-55800D02*
X72600Y-53185D01*
X72600Y-53185D02*
X72595Y-53180D01*
G54D31*
X66850Y-53180D02*
X72595Y-53180D01*
X72595Y-53180D02*
X72600Y-53175D01*
G54D30*
X66850Y-55700D02*
X66850Y-53180D01*
X66850Y-53180D02*
X66855Y-53175D01*
X87800Y-55800D02*
X87800Y-53140D01*
X87800Y-53140D02*
X87803Y-53137D01*
G54D35*
X71411Y-64830D02*
X72240Y-64830D01*
X75584Y-63096D02*
X77430Y-61250D01*
X73974Y-63096D02*
X75584Y-63096D01*
X72240Y-64830D02*
X73974Y-63096D01*
G54D29*
X83908Y-62468D02*
X80081Y-62468D01*
X80081Y-62468D02*
X79254Y-61641D01*
X90518Y-62468D02*
X83908Y-62468D01*
X83908Y-62468D02*
X83839Y-62468D01*
X91340Y-63830D02*
X91340Y-63290D01*
X91340Y-63290D02*
X90518Y-62468D01*
G54D31*
X82005Y-53205D02*
X82073Y-53137D01*
X87803Y-53137D02*
X87810Y-53130D01*
X82073Y-53137D02*
X87803Y-53137D01*
G54D30*
X82000Y-55800D02*
X82005Y-55795D01*
X82005Y-55795D02*
X82005Y-53205D01*
X82005Y-53205D02*
X82005Y-53190D01*
G54D31*
X53402Y-62812D02*
X53870Y-63280D01*
X53402Y-59645D02*
X53402Y-62812D01*
G54D29*
X81522Y-69546D02*
X81523Y-69546D01*
X82488Y-70511D02*
X82761Y-70511D01*
X81523Y-69546D02*
X82488Y-70511D01*
X92014Y-70797D02*
X92014Y-72051D01*
X82761Y-70511D02*
X91728Y-70511D01*
X91728Y-70511D02*
X92014Y-70797D01*
X71410Y-65830D02*
X69919Y-65830D01*
X69919Y-65830D02*
X69737Y-66012D01*
X66347Y-66423D02*
X68341Y-66423D01*
X65146Y-67624D02*
X66347Y-66423D01*
X65116Y-67624D02*
X65146Y-67624D01*
X69737Y-66012D02*
X69720Y-66029D01*
X69720Y-66029D02*
X69720Y-66031D01*
X69921Y-65830D02*
X69720Y-66031D01*
X69720Y-67466D02*
X69720Y-68000D01*
X70920Y-68000D02*
X69720Y-68000D01*
X69720Y-66031D02*
X69720Y-67466D01*
X69720Y-67466D02*
X69720Y-67475D01*
X65116Y-67624D02*
X65116Y-68624D01*
X96690Y-63404D02*
X96690Y-62550D01*
X96690Y-62550D02*
X99405Y-59835D01*
X94740Y-63380D02*
X94740Y-62820D01*
X94738Y-62818D02*
X94740Y-62818D01*
X94740Y-62820D02*
X94738Y-62818D01*
X94738Y-60329D02*
X94738Y-59801D01*
X94740Y-60331D02*
X94738Y-60329D01*
X94740Y-62818D02*
X94740Y-60331D01*
X72321Y-60109D02*
X71875Y-60109D01*
X71875Y-60109D02*
X71124Y-60860D01*
X78099Y-62615D02*
X78540Y-62174D01*
X78540Y-62174D02*
X78540Y-60200D01*
X78540Y-60200D02*
X78505Y-60165D01*
X78505Y-60165D02*
X75488Y-60165D01*
X75488Y-60165D02*
X75432Y-60109D01*
X75432Y-60109D02*
X72321Y-60109D01*
X78099Y-62615D02*
X78099Y-63864D01*
X84986Y-63228D02*
X84568Y-63228D01*
X84568Y-63228D02*
X84420Y-63080D01*
X84420Y-63080D02*
X78875Y-63080D01*
X78621Y-59857D02*
X78810Y-60046D01*
X78810Y-60046D02*
X78810Y-61767D01*
X71233Y-59857D02*
X78579Y-59857D01*
X70960Y-60130D02*
X71233Y-59857D01*
X78579Y-59857D02*
X78621Y-59857D01*
X78810Y-63015D02*
X78810Y-61767D01*
X78875Y-63080D02*
X78810Y-63015D01*
X110260Y-66350D02*
X109210Y-66350D01*
X109210Y-66350D02*
X108460Y-65600D01*
X83530Y-65215D02*
X83530Y-66538D01*
X83530Y-66538D02*
X83522Y-66546D01*
X110260Y-66350D02*
X111175Y-66350D01*
X111175Y-66350D02*
X111675Y-65850D01*
X83500Y-66524D02*
X83522Y-66546D01*
X112738Y-58030D02*
X112738Y-58237D01*
X110965Y-60010D02*
X110896Y-60010D01*
X112738Y-58237D02*
X110965Y-60010D01*
X110896Y-60010D02*
X110896Y-62886D01*
X110896Y-62886D02*
X111146Y-63136D01*
X110235Y-60010D02*
X110896Y-60010D01*
X113080Y-64350D02*
X112440Y-64350D01*
X112440Y-64350D02*
X112400Y-64390D01*
X110937Y-68153D02*
X111499Y-68153D01*
X108392Y-68153D02*
X110937Y-68153D01*
X111522Y-68130D02*
X111522Y-68128D01*
X111499Y-68153D02*
X111522Y-68130D01*
X112400Y-64390D02*
X111146Y-63136D01*
X112400Y-64750D02*
X112400Y-64390D01*
X111522Y-68128D02*
X112400Y-67250D01*
X112400Y-64750D02*
X112400Y-64770D01*
X112400Y-67250D02*
X112400Y-64770D01*
X99180Y-69420D02*
X99210Y-69420D01*
X100477Y-68153D02*
X108392Y-68153D01*
X99210Y-69420D02*
X100477Y-68153D01*
X108392Y-68153D02*
X108396Y-68157D01*
M02*
