<?xml version="1.0" standalone="no"?>
 <!DOCTYPE svg PUBLIC "-//W3C//DTD SVG 1.1//EN" 
 "http://www.w3.org/Graphics/SVG/1.1/DTD/svg11.dtd"> 
<svg xmlns="http://www.w3.org/2000/svg" version="1.1" 
    width="41.9989cm" height="29.7002cm" viewBox="0 0 165350 116930 ">
<title>SVG Picture created as Three-phase bridge-B_Cu.svg date 2013/11/25 18:37:22 </title>
  <desc>Picture generated by PCBNEW </desc>
<g style="fill:#000000; fill-opacity:1;stroke:#000000; stroke-opacity:1;
stroke-linecap:round; stroke-linejoin:round; "
 transform="translate(0 0) scale(1 1)">
</g>
<g style="fill:#000000; fill-opacity:0.0; 
stroke:#000000; stroke-width:39.3701; stroke-opacity:1; 
stroke-linecap:round; stroke-linejoin:round;">
<path d="M4000 4000
L161350 4000
L161350 112930
L4000 112930
L4000 4000
" />
<path d="M4700 4700
L160650 4700
L160650 112230
L4700 112230
L4700 4700
" />
<path d="M26470 4000
L26470 4700
" />
<path d="M15382 4552
L15097 4552
" />
<path d="M15240 4552
L15240 4052
L15192 4123
L15144 4171
L15097 4195
" />
<path d="M26470 112930
L26470 112230
" />
<path d="M15382 112782
L15097 112782
" />
<path d="M15240 112782
L15240 112282
L15192 112353
L15144 112401
L15097 112425
" />
<path d="M48940 4000
L48940 4700
" />
<path d="M37567 4100
L37590 4076
L37638 4052
L37757 4052
L37805 4076
L37829 4100
L37852 4147
L37852 4195
L37829 4266
L37543 4552
L37852 4552
" />
<path d="M48940 112930
L48940 112230
" />
<path d="M37567 112330
L37590 112306
L37638 112282
L37757 112282
L37805 112306
L37829 112330
L37852 112377
L37852 112425
L37829 112496
L37543 112782
L37852 112782
" />
<path d="M71410 4000
L71410 4700
" />
<path d="M60013 4052
L60322 4052
L60156 4242
L60227 4242
L60275 4266
L60299 4290
L60322 4338
L60322 4457
L60299 4504
L60275 4528
L60227 4552
L60084 4552
L60037 4528
L60013 4504
" />
<path d="M71410 112930
L71410 112230
" />
<path d="M60013 112282
L60322 112282
L60156 112472
L60227 112472
L60275 112496
L60299 112520
L60322 112568
L60322 112687
L60299 112734
L60275 112758
L60227 112782
L60084 112782
L60037 112758
L60013 112734
" />
<path d="M93880 4000
L93880 4700
" />
<path d="M82745 4219
L82745 4552
" />
<path d="M82626 4028
L82507 4385
L82816 4385
" />
<path d="M93880 112930
L93880 112230
" />
<path d="M82745 112449
L82745 112782
" />
<path d="M82626 112258
L82507 112615
L82816 112615
" />
<path d="M116350 4000
L116350 4700
" />
<path d="M105239 4052
L105000 4052
L104977 4290
L105000 4266
L105048 4242
L105167 4242
L105215 4266
L105239 4290
L105262 4338
L105262 4457
L105239 4504
L105215 4528
L105167 4552
L105048 4552
L105000 4528
L104977 4504
" />
<path d="M116350 112930
L116350 112230
" />
<path d="M105239 112282
L105000 112282
L104977 112520
L105000 112496
L105048 112472
L105167 112472
L105215 112496
L105239 112520
L105262 112568
L105262 112687
L105239 112734
L105215 112758
L105167 112782
L105048 112782
L105000 112758
L104977 112734
" />
<path d="M138820 4000
L138820 4700
" />
<path d="M127685 4052
L127590 4052
L127542 4076
L127518 4100
L127470 4171
L127447 4266
L127447 4457
L127470 4504
L127494 4528
L127542 4552
L127637 4552
L127685 4528
L127709 4504
L127732 4457
L127732 4338
L127709 4290
L127685 4266
L127637 4242
L127542 4242
L127494 4266
L127470 4290
L127447 4338
" />
<path d="M138820 112930
L138820 112230
" />
<path d="M127685 112282
L127590 112282
L127542 112306
L127518 112330
L127470 112401
L127447 112496
L127447 112687
L127470 112734
L127494 112758
L127542 112782
L127637 112782
L127685 112758
L127709 112734
L127732 112687
L127732 112568
L127709 112520
L127685 112496
L127637 112472
L127542 112472
L127494 112496
L127470 112520
L127447 112568
" />
<path d="M149893 4052
L150226 4052
L150012 4552
" />
<path d="M149893 112282
L150226 112282
L150012 112782
" />
<path d="M4000 25780
L4700 25780
" />
<path d="M4230 14949
L4469 14949
" />
<path d="M4183 15092
L4350 14592
L4516 15092
" />
<path d="M161350 25780
L160650 25780
" />
<path d="M160880 14949
L161119 14949
" />
<path d="M160833 15092
L161000 14592
L161166 15092
" />
<path d="M4000 47560
L4700 47560
" />
<path d="M4385 36610
L4457 36634
L4480 36658
L4504 36705
L4504 36777
L4480 36824
L4457 36848
L4409 36872
L4219 36872
L4219 36372
L4385 36372
L4433 36396
L4457 36420
L4480 36467
L4480 36515
L4457 36562
L4433 36586
L4385 36610
L4219 36610
" />
<path d="M161350 47560
L160650 47560
" />
<path d="M161035 36610
L161107 36634
L161130 36658
L161154 36705
L161154 36777
L161130 36824
L161107 36848
L161059 36872
L160869 36872
L160869 36372
L161035 36372
L161083 36396
L161107 36420
L161130 36467
L161130 36515
L161107 36562
L161083 36586
L161035 36610
L160869 36610
" />
<path d="M4000 69340
L4700 69340
" />
<path d="M4504 58604
L4480 58628
L4409 58652
L4361 58652
L4290 58628
L4242 58580
L4219 58533
L4195 58438
L4195 58366
L4219 58271
L4242 58223
L4290 58176
L4361 58152
L4409 58152
L4480 58176
L4504 58200
" />
<path d="M161350 69340
L160650 69340
" />
<path d="M161154 58604
L161130 58628
L161059 58652
L161011 58652
L160940 58628
L160892 58580
L160869 58533
L160845 58438
L160845 58366
L160869 58271
L160892 58223
L160940 58176
L161011 58152
L161059 58152
L161130 58176
L161154 58200
" />
<path d="M4000 91120
L4700 91120
" />
<path d="M4219 80432
L4219 79932
L4338 79932
L4409 79956
L4457 80003
L4480 80051
L4504 80146
L4504 80218
L4480 80313
L4457 80360
L4409 80408
L4338 80432
L4219 80432
" />
<path d="M161350 91120
L160650 91120
" />
<path d="M160869 80432
L160869 79932
L160988 79932
L161059 79956
L161107 80003
L161130 80051
L161154 80146
L161154 80218
L161130 80313
L161107 80360
L161059 80408
L160988 80432
L160869 80432
" />
<path d="M4242 101950
L4409 101950
" />
<path d="M4480 102212
L4242 102212
L4242 101712
L4480 101712
" />
<path d="M160892 101950
L161059 101950
" />
<path d="M161130 102212
L160892 102212
L160892 101712
L161130 101712
" />
<path d="M127800 110672
L127875 110072
L128017 110072
L128100 110101
L128150 110158
L128171 110215
L128185 110330
L128175 110415
L128132 110530
L128096 110587
L128032 110644
L127942 110672
L127800 110672
" />
<path d="M128657 110672
L128696 110358
L128675 110301
L128621 110272
L128507 110272
L128446 110301
" />
<path d="M128660 110644
L128600 110672
L128457 110672
L128403 110644
L128382 110587
L128389 110530
L128425 110472
L128485 110444
L128628 110444
L128689 110415
" />
<path d="M128907 110272
L129135 110272
" />
<path d="M129017 110072
L128953 110587
L128975 110644
L129028 110672
L129085 110672
" />
<path d="M129517 110644
L129457 110672
L129342 110672
L129289 110644
L129267 110587
L129296 110358
L129332 110301
L129392 110272
L129507 110272
L129560 110301
L129582 110358
L129575 110415
L129282 110472
" />
<path d="M129807 110615
L129832 110644
L129800 110672
L129775 110644
L129807 110615
L129800 110672
" />
<path d="M129846 110301
L129871 110330
L129839 110358
L129814 110330
L129846 110301
L129839 110358
" />
<path d="M130582 110130
L130614 110101
L130675 110072
L130817 110072
L130871 110101
L130896 110130
L130917 110187
L130910 110244
L130871 110330
L130485 110672
L130857 110672
" />
<path d="M131446 110072
L131332 110072
L131271 110101
L131239 110130
L131171 110215
L131128 110330
L131100 110558
L131121 110615
L131146 110644
L131200 110672
L131314 110672
L131375 110644
L131407 110615
L131442 110558
L131460 110415
L131439 110358
L131414 110330
L131360 110301
L131246 110301
L131185 110330
L131153 110358
L131117 110415
" />
<path d="M132192 110272
L132142 110672
" />
<path d="M132185 110330
L132217 110301
L132278 110272
L132364 110272
L132417 110301
L132439 110358
L132400 110672
" />
<path d="M132771 110672
L132717 110644
L132692 110615
L132671 110558
L132692 110387
L132728 110330
L132760 110301
L132821 110272
L132907 110272
L132960 110301
L132985 110330
L133007 110387
L132985 110558
L132950 110615
L132917 110644
L132857 110672
L132771 110672
" />
<path d="M133221 110272
L133314 110672
L133507 110272
" />
<path d="M134182 110130
L134214 110101
L134275 110072
L134417 110072
L134471 110101
L134496 110130
L134517 110187
L134510 110244
L134471 110330
L134085 110672
L134457 110672
" />
<path d="M134903 110072
L134960 110072
L135014 110101
L135039 110130
L135060 110187
L135075 110301
L135057 110444
L135014 110558
L134978 110615
L134946 110644
L134885 110672
L134828 110672
L134775 110644
L134750 110615
L134728 110558
L134714 110444
L134732 110301
L134775 110187
L134810 110130
L134842 110101
L134903 110072
" />
<path d="M135600 110672
L135257 110672
" />
<path d="M135428 110672
L135503 110072
L135435 110158
L135371 110215
L135310 110244
" />
<path d="M135875 110072
L136246 110072
L136017 110301
L136103 110301
L136157 110330
L136182 110358
L136203 110415
L136185 110558
L136150 110615
L136117 110644
L136057 110672
L135885 110672
L135832 110644
L135807 110615
" />
<path d="M119392 111872
L119392 111272
" />
<path d="M119735 111872
L119478 111530
" />
<path d="M119735 111272
L119392 111615
" />
<path d="M119992 111872
L119992 111472
" />
<path d="M119992 111272
L119964 111301
L119992 111330
L120021 111301
L119992 111272
L119992 111330
" />
<path d="M120621 111815
L120592 111844
L120507 111872
L120450 111872
L120364 111844
L120307 111787
L120278 111730
L120250 111615
L120250 111530
L120278 111415
L120307 111358
L120364 111301
L120450 111272
L120507 111272
L120592 111301
L120621 111330
" />
<path d="M121135 111872
L121135 111558
L121107 111501
L121050 111472
L120935 111472
L120878 111501
" />
<path d="M121135 111844
L121078 111872
L120935 111872
L120878 111844
L120850 111787
L120850 111730
L120878 111672
L120935 111644
L121078 111644
L121135 111615
" />
<path d="M121678 111872
L121678 111272
" />
<path d="M121678 111844
L121621 111872
L121507 111872
L121450 111844
L121421 111815
L121392 111758
L121392 111587
L121421 111530
L121450 111501
L121507 111472
L121621 111472
L121678 111501
" />
<path d="M122421 111558
L122621 111558
" />
<path d="M122707 111872
L122421 111872
L122421 111272
L122707 111272
" />
<path d="M122964 111815
L122992 111844
L122964 111872
L122935 111844
L122964 111815
L122964 111872
" />
<path d="M123249 111872
L123249 111272
L123392 111272
L123478 111301
L123535 111358
L123564 111415
L123592 111530
L123592 111615
L123564 111730
L123535 111787
L123478 111844
L123392 111872
L123249 111872
" />
<path d="M123849 111815
L123878 111844
L123849 111872
L123821 111844
L123849 111815
L123849 111872
" />
<path d="M124107 111701
L124392 111701
" />
<path d="M124049 111872
L124249 111272
L124449 111872
" />
<path d="M124649 111815
L124678 111844
L124649 111872
L124621 111844
L124649 111815
L124649 111872
" />
<path d="M152942 110672
L152778 110387
" />
<path d="M152600 110672
L152675 110072
L152903 110072
L152957 110101
L152982 110130
L153003 110187
L152992 110272
L152957 110330
L152925 110358
L152864 110387
L152635 110387
" />
<path d="M153432 110644
L153371 110672
L153257 110672
L153203 110644
L153182 110587
L153210 110358
L153246 110301
L153307 110272
L153421 110272
L153475 110301
L153496 110358
L153489 110415
L153196 110472
" />
<path d="M153707 110272
L153800 110672
L153992 110272
" />
<path d="M154178 110615
L154203 110644
L154171 110672
L154146 110644
L154178 110615
L154171 110672
" />
<path d="M154217 110301
L154242 110330
L154210 110358
L154185 110330
L154217 110301
L154210 110358
" />
<path d="M119364 110644
L119450 110672
L119592 110672
L119650 110644
L119678 110615
L119707 110558
L119707 110501
L119678 110444
L119650 110415
L119592 110387
L119478 110358
L119421 110330
L119392 110301
L119364 110244
L119364 110187
L119392 110130
L119421 110101
L119478 110072
L119621 110072
L119707 110101
" />
<path d="M119964 110672
L119964 110272
" />
<path d="M119964 110072
L119935 110101
L119964 110130
L119992 110101
L119964 110072
L119964 110130
" />
<path d="M120192 110272
L120507 110272
L120192 110672
L120507 110672
" />
<path d="M120964 110644
L120907 110672
L120792 110672
L120735 110644
L120707 110587
L120707 110358
L120735 110301
L120792 110272
L120907 110272
L120964 110301
L120992 110358
L120992 110415
L120707 110472
" />
<path d="M121250 110615
L121278 110644
L121250 110672
L121221 110644
L121250 110615
L121250 110672
" />
<path d="M121250 110301
L121278 110330
L121250 110358
L121221 110330
L121250 110301
L121250 110358
" />
<path d="M121964 110501
L122250 110501
" />
<path d="M121907 110672
L122107 110072
L122307 110672
" />
<path d="M122450 110072
L122821 110072
L122621 110301
L122707 110301
L122764 110330
L122792 110358
L122821 110415
L122821 110558
L122792 110615
L122764 110644
L122707 110672
L122535 110672
L122478 110644
L122450 110615
" />
<path d="M152592 111872
L152592 111272
" />
<path d="M153135 111872
L153135 111272
" />
<path d="M153135 111844
L153078 111872
L152964 111872
L152907 111844
L152878 111815
L152850 111758
L152850 111587
L152878 111530
L152907 111501
L152964 111472
L153078 111472
L153135 111501
" />
<path d="M153421 111815
L153450 111844
L153421 111872
L153392 111844
L153421 111815
L153421 111872
" />
<path d="M153421 111501
L153450 111530
L153421 111558
L153392 111530
L153421 111501
L153421 111558
" />
<path d="M154478 111872
L154135 111872
" />
<path d="M154307 111872
L154307 111272
L154249 111358
L154192 111415
L154135 111444
" />
<path d="M155164 111244
L154650 112015
" />
<path d="M155678 111872
L155335 111872
" />
<path d="M155507 111872
L155507 111272
L155449 111358
L155392 111415
L155335 111444
" />
<path d="M119389 108872
L119732 108872
" />
<path d="M119485 109472
L119560 108872
" />
<path d="M119857 109472
L119907 109072
" />
<path d="M119932 108872
L119900 108901
L119925 108930
L119957 108901
L119932 108872
L119925 108930
" />
<path d="M120107 109072
L120335 109072
" />
<path d="M120217 108872
L120153 109387
L120175 109444
L120228 109472
L120285 109472
" />
<path d="M120571 109472
L120517 109444
L120496 109387
L120560 108872
" />
<path d="M121032 109444
L120971 109472
L120857 109472
L120803 109444
L120782 109387
L120810 109158
L120846 109101
L120907 109072
L121021 109072
L121075 109101
L121096 109158
L121089 109215
L120796 109272
" />
<path d="M121321 109415
L121346 109444
L121314 109472
L121289 109444
L121321 109415
L121314 109472
" />
<path d="M121360 109101
L121385 109130
L121353 109158
L121328 109130
L121360 109101
L121353 109158
" />
<path d="M119592 106758
L119392 106758
" />
<path d="M119392 107072
L119392 106472
L119678 106472
" />
<path d="M119907 107072
L119907 106672
" />
<path d="M119907 106472
L119878 106501
L119907 106530
L119935 106501
L119907 106472
L119907 106530
" />
<path d="M120278 107072
L120221 107044
L120192 106987
L120192 106472
" />
<path d="M120735 107044
L120678 107072
L120564 107072
L120507 107044
L120478 106987
L120478 106758
L120507 106701
L120564 106672
L120678 106672
L120735 106701
L120764 106758
L120764 106815
L120478 106872
" />
<path d="M121021 107015
L121050 107044
L121021 107072
L120992 107044
L121021 107015
L121021 107072
" />
<path d="M121021 106701
L121050 106730
L121021 106758
L120992 106730
L121021 106701
L121021 106758
" />
<path d="M121678 106472
L122021 106472
" />
<path d="M121850 107072
L121850 106472
" />
<path d="M122221 107072
L122221 106472
" />
<path d="M122478 107072
L122478 106758
L122450 106701
L122392 106672
L122307 106672
L122250 106701
L122221 106730
" />
<path d="M122764 107072
L122764 106672
" />
<path d="M122764 106787
L122792 106730
L122821 106701
L122878 106672
L122935 106672
" />
<path d="M123364 107044
L123307 107072
L123192 107072
L123135 107044
L123107 106987
L123107 106758
L123135 106701
L123192 106672
L123307 106672
L123364 106701
L123392 106758
L123392 106815
L123107 106872
" />
<path d="M123878 107044
L123821 107072
L123707 107072
L123650 107044
L123621 106987
L123621 106758
L123650 106701
L123707 106672
L123821 106672
L123878 106701
L123907 106758
L123907 106815
L123621 106872
" />
<path d="M124164 106844
L124621 106844
" />
<path d="M124907 106672
L124907 107272
" />
<path d="M124907 106701
L124964 106672
L125078 106672
L125135 106701
L125164 106730
L125192 106787
L125192 106958
L125164 107015
L125135 107044
L125078 107072
L124964 107072
L124907 107044
" />
<path d="M125450 107072
L125450 106472
" />
<path d="M125707 107072
L125707 106758
L125678 106701
L125621 106672
L125535 106672
L125478 106701
L125450 106730
" />
<path d="M126250 107072
L126250 106758
L126221 106701
L126164 106672
L126050 106672
L125992 106701
" />
<path d="M126250 107044
L126192 107072
L126050 107072
L125992 107044
L125964 106987
L125964 106930
L125992 106872
L126050 106844
L126192 106844
L126250 106815
" />
<path d="M126507 107044
L126564 107072
L126678 107072
L126735 107044
L126764 106987
L126764 106958
L126735 106901
L126678 106872
L126592 106872
L126535 106844
L126507 106787
L126507 106758
L126535 106701
L126592 106672
L126678 106672
L126735 106701
" />
<path d="M127250 107044
L127192 107072
L127078 107072
L127021 107044
L126992 106987
L126992 106758
L127021 106701
L127078 106672
L127192 106672
L127250 106701
L127278 106758
L127278 106815
L126992 106872
" />
<path d="M127992 107072
L127992 106472
" />
<path d="M127992 106701
L128050 106672
L128164 106672
L128221 106701
L128250 106730
L128278 106787
L128278 106958
L128250 107015
L128221 107044
L128164 107072
L128050 107072
L127992 107044
" />
<path d="M128535 107072
L128535 106672
" />
<path d="M128535 106787
L128564 106730
L128592 106701
L128650 106672
L128707 106672
" />
<path d="M128907 107072
L128907 106672
" />
<path d="M128907 106472
L128878 106501
L128907 106530
L128935 106501
L128907 106472
L128907 106530
" />
<path d="M129450 107072
L129450 106472
" />
<path d="M129450 107044
L129392 107072
L129278 107072
L129221 107044
L129192 107015
L129164 106958
L129164 106787
L129192 106730
L129221 106701
L129278 106672
L129392 106672
L129450 106701
" />
<path d="M129992 106672
L129992 107158
L129964 107215
L129935 107244
L129878 107272
L129792 107272
L129735 107244
" />
<path d="M129992 107044
L129935 107072
L129821 107072
L129764 107044
L129735 107015
L129707 106958
L129707 106787
L129735 106730
L129764 106701
L129821 106672
L129935 106672
L129992 106701
" />
<path d="M130507 107044
L130450 107072
L130335 107072
L130278 107044
L130250 106987
L130250 106758
L130278 106701
L130335 106672
L130450 106672
L130507 106701
L130535 106758
L130535 106815
L130250 106872
" />
<path d="M130792 107015
L130821 107044
L130792 107072
L130764 107044
L130792 107015
L130792 107072
" />
<path d="M131078 107072
L131078 106472
" />
<path d="M131135 106844
L131307 107072
" />
<path d="M131307 106672
L131078 106901
" />
<path d="M131564 107072
L131564 106672
" />
<path d="M131564 106472
L131535 106501
L131564 106530
L131592 106501
L131564 106472
L131564 106530
" />
<path d="M132107 107044
L132050 107072
L131935 107072
L131878 107044
L131850 107015
L131821 106958
L131821 106787
L131850 106730
L131878 106701
L131935 106672
L132050 106672
L132107 106701
" />
<path d="M132621 107072
L132621 106758
L132592 106701
L132535 106672
L132421 106672
L132364 106701
" />
<path d="M132621 107044
L132564 107072
L132421 107072
L132364 107044
L132335 106987
L132335 106930
L132364 106872
L132421 106844
L132564 106844
L132621 106815
" />
<path d="M133164 107072
L133164 106472
" />
<path d="M133164 107044
L133107 107072
L132992 107072
L132935 107044
L132907 107015
L132878 106958
L132878 106787
L132907 106730
L132935 106701
L132992 106672
L133107 106672
L133164 106701
" />
<path d="M133307 107130
L133764 107130
" />
<path d="M133907 106672
L133907 107272
" />
<path d="M133907 106701
L133964 106672
L134078 106672
L134135 106701
L134164 106730
L134192 106787
L134192 106958
L134164 107015
L134135 107044
L134078 107072
L133964 107072
L133907 107044
" />
<path d="M134707 107044
L134650 107072
L134535 107072
L134478 107044
L134450 107015
L134421 106958
L134421 106787
L134450 106730
L134478 106701
L134535 106672
L134650 106672
L134707 106701
" />
<path d="M134964 107072
L134964 106472
" />
<path d="M134964 106701
L135021 106672
L135135 106672
L135192 106701
L135221 106730
L135250 106787
L135250 106958
L135221 107015
L135192 107044
L135135 107072
L135021 107072
L134964 107044
" />
<path d="M119364 108244
L119450 108272
L119592 108272
L119650 108244
L119678 108215
L119707 108158
L119707 108101
L119678 108044
L119650 108015
L119592 107987
L119478 107958
L119421 107930
L119392 107901
L119364 107844
L119364 107787
L119392 107730
L119421 107701
L119478 107672
L119621 107672
L119707 107701
" />
<path d="M119964 108272
L119964 107672
" />
<path d="M120221 108272
L120221 107958
L120192 107901
L120135 107872
L120050 107872
L119992 107901
L119964 107930
" />
<path d="M120735 108244
L120678 108272
L120564 108272
L120507 108244
L120478 108187
L120478 107958
L120507 107901
L120564 107872
L120678 107872
L120735 107901
L120764 107958
L120764 108015
L120478 108072
" />
<path d="M121250 108244
L121192 108272
L121078 108272
L121021 108244
L120992 108187
L120992 107958
L121021 107901
L121078 107872
L121192 107872
L121250 107901
L121278 107958
L121278 108015
L120992 108072
" />
<path d="M121450 107872
L121678 107872
" />
<path d="M121535 107672
L121535 108187
L121564 108244
L121621 108272
L121678 108272
" />
<path d="M121878 108215
L121907 108244
L121878 108272
L121850 108244
L121878 108215
L121878 108272
" />
<path d="M121878 107901
L121907 107930
L121878 107958
L121850 107930
L121878 107901
L121878 107958
" />
<path d="M118650 106230
L118650 112230
" />
<path d="M118650 106230
L160650 106230
" />
<path d="M118650 106230
L160650 106230
" />
<path d="M118650 108630
L160650 108630
" />
<path d="M151850 109830
L151850 112230
" />
<path d="M118650 111030
L160650 111030
" />
<path d="M118650 109830
L160650 109830
" />
<path d="M125250 109830
L125250 111030
" />
</g>
<g style="fill:#FFFF00; fill-opacity:0.0; 
stroke:#FFFF00; stroke-width:39.3701; stroke-opacity:1; 
stroke-linecap:round; stroke-linejoin:round;">
<path d="M-49500 -42600
L-49500 -42300
" />
<path d="M182000 -42600
L-49500 -42600
" />
<path d="M182000 126600
L182000 -42600
" />
<path d="M-49500 126600
L182000 126600
" />
<path d="M-49500 -42300
L-49500 126600
" />
</g>
<g style="fill:#808000; fill-opacity:0.0; 
stroke:#808000; stroke-width:39.3701; stroke-opacity:1; 
stroke-linecap:round; stroke-linejoin:round;">
</g>
<g style="fill:#808000; fill-opacity:1.0; 
stroke:#808000; stroke-width:39.3701; stroke-opacity:1; 
stroke-linecap:round; stroke-linejoin:round;">
<polyline style="fill-rule:evenodd;"
points="-23830,73230
-23830,72569
-23169,72569
-23169,73230
-23830,73230
" /> 
<circle cx="-23500" cy="70900" r="330.315" /> 
<circle cx="-23500" cy="71900" r="330.315" /> 
<polyline style="fill-rule:evenodd;"
points="-18730,73630
-18730,70169
-15269,70169
-15269,73630
-18730,73630
" /> 
<polyline style="fill-rule:evenodd;"
points="151069,48130
151069,47469
151730,47469
151730,48130
151069,48130
" /> 
<circle cx="151400" cy="45800" r="330.315" /> 
<circle cx="151400" cy="46800" r="330.315" /> 
<polyline style="fill-rule:evenodd;"
points="156169,48530
156169,45069
159630,45069
159630,48530
156169,48530
" /> 
<polyline style="fill-rule:evenodd;"
points="101869,61269
102530,61269
102530,61930
101869,61930
101869,61269
" /> 
<circle cx="104200" cy="61600" r="330.315" /> 
<circle cx="103200" cy="61600" r="330.315" /> 
<polyline style="fill-rule:evenodd;"
points="101469,66369
104930,66369
104930,69830
101469,69830
101469,66369
" /> 
<circle cx="31050" cy="-450" r="255.315" /> 
<circle cx="31050" cy="1550" r="255.315" /> 
<circle cx="28050" cy="-450" r="255.315" /> 
<circle cx="28050" cy="1550" r="255.315" /> 
<circle cx="31400" cy="47300" r="255.315" /> 
<circle cx="31400" cy="49300" r="255.315" /> 
<circle cx="28400" cy="47300" r="255.315" /> 
<circle cx="28400" cy="49300" r="255.315" /> 
<circle cx="28150" cy="-2500" r="255.315" /> 
<circle cx="28150" cy="-4500" r="255.315" /> 
<circle cx="31150" cy="-2500" r="255.315" /> 
<circle cx="31150" cy="-4500" r="255.315" /> 
<circle cx="31600" cy="95300" r="255.315" /> 
<circle cx="31600" cy="97300" r="255.315" /> 
<circle cx="28600" cy="95300" r="255.315" /> 
<circle cx="28600" cy="97300" r="255.315" /> 
<circle cx="28550" cy="93300" r="255.315" /> 
<circle cx="28550" cy="91300" r="255.315" /> 
<circle cx="31550" cy="93300" r="255.315" /> 
<circle cx="31550" cy="91300" r="255.315" /> 
<circle cx="28450" cy="45400" r="255.315" /> 
<circle cx="28450" cy="43400" r="255.315" /> 
<circle cx="31450" cy="45400" r="255.315" /> 
<circle cx="31450" cy="43400" r="255.315" /> 
<circle cx="86650" cy="-950" r="330.315" /> 
<circle cx="102650" cy="-950" r="330.315" /> 
<circle cx="85300" cy="46300" r="330.315" /> 
<circle cx="101300" cy="46300" r="330.315" /> 
<polyline style="fill-rule:evenodd;"
points="-7571,-790
-7010,-790
-7010,-230
-7571,-230
-7571,-790
" /> 
<circle cx="-6300" cy="-500" r="280.315" /> 
<circle cx="-7291.3" cy="4489.57" r="280.315" /> 
<circle cx="-6291.3" cy="489.567" r="280.315" /> 
<circle cx="-7291.3" cy="5489.57" r="280.315" /> 
<circle cx="-6291.3" cy="1489.57" r="280.315" /> 
<circle cx="-7291.3" cy="6489.57" r="280.315" /> 
<circle cx="-6291.3" cy="2489.57" r="280.315" /> 
<circle cx="-7291.3" cy="7489.57" r="280.315" /> 
<circle cx="-6291.3" cy="3489.57" r="280.315" /> 
<circle cx="-7291.3" cy="8489.57" r="280.315" /> 
<circle cx="-6291.3" cy="4489.57" r="280.315" /> 
<circle cx="-7291.3" cy="9489.57" r="280.315" /> 
<circle cx="-6291.3" cy="5489.57" r="280.315" /> 
<circle cx="-7291.3" cy="10489.6" r="280.315" /> 
<circle cx="-6291.3" cy="6489.57" r="280.315" /> 
<circle cx="-7291.3" cy="11489.6" r="280.315" /> 
<circle cx="-6291.3" cy="7489.57" r="280.315" /> 
<circle cx="-7291.3" cy="12489.6" r="280.315" /> 
<circle cx="-6291.3" cy="8489.57" r="280.315" /> 
<circle cx="-7291.3" cy="13489.6" r="280.315" /> 
<circle cx="-6291.3" cy="9489.57" r="280.315" /> 
<circle cx="-7291.3" cy="14489.6" r="280.315" /> 
<circle cx="-6291.3" cy="10489.6" r="280.315" /> 
<circle cx="-6291.3" cy="11489.6" r="280.315" /> 
<circle cx="-7291.3" cy="15489.6" r="280.315" /> 
<circle cx="-6291.3" cy="12489.6" r="280.315" /> 
<circle cx="-6291.3" cy="14489.6" r="280.315" /> 
<circle cx="-6291.3" cy="15489.6" r="280.315" /> 
<circle cx="-6291.3" cy="16489.6" r="280.315" /> 
<circle cx="-6291.3" cy="17489.6" r="280.315" /> 
<circle cx="-7291.3" cy="16489.6" r="280.315" /> 
<circle cx="-7291.3" cy="17489.6" r="280.315" /> 
<circle cx="-7291.3" cy="489.567" r="280.315" /> 
<circle cx="-7291.3" cy="1489.57" r="280.315" /> 
<circle cx="-7291.3" cy="2489.57" r="280.315" /> 
<circle cx="-7291.3" cy="3489.57" r="280.315" /> 
<circle cx="-7291.3" cy="18489.6" r="280.315" /> 
<circle cx="-6291.3" cy="18489.6" r="280.315" /> 
<circle cx="-6291.3" cy="13489.6" r="280.315" /> 
<circle cx="-7291.3" cy="19489.6" r="280.315" /> 
<circle cx="-6291.3" cy="19489.6" r="280.315" /> 
<circle cx="-7291.3" cy="20489.6" r="280.315" /> 
<circle cx="-6291.3" cy="20489.6" r="280.315" /> 
<circle cx="-7291.3" cy="21489.6" r="280.315" /> 
<circle cx="-6291.3" cy="21489.6" r="280.315" /> 
<circle cx="-7291.3" cy="22489.6" r="280.315" /> 
<circle cx="-6291.3" cy="22489.6" r="280.315" /> 
<circle cx="-7291.3" cy="23489.6" r="280.315" /> 
<circle cx="-6291.3" cy="23489.6" r="280.315" /> 
<polyline style="fill-rule:evenodd;"
points="108519,-619
108519,-1180
109080,-1180
109080,-619
108519,-619
" /> 
<polyline style="fill-rule:evenodd;"
points="103719,49780
103719,49219
104280,49219
104280,49780
103719,49780
" /> 
<polyline style="fill-rule:evenodd;"
points="155419,84480
155419,83919
155980,83919
155980,84480
155419,84480
" /> 
<circle cx="88300" cy="96900" r="310.315" /> 
<circle cx="88300" cy="97900" r="310.315" /> 
<circle cx="142500" cy="48000" r="310.315" /> 
<circle cx="142500" cy="47000" r="310.315" /> 
<circle cx="89550" cy="58500" r="310.315" /> 
<circle cx="89550" cy="59500" r="310.315" /> 
<circle cx="94850" cy="-13550" r="310.315" /> 
<circle cx="94850" cy="-12550" r="310.315" /> 
<circle cx="-6275" cy="35775" r="310.315" /> 
<circle cx="-6275" cy="36775" r="310.315" /> 
<circle cx="-6575" cy="47725" r="310.315" /> 
<circle cx="-6575" cy="48725" r="310.315" /> 
<circle cx="-6725" cy="61125" r="310.315" /> 
<circle cx="-6725" cy="62125" r="310.315" /> 
<polyline style="fill-rule:evenodd;"
points="48430,92069
48430,92630
47869,92630
47869,92069
48430,92069
" /> 
<circle cx="52150" cy="92350" r="280.315" /> 
<polyline style="fill-rule:evenodd;"
points="46730,44019
46730,44580
46169,44580
46169,44019
46730,44019
" /> 
<circle cx="50450" cy="44300" r="280.315" /> 
<polyline style="fill-rule:evenodd;"
points="46580,-3730
46580,-3169
46019,-3169
46019,-3730
46580,-3730
" /> 
<circle cx="50300" cy="-3450" r="280.315" /> 
<polyline style="fill-rule:evenodd;"
points="98355,73894
98355,74405
97844,74405
97844,73894
98355,73894
" /> 
<circle cx="97100" cy="74150" r="255.315" /> 
<circle cx="96100" cy="74150" r="255.315" /> 
<circle cx="95100" cy="74150" r="255.315" /> 
<circle cx="95100" cy="77150" r="255.315" /> 
<circle cx="96100" cy="77150" r="255.315" /> 
<circle cx="97100" cy="77150" r="255.315" /> 
<circle cx="98100" cy="77150" r="255.315" /> 
<polyline style="fill-rule:evenodd;"
points="103005,18094
103005,18605
102494,18605
102494,18094
103005,18094
" /> 
<circle cx="101750" cy="18350" r="255.315" /> 
<circle cx="100750" cy="18350" r="255.315" /> 
<circle cx="99750" cy="18350" r="255.315" /> 
<circle cx="99750" cy="21350" r="255.315" /> 
<circle cx="100750" cy="21350" r="255.315" /> 
<circle cx="101750" cy="21350" r="255.315" /> 
<circle cx="102750" cy="21350" r="255.315" /> 
<polyline style="fill-rule:evenodd;"
points="40405,49555
39894,49555
39894,49044
40405,49044
40405,49555
" /> 
<circle cx="40150" cy="48300" r="255.315" /> 
<circle cx="40150" cy="47300" r="255.315" /> 
<circle cx="40150" cy="46300" r="255.315" /> 
<circle cx="40150" cy="45300" r="255.315" /> 
<circle cx="40150" cy="44300" r="255.315" /> 
<circle cx="40150" cy="43300" r="255.315" /> 
<circle cx="37150" cy="43300" r="255.315" /> 
<circle cx="37150" cy="44300" r="255.315" /> 
<circle cx="37150" cy="45300" r="255.315" /> 
<circle cx="37150" cy="46300" r="255.315" /> 
<circle cx="37150" cy="47300" r="255.315" /> 
<circle cx="37150" cy="48300" r="255.315" /> 
<circle cx="37150" cy="49300" r="255.315" /> 
<polyline style="fill-rule:evenodd;"
points="39395,1785
38884,1785
38884,1274
39395,1274
39395,1785
" /> 
<circle cx="39140" cy="530" r="255.315" /> 
<circle cx="39140" cy="-470" r="255.315" /> 
<circle cx="39140" cy="-1470" r="255.315" /> 
<circle cx="39140" cy="-2470" r="255.315" /> 
<circle cx="39140" cy="-3470" r="255.315" /> 
<circle cx="39140" cy="-4470" r="255.315" /> 
<circle cx="36140" cy="-4470" r="255.315" /> 
<circle cx="36140" cy="-3470" r="255.315" /> 
<circle cx="36140" cy="-2470" r="255.315" /> 
<circle cx="36140" cy="-1470" r="255.315" /> 
<circle cx="36140" cy="-470" r="255.315" /> 
<circle cx="36140" cy="530" r="255.315" /> 
<circle cx="36140" cy="1530" r="255.315" /> 
<polyline style="fill-rule:evenodd;"
points="40905,97555
40394,97555
40394,97044
40905,97044
40905,97555
" /> 
<circle cx="40650" cy="96300" r="255.315" /> 
<circle cx="40650" cy="95300" r="255.315" /> 
<circle cx="40650" cy="94300" r="255.315" /> 
<circle cx="40650" cy="93300" r="255.315" /> 
<circle cx="40650" cy="92300" r="255.315" /> 
<circle cx="40650" cy="91300" r="255.315" /> 
<circle cx="37650" cy="91300" r="255.315" /> 
<circle cx="37650" cy="92300" r="255.315" /> 
<circle cx="37650" cy="93300" r="255.315" /> 
<circle cx="37650" cy="94300" r="255.315" /> 
<circle cx="37650" cy="95300" r="255.315" /> 
<circle cx="37650" cy="96300" r="255.315" /> 
<circle cx="37650" cy="97300" r="255.315" /> 
<circle cx="52900" cy="17400" r="255.315" /> 
<circle cx="52900" cy="18400" r="255.315" /> 
<circle cx="43550" cy="44300" r="255.315" /> 
<circle cx="43550" cy="45300" r="255.315" /> 
<circle cx="51400" cy="67500" r="255.315" /> 
<circle cx="51400" cy="68500" r="255.315" /> 
<circle cx="43750" cy="-3450" r="255.315" /> 
<circle cx="43750" cy="-2450" r="255.315" /> 
<circle cx="48300" cy="67500" r="255.315" /> 
<circle cx="48300" cy="68500" r="255.315" /> 
<circle cx="49800" cy="17400" r="255.315" /> 
<circle cx="49800" cy="18400" r="255.315" /> 
<circle cx="45050" cy="92400" r="255.315" /> 
<circle cx="45050" cy="93400" r="255.315" /> 
<polyline style="fill-rule:evenodd;"
points="-23755,61655
-23755,60994
-23094,60994
-23094,61655
-23755,61655
" /> 
<circle cx="-23425" cy="59325" r="330.315" /> 
<circle cx="-23425" cy="60325" r="330.315" /> 
<polyline style="fill-rule:evenodd;"
points="-18655,62055
-18655,58594
-15194,58594
-15194,62055
-18655,62055
" /> 
<polyline style="fill-rule:evenodd;"
points="-23855,47355
-23855,46694
-23194,46694
-23194,47355
-23855,47355
" /> 
<circle cx="-23525" cy="45025" r="330.315" /> 
<circle cx="-23525" cy="46025" r="330.315" /> 
<polyline style="fill-rule:evenodd;"
points="-18755,47755
-18755,44294
-15294,44294
-15294,47755
-18755,47755
" /> 
<polyline style="fill-rule:evenodd;"
points="-23755,35155
-23755,34494
-23094,34494
-23094,35155
-23755,35155
" /> 
<circle cx="-23425" cy="32825" r="330.315" /> 
<circle cx="-23425" cy="33825" r="330.315" /> 
<polyline style="fill-rule:evenodd;"
points="-18655,35555
-18655,32094
-15194,32094
-15194,35555
-18655,35555
" /> 
<circle cx="54500" cy="87600" r="280.315" /> 
<circle cx="58500" cy="87600" r="280.315" /> 
<circle cx="-9025" cy="63325" r="280.315" /> 
<circle cx="-13025" cy="63325" r="280.315" /> 
<circle cx="-6725" cy="55125" r="280.315" /> 
<circle cx="-6725" cy="59125" r="280.315" /> 
<circle cx="-8825" cy="48775" r="280.315" /> 
<circle cx="-12825" cy="48775" r="280.315" /> 
<circle cx="-6575" cy="41875" r="280.315" /> 
<circle cx="-6575" cy="45875" r="280.315" /> 
<circle cx="-6175" cy="30225" r="280.315" /> 
<circle cx="-6175" cy="34225" r="280.315" /> 
<circle cx="105700" cy="13500" r="280.315" /> 
<circle cx="101700" cy="13500" r="280.315" /> 
<circle cx="96750" cy="23450" r="280.315" /> 
<circle cx="100750" cy="23450" r="280.315" /> 
<circle cx="101750" cy="25400" r="280.315" /> 
<circle cx="101750" cy="29400" r="280.315" /> 
<circle cx="101800" cy="16100" r="280.315" /> 
<circle cx="105800" cy="16100" r="280.315" /> 
<circle cx="-9125" cy="36825" r="280.315" /> 
<circle cx="-13125" cy="36825" r="280.315" /> 
<circle cx="99100" cy="-12550" r="280.315" /> 
<circle cx="103100" cy="-12550" r="280.315" /> 
<circle cx="97600" cy="-12550" r="280.315" /> 
<circle cx="97600" cy="-8550" r="280.315" /> 
<circle cx="93550" cy="59450" r="280.315" /> 
<circle cx="97550" cy="59450" r="280.315" /> 
<circle cx="92000" cy="59450" r="280.315" /> 
<circle cx="92000" cy="63450" r="280.315" /> 
<circle cx="92050" cy="97900" r="280.315" /> 
<circle cx="96050" cy="97900" r="280.315" /> 
<circle cx="90550" cy="97900" r="280.315" /> 
<circle cx="90550" cy="101900" r="280.315" /> 
<circle cx="54200" cy="100500" r="280.315" /> 
<circle cx="58200" cy="100500" r="280.315" /> 
<circle cx="52350" cy="39450" r="280.315" /> 
<circle cx="56350" cy="39450" r="280.315" /> 
<circle cx="52350" cy="52050" r="280.315" /> 
<circle cx="56350" cy="52050" r="280.315" /> 
<circle cx="99100" cy="81900" r="280.315" /> 
<circle cx="95100" cy="81900" r="280.315" /> 
<circle cx="91100" cy="79450" r="280.315" /> 
<circle cx="95100" cy="79450" r="280.315" /> 
<circle cx="51750" cy="3300" r="280.315" /> 
<circle cx="55750" cy="3300" r="280.315" /> 
<circle cx="52050" cy="-6550" r="280.315" /> 
<circle cx="56050" cy="-6550" r="280.315" /> 
<circle cx="96100" cy="72300" r="280.315" /> 
<circle cx="92100" cy="72300" r="280.315" /> 
<circle cx="96100" cy="66600" r="280.315" /> 
<circle cx="96100" cy="70600" r="280.315" /> 
<polyline style="fill-rule:evenodd;"
points="155128,65909
155689,65909
155689,66469
155128,66469
155128,65909
" /> 
<circle cx="155409" cy="81189.6" r="280.315" /> 
<polyline style="fill-rule:evenodd;"
points="92680,95880
92119,95880
92119,95319
92680,95319
92680,95880
" /> 
<polyline style="fill-rule:evenodd;"
points="68769,-11719
68769,-12380
69430,-12380
69430,-11719
68769,-11719
" /> 
<circle cx="69100" cy="-14050" r="330.315" /> 
<circle cx="69100" cy="-13050" r="330.315" /> 
<polyline style="fill-rule:evenodd;"
points="73869,-11319
73869,-14780
77330,-14780
77330,-11319
73869,-11319
" /> 
<polyline style="fill-rule:evenodd;"
points="68869,11030
68869,10369
69530,10369
69530,11030
68869,11030
" /> 
<circle cx="69200" cy="8700" r="330.315" /> 
<circle cx="69200" cy="9700" r="330.315" /> 
<polyline style="fill-rule:evenodd;"
points="73969,11430
73969,7969
77430,7969
77430,11430
73969,11430
" /> 
<polyline style="fill-rule:evenodd;"
points="69819,58480
69819,57819
70480,57819
70480,58480
69819,58480
" /> 
<circle cx="70150" cy="56150" r="330.315" /> 
<circle cx="70150" cy="57150" r="330.315" /> 
<polyline style="fill-rule:evenodd;"
points="74919,58880
74919,55419
78380,55419
78380,58880
74919,58880
" /> 
<polyline style="fill-rule:evenodd;"
points="69619,36480
69619,35819
70280,35819
70280,36480
69619,36480
" /> 
<circle cx="69950" cy="34150" r="330.315" /> 
<circle cx="69950" cy="35150" r="330.315" /> 
<polyline style="fill-rule:evenodd;"
points="74719,36880
74719,33419
78180,33419
78180,36880
74719,36880
" /> 
<polyline style="fill-rule:evenodd;"
points="70369,107530
70369,106869
71030,106869
71030,107530
70369,107530
" /> 
<circle cx="70700" cy="105200" r="330.315" /> 
<circle cx="70700" cy="106200" r="330.315" /> 
<polyline style="fill-rule:evenodd;"
points="75469,107930
75469,104469
78930,104469
78930,107930
75469,107930
" /> 
<polyline style="fill-rule:evenodd;"
points="70119,84780
70119,84119
70780,84119
70780,84780
70119,84780
" /> 
<circle cx="70450" cy="82450" r="330.315" /> 
<circle cx="70450" cy="83450" r="330.315" /> 
<polyline style="fill-rule:evenodd;"
points="75219,85180
75219,81719
78680,81719
78680,85180
75219,85180
" /> 
<polyline style="fill-rule:evenodd;"
points="158280,91880
157719,91880
157719,91319
158280,91319
158280,91880
" /> 
<circle cx="158000" cy="90600" r="280.315" /> 
<polyline style="fill-rule:evenodd;"
points="149928,65909
150489,65909
150489,66469
149928,66469
149928,65909
" /> 
<circle cx="150209" cy="81189.6" r="280.315" /> 
<polyline style="fill-rule:evenodd;"
points="150028,84209
150589,84209
150589,84769
150028,84769
150028,84209
" /> 
<circle cx="150309" cy="99489.6" r="280.315" /> 
</g>
<g style="fill:#C0C0C0; fill-opacity:1.0; 
stroke:#C0C0C0; stroke-width:39.3701; stroke-opacity:1; 
stroke-linecap:round; stroke-linejoin:round;">
<circle cx="117700" cy="45800" r="155.315" /> 
<circle cx="132400" cy="45800" r="155.315" /> 
<circle cx="110700" cy="42600" r="155.315" /> 
<circle cx="90000" cy="41800" r="155.315" /> 
<circle cx="107600" cy="13800" r="155.315" /> 
<circle cx="107600" cy="9000" r="155.315" /> 
<circle cx="102500" cy="9000" r="155.315" /> 
<circle cx="107500" cy="20200" r="155.315" /> 
<circle cx="107600" cy="26800" r="155.315" /> 
<circle cx="88200" cy="65400" r="155.315" /> 
<circle cx="95000" cy="64500" r="155.315" /> 
<circle cx="141400" cy="87400" r="155.315" /> 
<circle cx="155800" cy="87800" r="155.315" /> 
<circle cx="66500" cy="47500" r="155.315" /> 
<circle cx="66800" cy="65200" r="155.315" /> 
<circle cx="66800" cy="73500" r="155.315" /> 
<circle cx="67000" cy="85700" r="155.315" /> 
<circle cx="64600" cy="38500" r="155.315" /> 
<circle cx="62100" cy="32600" r="155.315" /> 
<circle cx="62100" cy="19300" r="155.315" /> 
<circle cx="62000" cy="-100" r="155.315" /> 
<circle cx="113000" cy="3000" r="155.315" /> 
<circle cx="100700" cy="102300" r="155.315" /> 
<circle cx="94700" cy="84300" r="155.315" /> 
<circle cx="82700" cy="5800" r="155.315" /> 
<circle cx="138400" cy="8800" r="155.315" /> 
<circle cx="138400" cy="36800" r="155.315" /> 
<circle cx="136400" cy="49800" r="155.315" /> 
<circle cx="90600" cy="26100" r="155.315" /> 
<circle cx="88600" cy="16800" r="155.315" /> 
<circle cx="55000" cy="56300" r="155.315" /> 
<circle cx="51300" cy="10000" r="155.315" /> 
<circle cx="29800" cy="23500" r="155.315" /> 
<circle cx="-1300" cy="23500" r="155.315" /> 
<circle cx="-10200" cy="-2200" r="155.315" /> 
<circle cx="-11600" cy="20700" r="155.315" /> 
<circle cx="-13200" cy="41600" r="155.315" /> 
<circle cx="-14100" cy="52300" r="155.315" /> 
<circle cx="-13100" cy="28400" r="155.315" /> 
<circle cx="-13100" cy="34700" r="155.315" /> 
<circle cx="-28700" cy="71700" r="155.315" /> 
<circle cx="-25800" cy="68600" r="155.315" /> 
<circle cx="-25900" cy="66000" r="155.315" /> 
<circle cx="-25900" cy="58100" r="155.315" /> 
<circle cx="35100" cy="97700" r="155.315" /> 
<circle cx="35300" cy="87300" r="155.315" /> 
<circle cx="35200" cy="39000" r="155.315" /> 
<circle cx="35200" cy="49200" r="155.315" /> 
<circle cx="62800" cy="96300" r="155.315" /> 
<circle cx="65700" cy="107100" r="155.315" /> 
<circle cx="55800" cy="48300" r="155.315" /> 
<circle cx="63300" cy="58000" r="155.315" /> 
<circle cx="53000" cy="500" r="155.315" /> 
<circle cx="60600" cy="10700" r="155.315" /> 
<circle cx="101900" cy="11300" r="155.315" /> 
<circle cx="94500" cy="23500" r="155.315" /> 
<circle cx="103000" cy="32500" r="155.315" /> 
<circle cx="101400" cy="71600" r="155.315" /> 
<circle cx="95800" cy="41400" r="155.315" /> 
<circle cx="95400" cy="35000" r="155.315" /> 
<circle cx="119200" cy="21400" r="155.315" /> 
<circle cx="130600" cy="21500" r="155.315" /> 
<circle cx="-14800" cy="18500" r="155.315" /> 
<circle cx="-29900" cy="19000" r="155.315" /> 
<circle cx="-16000" cy="7500" r="155.315" /> 
<circle cx="-21400" cy="2100" r="155.315" /> 
<circle cx="4000" cy="-9700" r="155.315" /> 
<circle cx="25100" cy="-300" r="155.315" /> 
<circle cx="26000" cy="47300" r="155.315" /> 
<circle cx="17300" cy="47300" r="155.315" /> 
<circle cx="-2600" cy="-15800" r="155.315" /> 
<circle cx="-3600" cy="6800" r="155.315" /> 
<circle cx="94400" cy="87700" r="155.315" /> 
<circle cx="45100" cy="76700" r="155.315" /> 
<circle cx="-11500" cy="76700" r="155.315" /> 
<circle cx="60700" cy="48600" r="155.315" /> 
<circle cx="60700" cy="54900" r="155.315" /> 
<circle cx="60600" cy="82600" r="155.315" /> 
<circle cx="58900" cy="90600" r="155.315" /> 
<circle cx="58100" cy="8400" r="155.315" /> 
<circle cx="57900" cy="0" r="155.315" /> 
<circle cx="54000" cy="44300" r="155.315" /> 
<circle cx="58100" cy="34700" r="155.315" /> 
<circle cx="26700" cy="68100" r="155.315" /> 
<circle cx="93200" cy="68900" r="155.315" /> 
<circle cx="24500" cy="2900" r="155.315" /> 
<circle cx="12300" cy="1000" r="155.315" /> 
<circle cx="33500" cy="100200" r="155.315" /> 
<circle cx="33500" cy="89100" r="155.315" /> 
<circle cx="33300" cy="52600" r="155.315" /> 
<circle cx="30700" cy="39400" r="155.315" /> 
<circle cx="-2200" cy="50500" r="155.315" /> 
<circle cx="-2200" cy="43500" r="155.315" /> 
<circle cx="-1500" cy="27300" r="155.315" /> 
<circle cx="-2100" cy="38700" r="155.315" /> 
<circle cx="33300" cy="-6800" r="155.315" /> 
<circle cx="32800" cy="3800" r="155.315" /> 
</g>
<g style="fill:#00A000; fill-opacity:1.0; 
stroke:#00A000; stroke-width:750; stroke-opacity:1; 
stroke-linecap:round; stroke-linejoin:round;">
<path d="M132400 45800
L117700 45800
" />
<path d="M90800 42600
L110700 42600
" />
<path d="M90000 41800
L90800 42600
" />
<path d="M107500 13900
L107500 20200
" />
<path d="M107600 13800
L107500 13900
" />
<path d="M102500 9000
L107600 9000
" />
<path d="M107500 26700
L107500 20200
" />
<path d="M107600 26800
L107500 26700
" />
<path d="M88400 65200
L88200 65400
" />
<path d="M94300 65200
L88400 65200
" />
<path d="M95000 64500
L94300 65200
" />
<path d="M155400 87400
L141400 87400
" />
<path d="M155800 87800
L155400 87400
" />
<path d="M66500 64900
L66500 47500
" />
<path d="M66800 65200
L66500 64900
" />
<path d="M66800 85500
L66800 73500
" />
<path d="M67000 85700
L66800 85500
" />
<path d="M64600 35100
L64600 38500
" />
<path d="M62100 32600
L64600 35100
" />
<path d="M62100 0
L62100 19300
" />
<path d="M62000 -100
L62100 0
" />
<path d="M113000 3000
L115800 5800
" />
<path d="M100700 90300
L100700 102300
" />
<path d="M94700 84300
L100700 90300
" />
<path d="M135400 5800
L115800 5800
" />
<path d="M115800 5800
L82700 5800
" />
<path d="M138400 8800
L135400 5800
" />
<path d="M138400 47800
L138400 36800
" />
<path d="M136400 49800
L138400 47800
" />
<path d="M90600 26100
L88600 24100
" />
<path d="M88600 24100
L88600 16800
" />
<path d="M55300 56600
L59400 56600
" />
<path d="M55000 56300
L55300 56600
" />
<path d="M51300 10000
L54900 6400
" />
<path d="M54900 6400
L55000 6400
" />
<path d="M55000 6400
L54900 6400
" />
<path d="M-1300 23500
L29800 23500
" />
<path d="M-11600 -800
L-11600 20700
" />
<path d="M-10200 -2200
L-11600 -800
" />
<path d="M-13200 41600
L-14100 42500
" />
<path d="M-14100 42500
L-14100 52300
" />
<path d="M-13100 28400
L-13100 34700
" />
<path d="M-28700 71500
L-28700 71700
" />
<path d="M-25800 68600
L-28700 71500
" />
<path d="M-25900 58100
L-25900 66000
" />
<path d="M35100 87500
L35100 97700
" />
<path d="M35300 87300
L35100 87500
" />
<path d="M35200 39000
L35200 49200
" />
<path d="M62800 96300
L64200 97700
" />
<path d="M64200 97700
L64200 105600
" />
<path d="M64200 105600
L65700 107100
" />
<path d="M58200 55400
L59400 56600
" />
<path d="M58200 50700
L58200 55400
" />
<path d="M55800 48300
L58200 50700
" />
<path d="M59400 56600
L60800 58000
" />
<path d="M60800 58000
L63300 58000
" />
<path d="M53000 500
L54900 2400
" />
<path d="M54900 2400
L54900 6400
" />
<path d="M54900 6400
L54900 7200
" />
<path d="M54900 9500
L56100 10700
" />
<path d="M56100 10700
L60600 10700
" />
<path d="M54900 7200
L54900 9500
" />
<path d="M97400 11300
L101900 11300
" />
<path d="M93100 15600
L97400 11300
" />
<path d="M93100 22100
L93100 15600
" />
<path d="M94500 23500
L93100 22100
" />
<path d="M113800 35800
L113800 67700
" />
<path d="M103000 32500
L106300 35800
" />
<path d="M106300 35800
L113800 35800
" />
<path d="M109900 71600
L101400 71600
" />
<path d="M113800 67700
L109900 71600
" />
<path d="M95800 35400
L95800 41400
" />
<path d="M95400 35000
L95800 35400
" />
<path d="M130500 21400
L119200 21400
" />
<path d="M130600 21500
L130500 21400
" />
<path d="M-29400 18500
L-14800 18500
" />
<path d="M-29900 19000
L-29400 18500
" />
<path d="M-16000 7500
L-21400 2100
" />
<path d="M4000 -9700
L5900 -7800
" />
<path d="M5900 -7800
L5900 -5000
" />
<path d="M5900 -5000
L10600 -300
" />
<path d="M10600 -300
L25100 -300
" />
<path d="M26000 47300
L17300 47300
" />
<path d="M-2600 5800
L-2600 -15800
" />
<path d="M-3600 6800
L-2600 5800
" />
<path d="M59050 90450
L91650 90450
" />
<path d="M91650 90450
L94400 87700
" />
<path d="M-11500 76700
L45100 76700
" />
<path d="M60700 54900
L60700 48600
" />
<path d="M60600 88900
L60600 82600
" />
<path d="M58900 90600
L59050 90450
" />
<path d="M59050 90450
L60600 88900
" />
<path d="M58100 8400
L57900 8200
" />
<path d="M57900 8200
L57900 0
" />
<path d="M54000 44300
L58100 40200
" />
<path d="M58100 40200
L58100 34700
" />
<path d="M12300 1000
L7600 1000
" />
<path d="M-4200 24600
L-1500 27300
" />
<path d="M-4200 12800
L-4200 24600
" />
<path d="M7600 1000
L-4200 12800
" />
<path d="M26700 68500
L26700 68100
" />
<path d="M27900 69700
L26700 68500
" />
<path d="M92400 69700
L27900 69700
" />
<path d="M93200 68900
L92400 69700
" />
<path d="M14200 2900
L24500 2900
" />
<path d="M12300 1000
L14200 2900
" />
<path d="M33500 89100
L33500 100200
" />
<path d="M30700 39400
L33300 42000
" />
<path d="M33300 42000
L33300 52600
" />
<path d="M-2100 38700
L30000 38700
" />
<path d="M30000 38700
L30700 39400
" />
<path d="M-2200 43500
L-2200 50500
" />
<path d="M-1500 38100
L-1500 27300
" />
<path d="M-2100 38700
L-1500 38100
" />
<path d="M33300 3300
L33300 -6800
" />
<path d="M32800 3800
L33300 3300
" />
</g>
<g style="fill:#FFFFFF; fill-opacity:1.0; 
stroke:#FFFFFF; stroke-width:39.3701; stroke-opacity:1; 
stroke-linecap:round; stroke-linejoin:round;">
<circle cx="117700" cy="45800" r="105.315" /> 
<circle cx="132400" cy="45800" r="105.315" /> 
<circle cx="110700" cy="42600" r="105.315" /> 
<circle cx="90000" cy="41800" r="105.315" /> 
<circle cx="107600" cy="13800" r="105.315" /> 
<circle cx="107600" cy="9000" r="105.315" /> 
<circle cx="102500" cy="9000" r="105.315" /> 
<circle cx="107500" cy="20200" r="105.315" /> 
<circle cx="107600" cy="26800" r="105.315" /> 
<circle cx="88200" cy="65400" r="105.315" /> 
<circle cx="95000" cy="64500" r="105.315" /> 
<circle cx="141400" cy="87400" r="105.315" /> 
<circle cx="155800" cy="87800" r="105.315" /> 
<circle cx="66500" cy="47500" r="105.315" /> 
<circle cx="66800" cy="65200" r="105.315" /> 
<circle cx="66800" cy="73500" r="105.315" /> 
<circle cx="67000" cy="85700" r="105.315" /> 
<circle cx="64600" cy="38500" r="105.315" /> 
<circle cx="62100" cy="32600" r="105.315" /> 
<circle cx="62100" cy="19300" r="105.315" /> 
<circle cx="62000" cy="-100" r="105.315" /> 
<circle cx="113000" cy="3000" r="105.315" /> 
<circle cx="100700" cy="102300" r="105.315" /> 
<circle cx="94700" cy="84300" r="105.315" /> 
<circle cx="82700" cy="5800" r="105.315" /> 
<circle cx="138400" cy="8800" r="105.315" /> 
<circle cx="138400" cy="36800" r="105.315" /> 
<circle cx="136400" cy="49800" r="105.315" /> 
<circle cx="90600" cy="26100" r="105.315" /> 
<circle cx="88600" cy="16800" r="105.315" /> 
<circle cx="55000" cy="56300" r="105.315" /> 
<circle cx="51300" cy="10000" r="105.315" /> 
<circle cx="29800" cy="23500" r="105.315" /> 
<circle cx="-1300" cy="23500" r="105.315" /> 
<circle cx="-10200" cy="-2200" r="105.315" /> 
<circle cx="-11600" cy="20700" r="105.315" /> 
<circle cx="-13200" cy="41600" r="105.315" /> 
<circle cx="-14100" cy="52300" r="105.315" /> 
<circle cx="-13100" cy="28400" r="105.315" /> 
<circle cx="-13100" cy="34700" r="105.315" /> 
<circle cx="-28700" cy="71700" r="105.315" /> 
<circle cx="-25800" cy="68600" r="105.315" /> 
<circle cx="-25900" cy="66000" r="105.315" /> 
<circle cx="-25900" cy="58100" r="105.315" /> 
<circle cx="35100" cy="97700" r="105.315" /> 
<circle cx="35300" cy="87300" r="105.315" /> 
<circle cx="35200" cy="39000" r="105.315" /> 
<circle cx="35200" cy="49200" r="105.315" /> 
<circle cx="62800" cy="96300" r="105.315" /> 
<circle cx="65700" cy="107100" r="105.315" /> 
<circle cx="55800" cy="48300" r="105.315" /> 
<circle cx="63300" cy="58000" r="105.315" /> 
<circle cx="53000" cy="500" r="105.315" /> 
<circle cx="60600" cy="10700" r="105.315" /> 
<circle cx="101900" cy="11300" r="105.315" /> 
<circle cx="94500" cy="23500" r="105.315" /> 
<circle cx="103000" cy="32500" r="105.315" /> 
<circle cx="101400" cy="71600" r="105.315" /> 
<circle cx="95800" cy="41400" r="105.315" /> 
<circle cx="95400" cy="35000" r="105.315" /> 
<circle cx="119200" cy="21400" r="105.315" /> 
<circle cx="130600" cy="21500" r="105.315" /> 
<circle cx="-14800" cy="18500" r="105.315" /> 
<circle cx="-29900" cy="19000" r="105.315" /> 
<circle cx="-16000" cy="7500" r="105.315" /> 
<circle cx="-21400" cy="2100" r="105.315" /> 
<circle cx="4000" cy="-9700" r="105.315" /> 
<circle cx="25100" cy="-300" r="105.315" /> 
<circle cx="26000" cy="47300" r="105.315" /> 
<circle cx="17300" cy="47300" r="105.315" /> 
<circle cx="-2600" cy="-15800" r="105.315" /> 
<circle cx="-3600" cy="6800" r="105.315" /> 
<circle cx="94400" cy="87700" r="105.315" /> 
<circle cx="45100" cy="76700" r="105.315" /> 
<circle cx="-11500" cy="76700" r="105.315" /> 
<circle cx="60700" cy="48600" r="105.315" /> 
<circle cx="60700" cy="54900" r="105.315" /> 
<circle cx="60600" cy="82600" r="105.315" /> 
<circle cx="58900" cy="90600" r="105.315" /> 
<circle cx="58100" cy="8400" r="105.315" /> 
<circle cx="57900" cy="0" r="105.315" /> 
<circle cx="54000" cy="44300" r="105.315" /> 
<circle cx="58100" cy="34700" r="105.315" /> 
<circle cx="26700" cy="68100" r="105.315" /> 
<circle cx="93200" cy="68900" r="105.315" /> 
<circle cx="24500" cy="2900" r="105.315" /> 
<circle cx="12300" cy="1000" r="105.315" /> 
<circle cx="33500" cy="100200" r="105.315" /> 
<circle cx="33500" cy="89100" r="105.315" /> 
<circle cx="33300" cy="52600" r="105.315" /> 
<circle cx="30700" cy="39400" r="105.315" /> 
<circle cx="-2200" cy="50500" r="105.315" /> 
<circle cx="-2200" cy="43500" r="105.315" /> 
<circle cx="-1500" cy="27300" r="105.315" /> 
<circle cx="-2100" cy="38700" r="105.315" /> 
<circle cx="33300" cy="-6800" r="105.315" /> 
<circle cx="32800" cy="3800" r="105.315" /> 
<circle cx="-23500" cy="72900" r="205.315" /> 
<circle cx="-23500" cy="70900" r="205.315" /> 
<circle cx="-23500" cy="71900" r="205.315" /> 
<circle cx="-17000" cy="71900" r="580.315" /> 
<circle cx="151400" cy="47800" r="205.315" /> 
<circle cx="151400" cy="45800" r="205.315" /> 
<circle cx="151400" cy="46800" r="205.315" /> 
<circle cx="157900" cy="46800" r="580.315" /> 
<circle cx="102200" cy="61600" r="205.315" /> 
<circle cx="104200" cy="61600" r="205.315" /> 
<circle cx="103200" cy="61600" r="205.315" /> 
<circle cx="103200" cy="68100" r="580.315" /> 
<circle cx="31050" cy="-450" r="140.315" /> 
<circle cx="31050" cy="1550" r="140.315" /> 
<circle cx="28050" cy="-450" r="140.315" /> 
<circle cx="28050" cy="1550" r="140.315" /> 
<circle cx="31400" cy="47300" r="140.315" /> 
<circle cx="31400" cy="49300" r="140.315" /> 
<circle cx="28400" cy="47300" r="140.315" /> 
<circle cx="28400" cy="49300" r="140.315" /> 
<circle cx="28150" cy="-2500" r="140.315" /> 
<circle cx="28150" cy="-4500" r="140.315" /> 
<circle cx="31150" cy="-2500" r="140.315" /> 
<circle cx="31150" cy="-4500" r="140.315" /> 
<circle cx="31600" cy="95300" r="140.315" /> 
<circle cx="31600" cy="97300" r="140.315" /> 
<circle cx="28600" cy="95300" r="140.315" /> 
<circle cx="28600" cy="97300" r="140.315" /> 
<circle cx="28550" cy="93300" r="140.315" /> 
<circle cx="28550" cy="91300" r="140.315" /> 
<circle cx="31550" cy="93300" r="140.315" /> 
<circle cx="31550" cy="91300" r="140.315" /> 
<circle cx="28450" cy="45400" r="140.315" /> 
<circle cx="28450" cy="43400" r="140.315" /> 
<circle cx="31450" cy="45400" r="140.315" /> 
<circle cx="31450" cy="43400" r="140.315" /> 
<circle cx="86650" cy="-950" r="230.315" /> 
<circle cx="102650" cy="-950" r="230.315" /> 
<circle cx="85300" cy="46300" r="230.315" /> 
<circle cx="101300" cy="46300" r="230.315" /> 
<circle cx="-7291.3" cy="-510.433" r="180.315" /> 
<circle cx="-6300" cy="-500" r="180.315" /> 
<circle cx="-7291.3" cy="4489.57" r="180.315" /> 
<circle cx="-6291.3" cy="489.567" r="180.315" /> 
<circle cx="-7291.3" cy="5489.57" r="180.315" /> 
<circle cx="-6291.3" cy="1489.57" r="180.315" /> 
<circle cx="-7291.3" cy="6489.57" r="180.315" /> 
<circle cx="-6291.3" cy="2489.57" r="180.315" /> 
<circle cx="-7291.3" cy="7489.57" r="180.315" /> 
<circle cx="-6291.3" cy="3489.57" r="180.315" /> 
<circle cx="-7291.3" cy="8489.57" r="180.315" /> 
<circle cx="-6291.3" cy="4489.57" r="180.315" /> 
<circle cx="-7291.3" cy="9489.57" r="180.315" /> 
<circle cx="-6291.3" cy="5489.57" r="180.315" /> 
<circle cx="-7291.3" cy="10489.6" r="180.315" /> 
<circle cx="-6291.3" cy="6489.57" r="180.315" /> 
<circle cx="-7291.3" cy="11489.6" r="180.315" /> 
<circle cx="-6291.3" cy="7489.57" r="180.315" /> 
<circle cx="-7291.3" cy="12489.6" r="180.315" /> 
<circle cx="-6291.3" cy="8489.57" r="180.315" /> 
<circle cx="-7291.3" cy="13489.6" r="180.315" /> 
<circle cx="-6291.3" cy="9489.57" r="180.315" /> 
<circle cx="-7291.3" cy="14489.6" r="180.315" /> 
<circle cx="-6291.3" cy="10489.6" r="180.315" /> 
<circle cx="-6291.3" cy="11489.6" r="180.315" /> 
<circle cx="-7291.3" cy="15489.6" r="180.315" /> 
<circle cx="-6291.3" cy="12489.6" r="180.315" /> 
<circle cx="-6291.3" cy="14489.6" r="180.315" /> 
<circle cx="-6291.3" cy="15489.6" r="180.315" /> 
<circle cx="-6291.3" cy="16489.6" r="180.315" /> 
<circle cx="-6291.3" cy="17489.6" r="180.315" /> 
<circle cx="-7291.3" cy="16489.6" r="180.315" /> 
<circle cx="-7291.3" cy="17489.6" r="180.315" /> 
<circle cx="-7291.3" cy="489.567" r="180.315" /> 
<circle cx="-7291.3" cy="1489.57" r="180.315" /> 
<circle cx="-7291.3" cy="2489.57" r="180.315" /> 
<circle cx="-7291.3" cy="3489.57" r="180.315" /> 
<circle cx="-7291.3" cy="18489.6" r="180.315" /> 
<circle cx="-6291.3" cy="18489.6" r="180.315" /> 
<circle cx="-6291.3" cy="13489.6" r="180.315" /> 
<circle cx="-7291.3" cy="19489.6" r="180.315" /> 
<circle cx="-6291.3" cy="19489.6" r="180.315" /> 
<circle cx="-7291.3" cy="20489.6" r="180.315" /> 
<circle cx="-6291.3" cy="20489.6" r="180.315" /> 
<circle cx="-7291.3" cy="21489.6" r="180.315" /> 
<circle cx="-6291.3" cy="21489.6" r="180.315" /> 
<circle cx="-7291.3" cy="22489.6" r="180.315" /> 
<circle cx="-6291.3" cy="22489.6" r="180.315" /> 
<circle cx="-7291.3" cy="23489.6" r="180.315" /> 
<circle cx="-6291.3" cy="23489.6" r="180.315" /> 
<circle cx="108800" cy="-900" r="180.315" /> 
<circle cx="104000" cy="49500" r="180.315" /> 
<circle cx="155700" cy="84200" r="180.315" /> 
<circle cx="88300" cy="96900" r="140.315" /> 
<circle cx="88300" cy="97900" r="140.315" /> 
<circle cx="142500" cy="48000" r="140.315" /> 
<circle cx="142500" cy="47000" r="140.315" /> 
<circle cx="89550" cy="58500" r="140.315" /> 
<circle cx="89550" cy="59500" r="140.315" /> 
<circle cx="94850" cy="-13550" r="140.315" /> 
<circle cx="94850" cy="-12550" r="140.315" /> 
<circle cx="-6275" cy="35775" r="140.315" /> 
<circle cx="-6275" cy="36775" r="140.315" /> 
<circle cx="-6575" cy="47725" r="140.315" /> 
<circle cx="-6575" cy="48725" r="140.315" /> 
<circle cx="-6725" cy="61125" r="140.315" /> 
<circle cx="-6725" cy="62125" r="140.315" /> 
<circle cx="48150" cy="92350" r="155.315" /> 
<circle cx="52150" cy="92350" r="155.315" /> 
<circle cx="46450" cy="44300" r="155.315" /> 
<circle cx="50450" cy="44300" r="155.315" /> 
<circle cx="46300" cy="-3450" r="155.315" /> 
<circle cx="50300" cy="-3450" r="155.315" /> 
<circle cx="98100" cy="74150" r="140.315" /> 
<circle cx="97100" cy="74150" r="140.315" /> 
<circle cx="96100" cy="74150" r="140.315" /> 
<circle cx="95100" cy="74150" r="140.315" /> 
<circle cx="95100" cy="77150" r="140.315" /> 
<circle cx="96100" cy="77150" r="140.315" /> 
<circle cx="97100" cy="77150" r="140.315" /> 
<circle cx="98100" cy="77150" r="140.315" /> 
<circle cx="102750" cy="18350" r="140.315" /> 
<circle cx="101750" cy="18350" r="140.315" /> 
<circle cx="100750" cy="18350" r="140.315" /> 
<circle cx="99750" cy="18350" r="140.315" /> 
<circle cx="99750" cy="21350" r="140.315" /> 
<circle cx="100750" cy="21350" r="140.315" /> 
<circle cx="101750" cy="21350" r="140.315" /> 
<circle cx="102750" cy="21350" r="140.315" /> 
<circle cx="40150" cy="49300" r="140.315" /> 
<circle cx="40150" cy="48300" r="140.315" /> 
<circle cx="40150" cy="47300" r="140.315" /> 
<circle cx="40150" cy="46300" r="140.315" /> 
<circle cx="40150" cy="45300" r="140.315" /> 
<circle cx="40150" cy="44300" r="140.315" /> 
<circle cx="40150" cy="43300" r="140.315" /> 
<circle cx="37150" cy="43300" r="140.315" /> 
<circle cx="37150" cy="44300" r="140.315" /> 
<circle cx="37150" cy="45300" r="140.315" /> 
<circle cx="37150" cy="46300" r="140.315" /> 
<circle cx="37150" cy="47300" r="140.315" /> 
<circle cx="37150" cy="48300" r="140.315" /> 
<circle cx="37150" cy="49300" r="140.315" /> 
<circle cx="39140" cy="1530" r="140.315" /> 
<circle cx="39140" cy="530" r="140.315" /> 
<circle cx="39140" cy="-470" r="140.315" /> 
<circle cx="39140" cy="-1470" r="140.315" /> 
<circle cx="39140" cy="-2470" r="140.315" /> 
<circle cx="39140" cy="-3470" r="140.315" /> 
<circle cx="39140" cy="-4470" r="140.315" /> 
<circle cx="36140" cy="-4470" r="140.315" /> 
<circle cx="36140" cy="-3470" r="140.315" /> 
<circle cx="36140" cy="-2470" r="140.315" /> 
<circle cx="36140" cy="-1470" r="140.315" /> 
<circle cx="36140" cy="-470" r="140.315" /> 
<circle cx="36140" cy="530" r="140.315" /> 
<circle cx="36140" cy="1530" r="140.315" /> 
<circle cx="40650" cy="97300" r="140.315" /> 
<circle cx="40650" cy="96300" r="140.315" /> 
<circle cx="40650" cy="95300" r="140.315" /> 
<circle cx="40650" cy="94300" r="140.315" /> 
<circle cx="40650" cy="93300" r="140.315" /> 
<circle cx="40650" cy="92300" r="140.315" /> 
<circle cx="40650" cy="91300" r="140.315" /> 
<circle cx="37650" cy="91300" r="140.315" /> 
<circle cx="37650" cy="92300" r="140.315" /> 
<circle cx="37650" cy="93300" r="140.315" /> 
<circle cx="37650" cy="94300" r="140.315" /> 
<circle cx="37650" cy="95300" r="140.315" /> 
<circle cx="37650" cy="96300" r="140.315" /> 
<circle cx="37650" cy="97300" r="140.315" /> 
<circle cx="52900" cy="17400" r="140.315" /> 
<circle cx="52900" cy="18400" r="140.315" /> 
<circle cx="43550" cy="44300" r="140.315" /> 
<circle cx="43550" cy="45300" r="140.315" /> 
<circle cx="51400" cy="67500" r="140.315" /> 
<circle cx="51400" cy="68500" r="140.315" /> 
<circle cx="43750" cy="-3450" r="140.315" /> 
<circle cx="43750" cy="-2450" r="140.315" /> 
<circle cx="48300" cy="67500" r="140.315" /> 
<circle cx="48300" cy="68500" r="140.315" /> 
<circle cx="49800" cy="17400" r="140.315" /> 
<circle cx="49800" cy="18400" r="140.315" /> 
<circle cx="45050" cy="92400" r="140.315" /> 
<circle cx="45050" cy="93400" r="140.315" /> 
<circle cx="-23425" cy="61325" r="205.315" /> 
<circle cx="-23425" cy="59325" r="205.315" /> 
<circle cx="-23425" cy="60325" r="205.315" /> 
<circle cx="-16925" cy="60325" r="580.315" /> 
<circle cx="-23525" cy="47025" r="205.315" /> 
<circle cx="-23525" cy="45025" r="205.315" /> 
<circle cx="-23525" cy="46025" r="205.315" /> 
<circle cx="-17025" cy="46025" r="580.315" /> 
<circle cx="-23425" cy="34825" r="205.315" /> 
<circle cx="-23425" cy="32825" r="205.315" /> 
<circle cx="-23425" cy="33825" r="205.315" /> 
<circle cx="-16925" cy="33825" r="580.315" /> 
<circle cx="54500" cy="87600" r="140.315" /> 
<circle cx="58500" cy="87600" r="140.315" /> 
<circle cx="-9025" cy="63325" r="140.315" /> 
<circle cx="-13025" cy="63325" r="140.315" /> 
<circle cx="-6725" cy="55125" r="140.315" /> 
<circle cx="-6725" cy="59125" r="140.315" /> 
<circle cx="-8825" cy="48775" r="140.315" /> 
<circle cx="-12825" cy="48775" r="140.315" /> 
<circle cx="-6575" cy="41875" r="140.315" /> 
<circle cx="-6575" cy="45875" r="140.315" /> 
<circle cx="-6175" cy="30225" r="140.315" /> 
<circle cx="-6175" cy="34225" r="140.315" /> 
<circle cx="105700" cy="13500" r="140.315" /> 
<circle cx="101700" cy="13500" r="140.315" /> 
<circle cx="96750" cy="23450" r="140.315" /> 
<circle cx="100750" cy="23450" r="140.315" /> 
<circle cx="101750" cy="25400" r="140.315" /> 
<circle cx="101750" cy="29400" r="140.315" /> 
<circle cx="101800" cy="16100" r="140.315" /> 
<circle cx="105800" cy="16100" r="140.315" /> 
<circle cx="-9125" cy="36825" r="140.315" /> 
<circle cx="-13125" cy="36825" r="140.315" /> 
<circle cx="99100" cy="-12550" r="140.315" /> 
<circle cx="103100" cy="-12550" r="140.315" /> 
<circle cx="97600" cy="-12550" r="140.315" /> 
<circle cx="97600" cy="-8550" r="140.315" /> 
<circle cx="93550" cy="59450" r="140.315" /> 
<circle cx="97550" cy="59450" r="140.315" /> 
<circle cx="92000" cy="59450" r="140.315" /> 
<circle cx="92000" cy="63450" r="140.315" /> 
<circle cx="92050" cy="97900" r="140.315" /> 
<circle cx="96050" cy="97900" r="140.315" /> 
<circle cx="90550" cy="97900" r="140.315" /> 
<circle cx="90550" cy="101900" r="140.315" /> 
<circle cx="54200" cy="100500" r="140.315" /> 
<circle cx="58200" cy="100500" r="140.315" /> 
<circle cx="52350" cy="39450" r="140.315" /> 
<circle cx="56350" cy="39450" r="140.315" /> 
<circle cx="52350" cy="52050" r="140.315" /> 
<circle cx="56350" cy="52050" r="140.315" /> 
<circle cx="99100" cy="81900" r="140.315" /> 
<circle cx="95100" cy="81900" r="140.315" /> 
<circle cx="91100" cy="79450" r="140.315" /> 
<circle cx="95100" cy="79450" r="140.315" /> 
<circle cx="51750" cy="3300" r="140.315" /> 
<circle cx="55750" cy="3300" r="140.315" /> 
<circle cx="52050" cy="-6550" r="140.315" /> 
<circle cx="56050" cy="-6550" r="140.315" /> 
<circle cx="96100" cy="72300" r="140.315" /> 
<circle cx="92100" cy="72300" r="140.315" /> 
<circle cx="96100" cy="66600" r="140.315" /> 
<circle cx="96100" cy="70600" r="140.315" /> 
<circle cx="155409" cy="66189.6" r="180.315" /> 
<circle cx="155409" cy="81189.6" r="180.315" /> 
<circle cx="92400" cy="95600" r="180.315" /> 
<circle cx="69100" cy="-12050" r="205.315" /> 
<circle cx="69100" cy="-14050" r="205.315" /> 
<circle cx="69100" cy="-13050" r="205.315" /> 
<circle cx="75600" cy="-13050" r="580.315" /> 
<circle cx="69200" cy="10700" r="205.315" /> 
<circle cx="69200" cy="8700" r="205.315" /> 
<circle cx="69200" cy="9700" r="205.315" /> 
<circle cx="75700" cy="9700" r="580.315" /> 
<circle cx="70150" cy="58150" r="205.315" /> 
<circle cx="70150" cy="56150" r="205.315" /> 
<circle cx="70150" cy="57150" r="205.315" /> 
<circle cx="76650" cy="57150" r="580.315" /> 
<circle cx="69950" cy="36150" r="205.315" /> 
<circle cx="69950" cy="34150" r="205.315" /> 
<circle cx="69950" cy="35150" r="205.315" /> 
<circle cx="76450" cy="35150" r="580.315" /> 
<circle cx="70700" cy="107200" r="205.315" /> 
<circle cx="70700" cy="105200" r="205.315" /> 
<circle cx="70700" cy="106200" r="205.315" /> 
<circle cx="77200" cy="106200" r="580.315" /> 
<circle cx="70450" cy="84450" r="205.315" /> 
<circle cx="70450" cy="82450" r="205.315" /> 
<circle cx="70450" cy="83450" r="205.315" /> 
<circle cx="76950" cy="83450" r="580.315" /> 
<circle cx="158000" cy="91600" r="180.315" /> 
<circle cx="158000" cy="90600" r="180.315" /> 
<circle cx="150209" cy="66189.6" r="180.315" /> 
<circle cx="150209" cy="81189.6" r="180.315" /> 
<circle cx="150309" cy="84489.6" r="180.315" /> 
<circle cx="150309" cy="99489.6" r="180.315" /> 
</g> 
</svg>
