<?xml version="1.0" standalone="no"?>
 <!DOCTYPE svg PUBLIC "-//W3C//DTD SVG 1.1//EN" 
 "http://www.w3.org/Graphics/SVG/1.1/DTD/svg11.dtd"> 
<svg xmlns="http://www.w3.org/2000/svg" version="1.1" 
    width="41.9989cm" height="29.7002cm" viewBox="0 0 165350 116930 ">
<title>SVG Picture created as Three-phase bridge-B_SilkS.svg date 2014/01/28 15:12:50 </title>
  <desc>Picture generated by PCBNEW </desc>
<g style="fill:#000000; fill-opacity:1;stroke:#000000; stroke-opacity:1;
stroke-linecap:round; stroke-linejoin:round; "
 transform="translate(0 0) scale(1 1)">
</g>
<g style="fill:#000000; fill-opacity:0.0; 
stroke:#000000; stroke-width:39.3701; stroke-opacity:1; 
stroke-linecap:round; stroke-linejoin:round;">
<path d="M4000 4000
L161350 4000
L161350 112930
L4000 112930
L4000 4000
" />
<path d="M4700 4700
L160650 4700
L160650 112230
L4700 112230
L4700 4700
" />
<path d="M26470 4000
L26470 4700
" />
<path d="M15382 4552
L15097 4552
" />
<path d="M15240 4552
L15240 4052
L15192 4123
L15144 4171
L15097 4195
" />
<path d="M26470 112930
L26470 112230
" />
<path d="M15382 112782
L15097 112782
" />
<path d="M15240 112782
L15240 112282
L15192 112353
L15144 112401
L15097 112425
" />
<path d="M48940 4000
L48940 4700
" />
<path d="M37567 4100
L37590 4076
L37638 4052
L37757 4052
L37805 4076
L37829 4100
L37852 4147
L37852 4195
L37829 4266
L37543 4552
L37852 4552
" />
<path d="M48940 112930
L48940 112230
" />
<path d="M37567 112330
L37590 112306
L37638 112282
L37757 112282
L37805 112306
L37829 112330
L37852 112377
L37852 112425
L37829 112496
L37543 112782
L37852 112782
" />
<path d="M71410 4000
L71410 4700
" />
<path d="M60013 4052
L60322 4052
L60156 4242
L60227 4242
L60275 4266
L60299 4290
L60322 4338
L60322 4457
L60299 4504
L60275 4528
L60227 4552
L60084 4552
L60037 4528
L60013 4504
" />
<path d="M71410 112930
L71410 112230
" />
<path d="M60013 112282
L60322 112282
L60156 112472
L60227 112472
L60275 112496
L60299 112520
L60322 112568
L60322 112687
L60299 112734
L60275 112758
L60227 112782
L60084 112782
L60037 112758
L60013 112734
" />
<path d="M93880 4000
L93880 4700
" />
<path d="M82745 4219
L82745 4552
" />
<path d="M82626 4028
L82507 4385
L82816 4385
" />
<path d="M93880 112930
L93880 112230
" />
<path d="M82745 112449
L82745 112782
" />
<path d="M82626 112258
L82507 112615
L82816 112615
" />
<path d="M116350 4000
L116350 4700
" />
<path d="M105239 4052
L105000 4052
L104977 4290
L105000 4266
L105048 4242
L105167 4242
L105215 4266
L105239 4290
L105262 4338
L105262 4457
L105239 4504
L105215 4528
L105167 4552
L105048 4552
L105000 4528
L104977 4504
" />
<path d="M116350 112930
L116350 112230
" />
<path d="M105239 112282
L105000 112282
L104977 112520
L105000 112496
L105048 112472
L105167 112472
L105215 112496
L105239 112520
L105262 112568
L105262 112687
L105239 112734
L105215 112758
L105167 112782
L105048 112782
L105000 112758
L104977 112734
" />
<path d="M138820 4000
L138820 4700
" />
<path d="M127685 4052
L127590 4052
L127542 4076
L127518 4100
L127470 4171
L127447 4266
L127447 4457
L127470 4504
L127494 4528
L127542 4552
L127637 4552
L127685 4528
L127709 4504
L127732 4457
L127732 4338
L127709 4290
L127685 4266
L127637 4242
L127542 4242
L127494 4266
L127470 4290
L127447 4338
" />
<path d="M138820 112930
L138820 112230
" />
<path d="M127685 112282
L127590 112282
L127542 112306
L127518 112330
L127470 112401
L127447 112496
L127447 112687
L127470 112734
L127494 112758
L127542 112782
L127637 112782
L127685 112758
L127709 112734
L127732 112687
L127732 112568
L127709 112520
L127685 112496
L127637 112472
L127542 112472
L127494 112496
L127470 112520
L127447 112568
" />
<path d="M149893 4052
L150226 4052
L150012 4552
" />
<path d="M149893 112282
L150226 112282
L150012 112782
" />
<path d="M4000 25780
L4700 25780
" />
<path d="M4230 14949
L4469 14949
" />
<path d="M4183 15092
L4350 14592
L4516 15092
" />
<path d="M161350 25780
L160650 25780
" />
<path d="M160880 14949
L161119 14949
" />
<path d="M160833 15092
L161000 14592
L161166 15092
" />
<path d="M4000 47560
L4700 47560
" />
<path d="M4385 36610
L4457 36634
L4480 36658
L4504 36705
L4504 36777
L4480 36824
L4457 36848
L4409 36872
L4219 36872
L4219 36372
L4385 36372
L4433 36396
L4457 36420
L4480 36467
L4480 36515
L4457 36562
L4433 36586
L4385 36610
L4219 36610
" />
<path d="M161350 47560
L160650 47560
" />
<path d="M161035 36610
L161107 36634
L161130 36658
L161154 36705
L161154 36777
L161130 36824
L161107 36848
L161059 36872
L160869 36872
L160869 36372
L161035 36372
L161083 36396
L161107 36420
L161130 36467
L161130 36515
L161107 36562
L161083 36586
L161035 36610
L160869 36610
" />
<path d="M4000 69340
L4700 69340
" />
<path d="M4504 58604
L4480 58628
L4409 58652
L4361 58652
L4290 58628
L4242 58580
L4219 58533
L4195 58438
L4195 58366
L4219 58271
L4242 58223
L4290 58176
L4361 58152
L4409 58152
L4480 58176
L4504 58200
" />
<path d="M161350 69340
L160650 69340
" />
<path d="M161154 58604
L161130 58628
L161059 58652
L161011 58652
L160940 58628
L160892 58580
L160869 58533
L160845 58438
L160845 58366
L160869 58271
L160892 58223
L160940 58176
L161011 58152
L161059 58152
L161130 58176
L161154 58200
" />
<path d="M4000 91120
L4700 91120
" />
<path d="M4219 80432
L4219 79932
L4338 79932
L4409 79956
L4457 80003
L4480 80051
L4504 80146
L4504 80218
L4480 80313
L4457 80360
L4409 80408
L4338 80432
L4219 80432
" />
<path d="M161350 91120
L160650 91120
" />
<path d="M160869 80432
L160869 79932
L160988 79932
L161059 79956
L161107 80003
L161130 80051
L161154 80146
L161154 80218
L161130 80313
L161107 80360
L161059 80408
L160988 80432
L160869 80432
" />
<path d="M4242 101950
L4409 101950
" />
<path d="M4480 102212
L4242 102212
L4242 101712
L4480 101712
" />
<path d="M160892 101950
L161059 101950
" />
<path d="M161130 102212
L160892 102212
L160892 101712
L161130 101712
" />
<path d="M127800 110672
L127875 110072
L128017 110072
L128100 110101
L128150 110158
L128171 110215
L128185 110330
L128175 110415
L128132 110530
L128096 110587
L128032 110644
L127942 110672
L127800 110672
" />
<path d="M128657 110672
L128696 110358
L128675 110301
L128621 110272
L128507 110272
L128446 110301
" />
<path d="M128660 110644
L128600 110672
L128457 110672
L128403 110644
L128382 110587
L128389 110530
L128425 110472
L128485 110444
L128628 110444
L128689 110415
" />
<path d="M128907 110272
L129135 110272
" />
<path d="M129017 110072
L128953 110587
L128975 110644
L129028 110672
L129085 110672
" />
<path d="M129517 110644
L129457 110672
L129342 110672
L129289 110644
L129267 110587
L129296 110358
L129332 110301
L129392 110272
L129507 110272
L129560 110301
L129582 110358
L129575 110415
L129282 110472
" />
<path d="M129807 110615
L129832 110644
L129800 110672
L129775 110644
L129807 110615
L129800 110672
" />
<path d="M129846 110301
L129871 110330
L129839 110358
L129814 110330
L129846 110301
L129839 110358
" />
<path d="M130582 110130
L130614 110101
L130675 110072
L130817 110072
L130871 110101
L130896 110130
L130917 110187
L130910 110244
L130871 110330
L130485 110672
L130857 110672
" />
<path d="M131242 110330
L131189 110301
L131164 110272
L131142 110215
L131146 110187
L131182 110130
L131214 110101
L131275 110072
L131389 110072
L131442 110101
L131467 110130
L131489 110187
L131485 110215
L131450 110272
L131417 110301
L131357 110330
L131242 110330
L131182 110358
L131150 110387
L131114 110444
L131100 110558
L131121 110615
L131146 110644
L131200 110672
L131314 110672
L131375 110644
L131407 110615
L131442 110558
L131457 110444
L131435 110387
L131410 110358
L131357 110330
" />
<path d="M132192 110272
L132128 110787
L132092 110844
L132032 110872
L132003 110872
" />
<path d="M132217 110072
L132185 110101
L132210 110130
L132242 110101
L132217 110072
L132210 110130
" />
<path d="M132685 110672
L132725 110358
L132703 110301
L132650 110272
L132535 110272
L132475 110301
" />
<path d="M132689 110644
L132628 110672
L132485 110672
L132432 110644
L132410 110587
L132417 110530
L132453 110472
L132514 110444
L132657 110444
L132717 110415
" />
<path d="M133021 110272
L132971 110672
" />
<path d="M133014 110330
L133046 110301
L133107 110272
L133192 110272
L133246 110301
L133267 110358
L133228 110672
" />
<path d="M134010 110130
L134042 110101
L134103 110072
L134246 110072
L134300 110101
L134325 110130
L134346 110187
L134339 110244
L134300 110330
L133914 110672
L134285 110672
" />
<path d="M134732 110072
L134789 110072
L134842 110101
L134867 110130
L134889 110187
L134903 110301
L134885 110444
L134842 110558
L134807 110615
L134775 110644
L134714 110672
L134657 110672
L134603 110644
L134578 110615
L134557 110558
L134542 110444
L134560 110301
L134603 110187
L134639 110130
L134671 110101
L134732 110072
" />
<path d="M135428 110672
L135085 110672
" />
<path d="M135257 110672
L135332 110072
L135264 110158
L135200 110215
L135139 110244
" />
<path d="M135992 110272
L135942 110672
" />
<path d="M135878 110044
L135682 110472
L136053 110472
" />
<path d="M119392 111872
L119392 111272
" />
<path d="M119735 111872
L119478 111530
" />
<path d="M119735 111272
L119392 111615
" />
<path d="M119992 111872
L119992 111472
" />
<path d="M119992 111272
L119964 111301
L119992 111330
L120021 111301
L119992 111272
L119992 111330
" />
<path d="M120621 111815
L120592 111844
L120507 111872
L120450 111872
L120364 111844
L120307 111787
L120278 111730
L120250 111615
L120250 111530
L120278 111415
L120307 111358
L120364 111301
L120450 111272
L120507 111272
L120592 111301
L120621 111330
" />
<path d="M121135 111872
L121135 111558
L121107 111501
L121050 111472
L120935 111472
L120878 111501
" />
<path d="M121135 111844
L121078 111872
L120935 111872
L120878 111844
L120850 111787
L120850 111730
L120878 111672
L120935 111644
L121078 111644
L121135 111615
" />
<path d="M121678 111872
L121678 111272
" />
<path d="M121678 111844
L121621 111872
L121507 111872
L121450 111844
L121421 111815
L121392 111758
L121392 111587
L121421 111530
L121450 111501
L121507 111472
L121621 111472
L121678 111501
" />
<path d="M122421 111558
L122621 111558
" />
<path d="M122707 111872
L122421 111872
L122421 111272
L122707 111272
" />
<path d="M122964 111815
L122992 111844
L122964 111872
L122935 111844
L122964 111815
L122964 111872
" />
<path d="M123249 111872
L123249 111272
L123392 111272
L123478 111301
L123535 111358
L123564 111415
L123592 111530
L123592 111615
L123564 111730
L123535 111787
L123478 111844
L123392 111872
L123249 111872
" />
<path d="M123849 111815
L123878 111844
L123849 111872
L123821 111844
L123849 111815
L123849 111872
" />
<path d="M124107 111701
L124392 111701
" />
<path d="M124049 111872
L124249 111272
L124449 111872
" />
<path d="M124649 111815
L124678 111844
L124649 111872
L124621 111844
L124649 111815
L124649 111872
" />
<path d="M152942 110672
L152778 110387
" />
<path d="M152600 110672
L152675 110072
L152903 110072
L152957 110101
L152982 110130
L153003 110187
L152992 110272
L152957 110330
L152925 110358
L152864 110387
L152635 110387
" />
<path d="M153432 110644
L153371 110672
L153257 110672
L153203 110644
L153182 110587
L153210 110358
L153246 110301
L153307 110272
L153421 110272
L153475 110301
L153496 110358
L153489 110415
L153196 110472
" />
<path d="M153707 110272
L153800 110672
L153992 110272
" />
<path d="M154178 110615
L154203 110644
L154171 110672
L154146 110644
L154178 110615
L154171 110672
" />
<path d="M154217 110301
L154242 110330
L154210 110358
L154185 110330
L154217 110301
L154210 110358
" />
<path d="M119364 110644
L119450 110672
L119592 110672
L119650 110644
L119678 110615
L119707 110558
L119707 110501
L119678 110444
L119650 110415
L119592 110387
L119478 110358
L119421 110330
L119392 110301
L119364 110244
L119364 110187
L119392 110130
L119421 110101
L119478 110072
L119621 110072
L119707 110101
" />
<path d="M119964 110672
L119964 110272
" />
<path d="M119964 110072
L119935 110101
L119964 110130
L119992 110101
L119964 110072
L119964 110130
" />
<path d="M120192 110272
L120507 110272
L120192 110672
L120507 110672
" />
<path d="M120964 110644
L120907 110672
L120792 110672
L120735 110644
L120707 110587
L120707 110358
L120735 110301
L120792 110272
L120907 110272
L120964 110301
L120992 110358
L120992 110415
L120707 110472
" />
<path d="M121250 110615
L121278 110644
L121250 110672
L121221 110644
L121250 110615
L121250 110672
" />
<path d="M121250 110301
L121278 110330
L121250 110358
L121221 110330
L121250 110301
L121250 110358
" />
<path d="M121964 110501
L122250 110501
" />
<path d="M121907 110672
L122107 110072
L122307 110672
" />
<path d="M122450 110072
L122821 110072
L122621 110301
L122707 110301
L122764 110330
L122792 110358
L122821 110415
L122821 110558
L122792 110615
L122764 110644
L122707 110672
L122535 110672
L122478 110644
L122450 110615
" />
<path d="M152592 111872
L152592 111272
" />
<path d="M153135 111872
L153135 111272
" />
<path d="M153135 111844
L153078 111872
L152964 111872
L152907 111844
L152878 111815
L152850 111758
L152850 111587
L152878 111530
L152907 111501
L152964 111472
L153078 111472
L153135 111501
" />
<path d="M153421 111815
L153450 111844
L153421 111872
L153392 111844
L153421 111815
L153421 111872
" />
<path d="M153421 111501
L153450 111530
L153421 111558
L153392 111530
L153421 111501
L153421 111558
" />
<path d="M154478 111872
L154135 111872
" />
<path d="M154307 111872
L154307 111272
L154249 111358
L154192 111415
L154135 111444
" />
<path d="M155164 111244
L154650 112015
" />
<path d="M155678 111872
L155335 111872
" />
<path d="M155507 111872
L155507 111272
L155449 111358
L155392 111415
L155335 111444
" />
<path d="M119389 108872
L119732 108872
" />
<path d="M119485 109472
L119560 108872
" />
<path d="M119857 109472
L119907 109072
" />
<path d="M119932 108872
L119900 108901
L119925 108930
L119957 108901
L119932 108872
L119925 108930
" />
<path d="M120107 109072
L120335 109072
" />
<path d="M120217 108872
L120153 109387
L120175 109444
L120228 109472
L120285 109472
" />
<path d="M120571 109472
L120517 109444
L120496 109387
L120560 108872
" />
<path d="M121032 109444
L120971 109472
L120857 109472
L120803 109444
L120782 109387
L120810 109158
L120846 109101
L120907 109072
L121021 109072
L121075 109101
L121096 109158
L121089 109215
L120796 109272
" />
<path d="M121321 109415
L121346 109444
L121314 109472
L121289 109444
L121321 109415
L121314 109472
" />
<path d="M121360 109101
L121385 109130
L121353 109158
L121328 109130
L121360 109101
L121353 109158
" />
<path d="M119592 106758
L119392 106758
" />
<path d="M119392 107072
L119392 106472
L119678 106472
" />
<path d="M119907 107072
L119907 106672
" />
<path d="M119907 106472
L119878 106501
L119907 106530
L119935 106501
L119907 106472
L119907 106530
" />
<path d="M120278 107072
L120221 107044
L120192 106987
L120192 106472
" />
<path d="M120735 107044
L120678 107072
L120564 107072
L120507 107044
L120478 106987
L120478 106758
L120507 106701
L120564 106672
L120678 106672
L120735 106701
L120764 106758
L120764 106815
L120478 106872
" />
<path d="M121021 107015
L121050 107044
L121021 107072
L120992 107044
L121021 107015
L121021 107072
" />
<path d="M121021 106701
L121050 106730
L121021 106758
L120992 106730
L121021 106701
L121021 106758
" />
<path d="M121678 106472
L122021 106472
" />
<path d="M121850 107072
L121850 106472
" />
<path d="M122221 107072
L122221 106472
" />
<path d="M122478 107072
L122478 106758
L122450 106701
L122392 106672
L122307 106672
L122250 106701
L122221 106730
" />
<path d="M122764 107072
L122764 106672
" />
<path d="M122764 106787
L122792 106730
L122821 106701
L122878 106672
L122935 106672
" />
<path d="M123364 107044
L123307 107072
L123192 107072
L123135 107044
L123107 106987
L123107 106758
L123135 106701
L123192 106672
L123307 106672
L123364 106701
L123392 106758
L123392 106815
L123107 106872
" />
<path d="M123878 107044
L123821 107072
L123707 107072
L123650 107044
L123621 106987
L123621 106758
L123650 106701
L123707 106672
L123821 106672
L123878 106701
L123907 106758
L123907 106815
L123621 106872
" />
<path d="M124164 106844
L124621 106844
" />
<path d="M124907 106672
L124907 107272
" />
<path d="M124907 106701
L124964 106672
L125078 106672
L125135 106701
L125164 106730
L125192 106787
L125192 106958
L125164 107015
L125135 107044
L125078 107072
L124964 107072
L124907 107044
" />
<path d="M125450 107072
L125450 106472
" />
<path d="M125707 107072
L125707 106758
L125678 106701
L125621 106672
L125535 106672
L125478 106701
L125450 106730
" />
<path d="M126250 107072
L126250 106758
L126221 106701
L126164 106672
L126050 106672
L125992 106701
" />
<path d="M126250 107044
L126192 107072
L126050 107072
L125992 107044
L125964 106987
L125964 106930
L125992 106872
L126050 106844
L126192 106844
L126250 106815
" />
<path d="M126507 107044
L126564 107072
L126678 107072
L126735 107044
L126764 106987
L126764 106958
L126735 106901
L126678 106872
L126592 106872
L126535 106844
L126507 106787
L126507 106758
L126535 106701
L126592 106672
L126678 106672
L126735 106701
" />
<path d="M127250 107044
L127192 107072
L127078 107072
L127021 107044
L126992 106987
L126992 106758
L127021 106701
L127078 106672
L127192 106672
L127250 106701
L127278 106758
L127278 106815
L126992 106872
" />
<path d="M127992 107072
L127992 106472
" />
<path d="M127992 106701
L128050 106672
L128164 106672
L128221 106701
L128250 106730
L128278 106787
L128278 106958
L128250 107015
L128221 107044
L128164 107072
L128050 107072
L127992 107044
" />
<path d="M128535 107072
L128535 106672
" />
<path d="M128535 106787
L128564 106730
L128592 106701
L128650 106672
L128707 106672
" />
<path d="M128907 107072
L128907 106672
" />
<path d="M128907 106472
L128878 106501
L128907 106530
L128935 106501
L128907 106472
L128907 106530
" />
<path d="M129450 107072
L129450 106472
" />
<path d="M129450 107044
L129392 107072
L129278 107072
L129221 107044
L129192 107015
L129164 106958
L129164 106787
L129192 106730
L129221 106701
L129278 106672
L129392 106672
L129450 106701
" />
<path d="M129992 106672
L129992 107158
L129964 107215
L129935 107244
L129878 107272
L129792 107272
L129735 107244
" />
<path d="M129992 107044
L129935 107072
L129821 107072
L129764 107044
L129735 107015
L129707 106958
L129707 106787
L129735 106730
L129764 106701
L129821 106672
L129935 106672
L129992 106701
" />
<path d="M130507 107044
L130450 107072
L130335 107072
L130278 107044
L130250 106987
L130250 106758
L130278 106701
L130335 106672
L130450 106672
L130507 106701
L130535 106758
L130535 106815
L130250 106872
" />
<path d="M130792 107015
L130821 107044
L130792 107072
L130764 107044
L130792 107015
L130792 107072
" />
<path d="M131078 107072
L131078 106472
" />
<path d="M131135 106844
L131307 107072
" />
<path d="M131307 106672
L131078 106901
" />
<path d="M131564 107072
L131564 106672
" />
<path d="M131564 106472
L131535 106501
L131564 106530
L131592 106501
L131564 106472
L131564 106530
" />
<path d="M132107 107044
L132050 107072
L131935 107072
L131878 107044
L131850 107015
L131821 106958
L131821 106787
L131850 106730
L131878 106701
L131935 106672
L132050 106672
L132107 106701
" />
<path d="M132621 107072
L132621 106758
L132592 106701
L132535 106672
L132421 106672
L132364 106701
" />
<path d="M132621 107044
L132564 107072
L132421 107072
L132364 107044
L132335 106987
L132335 106930
L132364 106872
L132421 106844
L132564 106844
L132621 106815
" />
<path d="M133164 107072
L133164 106472
" />
<path d="M133164 107044
L133107 107072
L132992 107072
L132935 107044
L132907 107015
L132878 106958
L132878 106787
L132907 106730
L132935 106701
L132992 106672
L133107 106672
L133164 106701
" />
<path d="M133307 107130
L133764 107130
" />
<path d="M133907 106672
L133907 107272
" />
<path d="M133907 106701
L133964 106672
L134078 106672
L134135 106701
L134164 106730
L134192 106787
L134192 106958
L134164 107015
L134135 107044
L134078 107072
L133964 107072
L133907 107044
" />
<path d="M134707 107044
L134650 107072
L134535 107072
L134478 107044
L134450 107015
L134421 106958
L134421 106787
L134450 106730
L134478 106701
L134535 106672
L134650 106672
L134707 106701
" />
<path d="M134964 107072
L134964 106472
" />
<path d="M134964 106701
L135021 106672
L135135 106672
L135192 106701
L135221 106730
L135250 106787
L135250 106958
L135221 107015
L135192 107044
L135135 107072
L135021 107072
L134964 107044
" />
<path d="M119364 108244
L119450 108272
L119592 108272
L119650 108244
L119678 108215
L119707 108158
L119707 108101
L119678 108044
L119650 108015
L119592 107987
L119478 107958
L119421 107930
L119392 107901
L119364 107844
L119364 107787
L119392 107730
L119421 107701
L119478 107672
L119621 107672
L119707 107701
" />
<path d="M119964 108272
L119964 107672
" />
<path d="M120221 108272
L120221 107958
L120192 107901
L120135 107872
L120050 107872
L119992 107901
L119964 107930
" />
<path d="M120735 108244
L120678 108272
L120564 108272
L120507 108244
L120478 108187
L120478 107958
L120507 107901
L120564 107872
L120678 107872
L120735 107901
L120764 107958
L120764 108015
L120478 108072
" />
<path d="M121250 108244
L121192 108272
L121078 108272
L121021 108244
L120992 108187
L120992 107958
L121021 107901
L121078 107872
L121192 107872
L121250 107901
L121278 107958
L121278 108015
L120992 108072
" />
<path d="M121450 107872
L121678 107872
" />
<path d="M121535 107672
L121535 108187
L121564 108244
L121621 108272
L121678 108272
" />
<path d="M121878 108215
L121907 108244
L121878 108272
L121850 108244
L121878 108215
L121878 108272
" />
<path d="M121878 107901
L121907 107930
L121878 107958
L121850 107930
L121878 107901
L121878 107958
" />
<path d="M118650 106230
L118650 112230
" />
<path d="M118650 106230
L160650 106230
" />
<path d="M118650 106230
L160650 106230
" />
<path d="M118650 108630
L160650 108630
" />
<path d="M151850 109830
L151850 112230
" />
<path d="M118650 111030
L160650 111030
" />
<path d="M118650 109830
L160650 109830
" />
<path d="M125250 109830
L125250 111030
" />
</g>
<g style="fill:#FFFF00; fill-opacity:0.0; 
stroke:#FFFF00; stroke-width:39.3701; stroke-opacity:1; 
stroke-linecap:round; stroke-linejoin:round;">
<path d="M57900 82600
L57500 82600
" />
<path d="M99000 25400
L99000 82600
" />
<path d="M93100 25400
L99000 25400
" />
<path d="M57900 82600
L99000 82600
" />
<path d="M57500 25400
L57500 82600
" />
<path d="M93100 25400
L57500 25400
" />
<path d="M-49500 -42600
L-49500 -42300
" />
</g>
<g style="fill:#A000A0; fill-opacity:0.0; 
stroke:#A000A0; stroke-width:80; stroke-opacity:1; 
stroke-linecap:round; stroke-linejoin:round;">
<path d="M79572 35926
L79310 35759
" />
<path d="M79572 35640
L79022 35640
L79022 35830
L79048 35878
L79075 35902
L79127 35926
L79205 35926
L79258 35902
L79284 35878
L79310 35830
L79310 35640
" />
<path d="M79625 36021
L79625 36402
" />
<path d="M79546 36497
L79572 36569
L79572 36688
L79546 36735
L79520 36759
L79467 36783
L79415 36783
L79363 36759
L79336 36735
L79310 36688
L79284 36592
L79258 36545
L79232 36521
L79179 36497
L79127 36497
L79075 36521
L79048 36545
L79022 36592
L79022 36711
L79048 36783
" />
<path d="M79572 36997
L79022 36997
" />
<path d="M79572 37211
L79284 37211
L79232 37188
L79205 37140
L79205 37069
L79232 37021
L79258 36997
" />
<path d="M79205 37664
L79572 37664
" />
<path d="M79205 37450
L79494 37450
L79546 37473
L79572 37521
L79572 37592
L79546 37640
L79520 37664
" />
<path d="M79205 37902
L79572 37902
" />
<path d="M79258 37902
L79232 37926
L79205 37973
L79205 38045
L79232 38092
L79284 38116
L79572 38116
" />
<path d="M79205 38283
L79205 38473
" />
<path d="M79022 38354
L79494 38354
L79546 38378
L79572 38426
L79572 38473
" />
<path d="M79625 38521
L79625 38902
" />
<path d="M79572 39283
L79572 38997
" />
<path d="M79572 39140
L79022 39140
L79101 39092
L79153 39045
L79179 38997
" />
<path d="M78122 35030
L78122 35078
L78148 35126
L78175 35150
L78227 35173
L78332 35197
L78463 35197
L78567 35173
L78620 35150
L78646 35126
L78672 35078
L78672 35030
L78646 34983
L78620 34959
L78567 34935
L78463 34911
L78332 34911
L78227 34935
L78175 34959
L78148 34983
L78122 35030
" />
<path d="M78620 35411
L78646 35435
L78672 35411
L78646 35388
L78620 35411
L78672 35411
" />
<path d="M78122 35745
L78122 35792
L78148 35840
L78175 35864
L78227 35888
L78332 35911
L78463 35911
L78567 35888
L78620 35864
L78646 35840
L78672 35792
L78672 35745
L78646 35697
L78620 35673
L78567 35650
L78463 35626
L78332 35626
L78227 35650
L78175 35673
L78148 35697
L78122 35745
" />
<path d="M78122 36364
L78122 36126
L78384 36102
L78358 36126
L78332 36173
L78332 36292
L78358 36340
L78384 36364
L78436 36388
L78567 36388
L78620 36364
L78646 36340
L78672 36292
L78672 36173
L78646 36126
L78620 36102
" />
<path d="M82022 54626
L81760 54459
" />
<path d="M82022 54340
L81472 54340
L81472 54530
L81498 54578
L81525 54602
L81577 54626
L81655 54626
L81708 54602
L81734 54578
L81760 54530
L81760 54340
" />
<path d="M82075 54721
L82075 55102
" />
<path d="M81996 55197
L82022 55269
L82022 55388
L81996 55435
L81970 55459
L81917 55483
L81865 55483
L81813 55459
L81786 55435
L81760 55388
L81734 55292
L81708 55245
L81682 55221
L81629 55197
L81577 55197
L81525 55221
L81498 55245
L81472 55292
L81472 55411
L81498 55483
" />
<path d="M82022 55697
L81472 55697
" />
<path d="M82022 55911
L81734 55911
L81682 55888
L81655 55840
L81655 55769
L81682 55721
L81708 55697
" />
<path d="M81655 56364
L82022 56364
" />
<path d="M81655 56150
L81944 56150
L81996 56173
L82022 56221
L82022 56292
L81996 56340
L81970 56364
" />
<path d="M81655 56602
L82022 56602
" />
<path d="M81708 56602
L81682 56626
L81655 56673
L81655 56745
L81682 56792
L81734 56816
L82022 56816
" />
<path d="M81655 56983
L81655 57173
" />
<path d="M81472 57054
L81944 57054
L81996 57078
L82022 57126
L82022 57173
" />
<path d="M82075 57221
L82075 57602
" />
<path d="M81525 57697
L81498 57721
L81472 57769
L81472 57888
L81498 57935
L81525 57959
L81577 57983
L81629 57983
L81708 57959
L82022 57673
L82022 57983
" />
<path d="M80572 53730
L80572 53778
L80598 53826
L80625 53850
L80677 53873
L80782 53897
L80913 53897
L81017 53873
L81070 53850
L81096 53826
L81122 53778
L81122 53730
L81096 53683
L81070 53659
L81017 53635
L80913 53611
L80782 53611
L80677 53635
L80625 53659
L80598 53683
L80572 53730
" />
<path d="M81070 54111
L81096 54135
L81122 54111
L81096 54088
L81070 54111
L81122 54111
" />
<path d="M80572 54445
L80572 54492
L80598 54540
L80625 54564
L80677 54588
L80782 54611
L80913 54611
L81017 54588
L81070 54564
L81096 54540
L81122 54492
L81122 54445
L81096 54397
L81070 54373
L81017 54350
L80913 54326
L80782 54326
L80677 54350
L80625 54373
L80598 54397
L80572 54445
" />
<path d="M80572 55064
L80572 54826
L80834 54802
L80808 54826
L80782 54873
L80782 54992
L80808 55040
L80834 55064
L80886 55088
L81017 55088
L81070 55064
L81096 55040
L81122 54992
L81122 54873
L81096 54826
L81070 54802
" />
<path d="M84854 34442
L84797 34461
L84702 34461
L84664 34442
L84645 34423
L84626 34385
L84626 34347
L84645 34309
L84664 34290
L84702 34271
L84778 34252
L84816 34233
L84835 34214
L84854 34176
L84854 34138
L84835 34100
L84816 34080
L84778 34061
L84683 34061
L84626 34080
" />
<path d="M84245 34461
L84473 34461
" />
<path d="M84359 34461
L84359 34061
L84397 34119
L84435 34157
L84473 34176
" />
<path d="M89292 38061
L89292 37661
" />
<path d="M88873 38061
L89007 37871
" />
<path d="M89102 38061
L89102 37661
L88950 37661
L88911 37680
L88892 37700
L88873 37738
L88873 37795
L88892 37833
L88911 37852
L88950 37871
L89102 37871
" />
<path d="M88569 37852
L88702 37852
" />
<path d="M88702 38061
L88702 37661
L88511 37661
" />
<path d="M88150 38061
L88378 38061
" />
<path d="M88264 38061
L88264 37661
L88302 37719
L88340 37757
L88378 37776
" />
<path d="M87902 37661
L87864 37661
L87826 37680
L87807 37700
L87788 37738
L87769 37814
L87769 37909
L87788 37985
L87807 38023
L87826 38042
L87864 38061
L87902 38061
L87940 38042
L87959 38023
L87978 37985
L87997 37909
L87997 37814
L87978 37738
L87959 37700
L87940 37680
L87902 37661
" />
<path d="M87388 38061
L87616 38061
" />
<path d="M87502 38061
L87502 37661
L87540 37719
L87578 37757
L87616 37776
" />
<path d="M87140 37661
L87102 37661
L87064 37680
L87045 37700
L87026 37738
L87007 37814
L87007 37909
L87026 37985
L87045 38023
L87064 38042
L87102 38061
L87140 38061
L87178 38042
L87197 38023
L87216 37985
L87235 37909
L87235 37814
L87216 37738
L87197 37700
L87178 37680
L87140 37661
" />
<path d="M86835 38061
L86835 37661
L86607 38061
L86607 37661
" />
<path d="M84754 49592
L84697 49611
L84602 49611
L84564 49592
L84545 49573
L84526 49535
L84526 49497
L84545 49459
L84564 49440
L84602 49421
L84678 49402
L84716 49383
L84735 49364
L84754 49326
L84754 49288
L84735 49250
L84716 49230
L84678 49211
L84583 49211
L84526 49230
" />
<path d="M84392 49211
L84145 49211
L84278 49364
L84221 49364
L84183 49383
L84164 49402
L84145 49440
L84145 49535
L84164 49573
L84183 49592
L84221 49611
L84335 49611
L84373 49592
L84392 49573
" />
<path d="M89192 53211
L89192 52811
" />
<path d="M88773 53211
L88907 53021
" />
<path d="M89002 53211
L89002 52811
L88850 52811
L88811 52830
L88792 52850
L88773 52888
L88773 52945
L88792 52983
L88811 53002
L88850 53021
L89002 53021
" />
<path d="M88469 53002
L88602 53002
" />
<path d="M88602 53211
L88602 52811
L88411 52811
" />
<path d="M88050 53211
L88278 53211
" />
<path d="M88164 53211
L88164 52811
L88202 52869
L88240 52907
L88278 52926
" />
<path d="M87802 52811
L87764 52811
L87726 52830
L87707 52850
L87688 52888
L87669 52964
L87669 53059
L87688 53135
L87707 53173
L87726 53192
L87764 53211
L87802 53211
L87840 53192
L87859 53173
L87878 53135
L87897 53059
L87897 52964
L87878 52888
L87859 52850
L87840 52830
L87802 52811
" />
<path d="M87288 53211
L87516 53211
" />
<path d="M87402 53211
L87402 52811
L87440 52869
L87478 52907
L87516 52926
" />
<path d="M87040 52811
L87002 52811
L86964 52830
L86945 52850
L86926 52888
L86907 52964
L86907 53059
L86926 53135
L86945 53173
L86964 53192
L87002 53211
L87040 53211
L87078 53192
L87097 53173
L87116 53135
L87135 53059
L87135 52964
L87116 52888
L87097 52850
L87078 52830
L87040 52811
" />
<path d="M86735 53211
L86735 52811
L86507 53211
L86507 52811
" />
<path d="M84754 64992
L84697 65011
L84602 65011
L84564 64992
L84545 64973
L84526 64935
L84526 64897
L84545 64859
L84564 64840
L84602 64821
L84678 64802
L84716 64783
L84735 64764
L84754 64726
L84754 64688
L84735 64650
L84716 64630
L84678 64611
L84583 64611
L84526 64630
" />
<path d="M84164 64611
L84354 64611
L84373 64802
L84354 64783
L84316 64764
L84221 64764
L84183 64783
L84164 64802
L84145 64840
L84145 64935
L84164 64973
L84183 64992
L84221 65011
L84316 65011
L84354 64992
L84373 64973
" />
<path d="M89192 68611
L89192 68211
" />
<path d="M88773 68611
L88907 68421
" />
<path d="M89002 68611
L89002 68211
L88850 68211
L88811 68230
L88792 68250
L88773 68288
L88773 68345
L88792 68383
L88811 68402
L88850 68421
L89002 68421
" />
<path d="M88469 68402
L88602 68402
" />
<path d="M88602 68611
L88602 68211
L88411 68211
" />
<path d="M88050 68611
L88278 68611
" />
<path d="M88164 68611
L88164 68211
L88202 68269
L88240 68307
L88278 68326
" />
<path d="M87802 68211
L87764 68211
L87726 68230
L87707 68250
L87688 68288
L87669 68364
L87669 68459
L87688 68535
L87707 68573
L87726 68592
L87764 68611
L87802 68611
L87840 68592
L87859 68573
L87878 68535
L87897 68459
L87897 68364
L87878 68288
L87859 68250
L87840 68230
L87802 68211
" />
<path d="M87288 68611
L87516 68611
" />
<path d="M87402 68611
L87402 68211
L87440 68269
L87478 68307
L87516 68326
" />
<path d="M87040 68211
L87002 68211
L86964 68230
L86945 68250
L86926 68288
L86907 68364
L86907 68459
L86926 68535
L86945 68573
L86964 68592
L87002 68611
L87040 68611
L87078 68592
L87097 68573
L87116 68535
L87135 68459
L87135 68364
L87116 68288
L87097 68250
L87078 68230
L87040 68211
" />
<path d="M86735 68611
L86735 68211
L86507 68611
L86507 68211
" />
</g>
<g style="fill:#A000A0; fill-opacity:0.0; 
stroke:#A000A0; stroke-width:50; stroke-opacity:1; 
stroke-linecap:round; stroke-linejoin:round;">
<path d="M74953 40123
L74953 40314
" />
<path d="M75082 40085
L74632 40219
L75082 40352
" />
<path d="M75039 40714
L75060 40695
L75082 40638
L75082 40600
L75060 40542
L75017 40504
L74975 40485
L74889 40466
L74825 40466
L74739 40485
L74696 40504
L74653 40542
L74632 40600
L74632 40638
L74653 40695
L74675 40714
" />
<path d="M75060 40866
L75082 40923
L75082 41019
L75060 41057
L75039 41076
L74996 41095
L74953 41095
L74910 41076
L74889 41057
L74867 41019
L74846 40942
L74825 40904
L74803 40885
L74760 40866
L74717 40866
L74675 40885
L74653 40904
L74632 40942
L74632 41038
L74653 41095
" />
<path d="M75082 41476
L75082 41247
" />
<path d="M75082 41361
L74632 41361
L74696 41323
L74739 41285
L74760 41247
" />
<path d="M75947 39742
L75947 39933
" />
<path d="M76061 39704
L75661 39838
L76061 39971
" />
<path d="M76023 40333
L76042 40314
L76061 40257
L76061 40219
L76042 40161
L76004 40123
L75966 40104
L75890 40085
L75833 40085
L75757 40104
L75719 40123
L75680 40161
L75661 40219
L75661 40257
L75680 40314
L75700 40333
" />
<path d="M76042 40485
L76061 40542
L76061 40638
L76042 40676
L76023 40695
L75985 40714
L75947 40714
L75909 40695
L75890 40676
L75871 40638
L75852 40561
L75833 40523
L75814 40504
L75776 40485
L75738 40485
L75700 40504
L75680 40523
L75661 40561
L75661 40657
L75680 40714
" />
<path d="M75661 40847
L75661 41114
L76061 40942
" />
<path d="M76061 41476
L76061 41247
" />
<path d="M76061 41361
L75661 41361
L75719 41323
L75757 41285
L75776 41247
" />
<path d="M75700 41628
L75680 41647
L75661 41685
L75661 41780
L75680 41819
L75700 41838
L75738 41857
L75776 41857
L75833 41838
L76061 41609
L76061 41857
" />
<path d="M76903 63423
L76903 63614
" />
<path d="M77032 63385
L76582 63519
L77032 63652
" />
<path d="M76989 64014
L77010 63995
L77032 63938
L77032 63900
L77010 63842
L76967 63804
L76925 63785
L76839 63766
L76775 63766
L76689 63785
L76646 63804
L76603 63842
L76582 63900
L76582 63938
L76603 63995
L76625 64014
" />
<path d="M77010 64166
L77032 64223
L77032 64319
L77010 64357
L76989 64376
L76946 64395
L76903 64395
L76860 64376
L76839 64357
L76817 64319
L76796 64242
L76775 64204
L76753 64185
L76710 64166
L76667 64166
L76625 64185
L76603 64204
L76582 64242
L76582 64338
L76603 64395
" />
<path d="M76625 64547
L76603 64566
L76582 64604
L76582 64700
L76603 64738
L76625 64757
L76667 64776
L76710 64776
L76775 64757
L77032 64528
L77032 64776
" />
<path d="M77897 63042
L77897 63233
" />
<path d="M78011 63004
L77611 63138
L78011 63271
" />
<path d="M77973 63633
L77992 63614
L78011 63557
L78011 63519
L77992 63461
L77954 63423
L77916 63404
L77840 63385
L77783 63385
L77707 63404
L77669 63423
L77630 63461
L77611 63519
L77611 63557
L77630 63614
L77650 63633
" />
<path d="M77992 63785
L78011 63842
L78011 63938
L77992 63976
L77973 63995
L77935 64014
L77897 64014
L77859 63995
L77840 63976
L77821 63938
L77802 63861
L77783 63823
L77764 63804
L77726 63785
L77688 63785
L77650 63804
L77630 63823
L77611 63861
L77611 63957
L77630 64014
" />
<path d="M77611 64147
L77611 64414
L78011 64242
" />
<path d="M78011 64776
L78011 64547
" />
<path d="M78011 64661
L77611 64661
L77669 64623
L77707 64585
L77726 64547
" />
<path d="M77650 64928
L77630 64947
L77611 64985
L77611 65080
L77630 65119
L77650 65138
L77688 65157
L77726 65157
L77783 65138
L78011 64909
L78011 65157
" />
</g>
<g style="fill:#A000A0; fill-opacity:0.0; 
stroke:#A000A0; stroke-width:47; stroke-opacity:1; 
stroke-linecap:round; stroke-linejoin:round;">
<path d="M73870 41563
L73880 41553
L73889 41525
L73889 41507
L73880 41478
L73861 41460
L73842 41450
L73805 41441
L73777 41441
L73739 41450
L73720 41460
L73702 41478
L73692 41507
L73692 41525
L73702 41553
L73711 41563
" />
<path d="M73889 41750
L73889 41638
" />
<path d="M73889 41694
L73692 41694
L73720 41675
L73739 41657
L73749 41638
" />
<path d="M73889 41844
L73889 41882
L73880 41901
L73870 41910
L73842 41929
L73805 41938
L73730 41938
L73711 41929
L73702 41919
L73692 41901
L73692 41863
L73702 41844
L73711 41835
L73730 41826
L73777 41826
L73795 41835
L73805 41844
L73814 41863
L73814 41901
L73805 41919
L73795 41929
L73777 41938
" />
<path d="M72886 40620
L72896 40630
L72924 40639
L72942 40639
L72971 40630
L72989 40611
L72999 40592
L73008 40555
L73008 40527
L72999 40489
L72989 40470
L72971 40452
L72942 40442
L72924 40442
L72896 40452
L72886 40461
" />
<path d="M72699 40639
L72811 40639
" />
<path d="M72755 40639
L72755 40442
L72774 40470
L72792 40489
L72811 40499
" />
<path d="M72586 40527
L72605 40517
L72614 40508
L72623 40489
L72623 40480
L72614 40461
L72605 40452
L72586 40442
L72548 40442
L72530 40452
L72520 40461
L72511 40480
L72511 40489
L72520 40508
L72530 40517
L72548 40527
L72586 40527
L72605 40536
L72614 40545
L72623 40564
L72623 40602
L72614 40620
L72605 40630
L72586 40639
L72548 40639
L72530 40630
L72520 40620
L72511 40602
L72511 40564
L72520 40545
L72530 40536
L72548 40527
" />
<path d="M75770 64863
L75780 64853
L75789 64825
L75789 64807
L75780 64778
L75761 64760
L75742 64750
L75705 64741
L75677 64741
L75639 64750
L75620 64760
L75602 64778
L75592 64807
L75592 64825
L75602 64853
L75611 64863
" />
<path d="M75611 64938
L75602 64947
L75592 64966
L75592 65013
L75602 65032
L75611 65041
L75630 65050
L75649 65050
L75677 65041
L75789 64929
L75789 65050
" />
<path d="M75789 65238
L75789 65126
" />
<path d="M75789 65182
L75592 65182
L75620 65163
L75639 65144
L75649 65126
" />
<path d="M72346 39650
L72356 39660
L72384 39669
L72402 39669
L72431 39660
L72449 39641
L72459 39622
L72468 39585
L72468 39557
L72459 39519
L72449 39500
L72431 39482
L72402 39472
L72384 39472
L72356 39482
L72346 39491
" />
<path d="M72271 39491
L72262 39482
L72243 39472
L72196 39472
L72177 39482
L72168 39491
L72159 39510
L72159 39529
L72168 39557
L72280 39669
L72159 39669
" />
<path d="M72037 39472
L72018 39472
L71999 39482
L71990 39491
L71980 39510
L71971 39547
L71971 39594
L71980 39632
L71990 39650
L71999 39660
L72018 39669
L72037 39669
L72055 39660
L72065 39650
L72074 39632
L72083 39594
L72083 39547
L72074 39510
L72065 39491
L72055 39482
L72037 39472
" />
</g>
<g style="fill:#A000A0; fill-opacity:0.0; 
stroke:#A000A0; stroke-width:120; stroke-opacity:1; 
stroke-linecap:round; stroke-linejoin:round;">
<path d="M78950 28650
L78950 28650
" />
<path d="M78950 28650
L78950 28650
" />
<path d="M78950 43900
L78950 44650
" />
<path d="M78950 44650
L78950 44650
" />
<path d="M80550 43850
L80550 29400
" />
<path d="M77250 29400
L77250 43850
" />
<path d="M77250 43850
L80550 43850
" />
<path d="M77250 29400
L80550 29400
" />
<path d="M78950 28650
L78950 29400
" />
<path d="M81400 47350
L81400 47350
" />
<path d="M81400 47350
L81400 47350
" />
<path d="M81400 62600
L81400 63350
" />
<path d="M81400 63350
L81400 63350
" />
<path d="M83000 62550
L83000 48100
" />
<path d="M79700 48100
L79700 62550
" />
<path d="M79700 62550
L83000 62550
" />
<path d="M79700 48100
L83000 48100
" />
<path d="M81400 47350
L81400 48100
" />
</g>
<g style="fill:#A000A0; fill-opacity:0.0; 
stroke:#A000A0; stroke-width:59.0551; stroke-opacity:1; 
stroke-linecap:round; stroke-linejoin:round;">
<path d="M77150 44500
L77150 29300
" />
<path d="M77150 29300
L92350 29300
" />
<path d="M92350 29300
L92350 44500
" />
<path d="M77150 44500
L92350 44500
" />
<path d="M84350 40700
L84250 40700
" />
</g>
<g style="fill:#A000A0; fill-opacity:0.0; 
stroke:#A000A0; stroke-width:120; stroke-opacity:1; 
stroke-linecap:round; stroke-linejoin:round;">
<path d="M84750 37900
L86750 37900
" />
<path d="M84750 36900
L86750 36900
" />
<path d="M84750 35900
L86750 35900
" />
<path d="M86750 34900
L92750 34900
" />
<path d="M92750 34900
L92750 38900
" />
<path d="M92750 38900
L86750 38900
" />
<path d="M86750 38900
L86750 34900
" />
<path d="M89750 35400
L89750 38900
" />
<path d="M89750 35400
L89750 34900
" />
</g>
<g style="fill:#A000A0; fill-opacity:0.0; 
stroke:#A000A0; stroke-width:59.0551; stroke-opacity:1; 
stroke-linecap:round; stroke-linejoin:round;">
<path d="M77050 59650
L77050 44450
" />
<path d="M77050 44450
L92250 44450
" />
<path d="M92250 44450
L92250 59650
" />
<path d="M77050 59650
L92250 59650
" />
<path d="M84250 55850
L84150 55850
" />
</g>
<g style="fill:#A000A0; fill-opacity:0.0; 
stroke:#A000A0; stroke-width:120; stroke-opacity:1; 
stroke-linecap:round; stroke-linejoin:round;">
<path d="M84650 53050
L86650 53050
" />
<path d="M84650 52050
L86650 52050
" />
<path d="M84650 51050
L86650 51050
" />
<path d="M86650 50050
L92650 50050
" />
<path d="M92650 50050
L92650 54050
" />
<path d="M92650 54050
L86650 54050
" />
<path d="M86650 54050
L86650 50050
" />
<path d="M89650 50550
L89650 54050
" />
<path d="M89650 50550
L89650 50050
" />
</g>
<g style="fill:#A000A0; fill-opacity:0.0; 
stroke:#A000A0; stroke-width:59.0551; stroke-opacity:1; 
stroke-linecap:round; stroke-linejoin:round;">
<path d="M77050 75050
L77050 59850
" />
<path d="M77050 59850
L92250 59850
" />
<path d="M92250 59850
L92250 75050
" />
<path d="M77050 75050
L92250 75050
" />
<path d="M84250 71250
L84150 71250
" />
</g>
<g style="fill:#A000A0; fill-opacity:0.0; 
stroke:#A000A0; stroke-width:120; stroke-opacity:1; 
stroke-linecap:round; stroke-linejoin:round;">
<path d="M84650 68450
L86650 68450
" />
<path d="M84650 67450
L86650 67450
" />
<path d="M84650 66450
L86650 66450
" />
<path d="M86650 65450
L92650 65450
" />
<path d="M92650 65450
L92650 69450
" />
<path d="M92650 69450
L86650 69450
" />
<path d="M86650 69450
L86650 65450
" />
<path d="M89650 65950
L89650 69450
" />
<path d="M89650 65950
L89650 65450
" />
</g>
<g style="fill:#A000A0; fill-opacity:0.0; 
stroke:#A000A0; stroke-width:50; stroke-opacity:1; 
stroke-linecap:round; stroke-linejoin:round;">
<path d="M74500 39800
L74500 41800
" />
<path d="M74500 41800
L76300 41800
" />
<path d="M76300 41800
L76300 39800
" />
<path d="M76300 39800
L74500 39800
" />
<path d="M75100 39800
L75100 40000
" />
<path d="M75100 40000
L75600 40000
" />
<path d="M75600 40000
L75600 39800
" />
<path d="M76450 63100
L76450 65100
" />
<path d="M76450 65100
L78250 65100
" />
<path d="M78250 65100
L78250 63100
" />
<path d="M78250 63100
L76450 63100
" />
<path d="M77050 63100
L77050 63300
" />
<path d="M77050 63300
L77550 63300
" />
<path d="M77550 63300
L77550 63100
" />
<path d="M72980 41250
L73620 41250
" />
<path d="M73620 42150
L72980 42150
" />
<path d="M73620 42330
L72980 42330
" />
<path d="M72980 42330
L72980 41070
" />
<path d="M72980 41070
L73620 41070
" />
<path d="M73620 41070
L73620 42330
" />
<path d="M73200 39730
L73200 40370
" />
<path d="M72300 40370
L72300 39730
" />
<path d="M72120 40370
L72120 39730
" />
<path d="M72120 39730
L73380 39730
" />
<path d="M73380 39730
L73380 40370
" />
<path d="M73380 40370
L72120 40370
" />
<path d="M74880 64550
L75520 64550
" />
<path d="M75520 65450
L74880 65450
" />
<path d="M75520 65630
L74880 65630
" />
<path d="M74880 65630
L74880 64370
" />
<path d="M74880 64370
L75520 64370
" />
<path d="M75520 64370
L75520 65630
" />
<path d="M72660 38760
L72660 39400
" />
<path d="M71760 39400
L71760 38760
" />
<path d="M71580 39400
L71580 38760
" />
<path d="M71580 38760
L72840 38760
" />
<path d="M72840 38760
L72840 39400
" />
<path d="M72840 39400
L71580 39400
" />
</g>
<g style="fill:#808000; fill-opacity:0.0; 
stroke:#808000; stroke-width:39.3701; stroke-opacity:1; 
stroke-linecap:round; stroke-linejoin:round;">
</g>
<g style="fill:#808000; fill-opacity:1.0; 
stroke:#808000; stroke-width:39.3701; stroke-opacity:1; 
stroke-linecap:round; stroke-linejoin:round;">
<circle cx="78950" cy="28650" r="355.315" /> 
<circle cx="78950" cy="44650" r="355.315" /> 
<circle cx="81400" cy="47350" r="355.315" /> 
<circle cx="81400" cy="63350" r="355.315" /> 
<polyline style="fill-rule:evenodd;"
points="84394,36255
84394,35544
85105,35544
85105,36255
84394,36255
" /> 
<circle cx="84750" cy="37900" r="355.315" /> 
<circle cx="84750" cy="36900" r="355.315" /> 
<polyline style="fill-rule:evenodd;"
points="89519,38630
89519,35169
92980,35169
92980,38630
89519,38630
" /> 
<polyline style="fill-rule:evenodd;"
points="89419,43380
89419,39919
92880,39919
92880,43380
89419,43380
" /> 
<polyline style="fill-rule:evenodd;"
points="84294,51405
84294,50694
85005,50694
85005,51405
84294,51405
" /> 
<circle cx="84650" cy="53050" r="355.315" /> 
<circle cx="84650" cy="52050" r="355.315" /> 
<polyline style="fill-rule:evenodd;"
points="89419,53780
89419,50319
92880,50319
92880,53780
89419,53780
" /> 
<polyline style="fill-rule:evenodd;"
points="89419,73780
89419,70319
92880,70319
92880,73780
89419,73780
" /> 
<polyline style="fill-rule:evenodd;"
points="84294,66805
84294,66094
85005,66094
85005,66805
84294,66805
" /> 
<circle cx="84650" cy="68450" r="355.315" /> 
<circle cx="84650" cy="67450" r="355.315" /> 
<polyline style="fill-rule:evenodd;"
points="89419,69180
89419,65719
92880,65719
92880,69180
89419,69180
" /> 
<polyline style="fill-rule:evenodd;"
points="89419,58580
89419,55119
92880,55119
92880,58580
89419,58580
" /> 
</g> 
</svg>
