<?xml version="1.0" standalone="no"?>
 <!DOCTYPE svg PUBLIC "-//W3C//DTD SVG 1.1//EN" 
 "http://www.w3.org/Graphics/SVG/1.1/DTD/svg11.dtd"> 
<svg xmlns="http://www.w3.org/2000/svg" version="1.1" 
    width="41.9989cm" height="29.7002cm" viewBox="0 0 165350 116930 ">
<title>SVG Picture created as Three-phase bridge-B_SilkS.svg date 2014/01/30 17:41:55 </title>
  <desc>Picture generated by PCBNEW </desc>
<g style="fill:#000000; fill-opacity:1;stroke:#000000; stroke-opacity:1;
stroke-linecap:round; stroke-linejoin:round; "
 transform="translate(0 0) scale(1 1)">
</g>
<g style="fill:#000000; fill-opacity:1.0; 
stroke:#000000; stroke-width:10; stroke-opacity:1; 
stroke-linecap:round; stroke-linejoin:round;">
<rect x="-51488.2" y="-44588.2" width="152476" height="133051" rx="0" />
</g>
<g style="fill:#FFFFFF; fill-opacity:1.0; 
stroke:#FFFFFF; stroke-width:120; stroke-opacity:1; 
stroke-linecap:round; stroke-linejoin:round;">
<path d="M78950 28650
L78950 28650
" />
<path d="M78950 28650
L78950 28650
" />
<path d="M78950 43900
L78950 44650
" />
<path d="M78950 44650
L78950 44650
" />
<path d="M80550 43850
L80550 29400
" />
<path d="M77250 29400
L77250 43850
" />
<path d="M77250 43850
L80550 43850
" />
<path d="M77250 29400
L80550 29400
" />
<path d="M78950 28650
L78950 29400
" />
<path d="M81400 47350
L81400 47350
" />
<path d="M81400 47350
L81400 47350
" />
<path d="M81400 62600
L81400 63350
" />
<path d="M81400 63350
L81400 63350
" />
<path d="M83000 62550
L83000 48100
" />
<path d="M79700 48100
L79700 62550
" />
<path d="M79700 62550
L83000 62550
" />
<path d="M79700 48100
L83000 48100
" />
<path d="M81400 47350
L81400 48100
" />
</g>
<g style="fill:#FFFFFF; fill-opacity:1.0; 
stroke:#FFFFFF; stroke-width:59.0551; stroke-opacity:1; 
stroke-linecap:round; stroke-linejoin:round;">
<path d="M77150 44500
L77150 29300
" />
<path d="M77150 29300
L92350 29300
" />
<path d="M92350 29300
L92350 44500
" />
<path d="M77150 44500
L92350 44500
" />
<path d="M84350 40700
L84250 40700
" />
</g>
<g style="fill:#FFFFFF; fill-opacity:1.0; 
stroke:#FFFFFF; stroke-width:120; stroke-opacity:1; 
stroke-linecap:round; stroke-linejoin:round;">
<path d="M84750 37900
L86750 37900
" />
<path d="M84750 36900
L86750 36900
" />
<path d="M84750 35900
L86750 35900
" />
<path d="M86750 34900
L92750 34900
" />
<path d="M92750 34900
L92750 38900
" />
<path d="M92750 38900
L86750 38900
" />
<path d="M86750 38900
L86750 34900
" />
<path d="M89750 35400
L89750 38900
" />
<path d="M89750 35400
L89750 34900
" />
</g>
<g style="fill:#FFFFFF; fill-opacity:1.0; 
stroke:#FFFFFF; stroke-width:59.0551; stroke-opacity:1; 
stroke-linecap:round; stroke-linejoin:round;">
<path d="M77050 59650
L77050 44450
" />
<path d="M77050 44450
L92250 44450
" />
<path d="M92250 44450
L92250 59650
" />
<path d="M77050 59650
L92250 59650
" />
<path d="M84250 55850
L84150 55850
" />
</g>
<g style="fill:#FFFFFF; fill-opacity:1.0; 
stroke:#FFFFFF; stroke-width:120; stroke-opacity:1; 
stroke-linecap:round; stroke-linejoin:round;">
<path d="M84650 53050
L86650 53050
" />
<path d="M84650 52050
L86650 52050
" />
<path d="M84650 51050
L86650 51050
" />
<path d="M86650 50050
L92650 50050
" />
<path d="M92650 50050
L92650 54050
" />
<path d="M92650 54050
L86650 54050
" />
<path d="M86650 54050
L86650 50050
" />
<path d="M89650 50550
L89650 54050
" />
<path d="M89650 50550
L89650 50050
" />
</g>
<g style="fill:#FFFFFF; fill-opacity:1.0; 
stroke:#FFFFFF; stroke-width:59.0551; stroke-opacity:1; 
stroke-linecap:round; stroke-linejoin:round;">
<path d="M77050 75050
L77050 59850
" />
<path d="M77050 59850
L92250 59850
" />
<path d="M92250 59850
L92250 75050
" />
<path d="M77050 75050
L92250 75050
" />
<path d="M84250 71250
L84150 71250
" />
</g>
<g style="fill:#FFFFFF; fill-opacity:1.0; 
stroke:#FFFFFF; stroke-width:120; stroke-opacity:1; 
stroke-linecap:round; stroke-linejoin:round;">
<path d="M84650 68450
L86650 68450
" />
<path d="M84650 67450
L86650 67450
" />
<path d="M84650 66450
L86650 66450
" />
<path d="M86650 65450
L92650 65450
" />
<path d="M92650 65450
L92650 69450
" />
<path d="M92650 69450
L86650 69450
" />
<path d="M86650 69450
L86650 65450
" />
<path d="M89650 65950
L89650 69450
" />
<path d="M89650 65950
L89650 65450
" />
</g>
<g style="fill:#FFFFFF; fill-opacity:1.0; 
stroke:#FFFFFF; stroke-width:50; stroke-opacity:1; 
stroke-linecap:round; stroke-linejoin:round;">
<path d="M74500 39800
L74500 41800
" />
<path d="M74500 41800
L76300 41800
" />
<path d="M76300 41800
L76300 39800
" />
<path d="M76300 39800
L74500 39800
" />
<path d="M75100 39800
L75100 40000
" />
<path d="M75100 40000
L75600 40000
" />
<path d="M75600 40000
L75600 39800
" />
<path d="M76450 63100
L76450 65100
" />
<path d="M76450 65100
L78250 65100
" />
<path d="M78250 65100
L78250 63100
" />
<path d="M78250 63100
L76450 63100
" />
<path d="M77050 63100
L77050 63300
" />
<path d="M77050 63300
L77550 63300
" />
<path d="M77550 63300
L77550 63100
" />
<path d="M72980 41250
L73620 41250
" />
<path d="M73620 42150
L72980 42150
" />
<path d="M73620 42330
L72980 42330
" />
<path d="M72980 42330
L72980 41070
" />
<path d="M72980 41070
L73620 41070
" />
<path d="M73620 41070
L73620 42330
" />
<path d="M73200 39730
L73200 40370
" />
<path d="M72300 40370
L72300 39730
" />
<path d="M72120 40370
L72120 39730
" />
<path d="M72120 39730
L73380 39730
" />
<path d="M73380 39730
L73380 40370
" />
<path d="M73380 40370
L72120 40370
" />
<path d="M74880 64550
L75520 64550
" />
<path d="M75520 65450
L74880 65450
" />
<path d="M75520 65630
L74880 65630
" />
<path d="M74880 65630
L74880 64370
" />
<path d="M74880 64370
L75520 64370
" />
<path d="M75520 64370
L75520 65630
" />
<path d="M72660 38760
L72660 39400
" />
<path d="M71760 39400
L71760 38760
" />
<path d="M71580 39400
L71580 38760
" />
<path d="M71580 38760
L72840 38760
" />
<path d="M72840 38760
L72840 39400
" />
<path d="M72840 39400
L71580 39400
" />
</g>
<g style="fill:#FFFFFF; fill-opacity:0.0; 
stroke:#FFFFFF; stroke-width:80; stroke-opacity:1; 
stroke-linecap:round; stroke-linejoin:round;">
<path d="M79572 35926
L79310 35759
" />
<path d="M79572 35640
L79022 35640
L79022 35830
L79048 35878
L79075 35902
L79127 35926
L79205 35926
L79258 35902
L79284 35878
L79310 35830
L79310 35640
" />
<path d="M79625 36021
L79625 36402
" />
<path d="M79546 36497
L79572 36569
L79572 36688
L79546 36735
L79520 36759
L79467 36783
L79415 36783
L79363 36759
L79336 36735
L79310 36688
L79284 36592
L79258 36545
L79232 36521
L79179 36497
L79127 36497
L79075 36521
L79048 36545
L79022 36592
L79022 36711
L79048 36783
" />
<path d="M79572 36997
L79022 36997
" />
<path d="M79572 37211
L79284 37211
L79232 37188
L79205 37140
L79205 37069
L79232 37021
L79258 36997
" />
<path d="M79205 37664
L79572 37664
" />
<path d="M79205 37450
L79494 37450
L79546 37473
L79572 37521
L79572 37592
L79546 37640
L79520 37664
" />
<path d="M79205 37902
L79572 37902
" />
<path d="M79258 37902
L79232 37926
L79205 37973
L79205 38045
L79232 38092
L79284 38116
L79572 38116
" />
<path d="M79205 38283
L79205 38473
" />
<path d="M79022 38354
L79494 38354
L79546 38378
L79572 38426
L79572 38473
" />
<path d="M79625 38521
L79625 38902
" />
<path d="M79572 39283
L79572 38997
" />
<path d="M79572 39140
L79022 39140
L79101 39092
L79153 39045
L79179 38997
" />
<path d="M78122 35030
L78122 35078
L78148 35126
L78175 35150
L78227 35173
L78332 35197
L78463 35197
L78567 35173
L78620 35150
L78646 35126
L78672 35078
L78672 35030
L78646 34983
L78620 34959
L78567 34935
L78463 34911
L78332 34911
L78227 34935
L78175 34959
L78148 34983
L78122 35030
" />
<path d="M78620 35411
L78646 35435
L78672 35411
L78646 35388
L78620 35411
L78672 35411
" />
<path d="M78122 35745
L78122 35792
L78148 35840
L78175 35864
L78227 35888
L78332 35911
L78463 35911
L78567 35888
L78620 35864
L78646 35840
L78672 35792
L78672 35745
L78646 35697
L78620 35673
L78567 35650
L78463 35626
L78332 35626
L78227 35650
L78175 35673
L78148 35697
L78122 35745
" />
<path d="M78122 36364
L78122 36126
L78384 36102
L78358 36126
L78332 36173
L78332 36292
L78358 36340
L78384 36364
L78436 36388
L78567 36388
L78620 36364
L78646 36340
L78672 36292
L78672 36173
L78646 36126
L78620 36102
" />
<path d="M82022 54626
L81760 54459
" />
<path d="M82022 54340
L81472 54340
L81472 54530
L81498 54578
L81525 54602
L81577 54626
L81655 54626
L81708 54602
L81734 54578
L81760 54530
L81760 54340
" />
<path d="M82075 54721
L82075 55102
" />
<path d="M81996 55197
L82022 55269
L82022 55388
L81996 55435
L81970 55459
L81917 55483
L81865 55483
L81813 55459
L81786 55435
L81760 55388
L81734 55292
L81708 55245
L81682 55221
L81629 55197
L81577 55197
L81525 55221
L81498 55245
L81472 55292
L81472 55411
L81498 55483
" />
<path d="M82022 55697
L81472 55697
" />
<path d="M82022 55911
L81734 55911
L81682 55888
L81655 55840
L81655 55769
L81682 55721
L81708 55697
" />
<path d="M81655 56364
L82022 56364
" />
<path d="M81655 56150
L81944 56150
L81996 56173
L82022 56221
L82022 56292
L81996 56340
L81970 56364
" />
<path d="M81655 56602
L82022 56602
" />
<path d="M81708 56602
L81682 56626
L81655 56673
L81655 56745
L81682 56792
L81734 56816
L82022 56816
" />
<path d="M81655 56983
L81655 57173
" />
<path d="M81472 57054
L81944 57054
L81996 57078
L82022 57126
L82022 57173
" />
<path d="M82075 57221
L82075 57602
" />
<path d="M81525 57697
L81498 57721
L81472 57769
L81472 57888
L81498 57935
L81525 57959
L81577 57983
L81629 57983
L81708 57959
L82022 57673
L82022 57983
" />
<path d="M80572 53730
L80572 53778
L80598 53826
L80625 53850
L80677 53873
L80782 53897
L80913 53897
L81017 53873
L81070 53850
L81096 53826
L81122 53778
L81122 53730
L81096 53683
L81070 53659
L81017 53635
L80913 53611
L80782 53611
L80677 53635
L80625 53659
L80598 53683
L80572 53730
" />
<path d="M81070 54111
L81096 54135
L81122 54111
L81096 54088
L81070 54111
L81122 54111
" />
<path d="M80572 54445
L80572 54492
L80598 54540
L80625 54564
L80677 54588
L80782 54611
L80913 54611
L81017 54588
L81070 54564
L81096 54540
L81122 54492
L81122 54445
L81096 54397
L81070 54373
L81017 54350
L80913 54326
L80782 54326
L80677 54350
L80625 54373
L80598 54397
L80572 54445
" />
<path d="M80572 55064
L80572 54826
L80834 54802
L80808 54826
L80782 54873
L80782 54992
L80808 55040
L80834 55064
L80886 55088
L81017 55088
L81070 55064
L81096 55040
L81122 54992
L81122 54873
L81096 54826
L81070 54802
" />
<path d="M84854 34442
L84797 34461
L84702 34461
L84664 34442
L84645 34423
L84626 34385
L84626 34347
L84645 34309
L84664 34290
L84702 34271
L84778 34252
L84816 34233
L84835 34214
L84854 34176
L84854 34138
L84835 34100
L84816 34080
L84778 34061
L84683 34061
L84626 34080
" />
<path d="M84245 34461
L84473 34461
" />
<path d="M84359 34461
L84359 34061
L84397 34119
L84435 34157
L84473 34176
" />
<path d="M89292 38061
L89292 37661
" />
<path d="M88873 38061
L89007 37871
" />
<path d="M89102 38061
L89102 37661
L88950 37661
L88911 37680
L88892 37700
L88873 37738
L88873 37795
L88892 37833
L88911 37852
L88950 37871
L89102 37871
" />
<path d="M88569 37852
L88702 37852
" />
<path d="M88702 38061
L88702 37661
L88511 37661
" />
<path d="M88150 38061
L88378 38061
" />
<path d="M88264 38061
L88264 37661
L88302 37719
L88340 37757
L88378 37776
" />
<path d="M87902 37661
L87864 37661
L87826 37680
L87807 37700
L87788 37738
L87769 37814
L87769 37909
L87788 37985
L87807 38023
L87826 38042
L87864 38061
L87902 38061
L87940 38042
L87959 38023
L87978 37985
L87997 37909
L87997 37814
L87978 37738
L87959 37700
L87940 37680
L87902 37661
" />
<path d="M87388 38061
L87616 38061
" />
<path d="M87502 38061
L87502 37661
L87540 37719
L87578 37757
L87616 37776
" />
<path d="M87140 37661
L87102 37661
L87064 37680
L87045 37700
L87026 37738
L87007 37814
L87007 37909
L87026 37985
L87045 38023
L87064 38042
L87102 38061
L87140 38061
L87178 38042
L87197 38023
L87216 37985
L87235 37909
L87235 37814
L87216 37738
L87197 37700
L87178 37680
L87140 37661
" />
<path d="M86835 38061
L86835 37661
L86607 38061
L86607 37661
" />
<path d="M84754 49592
L84697 49611
L84602 49611
L84564 49592
L84545 49573
L84526 49535
L84526 49497
L84545 49459
L84564 49440
L84602 49421
L84678 49402
L84716 49383
L84735 49364
L84754 49326
L84754 49288
L84735 49250
L84716 49230
L84678 49211
L84583 49211
L84526 49230
" />
<path d="M84392 49211
L84145 49211
L84278 49364
L84221 49364
L84183 49383
L84164 49402
L84145 49440
L84145 49535
L84164 49573
L84183 49592
L84221 49611
L84335 49611
L84373 49592
L84392 49573
" />
<path d="M89192 53211
L89192 52811
" />
<path d="M88773 53211
L88907 53021
" />
<path d="M89002 53211
L89002 52811
L88850 52811
L88811 52830
L88792 52850
L88773 52888
L88773 52945
L88792 52983
L88811 53002
L88850 53021
L89002 53021
" />
<path d="M88469 53002
L88602 53002
" />
<path d="M88602 53211
L88602 52811
L88411 52811
" />
<path d="M88050 53211
L88278 53211
" />
<path d="M88164 53211
L88164 52811
L88202 52869
L88240 52907
L88278 52926
" />
<path d="M87802 52811
L87764 52811
L87726 52830
L87707 52850
L87688 52888
L87669 52964
L87669 53059
L87688 53135
L87707 53173
L87726 53192
L87764 53211
L87802 53211
L87840 53192
L87859 53173
L87878 53135
L87897 53059
L87897 52964
L87878 52888
L87859 52850
L87840 52830
L87802 52811
" />
<path d="M87288 53211
L87516 53211
" />
<path d="M87402 53211
L87402 52811
L87440 52869
L87478 52907
L87516 52926
" />
<path d="M87040 52811
L87002 52811
L86964 52830
L86945 52850
L86926 52888
L86907 52964
L86907 53059
L86926 53135
L86945 53173
L86964 53192
L87002 53211
L87040 53211
L87078 53192
L87097 53173
L87116 53135
L87135 53059
L87135 52964
L87116 52888
L87097 52850
L87078 52830
L87040 52811
" />
<path d="M86735 53211
L86735 52811
L86507 53211
L86507 52811
" />
<path d="M84754 64992
L84697 65011
L84602 65011
L84564 64992
L84545 64973
L84526 64935
L84526 64897
L84545 64859
L84564 64840
L84602 64821
L84678 64802
L84716 64783
L84735 64764
L84754 64726
L84754 64688
L84735 64650
L84716 64630
L84678 64611
L84583 64611
L84526 64630
" />
<path d="M84164 64611
L84354 64611
L84373 64802
L84354 64783
L84316 64764
L84221 64764
L84183 64783
L84164 64802
L84145 64840
L84145 64935
L84164 64973
L84183 64992
L84221 65011
L84316 65011
L84354 64992
L84373 64973
" />
<path d="M89192 68611
L89192 68211
" />
<path d="M88773 68611
L88907 68421
" />
<path d="M89002 68611
L89002 68211
L88850 68211
L88811 68230
L88792 68250
L88773 68288
L88773 68345
L88792 68383
L88811 68402
L88850 68421
L89002 68421
" />
<path d="M88469 68402
L88602 68402
" />
<path d="M88602 68611
L88602 68211
L88411 68211
" />
<path d="M88050 68611
L88278 68611
" />
<path d="M88164 68611
L88164 68211
L88202 68269
L88240 68307
L88278 68326
" />
<path d="M87802 68211
L87764 68211
L87726 68230
L87707 68250
L87688 68288
L87669 68364
L87669 68459
L87688 68535
L87707 68573
L87726 68592
L87764 68611
L87802 68611
L87840 68592
L87859 68573
L87878 68535
L87897 68459
L87897 68364
L87878 68288
L87859 68250
L87840 68230
L87802 68211
" />
<path d="M87288 68611
L87516 68611
" />
<path d="M87402 68611
L87402 68211
L87440 68269
L87478 68307
L87516 68326
" />
<path d="M87040 68211
L87002 68211
L86964 68230
L86945 68250
L86926 68288
L86907 68364
L86907 68459
L86926 68535
L86945 68573
L86964 68592
L87002 68611
L87040 68611
L87078 68592
L87097 68573
L87116 68535
L87135 68459
L87135 68364
L87116 68288
L87097 68250
L87078 68230
L87040 68211
" />
<path d="M86735 68611
L86735 68211
L86507 68611
L86507 68211
" />
</g>
<g style="fill:#FFFFFF; fill-opacity:0.0; 
stroke:#FFFFFF; stroke-width:50; stroke-opacity:1; 
stroke-linecap:round; stroke-linejoin:round;">
<path d="M74953 40123
L74953 40314
" />
<path d="M75082 40085
L74632 40219
L75082 40352
" />
<path d="M75039 40714
L75060 40695
L75082 40638
L75082 40600
L75060 40542
L75017 40504
L74975 40485
L74889 40466
L74825 40466
L74739 40485
L74696 40504
L74653 40542
L74632 40600
L74632 40638
L74653 40695
L74675 40714
" />
<path d="M75060 40866
L75082 40923
L75082 41019
L75060 41057
L75039 41076
L74996 41095
L74953 41095
L74910 41076
L74889 41057
L74867 41019
L74846 40942
L74825 40904
L74803 40885
L74760 40866
L74717 40866
L74675 40885
L74653 40904
L74632 40942
L74632 41038
L74653 41095
" />
<path d="M75082 41476
L75082 41247
" />
<path d="M75082 41361
L74632 41361
L74696 41323
L74739 41285
L74760 41247
" />
<path d="M75947 39742
L75947 39933
" />
<path d="M76061 39704
L75661 39838
L76061 39971
" />
<path d="M76023 40333
L76042 40314
L76061 40257
L76061 40219
L76042 40161
L76004 40123
L75966 40104
L75890 40085
L75833 40085
L75757 40104
L75719 40123
L75680 40161
L75661 40219
L75661 40257
L75680 40314
L75700 40333
" />
<path d="M76042 40485
L76061 40542
L76061 40638
L76042 40676
L76023 40695
L75985 40714
L75947 40714
L75909 40695
L75890 40676
L75871 40638
L75852 40561
L75833 40523
L75814 40504
L75776 40485
L75738 40485
L75700 40504
L75680 40523
L75661 40561
L75661 40657
L75680 40714
" />
<path d="M75661 40847
L75661 41114
L76061 40942
" />
<path d="M76061 41476
L76061 41247
" />
<path d="M76061 41361
L75661 41361
L75719 41323
L75757 41285
L75776 41247
" />
<path d="M75700 41628
L75680 41647
L75661 41685
L75661 41780
L75680 41819
L75700 41838
L75738 41857
L75776 41857
L75833 41838
L76061 41609
L76061 41857
" />
<path d="M76903 63423
L76903 63614
" />
<path d="M77032 63385
L76582 63519
L77032 63652
" />
<path d="M76989 64014
L77010 63995
L77032 63938
L77032 63900
L77010 63842
L76967 63804
L76925 63785
L76839 63766
L76775 63766
L76689 63785
L76646 63804
L76603 63842
L76582 63900
L76582 63938
L76603 63995
L76625 64014
" />
<path d="M77010 64166
L77032 64223
L77032 64319
L77010 64357
L76989 64376
L76946 64395
L76903 64395
L76860 64376
L76839 64357
L76817 64319
L76796 64242
L76775 64204
L76753 64185
L76710 64166
L76667 64166
L76625 64185
L76603 64204
L76582 64242
L76582 64338
L76603 64395
" />
<path d="M76625 64547
L76603 64566
L76582 64604
L76582 64700
L76603 64738
L76625 64757
L76667 64776
L76710 64776
L76775 64757
L77032 64528
L77032 64776
" />
<path d="M77897 63042
L77897 63233
" />
<path d="M78011 63004
L77611 63138
L78011 63271
" />
<path d="M77973 63633
L77992 63614
L78011 63557
L78011 63519
L77992 63461
L77954 63423
L77916 63404
L77840 63385
L77783 63385
L77707 63404
L77669 63423
L77630 63461
L77611 63519
L77611 63557
L77630 63614
L77650 63633
" />
<path d="M77992 63785
L78011 63842
L78011 63938
L77992 63976
L77973 63995
L77935 64014
L77897 64014
L77859 63995
L77840 63976
L77821 63938
L77802 63861
L77783 63823
L77764 63804
L77726 63785
L77688 63785
L77650 63804
L77630 63823
L77611 63861
L77611 63957
L77630 64014
" />
<path d="M77611 64147
L77611 64414
L78011 64242
" />
<path d="M78011 64776
L78011 64547
" />
<path d="M78011 64661
L77611 64661
L77669 64623
L77707 64585
L77726 64547
" />
<path d="M77650 64928
L77630 64947
L77611 64985
L77611 65080
L77630 65119
L77650 65138
L77688 65157
L77726 65157
L77783 65138
L78011 64909
L78011 65157
" />
</g>
<g style="fill:#FFFFFF; fill-opacity:0.0; 
stroke:#FFFFFF; stroke-width:47; stroke-opacity:1; 
stroke-linecap:round; stroke-linejoin:round;">
<path d="M73870 41563
L73880 41553
L73889 41525
L73889 41507
L73880 41478
L73861 41460
L73842 41450
L73805 41441
L73777 41441
L73739 41450
L73720 41460
L73702 41478
L73692 41507
L73692 41525
L73702 41553
L73711 41563
" />
<path d="M73889 41750
L73889 41638
" />
<path d="M73889 41694
L73692 41694
L73720 41675
L73739 41657
L73749 41638
" />
<path d="M73889 41844
L73889 41882
L73880 41901
L73870 41910
L73842 41929
L73805 41938
L73730 41938
L73711 41929
L73702 41919
L73692 41901
L73692 41863
L73702 41844
L73711 41835
L73730 41826
L73777 41826
L73795 41835
L73805 41844
L73814 41863
L73814 41901
L73805 41919
L73795 41929
L73777 41938
" />
<path d="M72886 40620
L72896 40630
L72924 40639
L72942 40639
L72971 40630
L72989 40611
L72999 40592
L73008 40555
L73008 40527
L72999 40489
L72989 40470
L72971 40452
L72942 40442
L72924 40442
L72896 40452
L72886 40461
" />
<path d="M72699 40639
L72811 40639
" />
<path d="M72755 40639
L72755 40442
L72774 40470
L72792 40489
L72811 40499
" />
<path d="M72586 40527
L72605 40517
L72614 40508
L72623 40489
L72623 40480
L72614 40461
L72605 40452
L72586 40442
L72548 40442
L72530 40452
L72520 40461
L72511 40480
L72511 40489
L72520 40508
L72530 40517
L72548 40527
L72586 40527
L72605 40536
L72614 40545
L72623 40564
L72623 40602
L72614 40620
L72605 40630
L72586 40639
L72548 40639
L72530 40630
L72520 40620
L72511 40602
L72511 40564
L72520 40545
L72530 40536
L72548 40527
" />
<path d="M75770 64863
L75780 64853
L75789 64825
L75789 64807
L75780 64778
L75761 64760
L75742 64750
L75705 64741
L75677 64741
L75639 64750
L75620 64760
L75602 64778
L75592 64807
L75592 64825
L75602 64853
L75611 64863
" />
<path d="M75611 64938
L75602 64947
L75592 64966
L75592 65013
L75602 65032
L75611 65041
L75630 65050
L75649 65050
L75677 65041
L75789 64929
L75789 65050
" />
<path d="M75789 65238
L75789 65126
" />
<path d="M75789 65182
L75592 65182
L75620 65163
L75639 65144
L75649 65126
" />
<path d="M72346 39650
L72356 39660
L72384 39669
L72402 39669
L72431 39660
L72449 39641
L72459 39622
L72468 39585
L72468 39557
L72459 39519
L72449 39500
L72431 39482
L72402 39472
L72384 39472
L72356 39482
L72346 39491
" />
<path d="M72271 39491
L72262 39482
L72243 39472
L72196 39472
L72177 39482
L72168 39491
L72159 39510
L72159 39529
L72168 39557
L72280 39669
L72159 39669
" />
<path d="M72037 39472
L72018 39472
L71999 39482
L71990 39491
L71980 39510
L71971 39547
L71971 39594
L71980 39632
L71990 39650
L71999 39660
L72018 39669
L72037 39669
L72055 39660
L72065 39650
L72074 39632
L72083 39594
L72083 39547
L72074 39510
L72065 39491
L72055 39482
L72037 39472
" />
</g> 
</svg>
