G04 (created by PCBNEW (22-Jun-2014 BZR 4027)-stable) date jue 23 oct 2014 04:04:09 CST*
%MOIN*%
G04 Gerber Fmt 3.4, Leading zero omitted, Abs format*
%FSLAX34Y34*%
G01*
G70*
G90*
G04 APERTURE LIST*
%ADD10C,0.00590551*%
%ADD11C,0.011811*%
%ADD12C,0.005*%
%ADD13C,0.008*%
%ADD14C,0.015*%
%ADD15C,0.006*%
%ADD16C,0.00787402*%
%ADD17C,0.012*%
%ADD18C,0.003*%
%ADD19C,0.01*%
%ADD20C,0.0108*%
G04 APERTURE END LIST*
G54D10*
G54D11*
X32871Y-38306D02*
X33152Y-38306D01*
X32815Y-38475D02*
X33011Y-37884D01*
X33208Y-38475D01*
X33743Y-38475D02*
X33546Y-38193D01*
X33405Y-38475D02*
X33405Y-37884D01*
X33630Y-37884D01*
X33686Y-37912D01*
X33715Y-37940D01*
X33743Y-37996D01*
X33743Y-38081D01*
X33715Y-38137D01*
X33686Y-38165D01*
X33630Y-38193D01*
X33405Y-38193D01*
X34333Y-38418D02*
X34305Y-38446D01*
X34221Y-38475D01*
X34164Y-38475D01*
X34080Y-38446D01*
X34024Y-38390D01*
X33996Y-38334D01*
X33968Y-38221D01*
X33968Y-38137D01*
X33996Y-38025D01*
X34024Y-37968D01*
X34080Y-37912D01*
X34164Y-37884D01*
X34221Y-37884D01*
X34305Y-37912D01*
X34333Y-37940D01*
X34699Y-37884D02*
X34811Y-37884D01*
X34867Y-37912D01*
X34924Y-37968D01*
X34952Y-38081D01*
X34952Y-38278D01*
X34924Y-38390D01*
X34867Y-38446D01*
X34811Y-38475D01*
X34699Y-38475D01*
X34643Y-38446D01*
X34586Y-38390D01*
X34558Y-38278D01*
X34558Y-38081D01*
X34586Y-37968D01*
X34643Y-37912D01*
X34699Y-37884D01*
X35177Y-38446D02*
X35261Y-38475D01*
X35402Y-38475D01*
X35458Y-38446D01*
X35486Y-38418D01*
X35514Y-38362D01*
X35514Y-38306D01*
X35486Y-38250D01*
X35458Y-38221D01*
X35402Y-38193D01*
X35289Y-38165D01*
X35233Y-38137D01*
X35205Y-38109D01*
X35177Y-38053D01*
X35177Y-37996D01*
X35205Y-37940D01*
X35233Y-37912D01*
X35289Y-37884D01*
X35430Y-37884D01*
X35514Y-37912D01*
X35767Y-38250D02*
X36217Y-38250D01*
X36780Y-38475D02*
X36499Y-38475D01*
X36499Y-37884D01*
X37230Y-38475D02*
X37230Y-38165D01*
X37202Y-38109D01*
X37145Y-38081D01*
X37033Y-38081D01*
X36977Y-38109D01*
X37230Y-38446D02*
X37173Y-38475D01*
X37033Y-38475D01*
X36977Y-38446D01*
X36948Y-38390D01*
X36948Y-38334D01*
X36977Y-38278D01*
X37033Y-38250D01*
X37173Y-38250D01*
X37230Y-38221D01*
X37511Y-38475D02*
X37511Y-37884D01*
X37511Y-38109D02*
X37567Y-38081D01*
X37680Y-38081D01*
X37736Y-38109D01*
X37764Y-38137D01*
X37792Y-38193D01*
X37792Y-38362D01*
X37764Y-38418D01*
X37736Y-38446D01*
X37680Y-38475D01*
X37567Y-38475D01*
X37511Y-38446D01*
X26529Y-38829D02*
X26642Y-38829D01*
X26698Y-38857D01*
X26754Y-38913D01*
X26783Y-39026D01*
X26783Y-39223D01*
X26754Y-39335D01*
X26698Y-39391D01*
X26642Y-39419D01*
X26529Y-39419D01*
X26473Y-39391D01*
X26417Y-39335D01*
X26389Y-39223D01*
X26389Y-39026D01*
X26417Y-38913D01*
X26473Y-38857D01*
X26529Y-38829D01*
X27036Y-39026D02*
X27036Y-39616D01*
X27036Y-39054D02*
X27092Y-39026D01*
X27204Y-39026D01*
X27261Y-39054D01*
X27289Y-39082D01*
X27317Y-39138D01*
X27317Y-39307D01*
X27289Y-39363D01*
X27261Y-39391D01*
X27204Y-39419D01*
X27092Y-39419D01*
X27036Y-39391D01*
X27795Y-39391D02*
X27739Y-39419D01*
X27626Y-39419D01*
X27570Y-39391D01*
X27542Y-39335D01*
X27542Y-39110D01*
X27570Y-39054D01*
X27626Y-39026D01*
X27739Y-39026D01*
X27795Y-39054D01*
X27823Y-39110D01*
X27823Y-39166D01*
X27542Y-39223D01*
X28076Y-39026D02*
X28076Y-39419D01*
X28076Y-39082D02*
X28104Y-39054D01*
X28161Y-39026D01*
X28245Y-39026D01*
X28301Y-39054D01*
X28329Y-39110D01*
X28329Y-39419D01*
X28610Y-39194D02*
X29060Y-39194D01*
X29679Y-39363D02*
X29651Y-39391D01*
X29567Y-39419D01*
X29510Y-39419D01*
X29426Y-39391D01*
X29370Y-39335D01*
X29342Y-39279D01*
X29314Y-39166D01*
X29314Y-39082D01*
X29342Y-38969D01*
X29370Y-38913D01*
X29426Y-38857D01*
X29510Y-38829D01*
X29567Y-38829D01*
X29651Y-38857D01*
X29679Y-38885D01*
X30045Y-38829D02*
X30157Y-38829D01*
X30213Y-38857D01*
X30270Y-38913D01*
X30298Y-39026D01*
X30298Y-39223D01*
X30270Y-39335D01*
X30213Y-39391D01*
X30157Y-39419D01*
X30045Y-39419D01*
X29988Y-39391D01*
X29932Y-39335D01*
X29904Y-39223D01*
X29904Y-39026D01*
X29932Y-38913D01*
X29988Y-38857D01*
X30045Y-38829D01*
X30888Y-39419D02*
X30691Y-39138D01*
X30551Y-39419D02*
X30551Y-38829D01*
X30776Y-38829D01*
X30832Y-38857D01*
X30860Y-38885D01*
X30888Y-38941D01*
X30888Y-39026D01*
X30860Y-39082D01*
X30832Y-39110D01*
X30776Y-39138D01*
X30551Y-39138D01*
X31254Y-38829D02*
X31366Y-38829D01*
X31423Y-38857D01*
X31479Y-38913D01*
X31507Y-39026D01*
X31507Y-39223D01*
X31479Y-39335D01*
X31423Y-39391D01*
X31366Y-39419D01*
X31254Y-39419D01*
X31198Y-39391D01*
X31141Y-39335D01*
X31113Y-39223D01*
X31113Y-39026D01*
X31141Y-38913D01*
X31198Y-38857D01*
X31254Y-38829D01*
X32098Y-39363D02*
X32069Y-39391D01*
X31985Y-39419D01*
X31929Y-39419D01*
X31844Y-39391D01*
X31788Y-39335D01*
X31760Y-39279D01*
X31732Y-39166D01*
X31732Y-39082D01*
X31760Y-38969D01*
X31788Y-38913D01*
X31844Y-38857D01*
X31929Y-38829D01*
X31985Y-38829D01*
X32069Y-38857D01*
X32098Y-38885D01*
X32463Y-38829D02*
X32576Y-38829D01*
X32632Y-38857D01*
X32688Y-38913D01*
X32716Y-39026D01*
X32716Y-39223D01*
X32688Y-39335D01*
X32632Y-39391D01*
X32576Y-39419D01*
X32463Y-39419D01*
X32407Y-39391D01*
X32351Y-39335D01*
X32323Y-39223D01*
X32323Y-39026D01*
X32351Y-38913D01*
X32407Y-38857D01*
X32463Y-38829D01*
X33757Y-39419D02*
X33560Y-39138D01*
X33419Y-39419D02*
X33419Y-38829D01*
X33644Y-38829D01*
X33700Y-38857D01*
X33729Y-38885D01*
X33757Y-38941D01*
X33757Y-39026D01*
X33729Y-39082D01*
X33700Y-39110D01*
X33644Y-39138D01*
X33419Y-39138D01*
X34235Y-39391D02*
X34179Y-39419D01*
X34066Y-39419D01*
X34010Y-39391D01*
X33982Y-39335D01*
X33982Y-39110D01*
X34010Y-39054D01*
X34066Y-39026D01*
X34179Y-39026D01*
X34235Y-39054D01*
X34263Y-39110D01*
X34263Y-39166D01*
X33982Y-39223D01*
X34488Y-39391D02*
X34544Y-39419D01*
X34657Y-39419D01*
X34713Y-39391D01*
X34741Y-39335D01*
X34741Y-39307D01*
X34713Y-39251D01*
X34657Y-39223D01*
X34572Y-39223D01*
X34516Y-39194D01*
X34488Y-39138D01*
X34488Y-39110D01*
X34516Y-39054D01*
X34572Y-39026D01*
X34657Y-39026D01*
X34713Y-39054D01*
X35078Y-39419D02*
X35022Y-39391D01*
X34994Y-39363D01*
X34966Y-39307D01*
X34966Y-39138D01*
X34994Y-39082D01*
X35022Y-39054D01*
X35078Y-39026D01*
X35163Y-39026D01*
X35219Y-39054D01*
X35247Y-39082D01*
X35275Y-39138D01*
X35275Y-39307D01*
X35247Y-39363D01*
X35219Y-39391D01*
X35163Y-39419D01*
X35078Y-39419D01*
X35613Y-39419D02*
X35556Y-39391D01*
X35528Y-39335D01*
X35528Y-38829D01*
X35781Y-39026D02*
X35922Y-39419D01*
X36063Y-39026D01*
X36513Y-39391D02*
X36456Y-39419D01*
X36344Y-39419D01*
X36288Y-39391D01*
X36260Y-39335D01*
X36260Y-39110D01*
X36288Y-39054D01*
X36344Y-39026D01*
X36456Y-39026D01*
X36513Y-39054D01*
X36541Y-39110D01*
X36541Y-39166D01*
X36260Y-39223D01*
X36794Y-39419D02*
X36794Y-39026D01*
X36794Y-39138D02*
X36822Y-39082D01*
X36850Y-39054D01*
X36906Y-39026D01*
X36963Y-39026D01*
X37159Y-39194D02*
X37609Y-39194D01*
X37891Y-39419D02*
X37891Y-38829D01*
X37891Y-39054D02*
X37947Y-39026D01*
X38059Y-39026D01*
X38116Y-39054D01*
X38144Y-39082D01*
X38172Y-39138D01*
X38172Y-39307D01*
X38144Y-39363D01*
X38116Y-39391D01*
X38059Y-39419D01*
X37947Y-39419D01*
X37891Y-39391D01*
X38509Y-39419D02*
X38453Y-39391D01*
X38425Y-39363D01*
X38397Y-39307D01*
X38397Y-39138D01*
X38425Y-39082D01*
X38453Y-39054D01*
X38509Y-39026D01*
X38594Y-39026D01*
X38650Y-39054D01*
X38678Y-39082D01*
X38706Y-39138D01*
X38706Y-39307D01*
X38678Y-39363D01*
X38650Y-39391D01*
X38594Y-39419D01*
X38509Y-39419D01*
X39212Y-39419D02*
X39212Y-39110D01*
X39184Y-39054D01*
X39128Y-39026D01*
X39015Y-39026D01*
X38959Y-39054D01*
X39212Y-39391D02*
X39156Y-39419D01*
X39015Y-39419D01*
X38959Y-39391D01*
X38931Y-39335D01*
X38931Y-39279D01*
X38959Y-39223D01*
X39015Y-39194D01*
X39156Y-39194D01*
X39212Y-39166D01*
X39493Y-39419D02*
X39493Y-39026D01*
X39493Y-39138D02*
X39522Y-39082D01*
X39550Y-39054D01*
X39606Y-39026D01*
X39662Y-39026D01*
X40112Y-39419D02*
X40112Y-38829D01*
X40112Y-39391D02*
X40056Y-39419D01*
X39943Y-39419D01*
X39887Y-39391D01*
X39859Y-39363D01*
X39831Y-39307D01*
X39831Y-39138D01*
X39859Y-39082D01*
X39887Y-39054D01*
X39943Y-39026D01*
X40056Y-39026D01*
X40112Y-39054D01*
X41181Y-39419D02*
X40984Y-39138D01*
X40843Y-39419D02*
X40843Y-38829D01*
X41068Y-38829D01*
X41125Y-38857D01*
X41153Y-38885D01*
X41181Y-38941D01*
X41181Y-39026D01*
X41153Y-39082D01*
X41125Y-39110D01*
X41068Y-39138D01*
X40843Y-39138D01*
X41659Y-39391D02*
X41603Y-39419D01*
X41490Y-39419D01*
X41434Y-39391D01*
X41406Y-39335D01*
X41406Y-39110D01*
X41434Y-39054D01*
X41490Y-39026D01*
X41603Y-39026D01*
X41659Y-39054D01*
X41687Y-39110D01*
X41687Y-39166D01*
X41406Y-39223D01*
X41884Y-39026D02*
X42024Y-39419D01*
X42165Y-39026D01*
X42390Y-39194D02*
X42840Y-39194D01*
X43234Y-38829D02*
X43290Y-38829D01*
X43346Y-38857D01*
X43374Y-38885D01*
X43402Y-38941D01*
X43430Y-39054D01*
X43430Y-39194D01*
X43402Y-39307D01*
X43374Y-39363D01*
X43346Y-39391D01*
X43290Y-39419D01*
X43234Y-39419D01*
X43177Y-39391D01*
X43149Y-39363D01*
X43121Y-39307D01*
X43093Y-39194D01*
X43093Y-39054D01*
X43121Y-38941D01*
X43149Y-38885D01*
X43177Y-38857D01*
X43234Y-38829D01*
X43684Y-39363D02*
X43712Y-39391D01*
X43684Y-39419D01*
X43655Y-39391D01*
X43684Y-39363D01*
X43684Y-39419D01*
X44274Y-39419D02*
X43937Y-39419D01*
X44105Y-39419D02*
X44105Y-38829D01*
X44049Y-38913D01*
X43993Y-38969D01*
X43937Y-38998D01*
X32463Y-39830D02*
X32491Y-39802D01*
X32547Y-39774D01*
X32688Y-39774D01*
X32744Y-39802D01*
X32772Y-39830D01*
X32801Y-39886D01*
X32801Y-39942D01*
X32772Y-40027D01*
X32435Y-40364D01*
X32801Y-40364D01*
X33166Y-39774D02*
X33222Y-39774D01*
X33279Y-39802D01*
X33307Y-39830D01*
X33335Y-39886D01*
X33363Y-39999D01*
X33363Y-40139D01*
X33335Y-40252D01*
X33307Y-40308D01*
X33279Y-40336D01*
X33222Y-40364D01*
X33166Y-40364D01*
X33110Y-40336D01*
X33082Y-40308D01*
X33054Y-40252D01*
X33026Y-40139D01*
X33026Y-39999D01*
X33054Y-39886D01*
X33082Y-39830D01*
X33110Y-39802D01*
X33166Y-39774D01*
X33925Y-40364D02*
X33588Y-40364D01*
X33757Y-40364D02*
X33757Y-39774D01*
X33700Y-39858D01*
X33644Y-39914D01*
X33588Y-39942D01*
X34432Y-39971D02*
X34432Y-40364D01*
X34291Y-39746D02*
X34150Y-40167D01*
X34516Y-40167D01*
X34741Y-40139D02*
X35191Y-40139D01*
X35781Y-40364D02*
X35444Y-40364D01*
X35613Y-40364D02*
X35613Y-39774D01*
X35556Y-39858D01*
X35500Y-39914D01*
X35444Y-39942D01*
X36147Y-39774D02*
X36203Y-39774D01*
X36260Y-39802D01*
X36288Y-39830D01*
X36316Y-39886D01*
X36344Y-39999D01*
X36344Y-40139D01*
X36316Y-40252D01*
X36288Y-40308D01*
X36260Y-40336D01*
X36203Y-40364D01*
X36147Y-40364D01*
X36091Y-40336D01*
X36063Y-40308D01*
X36035Y-40252D01*
X36006Y-40139D01*
X36006Y-39999D01*
X36035Y-39886D01*
X36063Y-39830D01*
X36091Y-39802D01*
X36147Y-39774D01*
X36597Y-40139D02*
X37047Y-40139D01*
X37300Y-39830D02*
X37328Y-39802D01*
X37384Y-39774D01*
X37525Y-39774D01*
X37581Y-39802D01*
X37609Y-39830D01*
X37637Y-39886D01*
X37637Y-39942D01*
X37609Y-40027D01*
X37272Y-40364D01*
X37637Y-40364D01*
X38003Y-39774D02*
X38059Y-39774D01*
X38116Y-39802D01*
X38144Y-39830D01*
X38172Y-39886D01*
X38200Y-39999D01*
X38200Y-40139D01*
X38172Y-40252D01*
X38144Y-40308D01*
X38116Y-40336D01*
X38059Y-40364D01*
X38003Y-40364D01*
X37947Y-40336D01*
X37919Y-40308D01*
X37891Y-40252D01*
X37862Y-40139D01*
X37862Y-39999D01*
X37891Y-39886D01*
X37919Y-39830D01*
X37947Y-39802D01*
X38003Y-39774D01*
G54D12*
X46150Y-33900D02*
G75*
G03X46150Y-33900I-50J0D01*
G74*
G01*
X46100Y-33450D02*
X46100Y-33850D01*
X46100Y-33850D02*
X45500Y-33850D01*
X45500Y-33850D02*
X45500Y-33450D01*
X45500Y-33050D02*
X45500Y-32650D01*
X45500Y-32650D02*
X46100Y-32650D01*
X46100Y-32650D02*
X46100Y-33050D01*
X46750Y-31100D02*
G75*
G03X46750Y-31100I-50J0D01*
G74*
G01*
X46700Y-31550D02*
X46700Y-31150D01*
X46700Y-31150D02*
X47300Y-31150D01*
X47300Y-31150D02*
X47300Y-31550D01*
X47300Y-31950D02*
X47300Y-32350D01*
X47300Y-32350D02*
X46700Y-32350D01*
X46700Y-32350D02*
X46700Y-31950D01*
X41250Y-32250D02*
G75*
G03X41250Y-32250I-50J0D01*
G74*
G01*
X41200Y-31800D02*
X41200Y-32200D01*
X41200Y-32200D02*
X40600Y-32200D01*
X40600Y-32200D02*
X40600Y-31800D01*
X40600Y-31400D02*
X40600Y-31000D01*
X40600Y-31000D02*
X41200Y-31000D01*
X41200Y-31000D02*
X41200Y-31400D01*
X46600Y-27350D02*
G75*
G03X46600Y-27350I-50J0D01*
G74*
G01*
X46550Y-27800D02*
X46550Y-27400D01*
X46550Y-27400D02*
X47150Y-27400D01*
X47150Y-27400D02*
X47150Y-27800D01*
X47150Y-28200D02*
X47150Y-28600D01*
X47150Y-28600D02*
X46550Y-28600D01*
X46550Y-28600D02*
X46550Y-28200D01*
X45800Y-27350D02*
G75*
G03X45800Y-27350I-50J0D01*
G74*
G01*
X45750Y-27800D02*
X45750Y-27400D01*
X45750Y-27400D02*
X46350Y-27400D01*
X46350Y-27400D02*
X46350Y-27800D01*
X46350Y-28200D02*
X46350Y-28600D01*
X46350Y-28600D02*
X45750Y-28600D01*
X45750Y-28600D02*
X45750Y-28200D01*
X46350Y-20150D02*
G75*
G03X46350Y-20150I-50J0D01*
G74*
G01*
X45850Y-20150D02*
X46250Y-20150D01*
X46250Y-20150D02*
X46250Y-20750D01*
X46250Y-20750D02*
X45850Y-20750D01*
X45450Y-20750D02*
X45050Y-20750D01*
X45050Y-20750D02*
X45050Y-20150D01*
X45050Y-20150D02*
X45450Y-20150D01*
X45050Y-21750D02*
G75*
G03X45050Y-21750I-50J0D01*
G74*
G01*
X45450Y-21750D02*
X45050Y-21750D01*
X45050Y-21750D02*
X45050Y-21150D01*
X45050Y-21150D02*
X45450Y-21150D01*
X45850Y-21150D02*
X46250Y-21150D01*
X46250Y-21150D02*
X46250Y-21750D01*
X46250Y-21750D02*
X45850Y-21750D01*
X45650Y-22300D02*
G75*
G03X45650Y-22300I-50J0D01*
G74*
G01*
X45600Y-22750D02*
X45600Y-22350D01*
X45600Y-22350D02*
X46200Y-22350D01*
X46200Y-22350D02*
X46200Y-22750D01*
X46200Y-23150D02*
X46200Y-23550D01*
X46200Y-23550D02*
X45600Y-23550D01*
X45600Y-23550D02*
X45600Y-23150D01*
X47250Y-23600D02*
G75*
G03X47250Y-23600I-50J0D01*
G74*
G01*
X47200Y-23150D02*
X47200Y-23550D01*
X47200Y-23550D02*
X46600Y-23550D01*
X46600Y-23550D02*
X46600Y-23150D01*
X46600Y-22750D02*
X46600Y-22350D01*
X46600Y-22350D02*
X47200Y-22350D01*
X47200Y-22350D02*
X47200Y-22750D01*
X46550Y-21750D02*
G75*
G03X46550Y-21750I-50J0D01*
G74*
G01*
X46950Y-21750D02*
X46550Y-21750D01*
X46550Y-21750D02*
X46550Y-21150D01*
X46550Y-21150D02*
X46950Y-21150D01*
X47350Y-21150D02*
X47750Y-21150D01*
X47750Y-21150D02*
X47750Y-21750D01*
X47750Y-21750D02*
X47350Y-21750D01*
X46550Y-20750D02*
G75*
G03X46550Y-20750I-50J0D01*
G74*
G01*
X46950Y-20750D02*
X46550Y-20750D01*
X46550Y-20750D02*
X46550Y-20150D01*
X46550Y-20150D02*
X46950Y-20150D01*
X47350Y-20150D02*
X47750Y-20150D01*
X47750Y-20150D02*
X47750Y-20750D01*
X47750Y-20750D02*
X47350Y-20750D01*
X46350Y-17150D02*
G75*
G03X46350Y-17150I-50J0D01*
G74*
G01*
X45850Y-17150D02*
X46250Y-17150D01*
X46250Y-17150D02*
X46250Y-17750D01*
X46250Y-17750D02*
X45850Y-17750D01*
X45450Y-17750D02*
X45050Y-17750D01*
X45050Y-17750D02*
X45050Y-17150D01*
X45050Y-17150D02*
X45450Y-17150D01*
X47850Y-17150D02*
G75*
G03X47850Y-17150I-50J0D01*
G74*
G01*
X47350Y-17150D02*
X47750Y-17150D01*
X47750Y-17150D02*
X47750Y-17750D01*
X47750Y-17750D02*
X47350Y-17750D01*
X46950Y-17750D02*
X46550Y-17750D01*
X46550Y-17750D02*
X46550Y-17150D01*
X46550Y-17150D02*
X46950Y-17150D01*
X42350Y-20150D02*
G75*
G03X42350Y-20150I-50J0D01*
G74*
G01*
X41850Y-20150D02*
X42250Y-20150D01*
X42250Y-20150D02*
X42250Y-20750D01*
X42250Y-20750D02*
X41850Y-20750D01*
X41450Y-20750D02*
X41050Y-20750D01*
X41050Y-20750D02*
X41050Y-20150D01*
X41050Y-20150D02*
X41450Y-20150D01*
X41050Y-21750D02*
G75*
G03X41050Y-21750I-50J0D01*
G74*
G01*
X41450Y-21750D02*
X41050Y-21750D01*
X41050Y-21750D02*
X41050Y-21150D01*
X41050Y-21150D02*
X41450Y-21150D01*
X41850Y-21150D02*
X42250Y-21150D01*
X42250Y-21150D02*
X42250Y-21750D01*
X42250Y-21750D02*
X41850Y-21750D01*
X43250Y-23600D02*
G75*
G03X43250Y-23600I-50J0D01*
G74*
G01*
X43200Y-23150D02*
X43200Y-23550D01*
X43200Y-23550D02*
X42600Y-23550D01*
X42600Y-23550D02*
X42600Y-23150D01*
X42600Y-22750D02*
X42600Y-22350D01*
X42600Y-22350D02*
X43200Y-22350D01*
X43200Y-22350D02*
X43200Y-22750D01*
X42550Y-21750D02*
G75*
G03X42550Y-21750I-50J0D01*
G74*
G01*
X42950Y-21750D02*
X42550Y-21750D01*
X42550Y-21750D02*
X42550Y-21150D01*
X42550Y-21150D02*
X42950Y-21150D01*
X43350Y-21150D02*
X43750Y-21150D01*
X43750Y-21150D02*
X43750Y-21750D01*
X43750Y-21750D02*
X43350Y-21750D01*
X42550Y-20750D02*
G75*
G03X42550Y-20750I-50J0D01*
G74*
G01*
X42950Y-20750D02*
X42550Y-20750D01*
X42550Y-20750D02*
X42550Y-20150D01*
X42550Y-20150D02*
X42950Y-20150D01*
X43350Y-20150D02*
X43750Y-20150D01*
X43750Y-20150D02*
X43750Y-20750D01*
X43750Y-20750D02*
X43350Y-20750D01*
X42350Y-17150D02*
G75*
G03X42350Y-17150I-50J0D01*
G74*
G01*
X41850Y-17150D02*
X42250Y-17150D01*
X42250Y-17150D02*
X42250Y-17750D01*
X42250Y-17750D02*
X41850Y-17750D01*
X41450Y-17750D02*
X41050Y-17750D01*
X41050Y-17750D02*
X41050Y-17150D01*
X41050Y-17150D02*
X41450Y-17150D01*
X43850Y-17150D02*
G75*
G03X43850Y-17150I-50J0D01*
G74*
G01*
X43350Y-17150D02*
X43750Y-17150D01*
X43750Y-17150D02*
X43750Y-17750D01*
X43750Y-17750D02*
X43350Y-17750D01*
X42950Y-17750D02*
X42550Y-17750D01*
X42550Y-17750D02*
X42550Y-17150D01*
X42550Y-17150D02*
X42950Y-17150D01*
X45950Y-31100D02*
G75*
G03X45950Y-31100I-50J0D01*
G74*
G01*
X45900Y-31550D02*
X45900Y-31150D01*
X45900Y-31150D02*
X46500Y-31150D01*
X46500Y-31150D02*
X46500Y-31550D01*
X46500Y-31950D02*
X46500Y-32350D01*
X46500Y-32350D02*
X45900Y-32350D01*
X45900Y-32350D02*
X45900Y-31950D01*
X36050Y-32400D02*
G75*
G03X36050Y-32400I-50J0D01*
G74*
G01*
X36000Y-32850D02*
X36000Y-32450D01*
X36000Y-32450D02*
X36600Y-32450D01*
X36600Y-32450D02*
X36600Y-32850D01*
X36600Y-33250D02*
X36600Y-33650D01*
X36600Y-33650D02*
X36000Y-33650D01*
X36000Y-33650D02*
X36000Y-33250D01*
X34450Y-31450D02*
G75*
G03X34450Y-31450I-50J0D01*
G74*
G01*
X34850Y-31450D02*
X34450Y-31450D01*
X34450Y-31450D02*
X34450Y-30850D01*
X34450Y-30850D02*
X34850Y-30850D01*
X35250Y-30850D02*
X35650Y-30850D01*
X35650Y-30850D02*
X35650Y-31450D01*
X35650Y-31450D02*
X35250Y-31450D01*
X30750Y-26250D02*
G75*
G03X30750Y-26250I-50J0D01*
G74*
G01*
X30250Y-26250D02*
X30650Y-26250D01*
X30650Y-26250D02*
X30650Y-26850D01*
X30650Y-26850D02*
X30250Y-26850D01*
X29850Y-26850D02*
X29450Y-26850D01*
X29450Y-26850D02*
X29450Y-26250D01*
X29450Y-26250D02*
X29850Y-26250D01*
X27150Y-26850D02*
G75*
G03X27150Y-26850I-50J0D01*
G74*
G01*
X27550Y-26850D02*
X27150Y-26850D01*
X27150Y-26850D02*
X27150Y-26250D01*
X27150Y-26250D02*
X27550Y-26250D01*
X27950Y-26250D02*
X28350Y-26250D01*
X28350Y-26250D02*
X28350Y-26850D01*
X28350Y-26850D02*
X27950Y-26850D01*
X29450Y-32550D02*
G75*
G03X29450Y-32550I-50J0D01*
G74*
G01*
X29400Y-33000D02*
X29400Y-32600D01*
X29400Y-32600D02*
X30000Y-32600D01*
X30000Y-32600D02*
X30000Y-33000D01*
X30000Y-33400D02*
X30000Y-33800D01*
X30000Y-33800D02*
X29400Y-33800D01*
X29400Y-33800D02*
X29400Y-33400D01*
X33650Y-29200D02*
G75*
G03X33650Y-29200I-50J0D01*
G74*
G01*
X33150Y-29200D02*
X33550Y-29200D01*
X33550Y-29200D02*
X33550Y-29800D01*
X33550Y-29800D02*
X33150Y-29800D01*
X32750Y-29800D02*
X32350Y-29800D01*
X32350Y-29800D02*
X32350Y-29200D01*
X32350Y-29200D02*
X32750Y-29200D01*
X34000Y-35575D02*
G75*
G03X34000Y-35575I-50J0D01*
G74*
G01*
X33500Y-35575D02*
X33900Y-35575D01*
X33900Y-35575D02*
X33900Y-36175D01*
X33900Y-36175D02*
X33500Y-36175D01*
X33100Y-36175D02*
X32700Y-36175D01*
X32700Y-36175D02*
X32700Y-35575D01*
X32700Y-35575D02*
X33100Y-35575D01*
X34000Y-36425D02*
G75*
G03X34000Y-36425I-50J0D01*
G74*
G01*
X33500Y-36425D02*
X33900Y-36425D01*
X33900Y-36425D02*
X33900Y-37025D01*
X33900Y-37025D02*
X33500Y-37025D01*
X33100Y-37025D02*
X32700Y-37025D01*
X32700Y-37025D02*
X32700Y-36425D01*
X32700Y-36425D02*
X33100Y-36425D01*
X28950Y-23450D02*
G75*
G03X28950Y-23450I-50J0D01*
G74*
G01*
X28900Y-23900D02*
X28900Y-23500D01*
X28900Y-23500D02*
X29500Y-23500D01*
X29500Y-23500D02*
X29500Y-23900D01*
X29500Y-24300D02*
X29500Y-24700D01*
X29500Y-24700D02*
X28900Y-24700D01*
X28900Y-24700D02*
X28900Y-24300D01*
X34900Y-24800D02*
G75*
G03X34900Y-24800I-50J0D01*
G74*
G01*
X34850Y-25250D02*
X34850Y-24850D01*
X34850Y-24850D02*
X35450Y-24850D01*
X35450Y-24850D02*
X35450Y-25250D01*
X35450Y-25650D02*
X35450Y-26050D01*
X35450Y-26050D02*
X34850Y-26050D01*
X34850Y-26050D02*
X34850Y-25650D01*
X35750Y-24800D02*
G75*
G03X35750Y-24800I-50J0D01*
G74*
G01*
X35700Y-25250D02*
X35700Y-24850D01*
X35700Y-24850D02*
X36300Y-24850D01*
X36300Y-24850D02*
X36300Y-25250D01*
X36300Y-25650D02*
X36300Y-26050D01*
X36300Y-26050D02*
X35700Y-26050D01*
X35700Y-26050D02*
X35700Y-25650D01*
X45200Y-33900D02*
G75*
G03X45200Y-33900I-50J0D01*
G74*
G01*
X45150Y-33450D02*
X45150Y-33850D01*
X45150Y-33850D02*
X44550Y-33850D01*
X44550Y-33850D02*
X44550Y-33450D01*
X44550Y-33050D02*
X44550Y-32650D01*
X44550Y-32650D02*
X45150Y-32650D01*
X45150Y-32650D02*
X45150Y-33050D01*
X43050Y-32250D02*
G75*
G03X43050Y-32250I-50J0D01*
G74*
G01*
X43000Y-31800D02*
X43000Y-32200D01*
X43000Y-32200D02*
X42400Y-32200D01*
X42400Y-32200D02*
X42400Y-31800D01*
X42400Y-31400D02*
X42400Y-31000D01*
X42400Y-31000D02*
X43000Y-31000D01*
X43000Y-31000D02*
X43000Y-31400D01*
G54D10*
X32312Y-24153D02*
X35659Y-24153D01*
X32312Y-19586D02*
X35659Y-19586D01*
X35659Y-19586D02*
X35659Y-24153D01*
X32312Y-19586D02*
X32312Y-24153D01*
G54D13*
X44725Y-30425D02*
X44225Y-29950D01*
X44225Y-30425D02*
X45475Y-30425D01*
X45475Y-30425D02*
X45475Y-29175D01*
X45475Y-29175D02*
X44225Y-29175D01*
X44225Y-29175D02*
X44225Y-30425D01*
G54D14*
X26200Y-23400D02*
X25800Y-23400D01*
X26000Y-23200D02*
X26000Y-23600D01*
X27000Y-24400D02*
G75*
G03X27000Y-24400I-2000J0D01*
G74*
G01*
G54D10*
X31085Y-29002D02*
X31085Y-27097D01*
X31085Y-27097D02*
X26714Y-27097D01*
X26714Y-27097D02*
X26714Y-29002D01*
X31085Y-29002D02*
X26714Y-29002D01*
G54D12*
X45150Y-19150D02*
X44950Y-19450D01*
X45150Y-18450D02*
X45150Y-19475D01*
X45150Y-19475D02*
X44550Y-19475D01*
X44550Y-19475D02*
X44550Y-18450D01*
X44550Y-18450D02*
X45150Y-18450D01*
X47350Y-19150D02*
X47150Y-19450D01*
X47350Y-18450D02*
X47350Y-19475D01*
X47350Y-19475D02*
X46750Y-19475D01*
X46750Y-19475D02*
X46750Y-18450D01*
X46750Y-18450D02*
X47350Y-18450D01*
X41150Y-19150D02*
X40950Y-19450D01*
X41150Y-18450D02*
X41150Y-19475D01*
X41150Y-19475D02*
X40550Y-19475D01*
X40550Y-19475D02*
X40550Y-18450D01*
X40550Y-18450D02*
X41150Y-18450D01*
X43350Y-19150D02*
X43150Y-19450D01*
X43350Y-18450D02*
X43350Y-19475D01*
X43350Y-19475D02*
X42750Y-19475D01*
X42750Y-19475D02*
X42750Y-18450D01*
X42750Y-18450D02*
X43350Y-18450D01*
X44125Y-27750D02*
G75*
G03X44125Y-27750I-50J0D01*
G74*
G01*
X44525Y-27750D02*
X44125Y-27750D01*
X44125Y-27750D02*
X44125Y-27150D01*
X44125Y-27150D02*
X44525Y-27150D01*
X44925Y-27150D02*
X45325Y-27150D01*
X45325Y-27150D02*
X45325Y-27750D01*
X45325Y-27750D02*
X44925Y-27750D01*
X41600Y-22300D02*
G75*
G03X41600Y-22300I-50J0D01*
G74*
G01*
X41550Y-22750D02*
X41550Y-22350D01*
X41550Y-22350D02*
X42150Y-22350D01*
X42150Y-22350D02*
X42150Y-22750D01*
X42150Y-23150D02*
X42150Y-23550D01*
X42150Y-23550D02*
X41550Y-23550D01*
X41550Y-23550D02*
X41550Y-23150D01*
G54D15*
X35800Y-16950D02*
X35800Y-17950D01*
X35800Y-17950D02*
X32800Y-17950D01*
X32800Y-17950D02*
X32800Y-16950D01*
X32800Y-16950D02*
X35800Y-16950D01*
X34800Y-17950D02*
X34800Y-16950D01*
X27950Y-30200D02*
X27950Y-31200D01*
X27950Y-31200D02*
X24950Y-31200D01*
X24950Y-31200D02*
X24950Y-30200D01*
X24950Y-30200D02*
X27950Y-30200D01*
X26950Y-31200D02*
X26950Y-30200D01*
G54D12*
X34050Y-29450D02*
X34050Y-30350D01*
X34050Y-30350D02*
X34700Y-30350D01*
X35400Y-29450D02*
X36050Y-29450D01*
X36050Y-29450D02*
X36050Y-30350D01*
X36050Y-30350D02*
X35400Y-30350D01*
X34700Y-29450D02*
X34050Y-29450D01*
X34100Y-28900D02*
X34100Y-28000D01*
X34100Y-28000D02*
X33450Y-28000D01*
X32750Y-28900D02*
X32100Y-28900D01*
X32100Y-28900D02*
X32100Y-28000D01*
X32100Y-28000D02*
X32750Y-28000D01*
X33450Y-28900D02*
X34100Y-28900D01*
X28450Y-23250D02*
X27550Y-23250D01*
X27550Y-23250D02*
X27550Y-23900D01*
X28450Y-24600D02*
X28450Y-25250D01*
X28450Y-25250D02*
X27550Y-25250D01*
X27550Y-25250D02*
X27550Y-24600D01*
X28450Y-23900D02*
X28450Y-23250D01*
X37750Y-32450D02*
X36850Y-32450D01*
X36850Y-32450D02*
X36850Y-33100D01*
X37750Y-33800D02*
X37750Y-34450D01*
X37750Y-34450D02*
X36850Y-34450D01*
X36850Y-34450D02*
X36850Y-33800D01*
X37750Y-33100D02*
X37750Y-32450D01*
X28950Y-32200D02*
X28050Y-32200D01*
X28050Y-32200D02*
X28050Y-32850D01*
X28950Y-33550D02*
X28950Y-34200D01*
X28950Y-34200D02*
X28050Y-34200D01*
X28050Y-34200D02*
X28050Y-33550D01*
X28950Y-32850D02*
X28950Y-32200D01*
X43700Y-25950D02*
X43700Y-26850D01*
X43700Y-26850D02*
X44350Y-26850D01*
X45050Y-25950D02*
X45700Y-25950D01*
X45700Y-25950D02*
X45700Y-26850D01*
X45700Y-26850D02*
X45050Y-26850D01*
X44350Y-25950D02*
X43700Y-25950D01*
X41400Y-24400D02*
G75*
G03X41400Y-24400I-50J0D01*
G74*
G01*
X41350Y-23950D02*
X41350Y-24350D01*
X41350Y-24350D02*
X40750Y-24350D01*
X40750Y-24350D02*
X40750Y-23950D01*
X40750Y-23550D02*
X40750Y-23150D01*
X40750Y-23150D02*
X41350Y-23150D01*
X41350Y-23150D02*
X41350Y-23550D01*
X44800Y-23100D02*
G75*
G03X44800Y-23100I-50J0D01*
G74*
G01*
X44750Y-23550D02*
X44750Y-23150D01*
X44750Y-23150D02*
X45350Y-23150D01*
X45350Y-23150D02*
X45350Y-23550D01*
X45350Y-23950D02*
X45350Y-24350D01*
X45350Y-24350D02*
X44750Y-24350D01*
X44750Y-24350D02*
X44750Y-23950D01*
G54D10*
X38180Y-15656D02*
X38180Y-12743D01*
X47629Y-12743D02*
X47629Y-15656D01*
X47629Y-15656D02*
X38180Y-15656D01*
X47629Y-12743D02*
X38180Y-12743D01*
X27550Y-19250D02*
X28550Y-19250D01*
X28550Y-19250D02*
X28550Y-12750D01*
X28550Y-12750D02*
X23050Y-12750D01*
X23050Y-12750D02*
X23050Y-13750D01*
X23050Y-19250D02*
X24050Y-19250D01*
X23050Y-13750D02*
X23050Y-19261D01*
X24050Y-19250D02*
X27593Y-19250D01*
G54D16*
X31122Y-31572D02*
X31122Y-31572D01*
X33641Y-31965D02*
G75*
G03X33641Y-31965I-157J0D01*
G74*
G01*
X31122Y-31572D02*
X33877Y-31572D01*
X33877Y-31572D02*
X33877Y-31572D01*
X33877Y-31572D02*
X33877Y-34327D01*
X33877Y-34327D02*
X33877Y-34327D01*
X33877Y-34327D02*
X31122Y-34327D01*
X31122Y-34327D02*
X31122Y-34327D01*
X31122Y-34327D02*
X31122Y-31572D01*
G54D12*
X34450Y-24550D02*
X33550Y-24550D01*
X33550Y-24550D02*
X33550Y-25200D01*
X34450Y-25900D02*
X34450Y-26550D01*
X34450Y-26550D02*
X33550Y-26550D01*
X33550Y-26550D02*
X33550Y-25900D01*
X34450Y-25200D02*
X34450Y-24550D01*
X42500Y-30700D02*
G75*
G03X42500Y-30700I-50J0D01*
G74*
G01*
X42900Y-30700D02*
X42500Y-30700D01*
X42500Y-30700D02*
X42500Y-30100D01*
X42500Y-30100D02*
X42900Y-30100D01*
X43300Y-30100D02*
X43700Y-30100D01*
X43700Y-30100D02*
X43700Y-30700D01*
X43700Y-30700D02*
X43300Y-30700D01*
X42500Y-29500D02*
G75*
G03X42500Y-29500I-50J0D01*
G74*
G01*
X42900Y-29500D02*
X42500Y-29500D01*
X42500Y-29500D02*
X42500Y-28900D01*
X42500Y-28900D02*
X42900Y-28900D01*
X43300Y-28900D02*
X43700Y-28900D01*
X43700Y-28900D02*
X43700Y-29500D01*
X43700Y-29500D02*
X43300Y-29500D01*
X42150Y-32250D02*
G75*
G03X42150Y-32250I-50J0D01*
G74*
G01*
X42100Y-31800D02*
X42100Y-32200D01*
X42100Y-32200D02*
X41500Y-32200D01*
X41500Y-32200D02*
X41500Y-31800D01*
X41500Y-31400D02*
X41500Y-31000D01*
X41500Y-31000D02*
X42100Y-31000D01*
X42100Y-31000D02*
X42100Y-31400D01*
X40450Y-27350D02*
G75*
G03X40450Y-27350I-50J0D01*
G74*
G01*
X40400Y-27800D02*
X40400Y-27400D01*
X40400Y-27400D02*
X41000Y-27400D01*
X41000Y-27400D02*
X41000Y-27800D01*
X41000Y-28200D02*
X41000Y-28600D01*
X41000Y-28600D02*
X40400Y-28600D01*
X40400Y-28600D02*
X40400Y-28200D01*
X41450Y-27350D02*
G75*
G03X41450Y-27350I-50J0D01*
G74*
G01*
X41400Y-27800D02*
X41400Y-27400D01*
X41400Y-27400D02*
X42000Y-27400D01*
X42000Y-27400D02*
X42000Y-27800D01*
X42000Y-28200D02*
X42000Y-28600D01*
X42000Y-28600D02*
X41400Y-28600D01*
X41400Y-28600D02*
X41400Y-28200D01*
X42450Y-27350D02*
G75*
G03X42450Y-27350I-50J0D01*
G74*
G01*
X42400Y-27800D02*
X42400Y-27400D01*
X42400Y-27400D02*
X43000Y-27400D01*
X43000Y-27400D02*
X43000Y-27800D01*
X43000Y-28200D02*
X43000Y-28600D01*
X43000Y-28600D02*
X42400Y-28600D01*
X42400Y-28600D02*
X42400Y-28200D01*
G54D13*
X43300Y-34900D02*
X40300Y-34900D01*
X40300Y-32900D02*
X43300Y-32900D01*
X43300Y-32900D02*
X43300Y-34900D01*
X40300Y-34900D02*
X40300Y-32900D01*
X40100Y-24800D02*
X43100Y-24800D01*
X43100Y-26800D02*
X40100Y-26800D01*
X40100Y-26800D02*
X40100Y-24800D01*
X43100Y-24800D02*
X43100Y-26800D01*
G54D12*
X23150Y-21700D02*
G75*
G03X23150Y-21700I-150J0D01*
G74*
G01*
X24000Y-20200D02*
X23150Y-20200D01*
X23150Y-20200D02*
X23150Y-21800D01*
X23150Y-21800D02*
X24000Y-21800D01*
X24700Y-20150D02*
X25550Y-20150D01*
X25550Y-20150D02*
X25550Y-21800D01*
X25550Y-21800D02*
X24700Y-21800D01*
X27900Y-21750D02*
X27900Y-20850D01*
X27900Y-20850D02*
X27250Y-20850D01*
X26550Y-21750D02*
X25900Y-21750D01*
X25900Y-21750D02*
X25900Y-20850D01*
X25900Y-20850D02*
X26550Y-20850D01*
X27250Y-21750D02*
X27900Y-21750D01*
G54D17*
X19708Y-39739D02*
X19708Y-14639D01*
X21708Y-39739D02*
X21708Y-14639D01*
X21708Y-39737D02*
X19708Y-39737D01*
X21708Y-14589D02*
X19708Y-14589D01*
X14208Y-39739D02*
X14208Y-14639D01*
X16208Y-39739D02*
X16208Y-14639D01*
X16208Y-39737D02*
X14208Y-39737D01*
X16208Y-14589D02*
X14208Y-14589D01*
G54D12*
X46389Y-33851D02*
X46305Y-33732D01*
X46246Y-33851D02*
X46246Y-33601D01*
X46341Y-33601D01*
X46365Y-33613D01*
X46377Y-33625D01*
X46389Y-33648D01*
X46389Y-33684D01*
X46377Y-33708D01*
X46365Y-33720D01*
X46341Y-33732D01*
X46246Y-33732D01*
X46627Y-33851D02*
X46484Y-33851D01*
X46555Y-33851D02*
X46555Y-33601D01*
X46532Y-33636D01*
X46508Y-33660D01*
X46484Y-33672D01*
X46770Y-33708D02*
X46746Y-33696D01*
X46734Y-33684D01*
X46722Y-33660D01*
X46722Y-33648D01*
X46734Y-33625D01*
X46746Y-33613D01*
X46770Y-33601D01*
X46817Y-33601D01*
X46841Y-33613D01*
X46853Y-33625D01*
X46865Y-33648D01*
X46865Y-33660D01*
X46853Y-33684D01*
X46841Y-33696D01*
X46817Y-33708D01*
X46770Y-33708D01*
X46746Y-33720D01*
X46734Y-33732D01*
X46722Y-33755D01*
X46722Y-33803D01*
X46734Y-33827D01*
X46746Y-33839D01*
X46770Y-33851D01*
X46817Y-33851D01*
X46841Y-33839D01*
X46853Y-33827D01*
X46865Y-33803D01*
X46865Y-33755D01*
X46853Y-33732D01*
X46841Y-33720D01*
X46817Y-33708D01*
X47608Y-32351D02*
X47525Y-32232D01*
X47465Y-32351D02*
X47465Y-32101D01*
X47560Y-32101D01*
X47584Y-32113D01*
X47596Y-32125D01*
X47608Y-32148D01*
X47608Y-32184D01*
X47596Y-32208D01*
X47584Y-32220D01*
X47560Y-32232D01*
X47465Y-32232D01*
X47834Y-32101D02*
X47715Y-32101D01*
X47703Y-32220D01*
X47715Y-32208D01*
X47739Y-32196D01*
X47798Y-32196D01*
X47822Y-32208D01*
X47834Y-32220D01*
X47846Y-32244D01*
X47846Y-32303D01*
X47834Y-32327D01*
X47822Y-32339D01*
X47798Y-32351D01*
X47739Y-32351D01*
X47715Y-32339D01*
X47703Y-32327D01*
X40739Y-32601D02*
X40655Y-32482D01*
X40596Y-32601D02*
X40596Y-32351D01*
X40691Y-32351D01*
X40715Y-32363D01*
X40727Y-32375D01*
X40739Y-32398D01*
X40739Y-32434D01*
X40727Y-32458D01*
X40715Y-32470D01*
X40691Y-32482D01*
X40596Y-32482D01*
X40977Y-32601D02*
X40834Y-32601D01*
X40905Y-32601D02*
X40905Y-32351D01*
X40882Y-32386D01*
X40858Y-32410D01*
X40834Y-32422D01*
X41060Y-32351D02*
X41227Y-32351D01*
X41120Y-32601D01*
X46889Y-27251D02*
X46805Y-27132D01*
X46746Y-27251D02*
X46746Y-27001D01*
X46841Y-27001D01*
X46865Y-27013D01*
X46877Y-27025D01*
X46889Y-27048D01*
X46889Y-27084D01*
X46877Y-27108D01*
X46865Y-27120D01*
X46841Y-27132D01*
X46746Y-27132D01*
X46984Y-27025D02*
X46996Y-27013D01*
X47020Y-27001D01*
X47079Y-27001D01*
X47103Y-27013D01*
X47115Y-27025D01*
X47127Y-27048D01*
X47127Y-27072D01*
X47115Y-27108D01*
X46972Y-27251D01*
X47127Y-27251D01*
X47282Y-27001D02*
X47305Y-27001D01*
X47329Y-27013D01*
X47341Y-27025D01*
X47353Y-27048D01*
X47365Y-27096D01*
X47365Y-27155D01*
X47353Y-27203D01*
X47341Y-27227D01*
X47329Y-27239D01*
X47305Y-27251D01*
X47282Y-27251D01*
X47258Y-27239D01*
X47246Y-27227D01*
X47234Y-27203D01*
X47222Y-27155D01*
X47222Y-27096D01*
X47234Y-27048D01*
X47246Y-27025D01*
X47258Y-27013D01*
X47282Y-27001D01*
X46551Y-27060D02*
X46432Y-27144D01*
X46551Y-27203D02*
X46301Y-27203D01*
X46301Y-27108D01*
X46313Y-27084D01*
X46325Y-27072D01*
X46348Y-27060D01*
X46384Y-27060D01*
X46408Y-27072D01*
X46420Y-27084D01*
X46432Y-27108D01*
X46432Y-27203D01*
X46551Y-26822D02*
X46551Y-26965D01*
X46551Y-26894D02*
X46301Y-26894D01*
X46336Y-26917D01*
X46360Y-26941D01*
X46372Y-26965D01*
X46551Y-26703D02*
X46551Y-26655D01*
X46539Y-26632D01*
X46527Y-26620D01*
X46491Y-26596D01*
X46444Y-26584D01*
X46348Y-26584D01*
X46325Y-26596D01*
X46313Y-26608D01*
X46301Y-26632D01*
X46301Y-26679D01*
X46313Y-26703D01*
X46325Y-26715D01*
X46348Y-26727D01*
X46408Y-26727D01*
X46432Y-26715D01*
X46444Y-26703D01*
X46455Y-26679D01*
X46455Y-26632D01*
X46444Y-26608D01*
X46432Y-26596D01*
X46408Y-26584D01*
X45089Y-20001D02*
X45005Y-19882D01*
X44946Y-20001D02*
X44946Y-19751D01*
X45041Y-19751D01*
X45065Y-19763D01*
X45077Y-19775D01*
X45089Y-19798D01*
X45089Y-19834D01*
X45077Y-19858D01*
X45065Y-19870D01*
X45041Y-19882D01*
X44946Y-19882D01*
X45184Y-19775D02*
X45196Y-19763D01*
X45220Y-19751D01*
X45279Y-19751D01*
X45303Y-19763D01*
X45315Y-19775D01*
X45327Y-19798D01*
X45327Y-19822D01*
X45315Y-19858D01*
X45172Y-20001D01*
X45327Y-20001D01*
X45565Y-20001D02*
X45422Y-20001D01*
X45494Y-20001D02*
X45494Y-19751D01*
X45470Y-19786D01*
X45446Y-19810D01*
X45422Y-19822D01*
X44889Y-22151D02*
X44805Y-22032D01*
X44746Y-22151D02*
X44746Y-21901D01*
X44841Y-21901D01*
X44865Y-21913D01*
X44877Y-21925D01*
X44889Y-21948D01*
X44889Y-21984D01*
X44877Y-22008D01*
X44865Y-22020D01*
X44841Y-22032D01*
X44746Y-22032D01*
X45127Y-22151D02*
X44984Y-22151D01*
X45055Y-22151D02*
X45055Y-21901D01*
X45032Y-21936D01*
X45008Y-21960D01*
X44984Y-21972D01*
X45353Y-21901D02*
X45234Y-21901D01*
X45222Y-22020D01*
X45234Y-22008D01*
X45258Y-21996D01*
X45317Y-21996D01*
X45341Y-22008D01*
X45353Y-22020D01*
X45365Y-22044D01*
X45365Y-22103D01*
X45353Y-22127D01*
X45341Y-22139D01*
X45317Y-22151D01*
X45258Y-22151D01*
X45234Y-22139D01*
X45222Y-22127D01*
X45065Y-22801D02*
X45065Y-22551D01*
X45125Y-22551D01*
X45160Y-22563D01*
X45184Y-22586D01*
X45196Y-22610D01*
X45208Y-22658D01*
X45208Y-22694D01*
X45196Y-22741D01*
X45184Y-22765D01*
X45160Y-22789D01*
X45125Y-22801D01*
X45065Y-22801D01*
X45291Y-22551D02*
X45446Y-22551D01*
X45363Y-22646D01*
X45398Y-22646D01*
X45422Y-22658D01*
X45434Y-22670D01*
X45446Y-22694D01*
X45446Y-22753D01*
X45434Y-22777D01*
X45422Y-22789D01*
X45398Y-22801D01*
X45327Y-22801D01*
X45303Y-22789D01*
X45291Y-22777D01*
X47365Y-22701D02*
X47365Y-22451D01*
X47425Y-22451D01*
X47460Y-22463D01*
X47484Y-22486D01*
X47496Y-22510D01*
X47508Y-22558D01*
X47508Y-22594D01*
X47496Y-22641D01*
X47484Y-22665D01*
X47460Y-22689D01*
X47425Y-22701D01*
X47365Y-22701D01*
X47722Y-22534D02*
X47722Y-22701D01*
X47663Y-22439D02*
X47603Y-22617D01*
X47758Y-22617D01*
X48039Y-21551D02*
X47955Y-21432D01*
X47896Y-21551D02*
X47896Y-21301D01*
X47991Y-21301D01*
X48015Y-21313D01*
X48027Y-21325D01*
X48039Y-21348D01*
X48039Y-21384D01*
X48027Y-21408D01*
X48015Y-21420D01*
X47991Y-21432D01*
X47896Y-21432D01*
X48277Y-21551D02*
X48134Y-21551D01*
X48205Y-21551D02*
X48205Y-21301D01*
X48182Y-21336D01*
X48158Y-21360D01*
X48134Y-21372D01*
X48491Y-21301D02*
X48444Y-21301D01*
X48420Y-21313D01*
X48408Y-21325D01*
X48384Y-21360D01*
X48372Y-21408D01*
X48372Y-21503D01*
X48384Y-21527D01*
X48396Y-21539D01*
X48420Y-21551D01*
X48467Y-21551D01*
X48491Y-21539D01*
X48503Y-21527D01*
X48515Y-21503D01*
X48515Y-21444D01*
X48503Y-21420D01*
X48491Y-21408D01*
X48467Y-21396D01*
X48420Y-21396D01*
X48396Y-21408D01*
X48384Y-21420D01*
X48372Y-21444D01*
X48039Y-20601D02*
X47955Y-20482D01*
X47896Y-20601D02*
X47896Y-20351D01*
X47991Y-20351D01*
X48015Y-20363D01*
X48027Y-20375D01*
X48039Y-20398D01*
X48039Y-20434D01*
X48027Y-20458D01*
X48015Y-20470D01*
X47991Y-20482D01*
X47896Y-20482D01*
X48277Y-20601D02*
X48134Y-20601D01*
X48205Y-20601D02*
X48205Y-20351D01*
X48182Y-20386D01*
X48158Y-20410D01*
X48134Y-20422D01*
X48491Y-20434D02*
X48491Y-20601D01*
X48432Y-20339D02*
X48372Y-20517D01*
X48527Y-20517D01*
X45489Y-16951D02*
X45405Y-16832D01*
X45346Y-16951D02*
X45346Y-16701D01*
X45441Y-16701D01*
X45465Y-16713D01*
X45477Y-16725D01*
X45489Y-16748D01*
X45489Y-16784D01*
X45477Y-16808D01*
X45465Y-16820D01*
X45441Y-16832D01*
X45346Y-16832D01*
X45727Y-16951D02*
X45584Y-16951D01*
X45655Y-16951D02*
X45655Y-16701D01*
X45632Y-16736D01*
X45608Y-16760D01*
X45584Y-16772D01*
X45822Y-16725D02*
X45834Y-16713D01*
X45858Y-16701D01*
X45917Y-16701D01*
X45941Y-16713D01*
X45953Y-16725D01*
X45965Y-16748D01*
X45965Y-16772D01*
X45953Y-16808D01*
X45810Y-16951D01*
X45965Y-16951D01*
X46989Y-16901D02*
X46905Y-16782D01*
X46846Y-16901D02*
X46846Y-16651D01*
X46941Y-16651D01*
X46965Y-16663D01*
X46977Y-16675D01*
X46989Y-16698D01*
X46989Y-16734D01*
X46977Y-16758D01*
X46965Y-16770D01*
X46941Y-16782D01*
X46846Y-16782D01*
X47227Y-16901D02*
X47084Y-16901D01*
X47155Y-16901D02*
X47155Y-16651D01*
X47132Y-16686D01*
X47108Y-16710D01*
X47084Y-16722D01*
X47310Y-16651D02*
X47465Y-16651D01*
X47382Y-16746D01*
X47417Y-16746D01*
X47441Y-16758D01*
X47453Y-16770D01*
X47465Y-16794D01*
X47465Y-16853D01*
X47453Y-16877D01*
X47441Y-16889D01*
X47417Y-16901D01*
X47346Y-16901D01*
X47322Y-16889D01*
X47310Y-16877D01*
X41208Y-19951D02*
X41125Y-19832D01*
X41065Y-19951D02*
X41065Y-19701D01*
X41160Y-19701D01*
X41184Y-19713D01*
X41196Y-19725D01*
X41208Y-19748D01*
X41208Y-19784D01*
X41196Y-19808D01*
X41184Y-19820D01*
X41160Y-19832D01*
X41065Y-19832D01*
X41303Y-19725D02*
X41315Y-19713D01*
X41339Y-19701D01*
X41398Y-19701D01*
X41422Y-19713D01*
X41434Y-19725D01*
X41446Y-19748D01*
X41446Y-19772D01*
X41434Y-19808D01*
X41291Y-19951D01*
X41446Y-19951D01*
X41058Y-22151D02*
X40975Y-22032D01*
X40915Y-22151D02*
X40915Y-21901D01*
X41010Y-21901D01*
X41034Y-21913D01*
X41046Y-21925D01*
X41058Y-21948D01*
X41058Y-21984D01*
X41046Y-22008D01*
X41034Y-22020D01*
X41010Y-22032D01*
X40915Y-22032D01*
X41201Y-22008D02*
X41177Y-21996D01*
X41165Y-21984D01*
X41153Y-21960D01*
X41153Y-21948D01*
X41165Y-21925D01*
X41177Y-21913D01*
X41201Y-21901D01*
X41248Y-21901D01*
X41272Y-21913D01*
X41284Y-21925D01*
X41296Y-21948D01*
X41296Y-21960D01*
X41284Y-21984D01*
X41272Y-21996D01*
X41248Y-22008D01*
X41201Y-22008D01*
X41177Y-22020D01*
X41165Y-22032D01*
X41153Y-22055D01*
X41153Y-22103D01*
X41165Y-22127D01*
X41177Y-22139D01*
X41201Y-22151D01*
X41248Y-22151D01*
X41272Y-22139D01*
X41284Y-22127D01*
X41296Y-22103D01*
X41296Y-22055D01*
X41284Y-22032D01*
X41272Y-22020D01*
X41248Y-22008D01*
X43315Y-23101D02*
X43315Y-22851D01*
X43375Y-22851D01*
X43410Y-22863D01*
X43434Y-22886D01*
X43446Y-22910D01*
X43458Y-22958D01*
X43458Y-22994D01*
X43446Y-23041D01*
X43434Y-23065D01*
X43410Y-23089D01*
X43375Y-23101D01*
X43315Y-23101D01*
X43553Y-22875D02*
X43565Y-22863D01*
X43589Y-22851D01*
X43648Y-22851D01*
X43672Y-22863D01*
X43684Y-22875D01*
X43696Y-22898D01*
X43696Y-22922D01*
X43684Y-22958D01*
X43541Y-23101D01*
X43696Y-23101D01*
X43208Y-22151D02*
X43125Y-22032D01*
X43065Y-22151D02*
X43065Y-21901D01*
X43160Y-21901D01*
X43184Y-21913D01*
X43196Y-21925D01*
X43208Y-21948D01*
X43208Y-21984D01*
X43196Y-22008D01*
X43184Y-22020D01*
X43160Y-22032D01*
X43065Y-22032D01*
X43291Y-21901D02*
X43458Y-21901D01*
X43351Y-22151D01*
X43458Y-20001D02*
X43375Y-19882D01*
X43315Y-20001D02*
X43315Y-19751D01*
X43410Y-19751D01*
X43434Y-19763D01*
X43446Y-19775D01*
X43458Y-19798D01*
X43458Y-19834D01*
X43446Y-19858D01*
X43434Y-19870D01*
X43410Y-19882D01*
X43315Y-19882D01*
X43577Y-20001D02*
X43625Y-20001D01*
X43648Y-19989D01*
X43660Y-19977D01*
X43684Y-19941D01*
X43696Y-19894D01*
X43696Y-19798D01*
X43684Y-19775D01*
X43672Y-19763D01*
X43648Y-19751D01*
X43601Y-19751D01*
X43577Y-19763D01*
X43565Y-19775D01*
X43553Y-19798D01*
X43553Y-19858D01*
X43565Y-19882D01*
X43577Y-19894D01*
X43601Y-19905D01*
X43648Y-19905D01*
X43672Y-19894D01*
X43684Y-19882D01*
X43696Y-19858D01*
X41489Y-17001D02*
X41405Y-16882D01*
X41346Y-17001D02*
X41346Y-16751D01*
X41441Y-16751D01*
X41465Y-16763D01*
X41477Y-16775D01*
X41489Y-16798D01*
X41489Y-16834D01*
X41477Y-16858D01*
X41465Y-16870D01*
X41441Y-16882D01*
X41346Y-16882D01*
X41727Y-17001D02*
X41584Y-17001D01*
X41655Y-17001D02*
X41655Y-16751D01*
X41632Y-16786D01*
X41608Y-16810D01*
X41584Y-16822D01*
X41882Y-16751D02*
X41905Y-16751D01*
X41929Y-16763D01*
X41941Y-16775D01*
X41953Y-16798D01*
X41965Y-16846D01*
X41965Y-16905D01*
X41953Y-16953D01*
X41941Y-16977D01*
X41929Y-16989D01*
X41905Y-17001D01*
X41882Y-17001D01*
X41858Y-16989D01*
X41846Y-16977D01*
X41834Y-16953D01*
X41822Y-16905D01*
X41822Y-16846D01*
X41834Y-16798D01*
X41846Y-16775D01*
X41858Y-16763D01*
X41882Y-16751D01*
X42989Y-17001D02*
X42905Y-16882D01*
X42846Y-17001D02*
X42846Y-16751D01*
X42941Y-16751D01*
X42965Y-16763D01*
X42977Y-16775D01*
X42989Y-16798D01*
X42989Y-16834D01*
X42977Y-16858D01*
X42965Y-16870D01*
X42941Y-16882D01*
X42846Y-16882D01*
X43227Y-17001D02*
X43084Y-17001D01*
X43155Y-17001D02*
X43155Y-16751D01*
X43132Y-16786D01*
X43108Y-16810D01*
X43084Y-16822D01*
X43465Y-17001D02*
X43322Y-17001D01*
X43394Y-17001D02*
X43394Y-16751D01*
X43370Y-16786D01*
X43346Y-16810D01*
X43322Y-16822D01*
X45508Y-32351D02*
X45425Y-32232D01*
X45365Y-32351D02*
X45365Y-32101D01*
X45460Y-32101D01*
X45484Y-32113D01*
X45496Y-32125D01*
X45508Y-32148D01*
X45508Y-32184D01*
X45496Y-32208D01*
X45484Y-32220D01*
X45460Y-32232D01*
X45365Y-32232D01*
X45722Y-32101D02*
X45675Y-32101D01*
X45651Y-32113D01*
X45639Y-32125D01*
X45615Y-32160D01*
X45603Y-32208D01*
X45603Y-32303D01*
X45615Y-32327D01*
X45627Y-32339D01*
X45651Y-32351D01*
X45698Y-32351D01*
X45722Y-32339D01*
X45734Y-32327D01*
X45746Y-32303D01*
X45746Y-32244D01*
X45734Y-32220D01*
X45722Y-32208D01*
X45698Y-32196D01*
X45651Y-32196D01*
X45627Y-32208D01*
X45615Y-32220D01*
X45603Y-32244D01*
X35608Y-33127D02*
X35596Y-33139D01*
X35560Y-33151D01*
X35536Y-33151D01*
X35501Y-33139D01*
X35477Y-33115D01*
X35465Y-33091D01*
X35453Y-33044D01*
X35453Y-33008D01*
X35465Y-32960D01*
X35477Y-32936D01*
X35501Y-32913D01*
X35536Y-32901D01*
X35560Y-32901D01*
X35596Y-32913D01*
X35608Y-32925D01*
X35834Y-32901D02*
X35715Y-32901D01*
X35703Y-33020D01*
X35715Y-33008D01*
X35739Y-32996D01*
X35798Y-32996D01*
X35822Y-33008D01*
X35834Y-33020D01*
X35846Y-33044D01*
X35846Y-33103D01*
X35834Y-33127D01*
X35822Y-33139D01*
X35798Y-33151D01*
X35739Y-33151D01*
X35715Y-33139D01*
X35703Y-33127D01*
X36058Y-30827D02*
X36046Y-30839D01*
X36010Y-30851D01*
X35986Y-30851D01*
X35951Y-30839D01*
X35927Y-30815D01*
X35915Y-30791D01*
X35903Y-30744D01*
X35903Y-30708D01*
X35915Y-30660D01*
X35927Y-30636D01*
X35951Y-30613D01*
X35986Y-30601D01*
X36010Y-30601D01*
X36046Y-30613D01*
X36058Y-30625D01*
X36153Y-30625D02*
X36165Y-30613D01*
X36189Y-30601D01*
X36248Y-30601D01*
X36272Y-30613D01*
X36284Y-30625D01*
X36296Y-30648D01*
X36296Y-30672D01*
X36284Y-30708D01*
X36141Y-30851D01*
X36296Y-30851D01*
X30008Y-26077D02*
X29996Y-26089D01*
X29960Y-26101D01*
X29936Y-26101D01*
X29901Y-26089D01*
X29877Y-26065D01*
X29865Y-26041D01*
X29853Y-25994D01*
X29853Y-25958D01*
X29865Y-25910D01*
X29877Y-25886D01*
X29901Y-25863D01*
X29936Y-25851D01*
X29960Y-25851D01*
X29996Y-25863D01*
X30008Y-25875D01*
X30222Y-25934D02*
X30222Y-26101D01*
X30163Y-25839D02*
X30103Y-26017D01*
X30258Y-26017D01*
X26758Y-26777D02*
X26746Y-26789D01*
X26710Y-26801D01*
X26686Y-26801D01*
X26651Y-26789D01*
X26627Y-26765D01*
X26615Y-26741D01*
X26603Y-26694D01*
X26603Y-26658D01*
X26615Y-26610D01*
X26627Y-26586D01*
X26651Y-26563D01*
X26686Y-26551D01*
X26710Y-26551D01*
X26746Y-26563D01*
X26758Y-26575D01*
X26901Y-26658D02*
X26877Y-26646D01*
X26865Y-26634D01*
X26853Y-26610D01*
X26853Y-26598D01*
X26865Y-26575D01*
X26877Y-26563D01*
X26901Y-26551D01*
X26948Y-26551D01*
X26972Y-26563D01*
X26984Y-26575D01*
X26996Y-26598D01*
X26996Y-26610D01*
X26984Y-26634D01*
X26972Y-26646D01*
X26948Y-26658D01*
X26901Y-26658D01*
X26877Y-26670D01*
X26865Y-26682D01*
X26853Y-26705D01*
X26853Y-26753D01*
X26865Y-26777D01*
X26877Y-26789D01*
X26901Y-26801D01*
X26948Y-26801D01*
X26972Y-26789D01*
X26984Y-26777D01*
X26996Y-26753D01*
X26996Y-26705D01*
X26984Y-26682D01*
X26972Y-26670D01*
X26948Y-26658D01*
X29658Y-32377D02*
X29646Y-32389D01*
X29610Y-32401D01*
X29586Y-32401D01*
X29551Y-32389D01*
X29527Y-32365D01*
X29515Y-32341D01*
X29503Y-32294D01*
X29503Y-32258D01*
X29515Y-32210D01*
X29527Y-32186D01*
X29551Y-32163D01*
X29586Y-32151D01*
X29610Y-32151D01*
X29646Y-32163D01*
X29658Y-32175D01*
X29777Y-32401D02*
X29825Y-32401D01*
X29848Y-32389D01*
X29860Y-32377D01*
X29884Y-32341D01*
X29896Y-32294D01*
X29896Y-32198D01*
X29884Y-32175D01*
X29872Y-32163D01*
X29848Y-32151D01*
X29801Y-32151D01*
X29777Y-32163D01*
X29765Y-32175D01*
X29753Y-32198D01*
X29753Y-32258D01*
X29765Y-32282D01*
X29777Y-32294D01*
X29801Y-32305D01*
X29848Y-32305D01*
X29872Y-32294D01*
X29884Y-32282D01*
X29896Y-32258D01*
X33158Y-30277D02*
X33146Y-30289D01*
X33110Y-30301D01*
X33086Y-30301D01*
X33051Y-30289D01*
X33027Y-30265D01*
X33015Y-30241D01*
X33003Y-30194D01*
X33003Y-30158D01*
X33015Y-30110D01*
X33027Y-30086D01*
X33051Y-30063D01*
X33086Y-30051D01*
X33110Y-30051D01*
X33146Y-30063D01*
X33158Y-30075D01*
X33241Y-30051D02*
X33396Y-30051D01*
X33313Y-30146D01*
X33348Y-30146D01*
X33372Y-30158D01*
X33384Y-30170D01*
X33396Y-30194D01*
X33396Y-30253D01*
X33384Y-30277D01*
X33372Y-30289D01*
X33348Y-30301D01*
X33277Y-30301D01*
X33253Y-30289D01*
X33241Y-30277D01*
X32308Y-36001D02*
X32225Y-35882D01*
X32165Y-36001D02*
X32165Y-35751D01*
X32260Y-35751D01*
X32284Y-35763D01*
X32296Y-35775D01*
X32308Y-35798D01*
X32308Y-35834D01*
X32296Y-35858D01*
X32284Y-35870D01*
X32260Y-35882D01*
X32165Y-35882D01*
X32546Y-36001D02*
X32403Y-36001D01*
X32475Y-36001D02*
X32475Y-35751D01*
X32451Y-35786D01*
X32427Y-35810D01*
X32403Y-35822D01*
X32089Y-36777D02*
X32077Y-36789D01*
X32041Y-36801D01*
X32017Y-36801D01*
X31982Y-36789D01*
X31958Y-36765D01*
X31946Y-36741D01*
X31934Y-36694D01*
X31934Y-36658D01*
X31946Y-36610D01*
X31958Y-36586D01*
X31982Y-36563D01*
X32017Y-36551D01*
X32041Y-36551D01*
X32077Y-36563D01*
X32089Y-36575D01*
X32327Y-36801D02*
X32184Y-36801D01*
X32255Y-36801D02*
X32255Y-36551D01*
X32232Y-36586D01*
X32208Y-36610D01*
X32184Y-36622D01*
X32565Y-36801D02*
X32422Y-36801D01*
X32494Y-36801D02*
X32494Y-36551D01*
X32470Y-36586D01*
X32446Y-36610D01*
X32422Y-36622D01*
X28939Y-23077D02*
X28927Y-23089D01*
X28891Y-23101D01*
X28867Y-23101D01*
X28832Y-23089D01*
X28808Y-23065D01*
X28796Y-23041D01*
X28784Y-22994D01*
X28784Y-22958D01*
X28796Y-22910D01*
X28808Y-22886D01*
X28832Y-22863D01*
X28867Y-22851D01*
X28891Y-22851D01*
X28927Y-22863D01*
X28939Y-22875D01*
X29177Y-23101D02*
X29034Y-23101D01*
X29105Y-23101D02*
X29105Y-22851D01*
X29082Y-22886D01*
X29058Y-22910D01*
X29034Y-22922D01*
X29391Y-22851D02*
X29344Y-22851D01*
X29320Y-22863D01*
X29308Y-22875D01*
X29284Y-22910D01*
X29272Y-22958D01*
X29272Y-23053D01*
X29284Y-23077D01*
X29296Y-23089D01*
X29320Y-23101D01*
X29367Y-23101D01*
X29391Y-23089D01*
X29403Y-23077D01*
X29415Y-23053D01*
X29415Y-22994D01*
X29403Y-22970D01*
X29391Y-22958D01*
X29367Y-22946D01*
X29320Y-22946D01*
X29296Y-22958D01*
X29284Y-22970D01*
X29272Y-22994D01*
X34989Y-24627D02*
X34977Y-24639D01*
X34941Y-24651D01*
X34917Y-24651D01*
X34882Y-24639D01*
X34858Y-24615D01*
X34846Y-24591D01*
X34834Y-24544D01*
X34834Y-24508D01*
X34846Y-24460D01*
X34858Y-24436D01*
X34882Y-24413D01*
X34917Y-24401D01*
X34941Y-24401D01*
X34977Y-24413D01*
X34989Y-24425D01*
X35227Y-24651D02*
X35084Y-24651D01*
X35155Y-24651D02*
X35155Y-24401D01*
X35132Y-24436D01*
X35108Y-24460D01*
X35084Y-24472D01*
X35310Y-24401D02*
X35477Y-24401D01*
X35370Y-24651D01*
X35839Y-24627D02*
X35827Y-24639D01*
X35791Y-24651D01*
X35767Y-24651D01*
X35732Y-24639D01*
X35708Y-24615D01*
X35696Y-24591D01*
X35684Y-24544D01*
X35684Y-24508D01*
X35696Y-24460D01*
X35708Y-24436D01*
X35732Y-24413D01*
X35767Y-24401D01*
X35791Y-24401D01*
X35827Y-24413D01*
X35839Y-24425D01*
X36077Y-24651D02*
X35934Y-24651D01*
X36005Y-24651D02*
X36005Y-24401D01*
X35982Y-24436D01*
X35958Y-24460D01*
X35934Y-24472D01*
X36220Y-24508D02*
X36196Y-24496D01*
X36184Y-24484D01*
X36172Y-24460D01*
X36172Y-24448D01*
X36184Y-24425D01*
X36196Y-24413D01*
X36220Y-24401D01*
X36267Y-24401D01*
X36291Y-24413D01*
X36303Y-24425D01*
X36315Y-24448D01*
X36315Y-24460D01*
X36303Y-24484D01*
X36291Y-24496D01*
X36267Y-24508D01*
X36220Y-24508D01*
X36196Y-24520D01*
X36184Y-24532D01*
X36172Y-24555D01*
X36172Y-24603D01*
X36184Y-24627D01*
X36196Y-24639D01*
X36220Y-24651D01*
X36267Y-24651D01*
X36291Y-24639D01*
X36303Y-24627D01*
X36315Y-24603D01*
X36315Y-24555D01*
X36303Y-24532D01*
X36291Y-24520D01*
X36267Y-24508D01*
X44158Y-33901D02*
X44075Y-33782D01*
X44015Y-33901D02*
X44015Y-33651D01*
X44110Y-33651D01*
X44134Y-33663D01*
X44146Y-33675D01*
X44158Y-33698D01*
X44158Y-33734D01*
X44146Y-33758D01*
X44134Y-33770D01*
X44110Y-33782D01*
X44015Y-33782D01*
X44372Y-33734D02*
X44372Y-33901D01*
X44313Y-33639D02*
X44253Y-33817D01*
X44408Y-33817D01*
X42658Y-32601D02*
X42575Y-32482D01*
X42515Y-32601D02*
X42515Y-32351D01*
X42610Y-32351D01*
X42634Y-32363D01*
X42646Y-32375D01*
X42658Y-32398D01*
X42658Y-32434D01*
X42646Y-32458D01*
X42634Y-32470D01*
X42610Y-32482D01*
X42515Y-32482D01*
X42741Y-32351D02*
X42896Y-32351D01*
X42813Y-32446D01*
X42848Y-32446D01*
X42872Y-32458D01*
X42884Y-32470D01*
X42896Y-32494D01*
X42896Y-32553D01*
X42884Y-32577D01*
X42872Y-32589D01*
X42848Y-32601D01*
X42777Y-32601D01*
X42753Y-32589D01*
X42741Y-32577D01*
G54D10*
X31812Y-24196D02*
X31775Y-24178D01*
X31737Y-24140D01*
X31681Y-24084D01*
X31643Y-24065D01*
X31606Y-24065D01*
X31625Y-24159D02*
X31587Y-24140D01*
X31550Y-24103D01*
X31531Y-24028D01*
X31531Y-23896D01*
X31550Y-23821D01*
X31587Y-23784D01*
X31625Y-23765D01*
X31700Y-23765D01*
X31737Y-23784D01*
X31775Y-23821D01*
X31793Y-23896D01*
X31793Y-24028D01*
X31775Y-24103D01*
X31737Y-24140D01*
X31700Y-24159D01*
X31625Y-24159D01*
X32168Y-24159D02*
X31943Y-24159D01*
X32056Y-24159D02*
X32056Y-23765D01*
X32018Y-23821D01*
X31981Y-23859D01*
X31943Y-23878D01*
X35259Y-21284D02*
X35071Y-21415D01*
X35259Y-21509D02*
X34865Y-21509D01*
X34865Y-21359D01*
X34884Y-21321D01*
X34903Y-21303D01*
X34940Y-21284D01*
X34996Y-21284D01*
X35034Y-21303D01*
X35053Y-21321D01*
X35071Y-21359D01*
X35071Y-21509D01*
X35053Y-21115D02*
X35053Y-20984D01*
X35259Y-20928D02*
X35259Y-21115D01*
X34865Y-21115D01*
X34865Y-20928D01*
X35221Y-20534D02*
X35240Y-20553D01*
X35259Y-20609D01*
X35259Y-20646D01*
X35240Y-20703D01*
X35203Y-20740D01*
X35165Y-20759D01*
X35090Y-20778D01*
X35034Y-20778D01*
X34959Y-20759D01*
X34921Y-20740D01*
X34884Y-20703D01*
X34865Y-20646D01*
X34865Y-20609D01*
X34884Y-20553D01*
X34903Y-20534D01*
X34865Y-20290D02*
X34865Y-20215D01*
X34884Y-20178D01*
X34921Y-20140D01*
X34996Y-20121D01*
X35128Y-20121D01*
X35203Y-20140D01*
X35240Y-20178D01*
X35259Y-20215D01*
X35259Y-20290D01*
X35240Y-20328D01*
X35203Y-20365D01*
X35128Y-20384D01*
X34996Y-20384D01*
X34921Y-20365D01*
X34884Y-20328D01*
X34865Y-20290D01*
X35259Y-19953D02*
X34865Y-19953D01*
X35146Y-19821D01*
X34865Y-19690D01*
X35259Y-19690D01*
X33653Y-21962D02*
X33634Y-21943D01*
X33615Y-21906D01*
X33615Y-21812D01*
X33634Y-21775D01*
X33653Y-21756D01*
X33690Y-21737D01*
X33728Y-21737D01*
X33784Y-21756D01*
X34009Y-21981D01*
X34009Y-21737D01*
X33615Y-22981D02*
X33615Y-22737D01*
X33765Y-22868D01*
X33765Y-22812D01*
X33784Y-22775D01*
X33803Y-22756D01*
X33840Y-22737D01*
X33934Y-22737D01*
X33971Y-22756D01*
X33990Y-22775D01*
X34009Y-22812D01*
X34009Y-22924D01*
X33990Y-22962D01*
X33971Y-22981D01*
X34009Y-20737D02*
X34009Y-20962D01*
X34009Y-20850D02*
X33615Y-20850D01*
X33671Y-20887D01*
X33709Y-20924D01*
X33728Y-20962D01*
G54D15*
X45565Y-30509D02*
X45565Y-30115D01*
X45978Y-30471D02*
X45959Y-30490D01*
X45903Y-30509D01*
X45865Y-30509D01*
X45809Y-30490D01*
X45771Y-30453D01*
X45753Y-30415D01*
X45734Y-30340D01*
X45734Y-30284D01*
X45753Y-30209D01*
X45771Y-30171D01*
X45809Y-30134D01*
X45865Y-30115D01*
X45903Y-30115D01*
X45959Y-30134D01*
X45978Y-30153D01*
X46353Y-30509D02*
X46128Y-30509D01*
X46240Y-30509D02*
X46240Y-30115D01*
X46203Y-30171D01*
X46165Y-30209D01*
X46128Y-30228D01*
G54D12*
X43808Y-29546D02*
X43996Y-29546D01*
X43771Y-29659D02*
X43902Y-29265D01*
X44033Y-29659D01*
X44165Y-29659D02*
X44165Y-29265D01*
X44258Y-29265D01*
X44315Y-29284D01*
X44352Y-29321D01*
X44371Y-29359D01*
X44390Y-29434D01*
X44390Y-29490D01*
X44371Y-29565D01*
X44352Y-29603D01*
X44315Y-29640D01*
X44258Y-29659D01*
X44165Y-29659D01*
X44615Y-29434D02*
X44577Y-29415D01*
X44559Y-29396D01*
X44540Y-29359D01*
X44540Y-29340D01*
X44559Y-29303D01*
X44577Y-29284D01*
X44615Y-29265D01*
X44690Y-29265D01*
X44728Y-29284D01*
X44746Y-29303D01*
X44765Y-29340D01*
X44765Y-29359D01*
X44746Y-29396D01*
X44728Y-29415D01*
X44690Y-29434D01*
X44615Y-29434D01*
X44577Y-29453D01*
X44559Y-29471D01*
X44540Y-29509D01*
X44540Y-29584D01*
X44559Y-29621D01*
X44577Y-29640D01*
X44615Y-29659D01*
X44690Y-29659D01*
X44728Y-29640D01*
X44746Y-29621D01*
X44765Y-29584D01*
X44765Y-29509D01*
X44746Y-29471D01*
X44728Y-29453D01*
X44690Y-29434D01*
X45103Y-29265D02*
X45028Y-29265D01*
X44990Y-29284D01*
X44971Y-29303D01*
X44934Y-29359D01*
X44915Y-29434D01*
X44915Y-29584D01*
X44934Y-29621D01*
X44953Y-29640D01*
X44990Y-29659D01*
X45065Y-29659D01*
X45103Y-29640D01*
X45122Y-29621D01*
X45140Y-29584D01*
X45140Y-29490D01*
X45122Y-29453D01*
X45103Y-29434D01*
X45065Y-29415D01*
X44990Y-29415D01*
X44953Y-29434D01*
X44934Y-29453D01*
X44915Y-29490D01*
X45478Y-29265D02*
X45403Y-29265D01*
X45365Y-29284D01*
X45347Y-29303D01*
X45309Y-29359D01*
X45290Y-29434D01*
X45290Y-29584D01*
X45309Y-29621D01*
X45328Y-29640D01*
X45365Y-29659D01*
X45441Y-29659D01*
X45478Y-29640D01*
X45497Y-29621D01*
X45516Y-29584D01*
X45516Y-29490D01*
X45497Y-29453D01*
X45478Y-29434D01*
X45441Y-29415D01*
X45365Y-29415D01*
X45328Y-29434D01*
X45309Y-29453D01*
X45290Y-29490D01*
X45666Y-29303D02*
X45684Y-29284D01*
X45722Y-29265D01*
X45816Y-29265D01*
X45853Y-29284D01*
X45872Y-29303D01*
X45891Y-29340D01*
X45891Y-29378D01*
X45872Y-29434D01*
X45647Y-29659D01*
X45891Y-29659D01*
G54D17*
X23264Y-27235D02*
X23235Y-27264D01*
X23150Y-27292D01*
X23092Y-27292D01*
X23007Y-27264D01*
X22950Y-27207D01*
X22921Y-27150D01*
X22892Y-27035D01*
X22892Y-26950D01*
X22921Y-26835D01*
X22950Y-26778D01*
X23007Y-26721D01*
X23092Y-26692D01*
X23150Y-26692D01*
X23235Y-26721D01*
X23264Y-26750D01*
X23835Y-27292D02*
X23492Y-27292D01*
X23664Y-27292D02*
X23664Y-26692D01*
X23607Y-26778D01*
X23550Y-26835D01*
X23492Y-26864D01*
X24350Y-26892D02*
X24350Y-27292D01*
X24207Y-26664D02*
X24064Y-27092D01*
X24435Y-27092D01*
G54D10*
X26731Y-29165D02*
X26993Y-29559D01*
X26993Y-29165D02*
X26731Y-29559D01*
X27349Y-29559D02*
X27124Y-29559D01*
X27237Y-29559D02*
X27237Y-29165D01*
X27199Y-29221D01*
X27162Y-29259D01*
X27124Y-29278D01*
X27537Y-27384D02*
X27500Y-27365D01*
X27481Y-27346D01*
X27462Y-27309D01*
X27462Y-27290D01*
X27481Y-27253D01*
X27500Y-27234D01*
X27537Y-27215D01*
X27612Y-27215D01*
X27650Y-27234D01*
X27668Y-27253D01*
X27687Y-27290D01*
X27687Y-27309D01*
X27668Y-27346D01*
X27650Y-27365D01*
X27612Y-27384D01*
X27537Y-27384D01*
X27500Y-27403D01*
X27481Y-27421D01*
X27462Y-27459D01*
X27462Y-27534D01*
X27481Y-27571D01*
X27500Y-27590D01*
X27537Y-27609D01*
X27612Y-27609D01*
X27650Y-27590D01*
X27668Y-27571D01*
X27687Y-27534D01*
X27687Y-27459D01*
X27668Y-27421D01*
X27650Y-27403D01*
X27612Y-27384D01*
X27856Y-27571D02*
X27875Y-27590D01*
X27856Y-27609D01*
X27837Y-27590D01*
X27856Y-27571D01*
X27856Y-27609D01*
X28250Y-27609D02*
X28025Y-27609D01*
X28137Y-27609D02*
X28137Y-27215D01*
X28100Y-27271D01*
X28062Y-27309D01*
X28025Y-27328D01*
X28437Y-27609D02*
X28512Y-27609D01*
X28550Y-27590D01*
X28568Y-27571D01*
X28606Y-27515D01*
X28625Y-27440D01*
X28625Y-27290D01*
X28606Y-27253D01*
X28587Y-27234D01*
X28550Y-27215D01*
X28475Y-27215D01*
X28437Y-27234D01*
X28418Y-27253D01*
X28400Y-27290D01*
X28400Y-27384D01*
X28418Y-27421D01*
X28437Y-27440D01*
X28475Y-27459D01*
X28550Y-27459D01*
X28587Y-27440D01*
X28606Y-27421D01*
X28625Y-27384D01*
X28775Y-27253D02*
X28793Y-27234D01*
X28831Y-27215D01*
X28925Y-27215D01*
X28962Y-27234D01*
X28981Y-27253D01*
X29000Y-27290D01*
X29000Y-27328D01*
X28981Y-27384D01*
X28756Y-27609D01*
X29000Y-27609D01*
X29468Y-27609D02*
X29468Y-27215D01*
X29599Y-27496D01*
X29731Y-27215D01*
X29731Y-27609D01*
X29918Y-27609D02*
X29918Y-27215D01*
X29918Y-27403D02*
X30143Y-27403D01*
X30143Y-27609D02*
X30143Y-27215D01*
X30293Y-27215D02*
X30556Y-27215D01*
X30293Y-27609D01*
X30556Y-27609D01*
G54D18*
X44782Y-18313D02*
X44753Y-18298D01*
X44725Y-18270D01*
X44682Y-18227D01*
X44653Y-18213D01*
X44625Y-18213D01*
X44639Y-18284D02*
X44611Y-18270D01*
X44582Y-18241D01*
X44568Y-18184D01*
X44568Y-18084D01*
X44582Y-18027D01*
X44611Y-17998D01*
X44639Y-17984D01*
X44696Y-17984D01*
X44725Y-17998D01*
X44753Y-18027D01*
X44768Y-18084D01*
X44768Y-18184D01*
X44753Y-18241D01*
X44725Y-18270D01*
X44696Y-18284D01*
X44639Y-18284D01*
X45025Y-18084D02*
X45025Y-18284D01*
X44953Y-17970D02*
X44882Y-18184D01*
X45068Y-18184D01*
X44826Y-19290D02*
X44835Y-19262D01*
X44845Y-19253D01*
X44864Y-19243D01*
X44892Y-19243D01*
X44910Y-19253D01*
X44920Y-19262D01*
X44929Y-19281D01*
X44929Y-19356D01*
X44732Y-19356D01*
X44732Y-19290D01*
X44742Y-19272D01*
X44751Y-19262D01*
X44770Y-19253D01*
X44789Y-19253D01*
X44807Y-19262D01*
X44817Y-19272D01*
X44826Y-19290D01*
X44826Y-19356D01*
X44910Y-19046D02*
X44920Y-19056D01*
X44929Y-19084D01*
X44929Y-19103D01*
X44920Y-19131D01*
X44901Y-19150D01*
X44882Y-19159D01*
X44845Y-19168D01*
X44817Y-19168D01*
X44779Y-19159D01*
X44760Y-19150D01*
X44742Y-19131D01*
X44732Y-19103D01*
X44732Y-19084D01*
X44742Y-19056D01*
X44751Y-19046D01*
X44817Y-18934D02*
X44807Y-18953D01*
X44798Y-18962D01*
X44779Y-18971D01*
X44770Y-18971D01*
X44751Y-18962D01*
X44742Y-18953D01*
X44732Y-18934D01*
X44732Y-18896D01*
X44742Y-18878D01*
X44751Y-18868D01*
X44770Y-18859D01*
X44779Y-18859D01*
X44798Y-18868D01*
X44807Y-18878D01*
X44817Y-18896D01*
X44817Y-18934D01*
X44826Y-18953D01*
X44835Y-18962D01*
X44854Y-18971D01*
X44892Y-18971D01*
X44910Y-18962D01*
X44920Y-18953D01*
X44929Y-18934D01*
X44929Y-18896D01*
X44920Y-18878D01*
X44910Y-18868D01*
X44892Y-18859D01*
X44854Y-18859D01*
X44835Y-18868D01*
X44826Y-18878D01*
X44817Y-18896D01*
X44798Y-18690D02*
X44929Y-18690D01*
X44723Y-18737D02*
X44864Y-18784D01*
X44864Y-18662D01*
X44732Y-18502D02*
X44732Y-18540D01*
X44742Y-18559D01*
X44751Y-18568D01*
X44779Y-18587D01*
X44817Y-18596D01*
X44892Y-18596D01*
X44910Y-18587D01*
X44920Y-18577D01*
X44929Y-18559D01*
X44929Y-18521D01*
X44920Y-18502D01*
X44910Y-18493D01*
X44892Y-18484D01*
X44845Y-18484D01*
X44826Y-18493D01*
X44817Y-18502D01*
X44807Y-18521D01*
X44807Y-18559D01*
X44817Y-18577D01*
X44826Y-18587D01*
X44845Y-18596D01*
X46982Y-18313D02*
X46953Y-18298D01*
X46925Y-18270D01*
X46882Y-18227D01*
X46853Y-18213D01*
X46825Y-18213D01*
X46839Y-18284D02*
X46811Y-18270D01*
X46782Y-18241D01*
X46768Y-18184D01*
X46768Y-18084D01*
X46782Y-18027D01*
X46811Y-17998D01*
X46839Y-17984D01*
X46896Y-17984D01*
X46925Y-17998D01*
X46953Y-18027D01*
X46968Y-18084D01*
X46968Y-18184D01*
X46953Y-18241D01*
X46925Y-18270D01*
X46896Y-18284D01*
X46839Y-18284D01*
X47239Y-17984D02*
X47096Y-17984D01*
X47082Y-18127D01*
X47096Y-18113D01*
X47125Y-18098D01*
X47196Y-18098D01*
X47225Y-18113D01*
X47239Y-18127D01*
X47253Y-18155D01*
X47253Y-18227D01*
X47239Y-18255D01*
X47225Y-18270D01*
X47196Y-18284D01*
X47125Y-18284D01*
X47096Y-18270D01*
X47082Y-18255D01*
X47026Y-19290D02*
X47035Y-19262D01*
X47045Y-19253D01*
X47064Y-19243D01*
X47092Y-19243D01*
X47110Y-19253D01*
X47120Y-19262D01*
X47129Y-19281D01*
X47129Y-19356D01*
X46932Y-19356D01*
X46932Y-19290D01*
X46942Y-19272D01*
X46951Y-19262D01*
X46970Y-19253D01*
X46989Y-19253D01*
X47007Y-19262D01*
X47017Y-19272D01*
X47026Y-19290D01*
X47026Y-19356D01*
X47110Y-19046D02*
X47120Y-19056D01*
X47129Y-19084D01*
X47129Y-19103D01*
X47120Y-19131D01*
X47101Y-19150D01*
X47082Y-19159D01*
X47045Y-19168D01*
X47017Y-19168D01*
X46979Y-19159D01*
X46960Y-19150D01*
X46942Y-19131D01*
X46932Y-19103D01*
X46932Y-19084D01*
X46942Y-19056D01*
X46951Y-19046D01*
X47017Y-18934D02*
X47007Y-18953D01*
X46998Y-18962D01*
X46979Y-18971D01*
X46970Y-18971D01*
X46951Y-18962D01*
X46942Y-18953D01*
X46932Y-18934D01*
X46932Y-18896D01*
X46942Y-18878D01*
X46951Y-18868D01*
X46970Y-18859D01*
X46979Y-18859D01*
X46998Y-18868D01*
X47007Y-18878D01*
X47017Y-18896D01*
X47017Y-18934D01*
X47026Y-18953D01*
X47035Y-18962D01*
X47054Y-18971D01*
X47092Y-18971D01*
X47110Y-18962D01*
X47120Y-18953D01*
X47129Y-18934D01*
X47129Y-18896D01*
X47120Y-18878D01*
X47110Y-18868D01*
X47092Y-18859D01*
X47054Y-18859D01*
X47035Y-18868D01*
X47026Y-18878D01*
X47017Y-18896D01*
X46932Y-18681D02*
X46932Y-18774D01*
X47026Y-18784D01*
X47017Y-18774D01*
X47007Y-18756D01*
X47007Y-18709D01*
X47017Y-18690D01*
X47026Y-18681D01*
X47045Y-18671D01*
X47092Y-18671D01*
X47110Y-18681D01*
X47120Y-18690D01*
X47129Y-18709D01*
X47129Y-18756D01*
X47120Y-18774D01*
X47110Y-18784D01*
X46932Y-18502D02*
X46932Y-18540D01*
X46942Y-18559D01*
X46951Y-18568D01*
X46979Y-18587D01*
X47017Y-18596D01*
X47092Y-18596D01*
X47110Y-18587D01*
X47120Y-18577D01*
X47129Y-18559D01*
X47129Y-18521D01*
X47120Y-18502D01*
X47110Y-18493D01*
X47092Y-18484D01*
X47045Y-18484D01*
X47026Y-18493D01*
X47017Y-18502D01*
X47007Y-18521D01*
X47007Y-18559D01*
X47017Y-18577D01*
X47026Y-18587D01*
X47045Y-18596D01*
X40782Y-18313D02*
X40753Y-18298D01*
X40725Y-18270D01*
X40682Y-18227D01*
X40653Y-18213D01*
X40625Y-18213D01*
X40639Y-18284D02*
X40611Y-18270D01*
X40582Y-18241D01*
X40568Y-18184D01*
X40568Y-18084D01*
X40582Y-18027D01*
X40611Y-17998D01*
X40639Y-17984D01*
X40696Y-17984D01*
X40725Y-17998D01*
X40753Y-18027D01*
X40768Y-18084D01*
X40768Y-18184D01*
X40753Y-18241D01*
X40725Y-18270D01*
X40696Y-18284D01*
X40639Y-18284D01*
X40882Y-18013D02*
X40896Y-17998D01*
X40925Y-17984D01*
X40996Y-17984D01*
X41025Y-17998D01*
X41039Y-18013D01*
X41053Y-18041D01*
X41053Y-18070D01*
X41039Y-18113D01*
X40868Y-18284D01*
X41053Y-18284D01*
X40826Y-19315D02*
X40835Y-19287D01*
X40845Y-19278D01*
X40864Y-19268D01*
X40892Y-19268D01*
X40910Y-19278D01*
X40920Y-19287D01*
X40929Y-19306D01*
X40929Y-19381D01*
X40732Y-19381D01*
X40732Y-19315D01*
X40742Y-19297D01*
X40751Y-19287D01*
X40770Y-19278D01*
X40789Y-19278D01*
X40807Y-19287D01*
X40817Y-19297D01*
X40826Y-19315D01*
X40826Y-19381D01*
X40910Y-19071D02*
X40920Y-19081D01*
X40929Y-19109D01*
X40929Y-19128D01*
X40920Y-19156D01*
X40901Y-19175D01*
X40882Y-19184D01*
X40845Y-19193D01*
X40817Y-19193D01*
X40779Y-19184D01*
X40760Y-19175D01*
X40742Y-19156D01*
X40732Y-19128D01*
X40732Y-19109D01*
X40742Y-19081D01*
X40751Y-19071D01*
X40817Y-18959D02*
X40807Y-18978D01*
X40798Y-18987D01*
X40779Y-18996D01*
X40770Y-18996D01*
X40751Y-18987D01*
X40742Y-18978D01*
X40732Y-18959D01*
X40732Y-18921D01*
X40742Y-18903D01*
X40751Y-18893D01*
X40770Y-18884D01*
X40779Y-18884D01*
X40798Y-18893D01*
X40807Y-18903D01*
X40817Y-18921D01*
X40817Y-18959D01*
X40826Y-18978D01*
X40835Y-18987D01*
X40854Y-18996D01*
X40892Y-18996D01*
X40910Y-18987D01*
X40920Y-18978D01*
X40929Y-18959D01*
X40929Y-18921D01*
X40920Y-18903D01*
X40910Y-18893D01*
X40892Y-18884D01*
X40854Y-18884D01*
X40835Y-18893D01*
X40826Y-18903D01*
X40817Y-18921D01*
X40798Y-18715D02*
X40929Y-18715D01*
X40723Y-18762D02*
X40864Y-18809D01*
X40864Y-18687D01*
X40732Y-18527D02*
X40732Y-18565D01*
X40742Y-18584D01*
X40751Y-18593D01*
X40779Y-18612D01*
X40817Y-18621D01*
X40892Y-18621D01*
X40910Y-18612D01*
X40920Y-18602D01*
X40929Y-18584D01*
X40929Y-18546D01*
X40920Y-18527D01*
X40910Y-18518D01*
X40892Y-18509D01*
X40845Y-18509D01*
X40826Y-18518D01*
X40817Y-18527D01*
X40807Y-18546D01*
X40807Y-18584D01*
X40817Y-18602D01*
X40826Y-18612D01*
X40845Y-18621D01*
X42982Y-18313D02*
X42953Y-18298D01*
X42925Y-18270D01*
X42882Y-18227D01*
X42853Y-18213D01*
X42825Y-18213D01*
X42839Y-18284D02*
X42811Y-18270D01*
X42782Y-18241D01*
X42768Y-18184D01*
X42768Y-18084D01*
X42782Y-18027D01*
X42811Y-17998D01*
X42839Y-17984D01*
X42896Y-17984D01*
X42925Y-17998D01*
X42953Y-18027D01*
X42968Y-18084D01*
X42968Y-18184D01*
X42953Y-18241D01*
X42925Y-18270D01*
X42896Y-18284D01*
X42839Y-18284D01*
X43068Y-17984D02*
X43253Y-17984D01*
X43153Y-18098D01*
X43196Y-18098D01*
X43225Y-18113D01*
X43239Y-18127D01*
X43253Y-18155D01*
X43253Y-18227D01*
X43239Y-18255D01*
X43225Y-18270D01*
X43196Y-18284D01*
X43111Y-18284D01*
X43082Y-18270D01*
X43068Y-18255D01*
X43026Y-19290D02*
X43035Y-19262D01*
X43045Y-19253D01*
X43064Y-19243D01*
X43092Y-19243D01*
X43110Y-19253D01*
X43120Y-19262D01*
X43129Y-19281D01*
X43129Y-19356D01*
X42932Y-19356D01*
X42932Y-19290D01*
X42942Y-19272D01*
X42951Y-19262D01*
X42970Y-19253D01*
X42989Y-19253D01*
X43007Y-19262D01*
X43017Y-19272D01*
X43026Y-19290D01*
X43026Y-19356D01*
X43110Y-19046D02*
X43120Y-19056D01*
X43129Y-19084D01*
X43129Y-19103D01*
X43120Y-19131D01*
X43101Y-19150D01*
X43082Y-19159D01*
X43045Y-19168D01*
X43017Y-19168D01*
X42979Y-19159D01*
X42960Y-19150D01*
X42942Y-19131D01*
X42932Y-19103D01*
X42932Y-19084D01*
X42942Y-19056D01*
X42951Y-19046D01*
X43017Y-18934D02*
X43007Y-18953D01*
X42998Y-18962D01*
X42979Y-18971D01*
X42970Y-18971D01*
X42951Y-18962D01*
X42942Y-18953D01*
X42932Y-18934D01*
X42932Y-18896D01*
X42942Y-18878D01*
X42951Y-18868D01*
X42970Y-18859D01*
X42979Y-18859D01*
X42998Y-18868D01*
X43007Y-18878D01*
X43017Y-18896D01*
X43017Y-18934D01*
X43026Y-18953D01*
X43035Y-18962D01*
X43054Y-18971D01*
X43092Y-18971D01*
X43110Y-18962D01*
X43120Y-18953D01*
X43129Y-18934D01*
X43129Y-18896D01*
X43120Y-18878D01*
X43110Y-18868D01*
X43092Y-18859D01*
X43054Y-18859D01*
X43035Y-18868D01*
X43026Y-18878D01*
X43017Y-18896D01*
X42932Y-18681D02*
X42932Y-18774D01*
X43026Y-18784D01*
X43017Y-18774D01*
X43007Y-18756D01*
X43007Y-18709D01*
X43017Y-18690D01*
X43026Y-18681D01*
X43045Y-18671D01*
X43092Y-18671D01*
X43110Y-18681D01*
X43120Y-18690D01*
X43129Y-18709D01*
X43129Y-18756D01*
X43120Y-18774D01*
X43110Y-18784D01*
X42932Y-18502D02*
X42932Y-18540D01*
X42942Y-18559D01*
X42951Y-18568D01*
X42979Y-18587D01*
X43017Y-18596D01*
X43092Y-18596D01*
X43110Y-18587D01*
X43120Y-18577D01*
X43129Y-18559D01*
X43129Y-18521D01*
X43120Y-18502D01*
X43110Y-18493D01*
X43092Y-18484D01*
X43045Y-18484D01*
X43026Y-18493D01*
X43017Y-18502D01*
X43007Y-18521D01*
X43007Y-18559D01*
X43017Y-18577D01*
X43026Y-18587D01*
X43045Y-18596D01*
G54D12*
X44539Y-28127D02*
X44527Y-28139D01*
X44491Y-28151D01*
X44467Y-28151D01*
X44432Y-28139D01*
X44408Y-28115D01*
X44396Y-28091D01*
X44384Y-28044D01*
X44384Y-28008D01*
X44396Y-27960D01*
X44408Y-27936D01*
X44432Y-27913D01*
X44467Y-27901D01*
X44491Y-27901D01*
X44527Y-27913D01*
X44539Y-27925D01*
X44777Y-28151D02*
X44634Y-28151D01*
X44705Y-28151D02*
X44705Y-27901D01*
X44682Y-27936D01*
X44658Y-27960D01*
X44634Y-27972D01*
X44896Y-28151D02*
X44944Y-28151D01*
X44967Y-28139D01*
X44979Y-28127D01*
X45003Y-28091D01*
X45015Y-28044D01*
X45015Y-27948D01*
X45003Y-27925D01*
X44991Y-27913D01*
X44967Y-27901D01*
X44920Y-27901D01*
X44896Y-27913D01*
X44884Y-27925D01*
X44872Y-27948D01*
X44872Y-28008D01*
X44884Y-28032D01*
X44896Y-28044D01*
X44920Y-28055D01*
X44967Y-28055D01*
X44991Y-28044D01*
X45003Y-28032D01*
X45015Y-28008D01*
X41015Y-22901D02*
X41015Y-22651D01*
X41075Y-22651D01*
X41110Y-22663D01*
X41134Y-22686D01*
X41146Y-22710D01*
X41158Y-22758D01*
X41158Y-22794D01*
X41146Y-22841D01*
X41134Y-22865D01*
X41110Y-22889D01*
X41075Y-22901D01*
X41015Y-22901D01*
X41396Y-22901D02*
X41253Y-22901D01*
X41325Y-22901D02*
X41325Y-22651D01*
X41301Y-22686D01*
X41277Y-22710D01*
X41253Y-22722D01*
G54D15*
X33904Y-18461D02*
X33904Y-18061D01*
X34133Y-18461D02*
X33961Y-18233D01*
X34133Y-18061D02*
X33904Y-18290D01*
X34285Y-18100D02*
X34304Y-18080D01*
X34342Y-18061D01*
X34438Y-18061D01*
X34476Y-18080D01*
X34495Y-18100D01*
X34514Y-18138D01*
X34514Y-18176D01*
X34495Y-18233D01*
X34266Y-18461D01*
X34514Y-18461D01*
X28104Y-31111D02*
X28104Y-30711D01*
X28333Y-31111D02*
X28161Y-30883D01*
X28333Y-30711D02*
X28104Y-30940D01*
X28714Y-31111D02*
X28485Y-31111D01*
X28600Y-31111D02*
X28600Y-30711D01*
X28561Y-30769D01*
X28523Y-30807D01*
X28485Y-30826D01*
G54D12*
X36450Y-29692D02*
X36435Y-29707D01*
X36392Y-29721D01*
X36364Y-29721D01*
X36321Y-29707D01*
X36292Y-29678D01*
X36278Y-29650D01*
X36264Y-29592D01*
X36264Y-29550D01*
X36278Y-29492D01*
X36292Y-29464D01*
X36321Y-29435D01*
X36364Y-29421D01*
X36392Y-29421D01*
X36435Y-29435D01*
X36450Y-29450D01*
X36707Y-29421D02*
X36650Y-29421D01*
X36621Y-29435D01*
X36607Y-29450D01*
X36578Y-29492D01*
X36564Y-29550D01*
X36564Y-29664D01*
X36578Y-29692D01*
X36592Y-29707D01*
X36621Y-29721D01*
X36678Y-29721D01*
X36707Y-29707D01*
X36721Y-29692D01*
X36735Y-29664D01*
X36735Y-29592D01*
X36721Y-29564D01*
X36707Y-29550D01*
X36678Y-29535D01*
X36621Y-29535D01*
X36592Y-29550D01*
X36578Y-29564D01*
X36564Y-29592D01*
X32400Y-27792D02*
X32385Y-27807D01*
X32342Y-27821D01*
X32314Y-27821D01*
X32271Y-27807D01*
X32242Y-27778D01*
X32228Y-27750D01*
X32214Y-27692D01*
X32214Y-27650D01*
X32228Y-27592D01*
X32242Y-27564D01*
X32271Y-27535D01*
X32314Y-27521D01*
X32342Y-27521D01*
X32385Y-27535D01*
X32400Y-27550D01*
X32500Y-27521D02*
X32700Y-27521D01*
X32571Y-27821D01*
X27807Y-22992D02*
X27792Y-23007D01*
X27750Y-23021D01*
X27721Y-23021D01*
X27678Y-23007D01*
X27650Y-22978D01*
X27635Y-22950D01*
X27621Y-22892D01*
X27621Y-22850D01*
X27635Y-22792D01*
X27650Y-22764D01*
X27678Y-22735D01*
X27721Y-22721D01*
X27750Y-22721D01*
X27792Y-22735D01*
X27807Y-22750D01*
X28092Y-23021D02*
X27921Y-23021D01*
X28007Y-23021D02*
X28007Y-22721D01*
X27978Y-22764D01*
X27950Y-22792D01*
X27921Y-22807D01*
X28364Y-22721D02*
X28221Y-22721D01*
X28207Y-22864D01*
X28221Y-22850D01*
X28250Y-22835D01*
X28321Y-22835D01*
X28350Y-22850D01*
X28364Y-22864D01*
X28378Y-22892D01*
X28378Y-22964D01*
X28364Y-22992D01*
X28350Y-23007D01*
X28321Y-23021D01*
X28250Y-23021D01*
X28221Y-23007D01*
X28207Y-22992D01*
X38050Y-33592D02*
X38035Y-33607D01*
X37992Y-33621D01*
X37964Y-33621D01*
X37921Y-33607D01*
X37892Y-33578D01*
X37878Y-33550D01*
X37864Y-33492D01*
X37864Y-33450D01*
X37878Y-33392D01*
X37892Y-33364D01*
X37921Y-33335D01*
X37964Y-33321D01*
X37992Y-33321D01*
X38035Y-33335D01*
X38050Y-33350D01*
X38335Y-33621D02*
X38164Y-33621D01*
X38250Y-33621D02*
X38250Y-33321D01*
X38221Y-33364D01*
X38192Y-33392D01*
X38164Y-33407D01*
X28307Y-34742D02*
X28292Y-34757D01*
X28250Y-34771D01*
X28221Y-34771D01*
X28178Y-34757D01*
X28150Y-34728D01*
X28135Y-34700D01*
X28121Y-34642D01*
X28121Y-34600D01*
X28135Y-34542D01*
X28150Y-34514D01*
X28178Y-34485D01*
X28221Y-34471D01*
X28250Y-34471D01*
X28292Y-34485D01*
X28307Y-34500D01*
X28592Y-34771D02*
X28421Y-34771D01*
X28507Y-34771D02*
X28507Y-34471D01*
X28478Y-34514D01*
X28450Y-34542D01*
X28421Y-34557D01*
X28778Y-34471D02*
X28807Y-34471D01*
X28835Y-34485D01*
X28850Y-34500D01*
X28864Y-34528D01*
X28878Y-34585D01*
X28878Y-34657D01*
X28864Y-34714D01*
X28850Y-34742D01*
X28835Y-34757D01*
X28807Y-34771D01*
X28778Y-34771D01*
X28750Y-34757D01*
X28735Y-34742D01*
X28721Y-34714D01*
X28707Y-34657D01*
X28707Y-34585D01*
X28721Y-34528D01*
X28735Y-34500D01*
X28750Y-34485D01*
X28778Y-34471D01*
X44507Y-25742D02*
X44492Y-25757D01*
X44450Y-25771D01*
X44421Y-25771D01*
X44378Y-25757D01*
X44350Y-25728D01*
X44335Y-25700D01*
X44321Y-25642D01*
X44321Y-25600D01*
X44335Y-25542D01*
X44350Y-25514D01*
X44378Y-25485D01*
X44421Y-25471D01*
X44450Y-25471D01*
X44492Y-25485D01*
X44507Y-25500D01*
X44621Y-25500D02*
X44635Y-25485D01*
X44664Y-25471D01*
X44735Y-25471D01*
X44764Y-25485D01*
X44778Y-25500D01*
X44792Y-25528D01*
X44792Y-25557D01*
X44778Y-25600D01*
X44607Y-25771D01*
X44792Y-25771D01*
X44978Y-25471D02*
X45007Y-25471D01*
X45035Y-25485D01*
X45050Y-25500D01*
X45064Y-25528D01*
X45078Y-25585D01*
X45078Y-25657D01*
X45064Y-25714D01*
X45050Y-25742D01*
X45035Y-25757D01*
X45007Y-25771D01*
X44978Y-25771D01*
X44950Y-25757D01*
X44935Y-25742D01*
X44921Y-25714D01*
X44907Y-25657D01*
X44907Y-25585D01*
X44921Y-25528D01*
X44935Y-25500D01*
X44950Y-25485D01*
X44978Y-25471D01*
X40139Y-24601D02*
X40055Y-24482D01*
X39996Y-24601D02*
X39996Y-24351D01*
X40091Y-24351D01*
X40115Y-24363D01*
X40127Y-24375D01*
X40139Y-24398D01*
X40139Y-24434D01*
X40127Y-24458D01*
X40115Y-24470D01*
X40091Y-24482D01*
X39996Y-24482D01*
X40234Y-24375D02*
X40246Y-24363D01*
X40270Y-24351D01*
X40329Y-24351D01*
X40353Y-24363D01*
X40365Y-24375D01*
X40377Y-24398D01*
X40377Y-24422D01*
X40365Y-24458D01*
X40222Y-24601D01*
X40377Y-24601D01*
X40472Y-24375D02*
X40484Y-24363D01*
X40508Y-24351D01*
X40567Y-24351D01*
X40591Y-24363D01*
X40603Y-24375D01*
X40615Y-24398D01*
X40615Y-24422D01*
X40603Y-24458D01*
X40460Y-24601D01*
X40615Y-24601D01*
X44839Y-24751D02*
X44755Y-24632D01*
X44696Y-24751D02*
X44696Y-24501D01*
X44791Y-24501D01*
X44815Y-24513D01*
X44827Y-24525D01*
X44839Y-24548D01*
X44839Y-24584D01*
X44827Y-24608D01*
X44815Y-24620D01*
X44791Y-24632D01*
X44696Y-24632D01*
X44934Y-24525D02*
X44946Y-24513D01*
X44970Y-24501D01*
X45029Y-24501D01*
X45053Y-24513D01*
X45065Y-24525D01*
X45077Y-24548D01*
X45077Y-24572D01*
X45065Y-24608D01*
X44922Y-24751D01*
X45077Y-24751D01*
X45160Y-24501D02*
X45315Y-24501D01*
X45232Y-24596D01*
X45267Y-24596D01*
X45291Y-24608D01*
X45303Y-24620D01*
X45315Y-24644D01*
X45315Y-24703D01*
X45303Y-24727D01*
X45291Y-24739D01*
X45267Y-24751D01*
X45196Y-24751D01*
X45172Y-24739D01*
X45160Y-24727D01*
G54D10*
X38259Y-12509D02*
X38259Y-12115D01*
X38409Y-12115D01*
X38446Y-12134D01*
X38465Y-12153D01*
X38484Y-12190D01*
X38484Y-12246D01*
X38465Y-12284D01*
X38446Y-12303D01*
X38409Y-12321D01*
X38259Y-12321D01*
X38634Y-12153D02*
X38653Y-12134D01*
X38690Y-12115D01*
X38784Y-12115D01*
X38821Y-12134D01*
X38840Y-12153D01*
X38859Y-12190D01*
X38859Y-12228D01*
X38840Y-12284D01*
X38615Y-12509D01*
X38859Y-12509D01*
X39243Y-12396D02*
X39431Y-12396D01*
X39206Y-12509D02*
X39337Y-12115D01*
X39468Y-12509D01*
X39675Y-12115D02*
X39750Y-12115D01*
X39787Y-12134D01*
X39825Y-12171D01*
X39843Y-12246D01*
X39843Y-12378D01*
X39825Y-12453D01*
X39787Y-12490D01*
X39750Y-12509D01*
X39675Y-12509D01*
X39637Y-12490D01*
X39600Y-12453D01*
X39581Y-12378D01*
X39581Y-12246D01*
X39600Y-12171D01*
X39637Y-12134D01*
X39675Y-12115D01*
X40012Y-12115D02*
X40012Y-12434D01*
X40031Y-12471D01*
X40049Y-12490D01*
X40087Y-12509D01*
X40162Y-12509D01*
X40199Y-12490D01*
X40218Y-12471D01*
X40237Y-12434D01*
X40237Y-12115D01*
X40368Y-12115D02*
X40593Y-12115D01*
X40481Y-12509D02*
X40481Y-12115D01*
X24959Y-12609D02*
X24959Y-12215D01*
X25184Y-12609D02*
X25015Y-12384D01*
X25184Y-12215D02*
X24959Y-12440D01*
X25315Y-12215D02*
X25559Y-12215D01*
X25428Y-12365D01*
X25484Y-12365D01*
X25521Y-12384D01*
X25540Y-12403D01*
X25559Y-12440D01*
X25559Y-12534D01*
X25540Y-12571D01*
X25521Y-12590D01*
X25484Y-12609D01*
X25371Y-12609D01*
X25334Y-12590D01*
X25315Y-12571D01*
X23121Y-12559D02*
X23121Y-12165D01*
X23271Y-12165D01*
X23309Y-12184D01*
X23328Y-12203D01*
X23346Y-12240D01*
X23346Y-12296D01*
X23328Y-12334D01*
X23309Y-12353D01*
X23271Y-12371D01*
X23121Y-12371D01*
X23571Y-12559D02*
X23534Y-12540D01*
X23515Y-12521D01*
X23496Y-12484D01*
X23496Y-12371D01*
X23515Y-12334D01*
X23534Y-12315D01*
X23571Y-12296D01*
X23628Y-12296D01*
X23665Y-12315D01*
X23684Y-12334D01*
X23703Y-12371D01*
X23703Y-12484D01*
X23684Y-12521D01*
X23665Y-12540D01*
X23628Y-12559D01*
X23571Y-12559D01*
X23834Y-12296D02*
X23909Y-12559D01*
X23984Y-12371D01*
X24059Y-12559D01*
X24134Y-12296D01*
X24434Y-12540D02*
X24396Y-12559D01*
X24321Y-12559D01*
X24284Y-12540D01*
X24265Y-12503D01*
X24265Y-12353D01*
X24284Y-12315D01*
X24321Y-12296D01*
X24396Y-12296D01*
X24434Y-12315D01*
X24453Y-12353D01*
X24453Y-12390D01*
X24265Y-12428D01*
X24621Y-12559D02*
X24621Y-12296D01*
X24621Y-12371D02*
X24640Y-12334D01*
X24659Y-12315D01*
X24696Y-12296D01*
X24734Y-12296D01*
G54D16*
X29842Y-34809D02*
X30080Y-34809D01*
X29795Y-34952D02*
X29961Y-34452D01*
X30128Y-34952D01*
X30295Y-34952D02*
X30295Y-34452D01*
X30414Y-34452D01*
X30485Y-34476D01*
X30533Y-34523D01*
X30557Y-34571D01*
X30580Y-34666D01*
X30580Y-34738D01*
X30557Y-34833D01*
X30533Y-34880D01*
X30485Y-34928D01*
X30414Y-34952D01*
X30295Y-34952D01*
X31057Y-34952D02*
X30771Y-34952D01*
X30914Y-34952D02*
X30914Y-34452D01*
X30866Y-34523D01*
X30819Y-34571D01*
X30771Y-34595D01*
X32809Y-34747D02*
X32809Y-34509D01*
X32952Y-34795D02*
X32452Y-34628D01*
X32952Y-34461D01*
X32952Y-34295D02*
X32452Y-34295D01*
X32452Y-34176D01*
X32476Y-34104D01*
X32523Y-34057D01*
X32571Y-34033D01*
X32666Y-34009D01*
X32738Y-34009D01*
X32833Y-34033D01*
X32880Y-34057D01*
X32928Y-34104D01*
X32952Y-34176D01*
X32952Y-34295D01*
X32500Y-33819D02*
X32476Y-33795D01*
X32452Y-33747D01*
X32452Y-33628D01*
X32476Y-33580D01*
X32500Y-33557D01*
X32547Y-33533D01*
X32595Y-33533D01*
X32666Y-33557D01*
X32952Y-33842D01*
X32952Y-33533D01*
X32928Y-33342D02*
X32952Y-33271D01*
X32952Y-33152D01*
X32928Y-33104D01*
X32904Y-33080D01*
X32857Y-33057D01*
X32809Y-33057D01*
X32761Y-33080D01*
X32738Y-33104D01*
X32714Y-33152D01*
X32690Y-33247D01*
X32666Y-33295D01*
X32642Y-33319D01*
X32595Y-33342D01*
X32547Y-33342D01*
X32500Y-33319D01*
X32476Y-33295D01*
X32452Y-33247D01*
X32452Y-33128D01*
X32476Y-33057D01*
X32952Y-32580D02*
X32952Y-32866D01*
X32952Y-32723D02*
X32452Y-32723D01*
X32523Y-32771D01*
X32571Y-32819D01*
X32595Y-32866D01*
X32500Y-32390D02*
X32476Y-32366D01*
X32452Y-32319D01*
X32452Y-32200D01*
X32476Y-32152D01*
X32500Y-32128D01*
X32547Y-32104D01*
X32595Y-32104D01*
X32666Y-32128D01*
X32952Y-32414D01*
X32952Y-32104D01*
X32952Y-31628D02*
X32952Y-31914D01*
X32952Y-31771D02*
X32452Y-31771D01*
X32523Y-31819D01*
X32571Y-31866D01*
X32595Y-31914D01*
X32452Y-31319D02*
X32452Y-31271D01*
X32476Y-31223D01*
X32500Y-31199D01*
X32547Y-31176D01*
X32642Y-31152D01*
X32761Y-31152D01*
X32857Y-31176D01*
X32904Y-31199D01*
X32928Y-31223D01*
X32952Y-31271D01*
X32952Y-31319D01*
X32928Y-31366D01*
X32904Y-31390D01*
X32857Y-31414D01*
X32761Y-31438D01*
X32642Y-31438D01*
X32547Y-31414D01*
X32500Y-31390D01*
X32476Y-31366D01*
X32452Y-31319D01*
G54D12*
X32857Y-24942D02*
X32842Y-24957D01*
X32800Y-24971D01*
X32771Y-24971D01*
X32728Y-24957D01*
X32700Y-24928D01*
X32685Y-24900D01*
X32671Y-24842D01*
X32671Y-24800D01*
X32685Y-24742D01*
X32700Y-24714D01*
X32728Y-24685D01*
X32771Y-24671D01*
X32800Y-24671D01*
X32842Y-24685D01*
X32857Y-24700D01*
X32971Y-24700D02*
X32985Y-24685D01*
X33014Y-24671D01*
X33085Y-24671D01*
X33114Y-24685D01*
X33128Y-24700D01*
X33142Y-24728D01*
X33142Y-24757D01*
X33128Y-24800D01*
X32957Y-24971D01*
X33142Y-24971D01*
X33428Y-24971D02*
X33257Y-24971D01*
X33342Y-24971D02*
X33342Y-24671D01*
X33314Y-24714D01*
X33285Y-24742D01*
X33257Y-24757D01*
X42589Y-29927D02*
X42577Y-29939D01*
X42541Y-29951D01*
X42517Y-29951D01*
X42482Y-29939D01*
X42458Y-29915D01*
X42446Y-29891D01*
X42434Y-29844D01*
X42434Y-29808D01*
X42446Y-29760D01*
X42458Y-29736D01*
X42482Y-29713D01*
X42517Y-29701D01*
X42541Y-29701D01*
X42577Y-29713D01*
X42589Y-29725D01*
X42827Y-29951D02*
X42684Y-29951D01*
X42755Y-29951D02*
X42755Y-29701D01*
X42732Y-29736D01*
X42708Y-29760D01*
X42684Y-29772D01*
X42922Y-29725D02*
X42934Y-29713D01*
X42958Y-29701D01*
X43017Y-29701D01*
X43041Y-29713D01*
X43053Y-29725D01*
X43065Y-29748D01*
X43065Y-29772D01*
X43053Y-29808D01*
X42910Y-29951D01*
X43065Y-29951D01*
X41889Y-29577D02*
X41877Y-29589D01*
X41841Y-29601D01*
X41817Y-29601D01*
X41782Y-29589D01*
X41758Y-29565D01*
X41746Y-29541D01*
X41734Y-29494D01*
X41734Y-29458D01*
X41746Y-29410D01*
X41758Y-29386D01*
X41782Y-29363D01*
X41817Y-29351D01*
X41841Y-29351D01*
X41877Y-29363D01*
X41889Y-29375D01*
X42127Y-29601D02*
X41984Y-29601D01*
X42055Y-29601D02*
X42055Y-29351D01*
X42032Y-29386D01*
X42008Y-29410D01*
X41984Y-29422D01*
X42210Y-29351D02*
X42365Y-29351D01*
X42282Y-29446D01*
X42317Y-29446D01*
X42341Y-29458D01*
X42353Y-29470D01*
X42365Y-29494D01*
X42365Y-29553D01*
X42353Y-29577D01*
X42341Y-29589D01*
X42317Y-29601D01*
X42246Y-29601D01*
X42222Y-29589D01*
X42210Y-29577D01*
X41639Y-32601D02*
X41555Y-32482D01*
X41496Y-32601D02*
X41496Y-32351D01*
X41591Y-32351D01*
X41615Y-32363D01*
X41627Y-32375D01*
X41639Y-32398D01*
X41639Y-32434D01*
X41627Y-32458D01*
X41615Y-32470D01*
X41591Y-32482D01*
X41496Y-32482D01*
X41734Y-32375D02*
X41746Y-32363D01*
X41770Y-32351D01*
X41829Y-32351D01*
X41853Y-32363D01*
X41865Y-32375D01*
X41877Y-32398D01*
X41877Y-32422D01*
X41865Y-32458D01*
X41722Y-32601D01*
X41877Y-32601D01*
X42091Y-32434D02*
X42091Y-32601D01*
X42032Y-32339D02*
X41972Y-32517D01*
X42127Y-32517D01*
X40539Y-27201D02*
X40455Y-27082D01*
X40396Y-27201D02*
X40396Y-26951D01*
X40491Y-26951D01*
X40515Y-26963D01*
X40527Y-26975D01*
X40539Y-26998D01*
X40539Y-27034D01*
X40527Y-27058D01*
X40515Y-27070D01*
X40491Y-27082D01*
X40396Y-27082D01*
X40634Y-26975D02*
X40646Y-26963D01*
X40670Y-26951D01*
X40729Y-26951D01*
X40753Y-26963D01*
X40765Y-26975D01*
X40777Y-26998D01*
X40777Y-27022D01*
X40765Y-27058D01*
X40622Y-27201D01*
X40777Y-27201D01*
X41003Y-26951D02*
X40884Y-26951D01*
X40872Y-27070D01*
X40884Y-27058D01*
X40908Y-27046D01*
X40967Y-27046D01*
X40991Y-27058D01*
X41003Y-27070D01*
X41015Y-27094D01*
X41015Y-27153D01*
X41003Y-27177D01*
X40991Y-27189D01*
X40967Y-27201D01*
X40908Y-27201D01*
X40884Y-27189D01*
X40872Y-27177D01*
X41539Y-27201D02*
X41455Y-27082D01*
X41396Y-27201D02*
X41396Y-26951D01*
X41491Y-26951D01*
X41515Y-26963D01*
X41527Y-26975D01*
X41539Y-26998D01*
X41539Y-27034D01*
X41527Y-27058D01*
X41515Y-27070D01*
X41491Y-27082D01*
X41396Y-27082D01*
X41634Y-26975D02*
X41646Y-26963D01*
X41670Y-26951D01*
X41729Y-26951D01*
X41753Y-26963D01*
X41765Y-26975D01*
X41777Y-26998D01*
X41777Y-27022D01*
X41765Y-27058D01*
X41622Y-27201D01*
X41777Y-27201D01*
X41991Y-26951D02*
X41944Y-26951D01*
X41920Y-26963D01*
X41908Y-26975D01*
X41884Y-27010D01*
X41872Y-27058D01*
X41872Y-27153D01*
X41884Y-27177D01*
X41896Y-27189D01*
X41920Y-27201D01*
X41967Y-27201D01*
X41991Y-27189D01*
X42003Y-27177D01*
X42015Y-27153D01*
X42015Y-27094D01*
X42003Y-27070D01*
X41991Y-27058D01*
X41967Y-27046D01*
X41920Y-27046D01*
X41896Y-27058D01*
X41884Y-27070D01*
X41872Y-27094D01*
X42539Y-27201D02*
X42455Y-27082D01*
X42396Y-27201D02*
X42396Y-26951D01*
X42491Y-26951D01*
X42515Y-26963D01*
X42527Y-26975D01*
X42539Y-26998D01*
X42539Y-27034D01*
X42527Y-27058D01*
X42515Y-27070D01*
X42491Y-27082D01*
X42396Y-27082D01*
X42634Y-26975D02*
X42646Y-26963D01*
X42670Y-26951D01*
X42729Y-26951D01*
X42753Y-26963D01*
X42765Y-26975D01*
X42777Y-26998D01*
X42777Y-27022D01*
X42765Y-27058D01*
X42622Y-27201D01*
X42777Y-27201D01*
X42860Y-26951D02*
X43027Y-26951D01*
X42920Y-27201D01*
G54D13*
X39554Y-34911D02*
X39554Y-34511D01*
X39707Y-34511D01*
X39745Y-34530D01*
X39764Y-34550D01*
X39783Y-34588D01*
X39783Y-34645D01*
X39764Y-34683D01*
X39745Y-34702D01*
X39707Y-34721D01*
X39554Y-34721D01*
X40126Y-34645D02*
X40126Y-34911D01*
X40030Y-34492D02*
X39935Y-34778D01*
X40183Y-34778D01*
X39404Y-26811D02*
X39404Y-26411D01*
X39557Y-26411D01*
X39595Y-26430D01*
X39614Y-26450D01*
X39633Y-26488D01*
X39633Y-26545D01*
X39614Y-26583D01*
X39595Y-26602D01*
X39557Y-26621D01*
X39404Y-26621D01*
X39995Y-26411D02*
X39804Y-26411D01*
X39785Y-26602D01*
X39804Y-26583D01*
X39842Y-26564D01*
X39938Y-26564D01*
X39976Y-26583D01*
X39995Y-26602D01*
X40014Y-26640D01*
X40014Y-26735D01*
X39995Y-26773D01*
X39976Y-26792D01*
X39938Y-26811D01*
X39842Y-26811D01*
X39804Y-26792D01*
X39785Y-26773D01*
G54D12*
X23483Y-19858D02*
X23366Y-19858D01*
X23366Y-20041D02*
X23366Y-19691D01*
X23533Y-19691D01*
X23850Y-20041D02*
X23650Y-20041D01*
X23750Y-20041D02*
X23750Y-19691D01*
X23716Y-19741D01*
X23683Y-19775D01*
X23650Y-19791D01*
X27628Y-20671D02*
X27628Y-20371D01*
X27700Y-20371D01*
X27742Y-20385D01*
X27771Y-20414D01*
X27785Y-20442D01*
X27800Y-20500D01*
X27800Y-20542D01*
X27785Y-20600D01*
X27771Y-20628D01*
X27742Y-20657D01*
X27700Y-20671D01*
X27628Y-20671D01*
X28071Y-20371D02*
X27928Y-20371D01*
X27914Y-20514D01*
X27928Y-20500D01*
X27957Y-20485D01*
X28028Y-20485D01*
X28057Y-20500D01*
X28071Y-20514D01*
X28085Y-20542D01*
X28085Y-20614D01*
X28071Y-20642D01*
X28057Y-20657D01*
X28028Y-20671D01*
X27957Y-20671D01*
X27928Y-20657D01*
X27914Y-20642D01*
G54D19*
X19704Y-14361D02*
X19704Y-13961D01*
X19857Y-13961D01*
X19895Y-13980D01*
X19914Y-14000D01*
X19933Y-14038D01*
X19933Y-14095D01*
X19914Y-14133D01*
X19895Y-14152D01*
X19857Y-14171D01*
X19704Y-14171D01*
X20314Y-14361D02*
X20085Y-14361D01*
X20200Y-14361D02*
X20200Y-13961D01*
X20161Y-14019D01*
X20123Y-14057D01*
X20085Y-14076D01*
G54D20*
G54D13*
X18771Y-40342D02*
X18733Y-40361D01*
X18657Y-40361D01*
X18619Y-40342D01*
X18600Y-40323D01*
X18580Y-40285D01*
X18580Y-40171D01*
X18600Y-40133D01*
X18619Y-40114D01*
X18657Y-40095D01*
X18733Y-40095D01*
X18771Y-40114D01*
X19000Y-40361D02*
X18961Y-40342D01*
X18942Y-40323D01*
X18923Y-40285D01*
X18923Y-40171D01*
X18942Y-40133D01*
X18961Y-40114D01*
X19000Y-40095D01*
X19057Y-40095D01*
X19095Y-40114D01*
X19114Y-40133D01*
X19133Y-40171D01*
X19133Y-40285D01*
X19114Y-40323D01*
X19095Y-40342D01*
X19057Y-40361D01*
X19000Y-40361D01*
X19304Y-40095D02*
X19304Y-40361D01*
X19304Y-40133D02*
X19323Y-40114D01*
X19361Y-40095D01*
X19419Y-40095D01*
X19457Y-40114D01*
X19476Y-40152D01*
X19476Y-40361D01*
X19666Y-40095D02*
X19666Y-40361D01*
X19666Y-40133D02*
X19685Y-40114D01*
X19723Y-40095D01*
X19780Y-40095D01*
X19819Y-40114D01*
X19838Y-40152D01*
X19838Y-40361D01*
X19933Y-40400D02*
X20238Y-40400D01*
X20314Y-40342D02*
X20352Y-40361D01*
X20428Y-40361D01*
X20466Y-40342D01*
X20485Y-40304D01*
X20485Y-40285D01*
X20466Y-40247D01*
X20428Y-40228D01*
X20371Y-40228D01*
X20333Y-40209D01*
X20314Y-40171D01*
X20314Y-40152D01*
X20333Y-40114D01*
X20371Y-40095D01*
X20428Y-40095D01*
X20466Y-40114D01*
X20600Y-40095D02*
X20752Y-40095D01*
X20657Y-39961D02*
X20657Y-40304D01*
X20676Y-40342D01*
X20714Y-40361D01*
X20752Y-40361D01*
X20885Y-40361D02*
X20885Y-40095D01*
X20885Y-40133D02*
X20904Y-40114D01*
X20942Y-40095D01*
X20999Y-40095D01*
X21038Y-40114D01*
X21057Y-40152D01*
X21057Y-40361D01*
X21057Y-40152D02*
X21076Y-40114D01*
X21114Y-40095D01*
X21171Y-40095D01*
X21209Y-40114D01*
X21228Y-40152D01*
X21228Y-40361D01*
X21380Y-39961D02*
X21628Y-39961D01*
X21495Y-40114D01*
X21552Y-40114D01*
X21590Y-40133D01*
X21609Y-40152D01*
X21628Y-40190D01*
X21628Y-40285D01*
X21609Y-40323D01*
X21590Y-40342D01*
X21552Y-40361D01*
X21438Y-40361D01*
X21400Y-40342D01*
X21380Y-40323D01*
X21780Y-40000D02*
X21800Y-39980D01*
X21838Y-39961D01*
X21933Y-39961D01*
X21971Y-39980D01*
X21990Y-40000D01*
X22009Y-40038D01*
X22009Y-40076D01*
X21990Y-40133D01*
X21761Y-40361D01*
X22009Y-40361D01*
X22123Y-40095D02*
X22276Y-40095D01*
X22180Y-40361D02*
X22180Y-40019D01*
X22200Y-39980D01*
X22238Y-39961D01*
X22276Y-39961D01*
X22580Y-40095D02*
X22580Y-40361D01*
X22485Y-39942D02*
X22390Y-40228D01*
X22638Y-40228D01*
G54D19*
X14204Y-14361D02*
X14204Y-13961D01*
X14357Y-13961D01*
X14395Y-13980D01*
X14414Y-14000D01*
X14433Y-14038D01*
X14433Y-14095D01*
X14414Y-14133D01*
X14395Y-14152D01*
X14357Y-14171D01*
X14204Y-14171D01*
X14566Y-13961D02*
X14814Y-13961D01*
X14680Y-14114D01*
X14738Y-14114D01*
X14776Y-14133D01*
X14795Y-14152D01*
X14814Y-14190D01*
X14814Y-14285D01*
X14795Y-14323D01*
X14776Y-14342D01*
X14738Y-14361D01*
X14623Y-14361D01*
X14585Y-14342D01*
X14566Y-14323D01*
G54D20*
G54D13*
X12423Y-40342D02*
X12385Y-40361D01*
X12309Y-40361D01*
X12271Y-40342D01*
X12252Y-40323D01*
X12233Y-40285D01*
X12233Y-40171D01*
X12252Y-40133D01*
X12271Y-40114D01*
X12309Y-40095D01*
X12385Y-40095D01*
X12423Y-40114D01*
X12652Y-40361D02*
X12614Y-40342D01*
X12595Y-40323D01*
X12576Y-40285D01*
X12576Y-40171D01*
X12595Y-40133D01*
X12614Y-40114D01*
X12652Y-40095D01*
X12709Y-40095D01*
X12747Y-40114D01*
X12766Y-40133D01*
X12785Y-40171D01*
X12785Y-40285D01*
X12766Y-40323D01*
X12747Y-40342D01*
X12709Y-40361D01*
X12652Y-40361D01*
X12957Y-40095D02*
X12957Y-40361D01*
X12957Y-40133D02*
X12976Y-40114D01*
X13014Y-40095D01*
X13071Y-40095D01*
X13109Y-40114D01*
X13128Y-40152D01*
X13128Y-40361D01*
X13319Y-40095D02*
X13319Y-40361D01*
X13319Y-40133D02*
X13338Y-40114D01*
X13376Y-40095D01*
X13433Y-40095D01*
X13471Y-40114D01*
X13490Y-40152D01*
X13490Y-40361D01*
X13585Y-40400D02*
X13890Y-40400D01*
X13985Y-40361D02*
X13985Y-40095D01*
X13985Y-40133D02*
X14004Y-40114D01*
X14042Y-40095D01*
X14100Y-40095D01*
X14138Y-40114D01*
X14157Y-40152D01*
X14157Y-40361D01*
X14157Y-40152D02*
X14176Y-40114D01*
X14214Y-40095D01*
X14271Y-40095D01*
X14309Y-40114D01*
X14328Y-40152D01*
X14328Y-40361D01*
X14576Y-40361D02*
X14538Y-40342D01*
X14519Y-40323D01*
X14500Y-40285D01*
X14500Y-40171D01*
X14519Y-40133D01*
X14538Y-40114D01*
X14576Y-40095D01*
X14633Y-40095D01*
X14671Y-40114D01*
X14690Y-40133D01*
X14709Y-40171D01*
X14709Y-40285D01*
X14690Y-40323D01*
X14671Y-40342D01*
X14633Y-40361D01*
X14576Y-40361D01*
X14823Y-40095D02*
X14976Y-40095D01*
X14880Y-39961D02*
X14880Y-40304D01*
X14900Y-40342D01*
X14938Y-40361D01*
X14976Y-40361D01*
X15166Y-40361D02*
X15128Y-40342D01*
X15109Y-40323D01*
X15090Y-40285D01*
X15090Y-40171D01*
X15109Y-40133D01*
X15128Y-40114D01*
X15166Y-40095D01*
X15223Y-40095D01*
X15261Y-40114D01*
X15280Y-40133D01*
X15300Y-40171D01*
X15300Y-40285D01*
X15280Y-40323D01*
X15261Y-40342D01*
X15223Y-40361D01*
X15166Y-40361D01*
X15471Y-40361D02*
X15471Y-40095D01*
X15471Y-40171D02*
X15490Y-40133D01*
X15509Y-40114D01*
X15547Y-40095D01*
X15585Y-40095D01*
X15623Y-40400D02*
X15928Y-40400D01*
X16195Y-40342D02*
X16157Y-40361D01*
X16080Y-40361D01*
X16042Y-40342D01*
X16023Y-40323D01*
X16004Y-40285D01*
X16004Y-40171D01*
X16023Y-40133D01*
X16042Y-40114D01*
X16080Y-40095D01*
X16157Y-40095D01*
X16195Y-40114D01*
X16423Y-40361D02*
X16385Y-40342D01*
X16366Y-40323D01*
X16347Y-40285D01*
X16347Y-40171D01*
X16366Y-40133D01*
X16385Y-40114D01*
X16423Y-40095D01*
X16480Y-40095D01*
X16519Y-40114D01*
X16538Y-40133D01*
X16557Y-40171D01*
X16557Y-40285D01*
X16538Y-40323D01*
X16519Y-40342D01*
X16480Y-40361D01*
X16423Y-40361D01*
X16728Y-40095D02*
X16728Y-40361D01*
X16728Y-40133D02*
X16747Y-40114D01*
X16785Y-40095D01*
X16842Y-40095D01*
X16880Y-40114D01*
X16900Y-40152D01*
X16900Y-40361D01*
X17033Y-40095D02*
X17185Y-40095D01*
X17090Y-39961D02*
X17090Y-40304D01*
X17109Y-40342D01*
X17147Y-40361D01*
X17185Y-40361D01*
X17319Y-40361D02*
X17319Y-40095D01*
X17319Y-40171D02*
X17338Y-40133D01*
X17357Y-40114D01*
X17395Y-40095D01*
X17433Y-40095D01*
X17623Y-40361D02*
X17585Y-40342D01*
X17566Y-40323D01*
X17547Y-40285D01*
X17547Y-40171D01*
X17566Y-40133D01*
X17585Y-40114D01*
X17623Y-40095D01*
X17680Y-40095D01*
X17719Y-40114D01*
X17738Y-40133D01*
X17757Y-40171D01*
X17757Y-40285D01*
X17738Y-40323D01*
X17719Y-40342D01*
X17680Y-40361D01*
X17623Y-40361D01*
X17985Y-40361D02*
X17947Y-40342D01*
X17928Y-40304D01*
X17928Y-39961D01*
G54D10*
X17007Y-14241D02*
X17007Y-13847D01*
X17101Y-13847D01*
X17157Y-13866D01*
X17195Y-13903D01*
X17213Y-13941D01*
X17232Y-14016D01*
X17232Y-14072D01*
X17213Y-14147D01*
X17195Y-14185D01*
X17157Y-14222D01*
X17101Y-14241D01*
X17007Y-14241D01*
X17401Y-14241D02*
X17401Y-13978D01*
X17401Y-14053D02*
X17420Y-14016D01*
X17438Y-13997D01*
X17476Y-13978D01*
X17513Y-13978D01*
X17645Y-14241D02*
X17645Y-13978D01*
X17645Y-13847D02*
X17626Y-13866D01*
X17645Y-13885D01*
X17663Y-13866D01*
X17645Y-13847D01*
X17645Y-13885D01*
X17888Y-14241D02*
X17851Y-14222D01*
X17832Y-14185D01*
X17832Y-13847D01*
X18094Y-14241D02*
X18057Y-14222D01*
X18038Y-14185D01*
X18038Y-13847D01*
X18451Y-14241D02*
X18226Y-14241D01*
X18338Y-14241D02*
X18338Y-13847D01*
X18301Y-13903D01*
X18263Y-13941D01*
X18226Y-13960D01*
X17107Y-12941D02*
X17107Y-12547D01*
X17201Y-12547D01*
X17257Y-12566D01*
X17295Y-12603D01*
X17313Y-12641D01*
X17332Y-12716D01*
X17332Y-12772D01*
X17313Y-12847D01*
X17295Y-12885D01*
X17257Y-12922D01*
X17201Y-12941D01*
X17107Y-12941D01*
X17501Y-12941D02*
X17501Y-12678D01*
X17501Y-12753D02*
X17520Y-12716D01*
X17538Y-12697D01*
X17576Y-12678D01*
X17613Y-12678D01*
X17745Y-12941D02*
X17745Y-12678D01*
X17745Y-12547D02*
X17726Y-12566D01*
X17745Y-12585D01*
X17763Y-12566D01*
X17745Y-12547D01*
X17745Y-12585D01*
X17988Y-12941D02*
X17951Y-12922D01*
X17932Y-12885D01*
X17932Y-12547D01*
X18194Y-12941D02*
X18157Y-12922D01*
X18138Y-12885D01*
X18138Y-12547D01*
X18551Y-12941D02*
X18326Y-12941D01*
X18438Y-12941D02*
X18438Y-12547D01*
X18401Y-12603D01*
X18363Y-12641D01*
X18326Y-12660D01*
X35487Y-14395D02*
X35487Y-14001D01*
X35581Y-14001D01*
X35637Y-14020D01*
X35675Y-14057D01*
X35693Y-14095D01*
X35712Y-14170D01*
X35712Y-14226D01*
X35693Y-14301D01*
X35675Y-14339D01*
X35637Y-14376D01*
X35581Y-14395D01*
X35487Y-14395D01*
X35881Y-14395D02*
X35881Y-14132D01*
X35881Y-14207D02*
X35900Y-14170D01*
X35918Y-14151D01*
X35956Y-14132D01*
X35993Y-14132D01*
X36125Y-14395D02*
X36125Y-14132D01*
X36125Y-14001D02*
X36106Y-14020D01*
X36125Y-14039D01*
X36143Y-14020D01*
X36125Y-14001D01*
X36125Y-14039D01*
X36368Y-14395D02*
X36331Y-14376D01*
X36312Y-14339D01*
X36312Y-14001D01*
X36574Y-14395D02*
X36537Y-14376D01*
X36518Y-14339D01*
X36518Y-14001D01*
X36706Y-14039D02*
X36724Y-14020D01*
X36762Y-14001D01*
X36856Y-14001D01*
X36893Y-14020D01*
X36912Y-14039D01*
X36931Y-14076D01*
X36931Y-14114D01*
X36912Y-14170D01*
X36687Y-14395D01*
X36931Y-14395D01*
X35587Y-13095D02*
X35587Y-12701D01*
X35681Y-12701D01*
X35737Y-12720D01*
X35775Y-12757D01*
X35793Y-12795D01*
X35812Y-12870D01*
X35812Y-12926D01*
X35793Y-13001D01*
X35775Y-13039D01*
X35737Y-13076D01*
X35681Y-13095D01*
X35587Y-13095D01*
X35981Y-13095D02*
X35981Y-12832D01*
X35981Y-12907D02*
X36000Y-12870D01*
X36018Y-12851D01*
X36056Y-12832D01*
X36093Y-12832D01*
X36225Y-13095D02*
X36225Y-12832D01*
X36225Y-12701D02*
X36206Y-12720D01*
X36225Y-12739D01*
X36243Y-12720D01*
X36225Y-12701D01*
X36225Y-12739D01*
X36468Y-13095D02*
X36431Y-13076D01*
X36412Y-13039D01*
X36412Y-12701D01*
X36674Y-13095D02*
X36637Y-13076D01*
X36618Y-13039D01*
X36618Y-12701D01*
X36806Y-12739D02*
X36824Y-12720D01*
X36862Y-12701D01*
X36956Y-12701D01*
X36993Y-12720D01*
X37012Y-12739D01*
X37031Y-12776D01*
X37031Y-12814D01*
X37012Y-12870D01*
X36787Y-13095D01*
X37031Y-13095D01*
X23783Y-40619D02*
X23783Y-40225D01*
X23877Y-40225D01*
X23933Y-40244D01*
X23971Y-40281D01*
X23989Y-40319D01*
X24008Y-40394D01*
X24008Y-40450D01*
X23989Y-40525D01*
X23971Y-40563D01*
X23933Y-40600D01*
X23877Y-40619D01*
X23783Y-40619D01*
X24177Y-40619D02*
X24177Y-40356D01*
X24177Y-40431D02*
X24196Y-40394D01*
X24214Y-40375D01*
X24252Y-40356D01*
X24289Y-40356D01*
X24421Y-40619D02*
X24421Y-40356D01*
X24421Y-40225D02*
X24402Y-40244D01*
X24421Y-40263D01*
X24439Y-40244D01*
X24421Y-40225D01*
X24421Y-40263D01*
X24664Y-40619D02*
X24627Y-40600D01*
X24608Y-40563D01*
X24608Y-40225D01*
X24870Y-40619D02*
X24833Y-40600D01*
X24814Y-40563D01*
X24814Y-40225D01*
X24983Y-40225D02*
X25227Y-40225D01*
X25095Y-40375D01*
X25152Y-40375D01*
X25189Y-40394D01*
X25208Y-40413D01*
X25227Y-40450D01*
X25227Y-40544D01*
X25208Y-40581D01*
X25189Y-40600D01*
X25152Y-40619D01*
X25039Y-40619D01*
X25002Y-40600D01*
X24983Y-40581D01*
X23763Y-37949D02*
X23763Y-37555D01*
X23857Y-37555D01*
X23913Y-37574D01*
X23951Y-37611D01*
X23969Y-37649D01*
X23988Y-37724D01*
X23988Y-37780D01*
X23969Y-37855D01*
X23951Y-37893D01*
X23913Y-37930D01*
X23857Y-37949D01*
X23763Y-37949D01*
X24157Y-37949D02*
X24157Y-37686D01*
X24157Y-37761D02*
X24176Y-37724D01*
X24194Y-37705D01*
X24232Y-37686D01*
X24269Y-37686D01*
X24401Y-37949D02*
X24401Y-37686D01*
X24401Y-37555D02*
X24382Y-37574D01*
X24401Y-37593D01*
X24419Y-37574D01*
X24401Y-37555D01*
X24401Y-37593D01*
X24644Y-37949D02*
X24607Y-37930D01*
X24588Y-37893D01*
X24588Y-37555D01*
X24850Y-37949D02*
X24813Y-37930D01*
X24794Y-37893D01*
X24794Y-37555D01*
X24963Y-37555D02*
X25207Y-37555D01*
X25075Y-37705D01*
X25132Y-37705D01*
X25169Y-37724D01*
X25188Y-37743D01*
X25207Y-37780D01*
X25207Y-37874D01*
X25188Y-37911D01*
X25169Y-37930D01*
X25132Y-37949D01*
X25019Y-37949D01*
X24982Y-37930D01*
X24963Y-37911D01*
X45569Y-40659D02*
X45569Y-40265D01*
X45663Y-40265D01*
X45719Y-40284D01*
X45757Y-40321D01*
X45775Y-40359D01*
X45794Y-40434D01*
X45794Y-40490D01*
X45775Y-40565D01*
X45757Y-40603D01*
X45719Y-40640D01*
X45663Y-40659D01*
X45569Y-40659D01*
X45963Y-40659D02*
X45963Y-40396D01*
X45963Y-40471D02*
X45982Y-40434D01*
X46000Y-40415D01*
X46038Y-40396D01*
X46075Y-40396D01*
X46207Y-40659D02*
X46207Y-40396D01*
X46207Y-40265D02*
X46188Y-40284D01*
X46207Y-40303D01*
X46225Y-40284D01*
X46207Y-40265D01*
X46207Y-40303D01*
X46450Y-40659D02*
X46413Y-40640D01*
X46394Y-40603D01*
X46394Y-40265D01*
X46656Y-40659D02*
X46619Y-40640D01*
X46600Y-40603D01*
X46600Y-40265D01*
X46975Y-40396D02*
X46975Y-40659D01*
X46881Y-40246D02*
X46788Y-40528D01*
X47031Y-40528D01*
X45579Y-37894D02*
X45579Y-37500D01*
X45673Y-37500D01*
X45729Y-37519D01*
X45767Y-37556D01*
X45785Y-37594D01*
X45804Y-37669D01*
X45804Y-37725D01*
X45785Y-37800D01*
X45767Y-37838D01*
X45729Y-37875D01*
X45673Y-37894D01*
X45579Y-37894D01*
X45973Y-37894D02*
X45973Y-37631D01*
X45973Y-37706D02*
X45992Y-37669D01*
X46010Y-37650D01*
X46048Y-37631D01*
X46085Y-37631D01*
X46217Y-37894D02*
X46217Y-37631D01*
X46217Y-37500D02*
X46198Y-37519D01*
X46217Y-37538D01*
X46235Y-37519D01*
X46217Y-37500D01*
X46217Y-37538D01*
X46460Y-37894D02*
X46423Y-37875D01*
X46404Y-37838D01*
X46404Y-37500D01*
X46666Y-37894D02*
X46629Y-37875D01*
X46610Y-37838D01*
X46610Y-37500D01*
X46985Y-37631D02*
X46985Y-37894D01*
X46891Y-37481D02*
X46798Y-37763D01*
X47041Y-37763D01*
M02*
