G04 (created by PCBNEW (22-Jun-2014 BZR 4027)-stable) date jue 23 oct 2014 04:04:09 CST*
%MOIN*%
G04 Gerber Fmt 3.4, Leading zero omitted, Abs format*
%FSLAX34Y34*%
G01*
G70*
G90*
G04 APERTURE LIST*
%ADD10C,0.00590551*%
%ADD11C,0.00787402*%
%ADD12R,0.055X0.035*%
%ADD13R,0.035X0.055*%
%ADD14C,0.0590551*%
%ADD15R,0.015X0.05*%
%ADD16C,0.0591*%
%ADD17R,0.216535X0.0590551*%
%ADD18R,0.0394X0.0276*%
%ADD19R,0.06X0.06*%
%ADD20C,0.06*%
%ADD21R,0.06X0.08*%
%ADD22R,0.08X0.06*%
%ADD23C,0.0787402*%
%ADD24C,0.177165*%
%ADD25C,0.15748*%
%ADD26R,0.011811X0.0472441*%
%ADD27R,0.0472441X0.011811*%
%ADD28R,0.07X0.14*%
%ADD29R,0.22X0.22*%
G04 APERTURE END LIST*
G54D10*
G54D11*
X13201Y-41163D02*
X49201Y-41163D01*
X49197Y-10800D02*
X13197Y-10800D01*
X13200Y-41163D02*
X13200Y-10813D01*
X49200Y-10820D02*
X49200Y-41161D01*
G54D12*
X45800Y-33625D03*
X45800Y-32875D03*
X47000Y-31375D03*
X47000Y-32125D03*
X40900Y-31975D03*
X40900Y-31225D03*
X46850Y-27625D03*
X46850Y-28375D03*
X46050Y-27625D03*
X46050Y-28375D03*
G54D13*
X46025Y-20450D03*
X45275Y-20450D03*
X45275Y-21450D03*
X46025Y-21450D03*
G54D12*
X45900Y-22575D03*
X45900Y-23325D03*
X46900Y-23325D03*
X46900Y-22575D03*
G54D13*
X46775Y-21450D03*
X47525Y-21450D03*
X46775Y-20450D03*
X47525Y-20450D03*
X46025Y-17450D03*
X45275Y-17450D03*
X47525Y-17450D03*
X46775Y-17450D03*
X42025Y-20450D03*
X41275Y-20450D03*
X41275Y-21450D03*
X42025Y-21450D03*
G54D12*
X42900Y-23325D03*
X42900Y-22575D03*
G54D13*
X42775Y-21450D03*
X43525Y-21450D03*
X42775Y-20450D03*
X43525Y-20450D03*
X42025Y-17450D03*
X41275Y-17450D03*
X43525Y-17450D03*
X42775Y-17450D03*
G54D12*
X46200Y-31375D03*
X46200Y-32125D03*
X36300Y-32675D03*
X36300Y-33425D03*
G54D13*
X34675Y-31150D03*
X35425Y-31150D03*
X30425Y-26550D03*
X29675Y-26550D03*
X27375Y-26550D03*
X28125Y-26550D03*
G54D12*
X29700Y-32825D03*
X29700Y-33575D03*
G54D13*
X33325Y-29500D03*
X32575Y-29500D03*
X33675Y-35875D03*
X32925Y-35875D03*
X33675Y-36725D03*
X32925Y-36725D03*
G54D12*
X29200Y-23725D03*
X29200Y-24475D03*
X35150Y-25075D03*
X35150Y-25825D03*
X36000Y-25075D03*
X36000Y-25825D03*
X44850Y-33625D03*
X44850Y-32875D03*
X42700Y-31975D03*
X42700Y-31225D03*
G54D14*
X33100Y-20850D03*
X33100Y-21850D03*
X33100Y-22850D03*
G54D15*
X44466Y-30650D03*
X44722Y-30650D03*
X44978Y-30650D03*
X45234Y-30650D03*
X45234Y-28950D03*
X44978Y-28950D03*
X44722Y-28950D03*
X44466Y-28950D03*
G54D16*
X25000Y-25400D03*
X25000Y-23400D03*
G54D17*
X30573Y-28050D03*
X27226Y-28050D03*
G54D18*
X44350Y-18950D03*
X45350Y-18575D03*
X45350Y-19325D03*
X46550Y-18950D03*
X47550Y-18575D03*
X47550Y-19325D03*
X40350Y-18950D03*
X41350Y-18575D03*
X41350Y-19325D03*
X42550Y-18950D03*
X43550Y-18575D03*
X43550Y-19325D03*
G54D13*
X44350Y-27450D03*
X45100Y-27450D03*
G54D12*
X41850Y-22575D03*
X41850Y-23325D03*
G54D19*
X35300Y-17450D03*
G54D20*
X34300Y-17450D03*
X33300Y-17450D03*
G54D19*
X27450Y-30700D03*
G54D20*
X26450Y-30700D03*
X25450Y-30700D03*
G54D21*
X34400Y-29900D03*
X35700Y-29900D03*
X33750Y-28450D03*
X32450Y-28450D03*
G54D22*
X28000Y-23600D03*
X28000Y-24900D03*
X37300Y-32800D03*
X37300Y-34100D03*
X28500Y-32550D03*
X28500Y-33850D03*
G54D21*
X44050Y-26400D03*
X45350Y-26400D03*
G54D12*
X41050Y-24125D03*
X41050Y-23375D03*
X45050Y-23375D03*
X45050Y-24125D03*
G54D23*
X46350Y-14200D03*
X44972Y-14200D03*
X43594Y-14200D03*
X42216Y-14200D03*
X40838Y-14200D03*
X39460Y-14200D03*
G54D24*
X27050Y-15750D03*
G54D25*
X25868Y-17639D03*
G54D24*
X24589Y-15750D03*
G54D26*
X32401Y-31276D03*
X32598Y-31276D03*
X32204Y-31276D03*
X32795Y-31276D03*
X32992Y-31276D03*
X33188Y-31276D03*
X33385Y-31276D03*
X33582Y-31276D03*
X32007Y-31276D03*
X31811Y-31276D03*
X31614Y-31276D03*
X31417Y-31276D03*
X32401Y-34623D03*
X32598Y-34623D03*
X32204Y-34623D03*
X32007Y-34623D03*
X31811Y-34623D03*
X31614Y-34623D03*
X31417Y-34623D03*
X32795Y-34623D03*
X32992Y-34623D03*
X33188Y-34623D03*
X33385Y-34623D03*
X33582Y-34623D03*
G54D27*
X34173Y-33048D03*
X34173Y-33245D03*
X34173Y-33442D03*
X34173Y-33638D03*
X34173Y-33835D03*
X34173Y-34032D03*
X34173Y-32851D03*
X34173Y-32654D03*
X34173Y-32457D03*
X34173Y-32261D03*
X34173Y-32064D03*
X34173Y-31867D03*
X30826Y-33048D03*
X30826Y-33245D03*
X30826Y-33442D03*
X30826Y-33638D03*
X30826Y-33835D03*
X30826Y-34032D03*
X30826Y-32851D03*
X30826Y-32654D03*
X30826Y-32457D03*
X30826Y-32261D03*
X30826Y-32064D03*
X30826Y-31867D03*
G54D22*
X34000Y-24900D03*
X34000Y-26200D03*
G54D13*
X42725Y-30400D03*
X43475Y-30400D03*
X42725Y-29200D03*
X43475Y-29200D03*
G54D12*
X41800Y-31975D03*
X41800Y-31225D03*
X40700Y-27625D03*
X40700Y-28375D03*
X41700Y-27625D03*
X41700Y-28375D03*
X42700Y-27625D03*
X42700Y-28375D03*
G54D19*
X40800Y-34400D03*
G54D20*
X40800Y-33400D03*
X41800Y-34400D03*
X41800Y-33400D03*
X42800Y-34400D03*
X42800Y-33400D03*
G54D19*
X42600Y-25300D03*
G54D20*
X42600Y-26300D03*
X41600Y-25300D03*
X41600Y-26300D03*
X40600Y-25300D03*
X40600Y-26300D03*
G54D28*
X23600Y-21000D03*
X25100Y-21000D03*
G54D21*
X27550Y-21300D03*
X26250Y-21300D03*
G54D19*
X20200Y-15200D03*
G54D20*
X21200Y-15200D03*
X20200Y-20200D03*
X21200Y-16200D03*
X20200Y-21200D03*
X21200Y-17200D03*
X20200Y-22200D03*
X21200Y-18200D03*
X20200Y-23200D03*
X21200Y-19200D03*
X20200Y-24200D03*
X21200Y-20200D03*
X20200Y-25200D03*
X21200Y-21200D03*
X20200Y-26200D03*
X21200Y-22200D03*
X20200Y-27200D03*
X21200Y-23200D03*
X20200Y-28200D03*
X21200Y-24200D03*
X20200Y-29200D03*
X21200Y-25200D03*
X20200Y-30200D03*
X21200Y-26200D03*
X21200Y-27200D03*
X20200Y-31200D03*
X21200Y-28200D03*
X21200Y-30200D03*
X21200Y-31200D03*
X21200Y-32200D03*
X21200Y-33200D03*
X20200Y-32200D03*
X20200Y-33200D03*
X20200Y-16200D03*
X20200Y-17200D03*
X20200Y-18200D03*
X20200Y-19200D03*
X20200Y-34200D03*
X21200Y-34200D03*
X21200Y-29200D03*
X20200Y-35200D03*
X21200Y-35200D03*
X20200Y-36200D03*
X21200Y-36200D03*
X20200Y-37200D03*
X21200Y-37200D03*
X20200Y-38200D03*
X21200Y-38200D03*
X20200Y-39200D03*
X21200Y-39200D03*
G54D19*
X14700Y-15200D03*
G54D20*
X15700Y-15200D03*
X14700Y-20200D03*
X15700Y-16200D03*
X14700Y-21200D03*
X15700Y-17200D03*
X14700Y-22200D03*
X15700Y-18200D03*
X14700Y-23200D03*
X15700Y-19200D03*
X14700Y-24200D03*
X15700Y-20200D03*
X14700Y-25200D03*
X15700Y-21200D03*
X14700Y-26200D03*
X15700Y-22200D03*
X14700Y-27200D03*
X15700Y-23200D03*
X14700Y-28200D03*
X15700Y-24200D03*
X14700Y-29200D03*
X15700Y-25200D03*
X14700Y-30200D03*
X15700Y-26200D03*
X15700Y-27200D03*
X14700Y-31200D03*
X15700Y-28200D03*
X15700Y-30200D03*
X15700Y-31200D03*
X15700Y-32200D03*
X15700Y-33200D03*
X14700Y-32200D03*
X14700Y-33200D03*
X14700Y-16200D03*
X14700Y-17200D03*
X14700Y-18200D03*
X14700Y-19200D03*
X14700Y-34200D03*
X15700Y-34200D03*
X15700Y-29200D03*
X14700Y-35200D03*
X15700Y-35200D03*
X14700Y-36200D03*
X15700Y-36200D03*
X14700Y-37200D03*
X15700Y-37200D03*
X14700Y-38200D03*
X15700Y-38200D03*
X14700Y-39200D03*
X15700Y-39200D03*
G54D29*
X17820Y-12782D03*
X36300Y-12936D03*
X24596Y-39160D03*
X46382Y-39200D03*
M02*
